<svg xmlns="http://www.w3.org/2000/svg" width="24" height="24" viewBox="0 0 24 24" fill="none">
<g id="docker">
<g id="Group">
<path id="Vector" d="M23.7648 9.89505C23.7009 9.84466 23.0929 9.38444 21.8096 9.38444C21.4704 9.38444 21.1344 9.41467 20.7985 9.47177C20.5499 7.77194 19.1457 6.94216 19.0819 6.90522L18.7392 6.70703L18.5141 7.03291C18.2319 7.47297 18.0237 7.95672 17.9027 8.464C17.6743 9.43483 17.812 10.3452 18.3059 11.1246C17.7113 11.4572 16.7538 11.5378 16.5623 11.5445H0.749959C0.336756 11.5445 0.000849793 11.8804 0.000849793 12.2903C-0.0159315 13.6743 0.215865 15.0516 0.692865 16.3517C1.23708 17.7794 2.04666 18.8309 3.10149 19.4759C4.28396 20.1981 6.20218 20.6113 8.37901 20.6113C9.36329 20.6147 10.3442 20.524 11.3084 20.3459C12.6521 20.1007 13.9455 19.6304 15.1313 18.9551C16.1089 18.3874 16.9924 17.6651 17.7415 16.8186C18.9946 15.401 19.7403 13.8221 20.2946 12.4179C20.3686 12.4179 20.4424 12.4179 20.5163 12.4179C21.887 12.4179 22.7302 11.8703 23.1971 11.41C23.5061 11.1178 23.748 10.7583 23.9026 10.3619L24 10.073L23.7648 9.89505Z" fill="#444444"/>
<path id="Vector_2" d="M2.21457 11.0817H4.3343C4.43508 11.0817 4.51908 10.9977 4.51908 10.8969V9.009C4.51908 8.90822 4.43846 8.82422 4.3343 8.82422H2.21457C2.11379 8.82422 2.02979 8.90822 2.02979 9.009V10.8969C2.02979 10.9977 2.11379 11.0817 2.21457 11.0817Z" fill="#444444"/>
<path id="Vector_3" d="M5.134 11.0817H7.25373C7.35452 11.0817 7.43852 10.9977 7.43852 10.8969V9.009C7.43852 8.90822 7.35789 8.82422 7.25373 8.82422H5.134C5.02984 8.82422 4.94922 8.90822 4.94922 9.009V10.8969C4.94922 10.9977 5.03322 11.0817 5.134 11.0817Z" fill="#444444"/>
<path id="Vector_4" d="M8.10031 11.0817H10.22C10.3208 11.0817 10.4048 10.9977 10.4048 10.8969V9.009C10.4048 8.90822 10.3242 8.82422 10.22 8.82422H8.10031C7.99953 8.82422 7.91553 8.90822 7.91553 9.009V10.8969C7.91553 10.9977 7.99615 11.0817 8.10031 11.0817Z" fill="#444444"/>
<path id="Vector_5" d="M11.0295 11.0817H13.1492C13.25 11.0817 13.334 10.9977 13.334 10.8969V9.009C13.334 8.90484 13.25 8.82422 13.1492 8.82422H11.0295C10.9287 8.82422 10.8447 8.90822 10.8447 9.009V10.8969C10.8447 10.9977 10.9254 11.0817 11.0295 11.0817Z" fill="#444444"/>
<path id="Vector_6" d="M5.134 8.36687H7.25373C7.35452 8.36687 7.43852 8.28288 7.43852 8.18209V6.29416C7.43852 6.19338 7.35452 6.10938 7.25373 6.10938H5.134C5.03322 6.10938 4.94922 6.19338 4.94922 6.29416V8.18209C4.94922 8.28292 5.03322 8.36687 5.134 8.36687Z" fill="#444444"/>
<path id="Vector_7" d="M8.10031 8.36687H10.22C10.3208 8.36687 10.4048 8.28288 10.4048 8.18209V6.29416C10.4048 6.19338 10.3208 6.10938 10.22 6.10938H8.10031C7.99953 6.10938 7.91553 6.19338 7.91553 6.29416V8.18209C7.91553 8.28292 7.99615 8.36687 8.10031 8.36687Z" fill="#444444"/>
<path id="Vector_8" d="M11.0295 8.36687H13.1492C13.2534 8.36687 13.334 8.28288 13.334 8.18209V6.29416C13.334 6.19338 13.25 6.10938 13.1492 6.10938H11.0295C10.9287 6.10938 10.8447 6.19338 10.8447 6.29416V8.18209C10.8447 8.28292 10.9254 8.36687 11.0295 8.36687Z" fill="#444444"/>
<path id="Vector_9" d="M11.0295 5.64812H13.1492C13.25 5.64812 13.334 5.56412 13.334 5.46334V3.57541C13.334 3.47463 13.25 3.39062 13.1492 3.39062H11.0295C10.9287 3.39062 10.8447 3.47463 10.8447 3.57541V5.46334C10.8447 5.5675 10.9254 5.64812 11.0295 5.64812Z" fill="#444444"/>
<path id="Vector_10" d="M13.9826 11.0817H16.1024C16.2031 11.0817 16.2871 10.9977 16.2871 10.8969V9.009C16.2871 8.90484 16.2031 8.82422 16.1024 8.82422H13.9826C13.8819 8.82422 13.7979 8.90822 13.7979 9.009V10.8969C13.7979 10.9977 13.8819 11.0817 13.9826 11.0817Z" fill="#444444"/>
</g>
</g>
</svg>