<svg class="w-8 h-8" viewBox="0 0 24 24" fill="currentColor">
          <path d="M10.204 14.35l.007.01-.999 2.413a5.171 5.171 0 002.075-1.271l-1.083-1.152zm2.824-1.077l.01-.006 2.413.999a5.171 5.171 0 00-1.271-2.075l-1.152 1.082zm1.077-2.824l.006-.01 1.152-1.082a5.171 5.171 0 00-2.075-1.271l.999 2.413-.082-.05zm-2.824-1.077l-.01.007-2.413-.999a5.171 5.171 0 011.271-2.075l1.152 1.083zm-1.077 2.824l-.007-.01-.999-2.413a5.171 5.171 0 00-2.075 1.271l1.083 1.152zm-2.824 1.077l-.01.006-2.413-.999a5.171 5.171 0 001.271 2.075l1.152-1.082zm-1.077 2.824l-.006.01-1.152 1.082a5.171 5.171 0 002.075 1.271l-.999-2.413.082.05zm2.824 1.077l.01-.007 2.413.999a5.171 5.171 0 01-1.271 2.075l-1.152-1.083zM12 1.736l-.407.962.407-.962zm-1.588 6.02l-.48 1.158 1.158-.48-.678-.678zm3.176 0l-.678.678 1.158.48-.48-1.158zM12 9.641l-.678.678.678.678.678-.678L12 9.641zm-2.588 2.02l-.48 1.158 1.158-.48-.678-.678zm5.176 0l-.678.678 1.158.48-.48-1.158zM12 12.641l-.678.678.678.678.678-.678-.678-.678zm-1.588 2.02l-.48 1.158 1.158-.48-.678-.678zm3.176 0l-.678.678 1.158.48-.48-1.158z" />
        </svg>