<svg width="54" height="54" viewBox="0 0 54 54" fill="none" xmlns="http://www.w3.org/2000/svg">
<g clip-path="url(#clip0_1284_1790)">
<g filter="url(#filter0_iii_1284_1790)">
<path d="M45 0H9C4.02944 0 0 4.02944 0 9V45C0 49.9706 4.02944 54 9 54H45C49.9706 54 54 49.9706 54 45V9C54 4.02944 49.9706 0 45 0Z" fill="white" fill-opacity="0.01"/>
</g>
<g filter="url(#filter1_f_1284_1790)">
<path d="M35.7273 14H18.2727C16.4652 14 15 15.4652 15 17.2727V34.7273C15 36.5347 16.4652 38 18.2727 38H35.7273C37.5347 38 39 36.5347 39 34.7273V17.2727C39 15.4652 37.5347 14 35.7273 14Z" fill="#0077B5"/>
</g>
<g clip-path="url(#clip1_1284_1790)">
<path d="M35.7273 14H18.2727C16.4652 14 15 15.4652 15 17.2727V34.7273C15 36.5347 16.4652 38 18.2727 38H35.7273C37.5347 38 39 36.5347 39 34.7273V17.2727C39 15.4652 37.5347 14 35.7273 14Z" fill="#0077B5"/>
<path d="M23.6456 20.5455C23.6456 20.95 23.5256 21.3455 23.3009 21.6818C23.0761 22.0182 22.7567 22.2804 22.3829 22.4352C22.0091 22.59 21.5979 22.6305 21.2011 22.5516C20.8043 22.4727 20.4399 22.2779 20.1538 21.9918C19.8677 21.7057 19.6729 21.3413 19.594 20.9445C19.5151 20.5477 19.5556 20.1365 19.7104 19.7627C19.8652 19.3889 20.1274 19.0695 20.4637 18.8447C20.8001 18.62 21.1956 18.5 21.6001 18.5C22.1426 18.5 22.6629 18.7155 23.0465 19.0991C23.4301 19.4827 23.6456 20.003 23.6456 20.5455Z" fill="white"/>
<path d="M23.1818 23.9545V32.9914C23.1821 33.058 23.1693 33.1241 23.1441 33.1858C23.1188 33.2475 23.0816 33.3036 23.0346 33.3509C22.9876 33.3981 22.9317 33.4356 22.8701 33.4612C22.8086 33.4868 22.7425 33.5 22.6759 33.5H20.52C20.4533 33.5002 20.3873 33.4872 20.3256 33.4617C20.264 33.4363 20.208 33.399 20.1609 33.3518C20.1137 33.3047 20.0764 33.2487 20.0509 33.1871C20.0255 33.1254 20.0125 33.0594 20.0127 32.9927V23.9545C20.0127 23.82 20.0661 23.691 20.1613 23.5958C20.2564 23.5007 20.3854 23.4473 20.52 23.4473H22.6759C22.8102 23.4476 22.9389 23.5012 23.0337 23.5963C23.1285 23.6914 23.1818 23.8202 23.1818 23.9545Z" fill="white"/>
<path d="M34.4512 28.6591V33.0336C34.4514 33.0949 34.4395 33.1556 34.4161 33.2123C34.3927 33.269 34.3584 33.3204 34.315 33.3638C34.2717 33.4071 34.2202 33.4415 34.1635 33.4648C34.1069 33.4882 34.0462 33.5001 33.9849 33.5H31.6667C31.6054 33.5001 31.5447 33.4882 31.488 33.4648C31.4313 33.4415 31.3799 33.4071 31.3365 33.3638C31.2932 33.3204 31.2588 33.269 31.2355 33.2123C31.2121 33.1556 31.2001 33.0949 31.2003 33.0336V28.7941C31.2003 28.1613 31.3858 26.0232 29.5462 26.0232C28.1212 26.0232 27.8308 27.4863 27.7735 28.1436V33.0336C27.7735 33.1561 27.7253 33.2737 27.6393 33.361C27.5533 33.4483 27.4365 33.4982 27.314 33.5H25.0749C25.0137 33.5 24.9531 33.4879 24.8966 33.4644C24.8401 33.441 24.7888 33.4066 24.7456 33.3633C24.7024 33.32 24.6682 33.2685 24.6449 33.212C24.6216 33.1554 24.6097 33.0948 24.6099 33.0336V23.915C24.6097 23.8538 24.6216 23.7932 24.6449 23.7366C24.6682 23.68 24.7024 23.6286 24.7456 23.5853C24.7888 23.542 24.8401 23.5076 24.8966 23.4841C24.9531 23.4607 25.0137 23.4486 25.0749 23.4486H27.314C27.4376 23.4486 27.5563 23.4977 27.6437 23.5852C27.7312 23.6727 27.7803 23.7913 27.7803 23.915V24.7032C28.3094 23.9095 29.0935 23.2972 30.7667 23.2972C34.473 23.2972 34.4512 26.7582 34.4512 28.6591Z" fill="white"/>
</g>
<g clip-path="url(#clip2_1284_1790)" filter="url(#filter2_f_1284_1790)">
<path d="M6 53.9997C11.7437 50.9814 28.1863 46.7547 48 53.9997H6Z" fill="url(#paint0_linear_1284_1790)" fill-opacity="0.79"/>
</g>
</g>
<defs>
<filter id="filter0_iii_1284_1790" x="0" y="-3" width="64" height="67" filterUnits="userSpaceOnUse" color-interpolation-filters="sRGB">
<feFlood flood-opacity="0" result="BackgroundImageFix"/>
<feBlend mode="normal" in="SourceGraphic" in2="BackgroundImageFix" result="shape"/>
<feColorMatrix in="SourceAlpha" type="matrix" values="0 0 0 0 0 0 0 0 0 0 0 0 0 0 0 0 0 0 127 0" result="hardAlpha"/>
<feOffset dx="10" dy="10"/>
<feGaussianBlur stdDeviation="7.5"/>
<feComposite in2="hardAlpha" operator="arithmetic" k2="-1" k3="1"/>
<feColorMatrix type="matrix" values="0 0 0 0 0.121569 0 0 0 0 0.12549 0 0 0 0 0.12549 0 0 0 1 0"/>
<feBlend mode="normal" in2="shape" result="effect1_innerShadow_1284_1790"/>
<feColorMatrix in="SourceAlpha" type="matrix" values="0 0 0 0 0 0 0 0 0 0 0 0 0 0 0 0 0 0 127 0" result="hardAlpha"/>
<feOffset dx="1" dy="-3"/>
<feGaussianBlur stdDeviation="5.4"/>
<feComposite in2="hardAlpha" operator="arithmetic" k2="-1" k3="1"/>
<feColorMatrix type="matrix" values="0 0 0 0 0 0 0 0 0 0.466667 0 0 0 0 0.709804 0 0 0 1 0"/>
<feBlend mode="normal" in2="effect1_innerShadow_1284_1790" result="effect2_innerShadow_1284_1790"/>
<feColorMatrix in="SourceAlpha" type="matrix" values="0 0 0 0 0 0 0 0 0 0 0 0 0 0 0 0 0 0 127 0" result="hardAlpha"/>
<feOffset dx="8" dy="6"/>
<feGaussianBlur stdDeviation="5.95"/>
<feComposite in2="hardAlpha" operator="arithmetic" k2="-1" k3="1"/>
<feColorMatrix type="matrix" values="0 0 0 0 0.181548 0 0 0 0 0.181548 0 0 0 0 0.181548 0 0 0 0.99 0"/>
<feBlend mode="normal" in2="effect2_innerShadow_1284_1790" result="effect3_innerShadow_1284_1790"/>
</filter>
<filter id="filter1_f_1284_1790" x="-0.6" y="-1.6" width="55.2" height="55.2" filterUnits="userSpaceOnUse" color-interpolation-filters="sRGB">
<feFlood flood-opacity="0" result="BackgroundImageFix"/>
<feBlend mode="normal" in="SourceGraphic" in2="BackgroundImageFix" result="shape"/>
<feGaussianBlur stdDeviation="7.8" result="effect1_foregroundBlur_1284_1790"/>
</filter>
<filter id="filter2_f_1284_1790" x="2" y="46" width="50" height="12" filterUnits="userSpaceOnUse" color-interpolation-filters="sRGB">
<feFlood flood-opacity="0" result="BackgroundImageFix"/>
<feBlend mode="normal" in="SourceGraphic" in2="BackgroundImageFix" result="shape"/>
<feGaussianBlur stdDeviation="2" result="effect1_foregroundBlur_1284_1790"/>
</filter>
<linearGradient id="paint0_linear_1284_1790" x1="27" y1="49.9997" x2="27" y2="53.9997" gradientUnits="userSpaceOnUse">
<stop stop-color="#0077B5"/>
<stop offset="0.8" stop-color="#57B1E0"/>
<stop offset="1" stop-color="#D3E8F4"/>
</linearGradient>
<clipPath id="clip0_1284_1790">
<rect width="54" height="54" fill="white"/>
</clipPath>
<clipPath id="clip1_1284_1790">
<rect width="24" height="24" fill="white" transform="translate(15 14)"/>
</clipPath>
<clipPath id="clip2_1284_1790">
<rect width="42" height="4" fill="white" transform="translate(6 50)"/>
</clipPath>
</defs>
</svg>
