<svg width="54" height="54" viewBox="0 0 54 54" fill="none" xmlns="http://www.w3.org/2000/svg">
<g clip-path="url(#clip0_1434_1899)">
<g opacity="0.2">
<g filter="url(#filter0_iii_1434_1899)">
<path d="M45 0H9C4.02944 0 0 4.02944 0 9V45C0 49.9706 4.02944 54 9 54H45C49.9706 54 54 49.9706 54 45V9C54 4.02944 49.9706 0 45 0Z" fill="white" fill-opacity="0.01"/>
</g>
</g>
<g clip-path="url(#clip1_1434_1899)">
<path d="M35.7273 14H18.2727C16.4652 14 15 15.4652 15 17.2727V34.7273C15 36.5347 16.4652 38 18.2727 38H35.7273C37.5347 38 39 36.5347 39 34.7273V17.2727C39 15.4652 37.5347 14 35.7273 14Z" fill="#0077B5"/>
<path d="M23.6454 20.5455C23.6454 20.95 23.5254 21.3455 23.3006 21.6818C23.0759 22.0182 22.7564 22.2804 22.3827 22.4352C22.0089 22.59 21.5976 22.6305 21.2009 22.5516C20.8041 22.4727 20.4396 22.2779 20.1535 21.9918C19.8675 21.7057 19.6727 21.3413 19.5937 20.9445C19.5148 20.5477 19.5553 20.1365 19.7101 19.7627C19.865 19.3889 20.1271 19.0695 20.4635 18.8447C20.7999 18.62 21.1953 18.5 21.5999 18.5C22.1424 18.5 22.6627 18.7155 23.0463 19.0991C23.4299 19.4827 23.6454 20.003 23.6454 20.5455Z" fill="white"/>
<path d="M23.1818 23.9545V32.9914C23.1821 33.058 23.1693 33.1241 23.1441 33.1858C23.1188 33.2475 23.0816 33.3036 23.0346 33.3509C22.9876 33.3981 22.9317 33.4356 22.8701 33.4612C22.8086 33.4868 22.7425 33.5 22.6759 33.5H20.52C20.4533 33.5002 20.3873 33.4872 20.3256 33.4617C20.264 33.4363 20.208 33.399 20.1609 33.3518C20.1137 33.3047 20.0764 33.2487 20.0509 33.1871C20.0255 33.1254 20.0125 33.0594 20.0127 32.9927V23.9545C20.0127 23.82 20.0661 23.691 20.1613 23.5958C20.2564 23.5007 20.3854 23.4473 20.52 23.4473H22.6759C22.8102 23.4476 22.9389 23.5012 23.0337 23.5963C23.1285 23.6914 23.1818 23.8202 23.1818 23.9545Z" fill="white"/>
<path d="M34.4507 28.6587V33.0332C34.4509 33.0945 34.439 33.1553 34.4156 33.2119C34.3922 33.2686 34.3579 33.3201 34.3145 33.3634C34.2712 33.4068 34.2197 33.4411 34.1631 33.4645C34.1064 33.4878 34.0457 33.4998 33.9844 33.4996H31.6662C31.6049 33.4998 31.5442 33.4878 31.4875 33.4645C31.4308 33.4411 31.3794 33.4068 31.336 33.3634C31.2927 33.3201 31.2583 33.2686 31.235 33.2119C31.2116 33.1553 31.1997 33.0945 31.1998 33.0332V28.7937C31.1998 28.161 31.3853 26.0228 29.5457 26.0228C28.1207 26.0228 27.8303 27.486 27.773 28.1432V33.0332C27.773 33.1558 27.7248 33.2734 27.6388 33.3606C27.5528 33.4479 27.436 33.4978 27.3135 33.4996H25.0744C25.0132 33.4996 24.9526 33.4875 24.8961 33.4641C24.8396 33.4406 24.7883 33.4062 24.7451 33.3629C24.7019 33.3196 24.6677 33.2682 24.6444 33.2116C24.6211 33.155 24.6092 33.0944 24.6094 33.0332V23.9146C24.6092 23.8534 24.6211 23.7928 24.6444 23.7362C24.6677 23.6797 24.7019 23.6282 24.7451 23.5849C24.7883 23.5416 24.8396 23.5072 24.8961 23.4838C24.9526 23.4603 25.0132 23.4482 25.0744 23.4482H27.3135C27.4372 23.4482 27.5558 23.4974 27.6432 23.5848C27.7307 23.6723 27.7798 23.7909 27.7798 23.9146V24.7028C28.3089 23.9091 29.093 23.2969 30.7662 23.2969C34.4726 23.2969 34.4507 26.7578 34.4507 28.6587Z" fill="white"/>
</g>
</g>
<defs>
<filter id="filter0_iii_1434_1899" x="0" y="-3" width="64" height="67" filterUnits="userSpaceOnUse" color-interpolation-filters="sRGB">
<feFlood flood-opacity="0" result="BackgroundImageFix"/>
<feBlend mode="normal" in="SourceGraphic" in2="BackgroundImageFix" result="shape"/>
<feColorMatrix in="SourceAlpha" type="matrix" values="0 0 0 0 0 0 0 0 0 0 0 0 0 0 0 0 0 0 127 0" result="hardAlpha"/>
<feOffset dx="10" dy="10"/>
<feGaussianBlur stdDeviation="7.5"/>
<feComposite in2="hardAlpha" operator="arithmetic" k2="-1" k3="1"/>
<feColorMatrix type="matrix" values="0 0 0 0 0.121569 0 0 0 0 0.12549 0 0 0 0 0.12549 0 0 0 1 0"/>
<feBlend mode="normal" in2="shape" result="effect1_innerShadow_1434_1899"/>
<feColorMatrix in="SourceAlpha" type="matrix" values="0 0 0 0 0 0 0 0 0 0 0 0 0 0 0 0 0 0 127 0" result="hardAlpha"/>
<feOffset dx="1" dy="-3"/>
<feGaussianBlur stdDeviation="5.4"/>
<feComposite in2="hardAlpha" operator="arithmetic" k2="-1" k3="1"/>
<feColorMatrix type="matrix" values="0 0 0 0 0 0 0 0 0 0.466667 0 0 0 0 0.709804 0 0 0 1 0"/>
<feBlend mode="normal" in2="effect1_innerShadow_1434_1899" result="effect2_innerShadow_1434_1899"/>
<feColorMatrix in="SourceAlpha" type="matrix" values="0 0 0 0 0 0 0 0 0 0 0 0 0 0 0 0 0 0 127 0" result="hardAlpha"/>
<feOffset dx="8" dy="6"/>
<feGaussianBlur stdDeviation="5.95"/>
<feComposite in2="hardAlpha" operator="arithmetic" k2="-1" k3="1"/>
<feColorMatrix type="matrix" values="0 0 0 0 0.181548 0 0 0 0 0.181548 0 0 0 0 0.181548 0 0 0 0.99 0"/>
<feBlend mode="normal" in2="effect2_innerShadow_1434_1899" result="effect3_innerShadow_1434_1899"/>
</filter>
<clipPath id="clip0_1434_1899">
<rect width="54" height="54" fill="white"/>
</clipPath>
<clipPath id="clip1_1434_1899">
<rect width="24" height="24" fill="white" transform="translate(15 14)"/>
</clipPath>
</defs>
</svg>
