 <svg class="w-8 h-8" viewBox="0 0 24 24" fill="currentColor"><path d="M12.504 0c-.155 0-.315.008-.48.021-4.226.333-3.105 4.807-3.17 6.298-.076 1.092-.3 1.953-1.05 3.02-.885 1.051-2.127 2.75-2.716 4.521-.278.832-.41 1.684-.287 2.489a.424.424 0 00-.11.135c-.26.268-.45.6-.663.839-.199.199-.485.267-.797.4-.313.136-.658.269-.864.68-.09.189-.136.394-.132.602 0 .199.027.4.055.536.058.399.116.728.04.97-.249.68-.28 1.145-.106 1.484.174.334.535.47.94.601.81.2 1.91.135 2.774.6.926.466 1.866.67 2.616.47.526-.116.97-.464 1.208-.946.587-.003 1.23-.269 2.26-.334.699-.058 1.574.267 2.577.2.025.134.063.198.114.333l.003.003c.391.778 1.113 1.132 1.884 1.071.771-.06 1.592-.536 2.257-1.306.631-.765 1.683-1.084 2.378-1.503.348-.199.629-.469.649-.853.023-.4-.2-.811-.714-1.376v-.097l-.003-.003c-.17-.2-.25-.535-.338-.926-.085-.401-.182-.786-.492-1.046h-.003c-.059-.054-.123-.067-.188-.135a.357.357 0 00-.19-.064c.431-1.278.264-2.55-.173-3.694-.533-1.41-1.465-2.638-2.175-3.483-.796-1.005-1.576-1.957-1.56-3.368.026-2.152.236-6.133-3.544-6.139zm.529 3.405h.013c.213 0 .396.062.584.198.19.135.33.332.438.533.105.259.158.459.166.724 0-.02.006-.04.006-.06v.105a.086.086 0 01-.004-.021l-.004-.024a1.807 1.807 0 01-.15.706c-.1.351-.221.705-.418 1.002a1.67 1.67 0 01-.352.535 1.084 1.084 0 01-.604.3c-.365.074-.583-.035-.1-.172.317-.084.609-.29.804-.548.295-.38.54-.8.729-1.26.05-.12.09-.259.123-.399.035-.146.056-.2.056-.335 0-.22-.062-.4-.18-.572-.243-.29-.618-.4-1.002-.329-.365.058-.683.252-.907.537-.243.3-.407.644-.489.99-.09.353-.123.734-.105 1.098.02.368.082.731.222 1.058.404.94 1.237 1.466 2.115 1.7.067.018.133.048.2.08l.007.003c.133.06.27.13.335.22a.613.613 0 01.118.316c.008.11-.01.24-.052.312-.061.105-.174.25-.307.334-.132.085-.27.134-.39.135-.264.004-.544-.174-.775-.395a3.255 3.255 0 01-.729-.81c-.315-.508-.54-1.134-.654-1.764-.11-.634-.11-1.264.027-1.859.134-.6.412-1.186.816-1.67.4-.48.94-.8 1.554-.834z" />
        </svg>