<svg width="800" height="800" viewBox="0 0 800 800" fill="none" xmlns="http://www.w3.org/2000/svg">
<path d="M336.11 67.4873C382.378 35.5597 468.217 31.1327 501.321 106.039C534.421 180.833 503.554 239.358 539.909 290.052C576.264 340.595 623.553 407.822 637.892 449.624C652.21 491.56 636.874 542.171 636.832 542.311C636.832 542.311 654.424 557.671 653.402 580.709C652.23 603.939 667.59 616.045 686.354 623.724C705.117 631.405 710.602 656.675 680.716 673.245C651.018 689.777 598.128 716.224 578.305 737.22C558.52 758.065 527.649 757.004 513.311 749.175C498.973 741.494 491.292 723.902 491.292 723.902C491.292 723.902 451.683 714.028 409.841 715.2C368.039 716.224 328.276 725.113 328.276 725.113C328.238 725.213 317.281 753.628 282.009 749.175C246.864 744.9 204.868 720.687 167.491 716.224C129.964 711.796 91.5275 704.117 99.2061 678.85C106.887 653.577 113.545 642.492 106.888 622.707C100.266 602.884 100.266 585.177 127.732 579.541C155.387 574.204 170.747 566.375 178.428 549.994C186.233 533.477 196.104 530.04 196.17 530.018C196.129 529.923 186.287 506.927 200.445 481.707C214.934 456.284 229.274 394.655 249.06 364.807C268.883 335.109 298.732 299.66 303.007 289.9C307.281 280.289 308.492 253.542 306.26 216.166C304.028 178.598 289.843 99.4171 336.11 67.4873ZM381.77 210.076C372.311 208.335 356.65 221.613 350.596 227.251C344.541 232.698 330.657 243.329 330.657 243.329C326.196 251.008 343.936 265.496 353.395 271.701C362.855 277.791 367.885 282.786 376.738 281.614C385.63 280.442 413.398 263.305 426.109 255.624C438.971 247.793 443.851 247.792 445.023 241.552C446.045 235.497 435.568 229.445 426.109 226.191C416.649 222.787 391.077 211.703 381.77 210.076Z" fill="currentColor"/>
</svg>
