<svg width="707" height="457" viewBox="0 0 707 457" fill="none" xmlns="http://www.w3.org/2000/svg">
<path d="M563.65 157.63H706.14L682.93 174.38V207.38C682.93 209.205 682.205 210.955 680.915 212.245C679.625 213.535 677.875 214.26 676.05 214.26H563.65C561.825 214.26 560.075 213.535 558.785 212.245C557.495 210.955 556.77 209.205 556.77 207.38V164.51C556.77 162.685 557.495 160.935 558.785 159.645C560.075 158.355 561.825 157.63 563.65 157.63Z" fill="#F5F5F5"/>
<path d="M569.59 180.92C569.59 181.06 591.08 181.17 617.59 181.17C644.1 181.17 665.59 181.06 665.59 180.92C665.59 180.78 644.1 180.67 617.59 180.67C591.08 180.67 569.59 180.78 569.59 180.92Z" fill="#E0E0E0"/>
<path d="M569.59 193.57C569.59 193.71 591.08 193.82 617.59 193.82C644.1 193.82 665.59 193.71 665.59 193.57C665.59 193.43 644.1 193.32 617.59 193.32C591.08 193.32 569.59 193.44 569.59 193.57Z" fill="#E0E0E0"/>
<path d="M347.24 36.0298H340.57V58.3698H347.24V36.0298Z" fill="#E0E0E0"/>
<path d="M291.54 32.7998H284.87V58.3698H291.54V32.7998Z" fill="#E0E0E0"/>
<path d="M305.47 27.4697H298.8V58.3697H305.47V27.4697Z" fill="#E0E0E0"/>
<path d="M319.39 29.1597H312.72V58.3697H319.39V29.1597Z" fill="#E0E0E0"/>
<path d="M333.31 19.2798H326.64V58.3698H333.31V19.2798Z" fill="#E0E0E0"/>
<path d="M361.16 19.4697H354.49V58.3697H361.16V19.4697Z" fill="#E0E0E0"/>
<path d="M375.09 32.25H368.42V58.37H375.09V32.25Z" fill="#E0E0E0"/>
<path d="M389.01 21.1797H382.34V58.3697H389.01V21.1797Z" fill="#E0E0E0"/>
<path d="M402.94 12.8101H396.27V58.3701H402.94V12.8101Z" fill="#E0E0E0"/>
<path d="M416.86 20.9897H410.19V58.3698H416.86V20.9897Z" fill="#E0E0E0"/>
<path d="M592.56 56.2999L647.7 47.8699C649.468 59.3963 647.58 71.187 642.302 81.5854C637.024 91.9838 628.621 100.467 618.273 105.844C607.925 111.221 596.153 113.221 584.61 111.562C573.068 109.904 562.334 104.671 553.919 96.5992C545.503 88.527 539.828 78.021 537.69 66.5574C535.553 55.0937 537.061 43.2484 542.002 32.6857C546.943 22.1231 555.069 13.3738 565.238 7.66727C575.408 1.96069 587.11 -0.416438 598.7 0.869857L592.56 56.2999Z" fill="#EBEBEB"/>
<path d="M610.45 1L603.76 43.74L645.76 35.86C645.76 35.86 639.55 11.94 610.45 1Z" fill="#E0E0E0"/>
<path d="M29.4801 160C29.4136 154.597 30.9493 149.296 33.8933 144.766C36.8372 140.236 41.0575 136.679 46.0212 134.545C50.9849 132.412 56.4695 131.797 61.7825 132.778C67.0955 133.759 71.9987 136.292 75.8731 140.058C79.7475 143.823 82.4193 148.652 83.5513 153.935C84.6832 159.218 84.2245 164.718 82.233 169.741C80.2416 174.763 76.8067 179.083 72.362 182.155C67.9174 185.226 62.6622 186.912 57.2601 187C49.9995 187.091 42.9988 184.3 37.7918 179.239C32.5848 174.178 29.596 167.26 29.4801 160ZM69.8901 159.34C69.8346 156.76 69.0166 154.254 67.5392 152.138C66.0617 150.022 63.9911 148.391 61.5881 147.45C59.1852 146.51 56.5575 146.301 54.0363 146.851C51.5151 147.402 49.2131 148.686 47.4207 150.542C45.6282 152.399 44.4254 154.744 43.9639 157.283C43.5023 159.822 43.8027 162.441 44.8272 164.81C45.8516 167.178 47.5543 169.19 49.7206 170.593C51.8868 171.995 54.4198 172.725 57.0001 172.69C58.7235 172.661 60.4244 172.293 62.0053 171.606C63.5863 170.919 65.0163 169.928 66.2136 168.688C67.4108 167.448 68.3518 165.984 68.9827 164.38C69.6135 162.776 69.9219 161.063 69.8901 159.34Z" fill="#F5F5F5"/>
<path d="M29.48 160C29.3541 152.734 32.1156 145.715 37.1586 140.482C42.2017 135.25 49.1143 132.232 56.3799 132.09L56.61 146.42C53.1804 146.551 49.9381 148.018 47.5764 150.508C45.2147 152.998 43.921 156.314 43.9719 159.745C44.0228 163.177 45.4144 166.453 47.849 168.872C50.2836 171.291 53.568 172.661 57 172.69L57.26 187C49.9986 187.093 42.9964 184.304 37.7888 179.242C32.5812 174.181 29.5932 167.261 29.48 160Z" fill="#E0E0E0"/>
<path d="M53.9299 129.88C58.086 129.781 62.2199 130.513 66.0898 132.032C69.9597 133.55 73.4878 135.826 76.4676 138.724C79.4475 141.623 81.8191 145.087 83.4439 148.914C85.0686 152.74 85.9138 156.853 85.9299 161.01L69.2299 161.27C69.0999 152.8 62.6499 147.47 54.2299 147.61L53.9299 129.88Z" fill="#EBEBEB"/>
<path d="M207.12 256.44H172.36V297.76H207.12V256.44Z" fill="#F5F5F5"/>
<path d="M173.57 253.74H16.5V300.35H173.57V253.74Z" fill="#E0E0E0"/>
<path d="M208.17 257.66H169.35V253.74H208.17C208.701 253.74 209.209 253.95 209.584 254.326C209.959 254.701 210.17 255.209 210.17 255.74C210.149 256.256 209.93 256.745 209.557 257.103C209.184 257.46 208.687 257.66 208.17 257.66Z" fill="#E0E0E0"/>
<path d="M208.17 300.35H169.35V296.43H208.17C208.701 296.43 209.209 296.64 209.584 297.015C209.959 297.391 210.17 297.899 210.17 298.43C210.149 298.946 209.93 299.435 209.557 299.792C209.184 300.15 208.687 300.35 208.17 300.35Z" fill="#E0E0E0"/>
<path d="M161.22 253.74H142.66V300.35H161.22V253.74Z" fill="#EBEBEB"/>
<path d="M49.9899 254.26H31.4299V300.87H49.9899V254.26Z" fill="#EBEBEB"/>
<path d="M207.12 263.27C207.12 263.39 199.6 263.48 190.32 263.48C181.04 263.48 173.52 263.39 173.52 263.27C173.52 263.15 181.04 263.06 190.32 263.06C199.6 263.06 207.12 263.16 207.12 263.27Z" fill="#E0E0E0"/>
<path d="M207.12 269.47C207.12 269.58 199.6 269.67 190.32 269.67C181.04 269.67 173.52 269.58 173.52 269.47C173.52 269.36 181.04 269.26 190.32 269.26C199.6 269.26 207.12 269.35 207.12 269.47Z" fill="#E0E0E0"/>
<path d="M207.12 277.1C207.12 277.21 199.6 277.3 190.32 277.3C181.04 277.3 173.52 277.21 173.52 277.1C173.52 276.99 181.04 276.89 190.32 276.89C199.6 276.89 207.12 277 207.12 277.1Z" fill="#E0E0E0"/>
<path d="M207.12 284.72C207.12 284.84 199.6 284.93 190.32 284.93C181.04 284.93 173.52 284.84 173.52 284.72C173.52 284.6 181.04 284.52 190.32 284.52C199.6 284.52 207.12 284.61 207.12 284.72Z" fill="#E0E0E0"/>
<path d="M207.12 292.35C207.12 292.47 199.6 292.56 190.32 292.56C181.04 292.56 173.52 292.47 173.52 292.35C173.52 292.23 181.04 292.15 190.32 292.15C199.6 292.15 207.12 292.24 207.12 292.35Z" fill="#E0E0E0"/>
<path d="M132.68 272.9H62.02V281.29H132.68V272.9Z" fill="#EBEBEB"/>
<path d="M206.77 301.27H171.48V326.45H206.77V301.27Z" fill="#FAFAFA"/>
<path d="M171.88 300.35H21.7V327.35H171.88V300.35Z" fill="#F5F5F5"/>
<path d="M170.78 302.18H208.71C208.83 302.18 208.948 302.156 209.058 302.11C209.169 302.065 209.269 301.998 209.354 301.913C209.438 301.829 209.505 301.728 209.551 301.618C209.596 301.507 209.62 301.389 209.62 301.27C209.62 301.027 209.524 300.795 209.354 300.623C209.184 300.45 208.952 300.352 208.71 300.35H170.78V302.18Z" fill="#F5F5F5"/>
<path d="M170.78 325.53H209.2C209.311 325.53 209.418 325.574 209.497 325.653C209.576 325.732 209.62 325.838 209.62 325.95V326.95C209.62 327.061 209.576 327.168 209.497 327.247C209.418 327.326 209.311 327.37 209.2 327.37H170.78V325.54V325.53Z" fill="#F5F5F5"/>
<path d="M206.77 306.05C206.77 306.16 198.95 306.26 189.32 306.26C179.69 306.26 171.87 306.16 171.87 306.05C171.87 305.94 179.68 305.84 189.32 305.84C198.96 305.84 206.77 305.94 206.77 306.05Z" fill="#E0E0E0"/>
<path d="M206.77 310.81C206.77 310.93 198.95 311.02 189.32 311.02C179.69 311.02 171.87 310.93 171.87 310.81C171.87 310.69 179.68 310.61 189.32 310.61C198.96 310.61 206.77 310.7 206.77 310.81Z" fill="#E0E0E0"/>
<path d="M206.77 315.58C206.77 315.69 198.95 315.78 189.32 315.78C179.69 315.78 171.87 315.69 171.87 315.58C171.87 315.47 179.68 315.37 189.32 315.37C198.96 315.37 206.77 315.46 206.77 315.58Z" fill="#E0E0E0"/>
<path d="M206.77 320.34C206.77 320.45 198.95 320.54 189.32 320.54C179.69 320.54 171.87 320.45 171.87 320.34C171.87 320.23 179.68 320.13 189.32 320.13C198.96 320.13 206.77 320.22 206.77 320.34Z" fill="#E0E0E0"/>
<path d="M212.12 329.76H176.1V398.01H212.12V329.76Z" fill="#EBEBEB"/>
<path d="M176.1 327.36H7.03003V401.36H176.1V327.36Z" fill="#E0E0E0"/>
<path d="M214.94 401.35H171.48V396.55H214.94C215.576 396.552 216.185 396.806 216.634 397.256C217.084 397.705 217.337 398.314 217.34 398.95C217.34 399.265 217.278 399.577 217.157 399.868C217.037 400.159 216.86 400.424 216.637 400.647C216.414 400.87 216.15 401.047 215.858 401.167C215.567 401.288 215.255 401.35 214.94 401.35Z" fill="#E0E0E0"/>
<path d="M171.48 327.36H216.24C216.384 327.36 216.527 327.388 216.661 327.444C216.794 327.499 216.916 327.58 217.018 327.682C217.12 327.784 217.201 327.905 217.256 328.039C217.312 328.172 217.34 328.315 217.34 328.46V331.06C217.34 331.352 217.224 331.631 217.018 331.838C216.812 332.044 216.532 332.16 216.24 332.16H171.48V327.36Z" fill="#E0E0E0"/>
<path d="M212.12 338.9C212.12 339.02 204.06 339.11 194.12 339.11C184.18 339.11 176.12 339.02 176.12 338.9C176.12 338.78 184.18 338.7 194.12 338.7C204.06 338.7 212.12 338.79 212.12 338.9Z" fill="#E0E0E0"/>
<path d="M212.12 347.66C212.12 347.77 204.06 347.86 194.12 347.86C184.18 347.86 176.12 347.77 176.12 347.66C176.12 347.55 184.18 347.45 194.12 347.45C204.06 347.45 212.12 347.54 212.12 347.66Z" fill="#E0E0E0"/>
<path d="M212.12 356.41C212.12 356.52 204.06 356.62 194.12 356.62C184.18 356.62 176.12 356.52 176.12 356.41C176.12 356.3 184.18 356.2 194.12 356.2C204.06 356.2 212.12 356.3 212.12 356.41Z" fill="#E0E0E0"/>
<path d="M212.12 365.16C212.12 365.28 204.06 365.37 194.12 365.37C184.18 365.37 176.12 365.28 176.12 365.16C176.12 365.04 184.18 364.96 194.12 364.96C204.06 364.96 212.12 365.05 212.12 365.16Z" fill="#E0E0E0"/>
<path d="M212.12 373.92C212.12 374.03 204.06 374.12 194.12 374.12C184.18 374.12 176.12 374.03 176.12 373.92C176.12 373.81 184.18 373.71 194.12 373.71C204.06 373.71 212.12 373.8 212.12 373.92Z" fill="#E0E0E0"/>
<path d="M212.12 382.67C212.12 382.78 204.06 382.88 194.12 382.88C184.18 382.88 176.12 382.78 176.12 382.67C176.12 382.56 184.18 382.46 194.12 382.46C204.06 382.46 212.12 382.56 212.12 382.67Z" fill="#E0E0E0"/>
<path d="M212.12 391.42C212.12 391.54 204.06 391.63 194.12 391.63C184.18 391.63 176.12 391.54 176.12 391.42C176.12 391.3 184.18 391.22 194.12 391.22C204.06 391.22 212.12 391.31 212.12 391.42Z" fill="#E0E0E0"/>
<path d="M64.8801 368.4V372.52C64.8801 377.52 62.4001 380.31 57.6201 380.31C52.8401 380.31 50.3601 377.48 50.3601 372.52V356.41C50.3601 351.41 52.8401 348.61 57.6201 348.61C62.4001 348.61 64.8801 351.45 64.8801 356.41V359.41H60.2801V356.1C60.2801 353.88 59.2801 353.04 57.7601 353.04C56.2401 353.04 55.2301 353.88 55.2301 356.1V372.83C55.2301 375.05 56.2301 375.83 57.7601 375.83C59.2901 375.83 60.2801 375.04 60.2801 372.83V368.4H64.8801Z" fill="#EBEBEB"/>
<path d="M67.45 356.41C67.45 351.41 70.06 348.61 74.84 348.61C79.62 348.61 82.23 351.45 82.23 356.41V372.52C82.23 377.52 79.62 380.31 74.84 380.31C70.06 380.31 67.45 377.48 67.45 372.52V356.41ZM72.32 372.83C72.32 375.05 73.32 375.89 74.84 375.89C76.36 375.89 77.36 375.05 77.36 372.83V356.1C77.36 353.88 76.36 353.04 74.84 353.04C73.32 353.04 72.32 353.88 72.32 356.1V372.83Z" fill="#EBEBEB"/>
<path d="M85.3701 349H90.2401V375.56H98.2401V380H85.3701V349Z" fill="#EBEBEB"/>
<path d="M100 356.41C100 351.41 102.61 348.61 107.39 348.61C112.17 348.61 114.79 351.45 114.79 356.41V372.52C114.79 377.52 112.18 380.31 107.39 380.31C102.6 380.31 100 377.48 100 372.52V356.41ZM104.87 372.83C104.87 375.05 105.87 375.89 107.39 375.89C108.91 375.89 109.92 375.05 109.92 372.83V356.1C109.92 353.88 108.92 353.04 107.39 353.04C105.86 353.04 104.87 353.88 104.87 356.1V372.83Z" fill="#EBEBEB"/>
<path d="M122.56 349V372.91C122.56 375.12 123.56 375.91 125.08 375.91C126.6 375.91 127.6 375.11 127.6 372.91V349H132.21V372.6C132.21 377.55 129.73 380.39 124.95 380.39C120.17 380.39 117.69 377.55 117.69 372.6V349H122.56Z" fill="#EBEBEB"/>
<path d="M145.71 380C145.299 378.775 145.146 377.477 145.26 376.19V371.32C145.26 368.44 144.26 367.38 142.08 367.38H140.39V380H135.52V349H142.87C147.87 349 150.09 351.35 150.09 356.13V358.56C150.09 361.75 149.09 363.83 146.9 364.85C149.34 365.85 150.13 368.21 150.13 371.44V376.23C150.043 377.507 150.227 378.789 150.67 379.99L145.71 380ZM140.39 353.44V362.95H142.3C144.11 362.95 145.22 362.16 145.22 359.68V356.62C145.22 354.41 144.47 353.44 142.74 353.44H140.39Z" fill="#EBEBEB"/>
<path d="M63.83 311H60.28L60.47 310.08H68.62L68.42 311H64.88L63.05 320.14H62L63.83 311Z" fill="#E0E0E0"/>
<path d="M75.4602 312.57L69.9402 321.11C69.0002 322.55 68.3002 323 67.2102 323C66.8805 323.015 66.5511 322.964 66.2418 322.849C65.9324 322.734 65.6496 322.557 65.4102 322.33L65.9501 321.58C66.1236 321.759 66.3322 321.9 66.5627 321.995C66.7933 322.09 67.041 322.136 67.2902 322.13C67.9402 322.13 68.4402 321.82 69.0302 320.9L69.5602 320.1L67.6802 312.58H68.6802L70.2802 319L74.4102 312.56L75.4602 312.57Z" fill="#E0E0E0"/>
<path d="M83.8601 315.7C83.8929 316.281 83.8063 316.862 83.6057 317.408C83.4051 317.955 83.0947 318.454 82.6936 318.876C82.2926 319.297 81.8095 319.632 81.274 319.86C80.7385 320.088 80.162 320.203 79.5801 320.2C78.9877 320.261 78.3908 320.135 77.874 319.839C77.3571 319.543 76.9465 319.092 76.7001 318.55L75.8401 322.92H74.8401L76.9001 312.57H77.9001L77.6601 313.78C78.0356 313.36 78.4993 313.028 79.0179 312.809C79.5366 312.589 80.0973 312.487 80.6601 312.51C81.0851 312.488 81.5099 312.556 81.9072 312.709C82.3045 312.861 82.6654 313.095 82.9668 313.396C83.2682 313.696 83.5034 314.056 83.6572 314.453C83.8111 314.85 83.8802 315.275 83.8601 315.7ZM82.8601 315.76C82.8833 315.432 82.8337 315.104 82.7149 314.798C82.5961 314.493 82.4109 314.217 82.1728 313.991C81.9347 313.766 81.6495 313.595 81.3378 313.493C81.0261 313.391 80.6956 313.359 80.3701 313.4C79.9111 313.399 79.4571 313.494 79.037 313.679C78.617 313.864 78.2401 314.135 77.9305 314.473C77.6208 314.812 77.3853 315.212 77.2389 315.647C77.0924 316.082 77.0384 316.543 77.0801 317C77.0547 317.327 77.1029 317.656 77.2212 317.962C77.3394 318.268 77.5247 318.544 77.7635 318.77C78.0023 318.995 78.2885 319.164 78.6011 319.265C78.9137 319.365 79.2448 319.394 79.5701 319.35C80.0256 319.346 80.4754 319.248 80.8912 319.062C81.3069 318.876 81.6797 318.606 81.9859 318.268C82.2921 317.931 82.5252 317.534 82.6705 317.102C82.8158 316.671 82.8701 316.213 82.8301 315.76H82.8601Z" fill="#E0E0E0"/>
<path d="M85.0501 317C85.0226 316.413 85.1159 315.827 85.3242 315.277C85.5325 314.728 85.8514 314.228 86.2611 313.807C86.6708 313.386 87.1626 313.053 87.706 312.83C88.2494 312.607 88.8328 312.498 89.4201 312.51C91.5201 312.51 92.8601 313.75 92.8601 315.7C92.8875 316.287 92.7943 316.873 92.5861 317.423C92.3779 317.973 92.0591 318.474 91.6496 318.896C91.24 319.318 90.7484 319.651 90.2049 319.875C89.6615 320.099 89.0779 320.21 88.4901 320.2C88.0472 320.247 87.5992 320.199 87.1765 320.058C86.7538 319.918 86.3662 319.688 86.04 319.384C85.7138 319.081 85.4566 318.711 85.2859 318.3C85.1151 317.888 85.0347 317.445 85.0501 317ZM91.8401 315.76C91.8633 315.432 91.8137 315.104 91.6949 314.798C91.5761 314.492 91.3909 314.217 91.1528 313.991C90.9147 313.765 90.6296 313.595 90.3179 313.493C90.0061 313.391 89.6756 313.359 89.3501 313.4C88.8979 313.405 88.4516 313.503 88.0384 313.687C87.6253 313.871 87.2539 314.137 86.947 314.47C86.6401 314.802 86.404 315.193 86.2533 315.619C86.1025 316.046 86.0402 316.498 86.0701 316.95C86.0466 317.277 86.0961 317.605 86.215 317.91C86.3339 318.215 86.5192 318.49 86.7575 318.715C86.9959 318.94 87.2813 319.109 87.593 319.21C87.9048 319.312 88.2351 319.342 88.5601 319.3C89.0123 319.297 89.4591 319.201 89.8729 319.019C90.2867 318.836 90.6588 318.571 90.9661 318.239C91.2735 317.908 91.5096 317.516 91.6599 317.09C91.8102 316.663 91.8715 316.211 91.8401 315.76Z" fill="#E0E0E0"/>
<path d="M102.64 312.57L101.32 319.21C100.79 321.89 99.3801 322.99 96.9201 322.99C95.6972 323.054 94.4959 322.65 93.5601 321.86L94.1601 321.08C94.9404 321.77 95.9593 322.129 97.0001 322.08C97.3928 322.117 97.789 322.076 98.166 321.96C98.543 321.844 98.8934 321.655 99.1971 321.403C99.5009 321.151 99.752 320.842 99.9361 320.493C100.12 320.145 100.234 319.763 100.27 319.37L100.45 318.54C100.073 318.959 99.6095 319.291 99.0916 319.514C98.5737 319.737 98.0136 319.845 97.4501 319.83C95.4501 319.83 94.1101 318.67 94.1101 316.83C94.0948 316.261 94.196 315.694 94.4074 315.166C94.6189 314.637 94.9362 314.157 95.3397 313.755C95.7433 313.354 96.2247 313.039 96.7544 312.83C97.2841 312.621 97.8509 312.522 98.4201 312.54C99.0317 312.478 99.647 312.613 100.177 312.924C100.707 313.235 101.125 313.706 101.37 314.27L101.69 312.6L102.64 312.57ZM100.92 315.57C100.92 314.19 99.9901 313.37 98.4201 313.37C97.9807 313.359 97.5436 313.438 97.136 313.602C96.7284 313.767 96.359 314.013 96.0505 314.326C95.7421 314.639 95.5012 315.013 95.3429 315.423C95.1846 315.833 95.1121 316.271 95.1301 316.71C95.1301 318.09 96.0501 318.91 97.6301 318.91C98.0668 318.921 98.5013 318.843 98.9068 318.68C99.3123 318.518 99.6803 318.274 99.9883 317.964C100.296 317.654 100.538 317.285 100.698 316.878C100.858 316.472 100.934 316.037 100.92 315.6V315.57Z" fill="#E0E0E0"/>
<path d="M109.31 312.51L109.12 313.51H108.84C107.23 313.51 106.15 314.43 105.77 316.31L105.01 320.15H104.01L105.51 312.59H106.51L106.2 314C106.541 313.499 107.008 313.097 107.554 312.836C108.1 312.574 108.706 312.462 109.31 312.51Z" fill="#E0E0E0"/>
<path d="M118 312.57L116.49 320.13H115.49L115.73 318.94C115.359 319.348 114.904 319.672 114.397 319.89C113.89 320.107 113.342 320.213 112.79 320.2C112.356 320.236 111.919 320.179 111.509 320.033C111.099 319.886 110.725 319.653 110.413 319.35C110.1 319.047 109.856 318.68 109.697 318.275C109.538 317.87 109.467 317.435 109.49 317C109.459 316.421 109.546 315.841 109.747 315.297C109.947 314.752 110.257 314.255 110.657 313.834C111.057 313.414 111.538 313.079 112.072 312.852C112.605 312.624 113.18 312.508 113.76 312.51C114.351 312.447 114.947 312.572 115.464 312.866C115.981 313.16 116.392 313.609 116.64 314.15L116.96 312.57H118ZM116.3 315.76C116.323 315.433 116.274 315.104 116.155 314.799C116.036 314.493 115.851 314.217 115.613 313.991C115.375 313.766 115.09 313.596 114.778 313.493C114.466 313.391 114.136 313.359 113.81 313.4C113.358 313.406 112.912 313.503 112.5 313.688C112.087 313.872 111.716 314.138 111.41 314.47C111.104 314.803 110.869 315.194 110.719 315.62C110.57 316.047 110.509 316.499 110.54 316.95C110.516 317.274 110.563 317.6 110.68 317.904C110.796 318.208 110.979 318.482 111.214 318.707C111.449 318.932 111.732 319.101 112.041 319.204C112.349 319.307 112.677 319.339 113 319.3C113.452 319.297 113.899 319.201 114.313 319.019C114.727 318.837 115.099 318.571 115.406 318.24C115.713 317.908 115.95 317.517 116.1 317.09C116.25 316.664 116.312 316.211 116.28 315.76H116.3Z" fill="#E0E0E0"/>
<path d="M127.79 315.7C127.823 316.281 127.736 316.862 127.536 317.409C127.335 317.955 127.025 318.454 126.624 318.876C126.223 319.297 125.739 319.632 125.204 319.86C124.668 320.088 124.092 320.204 123.51 320.2C122.918 320.262 122.321 320.135 121.804 319.839C121.287 319.543 120.876 319.092 120.63 318.55L119.77 322.92H118.77L120.82 312.57H121.82L121.58 313.78C121.948 313.367 122.402 313.039 122.91 312.82C123.417 312.601 123.967 312.495 124.52 312.51C124.95 312.48 125.382 312.541 125.787 312.69C126.192 312.838 126.561 313.071 126.87 313.372C127.179 313.673 127.42 314.036 127.579 314.438C127.737 314.839 127.809 315.269 127.79 315.7ZM126.79 315.76C126.813 315.433 126.764 315.104 126.645 314.799C126.526 314.493 126.341 314.217 126.103 313.991C125.865 313.766 125.579 313.596 125.268 313.493C124.956 313.391 124.626 313.359 124.3 313.4C123.84 313.398 123.385 313.492 122.964 313.676C122.543 313.861 122.164 314.131 121.854 314.47C121.543 314.809 121.307 315.209 121.16 315.645C121.013 316.08 120.958 316.542 121 317C120.975 317.326 121.023 317.654 121.141 317.96C121.258 318.265 121.443 318.54 121.68 318.766C121.918 318.991 122.203 319.16 122.514 319.261C122.825 319.362 123.155 319.392 123.48 319.35C123.937 319.349 124.389 319.253 124.807 319.068C125.226 318.883 125.601 318.613 125.909 318.276C126.217 317.938 126.452 317.54 126.599 317.107C126.745 316.674 126.8 316.215 126.76 315.76H126.79Z" fill="#E0E0E0"/>
<path d="M136.94 315C136.942 315.288 136.915 315.576 136.86 315.86L136 320.16H135L135.87 315.85C135.911 315.622 135.935 315.391 135.94 315.16C135.94 314.08 135.29 313.46 133.94 313.46C133.186 313.423 132.447 313.677 131.875 314.171C131.303 314.664 130.944 315.358 130.87 316.11L130.06 320.16H129.06L131.19 309.49H132.19L131.34 313.73C131.707 313.334 132.155 313.022 132.654 312.817C133.153 312.611 133.691 312.517 134.23 312.54C136 312.51 136.94 313.43 136.94 315Z" fill="#E0E0E0"/>
<path d="M146.5 312.57L141 321.11C140.06 322.55 139.36 322.99 138.27 322.99C137.94 323.005 137.611 322.954 137.302 322.839C136.992 322.723 136.709 322.547 136.47 322.32L137.02 321.57C137.191 321.75 137.397 321.891 137.627 321.986C137.856 322.081 138.102 322.126 138.35 322.12C139 322.12 139.5 321.81 140.09 320.89L140.63 320.09L138.74 312.57H139.74L141.3 319.01L145.43 312.57H146.5Z" fill="#E0E0E0"/>
<path d="M169.28 1.79007H15.8901L40.8901 19.7901V55.2601C40.8888 56.2335 41.0796 57.1977 41.4515 58.0973C41.8234 58.9969 42.3692 59.8143 43.0575 60.5027C43.7459 61.191 44.5633 61.7368 45.4629 62.1087C46.3625 62.4806 47.3267 62.6714 48.3001 62.6701H169.3C171.265 62.6701 173.15 61.8894 174.54 60.4997C175.929 59.1101 176.71 57.2253 176.71 55.2601V9.20007C176.71 8.22529 176.518 7.26008 176.144 6.35975C175.771 5.45942 175.223 4.64166 174.533 3.95332C173.843 3.26498 173.023 2.71958 172.122 2.34837C171.221 1.97716 170.255 1.78744 169.28 1.79007Z" fill="#F5F5F5"/>
<path d="M162.88 26.8598C162.88 27.0098 139.75 27.1298 111.22 27.1298C82.69 27.1298 59.55 26.9998 59.55 26.8598C59.55 26.7198 82.68 26.5898 111.22 26.5898C139.76 26.5898 162.88 26.7098 162.88 26.8598Z" fill="#E0E0E0"/>
<path d="M162.88 40.48C162.88 40.63 139.75 40.75 111.22 40.75C82.69 40.75 59.55 40.63 59.55 40.48C59.55 40.33 82.68 40.21 111.22 40.21C139.76 40.21 162.88 40.33 162.88 40.48Z" fill="#E0E0E0"/>
<path d="M701.27 401.35C701.27 401.5 544.43 401.61 351.02 401.61C157.61 401.61 0.72998 401.5 0.72998 401.35C0.72998 401.2 157.53 401.09 351.02 401.09C544.51 401.09 701.27 401.21 701.27 401.35Z" fill="#263238"/>
<path d="M635.45 350.31C635.45 350.31 608.94 319.81 598.94 289.31C588.94 258.81 593.69 262.31 593.69 262.31C593.69 262.31 607.19 291.95 617.44 306.26C627.69 320.57 646 341.56 646 341.56L635.45 350.31Z" fill="#455A64"/>
<path d="M640.73 267C640.555 266.679 640.272 266.431 639.932 266.299C639.591 266.168 639.215 266.161 638.87 266.282C638.525 266.402 638.235 266.64 638.049 266.955C637.864 267.27 637.797 267.64 637.86 268C639.47 278.72 642.97 303.87 642.86 320.18C642.68 341.37 642.86 349.56 642.86 349.56H653.86C653.86 349.56 651.86 305.76 649.41 292.4C647.67 283.06 644 272.66 640.73 267Z" fill="#455A64"/>
<path d="M646.75 346C651.372 335.524 654.432 324.425 655.83 313.06C656.74 305.26 655.11 294.72 652.7 280.65C651.773 275.505 651.308 270.288 651.31 265.06C651.314 264.477 651.511 263.912 651.872 263.453C652.232 262.994 652.734 262.668 653.3 262.526C653.865 262.384 654.462 262.434 654.996 262.669C655.53 262.903 655.971 263.308 656.25 263.82C657.58 266.2 661.44 274.32 662.42 279.4C665.09 293.29 668.11 300.24 665.8 313.4C663.49 326.56 654.94 346.88 654.94 346.88L646.75 346Z" fill="#455A64"/>
<path d="M656.68 346.91C656.68 346.91 685.79 284.36 687.81 275.08C689.83 265.8 696.68 244.42 697.49 245.63C698.3 246.84 699.49 258.14 694.26 271.05C689.03 283.96 666.62 348.81 666.62 348.81H656.68" fill="#455A64"/>
<path d="M643.56 344.11C643.273 343.944 642.999 343.757 642.74 343.55C642.23 343.16 641.44 342.61 640.49 341.83C637.766 339.663 635.155 337.357 632.67 334.92C624.471 326.853 617.37 317.741 611.55 307.82C605.745 297.905 600.919 287.449 597.14 276.6C595.68 272.45 594.61 269.05 593.92 266.68C593.56 265.51 593.31 264.58 593.14 263.96C593.034 263.635 592.96 263.3 592.92 262.96C593.058 263.26 593.171 263.571 593.26 263.89L594.15 266.58C594.91 268.92 596.04 272.3 597.55 276.42C601.448 287.191 606.315 297.587 612.09 307.48C617.893 317.365 624.919 326.48 633 334.61C636.11 337.71 638.78 340.06 640.66 341.61C641.59 342.42 642.35 343 642.84 343.42C643.098 343.63 643.339 343.861 643.56 344.11Z" fill="#263238"/>
<path d="M646.74 314.1C646.603 313.498 646.516 312.886 646.48 312.27C646.34 310.97 646.16 309.27 645.95 307.27C645.49 303.03 644.77 297.2 643.74 290.79C642.71 284.38 641.56 278.61 640.67 274.45C640.24 272.45 639.88 270.79 639.61 269.52C639.449 268.92 639.339 268.308 639.28 267.69C639.518 268.263 639.705 268.855 639.84 269.46C640.17 270.61 640.6 272.28 641.1 274.35C642.1 278.49 643.32 284.26 644.35 290.69C645.38 297.12 646.03 302.97 646.35 307.22C646.53 309.35 646.64 311.07 646.69 312.22C646.772 312.843 646.789 313.473 646.74 314.1Z" fill="#263238"/>
<path d="M653.56 263.35C653.698 263.606 653.812 263.873 653.9 264.15C654.13 264.74 654.42 265.51 654.78 266.47C655.14 267.43 655.6 268.72 656.03 270.2C656.46 271.68 657.03 273.32 657.44 275.2L658.16 278.14C658.41 279.14 658.58 280.25 658.8 281.36C659.28 283.58 659.57 285.99 659.92 288.52C661.249 299.534 660.85 310.689 658.74 321.58C658.21 324.08 657.74 326.46 657.11 328.64C656.81 329.73 656.56 330.8 656.24 331.8C655.92 332.8 655.61 333.8 655.31 334.69C654.75 336.54 654.08 338.15 653.54 339.58C653 341.01 652.48 342.23 652.03 343.21L651.03 345.46C650.923 345.73 650.789 345.988 650.63 346.23C650.699 345.948 650.797 345.673 650.92 345.41L651.84 343.11C652.26 342.11 652.76 340.9 653.25 339.46C653.74 338.02 654.4 336.4 654.93 334.55C655.21 333.63 655.51 332.67 655.82 331.67C656.13 330.67 656.36 329.6 656.65 328.51C657.26 326.33 657.65 323.96 658.22 321.51C660.251 310.667 660.648 299.581 659.4 288.62C659.06 286.1 658.79 283.7 658.34 281.49C658.12 280.38 657.96 279.3 657.73 278.28C657.5 277.26 657.27 276.28 657.05 275.34C656.66 273.46 656.13 271.8 655.73 270.34C655.33 268.88 654.94 267.62 654.59 266.6C654.24 265.58 654.02 264.84 653.83 264.24C653.709 263.954 653.619 263.655 653.56 263.35Z" fill="#263238"/>
<path d="M697.15 246.89C697.168 246.983 697.168 247.078 697.15 247.17C697.15 247.39 697.07 247.66 697.02 247.98C696.89 248.69 696.73 249.75 696.45 251.1C695.89 253.79 694.95 257.66 693.45 262.36C691.95 267.06 690.02 272.56 687.66 278.62C685.3 284.68 682.58 291.27 680 298.29C677.42 305.31 675.35 312.15 673.45 318.35C671.55 324.55 669.79 330.15 668.06 334.75C666.728 338.398 665.195 341.971 663.47 345.45C662.87 346.69 662.33 347.61 661.99 348.25L661.58 348.96C661.539 349.047 661.485 349.128 661.42 349.2C661.441 349.106 661.475 349.015 661.52 348.93L661.88 348.19C662.19 347.53 662.69 346.59 663.25 345.34C664.42 342.86 666 339.22 667.65 334.6C669.3 329.98 671.05 324.41 672.91 318.19C674.77 311.97 676.78 305.11 679.41 298.08C682.04 291.05 684.75 284.45 687.13 278.41C689.51 272.37 691.54 266.89 693.03 262.22C694.52 257.55 695.54 253.71 696.17 251.04C696.49 249.71 696.69 248.66 696.86 247.96C696.94 247.64 697 247.38 697.05 247.16C697.069 247.065 697.103 246.974 697.15 246.89Z" fill="#263238"/>
<path d="M607.41 233.07C607.008 232.686 606.489 232.447 605.936 232.389C605.384 232.332 604.827 232.46 604.355 232.753C603.882 233.045 603.52 233.487 603.326 234.008C603.131 234.529 603.115 235.099 603.28 235.63C604.276 238.846 605.499 241.987 606.94 245.03C610.94 253.54 622.7 284.03 628.2 300.8C633.7 317.57 641.45 348.8 641.45 348.8L653.2 346.9C653.2 346.9 642.45 295.55 632 277C623.51 262.17 615.07 240.69 607.41 233.07Z" fill="#455A64"/>
<path d="M631.41 311.28C631.666 311.726 631.87 312.199 632.02 312.69C632.37 313.61 632.84 314.95 633.37 316.63C634.45 319.98 635.78 324.63 637.11 329.86C638.44 335.09 639.55 339.8 640.32 343.23C640.68 344.85 640.97 346.23 641.21 347.3C641.339 347.795 641.419 348.3 641.45 348.81C641.239 348.345 641.078 347.859 640.97 347.36C640.69 346.29 640.33 344.94 639.9 343.36L636.51 330C635.18 324.8 633.92 320.11 632.95 316.74L631.79 312.74C631.615 312.267 631.488 311.778 631.41 311.28Z" fill="#263238"/>
<path d="M647.35 347.86C647.318 347.759 647.298 347.655 647.29 347.55C647.29 347.3 647.21 347 647.15 346.62C647.03 345.81 646.92 344.62 646.67 343.06C646.24 339.98 645.47 335.53 644.21 330.11C642.704 323.762 640.868 317.497 638.71 311.34C636.3 304.34 633.28 296.86 629.85 289.07C622.94 273.52 616.04 259.73 611.5 249.54C609.21 244.45 607.43 240.3 606.26 237.4C605.66 235.96 605.26 234.83 604.94 234.06C604.81 233.7 604.7 233.42 604.61 233.18C604.566 233.085 604.536 232.984 604.52 232.88C604.52 232.88 604.58 232.97 604.67 233.16C604.76 233.35 604.9 233.67 605.06 234.01L606.48 237.31C607.72 240.17 609.56 244.31 611.9 249.31C616.53 259.46 623.5 273.21 630.42 288.78C633.85 296.58 636.86 304.12 639.25 311.11C641.391 317.303 643.191 323.609 644.64 330C645.613 334.293 646.371 338.631 646.91 343C647.12 344.55 647.19 345.76 647.28 346.58C647.28 346.96 647.33 347.26 647.35 347.51C647.366 347.626 647.366 347.744 647.35 347.86Z" fill="#263238"/>
<path d="M653.2 346.91C653.017 346.254 652.883 345.586 652.8 344.91C652.57 343.53 652.26 341.71 651.89 339.51C651.08 334.96 649.89 328.69 648.07 321.87C646.25 315.05 644.32 308.96 642.8 304.6L641 299.46C640.739 298.839 640.532 298.196 640.38 297.54C640.709 298.128 640.994 298.739 641.23 299.37C641.73 300.56 642.44 302.3 643.23 304.47C645.355 310.122 647.178 315.884 648.69 321.73C650.203 327.575 651.421 333.493 652.34 339.46C652.68 341.75 652.93 343.61 653.06 344.9C653.157 345.566 653.204 346.237 653.2 346.91Z" fill="#263238"/>
<path d="M677.31 345.22H631.45V401.09H677.31V345.22Z" fill="url(#paint0_linear_155_525)"/>
<g opacity="0.3">
<path d="M677.31 345.22H631.45V401.09H677.31V345.22Z" fill="black"/>
</g>
<path d="M662.68 345.22H622V401.09H662.68V345.22Z" fill="url(#paint1_linear_155_525)"/>
<path d="M66.53 325.8C58.71 320.8 47.89 320.7 40.29 326.01C33.07 331.06 29.4 340.24 29.72 349.01C30.04 357.78 34.31 368.56 42.28 373.19L65.68 373.09C69.4405 370.353 72.5465 366.816 74.7738 362.733C77.0012 358.65 78.2943 354.123 78.56 349.48C78.91 340.24 74.34 330.8 66.53 325.8Z" fill="#455A64"/>
<path d="M54.9998 374.07C54.8898 373.409 54.8429 372.74 54.8598 372.07C54.8598 370.63 54.7598 368.79 54.6998 366.58C54.5798 361.95 54.3998 355.58 54.0898 348.49C53.7798 341.4 53.3998 335.03 53.0898 330.4C52.9598 328.2 52.8498 326.4 52.7598 324.92C52.6956 324.255 52.6956 323.585 52.7598 322.92C52.9272 323.575 53.0343 324.245 53.0798 324.92C53.2398 326.21 53.4298 328.08 53.6498 330.39C54.0698 335.01 54.5298 341.39 54.8498 348.48C55.1698 355.57 55.2598 361.97 55.2398 366.61C55.2398 368.93 55.2398 370.8 55.1598 372.1C55.1657 372.76 55.1121 373.419 54.9998 374.07Z" fill="#263238"/>
<path d="M32.0798 347.05C32.0798 347.25 30.7898 347.32 29.2398 347.19C27.6898 347.06 26.4498 346.79 26.4598 346.59C26.4698 346.39 27.7498 346.32 29.2998 346.44C30.8498 346.56 32.0998 346.84 32.0798 347.05Z" fill="#263238"/>
<path d="M32.5199 339.15C32.4299 339.34 31.3399 339.04 30.0699 338.47C28.7999 337.9 27.8399 337.3 27.9199 337.11C27.9999 336.92 29.0999 337.23 30.3699 337.79C31.6399 338.35 32.5999 339 32.5199 339.15Z" fill="#263238"/>
<path d="M36.5798 333.29C36.4698 333.46 35.2398 332.88 33.9598 331.82C32.6798 330.76 31.8698 329.65 32.0198 329.52C32.1698 329.39 33.1898 330.21 34.4298 331.24C35.6698 332.27 36.6898 333.11 36.5798 333.29Z" fill="#263238"/>
<path d="M40.6699 327.76C40.4799 327.84 39.8899 326.92 39.3499 325.7C38.8099 324.48 38.5199 323.42 38.7099 323.33C38.8999 323.24 39.4899 324.17 40.0299 325.4C40.5699 326.63 40.8499 327.68 40.6699 327.76Z" fill="#263238"/>
<path d="M47.08 323.84C46.89 323.92 46.26 322.94 45.83 321.58C45.4 320.22 45.37 319.04 45.57 319.01C45.77 318.98 46.14 320.01 46.57 321.35C47 322.69 47.27 323.75 47.08 323.84Z" fill="#263238"/>
<path d="M57.77 319.41C57.97 319.48 57.85 320.32 57.51 321.29C57.17 322.26 56.73 322.98 56.51 322.91C56.29 322.84 56.43 322.01 56.77 321.04C57.11 320.07 57.58 319.34 57.77 319.41Z" fill="#263238"/>
<path d="M65.7099 322.82C65.8499 322.97 65.3399 323.67 64.5699 324.38C63.7999 325.09 63.0699 325.54 62.9299 325.38C62.7899 325.22 63.2999 324.53 64.0599 323.82C64.8199 323.11 65.5699 322.67 65.7099 322.82Z" fill="#263238"/>
<path d="M72.6898 327.33C72.8098 327.5 72.1898 328.12 71.3098 328.72C70.4298 329.32 69.6198 329.66 69.4998 329.49C69.3798 329.32 70.0098 328.7 70.8898 328.1C71.7698 327.5 72.5798 327.16 72.6898 327.33Z" fill="#263238"/>
<path d="M77.6499 334.05C77.7299 334.24 76.7599 334.84 75.4699 335.39C74.1799 335.94 73.0699 336.23 72.9899 336.04C72.9099 335.85 73.8899 335.25 75.1799 334.71C76.4699 334.17 77.5699 333.86 77.6499 334.05Z" fill="#263238"/>
<path d="M79.61 341.39C79.61 341.59 78.61 341.89 77.38 342.04C76.15 342.19 75.1 342.16 75.07 341.95C75.04 341.74 76.07 341.46 77.29 341.3C78.51 341.14 79.58 341.18 79.61 341.39Z" fill="#263238"/>
<path d="M80.6198 350.42C80.5398 350.61 79.4798 350.33 78.2598 349.8C77.0398 349.27 76.0998 348.68 76.1798 348.49C76.2598 348.3 77.3298 348.58 78.5498 349.11C79.7698 349.64 80.7098 350.23 80.6198 350.42Z" fill="#263238"/>
<path d="M79.7298 358.17C79.6598 358.36 78.3198 358.04 76.9198 357.12C75.5198 356.2 74.6898 355.12 74.8298 354.97C74.9698 354.82 75.9998 355.63 77.3298 356.49C78.6598 357.35 79.7998 358 79.7298 358.17Z" fill="#263238"/>
<path d="M75.6899 365.22C75.5699 365.38 74.4999 364.76 73.4799 363.65C72.4599 362.54 71.9099 361.44 72.0699 361.32C72.2299 361.2 73.0699 362.09 74.0699 363.14C75.0699 364.19 75.8299 365.06 75.6899 365.22Z" fill="#263238"/>
<path d="M37.3899 366.05C37.4799 366.23 36.3899 367.05 34.8799 367.77C33.3699 368.49 32.1299 369 31.9999 368.84C31.8699 368.68 32.9999 367.84 34.4999 367.11C35.9999 366.38 37.2899 365.87 37.3899 366.05Z" fill="#263238"/>
<path d="M33.8899 359.67C33.9699 359.86 33.0699 360.45 31.8899 360.99C30.7099 361.53 29.6599 361.82 29.5699 361.63C29.4799 361.44 30.3899 360.85 31.5699 360.31C32.7499 359.77 33.7999 359.48 33.8899 359.67Z" fill="#263238"/>
<path d="M31.3199 354C31.3199 354.2 30.2399 354.53 28.8399 354.73C27.4399 354.93 26.2999 354.92 26.2699 354.73C26.2399 354.54 27.3499 354.2 28.7399 354.01C30.1299 353.82 31.2899 353.81 31.3199 354Z" fill="#263238"/>
<path d="M39.75 350.9C39.81 351.1 38.75 351.6 37.3 351.76C35.85 351.92 34.69 351.67 34.71 351.47C34.73 351.27 35.85 351.18 37.21 351.02C38.57 350.86 39.69 350.7 39.75 350.9Z" fill="#263238"/>
<path d="M46.7598 343.93C46.8198 344.12 45.9598 344.56 44.7598 344.67C43.5598 344.78 42.6798 344.53 42.6998 344.33C42.7198 344.13 43.6198 344.04 44.6998 343.93C45.7798 343.82 46.6998 343.73 46.7598 343.93Z" fill="#263238"/>
<path d="M48.1 338.34C48.03 338.54 47.1 338.39 46.02 338.02C44.94 337.65 44.12 337.19 44.19 337.02C44.26 336.85 45.19 336.97 46.27 337.35C47.35 337.73 48.17 338.15 48.1 338.34Z" fill="#263238"/>
<path d="M50.67 332.69C50.53 332.84 49.89 332.42 49.43 331.62C48.97 330.82 48.93 330.07 49.13 330.02C49.33 329.97 49.67 330.55 50.13 331.25C50.59 331.95 50.82 332.55 50.67 332.69Z" fill="#263238"/>
<path d="M47.5699 355.82C47.6199 356.02 46.8199 356.39 45.7699 356.65C45.2765 356.781 44.7699 356.854 44.2599 356.87L44.1199 356.43C44.3899 356.43 44.5599 356.43 44.5999 356.48C44.6399 356.53 44.5199 356.69 44.2999 356.86L44.1499 356.42C44.6134 356.201 45.0997 356.033 45.5999 355.92C46.6399 355.67 47.5199 355.62 47.5699 355.82Z" fill="#263238"/>
<path d="M49 365.73C49.07 365.92 48 366.5 46.7 367.03C45.4 367.56 44.21 367.83 44.14 367.64C44.07 367.45 45.14 366.86 46.43 366.34C47.72 365.82 48.94 365.54 49 365.73Z" fill="#263238"/>
<path d="M41.0998 361.33C41.1698 361.52 40.4798 361.93 39.5698 362.24C38.6598 362.55 37.8698 362.65 37.7998 362.45C37.7298 362.25 38.4198 361.85 39.3298 361.54C40.2398 361.23 40.9998 361.13 41.0998 361.33Z" fill="#263238"/>
<path d="M41.6998 341.17C41.6998 341.37 40.4598 341.25 39.0898 340.76C37.7198 340.27 36.7098 339.61 36.7998 339.43C36.8898 339.25 37.9998 339.58 39.3398 340.05C40.6798 340.52 41.7498 341 41.6998 341.17Z" fill="#263238"/>
<path d="M60.8598 339C60.9798 339.17 60.3098 339.81 59.3698 340.43C58.4298 341.05 57.5698 341.43 57.4498 341.24C57.3298 341.05 58.0098 340.43 58.9498 339.81C59.8898 339.19 60.7498 338.8 60.8598 339Z" fill="#263238"/>
<path d="M61.9099 348.92C61.9099 349.12 61.2399 349.44 60.3299 349.63C59.4199 349.82 58.6499 349.81 58.5999 349.63C58.5499 349.45 59.2699 349.11 60.1799 348.92C61.0899 348.73 61.8599 348.72 61.9099 348.92Z" fill="#263238"/>
<path d="M63.1199 360.11C63.0299 360.29 62.0099 360.01 60.8499 359.47C59.6899 358.93 58.8499 358.34 58.8499 358.15C58.8499 357.96 59.9599 358.25 61.1199 358.79C62.2799 359.33 63.1999 359.92 63.1199 360.11Z" fill="#263238"/>
<path d="M60.5499 371C60.3899 371.14 59.7299 370.6 59.0799 369.8C58.4299 369 58.0799 368.25 58.1899 368.12C58.2999 367.99 58.9999 368.53 59.6599 369.33C60.3199 370.13 60.7099 370.86 60.5499 371Z" fill="#263238"/>
<path d="M60 331.65C60.13 331.81 59.69 332.36 58.94 332.73C58.19 333.1 57.5 333.13 57.45 332.93C57.4 332.73 57.94 332.41 58.61 332.07C59.28 331.73 59.9 331.49 60 331.65Z" fill="#263238"/>
<path d="M69.4199 341.68C69.4899 341.87 68.6199 342.35 67.4199 342.52C66.2199 342.69 65.2699 342.46 65.2799 342.26C65.2899 342.06 66.2099 341.93 67.2799 341.78C68.3499 341.63 69.3499 341.49 69.4199 341.68Z" fill="#263238"/>
<path d="M67.55 332.68C67.64 332.86 66.78 333.48 65.55 333.87C64.32 334.26 63.2699 334.26 63.2399 334.06C63.2099 333.86 64.16 333.53 65.32 333.15C66.48 332.77 67.45 332.49 67.55 332.68Z" fill="#263238"/>
<path d="M71.47 355.63C71.47 355.83 69.99 355.96 68.21 355.63C66.43 355.3 65.1 354.63 65.21 354.48C65.32 354.33 66.68 354.59 68.39 354.89C70.1 355.19 71.47 355.42 71.47 355.63Z" fill="#263238"/>
<path d="M67.9999 368.71C67.8799 368.87 66.7899 368.23 65.7099 367.14C64.6299 366.05 63.9999 365 64.1299 364.84C64.2599 364.68 65.1299 365.56 66.2199 366.62C67.3099 367.68 68.1099 368.55 67.9999 368.71Z" fill="#263238"/>
<path d="M52.64 322C50.2521 323.451 48.0522 325.191 46.09 327.18C41.5389 332.169 38.6826 338.469 37.93 345.18C37.591 348.868 37.7558 352.586 38.42 356.23C38.9556 359.221 39.6466 362.181 40.49 365.1C41.21 367.59 41.87 369.59 42.31 370.98C42.5761 371.689 42.7867 372.418 42.94 373.16C42.5737 372.497 42.2723 371.801 42.04 371.08C41.51 369.72 40.77 367.74 39.99 365.25C39.059 362.333 38.3109 359.36 37.75 356.35C37.0246 352.646 36.836 348.857 37.19 345.1C37.9392 338.223 40.9336 331.784 45.71 326.78C47.1606 325.308 48.8019 324.037 50.59 323C51.0717 322.706 51.5728 322.446 52.09 322.22C52.2626 322.122 52.4476 322.048 52.64 322Z" fill="#263238"/>
<path d="M62.8299 373.7C62.6599 373.61 64.4999 370.78 66.1799 365.7C68.4287 359.07 69.1132 352.009 68.1799 345.07C67.6758 341.243 66.604 337.512 64.9999 334C63.6583 331.177 61.8227 328.617 59.5799 326.44C57.9938 325.048 56.1985 323.914 54.2599 323.08C52.8799 322.51 52.0499 322.37 52.0599 322.31C52.262 322.279 52.4678 322.279 52.6699 322.31C53.2447 322.413 53.8099 322.564 54.3599 322.76C56.3895 323.504 58.2718 324.601 59.9199 326C62.2844 328.169 64.2183 330.764 65.6199 333.65C67.2875 337.192 68.4005 340.97 68.9199 344.85C69.876 351.899 69.1038 359.075 66.6699 365.76C66.2499 367.05 65.6699 368.15 65.2999 369.15C64.9299 370.15 64.4199 370.95 64.0599 371.61C63.7034 372.337 63.2922 373.035 62.8299 373.7Z" fill="#263238"/>
<path d="M33.8899 371.93H75.0699L75.3199 380.17H33.8899V371.93Z" fill="url(#paint2_linear_155_525)"/>
<path d="M37.3899 376.05L39.7499 401.21H69.8599L72.2799 376.33L37.3899 376.05Z" fill="url(#paint3_linear_155_525)"/>
<path d="M75.3199 380.27C75.3199 380.48 66.0499 380.64 54.6099 380.64C43.1699 380.64 33.8999 380.48 33.8999 380.27C33.8999 380.06 43.1699 379.9 54.6099 379.9C66.0499 379.9 75.3199 380.06 75.3199 380.27Z" fill="#263238"/>
<path d="M71.1399 387.93C70.9253 388.497 70.6288 389.029 70.2599 389.51C69.3309 390.878 68.2581 392.141 67.0599 393.28L66.8699 393.46L66.6899 393.26C64.2158 390.667 61.5114 388.304 58.6099 386.2H59.0699L55.4899 389.34L51.2599 393L51.0299 393.21L50.7899 393.01L43.9199 387.23L44.3199 387.18C42.8999 388.92 41.6999 390.37 40.7599 391.53C40.3497 392.086 39.8803 392.596 39.3599 393.05C39.6894 392.443 40.0743 391.867 40.5099 391.33L43.8699 386.84L44.0499 386.61L44.2799 386.79L51.2799 392.45H50.8199L55.0299 388.75L58.6199 385.62L58.8399 385.43L59.0799 385.6C61.9887 387.75 64.6694 390.193 67.0799 392.89H66.6999C68.3142 391.362 69.7993 389.703 71.1399 387.93Z" fill="#263238"/>
<path d="M565.95 86.77H130.03C121.983 86.77 115.46 93.2932 115.46 101.34V379.74C115.46 387.787 121.983 394.31 130.03 394.31H565.95C573.997 394.31 580.52 387.787 580.52 379.74V101.34C580.52 93.2932 573.997 86.77 565.95 86.77Z" fill="#455A64"/>
<path d="M100.24 374.44H604.09V383.55C604.09 388.271 602.215 392.798 598.876 396.136C595.538 399.475 591.011 401.35 586.29 401.35H118C113.279 401.35 108.752 399.475 105.413 396.136C102.075 392.798 100.2 388.271 100.2 383.55V374.44H100.24Z" fill="#455A64"/>
<path d="M302.15 371.56L308.4 381.51H396.38L402.18 371.56H302.15Z" fill="#263238"/>
<path d="M576.52 371.56C576.52 371.73 473.3 371.86 346.01 371.86C218.72 371.86 115.46 371.73 115.46 371.56C115.46 371.39 218.66 371.26 346.01 371.26C473.36 371.26 576.52 371.39 576.52 371.56Z" fill="#263238"/>
<path d="M562.11 104.45H132.05C130.244 104.45 128.78 105.914 128.78 107.72V360.16C128.78 361.966 130.244 363.43 132.05 363.43H562.11C563.916 363.43 565.38 361.966 565.38 360.16V107.72C565.38 105.914 563.916 104.45 562.11 104.45Z" fill="#EBEBEB"/>
<path d="M564.6 364H128L128.47 124H564.6V364Z" fill="white"/>
<path d="M164.59 114.46C164.596 115.152 164.396 115.829 164.016 116.407C163.637 116.985 163.094 117.437 162.456 117.706C161.819 117.974 161.117 118.048 160.438 117.917C159.759 117.785 159.134 117.455 158.643 116.968C158.152 116.482 157.817 115.86 157.679 115.182C157.542 114.504 157.61 113.801 157.873 113.161C158.136 112.522 158.583 111.975 159.158 111.59C159.733 111.206 160.408 111 161.1 111C162.021 110.997 162.906 111.36 163.56 112.009C164.214 112.657 164.585 113.539 164.59 114.46Z" fill="#263238"/>
<path d="M143.46 114.46C143.466 115.153 143.265 115.832 142.884 116.41C142.503 116.989 141.958 117.441 141.319 117.709C140.68 117.976 139.976 118.048 139.296 117.914C138.617 117.781 137.992 117.448 137.502 116.958C137.012 116.468 136.679 115.843 136.546 115.164C136.412 114.484 136.484 113.78 136.751 113.141C137.019 112.502 137.471 111.957 138.05 111.576C138.628 111.195 139.307 110.994 140 111C140.916 111.005 141.793 111.372 142.441 112.019C143.088 112.667 143.455 113.544 143.46 114.46Z" fill="#263238"/>
<path d="M153.6 114.46C153.6 115.15 153.395 115.825 153.012 116.399C152.628 116.973 152.083 117.42 151.445 117.685C150.808 117.949 150.106 118.018 149.429 117.883C148.752 117.749 148.13 117.416 147.642 116.928C147.154 116.44 146.822 115.818 146.687 115.141C146.552 114.464 146.621 113.762 146.886 113.125C147.15 112.487 147.597 111.942 148.171 111.558C148.745 111.175 149.42 110.97 150.11 110.97C150.569 110.969 151.023 111.058 151.447 111.233C151.871 111.408 152.256 111.665 152.581 111.989C152.905 112.314 153.162 112.699 153.337 113.123C153.512 113.547 153.601 114.002 153.6 114.46Z" fill="#263238"/>
<path d="M262.958 274.32H214V252.219L262.958 194.016H286.387V253.474H298.528V274.32H286.387V292.407H262.958V274.32ZM262.958 253.474V223.029L237.083 253.474H262.958Z" fill="url(#paint4_linear_155_525)"/>
<path d="M306.904 243.642C306.904 225.249 310.213 212.376 316.832 205.023C323.451 197.669 333.538 193.995 347.092 194C353.598 194 358.943 194.805 363.127 196.414C366.928 197.783 370.408 199.916 373.353 202.681C375.836 205.052 377.939 207.79 379.589 210.799C381.221 213.942 382.451 217.278 383.249 220.728C385.069 228.098 385.976 235.664 385.953 243.256C385.953 260.806 382.984 273.65 377.046 281.787C371.109 289.924 360.882 293.995 346.368 294C338.226 294 331.647 292.702 326.632 290.106C321.576 287.468 317.318 283.526 314.298 278.689C311.965 275.127 310.149 270.254 308.851 264.07C307.503 257.345 306.851 250.5 306.904 243.642ZM333.567 243.706C333.567 256.043 334.653 264.456 336.826 268.946C338.998 273.435 342.155 275.691 346.296 275.712C347.61 275.727 348.914 275.481 350.132 274.987C351.35 274.494 352.458 273.764 353.392 272.84C355.398 270.925 356.873 267.9 357.817 263.764C358.761 259.629 359.233 253.192 359.233 244.455C359.233 231.614 358.144 222.981 355.967 218.555C353.789 214.13 350.522 211.92 346.167 211.926C341.726 211.926 338.507 214.181 336.512 218.692C334.517 223.203 333.535 231.541 333.567 243.706Z" fill="url(#paint5_linear_155_525)"/>
<path d="M443.23 274.32H394.272V252.219L443.23 194.016H466.659V253.474H478.84V274.32H466.659V292.407H443.23V274.32ZM443.23 253.474V223.029L417.363 253.474H443.23Z" fill="url(#paint6_linear_155_525)"/>
<path d="M410.03 140.776L418.87 125.336C413.418 116.536 411.456 106.015 413.369 95.8415C415.281 85.6678 420.931 76.5777 429.206 70.3584C437.482 64.1392 447.785 61.2407 458.089 62.233C468.393 63.2252 477.953 68.0364 484.89 75.7205C491.827 83.4046 495.638 93.4057 495.574 103.757C495.51 114.109 491.576 124.063 484.546 131.661C477.515 139.259 467.896 143.952 457.58 144.817C447.264 145.682 436.998 142.657 428.8 136.336L410.03 140.776Z" fill="#FAFAFA"/>
<path d="M410.03 140.776L428.8 136.496H428.99L428.87 136.336L428.69 136.506C431.32 138.546 434.179 140.271 437.21 141.646C440.823 143.263 444.648 144.354 448.57 144.886C450.743 145.19 452.938 145.3 455.13 145.216C456.26 145.156 457.4 145.126 458.56 145.036L462.06 144.506C472.49 142.461 481.748 136.518 487.95 127.886C491.395 123.112 493.782 117.657 494.95 111.886C496.14 105.781 495.973 99.4895 494.46 93.4564C492.888 87.1664 489.845 81.3398 485.58 76.4564L483.87 74.5064C483.31 73.8764 482.65 73.3664 482.05 72.7864C481.45 72.2064 480.85 71.6264 480.17 71.1464L478.17 69.6664C477.518 69.1628 476.829 68.7082 476.11 68.3064L474.01 67.0264L471.81 65.9564C471.09 65.5801 470.349 65.2462 469.59 64.9564C463.69 62.6317 457.345 61.6578 451.02 62.1064C445.055 62.5075 439.252 64.2144 434.02 67.1064C424.587 72.3528 417.536 81.0296 414.33 91.3364C413.045 95.7081 412.438 100.251 412.53 104.806C412.632 108.759 413.306 112.676 414.53 116.436C415.562 119.561 416.954 122.555 418.68 125.356V125.226C413.14 135.156 410.43 140.006 410 140.766C410.44 140.016 413.22 135.196 418.89 125.346V125.286V125.226C417.206 122.431 415.857 119.447 414.87 116.336C413.653 112.602 412.979 108.712 412.87 104.786C412.804 100.273 413.421 95.7753 414.7 91.4464C417.91 81.2789 424.891 72.7266 434.21 67.5464C439.391 64.6606 445.144 62.9533 451.06 62.5464C457.308 62.106 463.575 63.0731 469.4 65.3764C470.149 65.6662 470.88 66.0001 471.59 66.3764L473.77 67.4364L475.87 68.7364C476.567 69.1363 477.235 69.584 477.87 70.0764L479.87 71.5464C480.54 72.0264 481.1 72.6264 481.72 73.1664C482.34 73.7064 482.97 74.2464 483.52 74.8664L485.19 76.6964C489.406 81.5331 492.415 87.301 493.97 93.5264C495.473 99.4828 495.64 105.698 494.46 111.726C493.317 117.435 490.964 122.833 487.56 127.556C481.437 136.102 472.291 141.998 461.98 144.046L458.52 144.586C457.37 144.676 456.24 144.716 455.12 144.776C452.949 144.865 450.774 144.765 448.62 144.476C444.723 143.972 440.918 142.915 437.32 141.336C434.302 139.987 431.453 138.289 428.83 136.276L428.06 135.686L428.65 136.456L428.72 136.256L410.03 140.776Z" fill="#263238"/>
<path d="M478.208 117.687L458.771 83.4374C458.305 82.6187 457.631 81.9381 456.817 81.4646C456.002 80.9911 455.077 80.7417 454.136 80.7417C453.194 80.7417 452.269 80.9911 451.454 81.4646C450.64 81.9381 449.966 82.6187 449.5 83.4374L430.042 117.687C429.583 118.499 429.345 119.417 429.351 120.349C429.358 121.282 429.608 122.196 430.078 123.001C430.549 123.806 431.221 124.474 432.03 124.938C432.839 125.402 433.755 125.646 434.688 125.646H473.563C474.495 125.646 475.411 125.402 476.22 124.938C477.029 124.474 477.702 123.806 478.172 123.001C478.642 122.196 478.893 121.282 478.899 120.349C478.906 119.417 478.667 118.499 478.208 117.687Z" fill="url(#paint7_linear_155_525)"/>
<path d="M456.542 117.917C455.974 118.436 455.228 118.72 454.458 118.708C453.693 118.717 452.951 118.443 452.375 117.937C452.07 117.663 451.829 117.325 451.671 116.947C451.512 116.568 451.44 116.16 451.458 115.75C451.456 115.359 451.531 114.971 451.68 114.61C451.829 114.248 452.049 113.92 452.326 113.644C452.604 113.369 452.933 113.151 453.296 113.005C453.658 112.859 454.047 112.786 454.438 112.792C454.824 112.79 455.207 112.865 455.564 113.011C455.922 113.158 456.247 113.373 456.521 113.646C456.802 113.914 457.025 114.238 457.175 114.596C457.326 114.955 457.401 115.34 457.396 115.729C457.421 116.134 457.358 116.539 457.21 116.917C457.063 117.295 456.834 117.636 456.542 117.917ZM457.333 98.0832L456.563 106.812C456.549 107.647 456.387 108.472 456.083 109.25C455.943 109.559 455.713 109.82 455.424 109.998C455.134 110.176 454.798 110.264 454.458 110.25C454.124 110.267 453.791 110.183 453.505 110.008C453.219 109.833 452.992 109.576 452.854 109.271C452.533 108.452 452.343 107.587 452.292 106.708L451.729 98.2082C451.625 96.5207 451.563 95.3541 451.563 94.6249C451.514 93.7126 451.82 92.8169 452.417 92.1249C452.706 91.8215 453.055 91.5829 453.443 91.4249C453.831 91.2669 454.248 91.193 454.667 91.2082C455.137 91.1838 455.603 91.302 456.005 91.5474C456.406 91.7928 456.724 92.1539 456.917 92.5832C457.328 93.586 457.513 94.6673 457.458 95.7499C457.455 96.5293 457.414 97.308 457.333 98.0832Z" fill="white"/>
<path d="M248.248 427.222C250.383 427.089 252.494 427.73 254.193 429.03C254.921 429.692 255.489 430.51 255.856 431.423C256.223 432.336 256.379 433.32 256.312 434.302C256.375 435.289 256.218 436.277 255.852 437.196C255.485 438.114 254.919 438.939 254.193 439.611C252.505 440.938 250.391 441.603 248.248 441.481H243.263V448.523C243.265 448.636 243.245 448.749 243.202 448.854C243.159 448.959 243.095 449.054 243.013 449.133C242.935 449.213 242.842 449.276 242.739 449.318C242.637 449.361 242.526 449.383 242.415 449.383H239.86C239.747 449.384 239.634 449.363 239.529 449.321C239.424 449.278 239.328 449.215 239.248 449.135C239.168 449.054 239.105 448.959 239.062 448.854C239.02 448.749 238.998 448.636 239 448.523V428.107C239 427.995 239.022 427.884 239.066 427.78C239.109 427.676 239.173 427.582 239.253 427.504C239.333 427.425 239.428 427.363 239.532 427.321C239.636 427.279 239.748 427.258 239.86 427.26L248.248 427.222ZM243.263 437.53H248.161C249.17 437.582 250.171 437.335 251.04 436.819C251.42 436.533 251.719 436.153 251.908 435.716C252.096 435.278 252.166 434.8 252.112 434.327C252.172 433.853 252.105 433.372 251.916 432.934C251.728 432.495 251.425 432.116 251.04 431.834C250.163 431.343 249.165 431.11 248.161 431.161H243.263V437.53Z" fill="#455A64"/>
<path d="M259.166 436.994C259.278 436.49 259.476 436.009 259.752 435.573C260.079 435.028 260.501 434.547 260.998 434.152C261.618 433.674 262.313 433.303 263.055 433.055C263.967 432.755 264.924 432.612 265.884 432.632C266.868 432.616 267.849 432.759 268.788 433.055C269.608 433.317 270.367 433.74 271.019 434.302C271.651 434.87 272.142 435.579 272.452 436.371C272.805 437.285 272.978 438.258 272.963 439.237V448.523C272.964 448.637 272.941 448.75 272.896 448.855C272.851 448.96 272.785 449.055 272.702 449.133C272.624 449.213 272.531 449.277 272.428 449.319C272.325 449.362 272.215 449.384 272.103 449.383H269.71C269.597 449.384 269.484 449.363 269.379 449.321C269.274 449.278 269.179 449.215 269.098 449.135C269.018 449.054 268.955 448.959 268.912 448.854C268.87 448.749 268.849 448.636 268.85 448.523V447.488C268.35 448.154 267.696 448.689 266.943 449.046C265.951 449.514 264.861 449.737 263.765 449.694C262.92 449.712 262.078 449.59 261.272 449.333C260.605 449.123 259.989 448.775 259.465 448.311C258.986 447.871 258.604 447.336 258.344 446.74C258.08 446.118 257.948 445.447 257.957 444.771C257.926 444.12 258.05 443.471 258.318 442.877C258.587 442.284 258.993 441.762 259.503 441.356C260.752 440.443 262.216 439.867 263.753 439.686L268.9 438.801C268.932 438.448 268.871 438.093 268.722 437.772C268.573 437.45 268.342 437.173 268.053 436.969C267.41 436.598 266.676 436.412 265.934 436.433C265.507 436.411 265.08 436.488 264.687 436.657C264.377 436.814 264.091 437.015 263.84 437.256C263.685 437.399 263.508 437.517 263.316 437.605C263.15 437.67 262.972 437.704 262.793 437.704H259.852C259.654 437.711 259.461 437.64 259.316 437.505C259.244 437.444 259.191 437.362 259.165 437.272C259.138 437.181 259.139 437.084 259.166 436.994ZM264.451 445.918C265.099 445.928 265.744 445.827 266.358 445.619C266.874 445.44 267.352 445.165 267.766 444.809C268.126 444.495 268.415 444.109 268.614 443.674C268.797 443.284 268.895 442.859 268.9 442.428V442.054L264.6 442.802C263.942 442.881 263.308 443.102 262.743 443.45C262.559 443.58 262.41 443.755 262.31 443.957C262.21 444.159 262.162 444.384 262.17 444.609C262.168 444.824 262.232 445.035 262.355 445.211C262.478 445.387 262.653 445.521 262.855 445.594C263.359 445.812 263.902 445.923 264.451 445.918Z" fill="#455A64"/>
<path d="M284.392 452.536C284.852 452.534 285.31 452.467 285.751 452.336C286.204 452.202 286.628 451.982 286.997 451.688C287.38 451.379 287.697 450.998 287.932 450.566C288.18 450.071 288.304 449.524 288.293 448.971V447.799C288.091 448.021 287.87 448.225 287.633 448.41C287.326 448.656 286.991 448.865 286.636 449.033C286.201 449.238 285.745 449.397 285.277 449.507C284.701 449.637 284.111 449.7 283.52 449.694C282.535 449.71 281.558 449.501 280.666 449.083C279.833 448.691 279.091 448.131 278.485 447.438C277.872 446.741 277.391 445.939 277.064 445.07C276.713 444.174 276.515 443.227 276.478 442.266C276.478 441.954 276.478 441.58 276.478 441.169C276.478 440.757 276.478 440.371 276.478 440.06C276.515 439.099 276.713 438.151 277.064 437.255C277.394 436.388 277.875 435.586 278.485 434.887C279.087 434.196 279.825 433.636 280.653 433.242C281.546 432.824 282.522 432.615 283.507 432.631C284.099 432.625 284.688 432.688 285.265 432.818C285.733 432.928 286.188 433.087 286.623 433.292C286.979 433.46 287.313 433.669 287.62 433.915C287.857 434.1 288.078 434.304 288.281 434.526V433.803C288.284 433.578 288.374 433.363 288.532 433.203C288.69 433.042 288.904 432.949 289.129 432.943H291.534C291.759 432.952 291.973 433.046 292.132 433.205C292.291 433.364 292.385 433.578 292.394 433.803V448.622C292.467 449.681 292.313 450.743 291.943 451.738C291.574 452.733 290.997 453.638 290.25 454.393C288.615 455.761 286.521 456.456 284.392 456.337C283.379 456.344 282.37 456.197 281.401 455.901C280.551 455.655 279.747 455.272 279.021 454.767C278.383 454.339 277.833 453.793 277.4 453.159C277.018 452.61 276.79 451.969 276.74 451.302C276.729 451.19 276.745 451.078 276.787 450.974C276.828 450.87 276.893 450.777 276.977 450.703C277.14 450.545 277.359 450.455 277.587 450.454H279.743C279.884 450.451 280.023 450.476 280.154 450.527C280.284 450.579 280.403 450.656 280.504 450.753C280.716 450.953 280.89 451.14 281.04 451.302C281.336 451.683 281.721 451.987 282.161 452.187C282.871 452.463 283.632 452.583 284.392 452.536ZM280.653 440.284C280.591 440.872 280.591 441.465 280.653 442.054C280.662 443.164 281.11 444.226 281.9 445.008C282.634 445.614 283.565 445.933 284.517 445.905C285.47 445.933 286.399 445.604 287.122 444.983C287.493 444.651 287.795 444.249 288.009 443.8C288.223 443.35 288.345 442.863 288.368 442.365C288.414 441.951 288.435 441.535 288.431 441.119C288.434 440.703 288.414 440.286 288.368 439.873C288.317 438.901 287.888 437.987 287.174 437.326C286.459 436.665 285.515 436.309 284.542 436.333C283.59 436.305 282.659 436.623 281.925 437.23C281.517 437.627 281.194 438.102 280.976 438.627C280.757 439.152 280.648 439.715 280.653 440.284Z" fill="#455A64"/>
<path d="M295.946 441.169C295.941 440.033 296.126 438.904 296.495 437.829C296.842 436.824 297.389 435.9 298.102 435.112C298.793 434.334 299.643 433.713 300.595 433.292C301.61 432.861 302.702 432.638 303.805 432.638C304.907 432.638 305.999 432.861 307.014 433.292C307.953 433.695 308.802 434.284 309.507 435.025C310.189 435.772 310.723 436.644 311.077 437.592C311.442 438.577 311.628 439.62 311.625 440.671V442.092C311.63 442.203 311.61 442.315 311.567 442.418C311.524 442.521 311.459 442.614 311.376 442.69C311.301 442.773 311.208 442.84 311.105 442.885C311.002 442.93 310.89 442.953 310.778 442.951H300.221C300.217 443.385 300.319 443.813 300.52 444.198C300.717 444.566 300.994 444.886 301.331 445.133C301.682 445.395 302.079 445.589 302.502 445.706C302.944 445.832 303.401 445.895 303.861 445.893C304.413 445.908 304.963 445.836 305.493 445.681C305.867 445.566 306.22 445.394 306.54 445.17C306.717 445.032 306.91 444.915 307.114 444.821C307.305 444.749 307.508 444.715 307.712 444.721H310.205C310.433 444.723 310.651 444.812 310.815 444.971C310.903 445.045 310.97 445.139 311.011 445.246C311.053 445.353 311.067 445.468 311.052 445.581C310.979 445.992 310.813 446.379 310.566 446.715C310.19 447.243 309.726 447.703 309.195 448.074C308.496 448.558 307.733 448.94 306.927 449.208C305.926 449.539 304.877 449.699 303.823 449.682C302.721 449.7 301.627 449.492 300.608 449.071C299.654 448.682 298.802 448.081 298.115 447.314C297.402 446.552 296.85 445.653 296.495 444.671C296.114 443.544 295.928 442.359 295.946 441.169ZM303.699 436.421C303.162 436.405 302.628 436.498 302.128 436.695C301.723 436.851 301.354 437.089 301.044 437.393C300.755 437.66 300.522 437.982 300.358 438.34C300.205 438.654 300.104 438.991 300.059 439.337H307.201C307.155 438.998 307.075 438.664 306.964 438.34C306.846 437.985 306.65 437.662 306.391 437.393C306.102 437.087 305.748 436.848 305.356 436.695C304.828 436.493 304.264 436.4 303.699 436.421Z" fill="#455A64"/>
<path d="M337.537 448.523C337.539 448.635 337.518 448.747 337.476 448.851C337.434 448.955 337.372 449.05 337.293 449.13C337.214 449.21 337.12 449.274 337.017 449.317C336.913 449.36 336.802 449.383 336.69 449.383H334.247C334.135 449.384 334.025 449.362 333.922 449.319C333.819 449.277 333.726 449.213 333.648 449.133C333.565 449.055 333.499 448.96 333.454 448.855C333.409 448.75 333.386 448.637 333.387 448.523V440.496C333.445 439.415 333.132 438.347 332.502 437.467C332.172 437.076 331.753 436.768 331.281 436.571C330.808 436.374 330.295 436.292 329.785 436.333C329.289 436.309 328.794 436.399 328.338 436.595C327.882 436.792 327.478 437.09 327.155 437.467C326.474 438.326 326.128 439.402 326.183 440.496V448.523C326.186 448.636 326.165 448.749 326.122 448.854C326.079 448.959 326.015 449.054 325.933 449.133C325.855 449.213 325.762 449.276 325.66 449.318C325.557 449.361 325.447 449.383 325.335 449.383H323.029C322.918 449.383 322.808 449.361 322.705 449.318C322.602 449.276 322.509 449.213 322.431 449.133C322.35 449.054 322.286 448.959 322.243 448.854C322.2 448.749 322.179 448.636 322.182 448.523V433.803C322.178 433.691 322.198 433.58 322.241 433.477C322.284 433.373 322.349 433.281 322.431 433.205C322.507 433.122 322.599 433.055 322.702 433.01C322.805 432.965 322.917 432.942 323.029 432.943H325.435C325.547 432.942 325.659 432.965 325.762 433.01C325.865 433.055 325.958 433.122 326.033 433.205C326.116 433.281 326.181 433.373 326.224 433.477C326.267 433.58 326.287 433.691 326.282 433.803V434.526C326.847 433.97 327.5 433.511 328.214 433.168C329.034 432.79 329.93 432.607 330.832 432.632C331.938 432.595 333.04 432.799 334.06 433.23C334.873 433.591 335.587 434.142 336.141 434.838C336.681 435.532 337.064 436.336 337.263 437.193C337.49 438.119 337.603 439.069 337.599 440.022L337.537 448.523Z" fill="#455A64"/>
<path d="M348.979 432.632C350.05 432.614 351.115 432.796 352.119 433.167C353.018 433.522 353.843 434.042 354.55 434.7C355.233 435.33 355.791 436.083 356.195 436.919C356.61 437.769 356.851 438.692 356.905 439.636C356.921 439.877 356.921 440.118 356.905 440.359V442.116C356.921 442.353 356.921 442.59 356.905 442.827C356.827 443.768 356.582 444.688 356.183 445.544C355.79 446.376 355.235 447.122 354.55 447.737C353.838 448.374 353.014 448.873 352.119 449.208C350.102 449.911 347.905 449.911 345.888 449.208C344.97 448.882 344.124 448.383 343.395 447.737C342.714 447.122 342.163 446.376 341.775 445.544C341.371 444.689 341.122 443.769 341.039 442.827C341.039 442.636 341.039 442.399 341.039 442.116C341.039 441.83 341.039 441.543 341.039 441.244C341.039 440.945 341.039 440.658 341.039 440.359C341.039 440.06 341.039 439.823 341.039 439.636C341.106 438.694 341.347 437.773 341.75 436.919C342.154 436.083 342.712 435.33 343.395 434.7C344.123 434.051 344.97 433.548 345.888 433.217C346.873 432.835 347.921 432.636 348.979 432.632ZM352.805 439.736C352.762 439.17 352.605 438.619 352.344 438.115C352.123 437.713 351.817 437.365 351.446 437.093C351.098 436.837 350.698 436.658 350.275 436.57C349.866 436.474 349.448 436.424 349.028 436.42C348.609 436.423 348.191 436.473 347.782 436.57C347.358 436.658 346.959 436.837 346.611 437.093C346.234 437.358 345.926 437.708 345.713 438.115C345.446 438.617 345.289 439.169 345.252 439.736C345.252 439.91 345.252 440.122 345.252 440.371C345.252 440.621 345.252 440.895 345.252 441.169C345.252 441.443 345.252 441.705 345.252 441.967C345.241 442.174 345.241 442.382 345.252 442.59C345.287 443.157 345.445 443.71 345.713 444.21C345.93 444.619 346.237 444.973 346.611 445.245C346.964 445.492 347.362 445.669 347.782 445.768C348.192 445.855 348.61 445.901 349.028 445.905C349.447 445.9 349.865 445.854 350.275 445.768C350.695 445.669 351.092 445.492 351.446 445.245C351.814 444.966 352.12 444.613 352.344 444.21C352.607 443.707 352.764 443.156 352.805 442.59C352.805 442.44 352.805 442.228 352.805 441.967V440.371C352.83 440.122 352.817 439.91 352.805 439.686V439.736Z" fill="#455A64"/>
<path d="M365.879 443.425C365.851 443.996 366.038 444.556 366.403 444.996C366.67 445.22 366.98 445.388 367.315 445.489C367.649 445.59 368 445.621 368.347 445.581H370.279C370.391 445.58 370.501 445.601 370.604 445.644C370.707 445.686 370.8 445.75 370.877 445.831C370.957 445.908 371.02 446.001 371.063 446.104C371.106 446.207 371.128 446.318 371.127 446.429V448.51C371.128 448.623 371.107 448.734 371.066 448.838C371.024 448.943 370.962 449.038 370.883 449.118C370.804 449.198 370.71 449.261 370.606 449.305C370.503 449.348 370.391 449.37 370.279 449.37H367.898C366.25 449.479 364.621 448.963 363.337 447.925C362.768 447.351 362.33 446.66 362.055 445.9C361.779 445.141 361.672 444.33 361.741 443.525V436.745H359.648C359.423 436.738 359.209 436.645 359.051 436.485C358.893 436.325 358.803 436.11 358.8 435.885V433.803C358.803 433.578 358.893 433.363 359.051 433.203C359.209 433.043 359.423 432.95 359.648 432.943H361.741V427.796C361.741 427.571 361.831 427.356 361.99 427.197C362.149 427.038 362.364 426.948 362.589 426.948H364.994C365.106 426.946 365.217 426.968 365.32 427.011C365.423 427.053 365.515 427.117 365.593 427.198C365.673 427.275 365.736 427.368 365.779 427.471C365.822 427.574 365.843 427.684 365.842 427.796V432.943H369.918C370.143 432.953 370.356 433.046 370.515 433.205C370.675 433.365 370.768 433.578 370.778 433.803V435.947C370.768 436.172 370.675 436.386 370.515 436.545C370.356 436.704 370.143 436.798 369.918 436.807H365.842L365.879 443.425Z" fill="#455A64"/>
<path d="M386.594 432.943H390.981C391.095 432.943 391.208 432.966 391.313 433.011C391.418 433.056 391.513 433.122 391.592 433.205C391.672 433.283 391.735 433.376 391.778 433.478C391.821 433.581 391.842 433.692 391.841 433.803V435.947C391.842 436.058 391.821 436.169 391.778 436.272C391.735 436.374 391.672 436.467 391.592 436.545C391.513 436.628 391.418 436.694 391.313 436.739C391.208 436.784 391.095 436.807 390.981 436.807H386.594V448.585C386.595 448.697 386.575 448.809 386.533 448.913C386.491 449.017 386.429 449.112 386.35 449.192C386.271 449.272 386.177 449.336 386.073 449.379C385.97 449.423 385.859 449.445 385.746 449.445H383.341C383.229 449.446 383.119 449.425 383.016 449.382C382.913 449.339 382.82 449.276 382.743 449.196C382.659 449.117 382.593 449.022 382.548 448.917C382.503 448.812 382.48 448.699 382.481 448.585V436.745H380.362C380.249 436.746 380.138 436.724 380.034 436.679C379.931 436.634 379.839 436.567 379.764 436.483C379.681 436.407 379.616 436.314 379.573 436.211C379.53 436.108 379.51 435.996 379.514 435.885V433.803C379.51 433.691 379.53 433.58 379.573 433.477C379.616 433.373 379.681 433.281 379.764 433.205C379.839 433.121 379.931 433.054 380.034 433.009C380.138 432.964 380.249 432.941 380.362 432.943H382.443V431.522C382.419 430.645 382.572 429.772 382.892 428.955C383.153 428.281 383.582 427.684 384.138 427.222C384.725 426.77 385.4 426.447 386.12 426.275C386.962 426.082 387.824 425.99 388.688 426.001H391.255C391.367 425.999 391.477 426.02 391.58 426.063C391.683 426.106 391.776 426.17 391.853 426.25C391.933 426.328 391.997 426.421 392.039 426.524C392.082 426.627 392.104 426.737 392.103 426.848V428.93C392.104 429.042 392.084 429.154 392.042 429.258C392 429.362 391.938 429.457 391.859 429.537C391.78 429.617 391.686 429.681 391.582 429.724C391.479 429.768 391.367 429.79 391.255 429.79H389.086C388.447 429.745 387.809 429.893 387.254 430.214C387.02 430.411 386.84 430.664 386.729 430.949C386.618 431.234 386.58 431.543 386.619 431.846L386.594 432.943Z" fill="#455A64"/>
<path d="M401.55 432.632C402.621 432.614 403.686 432.796 404.691 433.167C405.572 433.527 406.379 434.047 407.071 434.7C407.754 435.33 408.312 436.083 408.716 436.919C409.131 437.769 409.373 438.692 409.427 439.636C409.442 439.877 409.442 440.118 409.427 440.359V442.116C409.442 442.353 409.442 442.59 409.427 442.827C409.349 443.768 409.104 444.688 408.704 445.544C408.311 446.376 407.756 447.122 407.071 447.737C406.36 448.374 405.535 448.873 404.641 449.208C403.646 449.544 402.599 449.696 401.55 449.657C400.475 449.674 399.406 449.492 398.397 449.121C397.502 448.786 396.678 448.287 395.966 447.65C395.285 447.034 394.734 446.289 394.346 445.457C393.936 444.604 393.687 443.683 393.611 442.739C393.611 442.553 393.611 442.316 393.611 442.029C393.611 441.742 393.611 441.456 393.611 441.157C393.611 440.857 393.611 440.571 393.611 440.272C393.611 439.973 393.611 439.736 393.611 439.549C393.665 438.605 393.906 437.681 394.321 436.832C394.72 436.031 395.26 435.309 395.916 434.7C396.627 434.06 397.452 433.557 398.347 433.217C399.368 432.823 400.455 432.624 401.55 432.632ZM405.289 439.686C405.25 439.121 405.097 438.57 404.84 438.066C404.619 437.66 404.308 437.31 403.93 437.044C403.587 436.787 403.191 436.608 402.771 436.52C402.363 436.424 401.945 436.374 401.525 436.371C401.105 436.373 400.687 436.423 400.279 436.52C399.855 436.608 399.455 436.787 399.107 437.044C398.731 437.308 398.423 437.658 398.21 438.066C397.943 438.567 397.785 439.119 397.749 439.686C397.749 439.86 397.749 440.072 397.749 440.322C397.749 440.571 397.749 440.845 397.749 441.119C397.749 441.393 397.749 441.655 397.749 441.917C397.738 442.124 397.738 442.332 397.749 442.54C397.784 443.107 397.941 443.66 398.21 444.16C398.426 444.569 398.733 444.923 399.107 445.195C399.461 445.442 399.859 445.619 400.279 445.718C400.688 445.806 401.106 445.852 401.525 445.855C401.944 445.85 402.361 445.804 402.771 445.718C403.187 445.619 403.581 445.441 403.93 445.195C404.305 444.92 404.616 444.567 404.84 444.16C405.099 443.656 405.251 443.105 405.289 442.54C405.305 442.333 405.305 442.124 405.289 441.917V440.371C405.306 440.143 405.306 439.914 405.289 439.686Z" fill="#455A64"/>
<path d="M412.904 433.803C412.907 433.578 412.997 433.363 413.155 433.203C413.313 433.042 413.527 432.949 413.752 432.943H416.157C416.382 432.952 416.596 433.046 416.755 433.205C416.914 433.364 417.008 433.578 417.017 433.803V441.829C416.963 442.897 417.241 443.956 417.815 444.858C418.125 445.254 418.529 445.567 418.99 445.767C419.452 445.967 419.956 446.049 420.457 446.005C420.944 446.032 421.43 445.943 421.874 445.743C422.319 445.543 422.709 445.24 423.012 444.858C423.643 443.978 423.955 442.91 423.897 441.829V433.803C423.906 433.578 424 433.364 424.159 433.205C424.318 433.046 424.532 432.952 424.757 432.943H427.15C427.264 432.942 427.377 432.965 427.482 433.01C427.587 433.055 427.682 433.122 427.761 433.205C427.841 433.282 427.904 433.375 427.947 433.478C427.99 433.581 428.011 433.691 428.01 433.803V448.522C428.012 448.636 427.991 448.748 427.948 448.853C427.905 448.959 427.842 449.054 427.762 449.134C427.682 449.214 427.586 449.278 427.481 449.32C427.376 449.363 427.263 449.384 427.15 449.382H424.757C424.646 449.383 424.535 449.362 424.432 449.319C424.329 449.276 424.236 449.213 424.159 449.133C424.076 449.055 424.009 448.96 423.964 448.855C423.919 448.75 423.896 448.637 423.897 448.522V447.799C423.361 448.298 422.756 448.717 422.102 449.046C421.302 449.459 420.41 449.661 419.51 449.632C418.415 449.668 417.326 449.464 416.319 449.033C415.522 448.675 414.828 448.122 414.3 447.426C413.777 446.725 413.408 445.922 413.216 445.07C413.003 444.142 412.898 443.193 412.904 442.241V433.803Z" fill="#455A64"/>
<path d="M447.79 448.523C447.791 448.635 447.771 448.747 447.729 448.851C447.687 448.955 447.625 449.05 447.546 449.13C447.467 449.21 447.373 449.274 447.269 449.317C447.166 449.36 447.054 449.383 446.942 449.383H444.537C444.425 449.384 444.315 449.362 444.212 449.319C444.109 449.277 444.016 449.213 443.938 449.133C443.855 449.055 443.789 448.96 443.744 448.855C443.699 448.75 443.676 448.637 443.677 448.523V440.496C443.734 439.415 443.422 438.347 442.792 437.467C442.462 437.076 442.043 436.768 441.571 436.571C441.098 436.374 440.585 436.292 440.075 436.333C439.579 436.309 439.084 436.399 438.628 436.595C438.172 436.792 437.768 437.09 437.445 437.467C436.764 438.326 436.418 439.402 436.473 440.496V448.523C436.475 448.636 436.455 448.749 436.412 448.854C436.369 448.959 436.305 449.054 436.223 449.133C436.145 449.213 436.052 449.276 435.949 449.318C435.847 449.361 435.736 449.383 435.625 449.383H433.22C433.108 449.383 432.998 449.361 432.895 449.318C432.793 449.276 432.699 449.213 432.621 449.133C432.54 449.054 432.476 448.959 432.433 448.854C432.39 448.749 432.369 448.636 432.372 448.523V433.803C432.368 433.691 432.388 433.58 432.431 433.477C432.474 433.373 432.539 433.281 432.621 433.205C432.697 433.122 432.789 433.055 432.893 433.01C432.996 432.965 433.107 432.942 433.22 432.943H435.625C435.738 432.942 435.849 432.965 435.952 433.01C436.055 433.055 436.148 433.122 436.223 433.205C436.306 433.281 436.371 433.373 436.414 433.477C436.457 433.58 436.477 433.691 436.473 433.803V434.526C437.037 433.97 437.69 433.511 438.404 433.168C439.224 432.79 440.12 432.607 441.022 432.632C442.128 432.595 443.23 432.799 444.25 433.23C445.063 433.591 445.777 434.142 446.331 434.838C446.872 435.532 447.254 436.336 447.453 437.193C447.68 438.119 447.794 439.069 447.79 440.022V448.523Z" fill="#455A64"/>
<path d="M458.309 432.631C458.9 432.624 459.49 432.687 460.066 432.818C460.534 432.928 460.99 433.087 461.425 433.292C461.78 433.46 462.115 433.669 462.422 433.915C462.661 434.097 462.883 434.301 463.083 434.526V427.795C463.083 427.683 463.105 427.572 463.148 427.468C463.192 427.364 463.255 427.27 463.335 427.192C463.415 427.113 463.51 427.051 463.614 427.009C463.719 426.967 463.83 426.946 463.943 426.948H466.36C466.472 426.944 466.584 426.964 466.687 427.007C466.79 427.05 466.883 427.115 466.959 427.197C467.043 427.272 467.11 427.364 467.155 427.468C467.2 427.571 467.222 427.683 467.22 427.795V448.522C467.221 448.637 467.198 448.75 467.153 448.855C467.108 448.96 467.042 449.055 466.959 449.133C466.881 449.213 466.788 449.276 466.685 449.319C466.582 449.362 466.472 449.383 466.36 449.382H463.967C463.854 449.384 463.741 449.363 463.636 449.32C463.531 449.278 463.436 449.214 463.356 449.134C463.275 449.054 463.212 448.958 463.17 448.853C463.127 448.748 463.106 448.636 463.107 448.522V447.799C462.908 448.024 462.686 448.228 462.447 448.41C462.14 448.656 461.805 448.865 461.45 449.033C461.015 449.238 460.559 449.397 460.091 449.507C459.515 449.638 458.925 449.701 458.334 449.694C457.348 449.71 456.372 449.501 455.48 449.083C454.647 448.691 453.905 448.131 453.299 447.438C452.69 446.738 452.209 445.936 451.878 445.07C451.527 444.174 451.329 443.226 451.292 442.266C451.292 441.954 451.292 441.58 451.292 441.169C451.292 440.757 451.292 440.371 451.292 440.059C451.329 439.099 451.527 438.151 451.878 437.255C452.212 436.39 452.693 435.589 453.299 434.887C453.905 434.194 454.647 433.634 455.48 433.242C456.365 432.828 457.332 432.619 458.309 432.631ZM455.368 440.284C455.305 440.872 455.305 441.465 455.368 442.054C455.381 443.163 455.829 444.223 456.614 445.008C457.35 445.612 458.279 445.931 459.231 445.905C460.188 445.931 461.12 445.603 461.849 444.983C462.22 444.651 462.522 444.249 462.736 443.8C462.95 443.35 463.072 442.863 463.095 442.365C463.141 441.951 463.162 441.535 463.157 441.119C463.161 440.703 463.14 440.286 463.095 439.873C463.043 438.901 462.615 437.987 461.9 437.326C461.186 436.665 460.242 436.309 459.269 436.333C458.317 436.307 457.387 436.625 456.651 437.23C456.244 437.627 455.92 438.102 455.7 438.627C455.479 439.151 455.366 439.715 455.368 440.284Z" fill="#455A64"/>
<defs>
<linearGradient id="paint0_linear_155_525" x1="654.38" y1="345.22" x2="654.38" y2="401.09" gradientUnits="userSpaceOnUse">
<stop stop-color="#6A76E3"/>
<stop offset="1" stop-color="#45A4F3"/>
</linearGradient>
<linearGradient id="paint1_linear_155_525" x1="642.34" y1="345.22" x2="642.34" y2="401.09" gradientUnits="userSpaceOnUse">
<stop stop-color="#6A76E3"/>
<stop offset="1" stop-color="#45A4F3"/>
</linearGradient>
<linearGradient id="paint2_linear_155_525" x1="54.6049" y1="371.93" x2="54.6049" y2="380.17" gradientUnits="userSpaceOnUse">
<stop stop-color="#6A76E3"/>
<stop offset="1" stop-color="#45A4F3"/>
</linearGradient>
<linearGradient id="paint3_linear_155_525" x1="54.8349" y1="376.05" x2="54.8349" y2="401.21" gradientUnits="userSpaceOnUse">
<stop stop-color="#6A76E3"/>
<stop offset="1" stop-color="#45A4F3"/>
</linearGradient>
<linearGradient id="paint4_linear_155_525" x1="256.264" y1="194.016" x2="256.264" y2="292.407" gradientUnits="userSpaceOnUse">
<stop stop-color="#6A76E3"/>
<stop offset="1" stop-color="#45A4F3"/>
</linearGradient>
<linearGradient id="paint5_linear_155_525" x1="346.427" y1="194" x2="346.427" y2="294" gradientUnits="userSpaceOnUse">
<stop stop-color="#6A76E3"/>
<stop offset="1" stop-color="#45A4F3"/>
</linearGradient>
<linearGradient id="paint6_linear_155_525" x1="436.556" y1="194.016" x2="436.556" y2="292.407" gradientUnits="userSpaceOnUse">
<stop stop-color="#6A76E3"/>
<stop offset="1" stop-color="#45A4F3"/>
</linearGradient>
<linearGradient id="paint7_linear_155_525" x1="454.125" y1="80.7417" x2="454.125" y2="125.646" gradientUnits="userSpaceOnUse">
<stop stop-color="#6A76E3"/>
<stop offset="1" stop-color="#45A4F3"/>
</linearGradient>
</defs>
</svg>
