<svg width="54" height="54" viewBox="0 0 54 54" fill="none" xmlns="http://www.w3.org/2000/svg">
<g clip-path="url(#clip0_1434_1896)">
<g clip-path="url(#clip1_1434_1896)">
<g opacity="0.2">
<g filter="url(#filter0_iii_1434_1896)">
<path d="M45 0H9C4.02944 0 0 4.02944 0 9V45C0 49.9706 4.02944 54 9 54H45C49.9706 54 54 49.9706 54 45V9C54 4.02944 49.9706 0 45 0Z" fill="url(#paint0_angular_1434_1896)" fill-opacity="0.01"/>
</g>
</g>
<path d="M23.7859 26.7031C22.4013 26.7031 21.2749 27.8295 21.2749 29.2141V35.489C21.2749 36.8735 22.4013 38 23.7859 38C25.1705 38 26.2969 36.8736 26.2969 35.489V29.2141C26.2969 27.8295 25.1705 26.7031 23.7859 26.7031Z" fill="#FF4340"/>
<path d="M19.8687 26.7031H17.4378C16.0973 26.7031 15.0068 27.7937 15.0068 29.1341C15.0068 30.4745 16.0974 31.565 17.4378 31.565C18.7782 31.565 19.8687 30.4745 19.8687 29.1341V26.7031Z" fill="#FF4340"/>
<path d="M15 22.7854C15 24.17 16.1264 25.2964 17.511 25.2964H23.7858C25.1705 25.2964 26.2969 24.17 26.2969 22.7854C26.2969 21.4008 25.1705 20.2744 23.7859 20.2744H17.511C16.1264 20.2744 15 21.4008 15 22.7854Z" fill="#36C6FF"/>
<path d="M23.866 18.8687H26.2969V16.4378C26.2969 15.0973 25.2064 14.0068 23.866 14.0068C22.5256 14.0068 21.4351 15.0974 21.4351 16.4378C21.4351 17.7782 22.5256 18.8687 23.866 18.8687Z" fill="#36C6FF"/>
<path d="M30.2141 25.2969C31.5987 25.2969 32.7251 24.1705 32.7251 22.7859V16.511C32.7252 15.1264 31.5987 14 30.2141 14C28.8295 14 27.7031 15.1264 27.7031 16.511V22.7858C27.7031 24.1705 28.8295 25.2969 30.2141 25.2969Z" fill="#0DC46E"/>
<path d="M34.1313 25.2964H36.5623C37.9027 25.2964 38.9932 24.2059 38.9932 22.8655C38.9932 21.5251 37.9027 20.4346 36.5623 20.4346C35.2219 20.4346 34.1313 21.5251 34.1313 22.8655V25.2964Z" fill="#0DC46E"/>
<path d="M39 29.2141C39 27.8295 37.8736 26.7031 36.489 26.7031H30.2141C28.8295 26.7031 27.7031 27.8295 27.7031 29.2141C27.7031 30.5987 28.8295 31.7251 30.2141 31.7251H36.489C37.8736 31.7252 39 30.5987 39 29.2141Z" fill="#FDCB02"/>
<path d="M30.1341 33.1318H27.7031V35.5628C27.7031 36.9032 28.7937 37.9937 30.1341 37.9937C31.4745 37.9937 32.565 36.9032 32.565 35.5628C32.565 34.2224 31.4745 33.1318 30.1341 33.1318Z" fill="#FDCB02"/>
</g>
</g>
<defs>
<filter id="filter0_iii_1434_1896" x="0" y="-2" width="64" height="66" filterUnits="userSpaceOnUse" color-interpolation-filters="sRGB">
<feFlood flood-opacity="0" result="BackgroundImageFix"/>
<feBlend mode="normal" in="SourceGraphic" in2="BackgroundImageFix" result="shape"/>
<feColorMatrix in="SourceAlpha" type="matrix" values="0 0 0 0 0 0 0 0 0 0 0 0 0 0 0 0 0 0 127 0" result="hardAlpha"/>
<feOffset dx="10" dy="10"/>
<feGaussianBlur stdDeviation="7.5"/>
<feComposite in2="hardAlpha" operator="arithmetic" k2="-1" k3="1"/>
<feColorMatrix type="matrix" values="0 0 0 0 0.121569 0 0 0 0 0.12549 0 0 0 0 0.12549 0 0 0 1 0"/>
<feBlend mode="normal" in2="shape" result="effect1_innerShadow_1434_1896"/>
<feColorMatrix in="SourceAlpha" type="matrix" values="0 0 0 0 0 0 0 0 0 0 0 0 0 0 0 0 0 0 127 0" result="hardAlpha"/>
<feOffset dy="-2"/>
<feGaussianBlur stdDeviation="2.8"/>
<feComposite in2="hardAlpha" operator="arithmetic" k2="-1" k3="1"/>
<feColorMatrix type="matrix" values="0 0 0 0 0.992157 0 0 0 0 0.796078 0 0 0 0 0.00784314 0 0 0 1 0"/>
<feBlend mode="normal" in2="effect1_innerShadow_1434_1896" result="effect2_innerShadow_1434_1896"/>
<feColorMatrix in="SourceAlpha" type="matrix" values="0 0 0 0 0 0 0 0 0 0 0 0 0 0 0 0 0 0 127 0" result="hardAlpha"/>
<feOffset dx="2" dy="3"/>
<feGaussianBlur stdDeviation="2"/>
<feComposite in2="hardAlpha" operator="arithmetic" k2="-1" k3="1"/>
<feColorMatrix type="matrix" values="0 0 0 0 0.217318 0 0 0 0 0.22393 0 0 0 0 0.22393 0 0 0 1 0"/>
<feBlend mode="normal" in2="effect2_innerShadow_1434_1896" result="effect3_innerShadow_1434_1896"/>
</filter>
<radialGradient id="paint0_angular_1434_1896" cx="0" cy="0" r="1" gradientUnits="userSpaceOnUse" gradientTransform="translate(29.5 27.5419) rotate(124.6) scale(50.1896 50.8458)">
<stop offset="0.275" stop-color="#36C6FF"/>
<stop offset="0.54" stop-color="#0DC46E"/>
<stop offset="0.79" stop-color="#FDCB02"/>
<stop offset="1" stop-color="#FF4340"/>
</radialGradient>
<clipPath id="clip0_1434_1896">
<rect width="54" height="54" fill="white"/>
</clipPath>
<clipPath id="clip1_1434_1896">
<rect width="54" height="54" fill="white"/>
</clipPath>
</defs>
</svg>
