<svg width="54" height="54" viewBox="0 0 54 54" fill="none" xmlns="http://www.w3.org/2000/svg">
<g clip-path="url(#clip0_1284_1645)">
<g filter="url(#filter0_iii_1284_1645)">
<path d="M45 0H9C4.02944 0 0 4.02944 0 9V45C0 49.9706 4.02944 54 9 54H45C49.9706 54 54 49.9706 54 45V9C54 4.02944 49.9706 0 45 0Z" fill="url(#paint0_angular_1284_1645)" fill-opacity="0.05"/>
</g>
<g filter="url(#filter1_f_1284_1645)">
<path d="M23.2503 27.8203C21.6349 27.8203 20.3208 29.1345 20.3208 30.7498V38.0704C20.3208 39.6858 21.6349 40.9999 23.2503 40.9999C24.8657 41 26.1798 39.6859 26.1798 38.0705V30.7498C26.1798 29.1345 24.8657 27.8203 23.2503 27.8203Z" fill="#FF4340" fill-opacity="0.5"/>
<path d="M18.68 27.8203H15.8439C14.2801 27.8203 13.0078 29.0926 13.0078 30.6564C13.0078 32.2202 14.2801 33.4925 15.8439 33.4925C17.4077 33.4925 18.68 32.2202 18.68 30.6564V27.8203Z" fill="#FF4340" fill-opacity="0.5"/>
<path d="M13 23.248C13 24.8633 14.3141 26.1775 15.9295 26.1775H23.2501C24.8655 26.1775 26.1797 24.8633 26.1797 23.248C26.1797 21.6326 24.8655 20.3185 23.2502 20.3185H15.9295C14.3141 20.3184 13 21.6326 13 23.248Z" fill="#36C6FF" fill-opacity="0.5"/>
<path d="M23.3434 18.6818H26.1795V15.8457C26.1795 14.2819 24.9072 13.0096 23.3434 13.0096C21.7796 13.0096 20.5073 14.2819 20.5073 15.8457C20.5073 17.4095 21.7796 18.6818 23.3434 18.6818Z" fill="#36C6FF" fill-opacity="0.5"/>
<path d="M30.7498 26.1797C32.3652 26.1797 33.6793 24.8655 33.6793 23.2502V15.9295C33.6794 14.3141 32.3652 13 30.7498 13C29.1345 13 27.8203 14.3141 27.8203 15.9295V23.2501C27.8203 24.8655 29.1345 26.1797 30.7498 26.1797Z" fill="#0DC46E" fill-opacity="0.5"/>
<path d="M35.3198 26.1772H38.1559C39.7198 26.1772 40.992 24.9049 40.992 23.3411C40.992 21.7773 39.7197 20.505 38.1559 20.505C36.5921 20.505 35.3198 21.7773 35.3198 23.3411V26.1772Z" fill="#0DC46E" fill-opacity="0.5"/>
<path d="M41 30.7498C41 29.1345 39.6859 27.8203 38.0705 27.8203H30.7498C29.1345 27.8203 27.8203 29.1345 27.8203 30.7498C27.8203 32.3652 29.1345 33.6793 30.7498 33.6793H38.0704C39.6859 33.6794 41 32.3652 41 30.7498Z" fill="#FDCB02" fill-opacity="0.5"/>
<path d="M30.6564 35.3221H27.8203V38.1582C27.8203 39.7221 29.0926 40.9943 30.6564 40.9943C32.2202 40.9943 33.4925 39.722 33.4925 38.1582C33.4925 36.5944 32.2202 35.3221 30.6564 35.3221Z" fill="#FDCB02" fill-opacity="0.5"/>
</g>
<path d="M23.7859 26.7031C22.4013 26.7031 21.2749 27.8295 21.2749 29.2141V35.489C21.2749 36.8735 22.4013 38 23.7859 38C25.1705 38 26.2969 36.8736 26.2969 35.489V29.2141C26.2969 27.8295 25.1705 26.7031 23.7859 26.7031Z" fill="#FF4340"/>
<path d="M19.8687 26.7031H17.4378C16.0973 26.7031 15.0068 27.7937 15.0068 29.1341C15.0068 30.4745 16.0974 31.565 17.4378 31.565C18.7782 31.565 19.8687 30.4745 19.8687 29.1341V26.7031Z" fill="#FF4340"/>
<path d="M15 22.7859C15 24.1705 16.1264 25.2969 17.511 25.2969H23.7858C25.1705 25.2969 26.2969 24.1705 26.2969 22.7859C26.2969 21.4013 25.1705 20.2749 23.7859 20.2749H17.511C16.1264 20.2749 15 21.4013 15 22.7859Z" fill="#36C6FF"/>
<path d="M23.866 18.8686H26.2969V16.4377C26.2969 15.0972 25.2064 14.0067 23.866 14.0067C22.5256 14.0067 21.4351 15.0973 21.4351 16.4377C21.4351 17.778 22.5256 18.8686 23.866 18.8686Z" fill="#36C6FF"/>
<path d="M30.2141 25.2969C31.5987 25.2969 32.7251 24.1705 32.7251 22.7859V16.511C32.7252 15.1264 31.5987 14 30.2141 14C28.8295 14 27.7031 15.1264 27.7031 16.511V22.7858C27.7031 24.1705 28.8295 25.2969 30.2141 25.2969Z" fill="#0DC46E"/>
<path d="M34.1313 25.2969H36.5623C37.9027 25.2969 38.9932 24.2064 38.9932 22.866C38.9932 21.5256 37.9027 20.4351 36.5623 20.4351C35.2219 20.4351 34.1313 21.5256 34.1313 22.866V25.2969Z" fill="#0DC46E"/>
<path d="M39 29.2141C39 27.8295 37.8736 26.7031 36.489 26.7031H30.2141C28.8295 26.7031 27.7031 27.8295 27.7031 29.2141C27.7031 30.5987 28.8295 31.7251 30.2141 31.7251H36.489C37.8736 31.7252 39 30.5987 39 29.2141Z" fill="#FDCB02"/>
<path d="M30.1341 33.1315H27.7031V35.5624C27.7031 36.9028 28.7937 37.9933 30.1341 37.9933C31.4745 37.9933 32.565 36.9028 32.565 35.5624C32.565 34.222 31.4745 33.1315 30.1341 33.1315Z" fill="#FDCB02"/>
<g clip-path="url(#clip1_1284_1645)" filter="url(#filter2_f_1284_1645)">
<path d="M6 53.9997C11.7437 50.9814 28.1863 46.7547 48 53.9997H6Z" fill="url(#paint1_linear_1284_1645)" fill-opacity="0.79"/>
</g>
</g>
<defs>
<filter id="filter0_iii_1284_1645" x="0" y="-2" width="64" height="66" filterUnits="userSpaceOnUse" color-interpolation-filters="sRGB">
<feFlood flood-opacity="0" result="BackgroundImageFix"/>
<feBlend mode="normal" in="SourceGraphic" in2="BackgroundImageFix" result="shape"/>
<feColorMatrix in="SourceAlpha" type="matrix" values="0 0 0 0 0 0 0 0 0 0 0 0 0 0 0 0 0 0 127 0" result="hardAlpha"/>
<feOffset dx="10" dy="10"/>
<feGaussianBlur stdDeviation="7.5"/>
<feComposite in2="hardAlpha" operator="arithmetic" k2="-1" k3="1"/>
<feColorMatrix type="matrix" values="0 0 0 0 0.121569 0 0 0 0 0.12549 0 0 0 0 0.12549 0 0 0 1 0"/>
<feBlend mode="normal" in2="shape" result="effect1_innerShadow_1284_1645"/>
<feColorMatrix in="SourceAlpha" type="matrix" values="0 0 0 0 0 0 0 0 0 0 0 0 0 0 0 0 0 0 127 0" result="hardAlpha"/>
<feOffset dy="-2"/>
<feGaussianBlur stdDeviation="2.8"/>
<feComposite in2="hardAlpha" operator="arithmetic" k2="-1" k3="1"/>
<feColorMatrix type="matrix" values="0 0 0 0 0.992157 0 0 0 0 0.796078 0 0 0 0 0.00784314 0 0 0 1 0"/>
<feBlend mode="normal" in2="effect1_innerShadow_1284_1645" result="effect2_innerShadow_1284_1645"/>
<feColorMatrix in="SourceAlpha" type="matrix" values="0 0 0 0 0 0 0 0 0 0 0 0 0 0 0 0 0 0 127 0" result="hardAlpha"/>
<feOffset dx="2" dy="3"/>
<feGaussianBlur stdDeviation="2"/>
<feComposite in2="hardAlpha" operator="arithmetic" k2="-1" k3="1"/>
<feColorMatrix type="matrix" values="0 0 0 0 0.217318 0 0 0 0 0.22393 0 0 0 0 0.22393 0 0 0 1 0"/>
<feBlend mode="normal" in2="effect2_innerShadow_1284_1645" result="effect3_innerShadow_1284_1645"/>
</filter>
<filter id="filter1_f_1284_1645" x="-2.1" y="-2.1" width="58.2" height="58.2" filterUnits="userSpaceOnUse" color-interpolation-filters="sRGB">
<feFlood flood-opacity="0" result="BackgroundImageFix"/>
<feBlend mode="normal" in="SourceGraphic" in2="BackgroundImageFix" result="shape"/>
<feGaussianBlur stdDeviation="7.55" result="effect1_foregroundBlur_1284_1645"/>
</filter>
<filter id="filter2_f_1284_1645" x="2" y="46" width="50" height="12" filterUnits="userSpaceOnUse" color-interpolation-filters="sRGB">
<feFlood flood-opacity="0" result="BackgroundImageFix"/>
<feBlend mode="normal" in="SourceGraphic" in2="BackgroundImageFix" result="shape"/>
<feGaussianBlur stdDeviation="2" result="effect1_foregroundBlur_1284_1645"/>
</filter>
<radialGradient id="paint0_angular_1284_1645" cx="0" cy="0" r="1" gradientUnits="userSpaceOnUse" gradientTransform="translate(29.5 27.5419) rotate(124.6) scale(50.1896 50.8458)">
<stop offset="0.275" stop-color="#36C6FF"/>
<stop offset="0.54" stop-color="#0DC46E"/>
<stop offset="0.79" stop-color="#FDCB02"/>
<stop offset="1" stop-color="#FF4340"/>
</radialGradient>
<linearGradient id="paint1_linear_1284_1645" x1="27" y1="49.9997" x2="27" y2="53.9997" gradientUnits="userSpaceOnUse">
<stop stop-color="#FDCB02"/>
<stop offset="0.8" stop-color="#FF4340"/>
<stop offset="1" stop-color="#F4D4D4"/>
</linearGradient>
<clipPath id="clip0_1284_1645">
<rect width="54" height="54" fill="white"/>
</clipPath>
<clipPath id="clip1_1284_1645">
<rect width="42" height="4" fill="white" transform="translate(6 50)"/>
</clipPath>
</defs>
</svg>
