<svg width="54" height="54" viewBox="0 0 54 54" fill="none" xmlns="http://www.w3.org/2000/svg">
<g clip-path="url(#clip0_1284_1685)">
<g filter="url(#filter0_iii_1284_1685)">
<path d="M45 0H9C4.02944 0 0 4.02944 0 9V45C0 49.9706 4.02944 54 9 54H45C49.9706 54 54 49.9706 54 45V9C54 4.02944 49.9706 0 45 0Z" fill="white" fill-opacity="0.01"/>
</g>
<g filter="url(#filter1_f_1284_1685)">
<path d="M36.5 15H17.5C16.1193 15 15 16.1193 15 17.5V36.5C15 37.8807 16.1193 39 17.5 39H36.5C37.8807 39 39 37.8807 39 36.5V17.5C39 16.1193 37.8807 15 36.5 15Z" fill="white" fill-opacity="0.27"/>
</g>
<path d="M36.5 15H17.5C16.1193 15 15 16.1193 15 17.5V36.5C15 37.8807 16.1193 39 17.5 39H36.5C37.8807 39 39 37.8807 39 36.5V17.5C39 16.1193 37.8807 15 36.5 15Z" fill="black"/>
<g filter="url(#filter2_f_1284_1685)">
<path d="M28.5603 25.7089L34.6503 18.6289H33.2103L27.9203 24.7789L23.7003 18.6289H18.8203L25.2103 27.9189L18.8203 35.3389H20.2603L25.8403 28.8489L30.3003 35.3389H35.1703L28.5503 25.6989L28.5603 25.7089ZM26.5803 28.0089L25.9303 27.0789L20.7803 19.7189H23.0003L27.1503 25.6589L27.8003 26.5889L33.2003 34.3189H30.9803L26.5703 28.0189L26.5803 28.0089Z" fill="white"/>
</g>
<path d="M28.5603 25.7089L34.6503 18.6289H33.2103L27.9203 24.7789L23.7003 18.6289H18.8203L25.2103 27.9189L18.8203 35.3389H20.2603L25.8403 28.8489L30.3003 35.3389H35.1703L28.5503 25.6989L28.5603 25.7089ZM26.5803 28.0089L25.9303 27.0789L20.7803 19.7189H23.0003L27.1503 25.6589L27.8003 26.5889L33.2003 34.3189H30.9803L26.5703 28.0189L26.5803 28.0089Z" fill="white"/>
<g opacity="0.76" clip-path="url(#clip1_1284_1685)" filter="url(#filter3_f_1284_1685)">
<path d="M6 53.9997C11.7437 50.9814 28.1863 46.7547 48 53.9997H6Z" fill="url(#paint0_linear_1284_1685)" fill-opacity="0.79"/>
</g>
</g>
<defs>
<filter id="filter0_iii_1284_1685" x="0" y="-2" width="57.8" height="59.8" filterUnits="userSpaceOnUse" color-interpolation-filters="sRGB">
<feFlood flood-opacity="0" result="BackgroundImageFix"/>
<feBlend mode="normal" in="SourceGraphic" in2="BackgroundImageFix" result="shape"/>
<feColorMatrix in="SourceAlpha" type="matrix" values="0 0 0 0 0 0 0 0 0 0 0 0 0 0 0 0 0 0 127 0" result="hardAlpha"/>
<feOffset dx="6" dy="7"/>
<feGaussianBlur stdDeviation="1.9"/>
<feComposite in2="hardAlpha" operator="arithmetic" k2="-1" k3="1"/>
<feColorMatrix type="matrix" values="0 0 0 0 0.121569 0 0 0 0 0.12549 0 0 0 0 0.12549 0 0 0 1 0"/>
<feBlend mode="normal" in2="shape" result="effect1_innerShadow_1284_1685"/>
<feColorMatrix in="SourceAlpha" type="matrix" values="0 0 0 0 0 0 0 0 0 0 0 0 0 0 0 0 0 0 127 0" result="hardAlpha"/>
<feOffset dy="-2"/>
<feGaussianBlur stdDeviation="2.75"/>
<feComposite in2="hardAlpha" operator="arithmetic" k2="-1" k3="1"/>
<feColorMatrix type="matrix" values="0 0 0 0 1 0 0 0 0 1 0 0 0 0 1 0 0 0 1 0"/>
<feBlend mode="normal" in2="effect1_innerShadow_1284_1685" result="effect2_innerShadow_1284_1685"/>
<feColorMatrix in="SourceAlpha" type="matrix" values="0 0 0 0 0 0 0 0 0 0 0 0 0 0 0 0 0 0 127 0" result="hardAlpha"/>
<feOffset dx="3" dy="3"/>
<feGaussianBlur stdDeviation="3.7"/>
<feComposite in2="hardAlpha" operator="arithmetic" k2="-1" k3="1"/>
<feColorMatrix type="matrix" values="0 0 0 0 0.181548 0 0 0 0 0.181548 0 0 0 0 0.181548 0 0 0 0.99 0"/>
<feBlend mode="normal" in2="effect2_innerShadow_1284_1685" result="effect3_innerShadow_1284_1685"/>
</filter>
<filter id="filter1_f_1284_1685" x="8.5" y="8.5" width="37" height="37" filterUnits="userSpaceOnUse" color-interpolation-filters="sRGB">
<feFlood flood-opacity="0" result="BackgroundImageFix"/>
<feBlend mode="normal" in="SourceGraphic" in2="BackgroundImageFix" result="shape"/>
<feGaussianBlur stdDeviation="3.25" result="effect1_foregroundBlur_1284_1685"/>
</filter>
<filter id="filter2_f_1284_1685" x="12.1203" y="11.9289" width="29.7501" height="30.11" filterUnits="userSpaceOnUse" color-interpolation-filters="sRGB">
<feFlood flood-opacity="0" result="BackgroundImageFix"/>
<feBlend mode="normal" in="SourceGraphic" in2="BackgroundImageFix" result="shape"/>
<feGaussianBlur stdDeviation="3.35" result="effect1_foregroundBlur_1284_1685"/>
</filter>
<filter id="filter3_f_1284_1685" x="2" y="46" width="50" height="12" filterUnits="userSpaceOnUse" color-interpolation-filters="sRGB">
<feFlood flood-opacity="0" result="BackgroundImageFix"/>
<feBlend mode="normal" in="SourceGraphic" in2="BackgroundImageFix" result="shape"/>
<feGaussianBlur stdDeviation="2" result="effect1_foregroundBlur_1284_1685"/>
</filter>
<linearGradient id="paint0_linear_1284_1685" x1="27" y1="49.9997" x2="27" y2="53.9997" gradientUnits="userSpaceOnUse">
<stop stop-color="white"/>
<stop offset="1" stop-color="white"/>
</linearGradient>
<clipPath id="clip0_1284_1685">
<rect width="54" height="54" fill="white"/>
</clipPath>
<clipPath id="clip1_1284_1685">
<rect width="42" height="4" fill="white" transform="translate(6 50)"/>
</clipPath>
</defs>
</svg>
