<svg width="16" height="16" viewBox="0 0 16 16" fill="none" xmlns="http://www.w3.org/2000/svg">
<path d="M5.5 8.5C5.91421 8.5 6.25 8.16421 6.25 7.75C6.25 7.33579 5.91421 7 5.5 7C5.08579 7 4.75 7.33579 4.75 7.75C4.75 8.16421 5.08579 8.5 5.5 8.5Z" fill="black"/>
<path d="M6 6H5V4H6C6.26522 4 6.51957 3.89464 6.70711 3.70711C6.89464 3.51957 7 3.26522 7 3C7 2.73478 6.89464 2.48043 6.70711 2.29289C6.51957 2.10536 6.26522 2 6 2H5C4.73478 2 4.48043 2.10536 4.29289 2.29289C4.10536 2.48043 4 2.73478 4 3V3.25H3V3C3.00066 2.46977 3.21159 1.96145 3.58652 1.58652C3.96145 1.21159 4.46977 1.00066 5 1H6C6.53043 1 7.03914 1.21071 7.41421 1.58579C7.78929 1.96086 8 2.46957 8 3C8 3.53043 7.78929 4.03914 7.41421 4.41421C7.03914 4.78929 6.53043 5 6 5V6Z" fill="black"/>
<path d="M11.224 10.517C11.7243 9.91847 12.0912 9.2201 12.3001 8.46851C12.509 7.71693 12.5553 6.92941 12.4357 6.15854C12.3161 5.38767 12.0335 4.65118 11.6066 3.99822C11.1798 3.34526 10.6186 2.79085 9.9605 2.37201L9.461 3.23701C10.113 3.6635 10.6431 4.25201 10.9993 4.94493C11.3555 5.63784 11.5257 6.41138 11.4931 7.18981C11.4605 7.96824 11.2263 8.72486 10.8134 9.38558C10.4005 10.0463 9.82312 10.5884 9.13775 10.9589C8.45237 11.3295 7.68252 11.5156 6.90358 11.4992C6.12464 11.4827 5.36333 11.2643 4.6942 10.8652C4.02506 10.4661 3.47105 9.90004 3.08642 9.22249C2.70178 8.54495 2.49972 7.77912 2.5 7.00001H1.5C1.49924 8.04524 1.79656 9.06901 2.35706 9.95124C2.91757 10.8335 3.71802 11.5376 4.66454 11.981C5.61106 12.4244 6.66439 12.5887 7.70098 12.4546C8.73757 12.3205 9.71444 11.8936 10.517 11.224L14.293 15L15 14.293L11.224 10.517Z" fill="black"/>
</svg>
