<svg width="12" height="12" viewBox="0 0 12 12" fill="none" xmlns="http://www.w3.org/2000/svg">
<path d="M6.66667 3.33333V0.666667C6.66667 0.477778 6.73067 0.319556 6.85867 0.192C6.98667 0.0644445 7.14489 0.000444444 7.33333 0H11.3333C11.5222 0 11.6807 0.0640001 11.8087 0.192C11.9367 0.32 12.0004 0.478222 12 0.666667V3.33333C12 3.52222 11.936 3.68067 11.808 3.80867C11.68 3.93667 11.5218 4.00044 11.3333 4H7.33333C7.14444 4 6.98622 3.936 6.85867 3.808C6.73111 3.68 6.66711 3.52178 6.66667 3.33333ZM0 6V0.666667C0 0.477778 0.0640001 0.319556 0.192 0.192C0.32 0.0644445 0.478222 0.000444444 0.666667 0H4.66667C4.85556 0 5.014 0.0640001 5.142 0.192C5.27 0.32 5.33378 0.478222 5.33333 0.666667V6C5.33333 6.18889 5.26933 6.34733 5.14133 6.47533C5.01333 6.60333 4.85511 6.66711 4.66667 6.66667H0.666667C0.477778 6.66667 0.319556 6.60267 0.192 6.47467C0.0644445 6.34667 0.000444444 6.18844 0 6ZM6.66667 11.3333V6C6.66667 5.81111 6.73067 5.65289 6.85867 5.52533C6.98667 5.39778 7.14489 5.33378 7.33333 5.33333H11.3333C11.5222 5.33333 11.6807 5.39733 11.8087 5.52533C11.9367 5.65333 12.0004 5.81156 12 6V11.3333C12 11.5222 11.936 11.6807 11.808 11.8087C11.68 11.9367 11.5218 12.0004 11.3333 12H7.33333C7.14444 12 6.98622 11.936 6.85867 11.808C6.73111 11.68 6.66711 11.5218 6.66667 11.3333ZM0 11.3333V8.66667C0 8.47778 0.0640001 8.31956 0.192 8.192C0.32 8.06444 0.478222 8.00044 0.666667 8H4.66667C4.85556 8 5.014 8.064 5.142 8.192C5.27 8.32 5.33378 8.47822 5.33333 8.66667V11.3333C5.33333 11.5222 5.26933 11.6807 5.14133 11.8087C5.01333 11.9367 4.85511 12.0004 4.66667 12H0.666667C0.477778 12 0.319556 11.936 0.192 11.808C0.0644445 11.68 0.000444444 11.5218 0 11.3333ZM1.33333 5.33333H4V1.33333H1.33333V5.33333ZM8 10.6667H10.6667V6.66667H8V10.6667ZM8 2.66667H10.6667V1.33333H8V2.66667ZM1.33333 10.6667H4V9.33333H1.33333V10.6667Z" fill="black"/>
</svg>
