<svg width="14" height="13" viewBox="0 0 14 13" fill="none" xmlns="http://www.w3.org/2000/svg">
<path fill-rule="evenodd" clip-rule="evenodd" d="M12.35 8.42756C12.8283 7.75578 13.0897 6.95638 13.0897 6.11522C13.0897 5.26481 12.8222 4.45703 12.3335 3.781V0H0.333496V9.33334H5.66684V11.3333H3.00015V12.6667H9.66684V11.3333H7.00015V9.5145C7.63972 9.90722 8.36275 10.1133 9.08968 10.1133C9.90325 10.1133 10.7112 9.85678 11.4021 9.36516L13.006 10.9557L13.9448 10.0091L12.35 8.42756ZM5.55975 8H1.66684V1.33334H11.0002V2.60053C10.4205 2.28434 9.7684 2.11522 9.09 2.11522C8.02131 2.11522 7.01709 2.53125 6.26156 3.28709C5.50603 4.04231 5.09 5.04688 5.09 6.11522C5.09 6.78353 5.25284 7.42691 5.55975 8ZM10.9754 8.00131C9.93637 9.041 8.24462 9.041 7.20428 8.00131C6.70068 7.49741 6.42334 6.82747 6.42334 6.11522C6.42334 5.40297 6.70068 4.73372 7.20428 4.22981C7.70818 3.72591 8.37778 3.44856 9.09 3.44856C9.8019 3.44856 10.4715 3.72591 10.9754 4.22981C11.479 4.73372 11.7563 5.403 11.7563 6.11522C11.7563 6.82747 11.479 7.49741 10.9754 8.00131" fill="black"/>
</svg>
