<svg width="14" height="14" viewBox="0 0 14 14" fill="none" xmlns="http://www.w3.org/2000/svg">
<path d="M7.00008 0.666687C5.74747 0.666687 4.52298 1.03813 3.48147 1.73405C2.43996 2.42996 1.6282 3.41909 1.14885 4.57636C0.669492 5.73362 0.544071 7.00705 0.788444 8.23559C1.03282 9.46414 1.63601 10.5926 2.52174 11.4784C3.40747 12.3641 4.53597 12.9673 5.76451 13.2117C6.99306 13.456 8.26648 13.3306 9.42375 12.8513C10.581 12.3719 11.5701 11.5601 12.2661 10.5186C12.962 9.47712 13.3334 8.25264 13.3334 7.00002C13.3334 5.32032 12.6662 3.70941 11.4784 2.52168C10.2907 1.33395 8.67979 0.666687 7.00008 0.666687ZM7.00008 12.52C6.56544 12.5574 6.13349 12.4228 5.79695 12.1452C5.46041 11.8676 5.24612 11.4692 5.20008 11.0354H8.80008C8.75405 11.4692 8.53976 11.8676 8.20322 12.1452C7.86668 12.4228 7.43473 12.5574 7.00008 12.52ZM9.97942 10.544H4.02342V9.46669H9.97875L9.97942 10.544ZM9.95608 8.90935H4.04075L3.98208 8.84269C3.58353 8.40253 3.27969 7.88516 3.08942 7.32269C3.08942 7.30935 3.82875 7.47402 4.35608 7.58935C4.35608 7.58935 4.62675 7.65202 5.02275 7.72269C4.63822 7.2817 4.42296 6.71839 4.41542 6.13335C4.41542 4.86669 5.38875 3.75469 5.03742 2.85802C5.37942 2.88602 5.74542 3.58002 5.77075 4.66402C6.11742 4.06187 6.29544 3.37744 6.28608 2.68269C6.28608 2.10002 6.67008 1.42335 7.05342 1.40069C6.71142 1.96469 7.14208 2.44735 7.52475 3.64669C7.66875 4.09735 7.65008 4.85535 7.76142 5.33602C7.79808 4.33602 7.96942 2.88069 8.60342 2.37802C8.51415 2.68016 8.49123 2.99803 8.53622 3.30985C8.58121 3.62168 8.69305 3.9201 8.86408 4.18469C9.24857 4.76473 9.44695 5.44826 9.43275 6.14402C9.42974 6.7243 9.22224 7.28493 8.84675 7.72735C9.26475 7.64935 9.55342 7.57869 9.55342 7.57869L10.9121 7.31202C10.7281 7.91444 10.4003 8.46278 9.95608 8.90935Z" fill="black"/>
</svg>
