<svg width="1920" height="606" viewBox="0 0 1920 606" fill="none" xmlns="http://www.w3.org/2000/svg">
<g clip-path="url(#clip0_148_1134)">
<rect width="1920" height="606" fill="#F5F5F5"/>
<g filter="url(#filter0_f_148_1134)">
<circle cx="1514" cy="134" r="231" fill="url(#paint0_radial_148_1134)"/>
</g>
<g opacity="0.82" filter="url(#filter1_f_148_1134)">
<circle cx="1161" cy="-32" r="483" fill="url(#paint1_radial_148_1134)"/>
</g>
<g filter="url(#filter2_f_148_1134)">
<circle cx="1184" cy="238" r="229" fill="url(#paint2_radial_148_1134)"/>
</g>
<g filter="url(#filter3_f_148_1134)">
<circle cx="1199" cy="147" r="178" fill="url(#paint3_radial_148_1134)"/>
</g>
<circle cx="1380" cy="308" r="269" fill="#F5F5F5"/>
<path d="M1200.94 290.187H1203.58L1211.1 282.661L1211.47 279.466C1207.16 275.661 1201.95 273.017 1196.34 271.785C1190.72 270.553 1184.88 270.774 1179.37 272.426C1173.86 274.078 1168.87 277.107 1164.86 281.226C1160.84 285.346 1157.95 290.42 1156.44 295.97C1157.28 295.627 1158.21 295.571 1159.08 295.812L1174.13 293.33C1174.13 293.33 1174.9 292.062 1175.3 292.141C1178.52 288.599 1182.98 286.424 1187.76 286.061C1192.53 285.697 1197.27 287.174 1200.99 290.187H1200.94Z" fill="#EA4335"/>
<path d="M1221.82 295.97C1220.09 289.6 1216.54 283.873 1211.6 279.492L1201.04 290.055C1203.24 291.854 1205.01 294.129 1206.2 296.709C1207.39 299.289 1207.99 302.106 1207.93 304.949V306.823C1209.17 306.823 1210.39 307.067 1211.53 307.539C1212.67 308.011 1213.71 308.704 1214.58 309.577C1215.45 310.45 1216.15 311.486 1216.62 312.627C1217.09 313.767 1217.33 314.99 1217.33 316.224C1217.33 317.459 1217.09 318.681 1216.62 319.822C1216.15 320.962 1215.45 321.999 1214.58 322.872C1213.71 323.745 1212.67 324.437 1211.53 324.91C1210.39 325.382 1209.17 325.625 1207.93 325.625H1189.13L1187.26 327.526V338.802L1189.13 340.677H1207.93C1213.18 340.718 1218.31 339.068 1222.55 335.971C1226.79 332.874 1229.92 328.494 1231.48 323.48C1233.03 318.466 1232.94 313.084 1231.2 308.129C1229.46 303.175 1226.17 298.912 1221.82 295.97Z" fill="#4285F4"/>
<path d="M1170.31 340.572H1189.11V325.52H1170.31C1168.97 325.52 1167.64 325.232 1166.42 324.675L1163.78 325.494L1156.2 333.02L1155.54 335.66C1159.79 338.87 1164.98 340.595 1170.31 340.572Z" fill="#34A853"/>
<path d="M1170.31 291.745C1165.21 291.776 1160.25 293.397 1156.13 296.381C1152 299.366 1148.9 303.566 1147.28 308.394C1145.65 313.222 1145.58 318.437 1147.06 323.311C1148.54 328.185 1151.51 332.475 1155.55 335.581L1166.45 324.675C1165.07 324.049 1163.85 323.096 1162.92 321.897C1161.98 320.699 1161.35 319.292 1161.07 317.796C1160.8 316.299 1160.89 314.759 1161.35 313.308C1161.8 311.856 1162.6 310.536 1163.67 309.46C1164.75 308.385 1166.07 307.586 1167.52 307.134C1168.97 306.681 1170.51 306.587 1172.01 306.86C1173.51 307.133 1174.91 307.765 1176.11 308.701C1177.31 309.638 1178.26 310.851 1178.89 312.237L1189.8 301.331C1187.51 298.339 1184.56 295.916 1181.17 294.253C1177.79 292.59 1174.07 291.732 1170.31 291.745Z" fill="#FBBC05"/>
<path d="M1282.63 330.062C1279.4 330.103 1276.18 329.49 1273.19 328.261C1270.19 327.031 1267.48 325.21 1265.2 322.905C1262.86 320.699 1261 318.029 1259.74 315.065C1258.48 312.101 1257.85 308.908 1257.89 305.688C1257.85 302.468 1258.48 299.275 1259.74 296.312C1261 293.348 1262.86 290.678 1265.2 288.471C1267.47 286.143 1270.18 284.297 1273.17 283.044C1276.17 281.792 1279.39 281.158 1282.63 281.182C1285.73 281.141 1288.8 281.715 1291.67 282.871C1294.54 284.027 1297.15 285.742 1299.35 287.916L1294.65 292.696C1291.43 289.585 1287.11 287.876 1282.63 287.943C1280.31 287.914 1278.01 288.369 1275.87 289.278C1273.73 290.187 1271.81 291.531 1270.22 293.224C1268.57 294.863 1267.27 296.819 1266.39 298.975C1265.51 301.13 1265.08 303.441 1265.12 305.767C1265.11 308.067 1265.55 310.348 1266.42 312.475C1267.3 314.602 1268.59 316.532 1270.22 318.152C1273.49 321.411 1277.9 323.265 1282.52 323.319C1287.14 323.373 1291.59 321.624 1294.94 318.443C1297.01 316.174 1298.28 313.289 1298.56 310.23H1282.71V303.47H1305.13C1305.35 304.831 1305.44 306.211 1305.4 307.589C1305.53 310.442 1305.09 313.294 1304.1 315.972C1303.11 318.65 1301.58 321.098 1299.61 323.169C1297.42 325.447 1294.78 327.237 1291.86 328.425C1288.93 329.612 1285.79 330.17 1282.63 330.062ZM1334.76 325.572C1331.75 328.457 1327.74 330.067 1323.58 330.067C1319.41 330.067 1315.4 328.457 1312.39 325.572C1310.9 324.12 1309.72 322.373 1308.93 320.441C1308.14 318.509 1307.77 316.435 1307.82 314.35C1307.77 312.265 1308.15 310.191 1308.93 308.259C1309.72 306.327 1310.9 304.58 1312.39 303.127C1315.4 300.249 1319.41 298.642 1323.58 298.642C1327.74 298.642 1331.75 300.249 1334.76 303.127C1336.26 304.58 1337.43 306.327 1338.22 308.259C1339.01 310.191 1339.38 312.265 1339.33 314.35C1339.38 316.437 1339 318.512 1338.21 320.444C1337.42 322.376 1336.24 324.123 1334.73 325.572H1334.76ZM1317.33 321.163C1318.13 322.017 1319.1 322.698 1320.17 323.164C1321.25 323.63 1322.41 323.87 1323.58 323.87C1324.75 323.87 1325.91 323.63 1326.98 323.164C1328.05 322.698 1329.02 322.017 1329.82 321.163C1330.69 320.261 1331.38 319.193 1331.83 318.023C1332.28 316.853 1332.5 315.604 1332.46 314.35C1332.5 313.091 1332.29 311.837 1331.83 310.663C1331.38 309.488 1330.7 308.416 1329.82 307.51C1329.01 306.664 1328.04 305.991 1326.96 305.531C1325.88 305.071 1324.72 304.834 1323.55 304.834C1322.38 304.834 1321.22 305.071 1320.14 305.531C1319.06 305.991 1318.09 306.664 1317.28 307.51C1316.4 308.416 1315.72 309.488 1315.27 310.663C1314.81 311.837 1314.6 313.091 1314.64 314.35C1314.6 315.606 1314.82 316.856 1315.28 318.026C1315.74 319.196 1316.43 320.263 1317.3 321.163H1317.33ZM1369.14 325.572C1366.13 328.457 1362.13 330.067 1357.96 330.067C1353.79 330.067 1349.78 328.457 1346.77 325.572C1345.28 324.12 1344.1 322.373 1343.31 320.441C1342.52 318.509 1342.15 316.435 1342.21 314.35C1342.15 312.265 1342.53 310.191 1343.31 308.259C1344.1 306.327 1345.28 304.58 1346.77 303.127C1349.78 300.242 1353.79 298.632 1357.96 298.632C1362.13 298.632 1366.13 300.242 1369.14 303.127C1370.64 304.58 1371.82 306.327 1372.6 308.259C1373.39 310.191 1373.77 312.265 1373.71 314.35C1373.77 316.435 1373.39 318.509 1372.6 320.441C1371.82 322.373 1370.64 324.12 1369.14 325.572ZM1351.71 321.163C1352.51 322.017 1353.48 322.698 1354.55 323.164C1355.63 323.63 1356.79 323.87 1357.96 323.87C1359.13 323.87 1360.29 323.63 1361.36 323.164C1362.44 322.698 1363.4 322.017 1364.2 321.163C1365.08 320.261 1365.76 319.193 1366.21 318.023C1366.67 316.853 1366.88 315.604 1366.84 314.35C1366.88 313.091 1366.67 311.837 1366.22 310.663C1365.76 309.488 1365.08 308.416 1364.2 307.51C1363.39 306.664 1362.42 305.991 1361.34 305.531C1360.26 305.071 1359.1 304.834 1357.93 304.834C1356.76 304.834 1355.6 305.071 1354.52 305.531C1353.44 305.991 1352.47 306.664 1351.66 307.51C1350.79 308.416 1350.1 309.488 1349.65 310.663C1349.19 311.837 1348.98 313.091 1349.02 314.35C1348.99 315.606 1349.2 316.856 1349.66 318.026C1350.12 319.196 1350.81 320.263 1351.69 321.163H1351.71ZM1391.75 344.163C1388.58 344.264 1385.48 343.276 1382.95 341.364C1380.71 339.679 1378.95 337.44 1377.83 334.868L1383.85 332.359C1384.51 333.896 1385.53 335.248 1386.83 336.294C1388.23 337.419 1389.98 338.008 1391.77 337.957C1392.91 338.026 1394.05 337.85 1395.11 337.44C1396.17 337.03 1397.13 336.396 1397.92 335.581C1399.52 333.662 1400.3 331.201 1400.12 328.715V326.444H1399.88C1398.87 327.639 1397.6 328.583 1396.17 329.202C1394.73 329.821 1393.17 330.097 1391.61 330.009C1389.63 330.015 1387.67 329.61 1385.85 328.819C1384.03 328.028 1382.4 326.869 1381.05 325.414C1379.59 323.971 1378.43 322.247 1377.66 320.345C1376.88 318.443 1376.5 316.403 1376.54 314.35C1376.5 312.284 1376.88 310.232 1377.66 308.317C1378.43 306.402 1379.59 304.664 1381.05 303.206C1382.39 301.745 1384.03 300.58 1385.85 299.785C1387.66 298.989 1389.63 298.58 1391.61 298.585C1393.29 298.582 1394.95 298.951 1396.47 299.667C1397.79 300.241 1398.96 301.098 1399.91 302.176H1400.14V299.667H1406.69V327.791C1406.86 330.015 1406.58 332.252 1405.86 334.363C1405.14 336.475 1403.99 338.416 1402.49 340.07C1401.07 341.435 1399.38 342.501 1397.53 343.204C1395.69 343.907 1393.72 344.233 1391.75 344.163ZM1392.22 323.882C1393.35 323.907 1394.47 323.683 1395.5 323.227C1396.53 322.771 1397.45 322.093 1398.19 321.242C1399.82 319.375 1400.68 316.958 1400.59 314.482C1400.69 311.963 1399.83 309.501 1398.19 307.589C1397.45 306.737 1396.53 306.058 1395.5 305.601C1394.47 305.145 1393.35 304.922 1392.22 304.949C1391.06 304.925 1389.91 305.148 1388.85 305.603C1387.78 306.059 1386.83 306.736 1386.04 307.589C1384.29 309.432 1383.35 311.89 1383.4 314.429C1383.37 315.674 1383.59 316.912 1384.05 318.072C1384.5 319.232 1385.18 320.292 1386.04 321.189C1386.82 322.051 1387.78 322.737 1388.84 323.201C1389.91 323.666 1391.06 323.898 1392.22 323.882ZM1418.34 282.952V329.111H1411.45V282.952H1418.34ZM1437.24 330.062C1435.18 330.115 1433.13 329.741 1431.21 328.964C1429.3 328.187 1427.57 327.023 1426.13 325.546C1424.66 324.08 1423.51 322.331 1422.75 320.406C1421.98 318.481 1421.61 316.421 1421.66 314.35C1421.59 312.273 1421.93 310.202 1422.67 308.261C1423.41 306.319 1424.53 304.546 1425.97 303.047C1427.33 301.617 1428.97 300.486 1430.78 299.727C1432.6 298.968 1434.56 298.597 1436.53 298.637C1438.34 298.618 1440.14 298.969 1441.81 299.667C1443.32 300.275 1444.69 301.172 1445.85 302.308C1446.85 303.271 1447.74 304.343 1448.49 305.503C1449.11 306.483 1449.63 307.517 1450.05 308.593L1450.76 310.389L1429.64 319.076C1430.28 320.544 1431.35 321.784 1432.7 322.633C1434.06 323.481 1435.65 323.899 1437.24 323.83C1438.8 323.834 1440.33 323.435 1441.69 322.671C1443.04 321.907 1444.18 320.805 1444.98 319.472L1450.26 323.037C1448.92 324.966 1447.19 326.601 1445.19 327.843C1442.82 329.344 1440.05 330.116 1437.24 330.062ZM1428.42 313.874L1442.47 308.038C1442.04 307.009 1441.27 306.161 1440.28 305.635C1439.18 305.012 1437.93 304.694 1436.66 304.711C1434.51 304.767 1432.47 305.668 1430.99 307.22C1430.1 308.072 1429.4 309.11 1428.96 310.261C1428.52 311.411 1428.34 312.645 1428.42 313.874Z" fill="#5F6368"/>
<path d="M1486.87 330.061C1483.94 330.112 1481.02 329.57 1478.31 328.467C1475.59 327.365 1473.13 325.725 1471.06 323.646C1468.99 321.567 1467.37 319.091 1466.28 316.368C1465.19 313.645 1464.67 310.731 1464.74 307.8C1464.67 304.87 1465.19 301.955 1466.28 299.232C1467.37 296.509 1468.99 294.034 1471.06 291.955C1473.13 289.876 1475.59 288.236 1478.31 287.133C1481.02 286.031 1483.94 285.489 1486.87 285.539C1489.83 285.447 1492.78 286.025 1495.49 287.233C1498.21 288.44 1500.61 290.244 1502.53 292.511L1498.72 296.208C1497.32 294.438 1495.51 293.026 1493.46 292.085C1491.4 291.144 1489.15 290.702 1486.89 290.794C1484.72 290.745 1482.56 291.136 1480.54 291.944C1478.52 292.752 1476.68 293.96 1475.14 295.495C1473.54 297.106 1472.29 299.03 1471.47 301.148C1470.64 303.266 1470.27 305.531 1470.36 307.8C1470.27 310.07 1470.64 312.335 1471.47 314.453C1472.29 316.57 1473.54 318.495 1475.14 320.106C1476.68 321.641 1478.52 322.849 1480.54 323.657C1482.56 324.464 1484.72 324.855 1486.89 324.806C1489.42 324.835 1491.91 324.294 1494.2 323.224C1496.49 322.154 1498.5 320.583 1500.1 318.627L1503.9 322.43C1501.91 324.811 1499.41 326.715 1496.58 328.002C1493.54 329.407 1490.22 330.111 1486.87 330.061Z" fill="#5F6368"/>
<path d="M1514.11 329.111H1508.65V286.464H1514.11V329.111Z" fill="#5F6368"/>
<path d="M1523.04 303.443C1525.91 300.599 1529.78 299.003 1533.82 299.003C1537.85 299.003 1541.73 300.599 1544.59 303.443C1545.99 304.922 1547.08 306.664 1547.81 308.567C1548.54 310.47 1548.88 312.498 1548.81 314.534C1548.88 316.57 1548.54 318.598 1547.81 320.502C1547.08 322.405 1545.99 324.146 1544.59 325.625C1541.73 328.47 1537.85 330.066 1533.82 330.066C1529.78 330.066 1525.91 328.47 1523.04 325.625C1521.64 324.146 1520.55 322.405 1519.82 320.502C1519.1 318.598 1518.75 316.57 1518.82 314.534C1518.75 312.498 1519.1 310.47 1519.82 308.567C1520.55 306.664 1521.64 304.922 1523.04 303.443ZM1527.11 322.192C1527.97 323.103 1529.01 323.828 1530.16 324.323C1531.31 324.819 1532.55 325.074 1533.8 325.074C1535.06 325.074 1536.3 324.819 1537.45 324.323C1538.6 323.828 1539.64 323.103 1540.5 322.192C1541.45 321.167 1542.19 319.962 1542.68 318.647C1543.16 317.333 1543.38 315.934 1543.32 314.534C1543.38 313.134 1543.16 311.736 1542.68 310.421C1542.19 309.107 1541.45 307.902 1540.5 306.876C1539.64 305.966 1538.6 305.241 1537.45 304.746C1536.3 304.25 1535.06 303.995 1533.8 303.995C1532.55 303.995 1531.31 304.25 1530.16 304.746C1529.01 305.241 1527.97 305.966 1527.11 306.876C1526.15 307.902 1525.41 309.107 1524.93 310.421C1524.44 311.736 1524.22 313.134 1524.28 314.534C1524.23 315.932 1524.45 317.326 1524.94 318.636C1525.43 319.946 1526.18 321.146 1527.13 322.166L1527.11 322.192Z" fill="#5F6368"/>
<path d="M1579.11 329.111H1573.83V325.071H1573.67C1572.73 326.605 1571.4 327.863 1569.82 328.715C1568.17 329.668 1566.3 330.169 1564.4 330.167C1562.86 330.273 1561.31 330.029 1559.88 329.453C1558.44 328.876 1557.15 327.983 1556.11 326.84C1554.11 324.31 1553.11 321.135 1553.29 317.915V299.958H1558.75V316.911C1558.75 322.351 1561.15 325.071 1565.96 325.071C1567.03 325.104 1568.09 324.882 1569.05 324.423C1570.02 323.963 1570.86 323.28 1571.51 322.43C1572.92 320.635 1573.68 318.406 1573.64 316.119V299.958H1579.11V329.111Z" fill="#5F6368"/>
<path d="M1597.67 330.062C1595.81 330.068 1593.98 329.672 1592.29 328.902C1590.61 328.131 1589.11 327.004 1587.9 325.599C1585.16 322.575 1583.69 318.612 1583.81 314.534C1583.69 310.457 1585.16 306.494 1587.9 303.47C1589.11 302.064 1590.61 300.938 1592.29 300.167C1593.98 299.397 1595.81 299.001 1597.67 299.007C1599.75 298.974 1601.8 299.465 1603.64 300.433C1605.25 301.246 1606.62 302.477 1607.6 303.998H1607.84L1607.6 299.958V286.464H1613.06V329.111H1607.78V325.071H1607.55C1606.57 326.592 1605.2 327.823 1603.58 328.636C1601.76 329.595 1599.73 330.086 1597.67 330.062ZM1598.57 325.071C1599.8 325.089 1601.03 324.844 1602.16 324.352C1603.3 323.86 1604.31 323.133 1605.14 322.219C1607 320.104 1607.95 317.344 1607.78 314.534C1607.95 311.725 1607 308.964 1605.14 306.85C1604.31 305.931 1603.29 305.196 1602.15 304.694C1601.01 304.191 1599.78 303.931 1598.54 303.931C1597.3 303.931 1596.07 304.191 1594.93 304.694C1593.79 305.196 1592.78 305.931 1591.94 306.85C1591.02 307.89 1590.31 309.102 1589.86 310.416C1589.4 311.73 1589.21 313.121 1589.3 314.508C1589.21 315.895 1589.4 317.286 1589.86 318.6C1590.31 319.914 1591.02 321.126 1591.94 322.166C1592.77 323.097 1593.79 323.838 1594.94 324.339C1596.08 324.84 1597.32 325.09 1598.57 325.071Z" fill="#5F6368"/>
<g filter="url(#filter4_f_148_1134)">
<circle cx="1380" cy="308" r="286.75" stroke="url(#paint4_linear_148_1134)" stroke-width="0.5"/>
</g>
<g filter="url(#filter5_f_148_1134)">
<circle cx="1380" cy="308" r="354.75" stroke="url(#paint5_linear_148_1134)" stroke-width="0.5"/>
</g>
<g filter="url(#filter6_f_148_1134)">
<circle cx="1380" cy="308" r="424.75" stroke="url(#paint6_linear_148_1134)" stroke-width="0.5"/>
</g>
<g filter="url(#filter7_f_148_1134)">
<circle cx="1380" cy="308" r="501.75" stroke="url(#paint7_linear_148_1134)" stroke-width="0.5"/>
</g>
<g filter="url(#filter8_f_148_1134)">
<circle cx="1687" cy="126" r="10" fill="#F7F7F7"/>
</g>
<g filter="url(#filter9_f_148_1134)">
<circle cx="1788" cy="43" r="10" fill="#F7F7F7"/>
</g>
<g opacity="0.62" filter="url(#filter10_f_148_1134)">
<circle cx="1043" cy="50" r="22" fill="#F7F7F7"/>
</g>
<g opacity="0.35" filter="url(#filter11_f_148_1134)">
<circle cx="110" cy="-58" r="525" fill="url(#paint8_radial_148_1134)"/>
</g>
<g filter="url(#filter12_f_148_1134)">
<circle cx="1813" cy="119" r="5" fill="#F7F7F7"/>
</g>
</g>
<defs>
<filter id="filter0_f_148_1134" x="1183" y="-197" width="662" height="662" filterUnits="userSpaceOnUse" color-interpolation-filters="sRGB">
<feFlood flood-opacity="0" result="BackgroundImageFix"/>
<feBlend mode="normal" in="SourceGraphic" in2="BackgroundImageFix" result="shape"/>
<feGaussianBlur stdDeviation="50" result="effect1_foregroundBlur_148_1134"/>
</filter>
<filter id="filter1_f_148_1134" x="578" y="-615" width="1166" height="1166" filterUnits="userSpaceOnUse" color-interpolation-filters="sRGB">
<feFlood flood-opacity="0" result="BackgroundImageFix"/>
<feBlend mode="normal" in="SourceGraphic" in2="BackgroundImageFix" result="shape"/>
<feGaussianBlur stdDeviation="50" result="effect1_foregroundBlur_148_1134"/>
</filter>
<filter id="filter2_f_148_1134" x="855" y="-91" width="658" height="658" filterUnits="userSpaceOnUse" color-interpolation-filters="sRGB">
<feFlood flood-opacity="0" result="BackgroundImageFix"/>
<feBlend mode="normal" in="SourceGraphic" in2="BackgroundImageFix" result="shape"/>
<feGaussianBlur stdDeviation="50" result="effect1_foregroundBlur_148_1134"/>
</filter>
<filter id="filter3_f_148_1134" x="921" y="-131" width="556" height="556" filterUnits="userSpaceOnUse" color-interpolation-filters="sRGB">
<feFlood flood-opacity="0" result="BackgroundImageFix"/>
<feBlend mode="normal" in="SourceGraphic" in2="BackgroundImageFix" result="shape"/>
<feGaussianBlur stdDeviation="50" result="effect1_foregroundBlur_148_1134"/>
</filter>
<filter id="filter4_f_148_1134" x="1092" y="20" width="576" height="576" filterUnits="userSpaceOnUse" color-interpolation-filters="sRGB">
<feFlood flood-opacity="0" result="BackgroundImageFix"/>
<feBlend mode="normal" in="SourceGraphic" in2="BackgroundImageFix" result="shape"/>
<feGaussianBlur stdDeviation="0.5" result="effect1_foregroundBlur_148_1134"/>
</filter>
<filter id="filter5_f_148_1134" x="1021" y="-51" width="718" height="718" filterUnits="userSpaceOnUse" color-interpolation-filters="sRGB">
<feFlood flood-opacity="0" result="BackgroundImageFix"/>
<feBlend mode="normal" in="SourceGraphic" in2="BackgroundImageFix" result="shape"/>
<feGaussianBlur stdDeviation="2" result="effect1_foregroundBlur_148_1134"/>
</filter>
<filter id="filter6_f_148_1134" x="946" y="-126" width="868" height="868" filterUnits="userSpaceOnUse" color-interpolation-filters="sRGB">
<feFlood flood-opacity="0" result="BackgroundImageFix"/>
<feBlend mode="normal" in="SourceGraphic" in2="BackgroundImageFix" result="shape"/>
<feGaussianBlur stdDeviation="4.5" result="effect1_foregroundBlur_148_1134"/>
</filter>
<filter id="filter7_f_148_1134" x="867" y="-205" width="1026" height="1026" filterUnits="userSpaceOnUse" color-interpolation-filters="sRGB">
<feFlood flood-opacity="0" result="BackgroundImageFix"/>
<feBlend mode="normal" in="SourceGraphic" in2="BackgroundImageFix" result="shape"/>
<feGaussianBlur stdDeviation="5.5" result="effect1_foregroundBlur_148_1134"/>
</filter>
<filter id="filter8_f_148_1134" x="1663" y="102" width="48" height="48" filterUnits="userSpaceOnUse" color-interpolation-filters="sRGB">
<feFlood flood-opacity="0" result="BackgroundImageFix"/>
<feBlend mode="normal" in="SourceGraphic" in2="BackgroundImageFix" result="shape"/>
<feGaussianBlur stdDeviation="7" result="effect1_foregroundBlur_148_1134"/>
</filter>
<filter id="filter9_f_148_1134" x="1760" y="15" width="56" height="56" filterUnits="userSpaceOnUse" color-interpolation-filters="sRGB">
<feFlood flood-opacity="0" result="BackgroundImageFix"/>
<feBlend mode="normal" in="SourceGraphic" in2="BackgroundImageFix" result="shape"/>
<feGaussianBlur stdDeviation="9" result="effect1_foregroundBlur_148_1134"/>
</filter>
<filter id="filter10_f_148_1134" x="995" y="2" width="96" height="96" filterUnits="userSpaceOnUse" color-interpolation-filters="sRGB">
<feFlood flood-opacity="0" result="BackgroundImageFix"/>
<feBlend mode="normal" in="SourceGraphic" in2="BackgroundImageFix" result="shape"/>
<feGaussianBlur stdDeviation="13" result="effect1_foregroundBlur_148_1134"/>
</filter>
<filter id="filter11_f_148_1134" x="-515" y="-683" width="1250" height="1250" filterUnits="userSpaceOnUse" color-interpolation-filters="sRGB">
<feFlood flood-opacity="0" result="BackgroundImageFix"/>
<feBlend mode="normal" in="SourceGraphic" in2="BackgroundImageFix" result="shape"/>
<feGaussianBlur stdDeviation="50" result="effect1_foregroundBlur_148_1134"/>
</filter>
<filter id="filter12_f_148_1134" x="1806" y="112" width="14" height="14" filterUnits="userSpaceOnUse" color-interpolation-filters="sRGB">
<feFlood flood-opacity="0" result="BackgroundImageFix"/>
<feBlend mode="normal" in="SourceGraphic" in2="BackgroundImageFix" result="shape"/>
<feGaussianBlur stdDeviation="1" result="effect1_foregroundBlur_148_1134"/>
</filter>
<radialGradient id="paint0_radial_148_1134" cx="0" cy="0" r="1" gradientUnits="userSpaceOnUse" gradientTransform="translate(1514 166.523) rotate(-90) scale(225.162)">
<stop offset="0.331731" stop-color="#4755C6"/>
<stop offset="1" stop-color="#45A4F3" stop-opacity="0"/>
</radialGradient>
<radialGradient id="paint1_radial_148_1134" cx="0" cy="0" r="1" gradientUnits="userSpaceOnUse" gradientTransform="translate(1161 36.0036) rotate(-90) scale(470.794)">
<stop offset="0.331731" stop-color="#2C9AF6"/>
<stop offset="1" stop-color="#8BC4F8" stop-opacity="0"/>
</radialGradient>
<radialGradient id="paint2_radial_148_1134" cx="0" cy="0" r="1" gradientUnits="userSpaceOnUse" gradientTransform="translate(1184 270.242) rotate(-90) scale(223.213)">
<stop offset="0.331731" stop-color="#5ACA7A"/>
<stop offset="0.966346" stop-color="#919CDC" stop-opacity="0"/>
</radialGradient>
<radialGradient id="paint3_radial_148_1134" cx="0" cy="0" r="1" gradientUnits="userSpaceOnUse" gradientTransform="translate(1199 172.061) rotate(-90) scale(173.502)">
<stop offset="0.331731" stop-color="#FBBC05"/>
<stop offset="0.865385" stop-color="#F5F5F5" stop-opacity="0"/>
</radialGradient>
<linearGradient id="paint4_linear_148_1134" x1="1380" y1="21" x2="1159.74" y2="510.735" gradientUnits="userSpaceOnUse">
<stop stop-color="#F5F5F5"/>
<stop offset="1" stop-color="#F5F5F5"/>
</linearGradient>
<linearGradient id="paint5_linear_148_1134" x1="1380" y1="-47" x2="1107.56" y2="558.77" gradientUnits="userSpaceOnUse">
<stop stop-color="#F5F5F5"/>
<stop offset="1" stop-color="#2C9AF6" stop-opacity="0"/>
</linearGradient>
<linearGradient id="paint6_linear_148_1134" x1="1380" y1="-117" x2="1053.84" y2="608.218" gradientUnits="userSpaceOnUse">
<stop stop-color="#F5F5F5"/>
<stop offset="1" stop-color="#2C9AF6"/>
</linearGradient>
<linearGradient id="paint7_linear_148_1134" x1="1380" y1="-194" x2="994.744" y2="662.61" gradientUnits="userSpaceOnUse">
<stop stop-color="#F5F5F5"/>
<stop offset="1" stop-color="#2C9AF6"/>
</linearGradient>
<radialGradient id="paint8_radial_148_1134" cx="0" cy="0" r="1" gradientUnits="userSpaceOnUse" gradientTransform="translate(110 15.917) rotate(-90) scale(511.733)">
<stop offset="0.0336538" stop-color="#26B34E"/>
<stop offset="0.331731" stop-color="#5ACA7A"/>
<stop offset="0.966346" stop-color="#919CDC" stop-opacity="0"/>
</radialGradient>
<clipPath id="clip0_148_1134">
<rect width="1920" height="606" fill="white"/>
</clipPath>
</defs>
</svg>
