<svg width="360" height="377" viewBox="0 0 360 377" fill="none" xmlns="http://www.w3.org/2000/svg">
<g filter="url(#filter0_f_167_3)">
<circle cx="180.101" cy="229.069" r="127.894" stroke="url(#paint0_linear_167_3)" stroke-width="0.223007"/>
</g>
<g filter="url(#filter1_f_167_3)">
<circle cx="180.101" cy="229.069" r="158.223" stroke="url(#paint1_linear_167_3)" stroke-width="0.223007"/>
</g>
<g filter="url(#filter2_f_167_3)">
<circle cx="180.101" cy="229.069" r="189.444" stroke="url(#paint2_linear_167_3)" stroke-width="0.223007"/>
</g>
<g filter="url(#filter3_f_167_3)">
<circle cx="180.101" cy="229.069" r="223.787" stroke="url(#paint3_linear_167_3)" stroke-width="0.223007"/>
</g>
<g filter="url(#filter4_f_167_3)">
<circle cx="317.028" cy="147.894" r="4.46013" fill="#F7F7F7"/>
</g>
<g filter="url(#filter5_f_167_3)">
<circle cx="362.074" cy="110.875" r="4.46013" fill="#F7F7F7"/>
</g>
<g opacity="0.62" filter="url(#filter6_f_167_3)">
<circle cx="29.7952" cy="113.997" r="9.81229" fill="#F7F7F7"/>
</g>
<circle cx="180.102" cy="229.069" r="119.978" fill="#F5F5F5"/>
<path d="M100.237 221.124H101.415L104.772 217.767L104.937 216.342C103.014 214.645 100.69 213.466 98.1845 212.917C95.6793 212.367 93.0753 212.466 90.6186 213.202C88.1619 213.939 85.9336 215.29 84.1441 217.127C82.3547 218.965 81.0632 221.228 80.3916 223.703C80.7656 223.55 81.1798 223.525 81.5694 223.633L88.2827 222.526C88.2827 222.526 88.6243 221.96 88.801 221.996C90.2394 220.416 92.2273 219.446 94.3578 219.284C96.4882 219.122 98.6 219.78 100.261 221.124H100.237Z" fill="#EA4335"/>
<path d="M109.552 223.703C108.781 220.862 107.197 218.308 104.994 216.354L100.283 221.065C101.265 221.867 102.052 222.882 102.584 224.033C103.117 225.184 103.381 226.44 103.357 227.708V228.544C103.908 228.544 104.453 228.653 104.962 228.863C105.471 229.074 105.933 229.383 106.322 229.772C106.711 230.161 107.02 230.624 107.231 231.132C107.442 231.641 107.55 232.186 107.55 232.737C107.55 233.288 107.442 233.833 107.231 234.342C107.02 234.85 106.711 235.312 106.322 235.702C105.933 236.091 105.471 236.4 104.962 236.611C104.453 236.821 103.908 236.93 103.357 236.93H94.9715L94.1353 237.778V242.807L94.9715 243.643H103.357C105.699 243.661 107.984 242.925 109.875 241.544C111.766 240.163 113.163 238.21 113.857 235.973C114.552 233.737 114.509 231.336 113.733 229.127C112.958 226.917 111.492 225.015 109.552 223.703Z" fill="#4285F4"/>
<path d="M86.575 243.596H94.9608V236.883H86.575C85.9776 236.883 85.3871 236.754 84.8437 236.506L83.6659 236.871L80.2857 240.228L79.9912 241.406C81.8868 242.837 84.1998 243.607 86.575 243.596Z" fill="#34A853"/>
<path d="M86.575 221.819C84.3029 221.833 82.0917 222.556 80.2503 223.887C78.4089 225.218 77.0293 227.091 76.3042 229.245C75.5791 231.398 75.5446 233.724 76.2056 235.898C76.8666 238.072 78.1901 239.985 79.9912 241.37L84.8554 236.506C84.2373 236.227 83.6961 235.802 83.2784 235.267C82.8606 234.733 82.5788 234.105 82.457 233.438C82.3352 232.771 82.3771 232.084 82.5792 231.436C82.7812 230.789 83.1373 230.2 83.6169 229.72C84.0966 229.24 84.6854 228.884 85.3329 228.682C85.9804 228.48 86.6673 228.438 87.3346 228.56C88.0019 228.682 88.6296 228.964 89.164 229.382C89.6984 229.799 90.1235 230.34 90.4028 230.959L95.267 226.094C94.2461 224.76 92.9302 223.679 91.4223 222.938C89.9144 222.196 88.2554 221.813 86.575 221.819Z" fill="#FBBC05"/>
<path d="M136.674 238.909C135.23 238.927 133.797 238.654 132.462 238.105C131.126 237.557 129.915 236.745 128.9 235.717C127.854 234.733 127.024 233.542 126.462 232.22C125.901 230.898 125.62 229.474 125.638 228.038C125.621 226.602 125.902 225.178 126.463 223.856C127.025 222.534 127.855 221.343 128.9 220.359C129.91 219.32 131.119 218.497 132.455 217.938C133.791 217.38 135.226 217.097 136.674 217.108C138.054 217.089 139.423 217.346 140.703 217.861C141.983 218.377 143.148 219.142 144.129 220.111L142.033 222.243C140.597 220.856 138.67 220.093 136.674 220.123C135.638 220.11 134.611 220.313 133.658 220.719C132.705 221.124 131.847 221.723 131.138 222.479C130.402 223.209 129.82 224.082 129.43 225.043C129.039 226.005 128.847 227.035 128.865 228.073C128.856 229.099 129.053 230.116 129.444 231.065C129.834 232.013 130.41 232.874 131.138 233.597C132.597 235.05 134.565 235.877 136.624 235.901C138.683 235.926 140.67 235.145 142.162 233.726C143.086 232.715 143.653 231.428 143.776 230.063H136.709V227.048H146.709C146.807 227.656 146.846 228.271 146.826 228.886C146.889 230.158 146.692 231.43 146.249 232.624C145.805 233.819 145.124 234.911 144.247 235.835C143.271 236.85 142.093 237.649 140.788 238.179C139.483 238.708 138.081 238.957 136.674 238.909ZM159.923 236.906C158.581 238.193 156.794 238.911 154.935 238.911C153.076 238.911 151.289 238.193 149.947 236.906C149.28 236.259 148.753 235.479 148.403 234.618C148.052 233.756 147.884 232.831 147.91 231.901C147.885 230.971 148.053 230.046 148.404 229.184C148.754 228.323 149.28 227.543 149.947 226.895C151.291 225.612 153.077 224.895 154.935 224.895C156.793 224.895 158.58 225.612 159.923 226.895C160.591 227.543 161.116 228.323 161.467 229.184C161.818 230.046 161.986 230.971 161.961 231.901C161.985 232.832 161.815 233.757 161.463 234.619C161.11 235.481 160.582 236.26 159.911 236.906H159.923ZM152.15 234.939C152.507 235.321 152.938 235.625 153.417 235.832C153.896 236.04 154.413 236.147 154.935 236.147C155.458 236.147 155.974 236.04 156.453 235.832C156.932 235.625 157.364 235.321 157.721 234.939C158.11 234.537 158.415 234.061 158.617 233.539C158.819 233.017 158.915 232.46 158.899 231.901C158.916 231.339 158.821 230.78 158.618 230.256C158.416 229.732 158.111 229.254 157.721 228.85C157.359 228.473 156.925 228.173 156.444 227.968C155.963 227.763 155.446 227.657 154.924 227.657C154.401 227.657 153.884 227.763 153.403 227.968C152.922 228.173 152.488 228.473 152.126 228.85C151.736 229.254 151.431 229.732 151.229 230.256C151.026 230.78 150.931 231.339 150.949 231.901C150.934 232.461 151.031 233.019 151.236 233.541C151.44 234.063 151.747 234.538 152.138 234.939H152.15ZM175.258 236.906C173.916 238.193 172.129 238.911 170.27 238.911C168.411 238.911 166.624 238.193 165.282 236.906C164.614 236.259 164.088 235.479 163.737 234.618C163.387 233.756 163.219 232.831 163.245 231.901C163.22 230.971 163.388 230.046 163.738 229.184C164.089 228.323 164.615 227.543 165.282 226.895C166.624 225.609 168.411 224.891 170.27 224.891C172.129 224.891 173.916 225.609 175.258 226.895C175.925 227.543 176.451 228.323 176.802 229.184C177.152 230.046 177.321 230.971 177.296 231.901C177.321 232.831 177.153 233.756 176.803 234.618C176.452 235.479 175.926 236.259 175.258 236.906ZM167.485 234.939C167.842 235.321 168.273 235.625 168.752 235.832C169.231 236.04 169.748 236.147 170.27 236.147C170.792 236.147 171.309 236.04 171.788 235.832C172.267 235.625 172.699 235.321 173.056 234.939C173.445 234.537 173.749 234.061 173.952 233.539C174.154 233.017 174.25 232.46 174.233 231.901C174.251 231.339 174.155 230.78 173.953 230.256C173.751 229.732 173.446 229.254 173.056 228.85C172.694 228.473 172.26 228.173 171.779 227.968C171.298 227.763 170.781 227.657 170.258 227.657C169.736 227.657 169.218 227.763 168.738 227.968C168.257 228.173 167.823 228.473 167.461 228.85C167.071 229.254 166.766 229.732 166.563 230.256C166.361 230.78 166.266 231.339 166.283 231.901C166.268 232.461 166.366 233.019 166.57 233.541C166.775 234.063 167.082 234.538 167.473 234.939H167.485ZM185.34 245.198C183.928 245.243 182.544 244.802 181.418 243.95C180.418 243.198 179.631 242.2 179.133 241.052L181.818 239.933C182.11 240.619 182.568 241.222 183.149 241.688C183.771 242.19 184.552 242.453 185.352 242.43C185.858 242.461 186.366 242.382 186.839 242.199C187.313 242.016 187.741 241.734 188.096 241.37C188.805 240.514 189.156 239.417 189.073 238.308V237.295H188.967C188.519 237.828 187.952 238.249 187.312 238.525C186.672 238.801 185.977 238.924 185.281 238.885C184.397 238.888 183.521 238.707 182.711 238.354C181.9 238.002 181.171 237.484 180.57 236.836C179.918 236.192 179.403 235.423 179.057 234.575C178.711 233.726 178.54 232.817 178.556 231.901C178.54 230.979 178.71 230.064 179.056 229.21C179.402 228.356 179.917 227.581 180.57 226.931C181.169 226.279 181.898 225.759 182.709 225.405C183.52 225.05 184.396 224.868 185.281 224.869C186.03 224.868 186.77 225.033 187.448 225.352C188.034 225.608 188.557 225.99 188.979 226.471H189.085V225.352H192.006V237.896C192.083 238.888 191.957 239.885 191.635 240.827C191.313 241.769 190.802 242.635 190.133 243.372C189.497 243.981 188.745 244.457 187.921 244.77C187.098 245.084 186.22 245.229 185.34 245.198ZM185.552 236.153C186.055 236.164 186.554 236.064 187.014 235.86C187.474 235.657 187.884 235.354 188.214 234.975C188.94 234.142 189.323 233.064 189.285 231.96C189.329 230.836 188.946 229.738 188.214 228.886C187.884 228.505 187.475 228.203 187.014 227.999C186.554 227.795 186.055 227.696 185.552 227.708C185.035 227.697 184.522 227.797 184.047 228C183.572 228.203 183.145 228.505 182.796 228.886C182.017 229.708 181.593 230.804 181.618 231.936C181.606 232.492 181.704 233.044 181.906 233.561C182.108 234.079 182.411 234.551 182.796 234.951C183.144 235.336 183.569 235.642 184.044 235.849C184.52 236.056 185.033 236.159 185.552 236.153ZM197.2 217.897V238.485H194.126V217.897H197.2ZM205.633 238.909C204.712 238.932 203.797 238.766 202.944 238.419C202.09 238.073 201.318 237.554 200.675 236.895C200.022 236.241 199.509 235.461 199.166 234.602C198.824 233.744 198.66 232.825 198.684 231.901C198.649 230.975 198.801 230.051 199.131 229.185C199.461 228.319 199.962 227.528 200.604 226.86C201.209 226.222 201.94 225.718 202.752 225.379C203.563 225.04 204.436 224.875 205.315 224.893C206.123 224.884 206.925 225.041 207.671 225.352C208.342 225.623 208.955 226.024 209.473 226.53C209.917 226.959 210.312 227.438 210.65 227.955C210.924 228.392 211.156 228.854 211.345 229.333L211.663 230.134L202.241 234.009C202.526 234.664 203.003 235.217 203.608 235.595C204.214 235.974 204.92 236.16 205.633 236.129C206.327 236.131 207.01 235.953 207.615 235.612C208.219 235.272 208.726 234.78 209.084 234.186L211.439 235.776C210.838 236.636 210.069 237.365 209.178 237.919C208.119 238.589 206.886 238.933 205.633 238.909ZM201.699 231.689L207.965 229.086C207.772 228.627 207.427 228.248 206.987 228.014C206.496 227.736 205.939 227.594 205.374 227.602C204.415 227.627 203.505 228.029 202.842 228.721C202.444 229.101 202.136 229.564 201.939 230.077C201.741 230.59 201.659 231.14 201.699 231.689Z" fill="#5F6368"/>
<path d="M227.765 238.909C226.458 238.931 225.159 238.689 223.948 238.198C222.736 237.706 221.637 236.974 220.715 236.047C219.793 235.12 219.068 234.016 218.583 232.801C218.099 231.587 217.865 230.287 217.895 228.98C217.865 227.673 218.099 226.373 218.583 225.158C219.068 223.944 219.793 222.84 220.715 221.913C221.637 220.985 222.736 220.254 223.948 219.762C225.159 219.27 226.458 219.029 227.765 219.051C229.088 219.01 230.404 219.268 231.613 219.806C232.822 220.345 233.895 221.15 234.749 222.161L233.053 223.809C232.426 223.02 231.621 222.39 230.704 221.971C229.787 221.551 228.784 221.354 227.777 221.395C226.807 221.373 225.843 221.548 224.942 221.908C224.041 222.268 223.223 222.807 222.536 223.491C221.821 224.21 221.263 225.068 220.896 226.013C220.529 226.957 220.362 227.967 220.404 228.98C220.362 229.992 220.529 231.002 220.896 231.947C221.263 232.891 221.821 233.75 222.536 234.468C223.223 235.153 224.041 235.692 224.942 236.052C225.843 236.412 226.807 236.587 227.777 236.565C228.902 236.577 230.016 236.336 231.036 235.859C232.055 235.382 232.954 234.681 233.666 233.809L235.362 235.505C234.474 236.567 233.359 237.416 232.099 237.99C230.741 238.617 229.26 238.931 227.765 238.909Z" fill="#5F6368"/>
<path d="M239.917 238.485H237.479V219.464H239.917V238.485Z" fill="#5F6368"/>
<path d="M243.9 227.036C245.177 225.768 246.905 225.056 248.705 225.056C250.506 225.056 252.233 225.768 253.511 227.036C254.135 227.696 254.623 228.473 254.947 229.322C255.27 230.171 255.422 231.075 255.395 231.983C255.422 232.891 255.27 233.796 254.947 234.645C254.623 235.494 254.135 236.27 253.511 236.93C252.233 238.198 250.506 238.911 248.705 238.911C246.905 238.911 245.177 238.198 243.9 236.93C243.275 236.27 242.787 235.494 242.464 234.645C242.14 233.796 241.988 232.891 242.015 231.983C241.988 231.075 242.14 230.171 242.464 229.322C242.787 228.473 243.275 227.696 243.9 227.036ZM245.714 235.399C246.098 235.805 246.561 236.128 247.074 236.349C247.587 236.57 248.14 236.684 248.699 236.684C249.258 236.684 249.811 236.57 250.325 236.349C250.838 236.128 251.301 235.805 251.685 235.399C252.111 234.941 252.442 234.404 252.658 233.818C252.875 233.231 252.972 232.608 252.945 231.983C252.972 231.359 252.875 230.735 252.658 230.149C252.442 229.562 252.111 229.025 251.685 228.568C251.301 228.162 250.838 227.838 250.325 227.617C249.811 227.396 249.258 227.282 248.699 227.282C248.14 227.282 247.587 227.396 247.074 227.617C246.561 227.838 246.098 228.162 245.714 228.568C245.287 229.025 244.957 229.562 244.74 230.149C244.524 230.735 244.426 231.359 244.453 231.983C244.43 232.606 244.53 233.228 244.748 233.813C244.966 234.397 245.299 234.932 245.725 235.387L245.714 235.399Z" fill="#5F6368"/>
<path d="M268.907 238.485H266.552V236.683H266.481C266.062 237.367 265.468 237.928 264.761 238.308C264.028 238.733 263.195 238.957 262.347 238.956C261.659 239.003 260.968 238.894 260.328 238.637C259.688 238.38 259.114 237.982 258.649 237.472C257.757 236.343 257.308 234.927 257.389 233.491V225.482H259.827V233.043C259.827 235.47 260.898 236.683 263.042 236.683C263.518 236.697 263.991 236.598 264.421 236.393C264.852 236.189 265.227 235.884 265.515 235.505C266.147 234.704 266.484 233.71 266.469 232.69V225.482H268.907V238.485Z" fill="#5F6368"/>
<path d="M277.185 238.909C276.357 238.911 275.54 238.735 274.787 238.391C274.035 238.048 273.366 237.545 272.827 236.918C271.606 235.57 270.952 233.802 271.001 231.983C270.952 230.165 271.606 228.397 272.827 227.048C273.366 226.422 274.035 225.919 274.787 225.575C275.54 225.232 276.357 225.055 277.185 225.058C278.111 225.043 279.026 225.262 279.846 225.694C280.567 226.057 281.177 226.606 281.613 227.284H281.719L281.613 225.482V219.464H284.051V238.485H281.695V236.683H281.589C281.153 237.361 280.543 237.91 279.823 238.273C279.01 238.701 278.103 238.919 277.185 238.909ZM277.585 236.683C278.136 236.691 278.682 236.581 279.188 236.362C279.694 236.143 280.147 235.819 280.518 235.411C281.346 234.468 281.769 233.236 281.695 231.983C281.769 230.73 281.346 229.499 280.518 228.556C280.145 228.146 279.69 227.818 279.183 227.594C278.676 227.37 278.128 227.254 277.573 227.254C277.019 227.254 276.471 227.37 275.963 227.594C275.456 227.818 275.002 228.146 274.629 228.556C274.217 229.02 273.901 229.56 273.699 230.146C273.497 230.732 273.413 231.353 273.451 231.972C273.413 232.59 273.497 233.211 273.699 233.797C273.901 234.383 274.217 234.923 274.629 235.387C275 235.802 275.456 236.133 275.966 236.356C276.476 236.58 277.028 236.691 277.585 236.683Z" fill="#5F6368"/>
<defs>
<filter id="filter0_f_167_3" x="51.6497" y="100.617" width="256.904" height="256.904" filterUnits="userSpaceOnUse" color-interpolation-filters="sRGB">
<feFlood flood-opacity="0" result="BackgroundImageFix"/>
<feBlend mode="normal" in="SourceGraphic" in2="BackgroundImageFix" result="shape"/>
<feGaussianBlur stdDeviation="0.223007" result="effect1_foregroundBlur_167_3"/>
</filter>
<filter id="filter1_f_167_3" x="19.9825" y="68.9501" width="320.238" height="320.237" filterUnits="userSpaceOnUse" color-interpolation-filters="sRGB">
<feFlood flood-opacity="0" result="BackgroundImageFix"/>
<feBlend mode="normal" in="SourceGraphic" in2="BackgroundImageFix" result="shape"/>
<feGaussianBlur stdDeviation="0.892026" result="effect1_foregroundBlur_167_3"/>
</filter>
<filter id="filter2_f_167_3" x="-13.4687" y="35.4991" width="387.14" height="387.139" filterUnits="userSpaceOnUse" color-interpolation-filters="sRGB">
<feFlood flood-opacity="0" result="BackgroundImageFix"/>
<feBlend mode="normal" in="SourceGraphic" in2="BackgroundImageFix" result="shape"/>
<feGaussianBlur stdDeviation="2.00706" result="effect1_foregroundBlur_167_3"/>
</filter>
<filter id="filter3_f_167_3" x="-48.7035" y="0.264022" width="457.61" height="457.61" filterUnits="userSpaceOnUse" color-interpolation-filters="sRGB">
<feFlood flood-opacity="0" result="BackgroundImageFix"/>
<feBlend mode="normal" in="SourceGraphic" in2="BackgroundImageFix" result="shape"/>
<feGaussianBlur stdDeviation="2.45307" result="effect1_foregroundBlur_167_3"/>
</filter>
<filter id="filter4_f_167_3" x="306.323" y="137.19" width="21.4088" height="21.4087" filterUnits="userSpaceOnUse" color-interpolation-filters="sRGB">
<feFlood flood-opacity="0" result="BackgroundImageFix"/>
<feBlend mode="normal" in="SourceGraphic" in2="BackgroundImageFix" result="shape"/>
<feGaussianBlur stdDeviation="3.12209" result="effect1_foregroundBlur_167_3"/>
</filter>
<filter id="filter5_f_167_3" x="349.586" y="98.3869" width="24.9769" height="24.9768" filterUnits="userSpaceOnUse" color-interpolation-filters="sRGB">
<feFlood flood-opacity="0" result="BackgroundImageFix"/>
<feBlend mode="normal" in="SourceGraphic" in2="BackgroundImageFix" result="shape"/>
<feGaussianBlur stdDeviation="4.01412" result="effect1_foregroundBlur_167_3"/>
</filter>
<filter id="filter6_f_167_3" x="8.38657" y="92.5887" width="42.8172" height="42.8173" filterUnits="userSpaceOnUse" color-interpolation-filters="sRGB">
<feFlood flood-opacity="0" result="BackgroundImageFix"/>
<feBlend mode="normal" in="SourceGraphic" in2="BackgroundImageFix" result="shape"/>
<feGaussianBlur stdDeviation="5.79817" result="effect1_foregroundBlur_167_3"/>
</filter>
<linearGradient id="paint0_linear_167_3" x1="180.101" y1="101.063" x2="81.8645" y2="319.491" gradientUnits="userSpaceOnUse">
<stop stop-color="#F5F5F5"/>
<stop offset="1" stop-color="#F5F5F5"/>
</linearGradient>
<linearGradient id="paint1_linear_167_3" x1="180.101" y1="70.7342" x2="58.5886" y2="340.916" gradientUnits="userSpaceOnUse">
<stop stop-color="#F5F5F5"/>
<stop offset="1" stop-color="#2C9AF6" stop-opacity="0"/>
</linearGradient>
<linearGradient id="paint2_linear_167_3" x1="180.101" y1="39.5132" x2="34.6281" y2="362.97" gradientUnits="userSpaceOnUse">
<stop stop-color="#F5F5F5"/>
<stop offset="1" stop-color="#2C9AF6"/>
</linearGradient>
<linearGradient id="paint3_linear_167_3" x1="180.101" y1="5.17017" x2="8.27207" y2="387.23" gradientUnits="userSpaceOnUse">
<stop stop-color="#F5F5F5"/>
<stop offset="1" stop-color="#2C9AF6"/>
</linearGradient>
</defs>
</svg>
