<svg width="1038" height="606" viewBox="0 0 1038 606" fill="none" xmlns="http://www.w3.org/2000/svg">
<g filter="url(#filter0_f_154_4)">
<circle cx="329" cy="238" r="229" fill="url(#paint0_radial_154_4)"/>
</g>
<g filter="url(#filter1_f_154_4)">
<circle cx="344" cy="147" r="178" fill="url(#paint1_radial_154_4)"/>
</g>
<circle cx="525" cy="308" r="269" fill="#F5F5F5"/>
<path d="M345.938 290.187H348.578L356.104 282.661L356.474 279.466C352.163 275.661 346.952 273.017 341.335 271.785C335.718 270.553 329.88 270.774 324.372 272.426C318.864 274.078 313.867 277.107 309.855 281.226C305.843 285.346 302.948 290.42 301.442 295.97C302.28 295.627 303.209 295.571 304.083 295.812L319.135 293.33C319.135 293.33 319.9 292.062 320.296 292.141C323.522 288.599 327.979 286.424 332.755 286.061C337.532 285.697 342.267 287.174 345.99 290.187H345.938Z" fill="#EA4335"/>
<path d="M366.823 295.97C365.094 289.6 361.542 283.873 356.604 279.492L346.041 290.055C348.243 291.854 350.007 294.129 351.201 296.709C352.395 299.289 352.987 302.106 352.933 304.949V306.823C354.168 306.823 355.39 307.067 356.531 307.539C357.672 308.011 358.708 308.704 359.581 309.577C360.454 310.45 361.146 311.486 361.619 312.627C362.091 313.767 362.334 314.99 362.334 316.224C362.334 317.459 362.091 318.681 361.619 319.822C361.146 320.962 360.454 321.999 359.581 322.872C358.708 323.745 357.672 324.437 356.531 324.91C355.39 325.382 354.168 325.625 352.933 325.625H334.132L332.257 327.526V338.802L334.132 340.677H352.933C358.184 340.718 363.308 339.068 367.548 335.971C371.787 332.874 374.918 328.494 376.476 323.48C378.033 318.466 377.936 313.084 376.198 308.129C374.459 303.175 371.173 298.912 366.823 295.97Z" fill="#4285F4"/>
<path d="M315.306 340.572H334.108V325.52H315.306C313.966 325.52 312.643 325.232 311.424 324.675L308.783 325.494L301.205 333.02L300.544 335.66C304.794 338.87 309.98 340.595 315.306 340.572Z" fill="#34A853"/>
<path d="M315.307 291.745C310.212 291.776 305.255 293.397 301.126 296.381C296.998 299.366 293.905 303.566 292.279 308.394C290.653 313.222 290.576 318.437 292.058 323.311C293.54 328.185 296.507 332.475 300.545 335.581L311.451 324.675C310.065 324.049 308.852 323.096 307.915 321.897C306.979 320.699 306.347 319.292 306.074 317.796C305.801 316.299 305.895 314.759 306.348 313.308C306.801 311.856 307.599 310.536 308.674 309.46C309.75 308.385 311.07 307.586 312.522 307.134C313.974 306.681 315.514 306.587 317.01 306.86C318.506 307.133 319.913 307.765 321.112 308.701C322.31 309.638 323.263 310.851 323.889 312.237L334.795 301.331C332.506 298.339 329.556 295.916 326.175 294.253C322.794 292.59 319.074 291.732 315.307 291.745Z" fill="#FBBC05"/>
<path d="M427.632 330.062C424.395 330.103 421.183 329.49 418.188 328.261C415.194 327.031 412.478 325.21 410.204 322.905C407.858 320.699 405.997 318.029 404.737 315.065C403.478 312.101 402.849 308.908 402.889 305.688C402.85 302.468 403.481 299.275 404.74 296.312C405.999 293.348 407.859 290.678 410.204 288.471C412.467 286.143 415.177 284.297 418.173 283.044C421.168 281.792 424.386 281.158 427.632 281.182C430.726 281.141 433.796 281.715 436.666 282.871C439.536 284.027 442.147 285.742 444.348 287.916L439.647 292.696C436.428 289.585 432.108 287.876 427.632 287.943C425.31 287.914 423.008 288.369 420.871 289.278C418.735 290.187 416.81 291.531 415.221 293.224C413.569 294.863 412.266 296.819 411.39 298.975C410.514 301.13 410.084 303.441 410.125 305.767C410.105 308.067 410.546 310.348 411.421 312.475C412.297 314.602 413.589 316.532 415.221 318.152C418.491 321.411 422.904 323.265 427.52 323.319C432.137 323.373 436.592 321.624 439.938 318.443C442.009 316.174 443.28 313.289 443.556 310.23H427.712V303.47H450.131C450.351 304.831 450.44 306.211 450.395 307.589C450.534 310.442 450.094 313.294 449.1 315.972C448.106 318.65 446.579 321.098 444.612 323.169C442.425 325.447 439.782 327.237 436.857 328.425C433.931 329.612 430.788 330.17 427.632 330.062ZM479.759 325.572C476.751 328.457 472.744 330.067 468.576 330.067C464.408 330.067 460.402 328.457 457.393 325.572C455.895 324.12 454.716 322.373 453.929 320.441C453.143 318.509 452.767 316.435 452.824 314.35C452.768 312.265 453.145 310.191 453.932 308.259C454.718 306.327 455.897 304.58 457.393 303.127C460.405 300.249 464.41 298.642 468.576 298.642C472.742 298.642 476.748 300.249 479.759 303.127C481.256 304.58 482.434 306.327 483.221 308.259C484.007 310.191 484.384 312.265 484.328 314.35C484.382 316.437 484.002 318.512 483.211 320.444C482.42 322.376 481.235 324.123 479.733 325.572H479.759ZM462.331 321.163C463.131 322.017 464.098 322.698 465.173 323.164C466.247 323.63 467.405 323.87 468.576 323.87C469.747 323.87 470.905 323.63 471.98 323.164C473.054 322.698 474.021 322.017 474.821 321.163C475.694 320.261 476.377 319.193 476.831 318.023C477.284 316.853 477.499 315.604 477.462 314.35C477.501 313.091 477.287 311.837 476.834 310.663C476.38 309.488 475.696 308.416 474.821 307.51C474.011 306.664 473.037 305.991 471.959 305.531C470.881 305.071 469.722 304.834 468.55 304.834C467.378 304.834 466.218 305.071 465.14 305.531C464.063 305.991 463.089 306.664 462.278 307.51C461.404 308.416 460.719 309.488 460.266 310.663C459.812 311.837 459.599 313.091 459.637 314.35C459.604 315.606 459.823 316.856 460.281 318.026C460.739 319.196 461.427 320.263 462.305 321.163H462.331ZM514.141 325.572C511.133 328.457 507.126 330.067 502.958 330.067C498.79 330.067 494.783 328.457 491.775 325.572C490.277 324.12 489.098 322.373 488.311 320.441C487.525 318.509 487.149 316.435 487.206 314.35C487.15 312.265 487.527 310.191 488.313 308.259C489.1 306.327 490.278 304.58 491.775 303.127C494.783 300.242 498.79 298.632 502.958 298.632C507.126 298.632 511.133 300.242 514.141 303.127C515.638 304.58 516.816 306.327 517.602 308.259C518.389 310.191 518.766 312.265 518.71 314.35C518.767 316.435 518.391 318.509 517.605 320.441C516.818 322.373 515.639 324.12 514.141 325.572ZM496.713 321.163C497.513 322.017 498.48 322.698 499.554 323.164C500.629 323.63 501.787 323.87 502.958 323.87C504.129 323.87 505.287 323.63 506.361 323.164C507.436 322.698 508.403 322.017 509.203 321.163C510.076 320.261 510.759 319.193 511.213 318.023C511.666 316.853 511.881 315.604 511.844 314.35C511.883 313.091 511.669 311.837 511.216 310.663C510.762 309.488 510.078 308.416 509.203 307.51C508.392 306.664 507.419 305.991 506.341 305.531C505.263 305.071 504.103 304.834 502.932 304.834C501.76 304.834 500.6 305.071 499.522 305.531C498.444 305.991 497.471 306.664 496.66 307.51C495.785 308.416 495.101 309.488 494.647 310.663C494.194 311.837 493.98 313.091 494.019 314.35C493.986 315.606 494.205 316.856 494.663 318.026C495.121 319.196 495.809 320.263 496.686 321.163H496.713ZM536.746 344.163C533.58 344.264 530.477 343.276 527.952 341.364C525.711 339.679 523.945 337.44 522.829 334.868L528.85 332.359C529.505 333.896 530.53 335.248 531.834 336.294C533.229 337.419 534.98 338.008 536.772 337.957C537.908 338.026 539.046 337.85 540.107 337.44C541.169 337.03 542.13 336.396 542.925 335.581C544.516 333.662 545.301 331.201 545.117 328.715V326.444H544.879C543.873 327.639 542.602 328.583 541.167 329.202C539.732 329.821 538.173 330.097 536.614 330.009C534.631 330.015 532.669 329.61 530.85 328.819C529.032 328.028 527.398 326.869 526.051 325.414C524.589 323.971 523.435 322.247 522.659 320.345C521.883 318.443 521.5 316.403 521.535 314.35C521.499 312.284 521.88 310.232 522.656 308.317C523.432 306.402 524.587 304.664 526.051 303.206C527.395 301.745 529.028 300.58 530.846 299.785C532.665 298.989 534.629 298.58 536.614 298.585C538.293 298.582 539.953 298.951 541.472 299.667C542.787 300.241 543.959 301.098 544.905 302.176H545.143V299.667H551.692V327.791C551.864 330.015 551.581 332.252 550.859 334.363C550.137 336.475 548.992 338.416 547.493 340.07C546.066 341.435 544.38 342.501 542.534 343.204C540.688 343.907 538.72 344.233 536.746 344.163ZM537.221 323.882C538.349 323.907 539.468 323.683 540.499 323.227C541.531 322.771 542.449 322.093 543.189 321.242C544.818 319.375 545.677 316.958 545.592 314.482C545.69 311.963 544.831 309.501 543.189 307.589C542.45 306.737 541.532 306.058 540.5 305.601C539.469 305.145 538.349 304.922 537.221 304.949C536.062 304.925 534.912 305.148 533.847 305.603C532.781 306.059 531.825 306.736 531.042 307.589C529.295 309.432 528.346 311.89 528.401 314.429C528.374 315.674 528.594 316.912 529.047 318.072C529.5 319.232 530.178 320.292 531.042 321.189C531.821 322.051 532.776 322.737 533.841 323.201C534.907 323.666 536.059 323.898 537.221 323.882ZM563.337 282.952V329.111H556.445V282.952H563.337ZM582.245 330.062C580.181 330.115 578.128 329.741 576.215 328.964C574.302 328.187 572.57 327.023 571.127 325.546C569.664 324.08 568.513 322.331 567.746 320.406C566.979 318.481 566.611 316.421 566.665 314.35C566.587 312.273 566.927 310.202 567.667 308.261C568.406 306.319 569.529 304.546 570.969 303.047C572.325 301.617 573.966 300.486 575.785 299.727C577.604 298.968 579.561 298.597 581.532 298.637C583.344 298.618 585.141 298.969 586.813 299.667C588.319 300.275 589.692 301.172 590.853 302.308C591.851 303.271 592.736 304.343 593.494 305.503C594.107 306.483 594.628 307.517 595.052 308.593L595.765 310.389L574.639 319.076C575.278 320.544 576.347 321.784 577.705 322.633C579.062 323.481 580.645 323.899 582.245 323.83C583.801 323.834 585.332 323.435 586.688 322.671C588.044 321.907 589.179 320.805 589.982 319.472L595.263 323.037C593.915 324.966 592.191 326.601 590.193 327.843C587.818 329.344 585.054 330.116 582.245 330.062ZM573.425 313.874L587.473 308.038C587.04 307.009 586.266 306.161 585.281 305.635C584.179 305.012 582.93 304.694 581.664 304.711C579.515 304.767 577.474 305.668 575.986 307.22C575.096 308.072 574.404 309.11 573.962 310.261C573.519 311.411 573.335 312.645 573.425 313.874Z" fill="#5F6368"/>
<path d="M631.866 330.061C628.935 330.112 626.024 329.57 623.308 328.467C620.591 327.365 618.126 325.725 616.059 323.646C613.992 321.567 612.367 319.091 611.28 316.368C610.194 313.645 609.669 310.731 609.737 307.8C609.669 304.87 610.194 301.955 611.28 299.232C612.367 296.509 613.992 294.034 616.059 291.955C618.126 289.876 620.591 288.236 623.308 287.133C626.024 286.031 628.935 285.489 631.866 285.539C634.833 285.447 637.782 286.025 640.494 287.233C643.205 288.44 645.609 290.244 647.526 292.511L643.723 296.208C642.316 294.438 640.511 293.026 638.456 292.085C636.4 291.144 634.151 290.702 631.893 290.794C629.718 290.745 627.556 291.136 625.537 291.944C623.518 292.752 621.682 293.96 620.142 295.495C618.54 297.106 617.288 299.03 616.466 301.148C615.643 303.266 615.267 305.531 615.362 307.8C615.267 310.07 615.643 312.335 616.466 314.453C617.288 316.57 618.54 318.495 620.142 320.106C621.682 321.641 623.518 322.849 625.537 323.657C627.556 324.464 629.718 324.855 631.893 324.806C634.416 324.835 636.914 324.294 639.2 323.224C641.486 322.154 643.501 320.583 645.096 318.627L648.899 322.43C646.908 324.811 644.408 326.715 641.584 328.002C638.54 329.407 635.219 330.111 631.866 330.061Z" fill="#5F6368"/>
<path d="M659.114 329.111H653.648V286.464H659.114V329.111Z" fill="#5F6368"/>
<path d="M668.042 303.443C670.906 300.599 674.779 299.003 678.816 299.003C682.853 299.003 686.726 300.599 689.59 303.443C690.99 304.922 692.085 306.664 692.81 308.567C693.535 310.47 693.877 312.498 693.815 314.534C693.877 316.57 693.535 318.598 692.81 320.502C692.085 322.405 690.99 324.146 689.59 325.625C686.726 328.47 682.853 330.066 678.816 330.066C674.779 330.066 670.906 328.47 668.042 325.625C666.641 324.146 665.547 322.405 664.822 320.502C664.097 318.598 663.755 316.57 663.817 314.534C663.755 312.498 664.097 310.47 664.822 308.567C665.547 306.664 666.641 304.922 668.042 303.443ZM672.108 322.192C672.97 323.103 674.008 323.828 675.159 324.323C676.31 324.819 677.549 325.074 678.803 325.074C680.056 325.074 681.296 324.819 682.447 324.323C683.598 323.828 684.635 323.103 685.497 322.192C686.452 321.167 687.194 319.962 687.679 318.647C688.164 317.333 688.383 315.934 688.322 314.534C688.383 313.134 688.164 311.736 687.679 310.421C687.194 309.107 686.452 307.902 685.497 306.876C684.635 305.966 683.598 305.241 682.447 304.746C681.296 304.25 680.056 303.995 678.803 303.995C677.549 303.995 676.31 304.25 675.159 304.746C674.008 305.241 672.97 305.966 672.108 306.876C671.153 307.902 670.411 309.107 669.926 310.421C669.441 311.736 669.222 313.134 669.283 314.534C669.229 315.932 669.454 317.326 669.943 318.636C670.433 319.946 671.178 321.146 672.135 322.166L672.108 322.192Z" fill="#5F6368"/>
<path d="M724.111 329.111H718.83V325.071H718.671C717.731 326.605 716.401 327.863 714.816 328.715C713.171 329.668 711.304 330.169 709.403 330.167C707.859 330.273 706.312 330.029 704.876 329.453C703.44 328.876 702.153 327.983 701.111 326.84C699.11 324.31 698.105 321.135 698.285 317.915V299.958H703.751V316.911C703.751 322.351 706.154 325.071 710.961 325.071C712.028 325.104 713.089 324.882 714.053 324.423C715.018 323.963 715.859 323.28 716.506 322.43C717.923 320.635 718.678 318.406 718.645 316.119V299.958H724.111V329.111Z" fill="#5F6368"/>
<path d="M742.669 330.062C740.815 330.068 738.981 329.672 737.295 328.902C735.608 328.131 734.108 327.004 732.899 325.599C730.161 322.575 728.695 318.612 728.806 314.534C728.695 310.457 730.161 306.494 732.899 303.47C734.108 302.064 735.608 300.938 737.295 300.167C738.981 299.397 740.815 299.001 742.669 299.007C744.747 298.974 746.799 299.465 748.637 300.433C750.253 301.246 751.62 302.477 752.598 303.998H752.836L752.598 299.958V286.464H758.065V329.111H752.783V325.071H752.545C751.568 326.592 750.2 327.823 748.584 328.636C746.762 329.595 744.729 330.086 742.669 330.062ZM743.567 325.071C744.803 325.089 746.028 324.844 747.162 324.352C748.295 323.86 749.311 323.133 750.142 322.219C751.999 320.104 752.948 317.344 752.783 314.534C752.948 311.725 751.999 308.964 750.142 306.85C749.306 305.931 748.287 305.196 747.15 304.694C746.013 304.191 744.784 303.931 743.541 303.931C742.298 303.931 741.068 304.191 739.932 304.694C738.795 305.196 737.775 305.931 736.939 306.85C736.017 307.89 735.309 309.102 734.855 310.416C734.402 311.73 734.213 313.121 734.298 314.508C734.213 315.895 734.402 317.286 734.855 318.6C735.309 319.914 736.017 321.126 736.939 322.166C737.771 323.097 738.794 323.838 739.937 324.339C741.081 324.84 742.319 325.09 743.567 325.071Z" fill="#5F6368"/>
<g filter="url(#filter2_f_154_4)">
<circle cx="525" cy="308" r="286.75" stroke="url(#paint2_linear_154_4)" stroke-width="0.5"/>
</g>
<g filter="url(#filter3_f_154_4)">
<circle cx="525" cy="308" r="354.75" stroke="url(#paint3_linear_154_4)" stroke-width="0.5"/>
</g>
<g filter="url(#filter4_f_154_4)">
<circle cx="525" cy="308" r="424.75" stroke="url(#paint4_linear_154_4)" stroke-width="0.5"/>
</g>
<g filter="url(#filter5_f_154_4)">
<circle cx="525" cy="308" r="501.75" stroke="url(#paint5_linear_154_4)" stroke-width="0.5"/>
</g>
<g filter="url(#filter6_f_154_4)">
<circle cx="832" cy="126" r="10" fill="#F7F7F7"/>
</g>
<defs>
<filter id="filter0_f_154_4" x="0" y="-91" width="658" height="658" filterUnits="userSpaceOnUse" color-interpolation-filters="sRGB">
<feFlood flood-opacity="0" result="BackgroundImageFix"/>
<feBlend mode="normal" in="SourceGraphic" in2="BackgroundImageFix" result="shape"/>
<feGaussianBlur stdDeviation="50" result="effect1_foregroundBlur_154_4"/>
</filter>
<filter id="filter1_f_154_4" x="66" y="-131" width="556" height="556" filterUnits="userSpaceOnUse" color-interpolation-filters="sRGB">
<feFlood flood-opacity="0" result="BackgroundImageFix"/>
<feBlend mode="normal" in="SourceGraphic" in2="BackgroundImageFix" result="shape"/>
<feGaussianBlur stdDeviation="50" result="effect1_foregroundBlur_154_4"/>
</filter>
<filter id="filter2_f_154_4" x="237" y="20" width="576" height="576" filterUnits="userSpaceOnUse" color-interpolation-filters="sRGB">
<feFlood flood-opacity="0" result="BackgroundImageFix"/>
<feBlend mode="normal" in="SourceGraphic" in2="BackgroundImageFix" result="shape"/>
<feGaussianBlur stdDeviation="0.5" result="effect1_foregroundBlur_154_4"/>
</filter>
<filter id="filter3_f_154_4" x="166" y="-51" width="718" height="718" filterUnits="userSpaceOnUse" color-interpolation-filters="sRGB">
<feFlood flood-opacity="0" result="BackgroundImageFix"/>
<feBlend mode="normal" in="SourceGraphic" in2="BackgroundImageFix" result="shape"/>
<feGaussianBlur stdDeviation="2" result="effect1_foregroundBlur_154_4"/>
</filter>
<filter id="filter4_f_154_4" x="91" y="-126" width="868" height="868" filterUnits="userSpaceOnUse" color-interpolation-filters="sRGB">
<feFlood flood-opacity="0" result="BackgroundImageFix"/>
<feBlend mode="normal" in="SourceGraphic" in2="BackgroundImageFix" result="shape"/>
<feGaussianBlur stdDeviation="4.5" result="effect1_foregroundBlur_154_4"/>
</filter>
<filter id="filter5_f_154_4" x="12" y="-205" width="1026" height="1026" filterUnits="userSpaceOnUse" color-interpolation-filters="sRGB">
<feFlood flood-opacity="0" result="BackgroundImageFix"/>
<feBlend mode="normal" in="SourceGraphic" in2="BackgroundImageFix" result="shape"/>
<feGaussianBlur stdDeviation="5.5" result="effect1_foregroundBlur_154_4"/>
</filter>
<filter id="filter6_f_154_4" x="808" y="102" width="48" height="48" filterUnits="userSpaceOnUse" color-interpolation-filters="sRGB">
<feFlood flood-opacity="0" result="BackgroundImageFix"/>
<feBlend mode="normal" in="SourceGraphic" in2="BackgroundImageFix" result="shape"/>
<feGaussianBlur stdDeviation="7" result="effect1_foregroundBlur_154_4"/>
</filter>
<radialGradient id="paint0_radial_154_4" cx="0" cy="0" r="1" gradientUnits="userSpaceOnUse" gradientTransform="translate(329 270.242) rotate(-90) scale(223.213)">
<stop offset="0.331731" stop-color="#5ACA7A"/>
<stop offset="0.966346" stop-color="#919CDC" stop-opacity="0"/>
</radialGradient>
<radialGradient id="paint1_radial_154_4" cx="0" cy="0" r="1" gradientUnits="userSpaceOnUse" gradientTransform="translate(344 172.061) rotate(-90) scale(173.502)">
<stop offset="0.331731" stop-color="#FBBC05"/>
<stop offset="0.865385" stop-color="#F5F5F5" stop-opacity="0"/>
</radialGradient>
<linearGradient id="paint2_linear_154_4" x1="525" y1="21" x2="304.744" y2="510.735" gradientUnits="userSpaceOnUse">
<stop stop-color="#F5F5F5"/>
<stop offset="1" stop-color="#F5F5F5"/>
</linearGradient>
<linearGradient id="paint3_linear_154_4" x1="525" y1="-47" x2="252.558" y2="558.77" gradientUnits="userSpaceOnUse">
<stop stop-color="#F5F5F5"/>
<stop offset="1" stop-color="#2C9AF6" stop-opacity="0"/>
</linearGradient>
<linearGradient id="paint4_linear_154_4" x1="525" y1="-117" x2="198.837" y2="608.218" gradientUnits="userSpaceOnUse">
<stop stop-color="#F5F5F5"/>
<stop offset="1" stop-color="#2C9AF6"/>
</linearGradient>
<linearGradient id="paint5_linear_154_4" x1="525" y1="-194" x2="139.744" y2="662.61" gradientUnits="userSpaceOnUse">
<stop stop-color="#F5F5F5"/>
<stop offset="1" stop-color="#2C9AF6"/>
</linearGradient>
</defs>
</svg>
