<svg width="360" height="514" viewBox="0 0 360 514" fill="none" xmlns="http://www.w3.org/2000/svg">
<g clip-path="url(#clip0_148_1501)">
<rect width="360" height="514" fill="#F5F5F5"/>
<g opacity="0.72" filter="url(#filter0_f_148_1501)">
<circle cx="331.5" cy="-91.5" r="217.5" fill="url(#paint0_radial_148_1501)"/>
</g>
<g filter="url(#filter1_f_148_1501)">
<circle cx="202.029" cy="278.029" r="103.029" fill="url(#paint1_radial_148_1501)"/>
</g>
<g opacity="0.82" filter="url(#filter2_f_148_1501)">
<circle cx="30.4243" cy="382.424" r="215.424" fill="url(#paint2_radial_148_1501)"/>
</g>
<g filter="url(#filter3_f_148_1501)">
<circle cx="92.6824" cy="334.848" r="102.137" fill="url(#paint3_radial_148_1501)"/>
</g>
<g filter="url(#filter4_f_148_1501)">
<circle cx="99.3732" cy="294.261" r="79.3903" fill="url(#paint4_radial_148_1501)"/>
</g>
<g filter="url(#filter5_f_148_1501)">
<circle cx="180.101" cy="366.069" r="127.894" stroke="url(#paint5_linear_148_1501)" stroke-width="0.223007"/>
</g>
<g filter="url(#filter6_f_148_1501)">
<circle cx="180.101" cy="366.069" r="158.223" stroke="url(#paint6_linear_148_1501)" stroke-width="0.223007"/>
</g>
<g filter="url(#filter7_f_148_1501)">
<circle cx="180.101" cy="366.069" r="189.444" stroke="url(#paint7_linear_148_1501)" stroke-width="0.223007"/>
</g>
<g filter="url(#filter8_f_148_1501)">
<circle cx="180.101" cy="366.069" r="223.787" stroke="url(#paint8_linear_148_1501)" stroke-width="0.223007"/>
</g>
<g filter="url(#filter9_f_148_1501)">
<circle cx="317.028" cy="284.894" r="4.46013" fill="#F7F7F7"/>
</g>
<g filter="url(#filter10_f_148_1501)">
<circle cx="362.074" cy="247.875" r="4.46013" fill="#F7F7F7"/>
</g>
<g opacity="0.62" filter="url(#filter11_f_148_1501)">
<circle cx="29.7952" cy="250.997" r="9.81229" fill="#F7F7F7"/>
</g>
<circle cx="180.102" cy="366.069" r="119.978" fill="#F5F5F5"/>
<path d="M100.237 358.124H101.415L104.772 354.767L104.937 353.342C103.014 351.645 100.69 350.466 98.1845 349.917C95.6793 349.367 93.0753 349.466 90.6186 350.202C88.1619 350.939 85.9336 352.29 84.1441 354.127C82.3547 355.965 81.0632 358.228 80.3916 360.703C80.7656 360.55 81.1798 360.525 81.5694 360.633L88.2827 359.526C88.2827 359.526 88.6243 358.96 88.801 358.996C90.2394 357.416 92.2273 356.446 94.3578 356.284C96.4882 356.122 98.6 356.78 100.261 358.124H100.237Z" fill="#EA4335"/>
<path d="M109.552 360.703C108.781 357.862 107.197 355.308 104.994 353.354L100.283 358.065C101.265 358.867 102.052 359.882 102.584 361.033C103.117 362.184 103.381 363.44 103.357 364.708V365.544C103.908 365.544 104.453 365.653 104.962 365.863C105.471 366.074 105.933 366.383 106.322 366.772C106.711 367.161 107.02 367.624 107.231 368.132C107.442 368.641 107.55 369.186 107.55 369.737C107.55 370.288 107.442 370.833 107.231 371.342C107.02 371.85 106.711 372.312 106.322 372.702C105.933 373.091 105.471 373.4 104.962 373.611C104.453 373.821 103.908 373.93 103.357 373.93H94.9715L94.1353 374.778V379.807L94.9715 380.643H103.357C105.699 380.661 107.984 379.925 109.875 378.544C111.766 377.163 113.163 375.21 113.857 372.973C114.552 370.737 114.509 368.336 113.733 366.127C112.958 363.917 111.492 362.015 109.552 360.703Z" fill="#4285F4"/>
<path d="M86.575 380.596H94.9608V373.883H86.575C85.9776 373.883 85.3871 373.754 84.8437 373.506L83.6659 373.871L80.2857 377.228L79.9912 378.406C81.8868 379.837 84.1998 380.607 86.575 380.596Z" fill="#34A853"/>
<path d="M86.575 358.819C84.3029 358.833 82.0917 359.556 80.2503 360.887C78.4089 362.218 77.0293 364.091 76.3042 366.245C75.5791 368.398 75.5446 370.724 76.2056 372.898C76.8666 375.072 78.1901 376.985 79.9912 378.37L84.8554 373.506C84.2373 373.227 83.6961 372.802 83.2784 372.267C82.8606 371.733 82.5788 371.105 82.457 370.438C82.3352 369.771 82.3771 369.084 82.5792 368.436C82.7812 367.789 83.1373 367.2 83.6169 366.72C84.0966 366.24 84.6854 365.884 85.3329 365.682C85.9804 365.48 86.6673 365.438 87.3346 365.56C88.0019 365.682 88.6296 365.964 89.164 366.382C89.6984 366.799 90.1235 367.34 90.4028 367.959L95.267 363.094C94.2461 361.76 92.9302 360.679 91.4223 359.938C89.9144 359.196 88.2554 358.813 86.575 358.819Z" fill="#FBBC05"/>
<path d="M136.674 375.909C135.23 375.927 133.797 375.654 132.462 375.105C131.126 374.557 129.915 373.745 128.9 372.717C127.854 371.733 127.024 370.542 126.462 369.22C125.901 367.898 125.62 366.474 125.638 365.038C125.621 363.602 125.902 362.178 126.463 360.856C127.025 359.534 127.855 358.343 128.9 357.359C129.91 356.32 131.119 355.497 132.455 354.938C133.791 354.38 135.226 354.097 136.674 354.108C138.054 354.089 139.423 354.346 140.703 354.861C141.983 355.377 143.148 356.142 144.129 357.111L142.033 359.243C140.597 357.856 138.67 357.093 136.674 357.123C135.638 357.11 134.611 357.313 133.658 357.719C132.705 358.124 131.847 358.723 131.138 359.479C130.402 360.209 129.82 361.082 129.43 362.043C129.039 363.005 128.847 364.035 128.865 365.073C128.856 366.099 129.053 367.116 129.444 368.065C129.834 369.013 130.41 369.874 131.138 370.597C132.597 372.05 134.565 372.877 136.624 372.901C138.683 372.926 140.67 372.145 142.162 370.726C143.086 369.715 143.653 368.428 143.776 367.063H136.709V364.048H146.709C146.807 364.656 146.846 365.271 146.826 365.886C146.889 367.158 146.692 368.43 146.249 369.624C145.805 370.819 145.124 371.911 144.247 372.835C143.271 373.85 142.093 374.649 140.788 375.179C139.483 375.708 138.081 375.957 136.674 375.909ZM159.923 373.906C158.581 375.193 156.794 375.911 154.935 375.911C153.076 375.911 151.289 375.193 149.947 373.906C149.28 373.259 148.753 372.479 148.403 371.618C148.052 370.756 147.884 369.831 147.91 368.901C147.885 367.971 148.053 367.046 148.404 366.184C148.754 365.323 149.28 364.543 149.947 363.895C151.291 362.612 153.077 361.895 154.935 361.895C156.793 361.895 158.58 362.612 159.923 363.895C160.591 364.543 161.116 365.323 161.467 366.184C161.818 367.046 161.986 367.971 161.961 368.901C161.985 369.832 161.815 370.757 161.463 371.619C161.11 372.481 160.582 373.26 159.911 373.906H159.923ZM152.15 371.939C152.507 372.321 152.938 372.625 153.417 372.832C153.896 373.04 154.413 373.147 154.935 373.147C155.458 373.147 155.974 373.04 156.453 372.832C156.932 372.625 157.364 372.321 157.721 371.939C158.11 371.537 158.415 371.061 158.617 370.539C158.819 370.017 158.915 369.46 158.899 368.901C158.916 368.339 158.821 367.78 158.618 367.256C158.416 366.732 158.111 366.254 157.721 365.85C157.359 365.473 156.925 365.173 156.444 364.968C155.963 364.763 155.446 364.657 154.924 364.657C154.401 364.657 153.884 364.763 153.403 364.968C152.922 365.173 152.488 365.473 152.126 365.85C151.736 366.254 151.431 366.732 151.229 367.256C151.026 367.78 150.931 368.339 150.949 368.901C150.934 369.461 151.031 370.019 151.236 370.541C151.44 371.063 151.747 371.538 152.138 371.939H152.15ZM175.258 373.906C173.916 375.193 172.129 375.911 170.27 375.911C168.411 375.911 166.624 375.193 165.282 373.906C164.614 373.259 164.088 372.479 163.737 371.618C163.387 370.756 163.219 369.831 163.245 368.901C163.22 367.971 163.388 367.046 163.738 366.184C164.089 365.323 164.615 364.543 165.282 363.895C166.624 362.609 168.411 361.891 170.27 361.891C172.129 361.891 173.916 362.609 175.258 363.895C175.925 364.543 176.451 365.323 176.802 366.184C177.152 367.046 177.321 367.971 177.296 368.901C177.321 369.831 177.153 370.756 176.803 371.618C176.452 372.479 175.926 373.259 175.258 373.906ZM167.485 371.939C167.842 372.321 168.273 372.625 168.752 372.832C169.231 373.04 169.748 373.147 170.27 373.147C170.792 373.147 171.309 373.04 171.788 372.832C172.267 372.625 172.699 372.321 173.056 371.939C173.445 371.537 173.749 371.061 173.952 370.539C174.154 370.017 174.25 369.46 174.233 368.901C174.251 368.339 174.155 367.78 173.953 367.256C173.751 366.732 173.446 366.254 173.056 365.85C172.694 365.473 172.26 365.173 171.779 364.968C171.298 364.763 170.781 364.657 170.258 364.657C169.736 364.657 169.218 364.763 168.738 364.968C168.257 365.173 167.823 365.473 167.461 365.85C167.071 366.254 166.766 366.732 166.563 367.256C166.361 367.78 166.266 368.339 166.283 368.901C166.268 369.461 166.366 370.019 166.57 370.541C166.775 371.063 167.082 371.538 167.473 371.939H167.485ZM185.34 382.198C183.928 382.243 182.544 381.802 181.418 380.95C180.418 380.198 179.631 379.2 179.133 378.052L181.818 376.933C182.11 377.619 182.568 378.222 183.149 378.688C183.771 379.19 184.552 379.453 185.352 379.43C185.858 379.461 186.366 379.382 186.839 379.199C187.313 379.016 187.741 378.734 188.096 378.37C188.805 377.514 189.156 376.417 189.073 375.308V374.295H188.967C188.519 374.828 187.952 375.249 187.312 375.525C186.672 375.801 185.977 375.924 185.281 375.885C184.397 375.888 183.521 375.707 182.711 375.354C181.9 375.002 181.171 374.484 180.57 373.836C179.918 373.192 179.403 372.423 179.057 371.575C178.711 370.726 178.54 369.817 178.556 368.901C178.54 367.979 178.71 367.064 179.056 366.21C179.402 365.356 179.917 364.581 180.57 363.931C181.169 363.279 181.898 362.759 182.709 362.405C183.52 362.05 184.396 361.868 185.281 361.869C186.03 361.868 186.77 362.033 187.448 362.352C188.034 362.608 188.557 362.99 188.979 363.471H189.085V362.352H192.006V374.896C192.083 375.888 191.957 376.885 191.635 377.827C191.313 378.769 190.802 379.635 190.133 380.372C189.497 380.981 188.745 381.457 187.921 381.77C187.098 382.084 186.22 382.229 185.34 382.198ZM185.552 373.153C186.055 373.164 186.554 373.064 187.014 372.86C187.474 372.657 187.884 372.354 188.214 371.975C188.94 371.142 189.323 370.064 189.285 368.96C189.329 367.836 188.946 366.738 188.214 365.886C187.884 365.505 187.475 365.203 187.014 364.999C186.554 364.795 186.055 364.696 185.552 364.708C185.035 364.697 184.522 364.797 184.047 365C183.572 365.203 183.145 365.505 182.796 365.886C182.017 366.708 181.593 367.804 181.618 368.936C181.606 369.492 181.704 370.044 181.906 370.561C182.108 371.079 182.411 371.551 182.796 371.951C183.144 372.336 183.569 372.642 184.044 372.849C184.52 373.056 185.033 373.159 185.552 373.153ZM197.2 354.897V375.485H194.126V354.897H197.2ZM205.633 375.909C204.712 375.932 203.797 375.766 202.944 375.419C202.09 375.073 201.318 374.554 200.675 373.895C200.022 373.241 199.509 372.461 199.166 371.602C198.824 370.744 198.66 369.825 198.684 368.901C198.649 367.975 198.801 367.051 199.131 366.185C199.461 365.319 199.962 364.528 200.604 363.86C201.209 363.222 201.94 362.718 202.752 362.379C203.563 362.04 204.436 361.875 205.315 361.893C206.123 361.884 206.925 362.041 207.671 362.352C208.342 362.623 208.955 363.024 209.473 363.53C209.917 363.959 210.312 364.438 210.65 364.955C210.924 365.392 211.156 365.854 211.345 366.333L211.663 367.134L202.241 371.009C202.526 371.664 203.003 372.217 203.608 372.595C204.214 372.974 204.92 373.16 205.633 373.129C206.327 373.131 207.01 372.953 207.615 372.612C208.219 372.272 208.726 371.78 209.084 371.186L211.439 372.776C210.838 373.636 210.069 374.365 209.178 374.919C208.119 375.589 206.886 375.933 205.633 375.909ZM201.699 368.689L207.965 366.086C207.772 365.627 207.427 365.248 206.987 365.014C206.496 364.736 205.939 364.594 205.374 364.602C204.415 364.627 203.505 365.029 202.842 365.721C202.444 366.101 202.136 366.564 201.939 367.077C201.741 367.59 201.659 368.14 201.699 368.689Z" fill="#5F6368"/>
<path d="M227.765 375.909C226.458 375.931 225.159 375.689 223.948 375.198C222.736 374.706 221.637 373.974 220.715 373.047C219.793 372.12 219.068 371.016 218.583 369.801C218.099 368.587 217.865 367.287 217.895 365.98C217.865 364.673 218.099 363.373 218.583 362.158C219.068 360.944 219.793 359.84 220.715 358.913C221.637 357.985 222.736 357.254 223.948 356.762C225.159 356.27 226.458 356.029 227.765 356.051C229.088 356.01 230.404 356.268 231.613 356.806C232.822 357.345 233.895 358.15 234.749 359.161L233.053 360.809C232.426 360.02 231.621 359.39 230.704 358.971C229.787 358.551 228.784 358.354 227.777 358.395C226.807 358.373 225.843 358.548 224.942 358.908C224.041 359.268 223.223 359.807 222.536 360.491C221.821 361.21 221.263 362.068 220.896 363.013C220.529 363.957 220.362 364.967 220.404 365.98C220.362 366.992 220.529 368.002 220.896 368.947C221.263 369.891 221.821 370.75 222.536 371.468C223.223 372.153 224.041 372.692 224.942 373.052C225.843 373.412 226.807 373.587 227.777 373.565C228.902 373.577 230.016 373.336 231.036 372.859C232.055 372.382 232.954 371.681 233.666 370.809L235.362 372.505C234.474 373.567 233.359 374.416 232.099 374.99C230.741 375.617 229.26 375.931 227.765 375.909Z" fill="#5F6368"/>
<path d="M239.917 375.485H237.479V356.464H239.917V375.485Z" fill="#5F6368"/>
<path d="M243.9 364.036C245.177 362.768 246.905 362.056 248.705 362.056C250.506 362.056 252.233 362.768 253.511 364.036C254.135 364.696 254.623 365.473 254.947 366.322C255.27 367.171 255.422 368.075 255.395 368.983C255.422 369.891 255.27 370.796 254.947 371.645C254.623 372.494 254.135 373.27 253.511 373.93C252.233 375.198 250.506 375.911 248.705 375.911C246.905 375.911 245.177 375.198 243.9 373.93C243.275 373.27 242.787 372.494 242.464 371.645C242.14 370.796 241.988 369.891 242.015 368.983C241.988 368.075 242.14 367.171 242.464 366.322C242.787 365.473 243.275 364.696 243.9 364.036ZM245.714 372.399C246.098 372.805 246.561 373.128 247.074 373.349C247.587 373.57 248.14 373.684 248.699 373.684C249.258 373.684 249.811 373.57 250.325 373.349C250.838 373.128 251.301 372.805 251.685 372.399C252.111 371.941 252.442 371.404 252.658 370.818C252.875 370.231 252.972 369.608 252.945 368.983C252.972 368.359 252.875 367.735 252.658 367.149C252.442 366.562 252.111 366.025 251.685 365.568C251.301 365.162 250.838 364.838 250.325 364.617C249.811 364.396 249.258 364.282 248.699 364.282C248.14 364.282 247.587 364.396 247.074 364.617C246.561 364.838 246.098 365.162 245.714 365.568C245.287 366.025 244.957 366.562 244.74 367.149C244.524 367.735 244.426 368.359 244.453 368.983C244.43 369.606 244.53 370.228 244.748 370.813C244.966 371.397 245.299 371.932 245.725 372.387L245.714 372.399Z" fill="#5F6368"/>
<path d="M268.907 375.485H266.552V373.683H266.481C266.062 374.367 265.468 374.928 264.761 375.308C264.028 375.733 263.195 375.957 262.347 375.956C261.659 376.003 260.968 375.894 260.328 375.637C259.688 375.38 259.114 374.982 258.649 374.472C257.757 373.343 257.308 371.927 257.389 370.491V362.482H259.827V370.043C259.827 372.47 260.898 373.683 263.042 373.683C263.518 373.697 263.991 373.598 264.421 373.393C264.852 373.189 265.227 372.884 265.515 372.505C266.147 371.704 266.484 370.71 266.469 369.69V362.482H268.907V375.485Z" fill="#5F6368"/>
<path d="M277.185 375.909C276.357 375.911 275.54 375.735 274.787 375.391C274.035 375.048 273.366 374.545 272.827 373.918C271.606 372.57 270.952 370.802 271.001 368.983C270.952 367.165 271.606 365.397 272.827 364.048C273.366 363.422 274.035 362.919 274.787 362.575C275.54 362.232 276.357 362.055 277.185 362.058C278.111 362.043 279.026 362.262 279.846 362.694C280.567 363.057 281.177 363.606 281.613 364.284H281.719L281.613 362.482V356.464H284.051V375.485H281.695V373.683H281.589C281.153 374.361 280.543 374.91 279.823 375.273C279.01 375.701 278.103 375.919 277.185 375.909ZM277.585 373.683C278.136 373.691 278.682 373.581 279.188 373.362C279.694 373.143 280.147 372.819 280.518 372.411C281.346 371.468 281.769 370.236 281.695 368.983C281.769 367.73 281.346 366.499 280.518 365.556C280.145 365.146 279.69 364.818 279.183 364.594C278.676 364.37 278.128 364.254 277.573 364.254C277.019 364.254 276.471 364.37 275.963 364.594C275.456 364.818 275.002 365.146 274.629 365.556C274.217 366.02 273.901 366.56 273.699 367.146C273.497 367.732 273.413 368.353 273.451 368.972C273.413 369.59 273.497 370.211 273.699 370.797C273.901 371.383 274.217 371.923 274.629 372.387C275 372.802 275.456 373.133 275.966 373.356C276.476 373.58 277.028 373.691 277.585 373.683Z" fill="#5F6368"/>
</g>
<defs>
<filter id="filter0_f_148_1501" x="14" y="-409" width="635" height="635" filterUnits="userSpaceOnUse" color-interpolation-filters="sRGB">
<feFlood flood-opacity="0" result="BackgroundImageFix"/>
<feBlend mode="normal" in="SourceGraphic" in2="BackgroundImageFix" result="shape"/>
<feGaussianBlur stdDeviation="50" result="effect1_foregroundBlur_148_1501"/>
</filter>
<filter id="filter1_f_148_1501" x="54.3987" y="130.399" width="295.261" height="295.261" filterUnits="userSpaceOnUse" color-interpolation-filters="sRGB">
<feFlood flood-opacity="0" result="BackgroundImageFix"/>
<feBlend mode="normal" in="SourceGraphic" in2="BackgroundImageFix" result="shape"/>
<feGaussianBlur stdDeviation="22.3007" result="effect1_foregroundBlur_148_1501"/>
</filter>
<filter id="filter2_f_148_1501" x="-229.601" y="122.399" width="520.051" height="520.051" filterUnits="userSpaceOnUse" color-interpolation-filters="sRGB">
<feFlood flood-opacity="0" result="BackgroundImageFix"/>
<feBlend mode="normal" in="SourceGraphic" in2="BackgroundImageFix" result="shape"/>
<feGaussianBlur stdDeviation="22.3007" result="effect1_foregroundBlur_148_1501"/>
</filter>
<filter id="filter3_f_148_1501" x="-54.0559" y="188.11" width="293.477" height="293.477" filterUnits="userSpaceOnUse" color-interpolation-filters="sRGB">
<feFlood flood-opacity="0" result="BackgroundImageFix"/>
<feBlend mode="normal" in="SourceGraphic" in2="BackgroundImageFix" result="shape"/>
<feGaussianBlur stdDeviation="22.3007" result="effect1_foregroundBlur_148_1501"/>
</filter>
<filter id="filter4_f_148_1501" x="-24.6184" y="170.269" width="247.983" height="247.983" filterUnits="userSpaceOnUse" color-interpolation-filters="sRGB">
<feFlood flood-opacity="0" result="BackgroundImageFix"/>
<feBlend mode="normal" in="SourceGraphic" in2="BackgroundImageFix" result="shape"/>
<feGaussianBlur stdDeviation="22.3007" result="effect1_foregroundBlur_148_1501"/>
</filter>
<filter id="filter5_f_148_1501" x="51.6497" y="237.617" width="256.904" height="256.904" filterUnits="userSpaceOnUse" color-interpolation-filters="sRGB">
<feFlood flood-opacity="0" result="BackgroundImageFix"/>
<feBlend mode="normal" in="SourceGraphic" in2="BackgroundImageFix" result="shape"/>
<feGaussianBlur stdDeviation="0.223007" result="effect1_foregroundBlur_148_1501"/>
</filter>
<filter id="filter6_f_148_1501" x="19.9825" y="205.95" width="320.238" height="320.237" filterUnits="userSpaceOnUse" color-interpolation-filters="sRGB">
<feFlood flood-opacity="0" result="BackgroundImageFix"/>
<feBlend mode="normal" in="SourceGraphic" in2="BackgroundImageFix" result="shape"/>
<feGaussianBlur stdDeviation="0.892026" result="effect1_foregroundBlur_148_1501"/>
</filter>
<filter id="filter7_f_148_1501" x="-13.4687" y="172.499" width="387.14" height="387.139" filterUnits="userSpaceOnUse" color-interpolation-filters="sRGB">
<feFlood flood-opacity="0" result="BackgroundImageFix"/>
<feBlend mode="normal" in="SourceGraphic" in2="BackgroundImageFix" result="shape"/>
<feGaussianBlur stdDeviation="2.00706" result="effect1_foregroundBlur_148_1501"/>
</filter>
<filter id="filter8_f_148_1501" x="-48.7035" y="137.264" width="457.61" height="457.61" filterUnits="userSpaceOnUse" color-interpolation-filters="sRGB">
<feFlood flood-opacity="0" result="BackgroundImageFix"/>
<feBlend mode="normal" in="SourceGraphic" in2="BackgroundImageFix" result="shape"/>
<feGaussianBlur stdDeviation="2.45307" result="effect1_foregroundBlur_148_1501"/>
</filter>
<filter id="filter9_f_148_1501" x="306.323" y="274.19" width="21.4088" height="21.4087" filterUnits="userSpaceOnUse" color-interpolation-filters="sRGB">
<feFlood flood-opacity="0" result="BackgroundImageFix"/>
<feBlend mode="normal" in="SourceGraphic" in2="BackgroundImageFix" result="shape"/>
<feGaussianBlur stdDeviation="3.12209" result="effect1_foregroundBlur_148_1501"/>
</filter>
<filter id="filter10_f_148_1501" x="349.586" y="235.387" width="24.9769" height="24.9768" filterUnits="userSpaceOnUse" color-interpolation-filters="sRGB">
<feFlood flood-opacity="0" result="BackgroundImageFix"/>
<feBlend mode="normal" in="SourceGraphic" in2="BackgroundImageFix" result="shape"/>
<feGaussianBlur stdDeviation="4.01412" result="effect1_foregroundBlur_148_1501"/>
</filter>
<filter id="filter11_f_148_1501" x="8.38657" y="229.589" width="42.8172" height="42.8173" filterUnits="userSpaceOnUse" color-interpolation-filters="sRGB">
<feFlood flood-opacity="0" result="BackgroundImageFix"/>
<feBlend mode="normal" in="SourceGraphic" in2="BackgroundImageFix" result="shape"/>
<feGaussianBlur stdDeviation="5.79817" result="effect1_foregroundBlur_148_1501"/>
</filter>
<radialGradient id="paint0_radial_148_1501" cx="0" cy="0" r="1" gradientUnits="userSpaceOnUse" gradientTransform="translate(331.5 -60.8773) rotate(-90) scale(212.004)">
<stop offset="0.0336538" stop-color="#26B34E"/>
<stop offset="0.331731" stop-color="#5ACA7A"/>
<stop offset="0.966346" stop-color="#919CDC" stop-opacity="0"/>
</radialGradient>
<radialGradient id="paint1_radial_148_1501" cx="0" cy="0" r="1" gradientUnits="userSpaceOnUse" gradientTransform="translate(202.029 292.535) rotate(-90) scale(100.425)">
<stop offset="0.331731" stop-color="#4755C6"/>
<stop offset="1" stop-color="#45A4F3" stop-opacity="0"/>
</radialGradient>
<radialGradient id="paint2_radial_148_1501" cx="0" cy="0" r="1" gradientUnits="userSpaceOnUse" gradientTransform="translate(30.4244 412.755) rotate(-90) scale(209.98)">
<stop offset="0.331731" stop-color="#2C9AF6"/>
<stop offset="1" stop-color="#8BC4F8" stop-opacity="0"/>
</radialGradient>
<radialGradient id="paint3_radial_148_1501" cx="0" cy="0" r="1" gradientUnits="userSpaceOnUse" gradientTransform="translate(92.6824 349.228) rotate(-90) scale(99.5559)">
<stop offset="0.331731" stop-color="#5ACA7A"/>
<stop offset="0.966346" stop-color="#919CDC" stop-opacity="0"/>
</radialGradient>
<radialGradient id="paint4_radial_148_1501" cx="0" cy="0" r="1" gradientUnits="userSpaceOnUse" gradientTransform="translate(99.3732 305.438) rotate(-90) scale(77.3841)">
<stop offset="0.331731" stop-color="#FBBC05"/>
<stop offset="0.865385" stop-color="#F5F5F5" stop-opacity="0"/>
</radialGradient>
<linearGradient id="paint5_linear_148_1501" x1="180.101" y1="238.063" x2="81.8645" y2="456.491" gradientUnits="userSpaceOnUse">
<stop stop-color="#F5F5F5"/>
<stop offset="1" stop-color="#F5F5F5"/>
</linearGradient>
<linearGradient id="paint6_linear_148_1501" x1="180.101" y1="207.734" x2="58.5886" y2="477.916" gradientUnits="userSpaceOnUse">
<stop stop-color="#F5F5F5"/>
<stop offset="1" stop-color="#2C9AF6" stop-opacity="0"/>
</linearGradient>
<linearGradient id="paint7_linear_148_1501" x1="180.101" y1="176.513" x2="34.6281" y2="499.97" gradientUnits="userSpaceOnUse">
<stop stop-color="#F5F5F5"/>
<stop offset="1" stop-color="#2C9AF6"/>
</linearGradient>
<linearGradient id="paint8_linear_148_1501" x1="180.101" y1="142.17" x2="8.27207" y2="524.23" gradientUnits="userSpaceOnUse">
<stop stop-color="#F5F5F5"/>
<stop offset="1" stop-color="#2C9AF6"/>
</linearGradient>
<clipPath id="clip0_148_1501">
<rect width="360" height="514" fill="white"/>
</clipPath>
</defs>
</svg>
