<svg width="530" height="384" viewBox="0 0 530 384" fill="none" xmlns="http://www.w3.org/2000/svg">
<g clip-path="url(#clip0_148_1532)">
<rect width="530" height="384" fill="#F5F5F5"/>
<g filter="url(#filter0_f_148_1532)">
<circle cx="294.391" cy="73.3748" r="139.063" fill="url(#paint0_radial_148_1532)"/>
</g>
<g opacity="0.82" filter="url(#filter1_f_148_1532)">
<circle cx="62.768" cy="214.282" r="290.768" fill="url(#paint1_radial_148_1532)"/>
</g>
<g filter="url(#filter2_f_148_1532)">
<circle cx="146.801" cy="150.066" r="137.859" fill="url(#paint2_radial_148_1532)"/>
</g>
<g filter="url(#filter3_f_148_1532)">
<circle cx="155.831" cy="95.2834" r="107.157" fill="url(#paint3_radial_148_1532)"/>
</g>
<g filter="url(#filter4_f_148_1532)">
<circle cx="264.794" cy="192.206" r="172.625" stroke="url(#paint4_linear_148_1532)" stroke-width="0.301002"/>
</g>
<g filter="url(#filter5_f_148_1532)">
<circle cx="264.794" cy="192.206" r="213.561" stroke="url(#paint5_linear_148_1532)" stroke-width="0.301002"/>
</g>
<g filter="url(#filter6_f_148_1532)">
<circle cx="264.794" cy="192.206" r="255.701" stroke="url(#paint6_linear_148_1532)" stroke-width="0.301002"/>
</g>
<g filter="url(#filter7_f_148_1532)">
<circle cx="264.794" cy="192.206" r="302.056" stroke="url(#paint7_linear_148_1532)" stroke-width="0.301002"/>
</g>
<g filter="url(#filter8_f_148_1532)">
<circle cx="449.609" cy="82.6412" r="6.02004" fill="#F7F7F7"/>
</g>
<g filter="url(#filter9_f_148_1532)">
<circle cx="510.411" cy="32.675" r="6.02004" fill="#F7F7F7"/>
</g>
<g opacity="0.62" filter="url(#filter10_f_148_1532)">
<circle cx="61.9184" cy="36.889" r="13.2441" fill="#F7F7F7"/>
</g>
<circle cx="264.546" cy="192.546" r="158.546" fill="#F5F5F5"/>
<g filter="url(#filter11_f_148_1532)">
<circle cx="513.474" cy="151.837" r="7.30629" fill="#F7F7F7"/>
</g>
<path d="M163.261 182.918H164.763L169.046 178.635L169.256 176.817C166.803 174.652 163.838 173.148 160.642 172.447C157.446 171.746 154.124 171.871 150.99 172.811C147.855 173.751 145.013 175.475 142.73 177.819C140.447 180.163 138.799 183.05 137.942 186.208C138.419 186.013 138.948 185.981 139.445 186.118L148.01 184.706C148.01 184.706 148.445 183.985 148.671 184.03C150.506 182.014 153.042 180.776 155.76 180.57C158.478 180.363 161.172 181.203 163.291 182.918H163.261Z" fill="#EA4335"/>
<path d="M175.145 186.208C174.161 182.584 172.14 179.325 169.33 176.832L163.32 182.843C164.572 183.866 165.576 185.161 166.255 186.629C166.935 188.097 167.272 189.7 167.241 191.317V192.384C167.944 192.384 168.639 192.522 169.288 192.791C169.937 193.06 170.527 193.454 171.024 193.951C171.52 194.447 171.914 195.037 172.183 195.686C172.452 196.335 172.59 197.031 172.59 197.733C172.59 198.436 172.452 199.131 172.183 199.78C171.914 200.429 171.52 201.019 171.024 201.516C170.527 202.012 169.937 202.406 169.288 202.675C168.639 202.944 167.944 203.082 167.241 203.082H156.543L155.476 204.164V210.58L156.543 211.647H167.241C170.229 211.67 173.144 210.731 175.557 208.969C177.969 207.207 179.751 204.715 180.637 201.862C181.523 199.009 181.468 195.946 180.479 193.127C179.49 190.308 177.62 187.882 175.145 186.208Z" fill="#4285F4"/>
<path d="M145.831 211.587H156.529V203.023H145.831C145.068 203.022 144.315 202.858 143.622 202.542L142.119 203.008L137.807 207.29L137.431 208.792C139.849 210.619 142.8 211.6 145.831 211.587Z" fill="#34A853"/>
<path d="M145.831 183.804C142.932 183.822 140.111 184.744 137.762 186.442C135.413 188.141 133.653 190.53 132.728 193.278C131.802 196.025 131.758 198.992 132.602 201.766C133.445 204.539 135.134 206.98 137.431 208.747L143.637 202.542C142.848 202.185 142.158 201.643 141.625 200.961C141.092 200.279 140.733 199.479 140.577 198.627C140.422 197.776 140.475 196.9 140.733 196.074C140.991 195.248 141.445 194.496 142.057 193.884C142.669 193.272 143.42 192.818 144.246 192.56C145.072 192.303 145.949 192.249 146.8 192.405C147.651 192.56 148.452 192.92 149.134 193.452C149.816 193.985 150.358 194.676 150.714 195.464L156.92 189.259C155.617 187.556 153.939 186.178 152.015 185.231C150.091 184.285 147.975 183.797 145.831 183.804Z" fill="#FBBC05"/>
<path d="M209.745 205.607C207.903 205.63 206.076 205.282 204.372 204.582C202.667 203.882 201.122 202.846 199.828 201.535C198.494 200.279 197.434 198.76 196.718 197.074C196.001 195.387 195.643 193.57 195.666 191.738C195.644 189.906 196.003 188.089 196.719 186.403C197.436 184.716 198.494 183.197 199.828 181.941C201.116 180.616 202.658 179.566 204.363 178.853C206.067 178.141 207.898 177.78 209.745 177.794C211.505 177.77 213.253 178.097 214.886 178.755C216.518 179.413 218.004 180.388 219.257 181.625L216.582 184.345C214.75 182.575 212.292 181.603 209.745 181.641C208.424 181.624 207.114 181.883 205.898 182.4C204.682 182.918 203.588 183.682 202.683 184.646C201.743 185.578 201.002 186.691 200.503 187.918C200.005 189.144 199.76 190.459 199.783 191.783C199.772 193.092 200.023 194.389 200.521 195.6C201.019 196.81 201.754 197.908 202.683 198.83C204.544 200.684 207.055 201.739 209.682 201.77C212.308 201.801 214.843 200.805 216.747 198.995C217.926 197.705 218.649 196.063 218.806 194.322H209.79V190.476H222.547C222.673 191.25 222.723 192.035 222.698 192.82C222.777 194.443 222.526 196.066 221.961 197.589C221.395 199.113 220.526 200.506 219.407 201.685C218.162 202.981 216.659 204 214.994 204.675C213.329 205.351 211.541 205.668 209.745 205.607ZM239.406 203.052C237.694 204.693 235.414 205.61 233.043 205.61C230.671 205.61 228.391 204.693 226.679 203.052C225.827 202.226 225.156 201.232 224.709 200.132C224.261 199.033 224.047 197.853 224.08 196.666C224.048 195.48 224.262 194.3 224.71 193.201C225.157 192.102 225.828 191.107 226.679 190.28C228.393 188.643 230.672 187.729 233.043 187.729C235.413 187.729 237.692 188.643 239.406 190.28C240.258 191.107 240.928 192.102 241.376 193.201C241.823 194.3 242.038 195.48 242.006 196.666C242.037 197.854 241.82 199.035 241.37 200.134C240.92 201.234 240.246 202.227 239.391 203.052H239.406ZM229.489 200.543C229.945 201.029 230.495 201.417 231.106 201.682C231.717 201.947 232.377 202.084 233.043 202.084C233.709 202.084 234.368 201.947 234.979 201.682C235.591 201.417 236.141 201.029 236.596 200.543C237.093 200.03 237.482 199.422 237.74 198.757C237.998 198.091 238.12 197.38 238.099 196.666C238.121 195.95 238 195.237 237.741 194.568C237.483 193.9 237.094 193.29 236.596 192.775C236.135 192.293 235.581 191.91 234.968 191.649C234.354 191.387 233.695 191.252 233.028 191.252C232.361 191.252 231.701 191.387 231.088 191.649C230.475 191.91 229.921 192.293 229.459 192.775C228.961 193.29 228.572 193.9 228.314 194.568C228.056 195.237 227.934 195.95 227.957 196.666C227.938 197.381 228.062 198.092 228.323 198.758C228.583 199.424 228.975 200.031 229.474 200.543H229.489ZM258.97 203.052C257.258 204.693 254.978 205.61 252.606 205.61C250.235 205.61 247.955 204.693 246.243 203.052C245.391 202.226 244.72 201.232 244.272 200.132C243.825 199.033 243.611 197.853 243.643 196.666C243.612 195.48 243.826 194.3 244.274 193.201C244.721 192.102 245.392 191.107 246.243 190.28C247.955 188.639 250.235 187.723 252.606 187.723C254.978 187.723 257.258 188.639 258.97 190.28C259.821 191.107 260.492 192.102 260.939 193.201C261.387 194.3 261.601 195.48 261.569 196.666C261.602 197.853 261.388 199.033 260.94 200.132C260.493 201.232 259.822 202.226 258.97 203.052ZM249.053 200.543C249.508 201.029 250.058 201.417 250.67 201.682C251.281 201.947 251.94 202.084 252.606 202.084C253.273 202.084 253.932 201.947 254.543 201.682C255.154 201.417 255.705 201.029 256.16 200.543C256.656 200.03 257.045 199.422 257.303 198.757C257.561 198.091 257.684 197.38 257.663 196.666C257.685 195.95 257.563 195.237 257.305 194.568C257.047 193.9 256.658 193.29 256.16 192.775C255.699 192.293 255.145 191.91 254.531 191.649C253.918 191.387 253.258 191.252 252.591 191.252C251.925 191.252 251.265 191.387 250.651 191.649C250.038 191.91 249.484 192.293 249.023 192.775C248.525 193.29 248.136 193.9 247.878 194.568C247.62 195.237 247.498 195.95 247.52 196.666C247.501 197.381 247.626 198.092 247.886 198.758C248.147 199.424 248.539 200.031 249.038 200.543H249.053ZM271.832 213.63C270.031 213.688 268.265 213.126 266.828 212.038C265.553 211.079 264.548 209.805 263.913 208.341L267.339 206.914C267.712 207.789 268.295 208.558 269.037 209.153C269.831 209.793 270.827 210.128 271.847 210.099C272.493 210.139 273.141 210.038 273.745 209.805C274.349 209.572 274.896 209.211 275.348 208.747C276.253 207.655 276.7 206.255 276.595 204.84V203.548H276.46C275.887 204.228 275.164 204.766 274.348 205.118C273.531 205.47 272.644 205.627 271.757 205.577C270.629 205.58 269.512 205.349 268.478 204.899C267.443 204.449 266.513 203.79 265.746 202.962C264.915 202.141 264.258 201.16 263.816 200.078C263.375 198.995 263.157 197.835 263.177 196.666C263.156 195.491 263.373 194.323 263.815 193.234C264.256 192.144 264.913 191.155 265.746 190.325C266.511 189.494 267.44 188.831 268.475 188.379C269.51 187.926 270.627 187.693 271.757 187.696C272.713 187.694 273.657 187.905 274.521 188.312C275.27 188.639 275.936 189.126 276.475 189.739H276.61V188.312H280.336V204.314C280.435 205.58 280.273 206.853 279.862 208.054C279.452 209.256 278.8 210.361 277.947 211.301C277.135 212.078 276.176 212.685 275.125 213.085C274.075 213.485 272.955 213.67 271.832 213.63ZM272.102 202.091C272.744 202.105 273.381 201.977 273.968 201.718C274.555 201.458 275.077 201.072 275.498 200.588C276.425 199.526 276.914 198.151 276.866 196.741C276.921 195.308 276.433 193.907 275.498 192.82C275.078 192.335 274.555 191.948 273.968 191.689C273.381 191.429 272.744 191.302 272.102 191.317C271.443 191.304 270.789 191.431 270.182 191.69C269.576 191.949 269.032 192.334 268.586 192.82C267.592 193.868 267.052 195.267 267.084 196.711C267.068 197.42 267.193 198.125 267.451 198.785C267.709 199.445 268.095 200.047 268.586 200.558C269.03 201.048 269.573 201.439 270.179 201.703C270.785 201.967 271.441 202.099 272.102 202.091ZM286.963 178.801V205.066H283.041V178.801H286.963ZM297.721 205.607C296.547 205.637 295.379 205.424 294.29 204.982C293.202 204.54 292.216 203.878 291.395 203.037C290.563 202.203 289.908 201.208 289.472 200.113C289.035 199.017 288.826 197.845 288.856 196.666C288.812 195.485 289.006 194.307 289.426 193.202C289.847 192.097 290.486 191.088 291.305 190.235C292.077 189.422 293.011 188.778 294.046 188.346C295.08 187.914 296.194 187.703 297.316 187.726C298.347 187.715 299.369 187.914 300.321 188.312C301.178 188.658 301.959 189.168 302.62 189.815C303.187 190.362 303.691 190.972 304.122 191.633C304.471 192.19 304.768 192.779 305.009 193.391L305.415 194.412L293.394 199.356C293.757 200.191 294.366 200.897 295.138 201.38C295.911 201.862 296.811 202.1 297.721 202.061C298.607 202.063 299.478 201.836 300.249 201.401C301.021 200.967 301.667 200.34 302.124 199.581L305.129 201.61C304.362 202.707 303.381 203.637 302.244 204.345C300.892 205.199 299.32 205.637 297.721 205.607ZM292.703 196.396L300.696 193.075C300.45 192.49 300.01 192.007 299.449 191.708C298.822 191.353 298.111 191.172 297.391 191.182C296.168 191.214 295.007 191.727 294.16 192.609C293.653 193.094 293.26 193.685 293.008 194.34C292.756 194.994 292.652 195.696 292.703 196.396Z" fill="#5F6368"/>
<path d="M325.957 205.607C324.289 205.636 322.632 205.327 321.087 204.7C319.541 204.072 318.138 203.139 316.962 201.956C315.786 200.773 314.861 199.365 314.243 197.815C313.625 196.266 313.326 194.608 313.365 192.94C313.326 191.272 313.625 189.614 314.243 188.065C314.861 186.515 315.786 185.107 316.962 183.924C318.138 182.741 319.541 181.808 321.087 181.18C322.632 180.553 324.289 180.244 325.957 180.273C327.645 180.22 329.323 180.55 330.866 181.237C332.409 181.924 333.777 182.95 334.867 184.24L332.703 186.344C331.903 185.337 330.876 184.533 329.706 183.998C328.537 183.463 327.257 183.211 325.972 183.263C324.735 183.235 323.504 183.458 322.355 183.918C321.206 184.377 320.162 185.064 319.285 185.938C318.374 186.855 317.662 187.95 317.194 189.155C316.726 190.36 316.512 191.648 316.566 192.94C316.512 194.232 316.726 195.52 317.194 196.725C317.662 197.93 318.374 199.025 319.285 199.942C320.162 200.815 321.206 201.503 322.355 201.962C323.504 202.422 324.735 202.644 325.972 202.617C327.408 202.633 328.829 202.325 330.13 201.716C331.43 201.108 332.577 200.213 333.485 199.101L335.648 201.264C334.516 202.619 333.093 203.702 331.486 204.435C329.754 205.234 327.864 205.635 325.957 205.607Z" fill="#5F6368"/>
<path d="M341.461 205.066H338.351V180.799H341.461V205.066Z" fill="#5F6368"/>
<path d="M346.541 190.461C348.171 188.842 350.375 187.934 352.672 187.934C354.968 187.934 357.172 188.842 358.802 190.461C359.599 191.302 360.222 192.293 360.634 193.376C361.047 194.459 361.241 195.613 361.206 196.771C361.241 197.93 361.047 199.084 360.634 200.167C360.222 201.25 359.599 202.241 358.802 203.082C357.172 204.701 354.968 205.609 352.672 205.609C350.375 205.609 348.171 204.701 346.541 203.082C345.744 202.241 345.121 201.25 344.709 200.167C344.296 199.084 344.102 197.93 344.137 196.771C344.102 195.613 344.296 194.459 344.709 193.376C345.121 192.293 345.744 191.302 346.541 190.461ZM348.855 201.129C349.345 201.647 349.936 202.059 350.59 202.341C351.245 202.623 351.951 202.769 352.664 202.769C353.377 202.769 354.083 202.623 354.737 202.341C355.392 202.059 355.983 201.647 356.473 201.129C357.017 200.546 357.439 199.86 357.715 199.112C357.991 198.364 358.115 197.568 358.081 196.771C358.115 195.975 357.991 195.179 357.715 194.431C357.439 193.683 357.017 192.997 356.473 192.414C355.983 191.896 355.392 191.484 354.737 191.202C354.083 190.92 353.377 190.774 352.664 190.774C351.951 190.774 351.245 190.92 350.59 191.202C349.936 191.484 349.345 191.896 348.855 192.414C348.311 192.997 347.889 193.683 347.613 194.431C347.337 195.179 347.213 195.975 347.247 196.771C347.217 197.567 347.345 198.36 347.623 199.105C347.902 199.851 348.325 200.534 348.87 201.114L348.855 201.129Z" fill="#5F6368"/>
<path d="M378.445 205.066H375.44V202.767H375.35C374.815 203.64 374.058 204.356 373.156 204.841C372.22 205.383 371.158 205.668 370.076 205.667C369.198 205.727 368.317 205.588 367.5 205.26C366.683 204.932 365.951 204.424 365.358 203.774C364.219 202.334 363.648 200.527 363.75 198.695V188.477H366.86V198.124C366.86 201.219 368.228 202.767 370.962 202.767C371.57 202.786 372.173 202.659 372.722 202.398C373.271 202.137 373.75 201.748 374.118 201.264C374.924 200.243 375.354 198.975 375.335 197.673V188.477H378.445V205.066Z" fill="#5F6368"/>
<path d="M389.005 205.607C387.95 205.61 386.906 205.385 385.946 204.947C384.987 204.508 384.133 203.867 383.445 203.067C381.887 201.347 381.053 199.092 381.116 196.772C381.053 194.451 381.887 192.196 383.445 190.476C384.133 189.676 384.987 189.035 385.946 188.597C386.906 188.158 387.95 187.933 389.005 187.936C390.187 187.918 391.355 188.197 392.401 188.748C393.32 189.21 394.098 189.911 394.654 190.776H394.79L394.654 188.477V180.799H397.765V205.066H394.76V202.767H394.624C394.068 203.632 393.29 204.333 392.37 204.795C391.333 205.342 390.177 205.62 389.005 205.607ZM389.516 202.767C390.219 202.777 390.916 202.638 391.561 202.358C392.206 202.078 392.784 201.664 393.257 201.144C394.314 199.941 394.853 198.37 394.76 196.772C394.853 195.173 394.314 193.602 393.257 192.399C392.781 191.876 392.201 191.458 391.554 191.172C390.907 190.886 390.208 190.738 389.501 190.738C388.793 190.738 388.094 190.886 387.447 191.172C386.8 191.458 386.22 191.876 385.744 192.399C385.219 192.991 384.816 193.68 384.558 194.428C384.301 195.176 384.193 195.967 384.241 196.757C384.193 197.546 384.301 198.337 384.558 199.085C384.816 199.833 385.219 200.522 385.744 201.114C386.218 201.644 386.799 202.065 387.45 202.351C388.101 202.636 388.805 202.778 389.516 202.767Z" fill="#5F6368"/>
</g>
<defs>
<filter id="filter0_f_148_1532" x="95.1272" y="-125.889" width="398.527" height="398.527" filterUnits="userSpaceOnUse" color-interpolation-filters="sRGB">
<feFlood flood-opacity="0" result="BackgroundImageFix"/>
<feBlend mode="normal" in="SourceGraphic" in2="BackgroundImageFix" result="shape"/>
<feGaussianBlur stdDeviation="30.1002" result="effect1_foregroundBlur_148_1532"/>
</filter>
<filter id="filter1_f_148_1532" x="-288.2" y="-136.686" width="701.937" height="701.937" filterUnits="userSpaceOnUse" color-interpolation-filters="sRGB">
<feFlood flood-opacity="0" result="BackgroundImageFix"/>
<feBlend mode="normal" in="SourceGraphic" in2="BackgroundImageFix" result="shape"/>
<feGaussianBlur stdDeviation="30.1002" result="effect1_foregroundBlur_148_1532"/>
</filter>
<filter id="filter2_f_148_1532" x="-51.2585" y="-47.9934" width="396.119" height="396.119" filterUnits="userSpaceOnUse" color-interpolation-filters="sRGB">
<feFlood flood-opacity="0" result="BackgroundImageFix"/>
<feBlend mode="normal" in="SourceGraphic" in2="BackgroundImageFix" result="shape"/>
<feGaussianBlur stdDeviation="30.1002" result="effect1_foregroundBlur_148_1532"/>
</filter>
<filter id="filter3_f_148_1532" x="-11.5261" y="-72.0738" width="334.714" height="334.714" filterUnits="userSpaceOnUse" color-interpolation-filters="sRGB">
<feFlood flood-opacity="0" result="BackgroundImageFix"/>
<feBlend mode="normal" in="SourceGraphic" in2="BackgroundImageFix" result="shape"/>
<feGaussianBlur stdDeviation="30.1002" result="effect1_foregroundBlur_148_1532"/>
</filter>
<filter id="filter4_f_148_1532" x="91.4166" y="18.8289" width="346.754" height="346.754" filterUnits="userSpaceOnUse" color-interpolation-filters="sRGB">
<feFlood flood-opacity="0" result="BackgroundImageFix"/>
<feBlend mode="normal" in="SourceGraphic" in2="BackgroundImageFix" result="shape"/>
<feGaussianBlur stdDeviation="0.301002" result="effect1_foregroundBlur_148_1532"/>
</filter>
<filter id="filter5_f_148_1532" x="48.674" y="-23.9133" width="432.239" height="432.239" filterUnits="userSpaceOnUse" color-interpolation-filters="sRGB">
<feFlood flood-opacity="0" result="BackgroundImageFix"/>
<feBlend mode="normal" in="SourceGraphic" in2="BackgroundImageFix" result="shape"/>
<feGaussianBlur stdDeviation="1.20401" result="effect1_foregroundBlur_148_1532"/>
</filter>
<filter id="filter6_f_148_1532" x="3.52386" y="-69.0637" width="522.54" height="522.54" filterUnits="userSpaceOnUse" color-interpolation-filters="sRGB">
<feFlood flood-opacity="0" result="BackgroundImageFix"/>
<feBlend mode="normal" in="SourceGraphic" in2="BackgroundImageFix" result="shape"/>
<feGaussianBlur stdDeviation="2.70902" result="effect1_foregroundBlur_148_1532"/>
</filter>
<filter id="filter7_f_148_1532" x="-44.0342" y="-116.622" width="617.656" height="617.656" filterUnits="userSpaceOnUse" color-interpolation-filters="sRGB">
<feFlood flood-opacity="0" result="BackgroundImageFix"/>
<feBlend mode="normal" in="SourceGraphic" in2="BackgroundImageFix" result="shape"/>
<feGaussianBlur stdDeviation="3.31102" result="effect1_foregroundBlur_148_1532"/>
</filter>
<filter id="filter8_f_148_1532" x="435.161" y="68.1931" width="28.8962" height="28.8962" filterUnits="userSpaceOnUse" color-interpolation-filters="sRGB">
<feFlood flood-opacity="0" result="BackgroundImageFix"/>
<feBlend mode="normal" in="SourceGraphic" in2="BackgroundImageFix" result="shape"/>
<feGaussianBlur stdDeviation="4.21403" result="effect1_foregroundBlur_148_1532"/>
</filter>
<filter id="filter9_f_148_1532" x="493.555" y="15.8189" width="33.7122" height="33.7122" filterUnits="userSpaceOnUse" color-interpolation-filters="sRGB">
<feFlood flood-opacity="0" result="BackgroundImageFix"/>
<feBlend mode="normal" in="SourceGraphic" in2="BackgroundImageFix" result="shape"/>
<feGaussianBlur stdDeviation="5.41804" result="effect1_foregroundBlur_148_1532"/>
</filter>
<filter id="filter10_f_148_1532" x="33.0222" y="7.99279" width="57.7925" height="57.7924" filterUnits="userSpaceOnUse" color-interpolation-filters="sRGB">
<feFlood flood-opacity="0" result="BackgroundImageFix"/>
<feBlend mode="normal" in="SourceGraphic" in2="BackgroundImageFix" result="shape"/>
<feGaussianBlur stdDeviation="7.82605" result="effect1_foregroundBlur_148_1532"/>
</filter>
<filter id="filter11_f_148_1532" x="493.016" y="131.38" width="40.9154" height="40.9152" filterUnits="userSpaceOnUse" color-interpolation-filters="sRGB">
<feFlood flood-opacity="0" result="BackgroundImageFix"/>
<feBlend mode="normal" in="SourceGraphic" in2="BackgroundImageFix" result="shape"/>
<feGaussianBlur stdDeviation="6.57566" result="effect1_foregroundBlur_148_1532"/>
</filter>
<radialGradient id="paint0_radial_148_1532" cx="0" cy="0" r="1" gradientUnits="userSpaceOnUse" gradientTransform="translate(294.391 92.9541) rotate(-90) scale(135.549)">
<stop offset="0.331731" stop-color="#4755C6"/>
<stop offset="1" stop-color="#45A4F3" stop-opacity="0"/>
</radialGradient>
<radialGradient id="paint1_radial_148_1532" cx="0" cy="0" r="1" gradientUnits="userSpaceOnUse" gradientTransform="translate(62.768 255.22) rotate(-90) scale(283.42)">
<stop offset="0.331731" stop-color="#2C9AF6"/>
<stop offset="1" stop-color="#8BC4F8" stop-opacity="0"/>
</radialGradient>
<radialGradient id="paint2_radial_148_1532" cx="0" cy="0" r="1" gradientUnits="userSpaceOnUse" gradientTransform="translate(146.801 169.476) rotate(-90) scale(134.375)">
<stop offset="0.331731" stop-color="#5ACA7A"/>
<stop offset="0.966346" stop-color="#919CDC" stop-opacity="0"/>
</radialGradient>
<radialGradient id="paint3_radial_148_1532" cx="0" cy="0" r="1" gradientUnits="userSpaceOnUse" gradientTransform="translate(155.831 110.37) rotate(-90) scale(104.449)">
<stop offset="0.331731" stop-color="#FBBC05"/>
<stop offset="0.865385" stop-color="#F5F5F5" stop-opacity="0"/>
</radialGradient>
<linearGradient id="paint4_linear_148_1532" x1="264.794" y1="19.4309" x2="132.199" y2="314.254" gradientUnits="userSpaceOnUse">
<stop stop-color="#F5F5F5"/>
<stop offset="1" stop-color="#F5F5F5"/>
</linearGradient>
<linearGradient id="paint5_linear_148_1532" x1="264.794" y1="-21.5052" x2="100.782" y2="343.171" gradientUnits="userSpaceOnUse">
<stop stop-color="#F5F5F5"/>
<stop offset="1" stop-color="#2C9AF6" stop-opacity="0"/>
</linearGradient>
<linearGradient id="paint6_linear_148_1532" x1="264.794" y1="-63.6457" x2="68.4423" y2="372.939" gradientUnits="userSpaceOnUse">
<stop stop-color="#F5F5F5"/>
<stop offset="1" stop-color="#2C9AF6"/>
</linearGradient>
<linearGradient id="paint7_linear_148_1532" x1="264.794" y1="-110" x2="32.8684" y2="405.683" gradientUnits="userSpaceOnUse">
<stop stop-color="#F5F5F5"/>
<stop offset="1" stop-color="#2C9AF6"/>
</linearGradient>
<clipPath id="clip0_148_1532">
<rect width="530" height="384" fill="white"/>
</clipPath>
</defs>
</svg>
