<svg width="14" height="8" viewBox="0 0 14 8" fill="none" xmlns="http://www.w3.org/2000/svg">
<path d="M9.66681 0C11.876 0 13.6668 1.79087 13.6668 4C13.6668 6.20913 11.876 8 9.66681 8H4.3335C2.12434 8 0.333496 6.20913 0.333496 4C0.333496 1.79087 2.12434 0 4.3335 0H9.66681ZM9.66681 1.33334H4.3335C2.86071 1.33334 1.66681 2.52725 1.66681 4C1.66681 5.42812 2.78946 6.59406 4.2004 6.66341L4.3335 6.66666H9.66681C11.1396 6.66666 12.3335 5.47275 12.3335 4C12.3335 2.57188 11.2108 1.40594 9.7999 1.33659L9.66681 1.33334ZM4.3335 2C5.43806 2 6.3335 2.89544 6.3335 4C6.3335 5.10456 5.43806 6 4.3335 6C3.22893 6 2.3335 5.10456 2.3335 4C2.3335 2.89544 3.2289 2 4.3335 2Z" fill="black"/>
</svg>
