<svg width="16" height="16" viewBox="0 0 16 16" fill="none" xmlns="http://www.w3.org/2000/svg">
<path d="M4.2858 1.60865C4.36985 1.50834 4.41122 1.37907 4.40103 1.24859C4.39083 1.11812 4.32989 0.996839 4.23128 0.910795C4.13267 0.824751 4.00425 0.780799 3.8736 0.788376C3.74295 0.795953 3.62047 0.854453 3.53247 0.951319L2.67113 1.93799C2.18272 2.4977 1.90663 3.2113 1.89113 3.95399L1.85313 5.76665C1.85178 5.83231 1.86337 5.8976 1.88724 5.95878C1.91111 6.01996 1.9468 6.07584 1.99227 6.12323C2.03774 6.17062 2.0921 6.20859 2.15225 6.23497C2.21239 6.26135 2.27714 6.27563 2.3428 6.27699C2.40846 6.27834 2.47375 6.26675 2.53493 6.24288C2.59611 6.21901 2.65199 6.18332 2.69938 6.13785C2.74677 6.09238 2.78474 6.03802 2.81112 5.97787C2.8375 5.91773 2.85178 5.85298 2.85313 5.78732L2.89047 3.97532C2.90116 3.46714 3.09018 2.97889 3.42447 2.59599L4.2858 1.60865Z" fill="black"/>
<path fill-rule="evenodd" clip-rule="evenodd" d="M4.1578 5.13331C4.20258 4.42007 4.51748 3.7507 5.03842 3.26147C5.55936 2.77224 6.24716 2.49993 6.9618 2.49998H7.33314V1.99998C7.33314 1.82317 7.40338 1.6536 7.5284 1.52858C7.65342 1.40355 7.82299 1.33331 7.9998 1.33331C8.17662 1.33331 8.34618 1.40355 8.47121 1.52858C8.59623 1.6536 8.66647 1.82317 8.66647 1.99998V2.49998H9.0378C9.75245 2.49993 10.4403 2.77224 10.9612 3.26147C11.4821 3.7507 11.797 4.42007 11.8418 5.13331L11.9891 7.48931C12.0461 8.38746 12.3476 9.25291 12.8611 9.99198C12.9674 10.1447 13.0323 10.3223 13.0496 10.5075C13.0669 10.6928 13.0359 10.8793 12.9597 11.049C12.8836 11.2187 12.7648 11.3659 12.6149 11.4761C12.465 11.5863 12.2892 11.6559 12.1045 11.678L9.83314 11.95V12.6666C9.83314 13.1529 9.63998 13.6192 9.29617 13.963C8.95235 14.3068 8.48603 14.5 7.9998 14.5C7.51357 14.5 7.04726 14.3068 6.70344 13.963C6.35962 13.6192 6.16647 13.1529 6.16647 12.6666V11.95L3.89514 11.6773C3.71053 11.6551 3.53481 11.5856 3.38503 11.4754C3.23526 11.3652 3.11653 11.2182 3.04037 11.0486C2.96422 10.8789 2.93323 10.6925 2.95042 10.5074C2.96761 10.3222 3.03239 10.1447 3.13847 9.99198C3.65197 9.25291 3.95351 8.38746 4.01047 7.48931L4.1578 5.13331ZM6.9618 3.49998C6.50152 3.49992 6.05852 3.67529 5.72299 3.99039C5.38746 4.30548 5.18464 4.7366 5.1558 5.19598L5.00914 7.55198C4.94059 8.63248 4.57771 9.67362 3.9598 10.5626C3.95212 10.5737 3.94742 10.5865 3.94616 10.5999C3.94491 10.6133 3.94714 10.6268 3.95264 10.6391C3.95814 10.6514 3.96673 10.662 3.97756 10.67C3.9884 10.678 4.00111 10.683 4.01447 10.6846L6.5058 10.984C7.49847 11.1026 8.50114 11.1026 9.4938 10.984L11.9851 10.6846C11.9985 10.683 12.0112 10.678 12.022 10.67C12.0329 10.662 12.0415 10.6514 12.047 10.6391C12.0525 10.6268 12.0547 10.6133 12.0534 10.5999C12.0522 10.5865 12.0475 10.5737 12.0398 10.5626C11.4221 9.67355 11.0595 8.63241 10.9911 7.55198L10.8438 5.19598C10.815 4.7366 10.6121 4.30548 10.2766 3.99039C9.94109 3.67529 9.49809 3.49992 9.0378 3.49998H6.9618ZM7.9998 13.5C7.5398 13.5 7.16647 13.1266 7.16647 12.6666V12.1666H8.83314V12.6666C8.83314 13.1266 8.4598 13.5 7.9998 13.5Z" fill="black"/>
<path d="M11.762 0.903344C11.6621 0.990526 11.601 1.1138 11.592 1.24607C11.583 1.37834 11.6269 1.50877 11.714 1.60868L12.5753 2.59534C12.9095 2.97852 13.0983 3.46702 13.1087 3.97534L13.1467 5.78668C13.1494 5.91929 13.2047 6.04537 13.3004 6.1372C13.3961 6.22903 13.5244 6.27909 13.657 6.27634C13.7896 6.2736 13.9157 6.2183 14.0075 6.12259C14.0994 6.02689 14.1494 5.89862 14.1467 5.76601L14.1087 3.95401C14.0932 3.21132 13.8171 2.49772 13.3287 1.93801L12.4673 0.951344C12.3802 0.851469 12.2569 0.790307 12.1246 0.781306C11.9923 0.772305 11.8619 0.816202 11.762 0.903344Z" fill="black"/>
</svg>
