<svg width="64" height="64" viewBox="0 0 64 64" fill="none" xmlns="http://www.w3.org/2000/svg">
<path d="M16.3856 30.9915V8.39733C16.3856 6.5232 17.9088 5 19.7829 5H48.3877L56.9445 13.6165V55.3552C56.9445 57.2293 55.4213 58.7525 53.5472 58.7525H19.7829C17.9088 58.7525 16.3856 57.2293 16.3856 55.3552V51.3232M48.3803 5V11.5035C48.3803 12.7355 49.3808 13.736 50.6128 13.736H56.9445M23.0011 13.7285H30.7141M23.0011 20.6352H41.0779M44.9531 47.5749V34.568C44.9531 32.9179 43.6165 31.5813 41.9664 31.5813H9.98667C8.33653 31.5813 7 32.9179 7 34.568V47.5749C7 49.2251 8.33653 50.5616 9.98667 50.5616H41.9664C43.6165 50.5616 44.9531 49.2251 44.9531 47.5749Z" stroke="url(#paint0_linear_4246_8731)" stroke-width="3" stroke-linecap="round" stroke-linejoin="round"/>
<path d="M12.7648 45.88V35.6982H14.9175V44.1051H19.2826V45.88H12.7648ZM29.8642 40.7891C29.8642 41.8994 29.6538 42.844 29.2328 43.6229C28.8152 44.4018 28.2452 44.9967 27.5226 45.4077C26.8034 45.8154 25.9947 46.0192 25.0965 46.0192C24.1917 46.0192 23.3796 45.8137 22.6604 45.4027C21.9412 44.9917 21.3728 44.3968 20.9551 43.6179C20.5375 42.839 20.3287 41.8961 20.3287 40.7891C20.3287 39.6788 20.5375 38.7342 20.9551 37.9553C21.3728 37.1764 21.9412 36.5831 22.6604 36.1755C23.3796 35.7645 24.1917 35.559 25.0965 35.559C25.9947 35.559 26.8034 35.7645 27.5226 36.1755C28.2452 36.5831 28.8152 37.1764 29.2328 37.9553C29.6538 38.7342 29.8642 39.6788 29.8642 40.7891ZM27.6817 40.7891C27.6817 40.0699 27.574 39.4633 27.3586 38.9695C27.1464 38.4756 26.8465 38.1011 26.4587 37.8459C26.0709 37.5907 25.6168 37.4631 25.0965 37.4631C24.5761 37.4631 24.122 37.5907 23.7343 37.8459C23.3465 38.1011 23.0449 38.4756 22.8294 38.9695C22.6173 39.4633 22.5113 40.0699 22.5113 40.7891C22.5113 41.5083 22.6173 42.1149 22.8294 42.6087C23.0449 43.1025 23.3465 43.4771 23.7343 43.7323C24.122 43.9875 24.5761 44.1151 25.0965 44.1151C25.6168 44.1151 26.0709 43.9875 26.4587 43.7323C26.8465 43.4771 27.1464 43.1025 27.3586 42.6087C27.574 42.1149 27.6817 41.5083 27.6817 40.7891ZM38.4063 38.9894C38.3367 38.7474 38.2389 38.5337 38.113 38.348C37.987 38.1591 37.8329 38 37.6506 37.8708C37.4716 37.7382 37.2661 37.6371 37.0341 37.5675C36.8054 37.4979 36.5519 37.4631 36.2735 37.4631C35.7531 37.4631 35.2957 37.5924 34.9013 37.8509C34.5102 38.1094 34.2053 38.4856 33.9865 38.9794C33.7678 39.47 33.6584 40.0699 33.6584 40.7792C33.6584 41.4884 33.7661 42.0917 33.9816 42.5888C34.197 43.086 34.5019 43.4655 34.8964 43.7273C35.2908 43.9858 35.7564 44.1151 36.2934 44.1151C36.7806 44.1151 37.1965 44.0289 37.5412 43.8566C37.8892 43.6809 38.1544 43.434 38.3367 43.1158C38.5223 42.7976 38.6151 42.4214 38.6151 41.9872L39.0526 42.0519H36.4276V40.4311H40.6883V41.7138C40.6883 42.6087 40.4993 43.3776 40.1215 44.0206C39.7437 44.6603 39.2233 45.1542 38.5604 45.5022C37.8975 45.8469 37.1385 46.0192 36.2834 46.0192C35.3289 46.0192 34.4903 45.8087 33.7678 45.3878C33.0453 44.9636 32.4818 44.362 32.0775 43.5831C31.6764 42.8009 31.4759 41.8729 31.4759 40.799C31.4759 39.9738 31.5952 39.238 31.8339 38.5917C32.0758 37.942 32.4139 37.3918 32.8481 36.9411C33.2822 36.4903 33.7877 36.1473 34.3644 35.912C34.9411 35.6766 35.5659 35.559 36.2387 35.559C36.8154 35.559 37.3523 35.6435 37.8495 35.8125C38.3466 35.9783 38.7874 36.2136 39.1719 36.5185C39.5597 36.8234 39.8762 37.1863 40.1215 37.6073C40.3668 38.0249 40.5242 38.4856 40.5938 38.9894H38.4063Z" fill="url(#paint1_linear_4246_8731)"/>
<defs>
<linearGradient id="paint0_linear_4246_8731" x1="31.9723" y1="5" x2="31.9723" y2="58.7525" gradientUnits="userSpaceOnUse">
<stop stop-color="#75CDD6"/>
<stop offset="1" stop-color="#3059AC"/>
</linearGradient>
<linearGradient id="paint1_linear_4246_8731" x1="29.3799" y1="31.88" x2="29.3799" y2="45.88" gradientUnits="userSpaceOnUse">
<stop stop-color="#75CDD6"/>
<stop offset="1" stop-color="#3059AC"/>
</linearGradient>
</defs>
</svg>
