<svg width="45" height="45" viewBox="0 0 45 45" fill="none" xmlns="http://www.w3.org/2000/svg">
<g id="Comprehensive capabilities">
<path d="M22.3342 35.65C29.3206 35.65 34.9842 29.9864 34.9842 23C34.9842 16.0136 29.3206 10.35 22.3342 10.35C15.3478 10.35 9.68422 16.0136 9.68422 23C9.68422 29.9864 15.3478 35.65 22.3342 35.65Z" stroke="#14181B" stroke-width="2" stroke-linecap="round" stroke-linejoin="round"/>
<path d="M37.4742 14.24C38.2642 15.59 38.8542 17.03 39.2442 18.51L43.3342 19.18V26.83L39.2442 27.51C38.8642 28.99 38.2642 30.42 37.4842 31.77L39.8942 35.15L34.4842 40.56L31.1142 38.14C29.7642 38.93 28.3242 39.52 26.8342 39.91L26.1542 44.01H18.5042L17.8342 39.91C16.3542 39.53 14.9142 38.94 13.5642 38.14L10.1842 40.55L4.77422 35.14L7.18422 31.76C6.39422 30.41 5.80422 28.97 5.41422 27.49L1.32422 26.82V19.17L5.41422 18.49C5.79422 17.01 6.38422 15.57 7.18422 14.22L4.77422 10.84L10.1842 5.42998L13.5642 7.83998C14.9142 7.05998 16.3442 6.46998 17.8242 6.07998L18.5042 1.97998H26.1542L26.8242 6.07998C28.3042 6.45998 29.7442 7.04998 31.0942 7.84998L34.4742 5.43998L39.8842 10.85L37.4742 14.23V14.24Z" stroke="#14181B" stroke-width="2" stroke-linecap="round" stroke-linejoin="round"/>
<path d="M29.3443 30.0074C30.9377 28.4141 29.092 23.9851 25.2219 20.115C21.3518 16.2449 16.9228 14.3992 15.3295 15.9926C13.7361 17.5859 15.5818 22.0149 19.4519 25.885C23.322 29.7551 27.751 31.6007 29.3443 30.0074Z" stroke="#14181B" stroke-width="2" stroke-linecap="round" stroke-linejoin="round"/>
<path d="M22.3342 23.87C22.8147 23.87 23.2042 23.4805 23.2042 23C23.2042 22.5195 22.8147 22.13 22.3342 22.13C21.8537 22.13 21.4642 22.5195 21.4642 23C21.4642 23.4805 21.8537 23.87 22.3342 23.87Z" stroke="#14181B" stroke-width="2" stroke-linecap="round" stroke-linejoin="round"/>
<path d="M25.2219 25.885C29.092 22.0149 30.9377 17.5859 29.3443 15.9926C27.751 14.3992 23.322 16.2449 19.4519 20.115C15.5818 23.9851 13.7361 28.4141 15.3295 30.0074C16.9228 31.6007 21.3518 29.7551 25.2219 25.885Z" stroke="#14181B" stroke-width="2" stroke-linecap="round" stroke-linejoin="round"/>
</g>
</svg>
