<svg width="54" height="54" viewBox="0 0 54 54" fill="none" xmlns="http://www.w3.org/2000/svg">
<g clip-path="url(#clip0_1434_1900)">
<g opacity="0.2">
<g filter="url(#filter0_iii_1434_1900)">
<path d="M45 0H9C4.02944 0 0 4.02944 0 9V45C0 49.9706 4.02944 54 9 54H45C49.9706 54 54 49.9706 54 45V9C54 4.02944 49.9706 0 45 0Z" fill="white" fill-opacity="0.01"/>
</g>
</g>
<path d="M27.05 38.1C33.705 38.1 39.1 32.705 39.1 26.05C39.1 19.395 33.705 14 27.05 14C20.395 14 15 19.395 15 26.05C15 32.705 20.395 38.1 27.05 38.1Z" fill="black"/>
<g filter="url(#filter1_f_1434_1900)">
<path d="M29.9799 37.1316C29.9799 36.7516 29.9999 35.4816 29.9999 33.9016C29.9999 32.8016 29.6099 32.0716 29.1899 31.7216C31.8599 31.4316 34.6699 30.4316 34.6699 25.9016C34.6699 24.6116 34.1999 23.5616 33.4399 22.7416C33.5599 22.4416 33.9599 21.2416 33.3199 19.6216C33.3199 19.6216 32.3199 19.3016 30.0299 20.8316C29.0699 20.5716 28.0499 20.4416 27.0299 20.4316C26.0099 20.4316 24.9899 20.5716 24.0299 20.8316C21.7399 19.3116 20.7299 19.6216 20.7299 19.6216C20.0799 21.2416 20.4899 22.4416 20.6299 22.7416C19.8599 23.5616 19.3999 24.6216 19.3999 25.9016C19.3999 30.4216 22.1999 31.4316 24.8699 31.7316C24.5299 32.0216 24.2199 32.5416 24.1099 33.3116C23.4199 33.6116 21.6899 34.1316 20.6199 32.3316C20.6199 32.3316 19.9899 31.2016 18.7799 31.1116C18.7799 31.1116 17.6099 31.1016 18.6999 31.8316C18.6999 31.8316 19.4899 32.1916 20.0399 33.5616C20.0399 33.5616 20.7399 35.8516 24.0799 35.1416C24.0799 36.1216 24.0899 36.8716 24.0899 37.1516C24.0899 37.3416 23.9999 37.5416 23.7999 37.6516C24.8399 37.9416 25.9299 38.1116 27.0699 38.1116C28.2099 38.1116 29.2999 37.9416 30.3399 37.6516C30.1099 37.5516 29.9999 37.3416 29.9999 37.1416L29.9799 37.1316Z" fill="white"/>
</g>
<path d="M29.9799 37.1316C29.9799 36.7516 29.9999 35.4816 29.9999 33.9016C29.9999 32.8016 29.6099 32.0716 29.1899 31.7216C31.8599 31.4316 34.6699 30.4316 34.6699 25.9016C34.6699 24.6116 34.1999 23.5616 33.4399 22.7416C33.5599 22.4416 33.9599 21.2416 33.3199 19.6216C33.3199 19.6216 32.3199 19.3016 30.0299 20.8316C29.0699 20.5716 28.0499 20.4416 27.0299 20.4316C26.0099 20.4316 24.9899 20.5716 24.0299 20.8316C21.7399 19.3116 20.7299 19.6216 20.7299 19.6216C20.0799 21.2416 20.4899 22.4416 20.6299 22.7416C19.8599 23.5616 19.3999 24.6216 19.3999 25.9016C19.3999 30.4216 22.1999 31.4316 24.8699 31.7316C24.5299 32.0216 24.2199 32.5416 24.1099 33.3116C23.4199 33.6116 21.6899 34.1316 20.6199 32.3316C20.6199 32.3316 19.9899 31.2016 18.7799 31.1116C18.7799 31.1116 17.6099 31.1016 18.6999 31.8316C18.6999 31.8316 19.4899 32.1916 20.0399 33.5616C20.0399 33.5616 20.7399 35.8516 24.0799 35.1416C24.0799 36.1216 24.0899 36.8716 24.0899 37.1516C24.0899 37.3416 23.9999 37.5416 23.7999 37.6516C24.8399 37.9416 25.9299 38.1116 27.0699 38.1116C28.2099 38.1116 29.2999 37.9416 30.3399 37.6516C30.1099 37.5516 29.9999 37.3416 29.9999 37.1416L29.9799 37.1316Z" fill="white"/>
</g>
<defs>
<filter id="filter0_iii_1434_1900" x="-1" y="-2" width="58" height="57" filterUnits="userSpaceOnUse" color-interpolation-filters="sRGB">
<feFlood flood-opacity="0" result="BackgroundImageFix"/>
<feBlend mode="normal" in="SourceGraphic" in2="BackgroundImageFix" result="shape"/>
<feColorMatrix in="SourceAlpha" type="matrix" values="0 0 0 0 0 0 0 0 0 0 0 0 0 0 0 0 0 0 127 0" result="hardAlpha"/>
<feOffset dx="-1"/>
<feGaussianBlur stdDeviation="4.3"/>
<feComposite in2="hardAlpha" operator="arithmetic" k2="-1" k3="1"/>
<feColorMatrix type="matrix" values="0 0 0 0 0.121569 0 0 0 0 0.12549 0 0 0 0 0.12549 0 0 0 1 0"/>
<feBlend mode="normal" in2="shape" result="effect1_innerShadow_1434_1900"/>
<feColorMatrix in="SourceAlpha" type="matrix" values="0 0 0 0 0 0 0 0 0 0 0 0 0 0 0 0 0 0 127 0" result="hardAlpha"/>
<feOffset dy="-2"/>
<feGaussianBlur stdDeviation="3.25"/>
<feComposite in2="hardAlpha" operator="arithmetic" k2="-1" k3="1"/>
<feColorMatrix type="matrix" values="0 0 0 0 1 0 0 0 0 1 0 0 0 0 1 0 0 0 1 0"/>
<feBlend mode="normal" in2="effect1_innerShadow_1434_1900" result="effect2_innerShadow_1434_1900"/>
<feColorMatrix in="SourceAlpha" type="matrix" values="0 0 0 0 0 0 0 0 0 0 0 0 0 0 0 0 0 0 127 0" result="hardAlpha"/>
<feOffset dx="3" dy="1"/>
<feGaussianBlur stdDeviation="3.75"/>
<feComposite in2="hardAlpha" operator="arithmetic" k2="-1" k3="1"/>
<feColorMatrix type="matrix" values="0 0 0 0 0.181548 0 0 0 0 0.181548 0 0 0 0 0.181548 0 0 0 0.99 0"/>
<feBlend mode="normal" in2="effect2_innerShadow_1434_1900" result="effect3_innerShadow_1434_1900"/>
</filter>
<filter id="filter1_f_1434_1900" x="14.9354" y="16.2938" width="23.0346" height="25.1176" filterUnits="userSpaceOnUse" color-interpolation-filters="sRGB">
<feFlood flood-opacity="0" result="BackgroundImageFix"/>
<feBlend mode="normal" in="SourceGraphic" in2="BackgroundImageFix" result="shape"/>
<feGaussianBlur stdDeviation="1.65" result="effect1_foregroundBlur_1434_1900"/>
</filter>
<clipPath id="clip0_1434_1900">
<rect width="54" height="54" fill="white"/>
</clipPath>
</defs>
</svg>
