<svg width="46" height="46" viewBox="0 0 46 46" fill="none" xmlns="http://www.w3.org/2000/svg">
<path d="M45.5 22.988C45.5 35.4075 35.4267 45.4759 23 45.4759C10.5733 45.4759 0.5 35.4075 0.5 22.988C0.5 10.5685 10.5733 0.5 23 0.5C35.4267 0.5 45.5 10.5685 45.5 22.988Z" fill="black" stroke="white"/>
<path d="M28.0942 44.1301V44.4391L28.1674 44.4757C28.1957 44.6072 28.2413 44.7366 28.3044 44.8596C26.6153 45.2672 24.8607 45.4996 23.0399 45.4996C21.1942 45.4996 19.4168 45.2608 17.7064 44.8428C17.8054 44.6252 17.8519 44.392 17.8519 44.1682C17.8519 43.9801 17.8495 43.6821 17.8465 43.2964C17.8452 43.1294 17.8438 42.9461 17.8423 42.7481C17.8376 42.0906 17.8328 41.2668 17.8328 40.3337V39.7163L17.2289 39.8446C14.17 40.4945 12.4015 39.7623 11.4027 38.9471C10.8934 38.5316 10.564 38.0781 10.3627 37.7304C10.2622 37.5568 10.1943 37.4108 10.1526 37.3112C10.1317 37.2615 10.1174 37.2235 10.1089 37.1996C10.1046 37.1877 10.1018 37.1794 10.1003 37.1749L10.0995 37.1727L10.0994 37.1721L10.0992 37.1714L10.0992 37.1714L10.099 37.1711L10.0935 37.1529L10.0856 37.1331C9.53462 35.7615 8.85616 34.8785 8.29918 34.3323C8.02135 34.0598 7.77545 33.8728 7.59336 33.7513C7.50235 33.6906 7.42735 33.6464 7.37233 33.616C7.34988 33.6036 7.33076 33.5935 7.31523 33.5856C7.08467 33.4297 6.9257 33.3018 6.81973 33.1999C6.81422 33.1946 6.80889 33.1894 6.80376 33.1844C6.84943 33.1754 6.90068 33.1675 6.95629 33.1612C7.02964 33.1529 7.09607 33.149 7.14399 33.1471C7.16773 33.1462 7.18636 33.1458 7.19836 33.1457H7.19847C8.19015 33.225 8.95857 33.7267 9.49416 34.236C9.76224 34.4909 9.9651 34.7415 10.1002 34.9274C10.1675 35.0201 10.2174 35.0958 10.2496 35.1468C10.2656 35.1723 10.2772 35.1915 10.2843 35.2035L10.2916 35.2159L10.292 35.2166L10.2918 35.2167L10.2989 35.2286C11.4053 37.0889 12.8881 37.7849 14.2875 37.9082C15.6536 38.0285 16.8987 37.6013 17.5893 37.3011L17.8455 37.1898L17.885 36.9133C18.0811 35.5415 18.6254 34.6689 19.1651 34.2089L20.0432 33.4603L18.8965 33.3315C16.3761 33.0485 13.8863 32.4373 12.0278 30.901C10.1951 29.386 8.90002 26.9054 8.90002 22.7064C8.90002 20.3946 9.72757 18.4941 11.1121 17.0204L11.3441 16.7735L11.2008 16.4665C10.9847 16.0037 10.2705 13.9759 11.2997 11.1798C11.309 11.1793 11.3186 11.1788 11.3285 11.1784C11.5342 11.1701 11.8707 11.1828 12.3467 11.2822C13.2995 11.481 14.8157 12.0278 16.961 13.4509L17.1495 13.5761L17.368 13.5169C19.1578 13.0324 21.06 12.7714 22.961 12.7712C24.8688 12.7901 26.7722 13.0333 28.559 13.5169L28.7783 13.5763L28.9673 13.4501C31.1126 12.0175 32.6234 11.4715 33.5701 11.2752C34.0431 11.1771 34.3762 11.1661 34.5793 11.1756C34.5883 11.176 34.5971 11.1765 34.6056 11.177C35.6195 13.9732 34.9276 16.0088 34.7342 16.4922L34.6166 16.786L34.8317 17.018C36.2016 18.4953 37.0461 20.3787 37.0461 22.7064C37.0461 26.9148 35.7463 29.3948 33.9097 30.9049C32.0471 32.4365 29.5529 33.0386 27.0324 33.3122L25.8609 33.4394L26.7663 34.1935C27.4288 34.7452 28.1324 35.9819 28.1324 37.9681C28.1324 39.4732 28.1229 40.8308 28.1133 41.9031C28.1101 42.2671 28.1068 42.5991 28.104 42.893C28.0984 43.4624 28.0942 43.889 28.0942 44.1301ZM6.6004 33.249C6.60036 33.249 6.60098 33.2486 6.60238 33.2477C6.60114 33.2486 6.60044 33.2491 6.6004 33.249Z" fill="white" stroke="white"/>
</svg>
