<svg width="346" height="1080" viewBox="0 0 346 1080" fill="none" xmlns="http://www.w3.org/2000/svg">
<g clip-path="url(#clip0_3169_44651)">
<mask id="path-1-outside-1_3169_44651" maskUnits="userSpaceOnUse" x="0" y="0" width="346" height="1080" fill="black">
<rect fill="white" width="346" height="1080"/>
<path d="M0 18C0 9.16341 7.16344 2 16 2H330C338.837 2 346 9.16344 346 18V1064C346 1072.84 338.837 1080 330 1080H16C7.16344 1080 0 1072.84 0 1064V18Z"/>
</mask>
<path d="M0 18C0 9.16341 7.16344 2 16 2H330C338.837 2 346 9.16344 346 18V1064C346 1072.84 338.837 1080 330 1080H16C7.16344 1080 0 1072.84 0 1064V18Z" fill="url(#paint0_linear_3169_44651)" fill-opacity="0.8"/>
<g filter="url(#filter0_f_3169_44651)">
<ellipse cx="192.5" cy="388" rx="289.5" ry="386" fill="url(#paint1_linear_3169_44651)" fill-opacity="0.2"/>
</g>
</g>
<path d="M0 18C0 8.05887 8.05887 0 18 0H328C337.941 0 346 8.05887 346 18C346 10.268 338.837 4 330 4H16C7.16344 4 0 10.268 0 18ZM346 1080H0H346ZM0 1080V2V1080ZM346 2V1080V2Z" fill="url(#paint2_radial_3169_44651)" mask="url(#path-1-outside-1_3169_44651)"/>
<defs>
<filter id="filter0_f_3169_44651" x="-217" y="-118" width="819" height="1012" filterUnits="userSpaceOnUse" color-interpolation-filters="sRGB">
<feFlood flood-opacity="0" result="BackgroundImageFix"/>
<feBlend mode="normal" in="SourceGraphic" in2="BackgroundImageFix" result="shape"/>
<feGaussianBlur stdDeviation="60" result="effect1_foregroundBlur_3169_44651"/>
</filter>
<linearGradient id="paint0_linear_3169_44651" x1="173" y1="324.289" x2="173" y2="1080" gradientUnits="userSpaceOnUse">
<stop stop-color="#010101" stop-opacity="0.6"/>
<stop offset="1" stop-color="#010101"/>
</linearGradient>
<linearGradient id="paint1_linear_3169_44651" x1="192.5" y1="56.1341" x2="192.5" y2="644.81" gradientUnits="userSpaceOnUse">
<stop offset="0.005" stop-color="#7D674A"/>
<stop offset="0.175" stop-color="#6C4921"/>
<stop offset="0.41" stop-color="#523517"/>
<stop offset="0.715" stop-color="#326A87"/>
<stop offset="1"/>
</linearGradient>
<radialGradient id="paint2_radial_3169_44651" cx="0" cy="0" r="1" gradientUnits="userSpaceOnUse" gradientTransform="translate(173 541) rotate(-106.433) scale(780.315 329.678)">
<stop stop-color="white"/>
<stop offset="1" stop-color="white" stop-opacity="0"/>
</radialGradient>
<clipPath id="clip0_3169_44651">
<path d="M0 18C0 9.16341 7.16344 2 16 2H330C338.837 2 346 9.16344 346 18V1064C346 1072.84 338.837 1080 330 1080H16C7.16344 1080 0 1072.84 0 1064V18Z" fill="white"/>
</clipPath>
</defs>
</svg>
