<svg width="168" height="104" viewBox="0 0 168 104" fill="none" xmlns="http://www.w3.org/2000/svg">
<path d="M9.31972 46.543C9.22292 46.1396 9.24562 45.7136 9.29948 45.4919C9.4362 44.8542 9.86905 44.143 11.1312 44.143C12.3018 44.143 12.9912 44.8706 12.9912 45.9608C12.9912 46.3305 12.9912 47.1995 12.9912 47.1995H17.9833V45.7937C17.9833 41.4401 14.0578 40.7461 11.228 40.7461C7.67308 40.7461 4.76808 41.9262 4.2368 45.1944C4.0916 46.0915 4.06645 46.8809 4.27672 47.8921C5.14351 51.9841 12.2564 53.1672 13.2914 55.7564C13.4853 56.2377 13.4265 56.8559 13.3305 57.2343C13.1664 57.9073 12.7147 58.5862 11.376 58.5862C10.1255 58.5862 9.37769 57.8578 9.37769 56.7638L9.37058 54.8382H4V56.3684C4 60.8432 7.51449 62.189 11.2756 62.189C14.8915 62.189 17.8613 60.9566 18.3459 57.607C18.5865 55.8806 18.406 54.757 18.3248 54.331C17.4799 50.1299 9.88929 48.8858 9.31972 46.543ZM74.4095 46.5919C74.3203 46.1965 74.3463 45.7768 74.3923 45.5572C74.5353 44.9166 74.9659 44.2179 76.2062 44.2179C77.3621 44.2179 78.0396 44.9384 78.0396 46.0201C78.0396 46.3852 78.0396 47.244 78.0396 47.244H82.9741V45.849C82.9741 41.5366 79.1079 40.859 76.3088 40.859C72.7833 40.859 69.9043 42.0211 69.3785 45.266C69.2393 46.1492 69.2052 46.9329 69.4261 47.9334C70.2833 51.9792 77.3271 53.153 78.3492 55.7116C78.5296 56.1961 78.478 56.8143 78.3858 57.1783C78.2327 57.8441 77.7848 58.514 76.457 58.514C75.2115 58.514 74.4617 57.7982 74.4617 56.7189L74.4603 54.798H69.1491V56.3252C69.1491 60.7491 72.6144 62.084 76.3468 62.084C79.9214 62.084 82.8737 60.8626 83.3473 57.5513C83.5732 55.8406 83.4028 54.7261 83.312 54.3067C82.4846 50.1564 74.9774 48.9085 74.4095 46.5919ZM119.856 57.4971L115.142 41.3835H107.715V61.1888H112.628L112.343 44.5594L117.404 61.1888H124.528V41.3835H119.582L119.856 57.4971ZM25.4271 41.3835L21.7195 61.3974H27.1259L29.9196 42.8696L32.6464 61.3974H38.0153L34.3236 41.3835H25.4271ZM55.6574 41.3835L53.1325 57.0282L50.609 41.3835H42.4439L42.011 61.3974H47.0133L47.1486 42.8696L50.5904 61.3974H55.6654L59.1101 42.8696L59.246 61.3974H64.2609L63.813 41.3835H55.6574ZM102.166 41.3835H97.1039V56.1895C97.1119 56.4474 97.1039 56.7372 97.0594 56.95C96.9538 57.4471 96.5327 58.4036 95.136 58.4036C93.7576 58.4036 93.3253 57.4471 93.2277 56.95C93.1768 56.7375 93.1708 56.4474 93.1768 56.1895V41.3835H88.1166V55.7302C88.1103 56.0999 88.1393 56.8556 88.1612 57.0533C88.5104 60.792 91.4566 62.0055 95.136 62.0055C98.8222 62.0055 101.767 60.7918 102.123 57.0533C102.151 56.8556 102.187 56.0999 102.166 55.7302L102.166 41.3835ZM136.92 50.1635V53.0825H138.972V55.9787C138.978 56.2374 138.964 56.5163 138.919 56.74C138.838 57.28 138.325 58.1998 136.869 58.1998C135.421 58.1998 134.917 57.28 134.83 56.74C134.793 56.5166 134.777 56.2374 134.777 55.9787V46.8314C134.777 46.508 134.799 46.1539 134.868 45.8859C134.967 45.3981 135.4 44.4369 136.858 44.4369C138.389 44.4369 138.771 45.4506 138.859 45.8859C138.916 46.1741 138.92 46.6581 138.92 46.6581V47.7685H143.96V47.112C143.96 47.112 143.983 46.4267 143.922 45.7875C143.543 42.0332 140.45 40.8453 136.902 40.8453C133.349 40.8453 130.318 42.0441 129.877 45.7875C129.837 46.1298 129.776 46.7456 129.776 47.112V55.5265C129.776 55.8929 129.788 56.1767 129.856 56.8463C130.185 60.4975 133.349 61.7917 136.888 61.7917C140.449 61.7917 143.592 60.4975 143.926 56.8463C143.986 56.1767 143.992 55.8929 144 55.5265V50.1638L136.92 50.1635Z" fill="#A7A9AB"/>
</svg>
