<svg width="233" height="48" viewBox="0 0 233 48" fill="none" xmlns="http://www.w3.org/2000/svg">
<path d="M39.5095 23.9998C39.5095 24.4818 39.4855 24.9595 39.4443 25.4328H30.5464L29.8671 24.0542L25.0341 33.7049L21.0342 22.1675L18.3084 31.1755L14.6646 25.4328H8.38834C8.34711 24.9595 8.32324 24.4818 8.32324 23.9998C8.32324 23.5179 8.34711 23.038 8.38834 22.5647H16.2467L17.3839 24.3581L20.8607 12.8857L25.5158 26.3468L29.8888 17.608L32.3195 22.5647H39.4378C39.4811 23.038 39.5095 23.5244 39.5095 23.9998Z" fill="white"/>
<path d="M47.8276 23.999C47.5501 24.7849 47.0358 25.4654 46.3556 25.9466C45.6754 26.4278 44.8629 26.6864 44.0298 26.6864C43.1966 26.6864 42.3841 26.4278 41.7039 25.9466C41.0237 25.4654 40.5093 24.7849 40.2319 23.999C40.2307 19.6702 38.5115 15.5189 35.452 12.4577C32.3925 9.39648 28.2431 7.67592 23.916 7.67421C24.7017 7.39657 25.3817 6.88207 25.8629 6.2016C26.3439 5.52114 26.6023 4.70816 26.6023 3.87469C26.6023 3.04122 26.3439 2.22826 25.8629 1.54779C25.3817 0.867324 24.7017 0.352833 23.916 0.0751953C27.0564 0.0751953 30.1659 0.694019 33.0671 1.89633C35.9684 3.09864 38.6045 4.86089 40.8249 7.08246C43.0453 9.30403 44.8065 11.9414 46.008 14.8439C47.2097 17.7465 47.8279 20.8574 47.8276 23.999Z" fill="url(#paint0_linear_826_578)"/>
<path d="M47.8273 23.9995C47.8275 27.1409 47.2093 30.2517 46.0078 33.1541C44.8061 36.0565 43.0449 38.6939 40.8245 40.9152C38.6039 43.1367 35.9678 44.8987 33.0666 46.1007C30.1655 47.3029 27.056 47.9213 23.9158 47.9211C23.1301 47.6434 22.4501 47.129 21.9689 46.4484C21.4879 45.7681 21.2295 44.955 21.2295 44.1215C21.2295 43.2882 21.4879 42.4751 21.9689 41.7947C22.4501 41.1142 23.1301 40.5997 23.9158 40.322C26.0591 40.3224 28.1816 39.9002 30.1619 39.0799C32.1422 38.2594 33.9415 37.0569 35.4572 35.5408C36.9728 34.0246 38.1752 32.2248 38.9955 30.2436C39.8158 28.2626 40.238 26.1393 40.238 23.9951C40.5155 24.7809 41.0298 25.4613 41.71 25.9427C42.3902 26.4239 43.2029 26.6825 44.036 26.6825C44.869 26.6825 45.6817 26.4239 46.3619 25.9427C47.0421 25.4613 47.5563 24.7809 47.8338 23.9951L47.8273 23.9995Z" fill="url(#paint1_linear_826_578)"/>
<path d="M26.5941 3.92897C26.5802 4.75134 26.3165 5.55003 25.8382 6.21898C25.3599 6.88792 24.6894 7.39545 23.9159 7.67421C21.7726 7.67421 19.6502 8.09659 17.67 8.91722C15.6898 9.73787 13.8906 10.9407 12.3751 12.457C10.8596 13.9734 9.65751 15.7735 8.83747 17.7546C8.01744 19.7357 7.59551 21.8592 7.5958 24.0034C7.31829 23.2176 6.804 22.537 6.12383 22.0558C5.44364 21.5744 4.63102 21.316 3.79791 21.316C2.96478 21.316 2.15216 21.5744 1.47198 22.0558C0.791794 22.537 0.277522 23.2176 8.86561e-07 24.0034C-0.000854409 20.861 0.617148 17.7493 1.81871 14.8459C3.02027 11.9426 4.78183 9.30453 7.00277 7.08246C9.2237 4.86038 11.8605 3.09783 14.7625 1.8955C17.6645 0.693172 20.775 0.0746257 23.9159 0.0751957C24.7068 0.36028 25.3893 0.884375 25.8693 1.57487C26.349 2.26537 26.6024 3.08806 26.5941 3.92897Z" fill="url(#paint2_linear_826_578)"/>
<path d="M23.9154 47.9206C17.5737 47.9206 11.4917 45.4002 7.00744 40.9141C2.52315 36.4279 0.00390625 30.3434 0.00390625 23.9989C0.281427 23.2131 0.795699 22.5325 1.47588 22.0513C2.15606 21.5701 2.96868 21.3115 3.80181 21.3115C4.63492 21.3115 5.44755 21.5701 6.12773 22.0513C6.80792 22.5325 7.32219 23.2131 7.5997 23.9989C7.5997 28.329 9.31913 32.4819 12.3798 35.5439C13.8952 37.0599 15.6943 38.2627 17.6744 39.0831C19.6544 39.9036 21.7766 40.326 23.9197 40.326C23.1343 40.6035 22.4541 41.1181 21.9731 41.7985C21.492 42.479 21.2336 43.2919 21.2336 44.1254C21.2336 44.9589 21.492 45.7718 21.9731 46.4524C22.4541 47.1328 23.1343 47.6474 23.9197 47.9249L23.9154 47.9206Z" fill="url(#paint3_linear_826_578)"/>
<path fill-rule="evenodd" clip-rule="evenodd" d="M160.907 20.6139C160.936 20.7352 160.993 20.8479 161.074 20.9425C161.155 21.0373 161.257 21.1113 161.373 21.1583L168.053 24.1786C168.506 24.3834 168.917 24.6725 169.262 25.0303C169.912 25.6495 170.307 26.4895 170.369 27.3851C170.389 27.7834 170.355 28.1826 170.267 28.5718C170.192 28.9067 170.069 29.2294 169.904 29.5304C169.564 30.1584 169.064 30.6856 168.456 31.0598C167.848 31.4339 167.152 31.6416 166.438 31.662H158.595C158.553 31.662 158.513 31.6452 158.483 31.6156C158.454 31.5859 158.437 31.5457 158.437 31.5036V28.7113C158.437 28.6695 158.454 28.6292 158.483 28.5996C158.513 28.5698 158.553 28.5532 158.595 28.5532H166.429C166.614 28.5595 166.794 28.4988 166.938 28.3825C167.081 28.2663 167.178 28.1021 167.211 27.9203C167.236 27.8053 167.236 27.6863 167.211 27.5713C167.182 27.4494 167.126 27.3358 167.045 27.2403C166.964 27.1448 166.861 27.07 166.745 27.0222L160.065 24.0018C159.613 23.7971 159.203 23.5098 158.856 23.1548C158.207 22.5335 157.814 21.6919 157.753 20.7954C157.73 20.3972 157.763 19.9978 157.851 19.6087C157.927 19.2732 158.05 18.9503 158.218 18.65C158.557 18.0219 159.056 17.4942 159.663 17.12C160.271 16.7458 160.966 16.5384 161.679 16.5186H169.495C169.537 16.5186 169.577 16.5352 169.607 16.5649C169.636 16.5946 169.653 16.6348 169.653 16.6768V19.4691C169.653 19.4899 169.649 19.5104 169.641 19.5296C169.633 19.5487 169.621 19.5662 169.607 19.5809C169.592 19.5957 169.575 19.6072 169.555 19.6152C169.536 19.6231 169.516 19.6273 169.495 19.6273H161.679C161.495 19.621 161.315 19.6809 161.172 19.7961C161.029 19.9115 160.931 20.0745 160.898 20.2556C160.872 20.3721 160.872 20.4927 160.898 20.6092L160.907 20.6139ZM209.14 26.8871L204.566 16.5977C204.553 16.5696 204.533 16.5457 204.508 16.5291C204.483 16.5125 204.452 16.504 204.422 16.5046H201.356C201.328 16.504 201.303 16.5106 201.28 16.5237C201.254 16.5368 201.235 16.5559 201.222 16.5791C201.209 16.6019 201.202 16.6275 201.202 16.6535C201.202 16.6796 201.209 16.7052 201.222 16.728L207.85 31.5688C207.863 31.597 207.883 31.6208 207.908 31.6374C207.934 31.654 207.964 31.6625 207.995 31.662H210.604C210.635 31.6625 210.665 31.654 210.691 31.6374C210.716 31.6208 210.736 31.597 210.749 31.5688L217.471 16.7373C217.484 16.7145 217.491 16.6889 217.491 16.6629C217.491 16.6368 217.484 16.6112 217.471 16.5884C217.457 16.5648 217.437 16.5455 217.413 16.5323C217.39 16.5192 217.363 16.5129 217.336 16.5139H214.27C214.239 16.5133 214.21 16.5219 214.185 16.5384C214.158 16.555 214.138 16.5789 214.125 16.607L209.474 26.8871C209.459 26.9198 209.436 26.9474 209.407 26.9664C209.376 26.9855 209.342 26.9952 209.306 26.9942C209.272 26.994 209.237 26.9839 209.207 26.9649C209.178 26.946 209.154 26.919 209.14 26.8871ZM190.475 31.4944C190.475 31.5363 190.493 31.5766 190.522 31.6062C190.55 31.636 190.592 31.6526 190.634 31.6526H193.425C193.467 31.6526 193.506 31.636 193.537 31.6062C193.566 31.5766 193.582 31.5363 193.582 31.4944V24.2857C193.584 24.0253 193.606 23.7655 193.647 23.5085C193.833 22.4074 194.402 21.4075 195.252 20.6859C196.105 19.9644 197.184 19.5679 198.3 19.5668H198.808C198.847 19.5668 198.887 19.5505 198.916 19.5218C198.945 19.4929 198.961 19.4539 198.961 19.4133V16.6489C198.961 16.6077 198.945 16.5682 198.916 16.5386C198.887 16.5091 198.847 16.4919 198.808 16.4907H198.3C196.394 16.4896 194.554 17.1853 193.124 18.4469C191.695 19.7085 190.776 21.449 190.54 23.341C190.502 23.6622 190.482 23.9854 190.48 24.309V31.5036L190.475 31.4944ZM128.86 16.0858C129.504 16.0051 130.155 16.0051 130.8 16.0858C132.69 16.3224 134.428 17.2413 135.689 18.6697C136.949 20.0984 137.645 21.9381 137.645 23.8437C137.645 25.749 136.949 27.5888 135.689 29.0174C134.428 30.4459 132.69 31.3648 130.8 31.6015C130.155 31.682 129.504 31.682 128.86 31.6015C126.97 31.3648 125.231 30.4459 123.971 29.0174C122.71 27.5888 122.015 25.749 122.015 23.8437C122.015 21.9381 122.71 20.0984 123.971 18.6697C125.231 17.2413 126.97 16.3224 128.86 16.0858ZM130.669 19.1991H130.609C130.352 19.1565 130.092 19.1347 129.832 19.134C129.57 19.1349 129.309 19.1567 129.05 19.1991C127.949 19.3761 126.946 19.938 126.219 20.7851C125.492 21.6319 125.089 22.7092 125.081 23.8254C125.073 24.9415 125.461 26.0242 126.176 26.8813C126.891 27.7385 127.886 28.3143 128.985 28.5066H129.05C129.309 28.5492 129.57 28.5709 129.832 28.5718C130.092 28.571 130.352 28.5494 130.609 28.5066C131.71 28.3291 132.713 27.7668 133.44 26.9194C134.166 26.072 134.568 24.9946 134.576 23.8785C134.583 22.7624 134.194 21.6798 133.479 20.8232C132.764 19.9664 131.768 19.3909 130.669 19.1991ZM146.733 16.0858C146.034 16.1706 145.35 16.3507 144.7 16.621C144.671 16.6328 144.647 16.6528 144.629 16.6784C144.612 16.7041 144.602 16.7343 144.602 16.7652V19.9577C144.603 19.9868 144.611 20.0149 144.626 20.0395C144.642 20.0641 144.664 20.0839 144.689 20.0969C144.715 20.1099 144.744 20.1155 144.773 20.1132C144.802 20.1106 144.83 20.1004 144.853 20.0834C145.461 19.6226 146.171 19.316 146.923 19.1898C147.18 19.1471 147.44 19.1253 147.7 19.1248C147.962 19.1257 148.223 19.1473 148.482 19.1898H148.542C149.641 19.3817 150.637 19.957 151.352 20.8138C152.067 21.6706 152.456 22.753 152.448 23.8691C152.441 24.9854 152.039 26.0628 151.313 26.91C150.586 27.7574 149.583 28.3199 148.482 28.4974C148.223 28.5398 147.962 28.5617 147.7 28.5626C147.44 28.5618 147.18 28.54 146.923 28.4974H146.858C145.769 28.3004 144.784 27.726 144.077 26.875C143.369 26.024 142.983 24.9507 142.988 23.8437V11.9951C142.988 11.9532 142.971 11.9129 142.941 11.8833C142.912 11.8536 142.872 11.8369 142.83 11.8369H140.038C139.996 11.8369 139.956 11.8536 139.927 11.8833C139.897 11.9129 139.88 11.9532 139.88 11.9951V23.8437C139.88 25.7493 140.576 27.5897 141.837 29.0181C143.098 30.4468 144.838 31.3655 146.728 31.6015C147.372 31.682 148.024 31.682 148.668 31.6015C150.558 31.3648 152.296 30.4459 153.557 29.0174C154.817 27.5888 155.513 25.749 155.513 23.8437C155.513 21.9381 154.817 20.0984 153.557 18.6697C152.296 17.2413 150.558 16.3224 148.668 16.0858C148.024 16.0051 147.372 16.0051 146.728 16.0858H146.733ZM183.754 27.1803C183.247 27.6879 182.631 28.073 181.954 28.3065H181.91C181.166 28.5552 180.37 28.6133 179.597 28.4761C178.823 28.3387 178.097 28.01 177.482 27.52C176.868 27.0263 176.389 26.3862 176.087 25.6585C175.622 24.5127 175.622 23.2305 176.087 22.0844C176.387 21.3558 176.867 20.7152 177.482 20.223C178.053 19.7656 178.722 19.4469 179.436 19.2921C180.151 19.1374 180.892 19.1509 181.6 19.3313C182.309 19.5119 182.965 19.8544 183.519 20.3322C184.074 20.81 184.509 21.4098 184.79 22.0844C184.823 22.1637 184.852 22.2428 184.879 22.3218H177.343C176.995 23.3258 176.995 24.4173 177.343 25.4213H187.968C188.006 25.4214 188.042 25.4079 188.07 25.383C188.098 25.3581 188.116 25.3238 188.122 25.2862L188.178 24.8209C188.257 24.1781 188.257 23.5277 188.178 22.8849C187.945 20.9904 187.028 19.2465 185.599 17.9816C184.169 16.7168 182.328 16.0186 180.42 16.0186C178.512 16.0186 176.67 16.7168 175.241 17.9816C173.812 19.2465 172.895 20.9904 172.663 22.8849C172.582 23.5277 172.582 24.1781 172.663 24.8209C172.845 26.2733 173.431 27.6456 174.354 28.7816C175.277 29.9175 176.5 30.7716 177.884 31.2467C179.268 31.7217 180.758 31.7988 182.183 31.4691C183.61 31.1394 184.913 30.4162 185.95 29.3816L186.307 29.0232C186.336 28.9936 186.354 28.9535 186.354 28.9116C186.354 28.8697 186.336 28.8294 186.307 28.7998L184.335 26.8313C184.321 26.8168 184.303 26.8053 184.285 26.7975C184.265 26.7896 184.245 26.7856 184.225 26.7856C184.205 26.7856 184.186 26.7896 184.166 26.7975C184.148 26.8053 184.13 26.8168 184.115 26.8313L183.754 27.1897V27.1803ZM228.514 27.1803C228.007 27.6868 227.391 28.0718 226.714 28.3065H226.673C226.191 28.4656 225.687 28.5472 225.179 28.5485C224.246 28.5468 223.336 28.2693 222.559 27.7511C221.785 27.2327 221.178 26.4967 220.82 25.6352C220.355 24.4894 220.355 23.2072 220.82 22.0613C221.124 21.334 221.602 20.6941 222.216 20.1997C223.052 19.5278 224.094 19.1618 225.167 19.1618C226.241 19.1618 227.281 19.5278 228.119 20.1997C228.731 20.6953 229.211 21.3349 229.515 22.0613C229.547 22.1404 229.576 22.2195 229.603 22.2986H222.104C221.75 23.3014 221.75 24.3951 222.104 25.398H232.729C232.767 25.3981 232.803 25.3846 232.832 25.3597C232.861 25.3348 232.879 25.3005 232.882 25.2629L232.938 24.7976C233.02 24.1548 233.02 23.5044 232.938 22.8616C232.707 20.9672 231.79 19.2232 230.36 17.9583C228.932 16.6935 227.09 15.9953 225.181 15.9953C223.274 15.9953 221.431 16.6935 220.003 17.9583C218.574 19.2232 217.657 20.9672 217.424 22.8616C217.343 23.5044 217.343 24.1548 217.424 24.7976C217.605 26.2501 218.19 27.6225 219.112 28.7588C220.035 29.895 221.257 30.7494 222.642 31.2246C224.026 31.6999 225.515 31.7768 226.942 31.4469C228.366 31.117 229.672 30.3933 230.706 29.3583L231.064 28.9999C231.078 28.9856 231.091 28.9683 231.1 28.9492C231.107 28.9298 231.113 28.9092 231.113 28.8883C231.113 28.8674 231.107 28.8466 231.1 28.8274C231.091 28.8083 231.078 28.791 231.064 28.7765L229.096 26.808C229.067 26.7784 229.027 26.762 228.984 26.762C228.942 26.762 228.903 26.7784 228.874 26.808L228.514 27.1664V27.1803Z" fill="url(#paint4_linear_826_578)"/>
<path fill-rule="evenodd" clip-rule="evenodd" d="M60.0111 16.0859C58.1211 16.3225 56.3826 17.2414 55.1221 18.6699C53.8617 20.0984 53.166 21.9383 53.166 23.8437C53.166 25.7492 53.8617 27.589 55.1221 29.0174C56.3826 30.4461 58.1211 31.365 60.0111 31.6015C60.6537 31.6822 61.3037 31.6822 61.9464 31.6015C63.8362 31.365 65.5748 30.4461 66.8352 29.0174C68.0957 27.589 68.7913 25.7492 68.7913 23.8437C68.7913 21.9383 68.0957 20.0984 66.8352 18.6699C65.5748 17.2414 63.8362 16.3225 61.9464 16.0859C61.3037 16.0052 60.6537 16.0052 60.0111 16.0859ZM61.816 19.1993C62.9151 19.3911 63.9108 19.9666 64.626 20.8232C65.341 21.68 65.7296 22.7625 65.7224 23.8785C65.715 24.9948 65.3125 26.0722 64.5862 26.9194C63.86 27.7668 62.8572 28.3293 61.7555 28.5068C61.2413 28.5938 60.716 28.5938 60.2018 28.5068H60.1368C59.0328 28.3204 58.0314 27.747 57.3116 26.8891C56.5919 26.0312 56.201 24.9451 56.2087 23.8253C56.2165 22.7054 56.6226 21.6249 57.3544 20.7771C58.0861 19.9296 59.0954 19.3702 60.2018 19.1993C60.716 19.1121 61.2413 19.1121 61.7555 19.1993H61.816Z" fill="white"/>
<path fill-rule="evenodd" clip-rule="evenodd" d="M114.02 19.697C114.772 19.8676 115.443 20.2881 115.925 20.8901C116.407 21.492 116.67 22.2395 116.672 23.0105V31.5036C116.672 31.5455 116.689 31.5858 116.718 31.6154C116.748 31.6452 116.788 31.6618 116.83 31.6618H119.621C119.663 31.6618 119.703 31.6452 119.733 31.6154C119.763 31.5858 119.779 31.5455 119.779 31.5036V23.0105C119.776 21.46 119.22 19.9615 118.211 18.7844C117.203 17.6073 115.807 16.8286 114.276 16.5883C113.948 16.5403 113.617 16.5155 113.285 16.5138C112.955 16.5153 112.626 16.5401 112.299 16.5883C110.767 16.8276 109.371 17.6058 108.361 18.7831C107.351 19.9602 106.795 21.4593 106.791 23.0105V31.5036C106.791 31.5455 106.808 31.5858 106.837 31.6154C106.867 31.6452 106.907 31.6618 106.949 31.6618H109.741C109.782 31.6618 109.823 31.6452 109.852 31.6154C109.882 31.5858 109.899 31.5455 109.899 31.5036V23.0105C109.901 22.2401 110.164 21.4932 110.646 20.8921C111.128 20.291 111.799 19.8712 112.55 19.7017C112.793 19.6459 113.041 19.6179 113.29 19.6179C113.539 19.6184 113.786 19.6448 114.03 19.697H114.02Z" fill="white"/>
<path fill-rule="evenodd" clip-rule="evenodd" d="M77.8929 16.0854C76.002 16.3204 74.2622 17.2387 73.001 18.6675C71.7397 20.0964 71.0442 21.937 71.0451 23.8433V35.6358C71.0451 35.656 71.0491 35.6759 71.0568 35.6945C71.0644 35.7133 71.0758 35.7301 71.0901 35.7443C71.1043 35.7586 71.1213 35.77 71.1399 35.7778C71.1585 35.7853 71.1785 35.7893 71.1986 35.7893H73.9898C74.0309 35.7893 74.0705 35.7734 74.1001 35.7447C74.1295 35.716 74.1467 35.677 74.1479 35.6358V23.8433C74.1481 22.7265 74.5441 21.6461 75.2656 20.7941C75.987 19.942 76.9872 19.3734 78.0882 19.1894C78.6025 19.1023 79.1278 19.1023 79.642 19.1894H79.7025C80.8016 19.3813 81.7972 19.9566 82.5123 20.8134C83.2275 21.6702 83.6159 22.7527 83.6087 23.8687C83.6014 24.985 83.199 26.0624 82.4727 26.9096C81.7465 27.757 80.7435 28.3195 79.642 28.497C79.1278 28.584 78.6025 28.584 78.0882 28.497H78.0231C77.2943 28.3675 76.6069 28.066 76.0181 27.6175C75.993 27.6017 75.9639 27.5934 75.9343 27.5934C75.9047 27.5934 75.8758 27.6017 75.8507 27.6175C75.8238 27.6294 75.801 27.649 75.7853 27.6738C75.7696 27.6987 75.7615 27.7276 75.7622 27.757V30.9494C75.7626 30.9805 75.7721 31.0106 75.7895 31.0363C75.8068 31.0619 75.8314 31.082 75.8599 31.0937C76.5114 31.3645 77.197 31.5447 77.8976 31.6289C78.54 31.7096 79.1902 31.7096 79.8327 31.6289C81.7227 31.3924 83.4612 30.4735 84.7217 29.045C85.982 27.6164 86.6777 25.7766 86.6777 23.8711C86.6777 21.9657 85.982 20.1258 84.7217 18.6973C83.4612 17.2688 81.7227 16.3499 79.8327 16.1133C79.1902 16.0327 78.54 16.0327 77.8976 16.1133L77.8929 16.0854Z" fill="white"/>
<path fill-rule="evenodd" clip-rule="evenodd" d="M100.069 27.1804C99.5604 27.6858 98.9452 28.0706 98.2682 28.3066H98.2218C97.4766 28.555 96.6811 28.6134 95.9075 28.476C95.1342 28.3385 94.4072 28.0099 93.7931 27.52C93.1709 27.0291 92.6826 26.3888 92.3742 25.6586C91.9093 24.5125 91.9093 23.2303 92.3742 22.0845C92.6767 21.357 93.1564 20.7171 93.7698 20.223C94.3404 19.7655 95.0092 19.447 95.7239 19.2922C96.4386 19.1375 97.1792 19.1508 97.8878 19.3314C98.5963 19.5118 99.2534 19.8545 99.807 20.3321C100.361 20.8099 100.796 21.4097 101.078 22.0845C101.111 22.1636 101.138 22.2426 101.166 22.3217H93.6535C93.3061 23.3257 93.3061 24.4172 93.6535 25.4211H104.279C104.316 25.4215 104.353 25.4078 104.381 25.383C104.409 25.3581 104.428 25.3236 104.432 25.2863L104.488 24.8208C104.569 24.1781 104.569 23.5277 104.488 22.8849C104.256 20.9904 103.339 19.2463 101.91 17.9817C100.481 16.7168 98.6387 16.0186 96.7309 16.0186C94.8229 16.0186 92.9807 16.7168 91.5519 17.9817C90.1229 19.2463 89.206 20.9904 88.9736 22.8849C88.8929 23.5277 88.8929 24.1781 88.9736 24.8208C89.1558 26.2734 89.7416 27.6455 90.6646 28.7815C91.5877 29.9174 92.8106 30.7715 94.1947 31.2467C95.5789 31.7218 97.0684 31.7989 98.4941 31.4692C99.9199 31.1395 101.224 30.4161 102.26 29.3815L102.618 29.0232C102.647 28.9935 102.664 28.9534 102.664 28.9115C102.664 28.8696 102.647 28.8295 102.618 28.7999L100.646 26.8314C100.631 26.8167 100.614 26.8054 100.595 26.7974C100.577 26.7897 100.557 26.7855 100.536 26.7855C100.516 26.7855 100.496 26.7897 100.477 26.7974C100.458 26.8054 100.441 26.8167 100.427 26.8314L100.069 27.1896V27.1804Z" fill="white"/>
<path d="M50.8511 16.0264H50.3721V31.6677H50.8511V16.0264Z" fill="#C4C4C4"/>
<defs>
<linearGradient id="paint0_linear_826_578" x1="23.916" y1="13.3756" x2="47.8276" y2="13.3756" gradientUnits="userSpaceOnUse">
<stop offset="0.01" stop-color="#82C2DF"/>
<stop offset="0.3" stop-color="#3CAFD9"/>
<stop offset="0.59" stop-color="#0379B8"/>
<stop offset="0.7" stop-color="#006DAC"/>
<stop offset="0.73" stop-color="#006AA9"/>
<stop offset="0.91" stop-color="#334C84"/>
<stop offset="1" stop-color="#3A447A"/>
</linearGradient>
<linearGradient id="paint1_linear_826_578" x1="23.0454" y1="44.9108" x2="55.8744" y2="20.4858" gradientUnits="userSpaceOnUse">
<stop stop-color="#0C6237"/>
<stop offset="0.406444" stop-color="#31BB77"/>
<stop offset="0.752196" stop-color="#5BC792"/>
<stop offset="0.98" stop-color="#B1E9CD"/>
</linearGradient>
<linearGradient id="paint2_linear_826_578" x1="0.00434134" y1="23.9935" x2="26.5941" y2="23.9935" gradientUnits="userSpaceOnUse">
<stop stop-color="#D1C6E0"/>
<stop offset="0.35" stop-color="#9274B2"/>
<stop offset="0.71" stop-color="#652F8D"/>
<stop offset="1" stop-color="#2B1143"/>
</linearGradient>
<linearGradient id="paint3_linear_826_578" x1="0.00390625" y1="34.6201" x2="23.9154" y2="34.6201" gradientUnits="userSpaceOnUse">
<stop stop-color="#931B1E"/>
<stop offset="0.32" stop-color="#ED4725"/>
<stop offset="0.38" stop-color="#EE5F26"/>
<stop offset="0.53" stop-color="#F08F27"/>
<stop offset="0.74" stop-color="#F5C321"/>
<stop offset="0.88" stop-color="#F8D718"/>
<stop offset="1" stop-color="#F6DF65"/>
</linearGradient>
<linearGradient id="paint4_linear_826_578" x1="60.1917" y1="21.754" x2="267.508" y2="21.754" gradientUnits="userSpaceOnUse">
<stop stop-color="#F6DF65"/>
<stop offset="0.12" stop-color="#F8D718"/>
<stop offset="0.26" stop-color="#F5C321"/>
<stop offset="0.47" stop-color="#F08F27"/>
<stop offset="0.62" stop-color="#EE5F26"/>
<stop offset="0.68" stop-color="#ED4725"/>
<stop offset="1" stop-color="#931B1E"/>
</linearGradient>
</defs>
</svg>
