<svg width="42" height="41" viewBox="0 0 42 41" fill="none" xmlns="http://www.w3.org/2000/svg">
<path id="Open Source" d="M15.4298 24.2L17.9798 21.22M17.9798 21.22L20.5298 24.2M17.9798 21.22V33.43M21.4998 36.97L24.0498 39.96M24.0498 39.96L26.5998 36.97M24.0498 39.96V27.75M35.4198 29.35L37.7198 32.57L32.9598 37.33L28.8398 28.84C33.1698 24.51 33.1698 17.49 28.8398 13.17C24.5098 8.85 17.4898 8.84 13.1598 13.17C8.82977 17.49 8.82977 24.51 13.1598 28.83L9.04977 37.32L4.28977 32.56L6.58977 29.34C5.82977 28.05 5.26977 26.68 4.90977 25.27L1.00977 24.64V17.36L4.90977 16.71C5.26977 15.3 5.82977 13.93 6.58977 12.65L4.28977 9.43L9.43976 4.28L12.6598 6.58C13.9498 5.84 15.3098 5.27 16.7198 4.91L17.3698 1H24.6498L25.2798 4.91C26.6898 5.27 28.0598 5.83 29.3498 6.59L32.5698 4.29L37.7198 9.44L35.4198 12.66C36.1798 13.95 36.7398 15.32 37.0998 16.73L40.9898 17.37V24.65L37.0998 25.29C36.7298 26.7 36.1598 28.06 35.4198 29.35Z" stroke="#14181B" stroke-width="2" stroke-linecap="round" stroke-linejoin="round"/>
</svg>
