<svg width="89" height="89" viewBox="0 0 89 89" fill="none" xmlns="http://www.w3.org/2000/svg">
<g clip-path="url(#clip0_2814_29698)">
<path d="M18.0249 44.5H70.975" stroke="white" stroke-width="3" stroke-miterlimit="10" stroke-linecap="round" stroke-linejoin="round"/>
<path d="M23.5986 50.0732H70.9751" stroke="white" stroke-width="3" stroke-miterlimit="10" stroke-linecap="round" stroke-linejoin="round"/>
<path d="M76.5488 44.5H87.6963" stroke="white" stroke-width="3" stroke-miterlimit="10" stroke-linecap="round" stroke-linejoin="round"/>
<path d="M76.5488 50.0732H87.6963" stroke="white" stroke-width="3" stroke-miterlimit="10" stroke-linecap="round" stroke-linejoin="round"/>
<path d="M1.30371 44.5H12.4511" stroke="white" stroke-width="3" stroke-miterlimit="10" stroke-linecap="round" stroke-linejoin="round"/>
<path d="M1.30371 50.0732H12.4511" stroke="white" stroke-width="3" stroke-miterlimit="10" stroke-linecap="round" stroke-linejoin="round"/>
<path d="M1.30371 69.5811C4.89882 69.5811 4.89882 70.9745 8.49376 70.9745C12.0922 70.9745 12.0922 69.5811 15.6906 69.5811C19.2869 69.5811 19.2869 70.9745 22.8831 70.9745C26.4811 70.9745 26.4811 69.5811 30.0792 69.5811C33.6789 69.5811 33.6789 70.9745 37.2785 70.9745C40.8781 70.9745 40.8781 69.5811 44.4777 69.5811C48.0774 69.5811 48.0774 70.9745 51.677 70.9745C55.2777 70.9745 55.2777 69.5811 58.8782 69.5811C62.4768 69.5811 62.4768 70.9745 66.0755 70.9745C69.6773 70.9745 69.6773 69.5811 73.2792 69.5811C76.8835 69.5811 76.8835 70.9745 80.4876 70.9745C84.092 70.9745 84.092 69.5811 87.6961 69.5811" stroke="white" stroke-width="3" stroke-miterlimit="10" stroke-linecap="round" stroke-linejoin="round"/>
<path d="M12.4512 64.0077V18.0244H18.0248V64.0077" stroke="white" stroke-width="3" stroke-miterlimit="10" stroke-linecap="round" stroke-linejoin="round"/>
<path d="M20.8117 70.5863V65.4012C20.8117 64.6317 20.1879 64.0078 19.4183 64.0078H11.0577C10.2882 64.0078 9.66431 64.6317 9.66431 65.4012V70.5863" stroke="white" stroke-width="3" stroke-miterlimit="10" stroke-linecap="round" stroke-linejoin="round"/>
<path d="M76.549 27.7786V18.0244H70.9753V64.0077" stroke="white" stroke-width="3" stroke-miterlimit="10" stroke-linecap="round" stroke-linejoin="round"/>
<path d="M76.5488 64.008V33.3525" stroke="white" stroke-width="3" stroke-miterlimit="10" stroke-linecap="round" stroke-linejoin="round"/>
<path d="M68.1882 70.5863V65.4012C68.1882 64.6317 68.8121 64.0078 69.5816 64.0078H77.9423C78.7118 64.0078 79.3357 64.6317 79.3357 65.4012V70.5863" stroke="white" stroke-width="3" stroke-miterlimit="10" stroke-linecap="round" stroke-linejoin="round"/>
<path d="M18.0249 18.0244C22.0428 28.5977 32.364 36.139 44.5 36.139C56.636 36.139 66.9572 28.5977 70.975 18.0244" stroke="white" stroke-width="3" stroke-miterlimit="10" stroke-linecap="round" stroke-linejoin="round"/>
<path d="M76.5488 18.0244C78.6946 23.6712 82.6384 28.4532 87.6961 31.6835" stroke="white" stroke-width="3" stroke-miterlimit="10" stroke-linecap="round" stroke-linejoin="round"/>
<path d="M12.4512 18.0244C10.3055 23.6712 6.36166 28.4532 1.30396 31.6835" stroke="white" stroke-width="3" stroke-miterlimit="10" stroke-linecap="round" stroke-linejoin="round"/>
<path d="M39.3198 36.1387V44.4993" stroke="white" stroke-width="3" stroke-miterlimit="10" stroke-linecap="round" stroke-linejoin="round"/>
<path d="M29.959 33.3613V44.5001" stroke="white" stroke-width="3" stroke-miterlimit="10" stroke-linecap="round" stroke-linejoin="round"/>
<path d="M60 32L60 45" stroke="white" stroke-width="3" stroke-miterlimit="10" stroke-linecap="round" stroke-linejoin="round"/>
<path d="M84 30L84 44" stroke="white" stroke-width="3" stroke-miterlimit="10" stroke-linecap="round" stroke-linejoin="round"/>
<path d="M4 31L4 44" stroke="white" stroke-width="3" stroke-miterlimit="10" stroke-linecap="round" stroke-linejoin="round"/>
<path d="M49.6802 36.1387V44.4993" stroke="white" stroke-width="3" stroke-miterlimit="10" stroke-linecap="round" stroke-linejoin="round"/>
</g>
<defs>
<clipPath id="clip0_2814_29698">
<rect width="89" height="89" fill="white"/>
</clipPath>
</defs>
</svg>
