<svg width="33" height="34" viewBox="0 0 33 34" fill="none" xmlns="http://www.w3.org/2000/svg">
<path d="M1.42 23.2C1.42 23.2 15.33 19.92 31.44 1M31.44 1V4.7M31.44 1H28.15M5.95 33H1.11V28.15H5.96V33H5.95ZM14.45 23.1H9.6V33H14.45V23.1ZM22.94 16.67H18.09V33H22.94V16.67ZM31.44 11.53H26.59V33H31.44V11.53ZM5.36 5.97C4.23 7.1 4.23 8.94 5.36 10.08C6.49 11.22 8.33 11.21 9.47 10.08C10.61 8.95 10.6 7.11 9.47 5.97C8.34 4.83 6.5 4.84 5.36 5.97ZM12.76 4.33L11.11 2.68L10.08 3.41C9.67 3.17 9.23 2.99 8.78 2.87L8.58 1.62H6.25L6.04 2.87C5.59 2.99 5.15 3.17 4.74 3.41L3.71 2.68L2.06 4.33L2.79 5.36C2.55 5.77 2.37 6.21 2.25 6.66L1 6.87V9.2L2.25 9.4C2.37 9.85 2.55 10.29 2.79 10.7L2.06 11.73L3.71 13.38L4.74 12.65C5.15 12.89 5.59 13.07 6.04 13.19L6.24 14.44H8.57L8.78 13.19C9.23 13.07 9.67 12.89 10.08 12.65L11.11 13.39L12.76 11.74L12.03 10.71C12.27 10.3 12.45 9.86 12.57 9.41L13.82 9.2V6.87L12.57 6.67C12.45 6.22 12.27 5.78 12.03 5.37L12.76 4.34V4.33Z" stroke="url(#paint0_linear_3884_199)" stroke-width="1.5" stroke-linecap="round" stroke-linejoin="round"/>
<defs>
<linearGradient id="paint0_linear_3884_199" x1="16.22" y1="1" x2="16.22" y2="33" gradientUnits="userSpaceOnUse">
<stop stop-color="#75CDD6"/>
<stop offset="1" stop-color="#3059AC"/>
</linearGradient>
</defs>
</svg>
