<svg width="36" height="37" viewBox="0 0 36 37" fill="none" xmlns="http://www.w3.org/2000/svg">
<circle cx="18" cy="18.5" r="18" fill="url(#paint0_linear_3183_30141)"/>
<path d="M24.3261 11.9349C24.3112 11.9487 24.2972 11.9635 24.2843 11.979L16.018 20.8337L12.6389 16.6434C12.3415 16.3783 11.948 16.234 11.5415 16.2409C11.135 16.2477 10.7471 16.4052 10.4596 16.6802C10.1721 16.9552 10.0074 17.3262 10.0002 17.715C9.99307 18.1038 10.144 18.4801 10.4211 18.7646L14.9572 24.0614C15.1063 24.2038 15.2839 24.316 15.4794 24.3913C15.6748 24.4666 15.8842 24.5035 16.0948 24.4997C16.3055 24.496 16.5133 24.4517 16.7057 24.3695C16.8981 24.2874 17.0712 24.1689 17.2147 24.0214L26.5669 14.0361C26.8513 13.7506 27.0068 13.3695 26.9998 12.9752C26.9927 12.581 26.8238 12.2052 26.5294 11.9291C26.235 11.6531 25.8388 11.4989 25.4265 11.5C25.0142 11.5011 24.6189 11.6573 24.3261 11.9349Z" fill="#E2E3E5"/>
<defs>
<linearGradient id="paint0_linear_3183_30141" x1="12" y1="3" x2="28.5" y2="40.5" gradientUnits="userSpaceOnUse">
<stop offset="0.115" stop-color="#343A3F"/>
<stop offset="0.905" stop-color="#1F4561"/>
</linearGradient>
</defs>
</svg>
