<svg width="43" height="42" viewBox="0 0 43 42" fill="none" xmlns="http://www.w3.org/2000/svg">
<path id="Seamless integrations" d="M27.936 10.93H35.866V18.38M38.726 15.71L35.866 18.74L33.006 15.71M18.306 35.51H10.386V28.06M7.52602 30.73L10.386 27.7L13.246 30.73M10.386 12.87L12.026 14.41L15.866 10.74M19.186 12.57C19.186 15.8561 16.5221 18.52 13.236 18.52C9.94992 18.52 7.28602 15.8561 7.28602 12.57C7.28602 9.28391 9.94992 6.62 13.236 6.62C16.5221 6.62 19.186 9.28391 19.186 12.57ZM24.816 15.11V10.04H22.626C22.406 9.22 22.086 8.45 21.676 7.73L23.226 6.18L19.636 2.59L18.086 4.14C17.366 3.73 16.596 3.41 15.776 3.19V1H10.706V3.19C9.88602 3.41 9.11602 3.73 8.39602 4.14L6.84602 2.59L3.25602 6.18L4.80602 7.73C4.39602 8.45 4.07602 9.22 3.85602 10.04H1.66602V15.11H3.85602C4.07602 15.93 4.39602 16.7 4.80602 17.42L3.25602 18.97L6.84602 22.56L8.39602 21.01C9.11602 21.42 9.88602 21.74 10.706 21.96V24.15H15.776V21.96C16.596 21.74 17.366 21.42 18.086 21.01L19.636 22.56L23.226 18.97L21.676 17.42C22.086 16.7 22.406 15.93 22.626 15.11H24.816ZM36.906 31.78C36.906 33.8069 35.2629 35.45 33.236 35.45C31.2091 35.45 29.566 33.8069 29.566 31.78C29.566 29.7531 31.2091 28.11 33.236 28.11C35.2629 28.11 36.906 29.7531 36.906 31.78ZM41.666 33.63V29.94H40.076C39.916 29.35 39.686 28.78 39.386 28.26L40.516 27.13L37.906 24.52L36.776 25.65C36.256 25.35 35.686 25.12 35.096 24.96V23.37H31.406V24.96C30.816 25.12 30.246 25.35 29.726 25.65L28.596 24.52L25.986 27.13L27.116 28.26C26.816 28.78 26.586 29.35 26.426 29.94H24.836V33.63H26.426C26.586 34.22 26.816 34.79 27.116 35.31L25.986 36.44L28.596 39.05L29.726 37.92C30.246 38.22 30.816 38.45 31.406 38.61V40.2H35.096V38.61C35.686 38.45 36.256 38.22 36.776 37.92L37.906 39.05L40.516 36.44L39.386 35.31C39.686 34.79 39.916 34.22 40.076 33.63H41.666Z" stroke="#14181B" stroke-width="2" stroke-linecap="round" stroke-linejoin="round"/>
</svg>
