<svg width="80" height="80" viewBox="0 0 80 80" fill="none" xmlns="http://www.w3.org/2000/svg">
<rect width="80" height="80" rx="40" fill="#202020" fill-opacity="0.2"/>
<rect x="0.5" y="0.5" width="79" height="79" rx="39.5" stroke="url(#paint0_linear_2646_29061)" stroke-opacity="0.5"/>
<path d="M34.43 44.2L36.98 41.22M36.98 41.22L39.53 44.2M36.98 41.22V53.43M40.5 56.97L43.05 59.96M43.05 59.96L45.6 56.97M43.05 59.96V47.75M54.42 49.35L56.72 52.57L51.96 57.33L47.84 48.84C52.17 44.51 52.17 37.49 47.84 33.17C43.51 28.85 36.49 28.84 32.16 33.17C27.83 37.49 27.83 44.51 32.16 48.83L28.05 57.32L23.29 52.56L25.59 49.34C24.83 48.05 24.27 46.68 23.91 45.27L20.01 44.64V37.36L23.91 36.71C24.27 35.3 24.83 33.93 25.59 32.65L23.29 29.43L28.44 24.28L31.66 26.58C32.95 25.84 34.31 25.27 35.72 24.91L36.37 21H43.65L44.28 24.91C45.69 25.27 47.06 25.83 48.35 26.59L51.57 24.29L56.72 29.44L54.42 32.66C55.18 33.95 55.74 35.32 56.1 36.73L59.99 37.37V44.65L56.1 45.29C55.73 46.7 55.16 48.06 54.42 49.35Z" stroke="#14181B" stroke-width="2" stroke-linecap="round" stroke-linejoin="round"/>
<defs>
<linearGradient id="paint0_linear_2646_29061" x1="0" y1="0" x2="48.9094" y2="95.8625" gradientUnits="userSpaceOnUse">
<stop stop-color="white" stop-opacity="0.4"/>
<stop offset="1" stop-color="white" stop-opacity="0"/>
</linearGradient>
</defs>
</svg>
