<svg width="54" height="54" viewBox="0 0 54 54" fill="none" xmlns="http://www.w3.org/2000/svg">
<g clip-path="url(#clip0_1284_1843)">
<g filter="url(#filter0_iii_1284_1843)">
<path d="M45 0H9C4.02944 0 0 4.02944 0 9V45C0 49.9706 4.02944 54 9 54H45C49.9706 54 54 49.9706 54 45V9C54 4.02944 49.9706 0 45 0Z" fill="white" fill-opacity="0.01"/>
</g>
<g filter="url(#filter1_f_1284_1843)">
<path d="M38.4985 21.6404C38.2225 20.6011 37.4093 19.7826 36.3766 19.5047C34.505 19 27 19 27 19C27 19 19.495 19 17.6234 19.5047C16.5907 19.7825 15.7775 20.6011 15.5015 21.6404C15 23.5242 15 27.4546 15 27.4546C15 27.4546 15 31.3849 15.5015 33.2688C15.7775 34.3081 16.5907 35.1265 17.6234 35.4044C19.495 35.9091 27 35.9091 27 35.9091C27 35.9091 34.505 35.9091 36.3766 35.4044C37.4093 35.1265 38.2225 34.3081 38.4985 33.2688C39 31.3849 39 27.4546 39 27.4546C39 27.4546 39 23.5242 38.4985 21.6404Z" fill="#FF0000" fill-opacity="0.76"/>
</g>
<path d="M38.4985 21.6404C38.2225 20.6011 37.4093 19.7826 36.3766 19.5047C34.505 19 27 19 27 19C27 19 19.495 19 17.6234 19.5047C16.5907 19.7825 15.7775 20.6011 15.5015 21.6404C15 23.5242 15 27.4546 15 27.4546C15 27.4546 15 31.3849 15.5015 33.2688C15.7775 34.3081 16.5907 35.1265 17.6234 35.4044C19.495 35.9091 27 35.9091 27 35.9091C27 35.9091 34.505 35.9091 36.3766 35.4044C37.4093 35.1265 38.2225 34.3081 38.4985 33.2688C39 31.3849 39 27.4546 39 27.4546C39 27.4546 39 23.5242 38.4985 21.6404Z" fill="#FF0000"/>
<path d="M24.5454 31.0231L30.8181 27.4547L24.5454 23.8861V31.0231Z" fill="white"/>
<g clip-path="url(#clip1_1284_1843)" filter="url(#filter2_f_1284_1843)">
<path d="M7 53.9997C12.7437 50.9814 29.1863 46.7547 49 53.9997H7Z" fill="url(#paint0_linear_1284_1843)" fill-opacity="0.79"/>
</g>
</g>
<defs>
<filter id="filter0_iii_1284_1843" x="0" y="-3" width="64" height="67" filterUnits="userSpaceOnUse" color-interpolation-filters="sRGB">
<feFlood flood-opacity="0" result="BackgroundImageFix"/>
<feBlend mode="normal" in="SourceGraphic" in2="BackgroundImageFix" result="shape"/>
<feColorMatrix in="SourceAlpha" type="matrix" values="0 0 0 0 0 0 0 0 0 0 0 0 0 0 0 0 0 0 127 0" result="hardAlpha"/>
<feOffset dx="10" dy="10"/>
<feGaussianBlur stdDeviation="7.5"/>
<feComposite in2="hardAlpha" operator="arithmetic" k2="-1" k3="1"/>
<feColorMatrix type="matrix" values="0 0 0 0 0.121569 0 0 0 0 0.12549 0 0 0 0 0.12549 0 0 0 1 0"/>
<feBlend mode="normal" in2="shape" result="effect1_innerShadow_1284_1843"/>
<feColorMatrix in="SourceAlpha" type="matrix" values="0 0 0 0 0 0 0 0 0 0 0 0 0 0 0 0 0 0 127 0" result="hardAlpha"/>
<feOffset dy="-3"/>
<feGaussianBlur stdDeviation="4.85"/>
<feComposite in2="hardAlpha" operator="arithmetic" k2="-1" k3="1"/>
<feColorMatrix type="matrix" values="0 0 0 0 1 0 0 0 0 0 0 0 0 0 0 0 0 0 0.88 0"/>
<feBlend mode="normal" in2="effect1_innerShadow_1284_1843" result="effect2_innerShadow_1284_1843"/>
<feColorMatrix in="SourceAlpha" type="matrix" values="0 0 0 0 0 0 0 0 0 0 0 0 0 0 0 0 0 0 127 0" result="hardAlpha"/>
<feOffset dx="4" dy="4"/>
<feGaussianBlur stdDeviation="2.3"/>
<feComposite in2="hardAlpha" operator="arithmetic" k2="-1" k3="1"/>
<feColorMatrix type="matrix" values="0 0 0 0 0.181548 0 0 0 0 0.181548 0 0 0 0 0.181548 0 0 0 0.99 0"/>
<feBlend mode="normal" in2="effect2_innerShadow_1284_1843" result="effect3_innerShadow_1284_1843"/>
</filter>
<filter id="filter1_f_1284_1843" x="-0.6" y="3.4" width="55.2" height="48.1092" filterUnits="userSpaceOnUse" color-interpolation-filters="sRGB">
<feFlood flood-opacity="0" result="BackgroundImageFix"/>
<feBlend mode="normal" in="SourceGraphic" in2="BackgroundImageFix" result="shape"/>
<feGaussianBlur stdDeviation="7.8" result="effect1_foregroundBlur_1284_1843"/>
</filter>
<filter id="filter2_f_1284_1843" x="3" y="46" width="50" height="12" filterUnits="userSpaceOnUse" color-interpolation-filters="sRGB">
<feFlood flood-opacity="0" result="BackgroundImageFix"/>
<feBlend mode="normal" in="SourceGraphic" in2="BackgroundImageFix" result="shape"/>
<feGaussianBlur stdDeviation="2" result="effect1_foregroundBlur_1284_1843"/>
</filter>
<linearGradient id="paint0_linear_1284_1843" x1="28" y1="49.9997" x2="28" y2="53.9997" gradientUnits="userSpaceOnUse">
<stop stop-color="#FF000C"/>
<stop offset="0.8" stop-color="#FF676E"/>
<stop offset="1" stop-color="#F2C4C4"/>
</linearGradient>
<clipPath id="clip0_1284_1843">
<rect width="54" height="54" fill="white"/>
</clipPath>
<clipPath id="clip1_1284_1843">
<rect width="42" height="4" fill="white" transform="translate(7 50)"/>
</clipPath>
</defs>
</svg>
