<svg width="360" height="391" viewBox="0 0 360 391" fill="none" xmlns="http://www.w3.org/2000/svg">
<g filter="url(#filter0_f_174_20)">
<circle cx="145" cy="413" r="215" fill="url(#paint0_radial_174_20)"/>
</g>
<circle cx="179.5" cy="244.5" r="129.5" transform="rotate(90 179.5 244.5)" fill="#F5F5F5"/>
<path d="M113.612 247.907C110.501 251.018 110.501 256.068 113.612 259.179C116.723 262.291 121.774 262.291 124.885 259.179C127.996 256.068 127.996 251.018 124.885 247.907C121.774 244.796 116.723 244.796 113.612 247.907ZM122.051 256.345C120.516 257.88 118.002 257.88 116.468 256.345C114.933 254.811 114.933 252.297 116.468 250.762C118.002 249.228 120.516 249.228 122.051 250.762C123.585 252.297 123.585 254.811 122.051 256.345ZM129.594 249.526H132.94V251.21C133.749 250.102 134.879 249.292 136.605 249.292C139.354 249.292 141.975 251.444 141.975 255.386V255.429C141.975 259.371 139.396 261.523 136.605 261.523C134.815 261.523 133.728 260.714 132.94 259.755V264.805H129.594V249.526ZM138.629 255.45V255.408C138.629 253.447 137.308 252.147 135.753 252.147C134.197 252.147 132.897 253.447 132.897 255.408V255.45C132.897 257.411 134.197 258.711 135.753 258.711C137.308 258.689 138.629 257.432 138.629 255.45ZM144.34 255.472V255.429C144.34 252.083 146.727 249.313 150.136 249.313C154.057 249.313 155.847 252.36 155.847 255.685C155.847 255.94 155.826 256.26 155.805 256.558H147.643C147.963 258.071 149.028 258.86 150.52 258.86C151.628 258.86 152.438 258.519 153.375 257.666L155.272 259.35C154.185 260.714 152.608 261.545 150.477 261.545C146.94 261.523 144.34 259.052 144.34 255.472ZM152.608 254.47C152.416 252.978 151.543 251.977 150.136 251.977C148.751 251.977 147.856 252.957 147.6 254.47H152.608ZM158.234 249.526H161.643V251.231C162.432 250.23 163.433 249.313 165.159 249.313C167.738 249.313 169.229 251.018 169.229 253.767V261.523H165.82V254.832C165.82 253.213 165.053 252.403 163.753 252.403C162.453 252.403 161.622 253.234 161.622 254.832V261.523H158.212V249.526H158.234ZM124.757 208.719L119.877 213.599C118.918 214.558 118.918 216.113 119.877 217.072L138.949 236.144C139.908 237.103 141.463 237.103 142.422 236.144L147.302 231.264C148.261 230.305 148.261 228.75 147.302 227.791L128.23 208.719C127.271 207.76 125.716 207.76 124.757 208.719ZM90.5557 271.091C91.4294 270.218 91.4294 268.811 90.5557 267.937L88.0625 265.444C87.1889 264.571 85.7825 264.571 84.9088 265.444L79.7946 270.558L78.3882 269.152C77.621 268.385 76.3425 268.385 75.5753 269.152C74.8082 269.919 74.8082 271.198 75.5753 271.965L84.0351 280.425C84.8022 281.192 86.0808 281.192 86.8479 280.425C87.615 279.658 87.615 278.379 86.8479 277.612L85.4415 276.205L90.5557 271.091Z" fill="#F5A800"/>
<path d="M116.384 222.719L105.537 233.565C104.578 234.524 104.578 236.122 105.537 237.081L112.228 243.772C116.959 240.363 123.607 240.789 127.869 245.051L133.282 239.638C134.241 238.679 134.241 237.081 133.282 236.122L119.9 222.74C118.919 221.76 117.343 221.76 116.384 222.719ZM109.416 246.606L105.452 242.643C104.536 241.727 103.001 241.727 102.085 242.643L88.1277 256.6C87.2114 257.517 87.2114 259.051 88.1277 259.967L96.0334 267.873C96.9497 268.789 98.4839 268.789 99.4002 267.873L108.371 258.902C106.496 254.96 106.837 250.229 109.416 246.606ZM175.538 248.801H170.679V245.562H183.913V248.801H179.054V261.523H175.538V248.801ZM183.934 255.45V255.407C183.934 252.062 186.32 249.291 189.73 249.291C193.651 249.291 195.441 252.339 195.441 255.663C195.441 255.919 195.419 256.238 195.398 256.537H187.237C187.556 258.05 188.622 258.838 190.113 258.838C191.222 258.838 192.031 258.497 192.969 257.645L194.865 259.328C193.779 260.692 192.202 261.523 190.071 261.523C186.534 261.523 183.934 259.051 183.934 255.45ZM192.202 254.47C192.01 252.978 191.136 251.976 189.73 251.976C188.345 251.976 187.45 252.957 187.194 254.47H192.202ZM197.806 245.562H201.13V261.523H197.806V245.562ZM203.496 255.471V255.428C203.496 252.083 205.882 249.313 209.292 249.313C213.213 249.313 215.003 252.36 215.003 255.684C215.003 255.94 214.981 256.26 214.96 256.558H206.799C207.118 258.071 208.184 258.859 209.675 258.859C210.783 258.859 211.593 258.518 212.531 257.666L214.427 259.349C213.341 260.713 211.764 261.544 209.633 261.544C206.117 261.523 203.496 259.051 203.496 255.471ZM211.785 254.491C211.593 252.999 210.719 251.998 209.313 251.998C207.928 251.998 207.033 252.978 206.777 254.491H211.785ZM217.389 249.526H220.799V251.231C221.587 250.229 222.61 249.313 224.336 249.313C225.892 249.313 227.085 250.016 227.703 251.209C228.747 249.973 230.004 249.313 231.645 249.313C234.181 249.313 235.694 250.826 235.694 253.724V261.523H232.284V254.832C232.284 253.212 231.56 252.403 230.303 252.403C229.024 252.403 228.236 253.234 228.236 254.832V261.523H224.826V254.832C224.826 253.212 224.102 252.403 222.844 252.403C221.566 252.403 220.777 253.234 220.777 254.832V261.523H217.368V249.526H217.389ZM238.059 255.45V255.407C238.059 252.062 240.446 249.291 243.855 249.291C247.776 249.291 249.566 252.339 249.566 255.663C249.566 255.919 249.545 256.238 249.524 256.537H241.362C241.682 258.05 242.747 258.838 244.239 258.838C245.347 258.838 246.157 258.497 247.094 257.645L248.991 259.328C247.904 260.692 246.327 261.523 244.196 261.523C240.659 261.523 238.059 259.051 238.059 255.45ZM246.327 254.47C246.135 252.978 245.262 251.976 243.855 251.976C242.47 251.976 241.575 252.957 241.32 254.47H246.327ZM252.315 257.9V252.168H250.866V249.228H252.315V246.138H255.746V249.228H258.601V252.168H255.767V257.325C255.767 258.113 256.108 258.497 256.875 258.497C257.514 258.497 258.069 258.348 258.559 258.071V260.82C257.834 261.246 257.003 261.523 255.852 261.523C253.743 261.523 252.315 260.692 252.315 257.9ZM261.18 249.441H264.632V251.891C265.335 250.208 266.464 249.121 268.51 249.206V252.829H268.318C266.017 252.829 264.61 254.214 264.61 257.133V261.629H261.158V249.441H261.18ZM279.484 249.313H283.149L278.376 262.056C277.417 264.591 276.394 265.529 274.285 265.529C273.006 265.529 272.069 265.209 271.152 264.677L272.324 262.12C272.793 262.397 273.369 262.61 273.837 262.61C274.434 262.61 274.775 262.418 275.073 261.8L270.193 249.313H273.923L276.757 257.773L279.484 249.313Z" fill="#425CC7"/>
<g filter="url(#filter1_f_174_20)">
<circle cx="180" cy="245" r="161.877" transform="rotate(90 180 245)" stroke="url(#paint1_linear_174_20)" stroke-width="0.245275"/>
</g>
<g filter="url(#filter2_f_174_20)">
<path d="M369.877 245C369.877 349.866 284.866 434.877 180 434.877C75.1336 434.877 -9.87697 349.866 -9.87696 245C-9.87695 140.134 75.1336 55.123 180 55.123C284.866 55.123 369.877 140.134 369.877 245Z" stroke="url(#paint2_linear_174_20)" stroke-width="0.245275"/>
</g>
<g filter="url(#filter3_f_174_20)">
<circle cx="179.899" cy="244.899" r="238.775" transform="rotate(90 179.899 244.899)" stroke="url(#paint3_linear_174_20)" stroke-width="0.245275"/>
</g>
<defs>
<filter id="filter0_f_174_20" x="-170" y="98" width="630" height="630" filterUnits="userSpaceOnUse" color-interpolation-filters="sRGB">
<feFlood flood-opacity="0" result="BackgroundImageFix"/>
<feBlend mode="normal" in="SourceGraphic" in2="BackgroundImageFix" result="shape"/>
<feGaussianBlur stdDeviation="50" result="effect1_foregroundBlur_174_20"/>
</filter>
<filter id="filter1_f_174_20" x="16.5283" y="81.5283" width="326.943" height="326.943" filterUnits="userSpaceOnUse" color-interpolation-filters="sRGB">
<feFlood flood-opacity="0" result="BackgroundImageFix"/>
<feBlend mode="normal" in="SourceGraphic" in2="BackgroundImageFix" result="shape"/>
<feGaussianBlur stdDeviation="0.735826" result="effect1_foregroundBlur_174_20"/>
</filter>
<filter id="filter2_f_174_20" x="-13.4339" y="51.5661" width="386.868" height="386.868" filterUnits="userSpaceOnUse" color-interpolation-filters="sRGB">
<feFlood flood-opacity="0" result="BackgroundImageFix"/>
<feBlend mode="normal" in="SourceGraphic" in2="BackgroundImageFix" result="shape"/>
<feGaussianBlur stdDeviation="1.71693" result="effect1_foregroundBlur_174_20"/>
</filter>
<filter id="filter3_f_174_20" x="-64.3951" y="0.604371" width="488.588" height="488.588" filterUnits="userSpaceOnUse" color-interpolation-filters="sRGB">
<feFlood flood-opacity="0" result="BackgroundImageFix"/>
<feBlend mode="normal" in="SourceGraphic" in2="BackgroundImageFix" result="shape"/>
<feGaussianBlur stdDeviation="2.69803" result="effect1_foregroundBlur_174_20"/>
</filter>
<radialGradient id="paint0_radial_174_20" cx="0" cy="0" r="1" gradientUnits="userSpaceOnUse" gradientTransform="translate(145 443.271) rotate(-90) scale(209.567)">
<stop offset="0.331731" stop-color="#F5A800"/>
<stop offset="0.966346" stop-color="#F7F7F7" stop-opacity="0.14"/>
</radialGradient>
<linearGradient id="paint1_linear_174_20" x1="180" y1="83" x2="55.6744" y2="359.436" gradientUnits="userSpaceOnUse">
<stop stop-color="#F5F5F5"/>
<stop offset="1" stop-color="#EEC05F" stop-opacity="0.62"/>
</linearGradient>
<linearGradient id="paint2_linear_174_20" x1="370" y1="245" x2="45.7849" y2="99.1861" gradientUnits="userSpaceOnUse">
<stop stop-color="#F5F5F5"/>
<stop offset="1" stop-color="#EFC160" stop-opacity="0.49"/>
</linearGradient>
<linearGradient id="paint3_linear_174_20" x1="179.899" y1="6.00041" x2="-3.44165" y2="413.655" gradientUnits="userSpaceOnUse">
<stop stop-color="#F5F5F5"/>
<stop offset="1" stop-color="#7994FF" stop-opacity="0.1"/>
</linearGradient>
</defs>
</svg>
