<svg width="827" height="606" viewBox="0 0 827 606" fill="none" xmlns="http://www.w3.org/2000/svg">
<g filter="url(#filter0_f_154_10)">
<circle cx="479" cy="130" r="215" fill="url(#paint0_radial_154_10)"/>
</g>
<g filter="url(#filter1_f_154_10)">
<circle cx="413" cy="315" r="327.75" stroke="url(#paint1_linear_154_10)" stroke-width="0.5"/>
</g>
<g filter="url(#filter2_f_154_10)">
<circle cx="413.5" cy="323.5" r="408.25" stroke="url(#paint2_linear_154_10)" stroke-width="0.5"/>
</g>
<g filter="url(#filter3_f_154_10)">
<circle cx="188" cy="543" r="10" fill="#F7F7F7"/>
</g>
<g filter="url(#filter4_f_154_10)">
<circle cx="110" cy="446" r="5" fill="#F7F7F7"/>
<circle cx="110" cy="446" r="3.54449" stroke="#F5F5F5" stroke-width="2.91101"/>
</g>
<circle cx="413" cy="303" r="251" fill="#F5F5F5"/>
<path d="M295.291 309.614C289.708 315.197 289.708 324.259 295.291 329.842C300.874 335.425 309.936 335.425 315.519 329.842C321.102 324.259 321.102 315.197 315.519 309.614C309.936 304.031 300.874 304.031 295.291 309.614ZM310.433 324.757C307.68 327.51 303.168 327.51 300.415 324.757C297.661 322.003 297.661 317.491 300.415 314.738C303.168 311.984 307.68 311.984 310.433 314.738C313.187 317.491 313.187 322.003 310.433 324.757ZM323.97 312.52H329.974V315.541C331.427 313.552 333.454 312.099 336.551 312.099C341.484 312.099 346.188 315.961 346.188 323.036V323.112C346.188 330.187 341.561 334.049 336.551 334.049C333.339 334.049 331.389 332.596 329.974 330.875V339.938H323.97V312.52ZM340.184 323.15V323.074C340.184 319.556 337.813 317.223 335.022 317.223C332.23 317.223 329.898 319.556 329.898 323.074V323.15C329.898 326.669 332.23 329.001 335.022 329.001C337.813 328.963 340.184 326.707 340.184 323.15ZM350.432 323.189V323.112C350.432 317.109 354.715 312.137 360.834 312.137C367.87 312.137 371.082 317.606 371.082 323.571C371.082 324.03 371.044 324.604 371.005 325.139H356.359C356.933 327.854 358.845 329.269 361.522 329.269C363.51 329.269 364.963 328.657 366.646 327.127L370.049 330.148C368.099 332.596 365.269 334.087 361.445 334.087C355.098 334.049 350.432 329.613 350.432 323.189ZM365.269 321.391C364.925 318.715 363.357 316.917 360.834 316.917C358.348 316.917 356.742 318.676 356.283 321.391H365.269ZM375.365 312.52H381.483V315.579C382.898 313.782 384.695 312.137 387.793 312.137C392.42 312.137 395.096 315.197 395.096 320.13V334.049H388.978V322.042C388.978 319.135 387.601 317.682 385.269 317.682C382.936 317.682 381.445 319.174 381.445 322.042V334.049H375.326V312.52H375.365ZM315.29 239.291L306.533 248.048C304.812 249.768 304.812 252.56 306.533 254.281L340.758 288.505C342.478 290.226 345.27 290.226 346.991 288.505L355.748 279.748C357.468 278.028 357.468 275.236 355.748 273.515L321.523 239.291C319.802 237.57 317.011 237.57 315.29 239.291ZM253.915 351.219C255.483 349.651 255.483 347.127 253.915 345.559L249.441 341.085C247.873 339.517 245.349 339.517 243.782 341.085L234.604 350.263L232.08 347.739C230.703 346.362 228.409 346.362 227.032 347.739C225.656 349.115 225.656 351.41 227.032 352.786L242.214 367.968C243.59 369.344 245.885 369.344 247.261 367.968C248.638 366.591 248.638 364.297 247.261 362.92L244.738 360.396L253.915 351.219Z" fill="#F5A800"/>
<path d="M300.263 264.413L280.799 283.877C279.079 285.598 279.079 288.466 280.799 290.187L292.807 302.194C301.296 296.076 313.227 296.841 320.875 304.489L330.588 294.776C332.308 293.055 332.308 290.187 330.588 288.466L306.573 264.452C304.814 262.693 301.984 262.693 300.263 264.413ZM287.759 307.28L280.646 300.168C279.002 298.523 276.249 298.523 274.605 300.168L249.557 325.215C247.913 326.859 247.913 329.612 249.557 331.257L263.744 345.444C265.389 347.088 268.142 347.088 269.786 345.444L285.885 329.345C282.52 322.27 283.132 313.781 287.759 307.28ZM406.417 311.219H397.698V305.406H421.445V311.219H412.727V334.048H406.417V311.219ZM421.484 323.15V323.073C421.484 317.07 425.766 312.098 431.885 312.098C438.921 312.098 442.133 317.567 442.133 323.532C442.133 323.991 442.095 324.565 442.057 325.1H427.411C427.984 327.815 429.896 329.23 432.573 329.23C434.562 329.23 436.015 328.618 437.697 327.088L441.101 330.109C439.15 332.557 436.321 334.048 432.497 334.048C426.149 334.048 421.484 329.612 421.484 323.15ZM436.321 321.391C435.976 318.714 434.409 316.917 431.885 316.917C429.399 316.917 427.793 318.676 427.334 321.391H436.321ZM446.378 305.406H452.343V334.048H446.378V305.406ZM456.588 323.188V323.111C456.588 317.108 460.871 312.137 466.989 312.137C474.025 312.137 477.237 317.605 477.237 323.57C477.237 324.029 477.199 324.603 477.161 325.138H462.515C463.089 327.853 465 329.268 467.677 329.268C469.666 329.268 471.119 328.656 472.801 327.127L476.205 330.148C474.255 332.595 471.425 334.086 467.601 334.086C461.291 334.048 456.588 329.612 456.588 323.188ZM471.463 321.429C471.119 318.752 469.551 316.955 467.027 316.955C464.542 316.955 462.936 318.714 462.477 321.429H471.463ZM481.52 312.519H487.638V315.578C489.053 313.781 490.889 312.137 493.986 312.137C496.778 312.137 498.919 313.399 500.028 315.54C501.902 313.322 504.158 312.137 507.103 312.137C511.653 312.137 514.368 314.852 514.368 320.052V334.048H508.25V322.041C508.25 319.135 506.95 317.681 504.693 317.681C502.399 317.681 500.984 319.173 500.984 322.041V334.048H494.866V322.041C494.866 319.135 493.566 317.681 491.309 317.681C489.015 317.681 487.6 319.173 487.6 322.041V334.048H481.482V312.519H481.52ZM518.613 323.15V323.073C518.613 317.07 522.896 312.098 529.014 312.098C536.05 312.098 539.262 317.567 539.262 323.532C539.262 323.991 539.224 324.565 539.186 325.1H524.54C525.113 327.815 527.025 329.23 529.702 329.23C531.691 329.23 533.144 328.618 534.826 327.088L538.23 330.109C536.279 332.557 533.45 334.048 529.626 334.048C523.278 334.048 518.613 329.612 518.613 323.15ZM533.45 321.391C533.106 318.714 531.538 316.917 529.014 316.917C526.528 316.917 524.922 318.676 524.463 321.391H533.45ZM544.195 327.547V317.261H541.595V311.984H544.195V306.439H550.352V311.984H555.476V317.261H550.39V326.515C550.39 327.93 551.002 328.618 552.378 328.618C553.526 328.618 554.52 328.35 555.399 327.853V332.786C554.099 333.551 552.608 334.048 550.543 334.048C546.757 334.048 544.195 332.557 544.195 327.547ZM560.103 312.366H566.298V316.764C567.56 313.743 569.586 311.792 573.257 311.945V318.446H572.913C568.783 318.446 566.259 320.932 566.259 326.171V334.239H560.065V312.366H560.103ZM592.951 312.137H599.528L590.962 335.004C589.242 339.555 587.406 341.237 583.62 341.237C581.326 341.237 579.643 340.664 577.999 339.708L580.102 335.119C580.944 335.616 581.976 335.998 582.817 335.998C583.888 335.998 584.5 335.654 585.035 334.545L576.278 312.137H582.97L588.056 327.318L592.951 312.137Z" fill="#425CC7"/>
<defs>
<filter id="filter0_f_154_10" x="164" y="-185" width="630" height="630" filterUnits="userSpaceOnUse" color-interpolation-filters="sRGB">
<feFlood flood-opacity="0" result="BackgroundImageFix"/>
<feBlend mode="normal" in="SourceGraphic" in2="BackgroundImageFix" result="shape"/>
<feGaussianBlur stdDeviation="50" result="effect1_foregroundBlur_154_10"/>
</filter>
<filter id="filter1_f_154_10" x="82" y="-16" width="662" height="662" filterUnits="userSpaceOnUse" color-interpolation-filters="sRGB">
<feFlood flood-opacity="0" result="BackgroundImageFix"/>
<feBlend mode="normal" in="SourceGraphic" in2="BackgroundImageFix" result="shape"/>
<feGaussianBlur stdDeviation="1.5" result="effect1_foregroundBlur_154_10"/>
</filter>
<filter id="filter2_f_154_10" x="0" y="-90" width="827" height="827" filterUnits="userSpaceOnUse" color-interpolation-filters="sRGB">
<feFlood flood-opacity="0" result="BackgroundImageFix"/>
<feBlend mode="normal" in="SourceGraphic" in2="BackgroundImageFix" result="shape"/>
<feGaussianBlur stdDeviation="2.5" result="effect1_foregroundBlur_154_10"/>
</filter>
<filter id="filter3_f_154_10" x="160" y="515" width="56" height="56" filterUnits="userSpaceOnUse" color-interpolation-filters="sRGB">
<feFlood flood-opacity="0" result="BackgroundImageFix"/>
<feBlend mode="normal" in="SourceGraphic" in2="BackgroundImageFix" result="shape"/>
<feGaussianBlur stdDeviation="9" result="effect1_foregroundBlur_154_10"/>
</filter>
<filter id="filter4_f_154_10" x="101" y="437" width="18" height="18" filterUnits="userSpaceOnUse" color-interpolation-filters="sRGB">
<feFlood flood-opacity="0" result="BackgroundImageFix"/>
<feBlend mode="normal" in="SourceGraphic" in2="BackgroundImageFix" result="shape"/>
<feGaussianBlur stdDeviation="2" result="effect1_foregroundBlur_154_10"/>
</filter>
<radialGradient id="paint0_radial_154_10" cx="0" cy="0" r="1" gradientUnits="userSpaceOnUse" gradientTransform="translate(479 160.271) rotate(-90) scale(209.567)">
<stop offset="0.331731" stop-color="#F5A800"/>
<stop offset="0.966346" stop-color="#F7F7F7" stop-opacity="0.14"/>
</radialGradient>
<linearGradient id="paint1_linear_154_10" x1="413" y1="-13" x2="161.279" y2="546.698" gradientUnits="userSpaceOnUse">
<stop stop-color="#F5F5F5"/>
<stop offset="1" stop-color="#F5A800" stop-opacity="0.16"/>
</linearGradient>
<linearGradient id="paint2_linear_154_10" x1="413.5" y1="-85" x2="100" y2="612.063" gradientUnits="userSpaceOnUse">
<stop stop-color="#F5F5F5"/>
<stop offset="1" stop-color="#F5A800" stop-opacity="0.27"/>
</linearGradient>
</defs>
</svg>
