<svg width="530" height="384" viewBox="0 0 530 384" fill="none" xmlns="http://www.w3.org/2000/svg">
<g clip-path="url(#clip0_150_2249)">
<rect width="530" height="384" fill="#F5F5F5"/>
<g filter="url(#filter0_f_150_2249)">
<circle cx="385" cy="246" r="340" fill="url(#paint0_radial_150_2249)"/>
</g>
<g filter="url(#filter1_f_150_2249)">
<circle cx="220" cy="260" r="185" fill="url(#paint1_radial_150_2249)"/>
</g>
<circle cx="264.546" cy="192.546" r="158.546" fill="#F5F5F5"/>
<g filter="url(#filter2_f_150_2249)">
<circle cx="264.473" cy="192.713" r="355.633" stroke="url(#paint2_linear_150_2249)" stroke-width="0.365314"/>
</g>
<g filter="url(#filter3_f_150_2249)">
<circle cx="500.306" cy="165.306" r="7.30629" fill="#F7F7F7"/>
</g>
<g filter="url(#filter4_f_150_2249)">
<circle cx="500.5" cy="335.5" r="13.5" fill="#F7F7F7"/>
</g>
<g filter="url(#filter5_f_150_2249)">
<circle cx="83.6531" cy="346.653" r="3.65314" fill="#F7F7F7"/>
</g>
<path d="M184.265 196.654C180.472 200.447 180.472 206.604 184.265 210.397C188.058 214.19 194.215 214.19 198.008 210.397C201.801 206.604 201.801 200.447 198.008 196.654C194.215 192.86 188.058 192.86 184.265 196.654ZM194.553 206.941C192.682 208.812 189.617 208.812 187.746 206.941C185.875 205.071 185.875 202.005 187.746 200.135C189.617 198.264 192.682 198.264 194.553 200.135C196.423 202.005 196.423 205.071 194.553 206.941ZM203.749 198.628H207.828V200.68C208.816 199.329 210.192 198.342 212.297 198.342C215.648 198.342 218.844 200.966 218.844 205.772V205.824C218.844 210.631 215.7 213.255 212.297 213.255C210.115 213.255 208.79 212.267 207.828 211.098V217.255H203.749V198.628ZM214.765 205.85V205.798C214.765 203.408 213.154 201.823 211.258 201.823C209.361 201.823 207.776 203.408 207.776 205.798V205.85C207.776 208.24 209.361 209.825 211.258 209.825C213.154 209.799 214.765 208.266 214.765 205.85ZM221.727 205.876V205.824C221.727 201.746 224.637 198.368 228.794 198.368C233.574 198.368 235.756 202.083 235.756 206.136C235.756 206.448 235.731 206.838 235.705 207.201H225.754C226.144 209.046 227.443 210.007 229.262 210.007C230.613 210.007 231.6 209.591 232.743 208.552L235.055 210.605C233.73 212.267 231.808 213.281 229.21 213.281C224.897 213.255 221.727 210.241 221.727 205.876ZM231.808 204.655C231.574 202.837 230.509 201.616 228.794 201.616C227.105 201.616 226.014 202.811 225.702 204.655H231.808ZM238.666 198.628H242.823V200.706C243.784 199.485 245.005 198.368 247.11 198.368C250.253 198.368 252.072 200.447 252.072 203.798V213.255H247.915V205.097C247.915 203.122 246.98 202.135 245.395 202.135C243.81 202.135 242.797 203.148 242.797 205.097V213.255H238.64V198.628H238.666ZM197.852 148.877L191.903 154.826C190.734 155.995 190.734 157.892 191.903 159.061L215.155 182.313C216.324 183.482 218.22 183.482 219.389 182.313L225.339 176.363C226.508 175.194 226.508 173.298 225.339 172.129L202.087 148.877C200.918 147.708 199.021 147.708 197.852 148.877ZM156.155 224.919C157.22 223.854 157.22 222.14 156.155 221.074L153.115 218.035C152.05 216.97 150.335 216.97 149.27 218.035L143.035 224.27L141.32 222.555C140.385 221.62 138.826 221.62 137.891 222.555C136.956 223.491 136.956 225.049 137.891 225.985L148.205 236.299C149.14 237.234 150.699 237.234 151.634 236.299C152.569 235.363 152.569 233.804 151.634 232.869L149.92 231.155L156.155 224.919Z" fill="#F5A800"/>
<path d="M187.643 165.945L174.42 179.169C173.251 180.338 173.251 182.286 174.42 183.455L182.577 191.613C188.345 187.456 196.451 187.976 201.646 193.172L208.245 186.573C209.414 185.404 209.414 183.455 208.245 182.286L191.93 165.971C190.735 164.776 188.812 164.776 187.643 165.945ZM179.148 195.068L174.316 190.236C173.199 189.119 171.328 189.119 170.211 190.236L153.194 207.253C152.077 208.37 152.077 210.24 153.194 211.357L162.833 220.996C163.95 222.113 165.82 222.113 166.938 220.996L177.875 210.058C175.589 205.252 176.004 199.485 179.148 195.068ZM259.763 197.744H253.84V193.795H269.973V197.744H264.05V213.254H259.763V197.744ZM269.999 205.85V205.798C269.999 201.719 272.909 198.342 277.066 198.342C281.846 198.342 284.028 202.057 284.028 206.11C284.028 206.421 284.002 206.811 283.976 207.175H274.026C274.416 209.019 275.715 209.981 277.533 209.981C278.884 209.981 279.871 209.565 281.014 208.526L283.327 210.578C282.002 212.241 280.079 213.254 277.481 213.254C273.169 213.254 269.999 210.24 269.999 205.85ZM280.079 204.655C279.845 202.836 278.78 201.615 277.066 201.615C275.377 201.615 274.286 202.81 273.974 204.655H280.079ZM286.912 193.795H290.965V213.254H286.912V193.795ZM293.848 205.876V205.824C293.848 201.745 296.758 198.368 300.915 198.368C305.695 198.368 307.877 202.083 307.877 206.136C307.877 206.447 307.852 206.837 307.826 207.201H297.875C298.265 209.045 299.564 210.007 301.383 210.007C302.734 210.007 303.721 209.591 304.864 208.552L307.176 210.604C305.851 212.267 303.929 213.28 301.331 213.28C297.044 213.254 293.848 210.24 293.848 205.876ZM303.955 204.681C303.721 202.862 302.656 201.641 300.941 201.641C299.252 201.641 298.161 202.836 297.849 204.681H303.955ZM310.787 198.627H314.944V200.706C315.905 199.485 317.152 198.368 319.257 198.368C321.153 198.368 322.608 199.225 323.361 200.68C324.634 199.173 326.167 198.368 328.168 198.368C331.259 198.368 333.104 200.212 333.104 203.745V213.254H328.947V205.096C328.947 203.122 328.064 202.135 326.531 202.135C324.972 202.135 324.011 203.148 324.011 205.096V213.254H319.854V205.096C319.854 203.122 318.971 202.135 317.438 202.135C315.879 202.135 314.918 203.148 314.918 205.096V213.254H310.761V198.627H310.787ZM335.988 205.85V205.798C335.988 201.719 338.897 198.342 343.054 198.342C347.834 198.342 350.017 202.057 350.017 206.11C350.017 206.421 349.991 206.811 349.965 207.175H340.014C340.404 209.019 341.703 209.981 343.522 209.981C344.873 209.981 345.86 209.565 347.003 208.526L349.315 210.578C347.99 212.241 346.068 213.254 343.47 213.254C339.157 213.254 335.988 210.24 335.988 205.85ZM346.068 204.655C345.834 202.836 344.769 201.615 343.054 201.615C341.365 201.615 340.274 202.81 339.962 204.655H346.068ZM353.368 208.837V201.849H351.601V198.264H353.368V194.497H357.551V198.264H361.032V201.849H357.577V208.136C357.577 209.097 357.992 209.565 358.928 209.565C359.707 209.565 360.382 209.383 360.98 209.045V212.397C360.097 212.916 359.083 213.254 357.681 213.254C355.109 213.254 353.368 212.241 353.368 208.837ZM364.176 198.524H368.384V201.511C369.242 199.459 370.618 198.134 373.113 198.238V202.654H372.879C370.073 202.654 368.358 204.343 368.358 207.902V213.384H364.15V198.524H364.176ZM386.492 198.368H390.961L385.141 213.903C383.972 216.995 382.725 218.138 380.153 218.138C378.594 218.138 377.451 217.748 376.334 217.099L377.763 213.981C378.334 214.319 379.036 214.579 379.607 214.579C380.335 214.579 380.751 214.345 381.114 213.592L375.165 198.368H379.711L383.167 208.682L386.492 198.368Z" fill="#425CC7"/>
<g filter="url(#filter6_f_150_2249)">
<path d="M500.877 193C500.877 323.824 394.824 429.877 264 429.877C133.176 429.877 27.123 323.824 27.123 193C27.1231 62.1762 133.176 -43.877 264 -43.877C394.824 -43.877 500.877 62.1762 500.877 193Z" stroke="url(#paint3_linear_150_2249)" stroke-width="0.245275"/>
</g>
<g filter="url(#filter7_f_150_2249)">
<circle cx="264" cy="193" r="277.877" transform="rotate(90 264 193)" stroke="url(#paint4_linear_150_2249)" stroke-width="0.245275"/>
</g>
</g>
<defs>
<filter id="filter0_f_150_2249" x="-55" y="-194" width="880" height="880" filterUnits="userSpaceOnUse" color-interpolation-filters="sRGB">
<feFlood flood-opacity="0" result="BackgroundImageFix"/>
<feBlend mode="normal" in="SourceGraphic" in2="BackgroundImageFix" result="shape"/>
<feGaussianBlur stdDeviation="50" result="effect1_foregroundBlur_150_2249"/>
</filter>
<filter id="filter1_f_150_2249" x="-65" y="-25" width="570" height="570" filterUnits="userSpaceOnUse" color-interpolation-filters="sRGB">
<feFlood flood-opacity="0" result="BackgroundImageFix"/>
<feBlend mode="normal" in="SourceGraphic" in2="BackgroundImageFix" result="shape"/>
<feGaussianBlur stdDeviation="50" result="effect1_foregroundBlur_150_2249"/>
</filter>
<filter id="filter2_f_150_2249" x="-99.3797" y="-171.14" width="727.706" height="727.706" filterUnits="userSpaceOnUse" color-interpolation-filters="sRGB">
<feFlood flood-opacity="0" result="BackgroundImageFix"/>
<feBlend mode="normal" in="SourceGraphic" in2="BackgroundImageFix" result="shape"/>
<feGaussianBlur stdDeviation="4.01846" result="effect1_foregroundBlur_150_2249"/>
</filter>
<filter id="filter3_f_150_2249" x="479.849" y="144.849" width="40.9149" height="40.9152" filterUnits="userSpaceOnUse" color-interpolation-filters="sRGB">
<feFlood flood-opacity="0" result="BackgroundImageFix"/>
<feBlend mode="normal" in="SourceGraphic" in2="BackgroundImageFix" result="shape"/>
<feGaussianBlur stdDeviation="6.57566" result="effect1_foregroundBlur_150_2249"/>
</filter>
<filter id="filter4_f_150_2249" x="465.85" y="300.85" width="69.3" height="69.3" filterUnits="userSpaceOnUse" color-interpolation-filters="sRGB">
<feFlood flood-opacity="0" result="BackgroundImageFix"/>
<feBlend mode="normal" in="SourceGraphic" in2="BackgroundImageFix" result="shape"/>
<feGaussianBlur stdDeviation="10.575" result="effect1_foregroundBlur_150_2249"/>
</filter>
<filter id="filter5_f_150_2249" x="78.5387" y="341.539" width="10.2292" height="10.2288" filterUnits="userSpaceOnUse" color-interpolation-filters="sRGB">
<feFlood flood-opacity="0" result="BackgroundImageFix"/>
<feBlend mode="normal" in="SourceGraphic" in2="BackgroundImageFix" result="shape"/>
<feGaussianBlur stdDeviation="0.730629" result="effect1_foregroundBlur_150_2249"/>
</filter>
<filter id="filter6_f_150_2249" x="25.5283" y="-45.4717" width="476.943" height="476.943" filterUnits="userSpaceOnUse" color-interpolation-filters="sRGB">
<feFlood flood-opacity="0" result="BackgroundImageFix"/>
<feBlend mode="normal" in="SourceGraphic" in2="BackgroundImageFix" result="shape"/>
<feGaussianBlur stdDeviation="0.735826" result="effect1_foregroundBlur_150_2249"/>
</filter>
<filter id="filter7_f_150_2249" x="-17.4339" y="-88.4339" width="562.868" height="562.868" filterUnits="userSpaceOnUse" color-interpolation-filters="sRGB">
<feFlood flood-opacity="0" result="BackgroundImageFix"/>
<feBlend mode="normal" in="SourceGraphic" in2="BackgroundImageFix" result="shape"/>
<feGaussianBlur stdDeviation="1.71693" result="effect1_foregroundBlur_150_2249"/>
</filter>
<radialGradient id="paint0_radial_150_2249" cx="0" cy="0" r="1" gradientUnits="userSpaceOnUse" gradientTransform="translate(385 293.87) rotate(-90) scale(331.408)">
<stop offset="0.331731" stop-color="#425CC7"/>
<stop offset="1" stop-color="#F5F5F5" stop-opacity="0"/>
</radialGradient>
<radialGradient id="paint1_radial_150_2249" cx="0" cy="0" r="1" gradientUnits="userSpaceOnUse" gradientTransform="translate(220 286.047) rotate(-90) scale(180.325)">
<stop offset="0.331731" stop-color="#F5A800"/>
<stop offset="0.966346" stop-color="#F7F7F7" stop-opacity="0.14"/>
</radialGradient>
<linearGradient id="paint2_linear_150_2249" x1="264.473" y1="-163.104" x2="-8.59486" y2="444.059" gradientUnits="userSpaceOnUse">
<stop stop-color="#F5F5F5"/>
<stop offset="1" stop-color="#7994FF" stop-opacity="0.1"/>
</linearGradient>
<linearGradient id="paint3_linear_150_2249" x1="501" y1="193" x2="96.5843" y2="11.1163" gradientUnits="userSpaceOnUse">
<stop stop-color="#F5F5F5"/>
<stop offset="1" stop-color="#EEC05F" stop-opacity="0.62"/>
</linearGradient>
<linearGradient id="paint4_linear_150_2249" x1="264" y1="-85" x2="50.6512" y2="389.378" gradientUnits="userSpaceOnUse">
<stop stop-color="#F5F5F5"/>
<stop offset="1" stop-color="#EFC160" stop-opacity="0.49"/>
</linearGradient>
<clipPath id="clip0_150_2249">
<rect width="530" height="384" fill="white"/>
</clipPath>
</defs>
</svg>
