<svg width="36" height="36" viewBox="0 0 36 36" fill="none" xmlns="http://www.w3.org/2000/svg">
<g id="Frame 11216">
<circle id="Ellipse 7" cx="18" cy="18" r="18" fill="url(#paint0_linear_2729_17690)"/>
<path id="Vector" d="M24.3261 11.4349C24.3112 11.4487 24.2972 11.4635 24.2843 11.479L16.018 20.3337L12.6389 16.1434C12.3415 15.8783 11.948 15.734 11.5415 15.7409C11.135 15.7477 10.7471 15.9052 10.4596 16.1802C10.1721 16.4552 10.0074 16.8262 10.0002 17.215C9.99307 17.6038 10.144 17.9801 10.4211 18.2646L14.9572 23.5614C15.1063 23.7038 15.2839 23.816 15.4794 23.8913C15.6748 23.9666 15.8842 24.0035 16.0948 23.9997C16.3055 23.996 16.5133 23.9517 16.7057 23.8695C16.8981 23.7874 17.0712 23.6689 17.2147 23.5214L26.5669 13.5361C26.8513 13.2506 27.0068 12.8695 26.9998 12.4752C26.9927 12.081 26.8238 11.7052 26.5294 11.4291C26.235 11.1531 25.8388 10.9989 25.4265 11C25.0142 11.0011 24.6189 11.1573 24.3261 11.4349Z" fill="white"/>
</g>
<defs>
<linearGradient id="paint0_linear_2729_17690" x1="12" y1="2.5" x2="28.5" y2="40" gradientUnits="userSpaceOnUse">
<stop offset="0.115" stop-color="#343A3F"/>
<stop offset="0.905" stop-color="#1F4561"/>
</linearGradient>
</defs>
</svg>
