<svg width="500" height="500" viewBox="0 0 500 500" fill="none" xmlns="http://www.w3.org/2000/svg">
<path d="M437.96 252.811H402.27V382.401H437.96V252.811Z" fill="#E6E6E6" fill-opacity="0.2"/>
<path d="M402.269 252.811H270.369V382.401H402.269V252.811Z" fill="#F5F5F5" fill-opacity="0.1"/>
<path d="M395.369 382.401V259.721H277.289V382.401H395.369Z" fill="#E6E6E6" fill-opacity="0.2"/>
<path d="M395.36 259.711H326.25V382.391H395.36V259.711Z" fill="#E0E0E0" fill-opacity="0.2"/>
<path d="M397.66 299.36V257.59H273.54V299.36H397.66Z" fill="#F5F5F5" fill-opacity="0.1"/>
<path d="M388.29 294.91H282.9V262H388.29V294.91ZM285 292.83H386.22V264.11H285V292.83Z" fill="white" fill-opacity="0.1"/>
<path d="M373.35 219.451H340.82V252.731H373.35V219.451Z" fill="#E6E6E6" fill-opacity="0.2"/>
<path d="M298.07 252.73H340.82V219.45H298.07V252.73Z" fill="#F0F0F0" fill-opacity="0.1"/>
<g style="mix-blend-mode:multiply" opacity="0.7">
<path d="M373.35 215.35H298.07V220.34H373.35V215.35Z" fill="#E6E6E6" fill-opacity="0.2"/>
</g>
<path d="M374.99 214.84H340.82V219.46H374.99V214.84Z" fill="#E6E6E6" fill-opacity="0.2"/>
<path d="M296.421 219.451H340.811V214.831H296.421V219.451Z" fill="#F0F0F0" fill-opacity="0.1"/>
<path d="M412.36 237.91H385.75V252.73H412.36V237.91Z" fill="#EBEBEB" fill-opacity="0.1"/>
<path d="M350.78 252.721H385.75V237.901H350.78V252.721Z" fill="#F5F5F5" fill-opacity="0.1"/>
<g style="mix-blend-mode:multiply" opacity="0.7">
<path d="M412.35 234.551H350.77V238.641H412.35V234.551Z" fill="#E6E6E6" fill-opacity="0.2"/>
</g>
<path d="M413.7 234.131H385.75V237.911H413.7V234.131Z" fill="#EBEBEB" fill-opacity="0.1"/>
<path d="M349.43 237.9H385.75V234.12H349.43V237.9Z" fill="#F5F5F5" fill-opacity="0.1"/>
<path d="M306.661 211.201H409.471V74.7812H306.661V211.201Z" fill="#E6E6E6" fill-opacity="0.2"/>
<path d="M298.851 211.201H406.051V74.7812H298.851V211.201Z" fill="#F5F5F5" fill-opacity="0.1"/>
<path d="M394.1 203.22H310.82C309.759 203.22 308.742 202.799 307.992 202.049C307.242 201.299 306.82 200.281 306.82 199.22V86.7402C306.82 85.6794 307.242 84.662 307.992 83.9118C308.742 83.1617 309.759 82.7402 310.82 82.7402H394.1C395.161 82.7402 396.179 83.1617 396.929 83.9118C397.679 84.662 398.1 85.6794 398.1 86.7402V199.23C398.098 200.289 397.675 201.304 396.925 202.052C396.175 202.8 395.159 203.22 394.1 203.22ZM310.82 84.7602C310.29 84.7602 309.781 84.971 309.406 85.346C309.031 85.7211 308.82 86.2298 308.82 86.7602V199.23C308.82 199.761 309.031 200.269 309.406 200.644C309.781 201.02 310.29 201.23 310.82 201.23H394.1C394.631 201.23 395.139 201.02 395.515 200.644C395.89 200.269 396.1 199.761 396.1 199.23V86.7402C396.1 86.2098 395.89 85.7011 395.515 85.326C395.139 84.9509 394.631 84.7402 394.1 84.7402L310.82 84.7602Z" fill="white" fill-opacity="0.1"/>
<path d="M65.4301 364.65H210.58L210.58 78.1904H65.4301L65.4301 364.65Z" fill="#E6E6E6" fill-opacity="0.2"/>
<path d="M62.2201 364.65H209.08L209.08 78.1904H62.2201L62.2201 364.65Z" fill="#F5F5F5" fill-opacity="0.1"/>
<path d="M221.78 75.7295H54.23C53.9002 75.7191 53.5873 75.5807 53.3577 75.3436C53.1281 75.1066 52.9998 74.7895 53 74.4594C53 74.1226 53.1338 73.7996 53.372 73.5614C53.6101 73.3233 53.9332 73.1895 54.27 73.1895H221.78C222.117 73.1895 222.44 73.3233 222.678 73.5614C222.916 73.7996 223.05 74.1226 223.05 74.4594C223.05 74.6262 223.017 74.7914 222.953 74.9455C222.889 75.0995 222.796 75.2395 222.678 75.3575C222.56 75.4754 222.42 75.569 222.266 75.6328C222.112 75.6966 221.947 75.7295 221.78 75.7295Z" fill="#E6E6E6" fill-opacity="0.2"/>
<path d="M65.4301 369.49H210.58V364.65H65.4301V369.49Z" fill="#E6E6E6" fill-opacity="0.2"/>
<path d="M56.2796 369.49H196.1V364.65H56.2796V369.49Z" fill="#F5F5F5" fill-opacity="0.1"/>
<path d="M156.689 358.801L146.059 84.0508H126.939L137.569 358.801H156.689Z" fill="white" fill-opacity="0.1"/>
<path d="M132.16 358.801L121.53 84.0508H112.65L123.28 358.801H132.16Z" fill="white" fill-opacity="0.1"/>
<path d="M67.2891 197.08V83.2598H66.7191V197.08H67.2891Z" fill="#E6E6E6" fill-opacity="0.2"/>
<path opacity="0.4" d="M76.7406 69.3203H55.8906V348.44H76.7406V69.3203Z" fill="#E0E0E0" fill-opacity="0.2"/>
<path opacity="0.4" d="M99.9809 69.3203H79.1309V348.44H99.9809V69.3203Z" fill="#E0E0E0" fill-opacity="0.2"/>
<path opacity="0.4" d="M86.2406 71.8203H65.3906V350.94H86.2406V71.8203Z" fill="#E0E0E0" fill-opacity="0.2"/>
<path opacity="0.4" d="M193.7 69.3203H172.85V348.44H193.7V69.3203Z" fill="#E0E0E0" fill-opacity="0.2"/>
<path opacity="0.4" d="M216.95 69.3203H196.1V348.44H216.95V69.3203Z" fill="#E0E0E0" fill-opacity="0.2"/>
<path opacity="0.4" d="M203.2 71.8203H182.35V350.94H203.2V71.8203Z" fill="#E0E0E0" fill-opacity="0.2"/>
<path d="M249.999 427.56C357.082 427.56 443.889 422.492 443.889 416.24C443.889 409.988 357.082 404.92 249.999 404.92C142.917 404.92 56.1094 409.988 56.1094 416.24C56.1094 422.492 142.917 427.56 249.999 427.56Z" fill="white" fill-opacity="0.2"/>
<path d="M364 103C355.93 99.4397 346.59 97.4297 341.91 105.08C338.84 110.08 337.31 120.3 331.91 125.8C331.454 126.205 331.088 126.701 330.833 127.255C330.578 127.809 330.441 128.41 330.43 129.02C330.424 129.096 330.424 129.173 330.43 129.25C330.52 132.33 332.99 136.45 339.34 137.97C338.072 137.149 336.989 136.072 336.16 134.81C338.775 135.94 341.591 136.532 344.44 136.55C351.92 136.47 357.67 137.04 361.1 138.82C364.53 140.6 370.77 132.82 370.49 129.28C371.84 131.28 373.49 129.28 374.02 124.36C375.47 111.71 371.36 101.34 364 103Z" fill="#263238"/>
<path d="M345.63 142.539C344.337 142.537 343.073 142.152 341.999 141.432C340.925 140.712 340.088 139.69 339.595 138.495C339.101 137.3 338.973 135.985 339.226 134.717C339.48 133.449 340.104 132.285 341.019 131.371C341.934 130.457 343.099 129.835 344.367 129.584C345.636 129.332 346.95 129.462 348.145 129.958C349.339 130.453 350.36 131.291 351.078 132.367C351.796 133.442 352.18 134.706 352.18 135.999C352.177 137.734 351.486 139.398 350.258 140.624C349.03 141.85 347.365 142.539 345.63 142.539ZM345.63 129.939C344.431 129.939 343.259 130.294 342.263 130.96C341.266 131.626 340.49 132.573 340.031 133.68C339.572 134.787 339.452 136.006 339.686 137.181C339.92 138.357 340.497 139.437 341.345 140.284C342.192 141.132 343.272 141.709 344.447 141.943C345.623 142.176 346.841 142.056 347.949 141.598C349.056 141.139 350.002 140.362 350.668 139.366C351.334 138.369 351.69 137.198 351.69 135.999C351.69 134.392 351.051 132.85 349.915 131.714C348.778 130.577 347.237 129.939 345.63 129.939Z" fill="url(#paint0_linear_6438_10097)"/>
<path d="M338.871 165.279C336.382 170.174 333.597 174.913 330.531 179.469C328.984 181.808 327.315 184.065 325.531 186.229C323.647 188.625 321.47 190.775 319.051 192.629C318.591 192.977 318.098 193.282 317.581 193.539C316.948 193.856 316.275 194.088 315.581 194.229C314.218 194.484 312.812 194.381 311.501 193.929C309.657 193.229 308.005 192.102 306.681 190.639C305.614 189.506 304.654 188.277 303.811 186.969C303.001 185.729 302.281 184.489 301.621 183.239C299.1 178.314 297.089 173.144 295.621 167.809L299.991 166.169C302.3 170.79 304.885 175.268 307.731 179.579C309.009 181.544 310.516 183.35 312.221 184.959C312.717 185.464 313.328 185.841 314.001 186.059C314.121 186.059 314.001 185.989 313.861 186.009C313.721 186.029 313.741 186.009 313.731 186.009C313.721 186.009 313.671 186.009 313.921 185.829C315.611 184.28 317.13 182.553 318.451 180.679C319.921 178.679 321.331 176.549 322.711 174.389C324.091 172.229 325.391 169.969 326.711 167.729C328.031 165.489 329.281 163.169 330.491 160.959L338.871 165.279Z" fill="#B55B52"/>
<path d="M336.1 152.13C332.18 151.99 325.24 166.27 325.24 166.27L332.71 183C332.71 183 347.36 163.72 345.71 158.89C344 153.84 341.82 152.33 336.1 152.13Z" fill="url(#paint1_linear_6438_10097)"/>
<path opacity="0.6" d="M336.1 152.13C332.18 151.99 325.24 166.27 325.24 166.27L332.71 183C332.71 183 347.36 163.72 345.71 158.89C344 153.84 341.82 152.33 336.1 152.13Z" fill="white"/>
<path d="M299.36 159.459L300.52 169.789L297.8 171.689C294.07 170.829 292.511 165.109 292.511 165.109L290.83 161.439C290.47 160.647 290.361 159.764 290.516 158.908C290.671 158.052 291.085 157.264 291.701 156.649L292.46 155.899C292.81 155.543 293.234 155.268 293.701 155.094C294.169 154.92 294.669 154.851 295.166 154.892C295.664 154.933 296.146 155.083 296.578 155.332C297.011 155.58 297.384 155.92 297.671 156.329L298.761 157.889C299.089 158.354 299.295 158.893 299.36 159.459Z" fill="#B55B52"/>
<path d="M355.06 408.46H345.84L345 387.1H354.23L355.06 408.46Z" fill="#B55B52"/>
<path d="M345.001 407.391H355.371C355.542 407.388 355.708 407.452 355.833 407.57C355.959 407.687 356.033 407.849 356.041 408.021L356.391 416.221C356.386 416.654 356.211 417.068 355.905 417.375C355.598 417.681 355.184 417.855 354.751 417.861C351.141 417.801 349.421 417.591 344.861 417.591C342.061 417.591 335.611 417.881 331.741 417.881C327.871 417.881 328.041 414.051 329.691 413.701C337.081 412.151 340.761 410.011 343.401 407.961C343.857 407.6 344.419 407.4 345.001 407.391Z" fill="#263238"/>
<g opacity="0.2">
<path d="M345 387.109L345.43 398.119H354.66L354.23 387.109H345Z" fill="black"/>
</g>
<path d="M332.4 156.699C332.2 162.529 333.21 176.149 339.34 207.869L376.79 206.749C375.79 192.589 375.45 183.469 380.53 156.879C380.688 156.06 380.676 155.216 380.494 154.401C380.311 153.587 379.963 152.819 379.47 152.145C378.977 151.471 378.351 150.906 377.63 150.485C376.909 150.064 376.109 149.797 375.28 149.699C372.53 149.379 369.18 149.079 365.8 149.019C360.128 148.783 354.447 148.953 348.8 149.529C344.47 150.049 339.8 150.949 336.73 151.599C335.541 151.841 334.467 152.475 333.682 153.4C332.897 154.325 332.445 155.487 332.4 156.699Z" fill="url(#paint2_linear_6438_10097)"/>
<path opacity="0.7" d="M332.4 156.699C332.2 162.529 333.21 176.149 339.34 207.869L376.79 206.749C375.79 192.589 375.45 183.469 380.53 156.879C380.688 156.06 380.676 155.216 380.494 154.401C380.311 153.587 379.963 152.819 379.47 152.145C378.977 151.471 378.351 150.906 377.63 150.485C376.909 150.064 376.109 149.797 375.28 149.699C372.53 149.379 369.18 149.079 365.8 149.019C360.128 148.783 354.447 148.953 348.8 149.529C344.47 150.049 339.8 150.949 336.73 151.599C335.541 151.841 334.467 152.475 333.682 153.4C332.897 154.325 332.445 155.487 332.4 156.699Z" fill="white"/>
<path d="M363.541 129.92C362.631 135.43 361.861 145.48 365.801 149.02C362.841 153.686 358.177 157.012 352.801 158.29C344.171 153.91 348.801 149.53 348.801 149.53C354.861 147.89 354.571 143.37 353.381 139.15L363.541 129.92Z" fill="#B55B52"/>
<path d="M352.811 158.29L353.931 156.1L359.921 157.46L352.811 158.29Z" fill="url(#paint3_linear_6438_10097)"/>
<path d="M353.93 156.099C355.85 155.219 364.76 149.419 365.11 147.609C366.844 147.851 368.543 148.3 370.17 148.949C370.17 148.949 368.57 156.099 359.92 160.949C359.317 159.766 358.472 158.723 357.44 157.887C356.408 157.052 355.212 156.443 353.93 156.099Z" fill="white"/>
<path d="M352.811 158.29L352.311 156.1L348.631 156.36L352.811 158.29Z" fill="url(#paint4_linear_6438_10097)"/>
<path d="M352.311 156.099C349.311 154.099 350.431 149.999 350.721 148.189C349.221 148.342 347.75 148.705 346.351 149.269C346.351 149.269 341.841 153.409 346.211 160.989C347.739 158.813 349.855 157.117 352.311 156.099Z" fill="white"/>
<path opacity="0.2" d="M359.4 133.689L353.4 139.139C353.697 140.119 353.904 141.123 354.02 142.139C356.34 141.739 359.47 139.079 359.64 136.639C359.738 135.65 359.657 134.65 359.4 133.689Z" fill="black"/>
<path d="M366.451 118.239C366.051 127.379 366.071 131.239 361.541 136.029C354.721 143.199 343.541 140.709 341.231 131.629C339.131 123.449 340.151 109.869 349.031 106.079C350.985 105.236 353.122 104.906 355.239 105.12C357.357 105.335 359.384 106.087 361.129 107.305C362.874 108.523 364.279 110.167 365.211 112.081C366.142 113.994 366.569 116.114 366.451 118.239Z" fill="#B55B52"/>
<path d="M359.92 108.569C356.85 113.719 352.48 107.169 349 111.089C346.21 114.229 341.64 110.929 339 119.889C339.92 112.189 341.21 105.379 349.08 103.119C353.93 101.719 363.21 101.189 359.92 108.569Z" fill="#263238"/>
<path d="M361.491 105C358.801 106.87 356.041 109.56 356.371 112.85C356.701 116.14 361.421 114.7 362.051 117.01C362.681 119.32 359.231 124.18 364.241 124.66C369.961 121.47 371.561 120.77 370.521 115.87C369.481 110.97 365.861 104.35 361.491 105Z" fill="#263238"/>
<path d="M339.261 207.871C339.261 207.871 335.641 276.001 335.451 304.001C335.261 333.141 343.451 396.001 343.451 396.001H355.921C355.921 396.001 353.551 332.481 355.471 303.741C357.561 272.411 364.851 207.061 364.851 207.061L339.261 207.871Z" fill="url(#paint5_linear_6438_10097)"/>
<path d="M356.97 396.429H342.33L341.73 391.759L358.18 391.189L356.97 396.429Z" fill="#263238"/>
<path opacity="0.2" d="M362.221 231.521C360.881 229.841 359.111 230.721 356.801 235.521C348.921 251.871 352.921 277.941 356.291 292.961C357.811 274.241 360.311 249.611 362.221 231.521Z" fill="black"/>
<path d="M351 121.741C351 122.481 350.63 123.091 350.14 123.101C349.65 123.111 349.25 122.511 349.24 121.771C349.23 121.031 349.61 120.411 350.09 120.401C350.57 120.391 351 121.001 351 121.741Z" fill="#263238"/>
<path d="M342.62 121.67C342.62 122.41 342.24 123.02 341.76 123.03C341.28 123.04 340.87 122.44 340.85 121.7C340.83 120.96 341.23 120.34 341.71 120.34C342.19 120.34 342.6 120.92 342.62 121.67Z" fill="#263238"/>
<path d="M341.931 120.371L340.131 119.891C340.131 119.891 341.071 121.271 341.931 120.371Z" fill="#263238"/>
<path d="M345.541 122.35C344.911 124.061 344.046 125.677 342.971 127.15C343.354 127.414 343.791 127.592 344.251 127.67C344.71 127.747 345.181 127.723 345.631 127.6L345.541 122.35Z" fill="#A02724"/>
<path d="M350.101 130.049C349.738 130.114 349.37 130.147 349.001 130.149C348.973 130.15 348.944 130.146 348.918 130.136C348.891 130.126 348.867 130.111 348.846 130.091C348.826 130.071 348.809 130.048 348.798 130.022C348.787 129.995 348.781 129.967 348.781 129.939C348.781 129.882 348.803 129.828 348.842 129.787C348.881 129.746 348.935 129.721 348.991 129.719C349.918 129.723 350.833 129.509 351.662 129.094C352.491 128.679 353.21 128.074 353.761 127.329C353.795 127.288 353.843 127.261 353.895 127.253C353.948 127.244 354.001 127.255 354.046 127.283C354.091 127.311 354.125 127.354 354.14 127.405C354.156 127.456 354.153 127.51 354.131 127.559C353.658 128.22 353.058 128.781 352.366 129.208C351.674 129.636 350.904 129.921 350.101 130.049Z" fill="#263238"/>
<path d="M369.05 126.85C368.688 127.648 368.173 128.367 367.533 128.966C366.893 129.565 366.141 130.032 365.32 130.34C363.12 131.15 361.83 129.23 362.32 127.05C362.73 125.05 364.32 122.31 366.65 122.44C367.147 122.48 367.626 122.644 368.043 122.915C368.461 123.187 368.805 123.558 369.043 123.996C369.281 124.434 369.406 124.924 369.408 125.422C369.409 125.92 369.286 126.411 369.05 126.85Z" fill="#B55B52"/>
<path d="M365.19 142.539C363.897 142.539 362.632 142.155 361.557 141.437C360.481 140.718 359.643 139.697 359.148 138.502C358.653 137.307 358.524 135.992 358.776 134.723C359.028 133.454 359.651 132.289 360.566 131.375C361.481 130.46 362.646 129.837 363.915 129.585C365.183 129.332 366.498 129.462 367.693 129.957C368.888 130.452 369.91 131.29 370.628 132.366C371.347 133.441 371.73 134.705 371.73 135.999C371.728 137.733 371.038 139.395 369.812 140.621C368.586 141.846 366.924 142.536 365.19 142.539ZM365.19 129.939C363.991 129.937 362.819 130.291 361.821 130.955C360.823 131.62 360.045 132.566 359.585 133.673C359.124 134.78 359.003 135.999 359.236 137.175C359.468 138.351 360.045 139.432 360.892 140.281C361.739 141.129 362.819 141.707 363.994 141.942C365.17 142.176 366.389 142.057 367.497 141.599C368.605 141.14 369.552 140.364 370.218 139.367C370.885 138.37 371.24 137.198 371.24 135.999C371.238 134.394 370.6 132.856 369.466 131.72C368.332 130.585 366.795 129.944 365.19 129.939Z" fill="url(#paint6_linear_6438_10097)"/>
<path d="M354.321 117.72C354.23 117.734 354.137 117.72 354.054 117.679C353.972 117.638 353.904 117.571 353.861 117.49C352.921 115.7 350.341 115.35 350.311 115.35C350.202 115.327 350.105 115.264 350.04 115.173C349.975 115.082 349.948 114.969 349.963 114.858C349.978 114.748 350.035 114.647 350.122 114.576C350.209 114.506 350.32 114.471 350.431 114.48C350.551 114.48 353.481 114.9 354.631 117.08C354.659 117.131 354.677 117.187 354.683 117.245C354.689 117.303 354.684 117.362 354.667 117.417C354.65 117.473 354.622 117.525 354.585 117.57C354.548 117.615 354.503 117.652 354.451 117.68L354.321 117.72Z" fill="#263238"/>
<path d="M340.001 117C339.927 117.015 339.85 117.01 339.778 116.986C339.706 116.961 339.641 116.918 339.591 116.86C339.553 116.817 339.523 116.766 339.505 116.711C339.486 116.656 339.479 116.597 339.484 116.539C339.488 116.482 339.505 116.425 339.532 116.374C339.559 116.322 339.596 116.277 339.641 116.24C340.159 115.778 340.779 115.446 341.45 115.272C342.122 115.098 342.825 115.087 343.501 115.24C343.613 115.275 343.707 115.352 343.763 115.454C343.819 115.557 343.833 115.677 343.801 115.79C343.785 115.845 343.759 115.896 343.723 115.94C343.687 115.985 343.642 116.021 343.592 116.048C343.542 116.075 343.487 116.092 343.43 116.097C343.373 116.103 343.316 116.097 343.261 116.08C342.724 115.965 342.166 115.98 341.635 116.124C341.105 116.269 340.616 116.538 340.211 116.91C340.15 116.957 340.078 116.987 340.001 117Z" fill="#263238"/>
<path d="M386.261 160.77C387.941 165.58 389.421 170.38 390.761 175.29C391.441 177.74 392.091 180.21 392.641 182.74C392.911 184.01 393.181 185.29 393.411 186.62C393.664 188.038 393.831 189.471 393.911 190.91V191.54V192.28C393.911 192.72 393.851 192.99 393.811 193.36C393.751 194.05 393.661 194.68 393.571 195.36C393.391 196.65 393.181 197.91 392.971 199.16C392.551 201.67 392.051 204.16 391.551 206.61C390.551 211.54 389.361 216.43 388.021 221.3L383.411 220.54C383.681 215.54 384.061 210.54 384.461 205.54L385.061 198.13C385.151 196.9 385.231 195.68 385.301 194.49C385.301 193.89 385.371 193.29 385.381 192.73C385.381 192.47 385.381 192.12 385.381 191.94V191.74V191.44C385.236 190.39 385.035 189.348 384.781 188.32C384.521 187.19 384.221 186.04 383.901 184.88C383.251 182.56 382.561 180.21 381.851 177.88L377.361 163.8L386.261 160.77Z" fill="#B55B52"/>
<path d="M375.281 149.699C387.561 151.219 389.991 166.219 391.741 169.989L379.691 180.099C379.691 180.099 372.061 167.269 370.951 162.289C369.801 157.099 370.841 149.149 375.281 149.699Z" fill="url(#paint7_linear_6438_10097)"/>
<path opacity="0.7" d="M375.281 149.699C387.561 151.219 389.991 166.219 391.741 169.989L379.691 180.099C379.691 180.099 372.061 167.269 370.951 162.289C369.801 157.099 370.841 149.149 375.281 149.699Z" fill="white"/>
<path d="M341.361 408.999C340.59 409.075 339.817 408.873 339.181 408.429C339.044 408.291 338.945 408.12 338.894 407.933C338.844 407.745 338.842 407.547 338.891 407.359C338.912 407.235 338.962 407.119 339.037 407.018C339.112 406.917 339.209 406.835 339.321 406.779C340.511 406.159 344.001 408.039 344.391 408.259C344.43 408.28 344.46 408.313 344.478 408.352C344.496 408.392 344.501 408.437 344.491 408.479C344.478 408.526 344.452 408.568 344.417 408.602C344.382 408.635 344.338 408.658 344.291 408.669C343.326 408.865 342.346 408.976 341.361 408.999ZM339.911 407.089C339.767 407.081 339.622 407.108 339.491 407.169C339.446 407.191 339.408 407.223 339.378 407.263C339.348 407.303 339.329 407.35 339.321 407.399C339.29 407.522 339.29 407.65 339.321 407.772C339.353 407.895 339.415 408.007 339.501 408.099C340.011 408.609 341.501 408.689 343.601 408.349C342.455 407.716 341.206 407.293 339.911 407.099V407.089Z" fill="url(#paint8_linear_6438_10097)"/>
<path d="M344.25 408.68H344.16C343.11 408.18 341.16 406.19 341.42 405.15C341.48 404.9 341.69 404.59 342.3 404.53C342.511 404.505 342.725 404.525 342.927 404.591C343.129 404.657 343.314 404.766 343.47 404.91C344.53 405.91 344.47 408.36 344.47 408.46C344.471 408.5 344.461 408.54 344.442 408.575C344.422 408.61 344.394 408.639 344.36 408.66C344.326 408.677 344.288 408.684 344.25 408.68ZM342.43 404.94H342.3C341.9 404.94 341.85 405.14 341.84 405.19C341.67 405.82 342.99 407.38 344.04 408.06C344.069 407.042 343.76 406.043 343.16 405.22C343.063 405.127 342.949 405.054 342.824 405.006C342.698 404.958 342.564 404.935 342.43 404.94Z" fill="url(#paint9_linear_6438_10097)"/>
<path d="M411.001 404.98L401.981 406.92L394.471 386.69L403.491 384.75L411.001 404.98Z" fill="#B55B52"/>
<path d="M401.42 406L411.55 403.81C411.724 403.77 411.908 403.794 412.066 403.878C412.224 403.963 412.346 404.102 412.41 404.27L415.41 412.02C415.478 412.216 415.504 412.425 415.485 412.632C415.467 412.838 415.404 413.039 415.302 413.22C415.2 413.4 415.06 413.557 414.892 413.68C414.725 413.802 414.533 413.888 414.33 413.93C410.78 414.63 409.04 414.79 404.58 415.75C401.84 416.34 396.99 418.2 393.13 417.93C389.27 417.66 389.28 413.82 390.91 413.59C398.21 412.54 398.13 409.39 400.05 406.88C400.391 406.437 400.875 406.127 401.42 406Z" fill="#263238"/>
<path d="M400.32 407.841C399.559 408.073 398.742 408.045 398 407.761C397.828 407.664 397.681 407.527 397.574 407.361C397.466 407.196 397.399 407.007 397.38 406.811C397.357 406.692 397.366 406.569 397.406 406.454C397.447 406.34 397.517 406.239 397.61 406.161C398.61 405.321 402.61 406.371 403.04 406.501C403.085 406.509 403.126 406.533 403.157 406.567C403.187 406.601 403.206 406.645 403.21 406.691C403.212 406.736 403.201 406.781 403.178 406.82C403.155 406.86 403.121 406.891 403.08 406.911C402.19 407.304 401.266 407.616 400.32 407.841ZM398.32 406.331C398.182 406.353 398.052 406.408 397.94 406.491C397.904 406.523 397.876 406.563 397.86 406.609C397.845 406.654 397.841 406.703 397.85 406.751C397.86 406.88 397.902 407.005 397.972 407.115C398.041 407.225 398.137 407.316 398.25 407.381C398.91 407.751 400.42 407.521 402.34 406.761C401.022 406.381 399.648 406.236 398.28 406.331H398.32Z" fill="url(#paint10_linear_6438_10097)"/>
<path d="M403 406.919C401.81 406.669 399.24 405.189 399.17 404.129C399.17 403.879 399.26 403.549 399.84 403.359C400.046 403.29 400.265 403.264 400.481 403.283C400.698 403.302 400.909 403.365 401.1 403.469C402.45 404.169 403.22 406.539 403.25 406.639C403.26 406.675 403.261 406.714 403.252 406.751C403.244 406.787 403.226 406.821 403.2 406.849C403.177 406.879 403.146 406.902 403.111 406.915C403.075 406.927 403.036 406.929 403 406.919ZM400 403.739H399.87C399.49 403.869 399.5 404.029 399.5 404.079C399.5 404.709 401.33 405.929 402.58 406.349C402.259 405.347 401.637 404.467 400.8 403.829C400.57 403.717 400.31 403.685 400.06 403.739H400Z" fill="url(#paint11_linear_6438_10097)"/>
<g opacity="0.2">
<path d="M394.471 386.7L398.341 397.13L407.361 395.18L403.491 384.75L394.471 386.7Z" fill="black"/>
</g>
<path d="M376.791 206.75C385.791 221.03 383.261 273.55 384.681 301.59C393.121 326.46 408.011 392.86 408.011 392.86L395.821 395.49C395.821 395.49 368.931 329.59 363.351 301.44C357.191 270.37 349.691 206.75 349.691 206.75H376.791Z" fill="url(#paint12_linear_6438_10097)"/>
<path d="M408.921 393.119L394.621 396.209L393.121 391.749L409.081 387.719L408.921 393.119Z" fill="#263238"/>
<path d="M350.331 120.439L348.531 119.959C348.531 119.959 349.471 121.339 350.331 120.439Z" fill="#263238"/>
<path d="M377.281 204.539L378.341 207.859C378.481 208.119 378.181 208.389 377.741 208.409L339.201 209.549C338.871 209.549 338.581 209.409 338.561 209.189L338.121 205.849C338.121 205.619 338.371 205.419 338.741 205.399L376.661 204.279C376.778 204.264 376.897 204.28 377.006 204.326C377.115 204.371 377.21 204.445 377.281 204.539Z" fill="#263238"/>
<path d="M372.31 208.93H373.31C373.51 208.93 373.66 208.82 373.65 208.69L373.04 204.35C373.04 204.22 372.84 204.12 372.64 204.13H371.64C371.44 204.13 371.29 204.24 371.31 204.37L371.91 208.71C371.93 208.84 372.11 208.94 372.31 208.93Z" fill="url(#paint13_linear_6438_10097)"/>
<path d="M342.071 209.83H343.071C343.271 209.83 343.421 209.72 343.401 209.59L342.801 205.25C342.801 205.12 342.601 205.02 342.401 205.03H341.401C341.201 205.03 341.051 205.14 341.061 205.27L341.671 209.61C341.691 209.74 341.871 209.84 342.071 209.83Z" fill="url(#paint14_linear_6438_10097)"/>
<path d="M357.191 209.379H358.191C358.391 209.379 358.541 209.269 358.521 209.139L357.921 204.799C357.921 204.669 357.721 204.569 357.521 204.579H356.521C356.321 204.579 356.171 204.689 356.191 204.819L356.791 209.159C356.811 209.289 357.001 209.389 357.191 209.379Z" fill="url(#paint15_linear_6438_10097)"/>
<path d="M384 218.999L377.25 226.329L386.62 226.739C386.62 226.849 389.67 221.739 387.76 218.379L384 218.999Z" fill="#B55B52"/>
<path d="M379.711 234H382.431C383.03 233.995 383.612 233.798 384.091 233.438C384.569 233.078 384.92 232.574 385.091 232L386.641 226.75L377.271 226.34L376.891 231C376.865 231.385 376.919 231.772 377.049 232.136C377.179 232.5 377.383 232.833 377.647 233.114C377.912 233.396 378.232 233.62 378.587 233.772C378.942 233.925 379.325 234.002 379.711 234Z" fill="#B55B52"/>
<path d="M140.331 407.439L131.721 407.309L132.261 387.289L140.871 387.419L140.331 407.439Z" fill="#FFC3BD"/>
<path d="M131.621 406.309L141.031 406.459C141.198 406.455 141.36 406.516 141.484 406.627C141.608 406.738 141.686 406.892 141.701 407.059L142.521 414.759C142.535 414.953 142.508 415.148 142.443 415.331C142.378 415.515 142.275 415.683 142.142 415.825C142.008 415.967 141.847 416.079 141.668 416.156C141.489 416.232 141.296 416.271 141.101 416.269C137.711 416.159 132.831 415.889 128.561 415.819C123.561 415.739 124.061 415.949 118.211 415.819C114.671 415.769 114.101 412.169 115.621 411.819C122.531 410.449 123.231 410.379 129.471 406.869C130.126 406.497 130.868 406.304 131.621 406.309Z" fill="#263238"/>
<path d="M129.63 149.599C127.63 155.859 125.44 162.039 123.15 168.189C122.01 171.269 120.85 174.339 119.64 177.399C118.43 180.459 117.22 183.519 115.94 186.579C115.65 187.309 115.24 188.189 114.88 189.009C114.52 189.829 114.12 190.619 113.73 191.399C113.34 192.179 112.93 192.949 112.51 193.699C112.09 194.449 111.69 195.209 111.26 195.939C109.6 198.939 107.77 201.699 105.96 204.499C102.28 210.069 98.3802 215.379 94.1802 220.559L88.7402 216.999L97.3702 199.559C100.221 194.001 102.713 188.266 104.83 182.389L110.91 163.879C112.91 157.699 115.06 151.509 117.23 145.389L129.63 149.599Z" fill="#FFC3BD"/>
<path d="M135.421 145.59C133.311 152.53 126.021 169.86 126.021 169.86L109.311 158.2C109.311 158.2 112.251 146.92 118.861 141.61C128.241 134.08 138.141 136.64 135.421 145.59Z" fill="#263238"/>
<path opacity="0.2" d="M125.481 151.23C119.331 152.72 114.671 158.92 115.421 162.47L126.021 169.86C126.021 169.86 128.291 161.15 132.301 155.35C130.001 153 127.261 150.8 125.481 151.23Z" fill="black"/>
<path d="M122.78 167C123.38 166.551 123.936 166.045 124.44 165.49C124.44 165.49 112.03 156.84 108.9 156.75C108.356 157.409 108.037 158.226 107.99 159.08C107.99 159.08 118.83 167.13 122.78 167Z" fill="url(#paint16_linear_6438_10097)"/>
<path d="M91.7905 214.049L83.4805 219.409L90.1305 226.639C90.1305 226.639 97.1305 223.369 95.8805 217.079L91.7905 214.049Z" fill="#FFC3BD"/>
<path d="M80.0004 227.799L84.1004 229.879C84.4367 230.049 84.8142 230.12 85.1892 230.085C85.5643 230.049 85.9217 229.909 86.2204 229.679L90.1704 226.679L83.5204 219.449L79.3304 224.849C79.1604 225.08 79.042 225.345 78.9835 225.626C78.9249 225.907 78.9275 226.198 78.9911 226.477C79.0546 226.757 79.1777 227.02 79.3518 227.248C79.526 227.476 79.7472 227.664 80.0004 227.799Z" fill="#FFC3BD"/>
<path opacity="0.2" d="M132.26 387.289L131.98 397.609L140.6 397.749L140.88 387.429L132.26 387.289Z" fill="black"/>
<path d="M171.22 141.31C163.17 174.1 166.36 208.9 165.79 215.94L119.61 215.19C116.61 178.83 119.61 154.96 121.49 144.4C121.831 142.529 122.769 140.819 124.162 139.525C125.555 138.231 127.33 137.422 129.22 137.22L129.79 137.16C131.05 137.03 132.41 136.92 133.79 136.84C134.57 136.79 135.37 136.77 136.17 136.75C142.74 136.863 149.297 137.351 155.81 138.21C157.04 138.36 158.3 138.55 159.51 138.75C160.72 138.95 161.75 139.14 162.79 139.35C167.56 140.28 171.22 141.31 171.22 141.31Z" fill="#263238"/>
<path opacity="0.2" d="M161.93 155.369C161.22 158.549 162.72 173.019 166.17 176.589C166.44 171.959 166.86 167.119 167.47 162.169L161.93 155.369Z" fill="black"/>
<path d="M154.689 116C153.229 122.2 151.569 133.65 155.829 138.18C152.279 141.33 147.609 145.4 140.139 144.63C134.049 144.01 134.139 139.29 136.209 136.72C143.309 135.57 143.319 130.34 142.269 125.36L154.689 116Z" fill="#FFC3BD"/>
<path opacity="0.2" d="M153.461 122.999L148.341 120.859L146.431 122.299C146.631 122.999 146.121 125.539 146.431 126.299C147.311 128.419 150.841 129.529 153.121 129.169C153.084 127.107 153.198 125.045 153.461 122.999Z" fill="black"/>
<path d="M149.999 89.2096C146.409 91.8696 146.399 92.2096 142.639 91.4796C138.879 90.7496 128.249 86.8696 131.079 96.0496C122.139 96.5696 123.399 105.98 127.399 111.28C131.399 116.58 135.399 117.09 135.859 121.44C136.439 126.55 145.089 127.54 146.299 124.67L158.649 114.13C162.749 114.38 158.789 107.7 160.819 103.86C161.134 103.263 161.304 102.601 161.314 101.927C161.325 101.252 161.176 100.585 160.879 99.9796C162.031 99.4267 163.01 98.569 163.709 97.4996C167.839 91.4296 155.829 84.9296 149.999 89.2096Z" fill="#263238"/>
<path d="M136 107.82C137.08 116.31 137.28 121.33 141.88 125.39C148.79 131.49 159.07 126.8 160.55 118.14C161.88 110.34 159.89 97.7703 151.31 95.0003C149.412 94.386 147.388 94.2637 145.43 94.6446C143.471 95.0255 141.641 95.8973 140.111 97.1783C138.582 98.4593 137.402 100.108 136.683 101.969C135.964 103.83 135.729 105.843 136 107.82Z" fill="#FFC3BD"/>
<path d="M136.851 97.7391C141.321 96.7391 145.421 101.919 143.001 105.519C140.581 109.119 145.741 113.599 140.331 115.919C136.551 117.539 134.721 113.609 132.891 110.919C130.081 106.809 132.091 98.7891 136.851 97.7391Z" fill="#263238"/>
<path d="M132.48 96.65C137.94 99.59 139.27 102.45 147.38 99.65C152.17 98.01 153.38 101.78 159.54 100.45C160.73 93.1799 152.25 91.57 147.97 92.37C143.69 93.17 132.48 96.65 132.48 96.65Z" fill="#263238"/>
<path d="M132.48 98.1103C132.315 98.1007 132.152 98.0635 132 98.0003C126.15 96.0003 126.23 91.5903 126.24 91.4003C126.26 91.0174 126.428 90.6572 126.707 90.3946C126.986 90.132 127.356 89.9872 127.74 89.9903C128.122 90.0033 128.483 90.1656 128.747 90.4424C129.01 90.7191 129.155 91.0881 129.15 91.4703C129.15 91.6203 129.24 93.9903 132.93 95.2403C133.255 95.3528 133.531 95.5771 133.707 95.8733C133.884 96.1695 133.95 96.5185 133.893 96.8587C133.837 97.1988 133.662 97.508 133.4 97.7316C133.137 97.9552 132.804 98.0787 132.46 98.0803L132.48 98.1103Z" fill="#263238"/>
<path d="M134.62 116.069C135.649 117.722 137.228 118.958 139.08 119.559C141.3 120.159 141.83 117.729 140.72 115.269C139.72 113.059 137.37 110.079 135.37 110.569C133.37 111.059 133.2 113.899 134.62 116.069Z" fill="#FFC3BD"/>
<path d="M146.381 300.879C146.031 257.469 155.641 215.779 155.641 215.779L119.641 215.199C119.641 215.199 123.781 277.899 125.221 304.199C126.721 331.499 128.811 395.609 128.811 395.609L143.421 395.829C143.421 395.829 148.401 335.139 146.381 300.879Z" fill="url(#paint17_linear_6438_10097)"/>
<path opacity="0.2" d="M147.811 239.66C137.551 253.71 142.161 280.13 146.371 298.8C146.535 278.209 148.286 257.661 151.611 237.34L147.811 239.66Z" fill="black"/>
<path d="M127.901 395.88L145.281 396.15L146.261 390.52L126.891 389.92L127.901 395.88Z" fill="#263238"/>
<path d="M150.059 109.89C150.059 110.58 150.509 111.12 150.959 111.08C151.409 111.04 151.749 110.46 151.699 109.76C151.649 109.06 151.249 108.53 150.799 108.57C150.349 108.61 149.999 109.19 150.059 109.89Z" fill="#263238"/>
<path d="M158.22 109.3C158.27 110 158.67 110.53 159.13 110.5C159.59 110.47 159.91 109.87 159.87 109.18C159.83 108.49 159.42 107.95 158.96 107.98C158.5 108.01 158.18 108.61 158.22 109.3Z" fill="#263238"/>
<path d="M155.83 109.41C156.797 111.473 158.046 113.391 159.54 115.11C158.39 116.34 156.26 115.97 156.26 115.97L155.83 109.41Z" fill="#ED847E"/>
<path d="M151.65 118C150.871 117.964 150.108 117.767 149.407 117.423C148.707 117.079 148.085 116.595 147.58 116C147.557 115.956 147.551 115.906 147.562 115.857C147.573 115.809 147.6 115.766 147.64 115.736C147.679 115.706 147.728 115.691 147.778 115.694C147.827 115.696 147.874 115.716 147.91 115.75C148.482 116.397 149.198 116.899 150.001 117.216C150.805 117.532 151.671 117.654 152.53 117.57C152.557 117.567 152.585 117.57 152.611 117.578C152.637 117.587 152.661 117.6 152.681 117.618C152.702 117.636 152.719 117.657 152.73 117.682C152.742 117.706 152.749 117.733 152.75 117.76C152.753 117.814 152.735 117.867 152.7 117.908C152.664 117.949 152.614 117.975 152.56 117.98C152.258 118.007 151.954 118.014 151.65 118Z" fill="#263238"/>
<path d="M148.08 107.21C148.009 107.211 147.939 107.19 147.88 107.15C147.834 107.121 147.795 107.083 147.764 107.038C147.734 106.993 147.713 106.942 147.703 106.889C147.692 106.836 147.693 106.781 147.705 106.728C147.716 106.675 147.738 106.625 147.77 106.58C148.113 106.026 148.583 105.562 149.141 105.226C149.7 104.891 150.33 104.693 150.98 104.65C151.089 104.65 151.193 104.694 151.27 104.77C151.347 104.847 151.39 104.952 151.39 105.06C151.39 105.169 151.347 105.273 151.27 105.35C151.193 105.427 151.089 105.47 150.98 105.47C150.465 105.511 149.967 105.674 149.527 105.945C149.087 106.217 148.718 106.588 148.45 107.03C148.41 107.09 148.354 107.139 148.289 107.17C148.224 107.202 148.152 107.216 148.08 107.21Z" fill="#263238"/>
<path d="M160.091 105.14C160.024 105.141 159.957 105.126 159.896 105.096C159.835 105.067 159.782 105.023 159.741 104.97C159.454 104.547 159.068 104.2 158.617 103.96C158.166 103.719 157.663 103.592 157.151 103.59C157.097 103.592 157.044 103.584 156.993 103.566C156.942 103.548 156.895 103.52 156.855 103.484C156.815 103.448 156.783 103.404 156.76 103.355C156.737 103.306 156.724 103.253 156.721 103.2C156.716 103.092 156.752 102.987 156.823 102.907C156.895 102.827 156.994 102.777 157.101 102.77C157.749 102.766 158.387 102.92 158.962 103.218C159.537 103.516 160.031 103.949 160.401 104.48C160.435 104.523 160.459 104.572 160.473 104.625C160.487 104.677 160.49 104.732 160.483 104.786C160.476 104.84 160.457 104.892 160.43 104.939C160.402 104.986 160.365 105.027 160.321 105.06C160.253 105.105 160.173 105.133 160.091 105.14Z" fill="#263238"/>
<path d="M130.06 407.079C130.094 407.066 130.124 407.045 130.147 407.017C130.17 406.988 130.185 406.955 130.19 406.919C130.197 406.876 130.191 406.833 130.173 406.794C130.155 406.755 130.126 406.721 130.09 406.699C129.7 406.499 126.26 404.699 125.2 405.249C125.102 405.303 125.019 405.381 124.958 405.475C124.897 405.569 124.86 405.677 124.85 405.789C124.828 405.973 124.85 406.159 124.915 406.333C124.979 406.507 125.084 406.663 125.22 406.789C126.15 407.639 128.63 407.339 130.03 407.089L130.06 407.079ZM125.47 405.579C126.12 405.359 127.99 406.109 129.35 406.779C127.44 407.069 126.02 406.969 125.5 406.489C125.409 406.406 125.34 406.303 125.298 406.188C125.256 406.073 125.243 405.95 125.26 405.829C125.259 405.783 125.27 405.739 125.293 405.7C125.316 405.661 125.35 405.629 125.39 405.609L125.47 405.579Z" fill="url(#paint18_linear_6438_10097)"/>
<path d="M130.06 407.079H130.11C130.139 407.059 130.162 407.032 130.178 407.001C130.194 406.969 130.201 406.935 130.2 406.899C130.2 406.799 129.99 404.469 128.91 403.549C128.756 403.415 128.577 403.313 128.383 403.249C128.189 403.186 127.984 403.162 127.78 403.179C127.22 403.229 127.05 403.519 127.01 403.739C126.84 404.739 128.87 406.619 129.9 407.099C129.954 407.108 130.01 407.101 130.06 407.079ZM127.61 403.599C127.68 403.591 127.75 403.591 127.82 403.599C127.969 403.586 128.12 403.603 128.263 403.649C128.405 403.696 128.537 403.771 128.65 403.869C129.279 404.63 129.66 405.565 129.74 406.549C128.69 405.899 127.31 404.409 127.41 403.829C127.42 403.749 127.44 403.659 127.61 403.599Z" fill="url(#paint19_linear_6438_10097)"/>
<path d="M201.811 407.439L193.161 407.309L187.621 387.289L196.281 387.419L201.811 407.439Z" fill="#FFC3BD"/>
<path d="M192.551 406.309L201.991 406.459C202.166 406.463 202.336 406.524 202.475 406.632C202.613 406.74 202.714 406.89 202.761 407.059L204.901 414.759C204.957 414.937 204.97 415.127 204.938 415.311C204.905 415.495 204.829 415.669 204.715 415.817C204.601 415.965 204.453 416.084 204.283 416.163C204.114 416.241 203.928 416.278 203.741 416.269C200.331 416.159 199.221 415.889 194.941 415.819C189.941 415.739 192.281 415.949 186.411 415.819C182.861 415.769 181.681 412.189 183.141 411.819C187.761 410.819 188.701 408.909 190.511 406.869C190.795 406.642 191.122 406.475 191.473 406.378C191.824 406.282 192.19 406.259 192.551 406.309Z" fill="#263238"/>
<path opacity="0.2" d="M187.621 387.289L190.481 397.609L199.141 397.749L196.281 387.429L187.621 387.289Z" fill="black"/>
<path d="M180.171 301.489C175.271 262.689 171.611 224.609 165.791 215.939L135.281 215.449C135.281 215.449 152.931 278.449 158.891 304.329C165.071 331.199 186.541 392.999 186.541 392.999L200.461 393.199C200.461 393.199 189.311 331.499 180.171 301.489Z" fill="url(#paint20_linear_6438_10097)"/>
<path d="M184.621 395.88L201.991 396.15L202.971 390.52L183.611 389.92L184.621 395.88Z" fill="#263238"/>
<path d="M193.09 406.999C193.128 407.004 193.166 406.997 193.2 406.979C193.234 406.961 193.262 406.933 193.28 406.899C193.304 406.864 193.317 406.822 193.317 406.779C193.317 406.736 193.304 406.695 193.28 406.659C192.99 406.329 190.38 403.449 189.19 403.659C189.078 403.674 188.972 403.717 188.882 403.786C188.793 403.854 188.723 403.945 188.68 404.049C188.591 404.212 188.545 404.394 188.545 404.579C188.545 404.764 188.591 404.947 188.68 405.109C189.26 406.229 191.68 406.799 193.09 407.039V406.999ZM189.3 403.999C189.99 403.999 191.49 405.369 192.53 406.459C190.64 406.079 189.34 405.459 189.01 404.859C188.953 404.751 188.923 404.631 188.923 404.509C188.923 404.387 188.953 404.267 189.01 404.159C189.024 404.117 189.051 404.079 189.087 404.05C189.122 404.022 189.165 404.004 189.21 403.999H189.3Z" fill="url(#paint21_linear_6438_10097)"/>
<path d="M193.09 406.999H193.15C193.184 406.988 193.215 406.969 193.24 406.942C193.264 406.916 193.282 406.884 193.29 406.849C193.29 406.759 193.94 404.509 193.29 403.269C193.192 403.089 193.058 402.932 192.896 402.806C192.734 402.681 192.549 402.59 192.35 402.539C191.81 402.389 191.55 402.599 191.44 402.799C190.94 403.649 192.2 406.129 193 406.939C193.024 406.967 193.055 406.988 193.09 406.999ZM191.98 402.899H192.2C192.345 402.937 192.48 403.005 192.597 403.098C192.714 403.191 192.81 403.307 192.88 403.439C193.213 404.368 193.251 405.377 192.99 406.329C192.22 405.329 191.44 403.489 191.74 402.969C191.765 402.925 191.804 402.89 191.851 402.87C191.898 402.85 191.951 402.846 192 402.859L191.98 402.899Z" fill="url(#paint22_linear_6438_10097)"/>
<path d="M174.88 150.66L175.23 151.45L175.65 152.35L176.51 154.19C177.12 155.42 177.76 156.64 178.43 157.84C179.76 160.27 181.19 162.64 182.72 164.92C184.233 167.204 185.865 169.407 187.61 171.52C188.46 172.59 189.41 173.52 190.29 174.59L191.71 176.03L192.42 176.76L192.51 176.85C192.51 176.85 192.51 176.85 192.44 176.85C192.37 176.85 192.19 176.85 192.22 176.85C192.386 176.924 192.571 176.945 192.75 176.91C193.677 176.788 194.578 176.517 195.42 176.11C197.748 174.969 199.953 173.592 202 172C206.549 168.508 210.89 164.751 215 160.75L220.08 164.75C218.41 167.377 216.597 169.911 214.65 172.34C212.693 174.798 210.589 177.136 208.35 179.34C205.969 181.743 203.314 183.857 200.44 185.64C198.692 186.711 196.79 187.507 194.8 188C193.513 188.298 192.187 188.393 190.87 188.28C189.306 188.138 187.79 187.668 186.42 186.9C186.09 186.69 185.74 186.48 185.42 186.25L184.95 185.9L184.72 185.72L184.61 185.62L183.67 184.82L181.81 183.22C180.63 182.09 179.41 180.99 178.33 179.78C176.089 177.442 174.011 174.952 172.11 172.33C170.204 169.741 168.46 167.036 166.89 164.23C166.11 162.82 165.37 161.4 164.66 159.94C164.31 159.21 163.95 158.48 163.66 157.73L163.17 156.58L162.67 155.3L174.88 150.66Z" fill="#FFC3BD"/>
<path d="M171.22 141.31C179.22 143.77 182.89 161.61 182.89 161.61L170.71 172.31C165.994 167.477 162.306 161.738 159.87 155.44C155.76 144.42 161.57 138.32 171.22 141.31Z" fill="#263238"/>
<path d="M183.48 161.939C183.257 161.221 182.969 160.525 182.62 159.859C182.62 159.859 170.3 168.649 169.17 171.559C169.608 172.294 170.271 172.869 171.06 173.199C171.06 173.199 182.24 165.679 183.48 161.939Z" fill="url(#paint23_linear_6438_10097)"/>
<path d="M213.57 162.65L218.24 155.27L225.17 163.12C225.17 163.12 220.17 169.29 216.43 167.12L213.57 162.65Z" fill="#FFC3BD"/>
<path d="M227.07 153.2L229.07 156.36C229.452 156.967 229.604 157.692 229.497 158.402C229.391 159.112 229.033 159.761 228.49 160.23L225.2 163.12L218.27 155.27L222.88 152.27C223.214 152.051 223.589 151.901 223.983 151.83C224.376 151.758 224.78 151.766 225.17 151.853C225.561 151.939 225.93 152.103 226.256 152.334C226.582 152.566 226.859 152.86 227.07 153.2Z" fill="#FFC3BD"/>
<path d="M328.47 174.44C323.888 169.852 318.444 166.214 312.451 163.736C306.458 161.258 300.035 159.988 293.55 160H272.43V164.74C267.307 167.165 262.639 170.453 258.63 174.46C254.004 169.823 248.499 166.156 242.437 163.673C236.376 161.19 229.88 159.941 223.33 160H202.22V164.92C195.122 168.349 188.949 173.426 184.215 179.729C179.481 186.032 176.325 193.376 175.01 201.148C173.695 208.92 174.26 216.894 176.658 224.403C179.055 231.912 183.215 238.738 188.79 244.31L237.29 292.81H237.06V314.15H252.38C256.382 314.15 260.22 312.56 263.05 309.73L328.47 244.31C333.06 239.723 336.701 234.277 339.185 228.283C341.669 222.289 342.947 215.864 342.947 209.375C342.947 202.886 341.669 196.461 339.185 190.467C336.701 184.473 333.06 179.027 328.47 174.44Z" fill="url(#paint24_linear_6438_10097)"/>
<path opacity="0.2" d="M328.47 174.44C323.888 169.852 318.444 166.214 312.451 163.736C306.458 161.258 300.035 159.988 293.55 160H272.43V164.74C267.307 167.165 262.639 170.453 258.63 174.46C254.004 169.823 248.499 166.156 242.437 163.673C236.376 161.19 229.88 159.941 223.33 160H202.22V164.92C195.122 168.349 188.949 173.426 184.215 179.729C179.481 186.032 176.325 193.376 175.01 201.148C173.695 208.92 174.26 216.894 176.658 224.403C179.055 231.912 183.215 238.738 188.79 244.31L237.29 292.81H237.06V314.15H252.38C256.382 314.15 260.22 312.56 263.05 309.73L328.47 244.31C333.06 239.723 336.701 234.277 339.185 228.283C341.669 222.289 342.947 215.864 342.947 209.375C342.947 202.886 341.669 196.461 339.185 190.467C336.701 184.473 333.06 179.027 328.47 174.44Z" fill="black"/>
<path d="M306.9 174.441C297.638 165.181 285.077 159.979 271.98 159.979C258.883 159.979 246.322 165.181 237.06 174.441C227.768 165.321 215.251 160.239 202.232 160.3C189.212 160.361 176.743 165.561 167.538 174.768C158.332 183.975 153.134 196.444 153.075 209.464C153.015 222.483 158.099 235 167.22 244.29L237.06 314.131L306.9 244.29C311.487 239.704 315.125 234.259 317.607 228.267C320.09 222.274 321.367 215.852 321.367 209.366C321.367 202.879 320.09 196.457 317.607 190.464C315.125 184.472 311.487 179.027 306.9 174.441Z" fill="url(#paint25_linear_6438_10097)"/>
<path d="M205.811 286.416L205.104 287.123L215.901 297.921L216.608 297.213L205.811 286.416Z" fill="url(#paint26_linear_6438_10097)"/>
<path d="M220.856 301.48L220.148 302.188L225.07 307.109L225.777 306.402L220.856 301.48Z" fill="url(#paint27_linear_6438_10097)"/>
<path opacity="0.2" d="M306.9 174.441C297.638 165.181 285.077 159.979 271.98 159.979C258.883 159.979 246.322 165.181 237.06 174.441C227.768 165.321 215.251 160.239 202.232 160.3C189.212 160.361 176.743 165.561 167.538 174.768C158.332 183.975 153.134 196.444 153.075 209.464C153.015 222.483 158.099 235 167.22 244.29L237.06 314.131L306.9 244.29C311.487 239.704 315.125 234.259 317.607 228.267C320.09 222.274 321.367 215.852 321.367 209.366C321.367 202.879 320.09 196.457 317.607 190.464C315.125 184.472 311.487 179.027 306.9 174.441Z" fill="black"/>
<path d="M174.419 237.08C170.78 233.44 167.893 229.119 165.923 224.364C163.953 219.609 162.939 214.512 162.939 209.365C162.939 204.218 163.953 199.121 165.923 194.366C167.893 189.61 170.78 185.289 174.419 181.65C178.059 178.01 182.38 175.123 187.135 173.153C191.89 171.184 196.987 170.17 202.134 170.17C207.282 170.17 212.378 171.184 217.134 173.153C221.889 175.123 226.21 178.01 229.849 181.65L237.059 188.86L244.269 181.65C247.909 178.01 252.23 175.123 256.985 173.153C261.74 171.184 266.837 170.17 271.984 170.17C277.132 170.17 282.228 171.184 286.984 173.153C291.739 175.123 296.06 178.01 299.699 181.65C303.339 185.289 306.226 189.61 308.196 194.366C310.165 199.121 311.179 204.218 311.179 209.365C311.179 214.512 310.165 219.609 308.196 224.364C306.226 229.119 303.339 233.44 299.699 237.08L237.059 299.72L174.419 237.08Z" fill="url(#paint28_linear_6438_10097)"/>
<path d="M186.16 202.621H203.38V207.151H197.6V221.001H191.93V207.201H186.16V202.621Z" fill="url(#paint29_linear_6438_10097)"/>
<path d="M206 202.62H211.67V209H217.86V202.59H223.55V221H217.86V213.59H211.67V221H206V202.62Z" fill="url(#paint30_linear_6438_10097)"/>
<path d="M238.54 217.92H232.11L231.22 220.92H225.43L232.32 202.59H238.5L245.39 221H239.46L238.54 217.92ZM237.37 213.92L235.37 207.33L233.37 213.92H237.37Z" fill="url(#paint31_linear_6438_10097)"/>
<path d="M247.23 202.621H252.52L259.42 212.761V202.621H264.76V221.001H259.42L252.56 210.931V221.001H247.23V202.621Z" fill="url(#paint32_linear_6438_10097)"/>
<path d="M268.551 202.621H274.221V209.551L280.151 202.621H287.681L281.001 209.541L288.001 221.001H281.001L277.131 213.461L274.211 216.531V221.001H268.541L268.551 202.621Z" fill="url(#paint33_linear_6438_10097)"/>
<path d="M206.279 233.35H212.569L216.259 239.54L219.959 233.35H226.219L219.089 244V251.68H213.419V244L206.279 233.35Z" fill="url(#paint34_linear_6438_10097)"/>
<path d="M225.799 242.531C225.674 241.256 225.833 239.97 226.263 238.763C226.694 237.557 227.386 236.461 228.29 235.554C229.195 234.647 230.288 233.951 231.493 233.517C232.698 233.082 233.984 232.92 235.259 233.041C238.309 233.041 240.669 233.861 242.319 235.501C243.177 236.419 243.839 237.503 244.264 238.686C244.688 239.869 244.867 241.126 244.789 242.381C244.859 244.199 244.488 246.007 243.709 247.651C243.008 249.005 241.918 250.12 240.579 250.851C239.009 251.664 237.257 252.06 235.489 252.001C233.723 252.059 231.966 251.717 230.349 251.001C228.964 250.311 227.818 249.221 227.059 247.871C226.168 246.236 225.733 244.392 225.799 242.531ZM231.459 242.531C231.325 243.939 231.678 245.351 232.459 246.531C232.824 246.912 233.261 247.215 233.746 247.423C234.231 247.63 234.752 247.737 235.279 247.737C235.807 247.737 236.328 247.63 236.813 247.423C237.298 247.215 237.735 246.912 238.099 246.531C238.759 245.741 239.099 244.321 239.099 242.261C239.227 240.922 238.872 239.582 238.099 238.481C237.745 238.085 237.308 237.773 236.818 237.567C236.329 237.361 235.8 237.267 235.269 237.291C234.749 237.271 234.231 237.369 233.755 237.579C233.278 237.788 232.856 238.104 232.519 238.501C231.706 239.686 231.331 241.119 231.459 242.551V242.531Z" fill="url(#paint35_linear_6438_10097)"/>
<path d="M259.77 233.35H265.43V244.27C265.438 245.315 265.265 246.353 264.92 247.34C264.587 248.289 264.044 249.15 263.33 249.86C262.693 250.525 261.918 251.044 261.06 251.38C259.775 251.824 258.42 252.034 257.06 252C256.084 251.991 255.109 251.928 254.14 251.81C253.218 251.724 252.32 251.47 251.49 251.06C250.747 250.664 250.089 250.127 249.55 249.48C249.001 248.87 248.589 248.151 248.34 247.37C248.018 246.367 247.843 245.323 247.82 244.27V233.35H253.47V244.53C253.447 244.957 253.508 245.384 253.65 245.788C253.793 246.191 254.014 246.562 254.3 246.88C254.946 247.418 255.76 247.713 256.6 247.713C257.441 247.713 258.255 247.418 258.9 246.88C259.191 246.563 259.414 246.19 259.557 245.785C259.7 245.379 259.759 244.949 259.73 244.52L259.77 233.35Z" fill="url(#paint36_linear_6438_10097)"/>
<defs>
<linearGradient id="paint0_linear_6438_10097" x1="345.64" y1="129.459" x2="345.64" y2="142.539" gradientUnits="userSpaceOnUse">
<stop stop-color="#75CDD6"/>
<stop offset="1" stop-color="#3059AC"/>
</linearGradient>
<linearGradient id="paint1_linear_6438_10097" x1="335.54" y1="152.129" x2="335.54" y2="183" gradientUnits="userSpaceOnUse">
<stop stop-color="#75CDD6"/>
<stop offset="1" stop-color="#3059AC"/>
</linearGradient>
<linearGradient id="paint2_linear_6438_10097" x1="356.509" y1="148.916" x2="356.509" y2="207.869" gradientUnits="userSpaceOnUse">
<stop stop-color="#75CDD6"/>
<stop offset="1" stop-color="#3059AC"/>
</linearGradient>
<linearGradient id="paint3_linear_6438_10097" x1="356.366" y1="156.1" x2="356.366" y2="158.29" gradientUnits="userSpaceOnUse">
<stop stop-color="#75CDD6"/>
<stop offset="1" stop-color="#3059AC"/>
</linearGradient>
<linearGradient id="paint4_linear_6438_10097" x1="350.721" y1="156.1" x2="350.721" y2="158.29" gradientUnits="userSpaceOnUse">
<stop stop-color="#75CDD6"/>
<stop offset="1" stop-color="#3059AC"/>
</linearGradient>
<linearGradient id="paint5_linear_6438_10097" x1="350.149" y1="207.061" x2="350.149" y2="396.001" gradientUnits="userSpaceOnUse">
<stop stop-color="#75CDD6"/>
<stop offset="1" stop-color="#3059AC"/>
</linearGradient>
<linearGradient id="paint6_linear_6438_10097" x1="365.19" y1="129.459" x2="365.19" y2="142.539" gradientUnits="userSpaceOnUse">
<stop stop-color="#75CDD6"/>
<stop offset="1" stop-color="#3059AC"/>
</linearGradient>
<linearGradient id="paint7_linear_6438_10097" x1="381.129" y1="149.672" x2="381.129" y2="180.099" gradientUnits="userSpaceOnUse">
<stop stop-color="#75CDD6"/>
<stop offset="1" stop-color="#3059AC"/>
</linearGradient>
<linearGradient id="paint8_linear_6438_10097" x1="341.676" y1="406.654" x2="341.676" y2="409.015" gradientUnits="userSpaceOnUse">
<stop stop-color="#75CDD6"/>
<stop offset="1" stop-color="#3059AC"/>
</linearGradient>
<linearGradient id="paint9_linear_6438_10097" x1="342.934" y1="404.52" x2="342.934" y2="408.681" gradientUnits="userSpaceOnUse">
<stop stop-color="#75CDD6"/>
<stop offset="1" stop-color="#3059AC"/>
</linearGradient>
<linearGradient id="paint10_linear_6438_10097" x1="400.289" y1="405.838" x2="400.289" y2="407.997" gradientUnits="userSpaceOnUse">
<stop stop-color="#75CDD6"/>
<stop offset="1" stop-color="#3059AC"/>
</linearGradient>
<linearGradient id="paint11_linear_6438_10097" x1="401.214" y1="403.277" x2="401.214" y2="406.925" gradientUnits="userSpaceOnUse">
<stop stop-color="#75CDD6"/>
<stop offset="1" stop-color="#3059AC"/>
</linearGradient>
<linearGradient id="paint12_linear_6438_10097" x1="378.851" y1="206.75" x2="378.851" y2="395.49" gradientUnits="userSpaceOnUse">
<stop stop-color="#75CDD6"/>
<stop offset="1" stop-color="#3059AC"/>
</linearGradient>
<linearGradient id="paint13_linear_6438_10097" x1="372.48" y1="204.129" x2="372.48" y2="208.93" gradientUnits="userSpaceOnUse">
<stop stop-color="#75CDD6"/>
<stop offset="1" stop-color="#3059AC"/>
</linearGradient>
<linearGradient id="paint14_linear_6438_10097" x1="342.232" y1="205.029" x2="342.232" y2="209.831" gradientUnits="userSpaceOnUse">
<stop stop-color="#75CDD6"/>
<stop offset="1" stop-color="#3059AC"/>
</linearGradient>
<linearGradient id="paint15_linear_6438_10097" x1="357.356" y1="204.578" x2="357.356" y2="209.38" gradientUnits="userSpaceOnUse">
<stop stop-color="#75CDD6"/>
<stop offset="1" stop-color="#3059AC"/>
</linearGradient>
<linearGradient id="paint16_linear_6438_10097" x1="127.284" y1="157.498" x2="108.465" y2="160.856" gradientUnits="userSpaceOnUse">
<stop stop-color="#76DBFF"/>
<stop offset="0.351324" stop-color="#37A1E2"/>
<stop offset="0.893266" stop-color="#0E7BCF"/>
<stop offset="1" stop-color="#005EAC"/>
</linearGradient>
<linearGradient id="paint17_linear_6438_10097" x1="161.865" y1="228.37" x2="119.388" y2="229.312" gradientUnits="userSpaceOnUse">
<stop stop-color="#76DBFF"/>
<stop offset="0.351324" stop-color="#37A1E2"/>
<stop offset="0.893266" stop-color="#0E7BCF"/>
<stop offset="1" stop-color="#005EAC"/>
</linearGradient>
<linearGradient id="paint18_linear_6438_10097" x1="131.118" y1="405.305" x2="125.229" y2="406.893" gradientUnits="userSpaceOnUse">
<stop stop-color="#76DBFF"/>
<stop offset="0.351324" stop-color="#37A1E2"/>
<stop offset="0.893266" stop-color="#0E7BCF"/>
<stop offset="1" stop-color="#005EAC"/>
</linearGradient>
<linearGradient id="paint19_linear_6438_10097" x1="130.753" y1="403.46" x2="127.006" y2="403.8" gradientUnits="userSpaceOnUse">
<stop stop-color="#76DBFF"/>
<stop offset="0.351324" stop-color="#37A1E2"/>
<stop offset="0.893266" stop-color="#0E7BCF"/>
<stop offset="1" stop-color="#005EAC"/>
</linearGradient>
<linearGradient id="paint20_linear_6438_10097" x1="211.731" y1="228.41" x2="134.914" y2="231.543" gradientUnits="userSpaceOnUse">
<stop stop-color="#76DBFF"/>
<stop offset="0.351324" stop-color="#37A1E2"/>
<stop offset="0.893266" stop-color="#0E7BCF"/>
<stop offset="1" stop-color="#005EAC"/>
</linearGradient>
<linearGradient id="paint21_linear_6438_10097" x1="194.142" y1="403.896" x2="188.643" y2="404.756" gradientUnits="userSpaceOnUse">
<stop stop-color="#76DBFF"/>
<stop offset="0.351324" stop-color="#37A1E2"/>
<stop offset="0.893266" stop-color="#0E7BCF"/>
<stop offset="1" stop-color="#005EAC"/>
</linearGradient>
<linearGradient id="paint22_linear_6438_10097" x1="193.969" y1="402.817" x2="191.317" y2="402.964" gradientUnits="userSpaceOnUse">
<stop stop-color="#76DBFF"/>
<stop offset="0.351324" stop-color="#37A1E2"/>
<stop offset="0.893266" stop-color="#0E7BCF"/>
<stop offset="1" stop-color="#005EAC"/>
</linearGradient>
<linearGradient id="paint23_linear_6438_10097" x1="185.954" y1="160.832" x2="169.298" y2="162.819" gradientUnits="userSpaceOnUse">
<stop stop-color="#76DBFF"/>
<stop offset="0.351324" stop-color="#37A1E2"/>
<stop offset="0.893266" stop-color="#0E7BCF"/>
<stop offset="1" stop-color="#005EAC"/>
</linearGradient>
<linearGradient id="paint24_linear_6438_10097" x1="342.947" y1="237.701" x2="174.318" y2="237.701" gradientUnits="userSpaceOnUse">
<stop stop-color="#75CDD6"/>
<stop offset="1" stop-color="#008CFF"/>
</linearGradient>
<linearGradient id="paint25_linear_6438_10097" x1="321.367" y1="237.681" x2="153.074" y2="237.681" gradientUnits="userSpaceOnUse">
<stop stop-color="#75CDD6"/>
<stop offset="1" stop-color="#008CFF"/>
</linearGradient>
<linearGradient id="paint26_linear_6438_10097" x1="211.253" y1="291.859" x2="210.546" y2="292.566" gradientUnits="userSpaceOnUse">
<stop stop-color="#75CDD6"/>
<stop offset="1" stop-color="#008CFF"/>
</linearGradient>
<linearGradient id="paint27_linear_6438_10097" x1="223.336" y1="303.961" x2="222.629" y2="304.668" gradientUnits="userSpaceOnUse">
<stop stop-color="#75CDD6"/>
<stop offset="1" stop-color="#008CFF"/>
</linearGradient>
<linearGradient id="paint28_linear_6438_10097" x1="311.179" y1="235.472" x2="162.939" y2="235.472" gradientUnits="userSpaceOnUse">
<stop stop-color="#75CDD6"/>
<stop offset="1" stop-color="#008CFF"/>
</linearGradient>
<linearGradient id="paint29_linear_6438_10097" x1="194.77" y1="202.621" x2="194.77" y2="221.082" gradientUnits="userSpaceOnUse">
<stop stop-color="#313539"/>
<stop offset="1" stop-color="#1F2226"/>
</linearGradient>
<linearGradient id="paint30_linear_6438_10097" x1="214.775" y1="202.59" x2="214.775" y2="221.08" gradientUnits="userSpaceOnUse">
<stop stop-color="#313539"/>
<stop offset="1" stop-color="#1F2226"/>
</linearGradient>
<linearGradient id="paint31_linear_6438_10097" x1="235.41" y1="202.59" x2="235.41" y2="221.08" gradientUnits="userSpaceOnUse">
<stop stop-color="#313539"/>
<stop offset="1" stop-color="#1F2226"/>
</linearGradient>
<linearGradient id="paint32_linear_6438_10097" x1="255.995" y1="202.621" x2="255.995" y2="221.082" gradientUnits="userSpaceOnUse">
<stop stop-color="#313539"/>
<stop offset="1" stop-color="#1F2226"/>
</linearGradient>
<linearGradient id="paint33_linear_6438_10097" x1="278.271" y1="202.621" x2="278.271" y2="221.082" gradientUnits="userSpaceOnUse">
<stop stop-color="#313539"/>
<stop offset="1" stop-color="#1F2226"/>
</linearGradient>
<linearGradient id="paint34_linear_6438_10097" x1="216.249" y1="233.35" x2="216.249" y2="251.76" gradientUnits="userSpaceOnUse">
<stop stop-color="#313539"/>
<stop offset="1" stop-color="#1F2226"/>
</linearGradient>
<linearGradient id="paint35_linear_6438_10097" x1="235.282" y1="233.002" x2="235.282" y2="252.09" gradientUnits="userSpaceOnUse">
<stop stop-color="#313539"/>
<stop offset="1" stop-color="#1F2226"/>
</linearGradient>
<linearGradient id="paint36_linear_6438_10097" x1="256.625" y1="233.35" x2="256.625" y2="252.085" gradientUnits="userSpaceOnUse">
<stop stop-color="#313539"/>
<stop offset="1" stop-color="#1F2226"/>
</linearGradient>
</defs>
</svg>
