<svg width="59" height="53" viewBox="0 0 59 53" fill="none" xmlns="http://www.w3.org/2000/svg">
<g id="Alerts">
<path id="Vector" d="M29.5 15.6196V33.7054M32.1381 3.52685L57.0862 46.736C58.2604 48.7718 56.7964 51.3109 54.448 51.3109H4.55197C2.20356 51.3109 0.739621 48.7718 1.91382 46.736L26.8542 3.52685C28.0284 1.49105 30.9639 1.49105 32.1381 3.52685Z" stroke="url(#paint0_linear_4276_43)" stroke-width="3" stroke-linecap="round" stroke-linejoin="round"/>
<path id="Vector_2" d="M29.4998 43.8463C30.7631 43.8463 31.7872 42.8222 31.7872 41.5589C31.7872 40.2956 30.7631 39.2715 29.4998 39.2715C28.2365 39.2715 27.2124 40.2956 27.2124 41.5589C27.2124 42.8222 28.2365 43.8463 29.4998 43.8463Z" fill="url(#paint1_linear_4276_43)"/>
</g>
<defs>
<linearGradient id="paint0_linear_4276_43" x1="29.5" y1="2" x2="29.5" y2="51.3109" gradientUnits="userSpaceOnUse">
<stop stop-color="#75CDD6"/>
<stop offset="1" stop-color="#3059AC"/>
</linearGradient>
<linearGradient id="paint1_linear_4276_43" x1="29.4998" y1="39.2715" x2="29.4998" y2="43.8463" gradientUnits="userSpaceOnUse">
<stop stop-color="#75CDD6"/>
<stop offset="1" stop-color="#3059AC"/>
</linearGradient>
</defs>
</svg>
