<svg width="64" height="64" viewBox="0 0 64 64" fill="none" xmlns="http://www.w3.org/2000/svg">
<g id="clock 1">
<g id="g720">
<g id="g722">
<g id="Clip path group">
<mask id="mask0_2805_11677" style="mask-type:luminance" maskUnits="userSpaceOnUse" x="6" y="6" width="52" height="52">
<g id="clipPath728">
<path id="path726" d="M6 6H58V58H6V6Z" fill="white"/>
</g>
</mask>
<g mask="url(#mask0_2805_11677)">
<g id="g724">
<g id="g730">
<path id="path732" d="M56.4766 32C56.4766 45.4619 45.4619 56.4766 32 56.4766C18.5381 56.4766 7.52344 45.4619 7.52344 32C7.52344 18.5381 18.5381 7.52344 32 7.52344C45.4619 7.52344 56.4766 18.5381 56.4766 32Z" stroke="#BEC0C2" stroke-width="2" stroke-miterlimit="10" stroke-linecap="round" stroke-linejoin="round"/>
</g>
<g id="g734">
<path id="path736" d="M17.997 43.851C18.5919 43.256 19.5565 43.256 20.1514 43.851C20.7464 44.446 20.7464 45.4105 20.1514 46.0054C19.5565 46.6004 18.5919 46.6004 17.997 46.0054C17.402 45.4105 17.402 44.446 17.997 43.851Z" fill="#BEC0C2"/>
</g>
<g id="g738">
<path id="path740" d="M43.8505 17.9946C44.4454 17.3996 45.41 17.3996 46.005 17.9946C46.5999 18.5895 46.5999 19.554 46.005 20.149C45.41 20.744 44.4454 20.744 43.8505 20.149C43.2556 19.554 43.2556 18.5895 43.8505 17.9946Z" fill="#BEC0C2"/>
</g>
<g id="g742">
<path id="path744" d="M20.1495 17.9946C20.7444 18.5895 20.7444 19.554 20.1495 20.149C19.5546 20.744 18.59 20.744 17.995 20.149C17.4001 19.554 17.4001 18.5895 17.995 17.9946C18.59 17.3996 19.5546 17.3996 20.1495 17.9946Z" fill="#BEC0C2"/>
</g>
<g id="g746">
<path id="path748" d="M46.003 43.851C46.598 44.446 46.598 45.4105 46.003 46.0054C45.4081 46.6004 44.4435 46.6004 43.8486 46.0054C43.2536 45.4105 43.2536 44.446 43.8486 43.851C44.4435 43.256 45.4081 43.256 46.003 43.851Z" fill="#BEC0C2"/>
</g>
<g id="g750">
<path id="path752" d="M32 13.7187V16.7656" stroke="#BEC0C2" stroke-width="2" stroke-miterlimit="10" stroke-linecap="round" stroke-linejoin="round"/>
</g>
<g id="g754">
<path id="path756" d="M32 47.2344V50.2812" stroke="#BEC0C2" stroke-width="2" stroke-miterlimit="10" stroke-linecap="round" stroke-linejoin="round"/>
</g>
<g id="g758">
<path id="path760" d="M13.7188 32H16.7656" stroke="#BEC0C2" stroke-width="2" stroke-miterlimit="10" stroke-linecap="round" stroke-linejoin="round"/>
</g>
<g id="g762">
<path id="path764" d="M47.2344 32H50.2813" stroke="#BEC0C2" stroke-width="2" stroke-miterlimit="10" stroke-linecap="round" stroke-linejoin="round"/>
</g>
<g id="g766">
<path id="path768" d="M32 22.8594V32L41.1406 41.1406" stroke="#BEC0C2" stroke-width="2" stroke-miterlimit="10" stroke-linecap="round" stroke-linejoin="round"/>
</g>
</g>
</g>
</g>
</g>
</g>
</g>
</svg>
