<svg width="59" height="60" viewBox="0 0 59 60" fill="none" xmlns="http://www.w3.org/2000/svg">
<g id="Error Tracking">
<path id="Vector" d="M21.7375 13.2475V24.6275M55.9975 55.6975L55.2775 56.4175C53.7175 57.9775 51.1875 57.9775 49.6175 56.4175L41.4775 48.2775C39.9175 46.7175 39.9175 44.1875 41.4775 42.6175L42.1975 41.8975C43.7575 40.3375 46.2875 40.3375 47.8575 41.8975L55.9975 50.0375C57.5575 51.5975 57.5575 54.1275 55.9975 55.6975ZM37.7575 34.9775L34.5675 38.1675L40.2575 43.8575L43.4475 40.6675L37.7575 34.9775ZM7.8575 7.8575C0.0475001 15.6675 0.0475001 28.3375 7.8575 36.1575C15.6675 43.9675 28.3375 43.9675 36.1575 36.1575C43.9675 28.3475 43.9675 15.6775 36.1575 7.8575C28.3475 0.0475001 15.6775 0.0475001 7.8575 7.8575Z" stroke="url(#paint0_linear_4276_53)" stroke-width="3" stroke-linecap="round" stroke-linejoin="round"/>
<path id="Vector_2" d="M21.7374 31.0576C22.6376 31.0576 23.3674 30.3278 23.3674 29.4276C23.3674 28.5274 22.6376 27.7976 21.7374 27.7976C20.8372 27.7976 20.1074 28.5274 20.1074 29.4276C20.1074 30.3278 20.8372 31.0576 21.7374 31.0576Z" fill="url(#paint1_linear_4276_53)"/>
</g>
<defs>
<linearGradient id="paint0_linear_4276_53" x1="29.5837" y1="2" x2="29.5837" y2="57.5875" gradientUnits="userSpaceOnUse">
<stop stop-color="#75CDD6"/>
<stop offset="1" stop-color="#3059AC"/>
</linearGradient>
<linearGradient id="paint1_linear_4276_53" x1="21.7374" y1="27.7976" x2="21.7374" y2="31.0576" gradientUnits="userSpaceOnUse">
<stop stop-color="#75CDD6"/>
<stop offset="1" stop-color="#3059AC"/>
</linearGradient>
</defs>
</svg>
