<svg width="64" height="64" viewBox="0 0 64 64" fill="none" xmlns="http://www.w3.org/2000/svg">
<g id="increase 1">
<g id="g3786">
<g id="g3788">
<g id="Clip path group">
<mask id="mask0_2805_11627" style="mask-type:luminance" maskUnits="userSpaceOnUse" x="6" y="6" width="52" height="52">
<g id="clipPath3794">
<path id="path3792" d="M6 6H58V58H6V6Z" fill="white"/>
</g>
</mask>
<g mask="url(#mask0_2805_11627)">
<g id="g3790">
<g id="g3796">
<path id="path3798" d="M22.7578 23.875C22.7578 27.2405 20.0295 29.9688 16.6641 29.9688C13.2985 29.9688 10.5703 27.2405 10.5703 23.875C10.5703 20.5095 13.2985 17.7812 16.6641 17.7812C20.0295 17.7812 22.7578 20.5095 22.7578 23.875Z" stroke="#BEC0C2" stroke-width="2" stroke-miterlimit="10" stroke-linecap="round" stroke-linejoin="round"/>
</g>
<g id="g3800">
<path id="path3802" d="M41.0391 19.8125C41.0391 23.178 38.3108 25.9062 34.9453 25.9062C31.5797 25.9062 28.8516 23.178 28.8516 19.8125C28.8516 16.447 31.5797 13.7187 34.9453 13.7187C38.3108 13.7187 41.0391 16.447 41.0391 19.8125Z" stroke="#BEC0C2" stroke-width="2" stroke-miterlimit="10" stroke-linecap="round" stroke-linejoin="round"/>
</g>
<g id="g3804">
<path id="path3806" d="M25.791 38.8374C25.6457 33.9161 21.6205 29.9688 16.6641 29.9688C11.6158 29.9688 7.52344 34.0611 7.52344 39.1094V50.2812" stroke="#BEC0C2" stroke-width="2" stroke-miterlimit="10" stroke-linecap="round" stroke-linejoin="round"/>
</g>
<g id="g3808">
<path id="path3810" d="M56.4766 23.875L37.1797 43.1719L32.1016 38.0938L19.9141 50.2812H7.52344" stroke="#BEC0C2" stroke-width="2" stroke-miterlimit="10" stroke-linecap="round" stroke-linejoin="round"/>
</g>
<g id="g3812">
<path id="path3814" d="M34.9453 25.9062C29.897 25.9062 25.8047 29.9986 25.8047 35.0469V44.3906L32.1016 38.0938L37.1797 43.1719L44.0859 36.2656V35.0469C44.0859 29.9986 39.9936 25.9062 34.9453 25.9062Z" stroke="#BEC0C2" stroke-width="2" stroke-miterlimit="10" stroke-linecap="round" stroke-linejoin="round"/>
</g>
<g id="g3816">
<path id="path3818" d="M50.3828 23.875H56.4766V29.9688" stroke="#BEC0C2" stroke-width="2" stroke-miterlimit="10" stroke-linecap="round" stroke-linejoin="round"/>
</g>
</g>
</g>
</g>
</g>
</g>
</g>
</svg>
