<svg width="65" height="64" viewBox="0 0 65 64" fill="none" xmlns="http://www.w3.org/2000/svg">
<path d="M11.7878 27.21L21.0667 17.9311M36.9722 22.9011L28.3544 17.27M52.5511 11.6311L43.6067 22.5667M13.4444 57.3644H4.5V41.4589H13.4444V57.3644ZM29.1322 25.2189H20.1878V57.3644H29.1322V25.2189ZM44.8122 34.8322H35.8678V57.3644H44.8122V34.8322ZM60.5 18.5922H51.5556V57.3644H60.5V18.5922ZM8.97222 26.2144C6.86444 26.2144 5.16111 27.9178 5.16111 30.0256C5.16111 32.1333 6.86444 33.8367 8.97222 33.8367C11.08 33.8367 12.7833 32.1333 12.7833 30.0256C12.7833 27.9178 11.08 26.2144 8.97222 26.2144ZM24.5511 12.2922C22.4433 12.2922 20.74 13.9956 20.74 16.1033C20.74 18.2111 22.4433 19.9144 24.5511 19.9144C26.6589 19.9144 28.3622 18.2111 28.3622 16.1033C28.3622 13.9956 26.6589 12.2922 24.5511 12.2922ZM40.4489 20.91C38.3411 20.91 36.6378 22.6133 36.6378 24.7211C36.6378 26.8289 38.3411 28.5322 40.4489 28.5322C42.5567 28.5322 44.26 26.8289 44.26 24.7211C44.26 22.6133 42.5567 20.91 40.4489 20.91ZM56.0278 6C53.92 6 52.2167 7.70333 52.2167 9.81111C52.2167 11.9189 53.92 13.6222 56.0278 13.6222C58.1356 13.6222 59.8389 11.9189 59.8389 9.81111C59.8389 7.70333 58.1356 6 56.0278 6Z" stroke="url(#paint0_linear_4276_106)" stroke-width="3" stroke-linecap="round" stroke-linejoin="round"/>
<defs>
<linearGradient id="paint0_linear_4276_106" x1="32.5" y1="6" x2="32.5" y2="57.3644" gradientUnits="userSpaceOnUse">
<stop stop-color="#75CDD6"/>
<stop offset="1" stop-color="#3059AC"/>
</linearGradient>
</defs>
</svg>
