<svg width="65" height="64" viewBox="0 0 65 64" fill="none" xmlns="http://www.w3.org/2000/svg">
<g id="money-bag 1">
<g id="g1578">
<g id="g1580">
<g id="Clip path group">
<mask id="mask0_2805_11654" style="mask-type:luminance" maskUnits="userSpaceOnUse" x="6" y="6" width="53" height="52">
<g id="clipPath1586">
<path id="path1584" d="M6.5 6H58.5V58H6.5V6Z" fill="white"/>
</g>
</mask>
<g mask="url(#mask0_2805_11654)">
<g id="g1582">
<g id="g1588">
<path id="path1590" d="M27.9304 22.0469H24.5449C23.1987 22.0469 22.1074 20.9556 22.1074 19.6094C22.1074 18.2632 23.1987 17.1719 24.5449 17.1719H40.4564C41.8026 17.1719 42.8939 18.2632 42.8939 19.6094C42.8939 20.9556 41.8026 22.0469 40.4564 22.0469H37.0709" stroke="#BEC0C2" stroke-width="2" stroke-miterlimit="10" stroke-linecap="round" stroke-linejoin="round"/>
</g>
<g id="g1592">
<path id="path1594" d="M40.4554 22.0469L48.9637 35.3847C54.9282 44.7346 48.2125 56.9844 37.1221 56.9844H27.8773C16.7869 56.9844 10.0712 44.7346 16.0356 35.3847L24.5439 22.0469" stroke="#BEC0C2" stroke-width="2" stroke-miterlimit="10" stroke-linecap="round" stroke-linejoin="round"/>
</g>
<g id="g1596">
<path id="path1598" d="M21.8887 7.90084C23.0591 6.73044 24.9567 6.73044 26.127 7.90084L26.1345 7.90826C27.302 9.07572 29.1938 9.07907 30.3654 7.91567L30.3952 7.88602C31.5668 6.72262 33.4587 6.72597 34.6261 7.89343L34.6335 7.90084C35.804 9.07125 37.7015 9.07125 38.872 7.90084C40.0423 6.73044 41.9399 6.73044 43.1103 7.90084L40.4585 17.1719H24.5471L21.8887 7.90084Z" stroke="#BEC0C2" stroke-width="2" stroke-miterlimit="10" stroke-linecap="round" stroke-linejoin="round"/>
</g>
<g id="g1600">
<path id="path1602" d="M35.2919 34.0209C35.2919 34.0209 33.4571 32.6309 31.2531 33.293C29.0034 33.9689 28.4453 37.0481 29.9737 38.2469C30.8515 38.9353 32.172 39.5012 33.9517 40.1304C37.935 41.5384 36.4625 47.1559 32.4106 47.1829C30.8294 47.1934 30.0902 47.093 28.7012 46.1844" stroke="#BEC0C2" stroke-width="2" stroke-miterlimit="10" stroke-linecap="round" stroke-linejoin="round"/>
</g>
<g id="g1604">
<path id="path1606" d="M32.5 31.1862V49.2305" stroke="#BEC0C2" stroke-width="2" stroke-miterlimit="10" stroke-linecap="round" stroke-linejoin="round"/>
</g>
</g>
</g>
</g>
</g>
</g>
</g>
</svg>
