<svg width="55" height="60" viewBox="0 0 55 60" fill="none" xmlns="http://www.w3.org/2000/svg">
<g id="Pipelines">
<path id="Vector" d="M6.39 11.77V18.62C6.39 19.64 7.22 20.47 8.24 20.47H45.87C46.89 20.47 47.72 19.64 47.72 18.62V11.77M27.06 12.32L27.09 27.47M11.29 11.79H1.5V2H11.29V11.79ZM27.18 2C24.48 2 22.29 4.19 22.29 6.89C22.29 9.59 24.48 11.78 27.18 11.78C29.88 11.78 32.07 9.59 32.07 6.89C32.07 4.19 29.88 2 27.18 2ZM47.96 2.1L43.07 10.58H52.86L47.97 2.1H47.96ZM45.55 39.33V29.91C45.55 29.21 44.98 28.64 44.28 28.64H9.84C9.14 28.64 8.57 29.21 8.57 29.91V39.33C8.57 40.03 9.14 40.6 9.84 40.6H44.28C44.98 40.6 45.55 40.03 45.55 39.33ZM45.55 56.73V47.31C45.55 46.61 44.98 46.04 44.28 46.04H9.84C9.14 46.04 8.57 46.61 8.57 47.31V56.73C8.57 57.43 9.14 58 9.84 58H44.28C44.98 58 45.55 57.43 45.55 56.73ZM37.2 40.69H16.98V46.13H37.2V40.69Z" stroke="url(#paint0_linear_4276_1527)" stroke-width="3" stroke-linecap="round" stroke-linejoin="round"/>
</g>
<defs>
<linearGradient id="paint0_linear_4276_1527" x1="27.18" y1="2" x2="27.18" y2="58" gradientUnits="userSpaceOnUse">
<stop stop-color="#75CDD6"/>
<stop offset="1" stop-color="#3059AC"/>
</linearGradient>
</defs>
</svg>
