<svg width="60" height="51" viewBox="0 0 60 51" fill="none" xmlns="http://www.w3.org/2000/svg">
<g id="Real User Monitoring (RUM)">
<path id="Vector" d="M12.7474 37.4695H6.54159C4.03749 37.4695 2 35.432 2 32.9201V6.54937C2 4.03749 4.02972 2 6.54159 2H53.4584C55.9625 2 58 4.03749 58 6.54937V32.9279C58 35.4398 55.9703 37.4773 53.4584 37.4773H47.7581M47.3615 48.6602V38.0761C47.3615 32.4302 42.7966 27.8575 37.1662 27.8575H22.8415C17.2112 27.8575 12.6463 32.4302 12.6463 38.0761V48.6602M29.9961 10.0411C25.0812 10.0411 21.0996 14.0306 21.0996 18.9532C21.0996 23.8758 25.0812 27.8653 29.9961 27.8653C34.911 27.8653 38.8927 23.8758 38.8927 18.9532C38.8927 14.0306 34.911 10.0411 29.9961 10.0411Z" stroke="url(#paint0_linear_4276_1138)" stroke-width="3" stroke-linecap="round" stroke-linejoin="round"/>
</g>
<defs>
<linearGradient id="paint0_linear_4276_1138" x1="30" y1="2" x2="30" y2="48.6602" gradientUnits="userSpaceOnUse">
<stop stop-color="#75CDD6"/>
<stop offset="1" stop-color="#3059AC"/>
</linearGradient>
</defs>
</svg>
