<svg width="60" height="60" viewBox="0 0 60 60" fill="none" xmlns="http://www.w3.org/2000/svg">
<g id="Traces">
<path id="Vector" d="M10.0969 21.2996H14.3036L17.866 13.3107L24.5057 29.6523L27.9545 21.2996H31.8807M57.1132 54.9757L54.9833 57.1056C53.8009 58.288 51.8833 58.288 50.6933 57.1056L41.0823 47.4947C39.8999 46.3123 39.8999 44.3946 41.0823 43.2046L43.2122 41.0747C44.3946 39.8923 46.3122 39.8923 47.5022 41.0747L57.1132 50.6857C58.2956 51.8681 58.2956 53.7857 57.1132 54.9757ZM38.0202 34.8064L34.8064 38.0202L40.5442 43.7579L43.7579 40.5442L38.0202 34.8064ZM7.90641 7.90641C0.0311983 15.7816 0.0311983 28.5457 7.90641 36.4133C15.7816 44.2809 28.5457 44.2885 36.4133 36.4133C44.2885 28.5381 44.2885 15.774 36.4133 7.90641C28.5381 0.0311982 15.774 0.0311982 7.90641 7.90641Z" stroke="url(#paint0_linear_4276_7)" stroke-width="3" stroke-linecap="round" stroke-linejoin="round"/>
</g>
<defs>
<linearGradient id="paint0_linear_4276_7" x1="30" y1="2" x2="30" y2="57.9924" gradientUnits="userSpaceOnUse">
<stop stop-color="#75CDD6"/>
<stop offset="1" stop-color="#3059AC"/>
</linearGradient>
</defs>
</svg>
