<svg width="12" height="12" viewBox="0 0 12 12" fill="none" xmlns="http://www.w3.org/2000/svg">
<path d="M4.83341 4.83335L6.83341 6.83335M6.83341 4.83335L4.83341 6.83335M9.26208 9.28002L11.3154 11.3334M10.6667 5.66669C10.6667 6.99277 10.14 8.26454 9.20228 9.20222C8.2646 10.1399 6.99283 10.6667 5.66675 10.6667C4.34067 10.6667 3.0689 10.1399 2.13121 9.20222C1.19353 8.26454 0.666748 6.99277 0.666748 5.66669C0.666748 4.3406 1.19353 3.06884 2.13121 2.13115C3.0689 1.19347 4.34067 0.666687 5.66675 0.666687C6.99283 0.666687 8.2646 1.19347 9.20228 2.13115C10.14 3.06884 10.6667 4.3406 10.6667 5.66669Z" stroke="black" stroke-linecap="round" stroke-linejoin="round"/>
</svg>
