<svg width="14" height="14" viewBox="0 0 14 14" fill="none" xmlns="http://www.w3.org/2000/svg">
<path d="M13 9.9925C12.9993 9.76763 12.9733 9.54356 12.9225 9.3245L14 8.911L13.6415 7.9775L12.5385 8.401C12.3131 8.04049 12.0137 7.73201 11.66 7.496L12.145 6.4065L11.2315 6L10.746 7.09C10.507 7.0285 10.258 6.9925 10 6.9925C9.742 6.9925 9.493 7.0285 9.254 7.09L8.769 6L7.855 6.407L8.34 7.4955C7.98635 7.73151 7.68689 8.03999 7.4615 8.4005L6.3585 7.9775L6 8.911L7.0775 9.3245C7.02671 9.54356 7.00072 9.76763 7 9.9925C7 10.2125 7.025 10.426 7.07 10.6325L6 11.109L6.4065 12.0225L7.4465 11.5595C7.66636 11.9187 7.95939 12.2275 8.3065 12.466L7.855 13.6415L8.7885 14L9.2165 12.885C9.4665 12.953 9.7285 12.9925 10 12.9925C10.2715 12.9925 10.533 12.9525 10.7835 12.885L11.2115 14L12.145 13.6415L11.6935 12.4665C12.0407 12.2279 12.3337 11.9189 12.5535 11.5595L13.5935 12.0225L14 11.109L12.93 10.6325C12.975 10.426 13 10.2125 13 9.9925ZM10 11.9925C8.897 11.9925 8 11.095 8 9.9925C8 8.89 8.897 7.9925 10 7.9925C11.103 7.9925 12 8.8895 12 9.9925C12 11.0955 11.103 11.9925 10 11.9925ZM5.7355 6.4425L6.475 7.182L7.182 6.475L6.4425 5.7355C6.70468 5.36797 6.87992 4.94567 6.955 4.5005H8V3.5H6.955C6.88007 3.05448 6.70482 2.63182 6.4425 2.264L7.182 1.5245L6.475 0.8175L5.7355 1.557C5.36778 1.29493 4.94531 1.11986 4.5 1.045V0H3.5V1.045C3.05465 1.12001 2.63218 1.29525 2.2645 1.5575L1.525 0.818L0.818 1.525L1.5575 2.265C1.29532 2.63253 1.12008 3.05483 1.045 3.5H0V4.5H1.045C1.12001 4.94535 1.29525 5.36782 1.5575 5.7355L0.818 6.475L1.525 7.182L2.2645 6.4425C2.63218 6.70475 3.05465 6.87999 3.5 6.955V8H4.5V6.955C4.94535 6.87999 5.36782 6.70475 5.7355 6.4425ZM2 4C2 2.897 2.897 2 4 2C5.103 2 6 2.897 6 4C6 5.103 5.103 6 4 6C2.897 6 2 5.103 2 4Z" fill="black"/>
</svg>
