<svg width="16" height="16" viewBox="0 0 16 16" fill="none" xmlns="http://www.w3.org/2000/svg">
<g clip-path="url(#clip0_667_62)">
<path d="M7.33342 12H8.66675V14H7.33342V12ZM10.6667 14V15.3334H5.33342V14H10.6667ZM13.3334 12H2.66675C2.13648 11.9995 1.62808 11.7886 1.25312 11.4136C0.878161 11.0387 0.667278 10.5303 0.666748 10V2.66669C0.667278 2.13642 0.878161 1.62802 1.25312 1.25306C1.62808 0.8781 2.13648 0.667216 2.66675 0.666687H13.3334C13.8637 0.667216 14.3721 0.8781 14.747 1.25306C15.122 1.62802 15.3329 2.13642 15.3334 2.66669V10C15.3329 10.5303 15.122 11.0387 14.747 11.4136C14.3721 11.7886 13.8637 11.9995 13.3334 12ZM2.66675 2.00002C2.48994 2.00002 2.32037 2.07026 2.19534 2.19528C2.07032 2.32031 2.00008 2.48988 2.00008 2.66669V10C2.00008 10.1768 2.07032 10.3464 2.19534 10.4714C2.32037 10.5964 2.48994 10.6667 2.66675 10.6667H13.3334C13.5102 10.6667 13.6798 10.5964 13.8048 10.4714C13.9298 10.3464 14.0001 10.1768 14.0001 10V2.66669C14.0001 2.48988 13.9298 2.32031 13.8048 2.19528C13.6798 2.07026 13.5102 2.00002 13.3334 2.00002H2.66675Z" fill="black"/>
<path d="M10.6666 10L9.39059 5.74669L8.66659 8.66669L7.79392 6.66669H7.57325L6.66659 9.33335L5.89525 6.62202L5.53925 7.33335H3.33325V6.66669H5.12725L5.99992 4.66669L6.71192 7.14202L7.09325 6.00002H8.20592L8.53059 6.64869L9.33325 2.66669L10.6666 8.00002L11.0933 6.66669H12.6666V7.33335H11.5733L10.6666 10Z" fill="black"/>
</g>
<defs>
<clipPath id="clip0_667_62">
<rect width="16" height="16" fill="white"/>
</clipPath>
</defs>
</svg>
