<svg width="1920" height="606" viewBox="0 0 1920 606" fill="none" xmlns="http://www.w3.org/2000/svg">
<g clip-path="url(#clip0_148_1099)">
<rect width="1920" height="606" fill="#F5F5F5"/>
<g filter="url(#filter0_f_148_1099)">
<circle cx="1459" cy="170" r="231" fill="url(#paint0_radial_148_1099)"/>
</g>
<g opacity="0.82" filter="url(#filter1_f_148_1099)">
<circle cx="1669" cy="-38" r="441" fill="url(#paint1_radial_148_1099)"/>
</g>
<g opacity="0.82" filter="url(#filter2_f_148_1099)">
<circle cx="775" cy="851" r="619" fill="url(#paint2_radial_148_1099)"/>
</g>
<g filter="url(#filter3_f_148_1099)">
<circle cx="1341" cy="86" r="178" fill="url(#paint3_radial_148_1099)"/>
</g>
<g filter="url(#filter4_f_148_1099)">
<circle cx="1499.5" cy="302.5" r="169.5" fill="url(#paint4_radial_148_1099)"/>
</g>
<circle cx="1380" cy="303" r="217" fill="#F5F5F5"/>
<path d="M1333.27 296.436C1333.27 299.067 1333.56 301.2 1334.05 302.765C1334.62 304.329 1335.33 306.036 1336.33 307.885C1336.69 308.454 1336.83 309.022 1336.83 309.52C1336.83 310.231 1336.4 310.942 1335.48 311.654L1331 314.64C1330.36 315.067 1329.72 315.28 1329.15 315.28C1328.44 315.28 1327.73 314.925 1327.01 314.285C1326.02 313.218 1325.17 312.08 1324.45 310.942C1323.74 309.734 1323.03 308.382 1322.25 306.747C1316.7 313.289 1309.73 316.56 1301.34 316.56C1295.37 316.56 1290.61 314.854 1287.12 311.44C1283.64 308.027 1281.86 303.476 1281.86 297.787C1281.86 291.742 1283.99 286.836 1288.33 283.138C1292.67 279.44 1298.43 277.591 1305.75 277.591C1308.17 277.591 1310.66 277.805 1313.29 278.16C1315.92 278.516 1318.62 279.085 1321.47 279.725V274.533C1321.47 269.129 1320.33 265.36 1318.13 263.156C1315.85 260.951 1312.01 259.884 1306.53 259.884C1304.05 259.884 1301.49 260.169 1298.85 260.809C1296.22 261.449 1293.66 262.231 1291.17 263.227C1290.04 263.724 1289.18 264.009 1288.69 264.151C1288.19 264.293 1287.83 264.365 1287.55 264.365C1286.55 264.365 1286.05 263.653 1286.05 262.16V258.676C1286.05 257.538 1286.2 256.684 1286.55 256.187C1286.91 255.689 1287.55 255.191 1288.54 254.693C1291.03 253.413 1294.02 252.347 1297.5 251.493C1300.99 250.569 1304.69 250.142 1308.6 250.142C1317.06 250.142 1323.25 252.062 1327.23 255.902C1331.14 259.742 1333.13 265.573 1333.13 273.396V296.436H1333.27ZM1304.4 307.245C1306.75 307.245 1309.17 306.818 1311.73 305.965C1314.29 305.111 1316.56 303.547 1318.48 301.414C1319.62 300.062 1320.47 298.569 1320.9 296.862C1321.33 295.156 1321.61 293.094 1321.61 290.676V287.689C1319.55 287.191 1317.34 286.765 1315.07 286.48C1312.79 286.196 1310.59 286.053 1308.38 286.053C1303.62 286.053 1300.13 286.978 1297.79 288.898C1295.44 290.818 1294.3 293.52 1294.3 297.076C1294.3 300.418 1295.16 302.907 1296.93 304.614C1298.64 306.391 1301.13 307.245 1304.4 307.245ZM1361.5 314.925C1360.22 314.925 1359.37 314.711 1358.8 314.214C1358.23 313.787 1357.73 312.791 1357.31 311.44L1340.6 256.471C1340.17 255.049 1339.96 254.124 1339.96 253.627C1339.96 252.489 1340.53 251.849 1341.66 251.849H1348.63C1349.98 251.849 1350.91 252.062 1351.41 252.56C1351.97 252.987 1352.4 253.982 1352.83 255.333L1364.78 302.409L1375.87 255.333C1376.22 253.911 1376.65 252.987 1377.22 252.56C1377.79 252.133 1378.78 251.849 1380.06 251.849H1385.75C1387.1 251.849 1388.03 252.062 1388.6 252.56C1389.17 252.987 1389.66 253.982 1389.95 255.333L1401.18 302.978L1413.49 255.333C1413.91 253.911 1414.41 252.987 1414.91 252.56C1415.48 252.133 1416.4 251.849 1417.68 251.849H1424.3C1425.43 251.849 1426.07 252.418 1426.07 253.627C1426.07 253.982 1426 254.338 1425.93 254.764C1425.86 255.191 1425.72 255.76 1425.43 256.542L1408.3 311.511C1407.87 312.934 1407.37 313.858 1406.8 314.285C1406.23 314.711 1405.31 314.996 1404.1 314.996H1397.98C1396.63 314.996 1395.71 314.782 1395.14 314.285C1394.57 313.787 1394.07 312.862 1393.79 311.44L1382.77 265.573L1371.82 311.369C1371.46 312.791 1371.03 313.716 1370.46 314.214C1369.9 314.711 1368.9 314.925 1367.62 314.925H1361.5ZM1452.88 316.845C1449.18 316.845 1445.49 316.418 1441.93 315.565C1438.38 314.711 1435.6 313.787 1433.75 312.72C1432.62 312.08 1431.83 311.369 1431.55 310.729C1431.26 310.089 1431.12 309.378 1431.12 308.738V305.111C1431.12 303.618 1431.69 302.907 1432.76 302.907C1433.18 302.907 1433.61 302.978 1434.04 303.12C1434.46 303.262 1435.1 303.547 1435.82 303.831C1438.23 304.898 1440.86 305.751 1443.64 306.32C1446.48 306.889 1449.26 307.174 1452.1 307.174C1456.58 307.174 1460.06 306.391 1462.48 304.827C1464.9 303.262 1466.18 300.987 1466.18 298.071C1466.18 296.08 1465.54 294.445 1464.26 293.094C1462.98 291.742 1460.56 290.533 1457.08 289.396L1446.77 286.196C1441.58 284.56 1437.74 282.142 1435.39 278.942C1433.04 275.813 1431.83 272.329 1431.83 268.631C1431.83 265.645 1432.47 263.013 1433.75 260.738C1435.03 258.462 1436.74 256.471 1438.87 254.907C1441.01 253.271 1443.42 252.062 1446.27 251.209C1449.11 250.356 1452.1 250 1455.23 250C1456.79 250 1458.43 250.071 1459.99 250.284C1461.63 250.498 1463.12 250.782 1464.62 251.067C1466.04 251.422 1467.39 251.778 1468.67 252.204C1469.95 252.631 1470.94 253.058 1471.66 253.484C1472.65 254.053 1473.36 254.622 1473.79 255.262C1474.22 255.831 1474.43 256.613 1474.43 257.609V260.951C1474.43 262.444 1473.86 263.227 1472.79 263.227C1472.22 263.227 1471.3 262.942 1470.09 262.373C1466.04 260.524 1461.49 259.6 1456.44 259.6C1452.38 259.6 1449.18 260.24 1446.98 261.591C1444.78 262.942 1443.64 265.005 1443.64 267.92C1443.64 269.911 1444.35 271.618 1445.77 272.969C1447.19 274.32 1449.82 275.671 1453.59 276.88L1463.69 280.08C1468.81 281.716 1472.51 283.991 1474.71 286.907C1476.92 289.822 1477.98 293.165 1477.98 296.862C1477.98 299.92 1477.34 302.694 1476.14 305.111C1474.86 307.529 1473.15 309.662 1470.94 311.369C1468.74 313.147 1466.11 314.427 1463.05 315.351C1459.85 316.347 1456.51 316.845 1452.88 316.845Z" fill="#252F3E"/>
<path fill-rule="evenodd" clip-rule="evenodd" d="M1466.32 351.406C1442.93 368.686 1408.93 377.86 1379.71 377.86C1338.75 377.86 1301.84 362.713 1273.97 337.539C1271.76 335.548 1273.75 332.846 1276.38 334.411C1306.53 351.904 1343.73 362.5 1382.2 362.5C1408.15 362.5 1436.67 357.095 1462.91 346.002C1466.82 344.224 1470.16 348.562 1466.32 351.406Z" fill="#FF9900"/>
<path fill-rule="evenodd" clip-rule="evenodd" d="M1476.06 340.313C1473.07 336.473 1456.29 338.464 1448.68 339.388C1446.41 339.673 1446.05 337.682 1448.11 336.188C1461.48 326.802 1483.46 329.504 1486.02 332.633C1488.58 335.833 1485.31 357.806 1472.79 368.331C1470.87 369.966 1469.02 369.113 1469.87 366.98C1472.72 359.939 1479.05 344.082 1476.06 340.313Z" fill="#FF9900"/>
<g filter="url(#filter5_f_148_1099)">
<circle cx="1380" cy="303" r="277.75" stroke="#F5F5F5" stroke-width="0.5"/>
<circle cx="1380" cy="303" r="277.75" stroke="url(#paint5_linear_148_1099)" stroke-width="0.5"/>
</g>
<g filter="url(#filter6_f_148_1099)">
<circle cx="1380" cy="303" r="343.75" stroke="url(#paint6_linear_148_1099)" stroke-width="0.5"/>
</g>
<g filter="url(#filter7_f_148_1099)">
<circle cx="1380" cy="303" r="411.75" stroke="url(#paint7_linear_148_1099)" stroke-width="0.5"/>
</g>
<g filter="url(#filter8_f_148_1099)">
<circle cx="1380" cy="303" r="486.75" stroke="url(#paint8_linear_148_1099)" stroke-width="0.5"/>
</g>
<g filter="url(#filter9_f_148_1099)">
<circle cx="1788" cy="232" r="10" fill="#F7F7F7"/>
</g>
<g filter="url(#filter10_f_148_1099)">
<circle cx="1788" cy="43" r="10" fill="#F7F7F7"/>
</g>
<g opacity="0.62" filter="url(#filter11_f_148_1099)">
<circle cx="1031" cy="520" r="22" fill="#F7F7F7"/>
</g>
<g filter="url(#filter12_f_148_1099)">
<circle cx="1616" cy="157" r="5" fill="#F7F7F7"/>
</g>
<g opacity="0.35" filter="url(#filter13_f_148_1099)">
<circle cx="204" cy="-209" r="441" fill="url(#paint9_radial_148_1099)"/>
</g>
</g>
<defs>
<filter id="filter0_f_148_1099" x="1128" y="-161" width="662" height="662" filterUnits="userSpaceOnUse" color-interpolation-filters="sRGB">
<feFlood flood-opacity="0" result="BackgroundImageFix"/>
<feBlend mode="normal" in="SourceGraphic" in2="BackgroundImageFix" result="shape"/>
<feGaussianBlur stdDeviation="50" result="effect1_foregroundBlur_148_1099"/>
</filter>
<filter id="filter1_f_148_1099" x="1128" y="-579" width="1082" height="1082" filterUnits="userSpaceOnUse" color-interpolation-filters="sRGB">
<feFlood flood-opacity="0" result="BackgroundImageFix"/>
<feBlend mode="normal" in="SourceGraphic" in2="BackgroundImageFix" result="shape"/>
<feGaussianBlur stdDeviation="50" result="effect1_foregroundBlur_148_1099"/>
</filter>
<filter id="filter2_f_148_1099" x="56" y="132" width="1438" height="1438" filterUnits="userSpaceOnUse" color-interpolation-filters="sRGB">
<feFlood flood-opacity="0" result="BackgroundImageFix"/>
<feBlend mode="normal" in="SourceGraphic" in2="BackgroundImageFix" result="shape"/>
<feGaussianBlur stdDeviation="50" result="effect1_foregroundBlur_148_1099"/>
</filter>
<filter id="filter3_f_148_1099" x="1063" y="-192" width="556" height="556" filterUnits="userSpaceOnUse" color-interpolation-filters="sRGB">
<feFlood flood-opacity="0" result="BackgroundImageFix"/>
<feBlend mode="normal" in="SourceGraphic" in2="BackgroundImageFix" result="shape"/>
<feGaussianBlur stdDeviation="50" result="effect1_foregroundBlur_148_1099"/>
</filter>
<filter id="filter4_f_148_1099" x="1230" y="33" width="539" height="539" filterUnits="userSpaceOnUse" color-interpolation-filters="sRGB">
<feFlood flood-opacity="0" result="BackgroundImageFix"/>
<feBlend mode="normal" in="SourceGraphic" in2="BackgroundImageFix" result="shape"/>
<feGaussianBlur stdDeviation="50" result="effect1_foregroundBlur_148_1099"/>
</filter>
<filter id="filter5_f_148_1099" x="1101" y="24" width="558" height="558" filterUnits="userSpaceOnUse" color-interpolation-filters="sRGB">
<feFlood flood-opacity="0" result="BackgroundImageFix"/>
<feBlend mode="normal" in="SourceGraphic" in2="BackgroundImageFix" result="shape"/>
<feGaussianBlur stdDeviation="0.5" result="effect1_foregroundBlur_148_1099"/>
</filter>
<filter id="filter6_f_148_1099" x="1033" y="-44" width="694" height="694" filterUnits="userSpaceOnUse" color-interpolation-filters="sRGB">
<feFlood flood-opacity="0" result="BackgroundImageFix"/>
<feBlend mode="normal" in="SourceGraphic" in2="BackgroundImageFix" result="shape"/>
<feGaussianBlur stdDeviation="1.5" result="effect1_foregroundBlur_148_1099"/>
</filter>
<filter id="filter7_f_148_1099" x="961" y="-116" width="838" height="838" filterUnits="userSpaceOnUse" color-interpolation-filters="sRGB">
<feFlood flood-opacity="0" result="BackgroundImageFix"/>
<feBlend mode="normal" in="SourceGraphic" in2="BackgroundImageFix" result="shape"/>
<feGaussianBlur stdDeviation="3.5" result="effect1_foregroundBlur_148_1099"/>
</filter>
<filter id="filter8_f_148_1099" x="882" y="-195" width="996" height="996" filterUnits="userSpaceOnUse" color-interpolation-filters="sRGB">
<feFlood flood-opacity="0" result="BackgroundImageFix"/>
<feBlend mode="normal" in="SourceGraphic" in2="BackgroundImageFix" result="shape"/>
<feGaussianBlur stdDeviation="5.5" result="effect1_foregroundBlur_148_1099"/>
</filter>
<filter id="filter9_f_148_1099" x="1764" y="208" width="48" height="48" filterUnits="userSpaceOnUse" color-interpolation-filters="sRGB">
<feFlood flood-opacity="0" result="BackgroundImageFix"/>
<feBlend mode="normal" in="SourceGraphic" in2="BackgroundImageFix" result="shape"/>
<feGaussianBlur stdDeviation="7" result="effect1_foregroundBlur_148_1099"/>
</filter>
<filter id="filter10_f_148_1099" x="1760" y="15" width="56" height="56" filterUnits="userSpaceOnUse" color-interpolation-filters="sRGB">
<feFlood flood-opacity="0" result="BackgroundImageFix"/>
<feBlend mode="normal" in="SourceGraphic" in2="BackgroundImageFix" result="shape"/>
<feGaussianBlur stdDeviation="9" result="effect1_foregroundBlur_148_1099"/>
</filter>
<filter id="filter11_f_148_1099" x="983" y="472" width="96" height="96" filterUnits="userSpaceOnUse" color-interpolation-filters="sRGB">
<feFlood flood-opacity="0" result="BackgroundImageFix"/>
<feBlend mode="normal" in="SourceGraphic" in2="BackgroundImageFix" result="shape"/>
<feGaussianBlur stdDeviation="13" result="effect1_foregroundBlur_148_1099"/>
</filter>
<filter id="filter12_f_148_1099" x="1609" y="150" width="14" height="14" filterUnits="userSpaceOnUse" color-interpolation-filters="sRGB">
<feFlood flood-opacity="0" result="BackgroundImageFix"/>
<feBlend mode="normal" in="SourceGraphic" in2="BackgroundImageFix" result="shape"/>
<feGaussianBlur stdDeviation="1" result="effect1_foregroundBlur_148_1099"/>
</filter>
<filter id="filter13_f_148_1099" x="-337" y="-750" width="1082" height="1082" filterUnits="userSpaceOnUse" color-interpolation-filters="sRGB">
<feFlood flood-opacity="0" result="BackgroundImageFix"/>
<feBlend mode="normal" in="SourceGraphic" in2="BackgroundImageFix" result="shape"/>
<feGaussianBlur stdDeviation="50" result="effect1_foregroundBlur_148_1099"/>
</filter>
<radialGradient id="paint0_radial_148_1099" cx="0" cy="0" r="1" gradientUnits="userSpaceOnUse" gradientTransform="translate(1459 202.523) rotate(-90) scale(225.162)">
<stop offset="0.331731" stop-color="#4755C6"/>
<stop offset="1" stop-color="#45A4F3" stop-opacity="0"/>
</radialGradient>
<radialGradient id="paint1_radial_148_1099" cx="0" cy="0" r="1" gradientUnits="userSpaceOnUse" gradientTransform="translate(1669 24.0903) rotate(-90) scale(429.856)">
<stop offset="0.331731" stop-color="#4755C6"/>
<stop offset="1" stop-color="#45A4F3" stop-opacity="0"/>
</radialGradient>
<radialGradient id="paint2_radial_148_1099" cx="0" cy="0" r="1" gradientUnits="userSpaceOnUse" gradientTransform="translate(775 938.152) rotate(-90) scale(603.357)">
<stop offset="0.331731" stop-color="#4755C6"/>
<stop offset="1" stop-color="#4556F3" stop-opacity="0"/>
</radialGradient>
<radialGradient id="paint3_radial_148_1099" cx="0" cy="0" r="1" gradientUnits="userSpaceOnUse" gradientTransform="translate(1341 111.061) rotate(-90) scale(173.502)">
<stop offset="0.331731" stop-color="#D5C8FB"/>
<stop offset="0.865385" stop-color="#D5C8FB" stop-opacity="0"/>
</radialGradient>
<radialGradient id="paint4_radial_148_1099" cx="0" cy="0" r="1" gradientUnits="userSpaceOnUse" gradientTransform="translate(1499.5 326.365) rotate(-90) scale(165.217)">
<stop offset="0.331731" stop-color="#F45B49"/>
<stop offset="0.528846" stop-color="#FFB339"/>
<stop offset="0.966346" stop-color="#F7F7F7" stop-opacity="0.14"/>
</radialGradient>
<linearGradient id="paint5_linear_148_1099" x1="1380" y1="25" x2="1166.65" y2="499.378" gradientUnits="userSpaceOnUse">
<stop stop-color="#F5F5F5"/>
<stop offset="1" stop-color="#7994FF" stop-opacity="0.29"/>
</linearGradient>
<linearGradient id="paint6_linear_148_1099" x1="1380" y1="-41" x2="1116" y2="546" gradientUnits="userSpaceOnUse">
<stop stop-color="#F5F5F5"/>
<stop offset="1" stop-color="#7994FF" stop-opacity="0.29"/>
</linearGradient>
<linearGradient id="paint7_linear_148_1099" x1="1380" y1="-109" x2="1063.81" y2="594.035" gradientUnits="userSpaceOnUse">
<stop stop-color="#F5F5F5"/>
<stop offset="1" stop-color="#7994FF" stop-opacity="0.16"/>
</linearGradient>
<linearGradient id="paint8_linear_148_1099" x1="1380" y1="-184" x2="1006.26" y2="647.015" gradientUnits="userSpaceOnUse">
<stop stop-color="#F5F5F5"/>
<stop offset="1" stop-color="#7994FF" stop-opacity="0.1"/>
</linearGradient>
<radialGradient id="paint9_radial_148_1099" cx="0" cy="0" r="1" gradientUnits="userSpaceOnUse" gradientTransform="translate(204 -146.91) rotate(-90) scale(429.856)">
<stop offset="0.331731" stop-color="#45A4F3"/>
<stop offset="1" stop-color="#45A4F3" stop-opacity="0"/>
</radialGradient>
<clipPath id="clip0_148_1099">
<rect width="1920" height="606" fill="white"/>
</clipPath>
</defs>
</svg>
