<svg width="14" height="14" viewBox="0 0 14 14" fill="none" xmlns="http://www.w3.org/2000/svg">
<path d="M13.3333 1.92444C13.2533 0.408889 9.12444 0 6.66667 0C4.20889 0 0 0.413333 0 1.96444V12.0044C0 13.5556 4.19111 13.9733 6.66667 13.9733C9.14222 13.9733 13.3333 13.56 13.3333 12.0044V1.92444ZM12.4444 5.28444C12.2978 5.66667 10.1956 6.37333 6.66667 6.37333C5.01609 6.41513 3.36847 6.21142 1.77778 5.76889V6.69333C3.37634 7.09143 5.0194 7.28263 6.66667 7.26222C8.44444 7.26222 11.08 7.04889 12.4444 6.37333V8.67111C12.2978 9.05333 10.1956 9.76 6.66667 9.76C5.01521 9.79601 3.36757 9.58631 1.77778 9.13778V10.0622C3.37634 10.4603 5.0194 10.6515 6.66667 10.6311C8.44444 10.6311 11.08 10.4178 12.4444 9.74222V12.0089C12.2889 12.3911 10.1867 13.0978 6.66667 13.0978C3.14667 13.0978 1.02222 12.3733 0.888889 12.0044V1.98222C1.02222 1.61778 3.11111 0.888889 6.66667 0.888889C10.12 0.888889 12.2044 1.56889 12.4444 1.94222C12.2133 2.32889 10.1289 3.00444 6.66667 3.00444C5.01613 3.04558 3.3686 2.84189 1.77778 2.4V3.32889C3.37671 3.72453 5.01965 3.91421 6.66667 3.89333C8.44444 3.89333 11.08 3.68 12.4444 3.00444V5.28444Z" fill="black"/>
</svg>
