<svg width="12" height="14" viewBox="0 0 12 14" fill="none" xmlns="http://www.w3.org/2000/svg">
<path d="M1.33332 6.99998C1.15651 6.99998 0.986943 7.07022 0.861919 7.19524C0.736895 7.32027 0.666656 7.48984 0.666656 7.66665V13C0.666656 13.1768 0.736895 13.3464 0.861919 13.4714C0.986943 13.5964 1.15651 13.6666 1.33332 13.6666C1.51013 13.6666 1.6797 13.5964 1.80473 13.4714C1.92975 13.3464 1.99999 13.1768 1.99999 13V7.66665C1.99999 7.48984 1.92975 7.32027 1.80473 7.19524C1.6797 7.07022 1.51013 6.99998 1.33332 6.99998ZM4.66666 0.333313C4.48985 0.333313 4.32028 0.403551 4.19525 0.528575C4.07023 0.653599 3.99999 0.823169 3.99999 0.99998V13C3.99999 13.1768 4.07023 13.3464 4.19525 13.4714C4.32028 13.5964 4.48985 13.6666 4.66666 13.6666C4.84347 13.6666 5.01304 13.5964 5.13806 13.4714C5.26309 13.3464 5.33332 13.1768 5.33332 13V0.99998C5.33332 0.823169 5.26309 0.653599 5.13806 0.528575C5.01304 0.403551 4.84347 0.333313 4.66666 0.333313ZM11.3333 9.66665C11.1565 9.66665 10.9869 9.73688 10.8619 9.86191C10.7369 9.98693 10.6667 10.1565 10.6667 10.3333V13C10.6667 13.1768 10.7369 13.3464 10.8619 13.4714C10.9869 13.5964 11.1565 13.6666 11.3333 13.6666C11.5101 13.6666 11.6797 13.5964 11.8047 13.4714C11.9298 13.3464 12 13.1768 12 13V10.3333C12 10.1565 11.9298 9.98693 11.8047 9.86191C11.6797 9.73688 11.5101 9.66665 11.3333 9.66665ZM7.99999 4.33331C7.82318 4.33331 7.65361 4.40355 7.52859 4.52858C7.40356 4.6536 7.33332 4.82317 7.33332 4.99998V13C7.33332 13.1768 7.40356 13.3464 7.52859 13.4714C7.65361 13.5964 7.82318 13.6666 7.99999 13.6666C8.1768 13.6666 8.34637 13.5964 8.47139 13.4714C8.59642 13.3464 8.66666 13.1768 8.66666 13V4.99998C8.66666 4.82317 8.59642 4.6536 8.47139 4.52858C8.34637 4.40355 8.1768 4.33331 7.99999 4.33331Z" fill="currentColor"/>
</svg>
