<svg width="64" height="64" viewBox="0 0 64 64" fill="none" xmlns="http://www.w3.org/2000/svg">
<g id="64px Component">
<path id="Tech Talks" d="M43.2366 45.633C44.0552 45.2261 44.9689 44.9937 45.9493 44.9937H47.9482C51.3271 44.9937 54.0589 47.7736 54.0589 51.2121V53.837H45.1498M18.1467 53.8273H10.6082V51.2024C10.6082 47.7639 13.34 44.984 16.7189 44.984H18.7178C19.4792 44.984 20.2122 45.1293 20.8879 45.3908M50.3278 38.291C50.3278 40.1954 48.8107 41.7392 46.9393 41.7392C45.0679 41.7392 43.5508 40.1954 43.5508 38.291C43.5508 36.3866 45.0679 34.8428 46.9393 34.8428C48.8107 34.8428 50.3278 36.3866 50.3278 38.291ZM21.1066 38.291C21.1066 40.1954 19.5895 41.7392 17.718 41.7392C15.8466 41.7392 14.3295 40.1954 14.3295 38.291C14.3295 36.3866 15.8466 34.8428 17.718 34.8428C19.5895 34.8428 21.1066 36.3866 21.1066 38.291ZM37.7253 40.1411C37.7253 43.2705 35.2324 45.8074 32.1571 45.8074C29.0819 45.8074 26.589 43.2705 26.589 40.1411C26.589 37.0117 29.0819 34.4748 32.1571 34.4748C35.2324 34.4748 37.7253 37.0117 37.7253 40.1411ZM27.1029 50.0305H37.2113C40.2477 50.0305 42.7224 52.5391 42.7224 55.6386V63H21.5919V55.6386C21.5919 52.5488 24.0571 50.0305 27.1029 50.0305ZM53.6781 1H11.3409C9.49437 1 8 2.5207 8 4.39978V20.3042C8 22.1833 9.49437 23.704 11.3409 23.704H16.0144L18.1179 27.4234L20.2214 23.704H28.9021L32.5 30.0386L36.0979 23.704H44.7786L46.8821 27.4234L48.9856 23.704H53.6591C55.5056 23.704 57 22.1833 57 20.3042V4.39978C57 2.5207 55.5056 1 53.6591 1H53.6781Z" stroke="url(#paint0_linear_4821_7172)" stroke-width="2" stroke-linecap="round" stroke-linejoin="round"/>
</g>
<defs>
<linearGradient id="paint0_linear_4821_7172" x1="32.5" y1="1" x2="32.5" y2="63" gradientUnits="userSpaceOnUse">
<stop stop-color="#75CDD6"/>
<stop offset="1" stop-color="#3059AC"/>
</linearGradient>
</defs>
</svg>
