<svg width="64" height="64" viewBox="0 0 64 64" fill="none" xmlns="http://www.w3.org/2000/svg">
<g id="64px Component">
<path id="Webinars" d="M57.0917 25.6198V51.6325M3.67311 51.6421V18.7567C3.67311 17.5281 4.67077 16.5394 5.91057 16.5394H35.9565M42.0395 6C40.3348 6 38.9594 7.36302 38.9594 9.05241V19.1407C38.9594 20.4941 39.8602 21.6364 41.0903 22.0299L38.9594 25.3223L46.0689 22.1931H59.9199C61.6246 22.1931 63 20.8301 63 19.1407V9.05241C63 7.36302 61.6246 6 59.9199 6H42.0395ZM39.8118 51.6422L39.4825 53.1396H21.2922L20.9628 51.6422H1V52.4869C1 54.4258 2.5885 56 4.54507 56H56.2295C58.1861 56 59.7746 54.4258 59.7746 52.4869V51.6422H39.8118ZM34.4555 27.9811C34.4555 30.2129 32.6298 32.0222 30.3777 32.0222C28.1256 32.0222 26.2999 30.2129 26.2999 27.9811C26.2999 25.7493 28.1256 23.94 30.3777 23.94C32.6298 23.94 34.4555 25.7493 34.4555 27.9811ZM28.2369 35.0363H32.5181C35.6079 35.0363 38.1263 37.5223 38.1263 40.5939V44.2991H22.6384V40.5939C22.6384 37.5319 25.147 35.0363 28.2466 35.0363H28.2369ZM46.3307 14.188C46.3307 15.0045 45.6627 15.6664 44.8388 15.6664C44.0148 15.6664 43.3469 15.0045 43.3469 14.188C43.3469 13.3714 44.0148 12.7095 44.8388 12.7095C45.6627 12.7095 46.3307 13.3714 46.3307 14.188ZM52.7623 14.188C52.7623 15.0045 52.0944 15.6664 51.2704 15.6664C50.4465 15.6664 49.7785 15.0045 49.7785 14.188C49.7785 13.3714 50.4465 12.7095 51.2704 12.7095C52.0944 12.7095 52.7623 13.3714 52.7623 14.188ZM59.1845 14.188C59.1845 15.0045 58.5165 15.6664 57.6926 15.6664C56.8686 15.6664 56.2007 15.0045 56.2007 14.188C56.2007 13.3714 56.8686 12.7095 57.6926 12.7095C58.5165 12.7095 59.1845 13.3714 59.1845 14.188Z" stroke="url(#paint0_linear_4821_9415)" stroke-width="2" stroke-linecap="round" stroke-linejoin="round"/>
</g>
<defs>
<linearGradient id="paint0_linear_4821_9415" x1="32" y1="6" x2="32" y2="56" gradientUnits="userSpaceOnUse">
<stop stop-color="#75CDD6"/>
<stop offset="1" stop-color="#3059AC"/>
</linearGradient>
</defs>
</svg>
