<svg width="64" height="64" viewBox="0 0 64 64" fill="none" xmlns="http://www.w3.org/2000/svg">
<g id="64px Component" clip-path="url(#clip0_4821_7220)">
<path id="Video Guides" d="M61.6631 25.5046V52.0886C61.6631 53.4974 60.5297 54.6343 59.125 54.6343H3.53812C2.13344 54.6343 1 53.4974 1 52.0886V16.2935C1 14.8847 2.13344 13.7478 3.53812 13.7478H34.0731M1 60.6487H5.51437M16.035 60.6487H61.4597M55.8314 13.7479C55.8314 16.8173 53.3505 19.3056 50.2902 19.3056C47.2298 19.3056 44.7489 16.8173 44.7489 13.7479C44.7489 10.6784 47.2298 8.19012 50.2902 8.19012C53.3505 8.19012 55.8314 10.6784 55.8314 13.7479ZM63 10.9593V16.5462H60.5975C60.3553 17.4498 60.0066 18.2951 59.5512 19.0918L61.2466 20.7922L57.3037 24.7468L55.6084 23.0464C54.8237 23.5031 53.9713 23.8529 53.0703 24.0958V26.5054H47.5V24.0958C46.5991 23.8529 45.7563 23.5031 44.9619 23.0464L43.2666 24.7468L39.3238 20.7922L41.0191 19.0918C40.5638 18.3048 40.215 17.4498 39.9728 16.5462H37.5703V10.9593H39.9728C40.215 10.0556 40.5638 9.21032 41.0191 8.41358L39.3238 6.71321L43.2666 2.75866L44.9619 4.45902C45.7466 4.00235 46.5991 3.65256 47.5 3.40966V1H53.0703V3.40966C53.9713 3.65256 54.8141 4.00235 55.6084 4.45902L57.3037 2.75866L61.2466 6.71321L59.5512 8.41358C60.0066 9.2006 60.3553 10.0556 60.5975 10.9593H63ZM7.75223 58.2876H13.6616C14.9617 58.2876 16.0157 59.3425 16.0157 60.6438C16.0157 61.9451 14.9617 63 13.6616 63H7.75223C6.45211 63 5.39816 61.9451 5.39816 60.6438C5.39816 59.3425 6.45211 58.2876 7.75223 58.2876ZM36.4175 35.6096L26.0422 42.0418C25.1703 42.5762 24.0466 41.9544 24.0466 40.9244V28.06C24.0466 27.0301 25.1703 26.4082 26.0422 26.9426L36.4175 33.3748C37.241 33.8898 37.241 35.0849 36.4175 35.5999V35.6096Z" stroke="url(#paint0_linear_4821_7220)" stroke-width="2" stroke-linecap="round" stroke-linejoin="round"/>
</g>
<defs>
<linearGradient id="paint0_linear_4821_7220" x1="32" y1="1" x2="32" y2="63" gradientUnits="userSpaceOnUse">
<stop stop-color="#75CDD6"/>
<stop offset="1" stop-color="#3059AC"/>
</linearGradient>
<clipPath id="clip0_4821_7220">
<rect width="64" height="64" fill="white"/>
</clipPath>
</defs>
</svg>
