<svg width="64" height="64" viewBox="0 0 64 64" fill="none" xmlns="http://www.w3.org/2000/svg">
<g id="64px Component">
<path id="Community Forums" d="M37.7293 16.9517C36.9448 10.7847 31.0363 6 23.8686 6C16.1586 6 9.92078 11.529 9.92078 18.3533C9.92078 20.9149 10.8119 23.3024 12.3229 25.2743M15.9746 28.5125C24.2464 28.5125 30.9395 34.4475 30.9395 41.7648C30.9395 46.2305 28.4405 50.1646 24.6145 52.5715V58.9995L18.6479 54.7851C17.7762 54.9204 16.8851 55.0074 15.9649 55.0074C7.69304 55.0074 1 49.0724 1 41.7551C1 34.4378 7.70272 28.5028 15.9649 28.5028L15.9746 28.5125ZM34.9013 57.1245C34.9013 58.1603 34.0598 59 33.0219 59C31.9839 59 31.1425 58.1603 31.1425 57.1245C31.1425 56.0887 31.9839 55.249 33.0219 55.249C34.0598 55.249 34.9013 56.0887 34.9013 57.1245ZM42.0594 57.1245C42.0594 58.1603 41.2179 59 40.18 59C39.142 59 38.3006 58.1603 38.3006 57.1245C38.3006 56.0887 39.142 55.249 40.18 55.249C41.2179 55.249 42.0594 56.0887 42.0594 57.1245ZM49.5466 57.1245C49.5466 58.1603 48.7052 59 47.6673 59C46.6293 59 45.7879 58.1603 45.7879 57.1245C45.7879 56.0887 46.6293 55.249 47.6673 55.249C48.7052 55.249 49.5466 56.0887 49.5466 57.1245ZM19.1319 36.487C19.1319 38.2274 17.7182 39.6382 15.9743 39.6382C14.2304 39.6382 12.8167 38.2274 12.8167 36.487C12.8167 34.7467 14.2304 33.3359 15.9743 33.3359C17.7182 33.3359 19.1319 34.7467 19.1319 36.487ZM21.9701 49.1883H9.98853V47.3034C9.98853 44.9738 11.8773 43.0889 14.2116 43.0889H17.747C20.0814 43.0889 21.9701 44.9738 21.9701 47.3034V49.1883ZM48.0157 18.2953C39.7342 18.2953 33.0315 24.2303 33.0315 31.5573C33.0315 36.023 35.5402 39.9668 39.3661 42.3737V48.8113L45.3327 44.5969C46.2045 44.7322 47.1053 44.8192 48.0157 44.8192C56.2973 44.8192 63 38.8842 63 31.5573C63 24.2303 56.2876 18.2953 48.0157 18.2953ZM51.1733 26.2699C51.1733 28.0102 49.7596 29.421 48.0157 29.421C46.2718 29.421 44.8581 28.0102 44.8581 26.2699C44.8581 24.5295 46.2718 23.1187 48.0157 23.1187C49.7596 23.1187 51.1733 24.5295 51.1733 26.2699ZM46.2335 32.8816H49.7883C52.1226 32.8816 54.0114 34.7665 54.0114 37.096V38.9906H42.0104V37.096C42.0104 34.7665 43.8992 32.8816 46.2335 32.8816ZM26.814 13.4241C26.814 15.0472 25.4954 16.363 23.869 16.363C22.2425 16.363 20.924 15.0472 20.924 13.4241C20.924 11.8009 22.2425 10.4851 23.869 10.4851C25.4954 10.4851 26.814 11.8009 26.814 13.4241ZM22.5123 19.581H25.234C27.5684 19.581 29.4571 21.4659 29.4571 23.7954V25.2647H18.2892V23.7954C18.2892 21.4659 20.1779 19.581 22.5123 19.581Z" stroke="url(#paint0_linear_4821_7847)" stroke-width="2" stroke-linecap="round" stroke-linejoin="round"/>
</g>
<defs>
<linearGradient id="paint0_linear_4821_7847" x1="32" y1="6" x2="32" y2="59" gradientUnits="userSpaceOnUse">
<stop stop-color="#75CDD6"/>
<stop offset="1" stop-color="#3059AC"/>
</linearGradient>
</defs>
</svg>
