<svg width="64" height="64" viewBox="0 0 64 64" fill="none" xmlns="http://www.w3.org/2000/svg">
<g id="64px Component">
<path id="Case Studies" d="M9.96806 10.9685H34.6023M9.96806 18.05H29.1767M47.8495 53.2059V59.3575C47.8495 61.3725 46.213 63 44.187 63H5.6625C3.63644 63 2 61.3725 2 59.3575V4.6425C2 2.6275 3.63644 1 5.6625 1H44.187C46.213 1 47.8495 2.6275 47.8495 4.6425V16.6841M9.96806 25.1412H22.1926M9.96806 32.2228H20.9069M9.96806 39.3044H22.1926M9.96806 46.3859H29.1767M9.96806 53.4771H34.6023M51.6714 46.0086L53.5379 44.1522C54.1694 43.5242 55.1932 43.5242 55.8247 44.1522L62.5264 50.8174C63.1579 51.4454 63.1579 52.4636 62.5264 53.0916L60.6598 54.948C60.0284 55.576 59.0046 55.576 58.3731 54.948L51.6714 48.2828C51.0399 47.6548 51.0399 46.6366 51.6714 46.0086ZM47.8541 42.4421L49.9342 40.3734L53.6397 44.0587L51.5597 46.1274L47.8541 42.4421ZM52.7099 32.2325C52.7099 39.3911 46.8748 45.1944 39.6768 45.1944C32.4789 45.1944 26.6438 39.3911 26.6438 32.2325C26.6438 25.0738 32.4789 19.2706 39.6768 19.2706C46.8748 19.2706 52.7099 25.0738 52.7099 32.2325Z" stroke="url(#paint0_linear_4821_7842)" stroke-width="2" stroke-linecap="round" stroke-linejoin="round"/>
</g>
<defs>
<linearGradient id="paint0_linear_4821_7842" x1="32.5" y1="1" x2="32.5" y2="63" gradientUnits="userSpaceOnUse">
<stop stop-color="#75CDD6"/>
<stop offset="1" stop-color="#3059AC"/>
</linearGradient>
</defs>
</svg>
