<svg width="51" height="48" viewBox="0 0 51 48" fill="none" xmlns="http://www.w3.org/2000/svg">
<path id="API Reference" d="M28.846 44.5H4.17602C2.78602 44.5 1.66602 43.38 1.66602 41.99V3.51C1.66602 2.12 2.78602 1 4.17602 1H42.666C44.056 1 45.176 2.12 45.176 3.51V25.73M1.66602 8.18005H45.166M12.6659 22.63L9.11593 13.9L5.57593 22.63M6.70605 19.85H10.6561M16.636 22.31V13.9H19.116C20.486 13.9 21.596 15.01 21.596 16.38C21.596 17.75 20.486 18.86 19.116 18.86H16.636M26.2759 22.31V13.9M33.5659 14.0601H39.8759M33.5659 19.11H39.8759M26.1759 33.74H6.32593V27.92H28.1759M6.32593 39.05H24.1759M44.4961 37.08C44.4961 39.2836 42.7097 41.07 40.5061 41.07C38.3025 41.07 36.5161 39.2836 36.5161 37.08C36.5161 34.8764 38.3025 33.09 40.5061 33.09C42.7097 33.09 44.4961 34.8764 44.4961 37.08ZM49.666 39.0901V35.0801H47.936C47.766 34.4301 47.506 33.8201 47.186 33.2501L48.406 32.0301L45.566 29.1901L44.346 30.4101C43.776 30.0801 43.166 29.8301 42.516 29.6601V27.9301H38.506V29.6601C37.856 29.8301 37.246 30.0901 36.676 30.4101L35.456 29.1901L32.616 32.0301L33.836 33.2501C33.506 33.8201 33.256 34.4301 33.086 35.0801H31.356V39.0901H33.086C33.256 39.7401 33.516 40.3501 33.836 40.9201L32.616 42.1401L35.456 44.9801L36.676 43.7601C37.246 44.0901 37.856 44.3401 38.506 44.5101V46.2401H42.516V44.5101C43.166 44.3401 43.776 44.0801 44.346 43.7601L45.566 44.9801L48.406 42.1401L47.186 40.9201C47.516 40.3501 47.766 39.7401 47.936 39.0901H49.666Z" stroke="#BEC0C2" stroke-width="2" stroke-linecap="round" stroke-linejoin="round"/>
</svg>
