<svg width="49" height="39" viewBox="0 0 49 39" fill="none" xmlns="http://www.w3.org/2000/svg">
<path id="Community Support" d="M26.1478 32.6052L26.2149 37.9998H36.7552L36.5349 33.1199L26.1478 32.6052ZM26.1478 32.6052L26.3203 29.422C26.4065 27.7159 27.3073 26.1528 28.7254 25.2092L32.4912 22.7025C32.9799 22.3785 33.4207 21.9972 33.8135 21.5778L37.2152 17.9179C38.0297 17.041 39.3903 16.9362 40.3294 17.6796L40.5689 17.8702C41.0289 18.2324 41.1055 18.9091 40.7318 19.3571L34.9346 26.4864M41.1729 17.9464L44.3541 11.7798C44.7183 11.084 45.5232 10.7313 46.2897 10.941C47.1904 11.1984 47.7079 12.142 47.4204 13.0379L44.5266 22.0258C44.1721 23.1218 43.5876 24.1321 42.8114 24.9899L35.5002 33.0628M22.8518 32.6054L22.7847 38H12.2444L12.4647 33.1201L22.8518 32.6054ZM22.8518 32.6054L22.6793 29.4219C22.5931 27.7158 21.6924 26.1527 20.2742 25.2092L16.5084 22.7025C16.0197 22.3784 15.5789 21.9972 15.1861 21.5778L11.7844 17.9178C10.9699 17.041 9.60927 16.9361 8.67022 17.6795L8.43067 17.8702C7.97072 18.2324 7.89407 18.9091 8.26777 19.357L14.065 26.4863M7.82714 17.9464L4.64587 11.7798C4.28175 11.084 3.47685 10.7313 2.71028 10.941C1.80956 11.1984 1.29212 12.142 1.57959 13.0379L4.47339 22.0258C4.82793 23.1218 5.41244 24.1321 6.1886 24.9899L13.4998 33.0628M30.7667 8.13899C31.2267 7.91021 31.7538 7.78629 32.3096 7.78629H33.4405C35.3571 7.78629 36.9096 9.33053 36.9096 11.237V12.6954H32.808M16.5281 12.6954H12.2444V11.237C12.2444 9.33053 13.7969 7.78629 15.7135 7.78629H16.8444C17.2756 7.78629 17.6973 7.86255 18.0806 8.01506M34.8012 3.11612C34.8012 4.17429 33.9388 5.03211 32.875 5.03211C31.8111 5.03211 30.9487 4.17429 30.9487 3.11612C30.9487 2.05794 31.8111 1.20012 32.875 1.20012C33.9388 1.20012 34.8012 2.05794 34.8012 3.11612ZM18.2051 3.11612C18.2051 4.17429 17.3427 5.03211 16.2789 5.03211C15.215 5.03211 14.3526 4.17429 14.3526 3.11612C14.3526 2.05794 15.215 1.20012 16.2789 1.20012C17.3427 1.20012 18.2051 2.05794 18.2051 3.11612ZM27.6438 4.14567C27.6438 5.88298 26.2279 7.29134 24.4813 7.29134C22.7347 7.29134 21.3188 5.88298 21.3188 4.14567C21.3188 2.40836 22.7347 1 24.4813 1C26.2279 1 27.6438 2.40836 27.6438 4.14567ZM24.0206 10.5789H24.9309C27.9876 10.5789 30.4789 13.0474 30.4789 16.0974V17.7749H18.4821V16.0974C18.4821 13.0569 20.9639 10.5789 24.0302 10.5789H24.0206Z" stroke="white" stroke-width="2" stroke-linecap="round" stroke-linejoin="round"/>
</svg>
