<svg width="49" height="41" viewBox="0 0 49 41" fill="none" xmlns="http://www.w3.org/2000/svg">
<path id="Enterprise Support" d="M25.8158 34.6775L25.8829 39.9999H36.4232L36.2028 35.1767L25.8158 34.6775ZM25.8158 34.6775L25.9883 31.531C26.0745 29.8448 26.9752 28.2999 28.3934 27.3673L32.1592 24.8897C32.6479 24.5695 33.0886 24.1926 33.4815 23.7782L36.8832 20.1608C37.6976 19.2941 39.0583 19.1905 39.9974 19.9253L40.2369 20.1137C40.6969 20.4716 40.7735 21.1405 40.3998 21.5832L34.6026 28.6296M40.8408 20.1796L44.0221 14.0846C44.3862 13.397 45.1911 13.0484 45.9577 13.2557C46.8584 13.51 47.3758 14.4426 47.0884 15.3281L44.1946 24.2114C43.84 25.2948 43.2555 26.2933 42.4794 27.1411L35.1682 35.1201M22.5198 34.6775L22.4527 40H11.9123L12.1327 35.1768L22.5198 34.6775ZM22.5198 34.6775L22.3473 31.5311C22.261 29.8449 21.3603 28.3 19.9422 27.3674L16.1764 24.8898C15.6877 24.5696 15.2469 24.1927 14.854 23.7783L11.4524 20.1609C10.6379 19.2942 9.27724 19.1906 8.33819 19.9254L8.09864 20.1138C7.63869 20.4717 7.56204 21.1406 7.93574 21.5833L13.7329 28.6297M7.49511 20.1796L4.31384 14.0846C3.94972 13.397 3.14482 13.0484 2.37825 13.2557C1.47753 13.51 0.960091 14.4426 1.24756 15.3281L4.14136 24.2114C4.4959 25.2948 5.08041 26.2933 5.85657 27.1411L13.1677 35.1201M28.6526 10.6275C28.6526 12.9427 26.7435 14.8195 24.3886 14.8195C22.0336 14.8195 20.1245 12.9427 20.1245 10.6275C20.1245 8.31234 22.0336 6.43551 24.3886 6.43551C26.7435 6.43551 28.6526 8.31234 28.6526 10.6275ZM34.181 8.51737V12.7377H32.3317C32.1496 13.4159 31.8717 14.0565 31.5268 14.6594L32.8395 15.95L29.802 18.9362L28.4892 17.6456C27.8856 17.9847 27.2244 18.2579 26.5345 18.4369V20.255H22.2417V18.4369C21.5518 18.2579 20.9002 17.9847 20.2869 17.6456L18.9742 18.9362L15.9366 15.95L17.2494 14.6594C16.9044 14.0659 16.6265 13.4159 16.4445 12.7377H14.5951V8.51737H16.4445C16.6265 7.83911 16.9044 7.19854 17.2494 6.59564L15.9366 5.30506L18.9742 2.31884L20.2869 3.60941C20.8906 3.27028 21.5518 2.9971 22.2417 2.81811V1H26.5345V2.81811C27.2244 2.9971 27.876 3.27028 28.4892 3.60941L29.802 2.31884L32.8395 5.30506L31.5268 6.59564C31.8717 7.18912 32.1496 7.83911 32.3317 8.51737H34.181Z" stroke="white" stroke-width="2" stroke-linecap="round" stroke-linejoin="round"/>
</svg>
