<svg width="49" height="43" viewBox="0 0 49 43" fill="none" xmlns="http://www.w3.org/2000/svg">
<path id="FAQ&#226;&#128;&#153;S" d="M38.011 10.285H44.5852C46.3773 10.285 47.834 11.7444 47.834 13.54V30.881C47.834 32.6766 46.3773 34.136 44.5852 34.136H42.726V42L34.6377 34.136H18.0297C16.2376 34.136 14.7809 32.6766 14.7809 30.881V28.9318M8.1301 17.208V9.41127H12.9697M8.1301 13.3097H11.9347M14.3499 17.208L17.3687 9.41127L20.0616 17.208M15.7776 14.2218H18.6335M25.5529 14.6154L28.8783 17.2079M31.6383 1H5.08275C3.29066 1 1.83398 2.45949 1.83398 4.25504V21.5961C1.83398 23.3916 3.29066 24.8511 5.08275 24.8511H6.94193V32.715L15.0303 24.8511H31.6383C33.4304 24.8511 34.8871 23.3916 34.8871 21.5961V4.25504C34.8871 2.45949 33.4304 1 31.6383 1ZM25.0066 9.41127H25.0162C26.5775 9.41127 27.8433 10.6794 27.8433 12.2438V14.3754C27.8433 15.9398 26.5775 17.208 25.0162 17.208H25.0066C23.4452 17.208 22.1795 15.9398 22.1795 14.3754V12.2438C22.1795 10.6794 23.4452 9.41127 25.0066 9.41127Z" stroke="white" stroke-width="2" stroke-linecap="round" stroke-linejoin="round"/>
</svg>
