<svg width="50" height="50" viewBox="0 0 50 50" fill="none" xmlns="http://www.w3.org/2000/svg">
<path id="Function Reference" d="M19.7682 46.7405H4.66595C2.82253 46.7405 1.33398 45.252 1.33398 43.4085C1.33398 41.5651 2.82253 40.0667 4.66595 40.0667H38.0743M38.0743 40.0667V46.7306H27.1518M38.0743 40.0667L38.0744 36.5673M38.0743 12.2084V1H4.66595C2.82253 1 1.33398 2.48854 1.33398 4.33197V42.551M26.4716 40.0667V48.2488L23.3663 44.6112L20.2611 48.2488V40.0667M6.81503 1V39.5345M10.9356 6.19513H18.6937M10.9356 10.158H14.8196M41.0948 33.0305L41.75 32.3752C42.3891 31.7362 43.4252 31.7362 44.0642 32.3752L48.1769 36.4879C48.8159 37.1269 48.8159 38.1631 48.1769 38.8021L47.5216 39.4574C46.8826 40.0964 45.8465 40.0964 45.2074 39.4574L41.0948 35.3447C40.4557 34.7056 40.4557 33.6695 41.0948 33.0305ZM38.0185 30.7961L39.5033 29.3113L42.1521 31.9601L40.6673 33.4449L38.0185 30.7961ZM41.505 23.4561C41.505 28.6065 37.3298 32.7817 32.1794 32.7817C27.029 32.7817 22.8538 28.6065 22.8538 23.4561C22.8538 18.3057 27.029 14.1305 32.1794 14.1305C37.3298 14.1305 41.505 18.3057 41.505 23.4561Z" stroke="#BEC0C2" stroke-width="2" stroke-linecap="round" stroke-linejoin="round"/>
</svg>
