<svg width="25" height="25" viewBox="0 0 25 25" fill="none" xmlns="http://www.w3.org/2000/svg">
<path d="M12.55 24.1C19.205 24.1 24.6 18.705 24.6 12.05C24.6 5.39497 19.205 0 12.55 0C5.89497 0 0.5 5.39497 0.5 12.05C0.5 18.705 5.89497 24.1 12.55 24.1Z" fill="black"/>
<path d="M15.4789 23.1316C15.4789 22.7516 15.4989 21.4816 15.4989 19.9016C15.4989 18.8016 15.1089 18.0716 14.6889 17.7216C17.3589 17.4316 20.1689 16.4316 20.1689 11.9016C20.1689 10.6116 19.6989 9.56158 18.9389 8.74158C19.0589 8.44158 19.4589 7.24158 18.8189 5.62158C18.8189 5.62158 17.8189 5.30158 15.5289 6.83158C14.5689 6.57158 13.5489 6.44158 12.5289 6.43158C11.5089 6.43158 10.4889 6.57158 9.52891 6.83158C7.23891 5.31158 6.22891 5.62158 6.22891 5.62158C5.57891 7.24158 5.98891 8.44158 6.12891 8.74158C5.35891 9.56158 4.89891 10.6216 4.89891 11.9016C4.89891 16.4216 7.69891 17.4316 10.3689 17.7316C10.0289 18.0216 9.71891 18.5416 9.60891 19.3116C8.91891 19.6116 7.18891 20.1316 6.11891 18.3316C6.11891 18.3316 5.48891 17.2016 4.27891 17.1116C4.27891 17.1116 3.10891 17.1016 4.19891 17.8316C4.19891 17.8316 4.98891 18.1916 5.53891 19.5616C5.53891 19.5616 6.23891 21.8516 9.57891 21.1416C9.57891 22.1216 9.58891 22.8716 9.58891 23.1516C9.58891 23.3416 9.49891 23.5416 9.29891 23.6516C10.3389 23.9416 11.4289 24.1116 12.5689 24.1116C13.7089 24.1116 14.7989 23.9416 15.8389 23.6516C15.6089 23.5516 15.4989 23.3416 15.4989 23.1416L15.4789 23.1316Z" fill="white"/>
</svg>
