<svg width="25" height="24" viewBox="0 0 25 24" fill="none" xmlns="http://www.w3.org/2000/svg">
<path d="M9.45241 12.7031C8.06781 12.7031 6.94141 13.8295 6.94141 15.2141V21.489C6.94141 22.8735 8.06781 24 9.45241 24C10.837 24 11.9634 22.8736 11.9634 21.489V15.2141C11.9634 13.8295 10.837 12.7031 9.45241 12.7031Z" fill="#FF4340"/>
<path d="M5.53375 12.7031H3.10281C1.76237 12.7031 0.671875 13.7937 0.671875 15.1341C0.671875 16.4745 1.76242 17.565 3.10281 17.565C4.4432 17.565 5.53375 16.4745 5.53375 15.1341V12.7031Z" fill="#FF4340"/>
<path d="M0.666016 8.7859C0.666016 10.1705 1.79242 11.2969 3.17702 11.2969H9.45184C10.8365 11.2969 11.9629 10.1705 11.9629 8.7859C11.9629 7.40131 10.8365 6.2749 9.45189 6.2749H3.17702C1.79242 6.27486 0.666016 7.40131 0.666016 8.7859Z" fill="#36C6FF"/>
<path d="M9.5325 4.86847H11.9634V2.43753C11.9634 1.09709 10.8729 0.0065918 9.5325 0.0065918C8.19206 0.0065918 7.10156 1.09714 7.10156 2.43753C7.10156 3.77792 8.19206 4.86847 9.5325 4.86847Z" fill="#36C6FF"/>
<path d="M15.8801 11.2969C17.2647 11.2969 18.3911 10.1705 18.3911 8.78588V2.511C18.3912 1.12641 17.2647 0 15.8801 0C14.4955 0 13.3691 1.12641 13.3691 2.511V8.78583C13.3691 10.1705 14.4955 11.2969 15.8801 11.2969Z" fill="#0DC46E"/>
<path d="M19.7969 11.2969H22.2278C23.5683 11.2969 24.6588 10.2064 24.6588 8.866C24.6588 7.52556 23.5682 6.43506 22.2278 6.43506C20.8874 6.43506 19.7969 7.52561 19.7969 8.866V11.2969Z" fill="#0DC46E"/>
<path d="M24.666 15.2141C24.666 13.8295 23.5396 12.7031 22.155 12.7031H15.8801C14.4955 12.7031 13.3691 13.8295 13.3691 15.2141C13.3691 16.5987 14.4955 17.7251 15.8801 17.7251H22.155C23.5396 17.7252 24.666 16.5987 24.666 15.2141Z" fill="#FDCB02"/>
<path d="M15.8001 19.1313H13.3691V21.5623C13.3691 22.9027 14.4597 23.9932 15.8001 23.9932C17.1405 23.9932 18.231 22.9027 18.231 21.5623C18.231 20.2219 17.1405 19.1313 15.8001 19.1313Z" fill="#FDCB02"/>
</svg>
