<svg width="50" height="46" viewBox="0 0 50 46" fill="none" xmlns="http://www.w3.org/2000/svg">
<path id="User Guide" d="M26.31 34.89H24.95C23.93 34.89 22.92 35.17 22.04 35.69L20.51 36.6L18.98 35.69C18.1 35.17 17.09 34.89 16.07 34.89H1V1H15.6C16.94 1 18.27 1.23 19.53 1.69L20.5 2.04M20.5 2.04L21.47 1.69C22.73 1.23 24.06 1 25.4 1H40V22.13M20.5 2.04V36.21M5.55005 9.75H15.78M5.55005 15.7H15.78M5.55005 27.6H15.78M5.55005 21.65H15.78M25.3301 9.75H35.5601M25.3301 15.7H35.5601M24.3301 27.6H28.3001M25.3301 21.65H35.5601M43.6399 34.89C43.6399 37.1765 41.7863 39.03 39.4999 39.03C37.2134 39.03 35.3599 37.1765 35.3599 34.89C35.3599 32.6035 37.2134 30.75 39.4999 30.75C41.7863 30.75 43.6399 32.6035 43.6399 34.89ZM49 36.97V32.81H47.2C47.02 32.14 46.76 31.5 46.42 30.92L47.69 29.65L44.75 26.71L43.48 27.98C42.89 27.64 42.26 27.38 41.59 27.2V25.4H37.43V27.2C36.76 27.38 36.12 27.64 35.54 27.98L34.27 26.71L31.33 29.65L32.6 30.92C32.26 31.51 32 32.14 31.82 32.81H30.02V36.97H31.82C32 37.64 32.26 38.28 32.6 38.86L31.33 40.13L34.27 43.07L35.54 41.8C36.13 42.14 36.76 42.4 37.43 42.58V44.38H41.59V42.58C42.26 42.4 42.9 42.14 43.48 41.8L44.75 43.07L47.69 40.13L46.42 38.86C46.76 38.27 47.02 37.64 47.2 36.97H49Z" stroke="#BEC0C2" stroke-width="2" stroke-linecap="round" stroke-linejoin="round"/>
</svg>
