<svg width="360" height="381" viewBox="0 0 360 381" fill="none" xmlns="http://www.w3.org/2000/svg">
<circle cx="179.551" cy="244.449" r="106.449" transform="rotate(90 179.551 244.449)" fill="#F5F5F5"/>
<g filter="url(#filter0_f_167_6)">
<circle cx="79.5" cy="178.5" r="3.5" fill="#F7F7F7"/>
<circle cx="79.5" cy="178.5" r="2.04449" stroke="#F5F5F5" stroke-width="2.91101"/>
</g>
<path d="M179.5 236.2C202.408 236.2 221 228.785 221 219.6C221 210.415 202.408 203 179.5 203C156.592 203 138 210.415 138 219.6C138 228.785 156.592 236.2 179.5 236.2Z" stroke="#343FAE" stroke-width="4.02424" stroke-linecap="round" stroke-linejoin="round"/>
<path d="M138 219.6V244.5C138 253.685 156.592 261.1 179.5 261.1C202.408 261.1 221 253.685 221 244.5V219.6" stroke="#343FAE" stroke-width="4.02424" stroke-linecap="round" stroke-linejoin="round"/>
<path d="M138 244.5V269.4C138 278.548 156.592 286 179.5 286C202.408 286 221 278.548 221 269.4V244.5" stroke="#343FAE" stroke-width="4.02424" stroke-linecap="round" stroke-linejoin="round"/>
<path d="M183.039 271.762C182.265 271.762 181.638 272.352 181.638 273.09C181.638 273.827 182.265 274.418 183.039 274.418C183.814 274.418 184.441 273.827 184.441 273.09C184.441 272.721 184.294 272.389 184.035 272.167C183.777 271.909 183.408 271.762 183.039 271.762Z" fill="black" stroke="black" stroke-width="3.29479" stroke-linecap="round" stroke-linejoin="round"/>
<path d="M195.946 270.433C195.171 270.433 194.544 271.023 194.544 271.761C194.544 272.499 195.171 273.089 195.946 273.089C196.72 273.089 197.348 272.499 197.348 271.761C197.348 271.392 197.2 271.06 196.942 270.839C196.683 270.58 196.315 270.433 195.946 270.433Z" fill="black" stroke="black" stroke-width="3.29479" stroke-linecap="round" stroke-linejoin="round"/>
<path d="M208.86 266.781C208.085 266.781 207.458 267.371 207.458 268.109C207.458 268.847 208.085 269.437 208.86 269.437C209.634 269.437 210.262 268.847 210.262 268.109C210.262 267.74 210.114 267.408 209.856 267.187C209.598 266.929 209.229 266.781 208.86 266.781Z" fill="black" stroke="black" stroke-width="3.29479" stroke-linecap="round" stroke-linejoin="round"/>
<g filter="url(#filter1_f_167_6)">
<path d="M300.877 245C300.877 311.759 246.759 365.877 180 365.877C113.241 365.877 59.123 311.759 59.123 245C59.123 178.241 113.241 124.123 180 124.123C246.759 124.123 300.877 178.241 300.877 245Z" stroke="#F5F5F5" stroke-width="0.245275"/>
<path d="M300.877 245C300.877 311.759 246.759 365.877 180 365.877C113.241 365.877 59.123 311.759 59.123 245C59.123 178.241 113.241 124.123 180 124.123C246.759 124.123 300.877 178.241 300.877 245Z" stroke="url(#paint0_linear_167_6)" stroke-width="0.245275"/>
</g>
<g filter="url(#filter2_f_167_6)">
<circle cx="180" cy="245" r="161.877" transform="rotate(90 180 245)" stroke="url(#paint1_linear_167_6)" stroke-width="0.245275"/>
</g>
<g filter="url(#filter3_f_167_6)">
<circle cx="179.9" cy="244.899" r="201.984" transform="rotate(90 179.9 244.899)" stroke="url(#paint2_linear_167_6)" stroke-width="0.245275"/>
</g>
<g filter="url(#filter4_f_167_6)">
<circle cx="179.899" cy="244.899" r="238.775" transform="rotate(90 179.899 244.899)" stroke="url(#paint3_linear_167_6)" stroke-width="0.245275"/>
</g>
<g filter="url(#filter5_f_167_6)">
<circle cx="321.895" cy="335.043" r="4.90551" transform="rotate(90 321.895 335.043)" fill="#F7F7F7"/>
</g>
<g filter="url(#filter6_f_167_6)">
<circle cx="251.52" cy="360.669" r="2.45275" transform="rotate(90 251.52 360.669)" fill="#F7F7F7"/>
</g>
<g filter="url(#filter7_f_167_6)">
<circle cx="23" cy="292" r="10" fill="#F7F7F7"/>
</g>
<g opacity="0.66" filter="url(#filter8_f_167_6)">
<circle cx="6.5" cy="127.5" r="23.5" fill="#F7F7F7"/>
</g>
<defs>
<filter id="filter0_f_167_6" x="72" y="171" width="15" height="15" filterUnits="userSpaceOnUse" color-interpolation-filters="sRGB">
<feFlood flood-opacity="0" result="BackgroundImageFix"/>
<feBlend mode="normal" in="SourceGraphic" in2="BackgroundImageFix" result="shape"/>
<feGaussianBlur stdDeviation="2" result="effect1_foregroundBlur_167_6"/>
</filter>
<filter id="filter1_f_167_6" x="58.5094" y="123.51" width="242.981" height="242.981" filterUnits="userSpaceOnUse" color-interpolation-filters="sRGB">
<feFlood flood-opacity="0" result="BackgroundImageFix"/>
<feBlend mode="normal" in="SourceGraphic" in2="BackgroundImageFix" result="shape"/>
<feGaussianBlur stdDeviation="0.245275" result="effect1_foregroundBlur_167_6"/>
</filter>
<filter id="filter2_f_167_6" x="16.5283" y="81.5284" width="326.943" height="326.943" filterUnits="userSpaceOnUse" color-interpolation-filters="sRGB">
<feFlood flood-opacity="0" result="BackgroundImageFix"/>
<feBlend mode="normal" in="SourceGraphic" in2="BackgroundImageFix" result="shape"/>
<feGaussianBlur stdDeviation="0.735826" result="effect1_foregroundBlur_167_6"/>
</filter>
<filter id="filter3_f_167_6" x="-25.6409" y="39.3579" width="411.082" height="411.081" filterUnits="userSpaceOnUse" color-interpolation-filters="sRGB">
<feFlood flood-opacity="0" result="BackgroundImageFix"/>
<feBlend mode="normal" in="SourceGraphic" in2="BackgroundImageFix" result="shape"/>
<feGaussianBlur stdDeviation="1.71693" result="effect1_foregroundBlur_167_6"/>
</filter>
<filter id="filter4_f_167_6" x="-64.3951" y="0.604432" width="488.588" height="488.588" filterUnits="userSpaceOnUse" color-interpolation-filters="sRGB">
<feFlood flood-opacity="0" result="BackgroundImageFix"/>
<feBlend mode="normal" in="SourceGraphic" in2="BackgroundImageFix" result="shape"/>
<feGaussianBlur stdDeviation="2.69803" result="effect1_foregroundBlur_167_6"/>
</filter>
<filter id="filter5_f_167_6" x="308.16" y="321.308" width="27.4704" height="27.4709" filterUnits="userSpaceOnUse" color-interpolation-filters="sRGB">
<feFlood flood-opacity="0" result="BackgroundImageFix"/>
<feBlend mode="normal" in="SourceGraphic" in2="BackgroundImageFix" result="shape"/>
<feGaussianBlur stdDeviation="4.41495" result="effect1_foregroundBlur_167_6"/>
</filter>
<filter id="filter6_f_167_6" x="248.086" y="357.236" width="6.86748" height="6.86772" filterUnits="userSpaceOnUse" color-interpolation-filters="sRGB">
<feFlood flood-opacity="0" result="BackgroundImageFix"/>
<feBlend mode="normal" in="SourceGraphic" in2="BackgroundImageFix" result="shape"/>
<feGaussianBlur stdDeviation="0.490551" result="effect1_foregroundBlur_167_6"/>
</filter>
<filter id="filter7_f_167_6" x="-5" y="264" width="56" height="56" filterUnits="userSpaceOnUse" color-interpolation-filters="sRGB">
<feFlood flood-opacity="0" result="BackgroundImageFix"/>
<feBlend mode="normal" in="SourceGraphic" in2="BackgroundImageFix" result="shape"/>
<feGaussianBlur stdDeviation="9" result="effect1_foregroundBlur_167_6"/>
</filter>
<filter id="filter8_f_167_6" x="-46" y="75.0001" width="105" height="105" filterUnits="userSpaceOnUse" color-interpolation-filters="sRGB">
<feFlood flood-opacity="0" result="BackgroundImageFix"/>
<feBlend mode="normal" in="SourceGraphic" in2="BackgroundImageFix" result="shape"/>
<feGaussianBlur stdDeviation="14.5" result="effect1_foregroundBlur_167_6"/>
</filter>
<linearGradient id="paint0_linear_167_6" x1="301" y1="245" x2="94.5262" y2="152.14" gradientUnits="userSpaceOnUse">
<stop stop-color="#F5F5F5"/>
<stop offset="1" stop-color="#7994FF" stop-opacity="0.29"/>
</linearGradient>
<linearGradient id="paint1_linear_167_6" x1="107.5" y1="392" x2="306.5" y2="109" gradientUnits="userSpaceOnUse">
<stop stop-color="#F5F5F5"/>
<stop offset="1" stop-color="#7994FF" stop-opacity="0.2"/>
</linearGradient>
<linearGradient id="paint2_linear_167_6" x1="179.9" y1="42.7917" x2="24.7947" y2="387.666" gradientUnits="userSpaceOnUse">
<stop stop-color="#F5F5F5"/>
<stop offset="1" stop-color="#7994FF" stop-opacity="0.16"/>
</linearGradient>
<linearGradient id="paint3_linear_167_6" x1="179.899" y1="6.00047" x2="-3.44165" y2="413.655" gradientUnits="userSpaceOnUse">
<stop stop-color="#F5F5F5"/>
<stop offset="1" stop-color="#7994FF" stop-opacity="0.1"/>
</linearGradient>
</defs>
</svg>
