<svg width="360" height="512" viewBox="0 0 360 512" fill="none" xmlns="http://www.w3.org/2000/svg">
<g clip-path="url(#clip0_152_2565)">
<rect width="360" height="512" fill="white"/>
<rect width="360" height="512" fill="#F5F5F5"/>
<g opacity="0.82" filter="url(#filter0_f_152_2565)">
<circle cx="-0.5" cy="283.5" r="244.5" fill="url(#paint0_radial_152_2565)"/>
</g>
<g opacity="0.33" filter="url(#filter1_f_152_2565)">
<circle cx="96.5" cy="222.5" r="230.5" fill="url(#paint1_radial_152_2565)"/>
</g>
<g filter="url(#filter2_f_152_2565)">
<circle cx="93.5" cy="405.5" r="65.5" fill="url(#paint2_radial_152_2565)"/>
</g>
<circle cx="179.551" cy="375.449" r="106.449" transform="rotate(90 179.551 375.449)" fill="#F5F5F5"/>
<g filter="url(#filter3_f_152_2565)">
<circle cx="79.5" cy="309.5" r="3.5" fill="#F7F7F7"/>
<circle cx="79.5" cy="309.5" r="2.04449" stroke="#F5F5F5" stroke-width="2.91101"/>
</g>
<path d="M179.5 367.2C202.408 367.2 221 359.785 221 350.6C221 341.415 202.408 334 179.5 334C156.592 334 138 341.415 138 350.6C138 359.785 156.592 367.2 179.5 367.2Z" stroke="#343FAE" stroke-width="4.02424" stroke-linecap="round" stroke-linejoin="round"/>
<path d="M138 350.6V375.5C138 384.685 156.592 392.1 179.5 392.1C202.408 392.1 221 384.685 221 375.5V350.6" stroke="#343FAE" stroke-width="4.02424" stroke-linecap="round" stroke-linejoin="round"/>
<path d="M138 375.5V400.4C138 409.548 156.592 417 179.5 417C202.408 417 221 409.548 221 400.4V375.5" stroke="#343FAE" stroke-width="4.02424" stroke-linecap="round" stroke-linejoin="round"/>
<path d="M183.039 402.762C182.265 402.762 181.638 403.352 181.638 404.09C181.638 404.827 182.265 405.418 183.039 405.418C183.814 405.418 184.441 404.827 184.441 404.09C184.441 403.721 184.294 403.389 184.035 403.167C183.777 402.909 183.408 402.762 183.039 402.762Z" fill="black" stroke="black" stroke-width="3.29479" stroke-linecap="round" stroke-linejoin="round"/>
<path d="M195.946 401.433C195.171 401.433 194.544 402.023 194.544 402.761C194.544 403.499 195.171 404.089 195.946 404.089C196.72 404.089 197.348 403.499 197.348 402.761C197.348 402.392 197.2 402.06 196.942 401.839C196.683 401.58 196.315 401.433 195.946 401.433Z" fill="black" stroke="black" stroke-width="3.29479" stroke-linecap="round" stroke-linejoin="round"/>
<path d="M208.86 397.781C208.085 397.781 207.458 398.371 207.458 399.109C207.458 399.847 208.085 400.437 208.86 400.437C209.634 400.437 210.262 399.847 210.262 399.109C210.262 398.74 210.114 398.408 209.856 398.187C209.598 397.929 209.229 397.781 208.86 397.781Z" fill="black" stroke="black" stroke-width="3.29479" stroke-linecap="round" stroke-linejoin="round"/>
<g filter="url(#filter4_f_152_2565)">
<path d="M300.877 376C300.877 442.759 246.759 496.877 180 496.877C113.241 496.877 59.123 442.759 59.123 376C59.123 309.241 113.241 255.123 180 255.123C246.759 255.123 300.877 309.241 300.877 376Z" stroke="#F5F5F5" stroke-width="0.245275"/>
<path d="M300.877 376C300.877 442.759 246.759 496.877 180 496.877C113.241 496.877 59.123 442.759 59.123 376C59.123 309.241 113.241 255.123 180 255.123C246.759 255.123 300.877 309.241 300.877 376Z" stroke="url(#paint3_linear_152_2565)" stroke-width="0.245275"/>
</g>
<g filter="url(#filter5_f_152_2565)">
<circle cx="180" cy="376" r="161.877" transform="rotate(90 180 376)" stroke="url(#paint4_linear_152_2565)" stroke-width="0.245275"/>
</g>
<g filter="url(#filter6_f_152_2565)">
<circle cx="179.9" cy="375.899" r="201.984" transform="rotate(90 179.9 375.899)" stroke="url(#paint5_linear_152_2565)" stroke-width="0.245275"/>
</g>
<g filter="url(#filter7_f_152_2565)">
<circle cx="179.899" cy="375.899" r="238.775" transform="rotate(90 179.899 375.899)" stroke="url(#paint6_linear_152_2565)" stroke-width="0.245275"/>
</g>
<g filter="url(#filter8_f_152_2565)">
<circle cx="321.895" cy="466.043" r="4.90551" transform="rotate(90 321.895 466.043)" fill="#F7F7F7"/>
</g>
<g filter="url(#filter9_f_152_2565)">
<circle cx="251.52" cy="491.669" r="2.45275" transform="rotate(90 251.52 491.669)" fill="#F7F7F7"/>
</g>
<g filter="url(#filter10_f_152_2565)">
<circle cx="23" cy="423" r="10" fill="#F7F7F7"/>
</g>
<g opacity="0.66" filter="url(#filter11_f_152_2565)">
<circle cx="6.5" cy="258.5" r="23.5" fill="#F7F7F7"/>
</g>
</g>
<defs>
<filter id="filter0_f_152_2565" x="-345" y="-61" width="689" height="689" filterUnits="userSpaceOnUse" color-interpolation-filters="sRGB">
<feFlood flood-opacity="0" result="BackgroundImageFix"/>
<feBlend mode="normal" in="SourceGraphic" in2="BackgroundImageFix" result="shape"/>
<feGaussianBlur stdDeviation="50" result="effect1_foregroundBlur_152_2565"/>
</filter>
<filter id="filter1_f_152_2565" x="-234" y="-108" width="661" height="661" filterUnits="userSpaceOnUse" color-interpolation-filters="sRGB">
<feFlood flood-opacity="0" result="BackgroundImageFix"/>
<feBlend mode="normal" in="SourceGraphic" in2="BackgroundImageFix" result="shape"/>
<feGaussianBlur stdDeviation="50" result="effect1_foregroundBlur_152_2565"/>
</filter>
<filter id="filter2_f_152_2565" x="-72" y="240" width="331" height="331" filterUnits="userSpaceOnUse" color-interpolation-filters="sRGB">
<feFlood flood-opacity="0" result="BackgroundImageFix"/>
<feBlend mode="normal" in="SourceGraphic" in2="BackgroundImageFix" result="shape"/>
<feGaussianBlur stdDeviation="50" result="effect1_foregroundBlur_152_2565"/>
</filter>
<filter id="filter3_f_152_2565" x="72" y="302" width="15" height="15" filterUnits="userSpaceOnUse" color-interpolation-filters="sRGB">
<feFlood flood-opacity="0" result="BackgroundImageFix"/>
<feBlend mode="normal" in="SourceGraphic" in2="BackgroundImageFix" result="shape"/>
<feGaussianBlur stdDeviation="2" result="effect1_foregroundBlur_152_2565"/>
</filter>
<filter id="filter4_f_152_2565" x="58.5094" y="254.51" width="242.981" height="242.981" filterUnits="userSpaceOnUse" color-interpolation-filters="sRGB">
<feFlood flood-opacity="0" result="BackgroundImageFix"/>
<feBlend mode="normal" in="SourceGraphic" in2="BackgroundImageFix" result="shape"/>
<feGaussianBlur stdDeviation="0.245275" result="effect1_foregroundBlur_152_2565"/>
</filter>
<filter id="filter5_f_152_2565" x="16.5283" y="212.528" width="326.943" height="326.943" filterUnits="userSpaceOnUse" color-interpolation-filters="sRGB">
<feFlood flood-opacity="0" result="BackgroundImageFix"/>
<feBlend mode="normal" in="SourceGraphic" in2="BackgroundImageFix" result="shape"/>
<feGaussianBlur stdDeviation="0.735826" result="effect1_foregroundBlur_152_2565"/>
</filter>
<filter id="filter6_f_152_2565" x="-25.6409" y="170.358" width="411.082" height="411.081" filterUnits="userSpaceOnUse" color-interpolation-filters="sRGB">
<feFlood flood-opacity="0" result="BackgroundImageFix"/>
<feBlend mode="normal" in="SourceGraphic" in2="BackgroundImageFix" result="shape"/>
<feGaussianBlur stdDeviation="1.71693" result="effect1_foregroundBlur_152_2565"/>
</filter>
<filter id="filter7_f_152_2565" x="-64.3951" y="131.604" width="488.588" height="488.588" filterUnits="userSpaceOnUse" color-interpolation-filters="sRGB">
<feFlood flood-opacity="0" result="BackgroundImageFix"/>
<feBlend mode="normal" in="SourceGraphic" in2="BackgroundImageFix" result="shape"/>
<feGaussianBlur stdDeviation="2.69803" result="effect1_foregroundBlur_152_2565"/>
</filter>
<filter id="filter8_f_152_2565" x="308.16" y="452.308" width="27.4704" height="27.4709" filterUnits="userSpaceOnUse" color-interpolation-filters="sRGB">
<feFlood flood-opacity="0" result="BackgroundImageFix"/>
<feBlend mode="normal" in="SourceGraphic" in2="BackgroundImageFix" result="shape"/>
<feGaussianBlur stdDeviation="4.41495" result="effect1_foregroundBlur_152_2565"/>
</filter>
<filter id="filter9_f_152_2565" x="248.086" y="488.236" width="6.86748" height="6.86772" filterUnits="userSpaceOnUse" color-interpolation-filters="sRGB">
<feFlood flood-opacity="0" result="BackgroundImageFix"/>
<feBlend mode="normal" in="SourceGraphic" in2="BackgroundImageFix" result="shape"/>
<feGaussianBlur stdDeviation="0.490551" result="effect1_foregroundBlur_152_2565"/>
</filter>
<filter id="filter10_f_152_2565" x="-5" y="395" width="56" height="56" filterUnits="userSpaceOnUse" color-interpolation-filters="sRGB">
<feFlood flood-opacity="0" result="BackgroundImageFix"/>
<feBlend mode="normal" in="SourceGraphic" in2="BackgroundImageFix" result="shape"/>
<feGaussianBlur stdDeviation="9" result="effect1_foregroundBlur_152_2565"/>
</filter>
<filter id="filter11_f_152_2565" x="-46" y="206" width="105" height="105" filterUnits="userSpaceOnUse" color-interpolation-filters="sRGB">
<feFlood flood-opacity="0" result="BackgroundImageFix"/>
<feBlend mode="normal" in="SourceGraphic" in2="BackgroundImageFix" result="shape"/>
<feGaussianBlur stdDeviation="14.5" result="effect1_foregroundBlur_152_2565"/>
</filter>
<radialGradient id="paint0_radial_152_2565" cx="0" cy="0" r="1" gradientUnits="userSpaceOnUse" gradientTransform="translate(-0.499988 317.924) rotate(-90) scale(238.321)">
<stop offset="0.331731" stop-color="#4755C6"/>
<stop offset="1" stop-color="#F5F5F5" stop-opacity="0"/>
</radialGradient>
<radialGradient id="paint1_radial_152_2565" cx="0" cy="0" r="1" gradientUnits="userSpaceOnUse" gradientTransform="translate(96.5 254.953) rotate(-90) scale(224.675)">
<stop offset="0.331731" stop-color="#45A4F3"/>
<stop offset="1" stop-color="#45A4F3" stop-opacity="0"/>
</radialGradient>
<radialGradient id="paint2_radial_152_2565" cx="0" cy="0" r="1" gradientUnits="userSpaceOnUse" gradientTransform="translate(93.5 414.722) rotate(-90) scale(63.8448)">
<stop offset="0.331731" stop-color="#F45B49"/>
<stop offset="0.966346" stop-color="#F7F7F7" stop-opacity="0.14"/>
</radialGradient>
<linearGradient id="paint3_linear_152_2565" x1="301" y1="376" x2="94.5262" y2="283.14" gradientUnits="userSpaceOnUse">
<stop stop-color="#F5F5F5"/>
<stop offset="1" stop-color="#7994FF" stop-opacity="0.29"/>
</linearGradient>
<linearGradient id="paint4_linear_152_2565" x1="107.5" y1="523" x2="306.5" y2="240" gradientUnits="userSpaceOnUse">
<stop stop-color="#F5F5F5"/>
<stop offset="1" stop-color="#7994FF" stop-opacity="0.2"/>
</linearGradient>
<linearGradient id="paint5_linear_152_2565" x1="179.9" y1="173.792" x2="24.7947" y2="518.666" gradientUnits="userSpaceOnUse">
<stop stop-color="#F5F5F5"/>
<stop offset="1" stop-color="#7994FF" stop-opacity="0.16"/>
</linearGradient>
<linearGradient id="paint6_linear_152_2565" x1="179.899" y1="137" x2="-3.44165" y2="544.655" gradientUnits="userSpaceOnUse">
<stop stop-color="#F5F5F5"/>
<stop offset="1" stop-color="#7994FF" stop-opacity="0.1"/>
</linearGradient>
<clipPath id="clip0_152_2565">
<rect width="360" height="512" fill="white"/>
</clipPath>
</defs>
</svg>
