<svg width="1920" height="606" viewBox="0 0 1920 606" fill="none" xmlns="http://www.w3.org/2000/svg">
<g clip-path="url(#clip0_150_2318)">
<rect width="1920" height="606" fill="#F5F5F5"/>
<circle cx="1380" cy="303" r="217" fill="#F5F5F5"/>
<g opacity="0.82" filter="url(#filter0_f_150_2318)">
<circle cx="-31" cy="647" r="940" fill="url(#paint0_radial_150_2318)"/>
</g>
<g opacity="0.82" filter="url(#filter1_f_150_2318)">
<circle cx="1337" cy="-23" r="441" fill="url(#paint1_radial_150_2318)"/>
</g>
<g opacity="0.33" filter="url(#filter2_f_150_2318)">
<circle cx="1598.5" cy="101.5" r="271.5" fill="url(#paint2_radial_150_2318)"/>
</g>
<g filter="url(#filter3_f_150_2318)">
<circle cx="1706" cy="198" r="10" fill="#F7F7F7"/>
</g>
<g filter="url(#filter4_f_150_2318)">
<circle cx="1153" cy="462" r="10" fill="#F7F7F7"/>
</g>
<g opacity="0.62" filter="url(#filter5_f_150_2318)">
<circle cx="1036" cy="237" r="22" fill="#F7F7F7"/>
</g>
<g filter="url(#filter6_f_150_2318)">
<circle cx="1182" cy="157" r="5" fill="#F7F7F7"/>
<circle cx="1182" cy="157" r="3.54449" stroke="#F5F5F5" stroke-width="2.91101"/>
</g>
<g filter="url(#filter7_f_150_2318)">
<circle cx="1266.5" cy="237.5" r="169.5" fill="url(#paint3_radial_150_2318)"/>
</g>
<circle cx="1380" cy="303" r="246.75" stroke="url(#paint4_linear_150_2318)" stroke-width="0.5"/>
<g filter="url(#filter8_f_150_2318)">
<circle cx="1380" cy="303" r="343.75" stroke="url(#paint5_linear_150_2318)" stroke-width="0.5"/>
</g>
<g filter="url(#filter9_f_150_2318)">
<circle cx="1380" cy="303" r="470.75" stroke="url(#paint6_linear_150_2318)" stroke-width="0.5"/>
</g>
<circle cx="1380" cy="303" r="217" fill="#F5F5F5"/>
<path d="M1380.5 286C1426.04 286 1463 271.26 1463 253C1463 234.74 1426.04 220 1380.5 220C1334.96 220 1298 234.74 1298 253C1298 271.26 1334.96 286 1380.5 286Z" stroke="#343FAE" stroke-width="8" stroke-linecap="round" stroke-linejoin="round"/>
<path d="M1298 253V302.5C1298 320.76 1334.96 335.5 1380.5 335.5C1426.04 335.5 1463 320.76 1463 302.5V253" stroke="#343FAE" stroke-width="8" stroke-linecap="round" stroke-linejoin="round"/>
<path d="M1298 302.5V352C1298 370.187 1334.96 385 1380.5 385C1426.04 385 1463 370.187 1463 352V302.5" stroke="#343FAE" stroke-width="8" stroke-linecap="round" stroke-linejoin="round"/>
<path d="M1387.54 356.695C1386 356.695 1384.75 357.868 1384.75 359.335C1384.75 360.801 1386 361.975 1387.54 361.975C1389.08 361.975 1390.32 360.801 1390.32 359.335C1390.32 358.601 1390.03 357.941 1389.52 357.501C1389 356.988 1388.27 356.695 1387.54 356.695Z" fill="#343FAE" stroke="#343FAE" stroke-width="6.54987" stroke-linecap="round" stroke-linejoin="round"/>
<path d="M1413.19 354.053C1411.65 354.053 1410.41 355.227 1410.41 356.693C1410.41 358.16 1411.65 359.333 1413.19 359.333C1414.73 359.333 1415.98 358.16 1415.98 356.693C1415.98 355.96 1415.69 355.3 1415.17 354.86C1414.66 354.347 1413.93 354.053 1413.19 354.053Z" fill="#343FAE" stroke="#343FAE" stroke-width="6.54987" stroke-linecap="round" stroke-linejoin="round"/>
<path d="M1438.87 346.794C1437.33 346.794 1436.08 347.967 1436.08 349.434C1436.08 350.901 1437.33 352.074 1438.87 352.074C1440.41 352.074 1441.65 350.901 1441.65 349.434C1441.65 348.701 1441.36 348.041 1440.85 347.601C1440.33 347.087 1439.6 346.794 1438.87 346.794Z" fill="#343FAE" stroke="#343FAE" stroke-width="6.54987" stroke-linecap="round" stroke-linejoin="round"/>
<g opacity="0.62" filter="url(#filter10_f_150_2318)">
<circle cx="1742" cy="68" r="32" fill="#F7F7F7"/>
</g>
<g opacity="0.62" filter="url(#filter11_f_150_2318)">
<circle cx="1160" cy="42" r="22" fill="#F7F7F7"/>
</g>
</g>
<defs>
<filter id="filter0_f_150_2318" x="-1071" y="-393" width="2080" height="2080" filterUnits="userSpaceOnUse" color-interpolation-filters="sRGB">
<feFlood flood-opacity="0" result="BackgroundImageFix"/>
<feBlend mode="normal" in="SourceGraphic" in2="BackgroundImageFix" result="shape"/>
<feGaussianBlur stdDeviation="50" result="effect1_foregroundBlur_150_2318"/>
</filter>
<filter id="filter1_f_150_2318" x="796" y="-564" width="1082" height="1082" filterUnits="userSpaceOnUse" color-interpolation-filters="sRGB">
<feFlood flood-opacity="0" result="BackgroundImageFix"/>
<feBlend mode="normal" in="SourceGraphic" in2="BackgroundImageFix" result="shape"/>
<feGaussianBlur stdDeviation="50" result="effect1_foregroundBlur_150_2318"/>
</filter>
<filter id="filter2_f_150_2318" x="1227" y="-270" width="743" height="743" filterUnits="userSpaceOnUse" color-interpolation-filters="sRGB">
<feFlood flood-opacity="0" result="BackgroundImageFix"/>
<feBlend mode="normal" in="SourceGraphic" in2="BackgroundImageFix" result="shape"/>
<feGaussianBlur stdDeviation="50" result="effect1_foregroundBlur_150_2318"/>
</filter>
<filter id="filter3_f_150_2318" x="1682" y="174" width="48" height="48" filterUnits="userSpaceOnUse" color-interpolation-filters="sRGB">
<feFlood flood-opacity="0" result="BackgroundImageFix"/>
<feBlend mode="normal" in="SourceGraphic" in2="BackgroundImageFix" result="shape"/>
<feGaussianBlur stdDeviation="7" result="effect1_foregroundBlur_150_2318"/>
</filter>
<filter id="filter4_f_150_2318" x="1125" y="434" width="56" height="56" filterUnits="userSpaceOnUse" color-interpolation-filters="sRGB">
<feFlood flood-opacity="0" result="BackgroundImageFix"/>
<feBlend mode="normal" in="SourceGraphic" in2="BackgroundImageFix" result="shape"/>
<feGaussianBlur stdDeviation="9" result="effect1_foregroundBlur_150_2318"/>
</filter>
<filter id="filter5_f_150_2318" x="988" y="189" width="96" height="96" filterUnits="userSpaceOnUse" color-interpolation-filters="sRGB">
<feFlood flood-opacity="0" result="BackgroundImageFix"/>
<feBlend mode="normal" in="SourceGraphic" in2="BackgroundImageFix" result="shape"/>
<feGaussianBlur stdDeviation="13" result="effect1_foregroundBlur_150_2318"/>
</filter>
<filter id="filter6_f_150_2318" x="1173" y="148" width="18" height="18" filterUnits="userSpaceOnUse" color-interpolation-filters="sRGB">
<feFlood flood-opacity="0" result="BackgroundImageFix"/>
<feBlend mode="normal" in="SourceGraphic" in2="BackgroundImageFix" result="shape"/>
<feGaussianBlur stdDeviation="2" result="effect1_foregroundBlur_150_2318"/>
</filter>
<filter id="filter7_f_150_2318" x="997" y="-32" width="539" height="539" filterUnits="userSpaceOnUse" color-interpolation-filters="sRGB">
<feFlood flood-opacity="0" result="BackgroundImageFix"/>
<feBlend mode="normal" in="SourceGraphic" in2="BackgroundImageFix" result="shape"/>
<feGaussianBlur stdDeviation="50" result="effect1_foregroundBlur_150_2318"/>
</filter>
<filter id="filter8_f_150_2318" x="1033" y="-44" width="694" height="694" filterUnits="userSpaceOnUse" color-interpolation-filters="sRGB">
<feFlood flood-opacity="0" result="BackgroundImageFix"/>
<feBlend mode="normal" in="SourceGraphic" in2="BackgroundImageFix" result="shape"/>
<feGaussianBlur stdDeviation="1.5" result="effect1_foregroundBlur_150_2318"/>
</filter>
<filter id="filter9_f_150_2318" x="904" y="-173" width="952" height="952" filterUnits="userSpaceOnUse" color-interpolation-filters="sRGB">
<feFlood flood-opacity="0" result="BackgroundImageFix"/>
<feBlend mode="normal" in="SourceGraphic" in2="BackgroundImageFix" result="shape"/>
<feGaussianBlur stdDeviation="2.5" result="effect1_foregroundBlur_150_2318"/>
</filter>
<filter id="filter10_f_150_2318" x="1684" y="10" width="116" height="116" filterUnits="userSpaceOnUse" color-interpolation-filters="sRGB">
<feFlood flood-opacity="0" result="BackgroundImageFix"/>
<feBlend mode="normal" in="SourceGraphic" in2="BackgroundImageFix" result="shape"/>
<feGaussianBlur stdDeviation="13" result="effect1_foregroundBlur_150_2318"/>
</filter>
<filter id="filter11_f_150_2318" x="1112" y="-6" width="96" height="96" filterUnits="userSpaceOnUse" color-interpolation-filters="sRGB">
<feFlood flood-opacity="0" result="BackgroundImageFix"/>
<feBlend mode="normal" in="SourceGraphic" in2="BackgroundImageFix" result="shape"/>
<feGaussianBlur stdDeviation="13" result="effect1_foregroundBlur_150_2318"/>
</filter>
<radialGradient id="paint0_radial_150_2318" cx="0" cy="0" r="1" gradientUnits="userSpaceOnUse" gradientTransform="translate(-31 779.347) rotate(-90) scale(916.246)">
<stop offset="0.0480769" stop-color="#4755C6"/>
<stop offset="1" stop-color="#F5F5F5" stop-opacity="0"/>
</radialGradient>
<radialGradient id="paint1_radial_150_2318" cx="0" cy="0" r="1" gradientUnits="userSpaceOnUse" gradientTransform="translate(1337 39.0903) rotate(-90) scale(429.856)">
<stop offset="0.331731" stop-color="#4755C6"/>
<stop offset="1" stop-color="#F5F5F5" stop-opacity="0"/>
</radialGradient>
<radialGradient id="paint2_radial_150_2318" cx="0" cy="0" r="1" gradientUnits="userSpaceOnUse" gradientTransform="translate(1598.5 139.726) rotate(-90) scale(264.639)">
<stop offset="0.331731" stop-color="#45A4F3"/>
<stop offset="1" stop-color="#45A4F3" stop-opacity="0"/>
</radialGradient>
<radialGradient id="paint3_radial_150_2318" cx="0" cy="0" r="1" gradientUnits="userSpaceOnUse" gradientTransform="translate(1266.5 261.365) rotate(-90) scale(165.217)">
<stop offset="0.331731" stop-color="#F45B49"/>
<stop offset="0.966346" stop-color="#F7F7F7" stop-opacity="0.14"/>
</radialGradient>
<linearGradient id="paint4_linear_150_2318" x1="1206" y1="85" x2="1544" y2="503" gradientUnits="userSpaceOnUse">
<stop stop-color="#F5F5F5"/>
<stop offset="1" stop-color="#B9DAFA"/>
</linearGradient>
<linearGradient id="paint5_linear_150_2318" x1="1380" y1="-41" x2="1116" y2="546" gradientUnits="userSpaceOnUse">
<stop stop-color="#F5F5F5"/>
<stop offset="1" stop-color="#7994FF" stop-opacity="0.16"/>
</linearGradient>
<linearGradient id="paint6_linear_150_2318" x1="1380" y1="-168" x2="1018.53" y2="635.712" gradientUnits="userSpaceOnUse">
<stop stop-color="#F5F5F5"/>
<stop offset="1" stop-color="#7994FF" stop-opacity="0.1"/>
</linearGradient>
<clipPath id="clip0_150_2318">
<rect width="1920" height="606" fill="white"/>
</clipPath>
</defs>
</svg>
