<svg width="530" height="384" viewBox="0 0 530 384" fill="none" xmlns="http://www.w3.org/2000/svg">
<g clip-path="url(#clip0_150_2456)">
<rect width="530" height="384" fill="#F5F5F5"/>
<g opacity="0.82" filter="url(#filter0_f_150_2456)">
<circle cx="138.5" cy="61.5" r="277.5" fill="url(#paint0_radial_150_2456)"/>
</g>
<g filter="url(#filter1_f_150_2456)">
<circle cx="153.5" cy="178.5" r="106.5" fill="url(#paint1_radial_150_2456)"/>
</g>
<g opacity="0.33" filter="url(#filter2_f_150_2456)">
<circle cx="222.5" cy="36.5" r="230.5" fill="url(#paint2_radial_150_2456)"/>
</g>
<g filter="url(#filter3_f_150_2456)">
<circle cx="264.794" cy="192.206" r="172.625" stroke="url(#paint3_linear_150_2456)" stroke-width="0.301002"/>
</g>
<g filter="url(#filter4_f_150_2456)">
<circle cx="449.61" cy="82.6412" r="6.02004" fill="#F7F7F7"/>
</g>
<g filter="url(#filter5_f_150_2456)">
<circle cx="510.411" cy="32.675" r="6.02004" fill="#F7F7F7"/>
</g>
<g filter="url(#filter6_f_150_2456)">
<path d="M483.834 192.5C483.834 313.083 386.083 410.834 265.5 410.834C144.917 410.834 47.166 313.083 47.166 192.5C47.166 71.9173 144.917 -25.834 265.5 -25.834C386.083 -25.834 483.834 71.9173 483.834 192.5Z" stroke="url(#paint4_linear_150_2456)" stroke-width="0.331424"/>
</g>
<g filter="url(#filter7_f_150_2456)">
<circle cx="265.5" cy="192.5" r="278.334" transform="rotate(90 265.5 192.5)" stroke="url(#paint5_linear_150_2456)" stroke-width="0.331424"/>
</g>
<g filter="url(#filter8_f_150_2456)">
<circle cx="265.5" cy="192.193" r="272.928" transform="rotate(90 265.5 192.193)" stroke="url(#paint6_linear_150_2456)" stroke-width="0.331424"/>
</g>
<g filter="url(#filter9_f_150_2456)">
<circle cx="265.498" cy="192.193" r="322.641" transform="rotate(90 265.498 192.193)" stroke="url(#paint7_linear_150_2456)" stroke-width="0.331424"/>
</g>
<g filter="url(#filter10_f_150_2456)">
<circle cx="457.368" cy="313.999" r="6.62848" transform="rotate(90 457.368 313.999)" fill="#F7F7F7"/>
</g>
<g filter="url(#filter11_f_150_2456)">
<circle cx="362.274" cy="348.626" r="3.31424" transform="rotate(90 362.274 348.626)" fill="#F7F7F7"/>
</g>
<g filter="url(#filter12_f_150_2456)">
<circle cx="-3.5" cy="87.5" r="25.5" fill="#F7F7F7"/>
</g>
<circle cx="264.546" cy="192.546" r="158.546" fill="#F5F5F5"/>
<path d="M264.5 178.8C302.312 178.8 333 166.561 333 151.4C333 136.239 302.312 124 264.5 124C226.688 124 196 136.239 196 151.4C196 166.561 226.688 178.8 264.5 178.8Z" stroke="#343FAE" stroke-width="6.64242" stroke-linecap="round" stroke-linejoin="round"/>
<path d="M196 151.4V192.5C196 207.661 226.688 219.9 264.5 219.9C302.312 219.9 333 207.661 333 192.5V151.4" stroke="#343FAE" stroke-width="6.64242" stroke-linecap="round" stroke-linejoin="round"/>
<path d="M196 192.5V233.6C196 248.7 226.688 261 264.5 261C302.312 261 333 248.7 333 233.6V192.5" stroke="#343FAE" stroke-width="6.64242" stroke-linecap="round" stroke-linejoin="round"/>
<path d="M270.342 237.498C269.063 237.498 268.028 238.472 268.028 239.69C268.028 240.908 269.063 241.882 270.342 241.882C271.621 241.882 272.656 240.908 272.656 239.69C272.656 239.081 272.412 238.533 271.986 238.168C271.56 237.742 270.951 237.498 270.342 237.498Z" fill="#343FAE" stroke="#343FAE" stroke-width="5.43838" stroke-linecap="round" stroke-linejoin="round"/>
<path d="M291.646 235.305C290.367 235.305 289.332 236.279 289.332 237.497C289.332 238.715 290.367 239.689 291.646 239.689C292.924 239.689 293.96 238.715 293.96 237.497C293.96 236.888 293.716 236.34 293.29 235.975C292.864 235.548 292.255 235.305 291.646 235.305Z" fill="#343FAE" stroke="#343FAE" stroke-width="5.43838" stroke-linecap="round" stroke-linejoin="round"/>
<path d="M312.961 229.278C311.683 229.278 310.647 230.252 310.647 231.47C310.647 232.687 311.683 233.662 312.961 233.662C314.24 233.662 315.275 232.687 315.275 231.47C315.275 230.861 315.031 230.313 314.605 229.947C314.179 229.521 313.57 229.278 312.961 229.278Z" fill="#343FAE" stroke="#343FAE" stroke-width="5.43838" stroke-linecap="round" stroke-linejoin="round"/>
<g filter="url(#filter13_f_150_2456)">
<circle cx="139.5" cy="73.5" r="4.5" fill="#F7F7F7"/>
<circle cx="139.5" cy="73.5" r="3.04449" stroke="#F5F5F5" stroke-width="2.91101"/>
</g>
</g>
<defs>
<filter id="filter0_f_150_2456" x="-239" y="-316" width="755" height="755" filterUnits="userSpaceOnUse" color-interpolation-filters="sRGB">
<feFlood flood-opacity="0" result="BackgroundImageFix"/>
<feBlend mode="normal" in="SourceGraphic" in2="BackgroundImageFix" result="shape"/>
<feGaussianBlur stdDeviation="50" result="effect1_foregroundBlur_150_2456"/>
</filter>
<filter id="filter1_f_150_2456" x="-53" y="-28" width="413" height="413" filterUnits="userSpaceOnUse" color-interpolation-filters="sRGB">
<feFlood flood-opacity="0" result="BackgroundImageFix"/>
<feBlend mode="normal" in="SourceGraphic" in2="BackgroundImageFix" result="shape"/>
<feGaussianBlur stdDeviation="50" result="effect1_foregroundBlur_150_2456"/>
</filter>
<filter id="filter2_f_150_2456" x="-108" y="-294" width="661" height="661" filterUnits="userSpaceOnUse" color-interpolation-filters="sRGB">
<feFlood flood-opacity="0" result="BackgroundImageFix"/>
<feBlend mode="normal" in="SourceGraphic" in2="BackgroundImageFix" result="shape"/>
<feGaussianBlur stdDeviation="50" result="effect1_foregroundBlur_150_2456"/>
</filter>
<filter id="filter3_f_150_2456" x="91.4166" y="18.8289" width="346.755" height="346.754" filterUnits="userSpaceOnUse" color-interpolation-filters="sRGB">
<feFlood flood-opacity="0" result="BackgroundImageFix"/>
<feBlend mode="normal" in="SourceGraphic" in2="BackgroundImageFix" result="shape"/>
<feGaussianBlur stdDeviation="0.301002" result="effect1_foregroundBlur_150_2456"/>
</filter>
<filter id="filter4_f_150_2456" x="435.162" y="68.1931" width="28.8962" height="28.8962" filterUnits="userSpaceOnUse" color-interpolation-filters="sRGB">
<feFlood flood-opacity="0" result="BackgroundImageFix"/>
<feBlend mode="normal" in="SourceGraphic" in2="BackgroundImageFix" result="shape"/>
<feGaussianBlur stdDeviation="4.21403" result="effect1_foregroundBlur_150_2456"/>
</filter>
<filter id="filter5_f_150_2456" x="493.555" y="15.8189" width="33.7122" height="33.7122" filterUnits="userSpaceOnUse" color-interpolation-filters="sRGB">
<feFlood flood-opacity="0" result="BackgroundImageFix"/>
<feBlend mode="normal" in="SourceGraphic" in2="BackgroundImageFix" result="shape"/>
<feGaussianBlur stdDeviation="5.41804" result="effect1_foregroundBlur_150_2456"/>
</filter>
<filter id="filter6_f_150_2456" x="44" y="-29" width="443" height="443" filterUnits="userSpaceOnUse" color-interpolation-filters="sRGB">
<feFlood flood-opacity="0" result="BackgroundImageFix"/>
<feBlend mode="normal" in="SourceGraphic" in2="BackgroundImageFix" result="shape"/>
<feGaussianBlur stdDeviation="1.5" result="effect1_foregroundBlur_150_2456"/>
</filter>
<filter id="filter7_f_150_2456" x="-16" y="-89" width="563" height="563" filterUnits="userSpaceOnUse" color-interpolation-filters="sRGB">
<feFlood flood-opacity="0" result="BackgroundImageFix"/>
<feBlend mode="normal" in="SourceGraphic" in2="BackgroundImageFix" result="shape"/>
<feGaussianBlur stdDeviation="1.5" result="effect1_foregroundBlur_150_2456"/>
</filter>
<filter id="filter8_f_150_2456" x="-12.2327" y="-85.5401" width="555.466" height="555.466" filterUnits="userSpaceOnUse" color-interpolation-filters="sRGB">
<feFlood flood-opacity="0" result="BackgroundImageFix"/>
<feBlend mode="normal" in="SourceGraphic" in2="BackgroundImageFix" result="shape"/>
<feGaussianBlur stdDeviation="2.31997" result="effect1_foregroundBlur_150_2456"/>
</filter>
<filter id="filter9_f_150_2456" x="-64.6009" y="-137.905" width="660.197" height="660.196" filterUnits="userSpaceOnUse" color-interpolation-filters="sRGB">
<feFlood flood-opacity="0" result="BackgroundImageFix"/>
<feBlend mode="normal" in="SourceGraphic" in2="BackgroundImageFix" result="shape"/>
<feGaussianBlur stdDeviation="3.64566" result="effect1_foregroundBlur_150_2456"/>
</filter>
<filter id="filter10_f_150_2456" x="438.808" y="295.44" width="37.1194" height="37.1195" filterUnits="userSpaceOnUse" color-interpolation-filters="sRGB">
<feFlood flood-opacity="0" result="BackgroundImageFix"/>
<feBlend mode="normal" in="SourceGraphic" in2="BackgroundImageFix" result="shape"/>
<feGaussianBlur stdDeviation="5.96563" result="effect1_foregroundBlur_150_2456"/>
</filter>
<filter id="filter11_f_150_2456" x="357.633" y="343.986" width="9.2803" height="9.27981" filterUnits="userSpaceOnUse" color-interpolation-filters="sRGB">
<feFlood flood-opacity="0" result="BackgroundImageFix"/>
<feBlend mode="normal" in="SourceGraphic" in2="BackgroundImageFix" result="shape"/>
<feGaussianBlur stdDeviation="0.662848" result="effect1_foregroundBlur_150_2456"/>
</filter>
<filter id="filter12_f_150_2456" x="-53.3222" y="37.6778" width="99.6444" height="99.6444" filterUnits="userSpaceOnUse" color-interpolation-filters="sRGB">
<feFlood flood-opacity="0" result="BackgroundImageFix"/>
<feBlend mode="normal" in="SourceGraphic" in2="BackgroundImageFix" result="shape"/>
<feGaussianBlur stdDeviation="12.1611" result="effect1_foregroundBlur_150_2456"/>
</filter>
<filter id="filter13_f_150_2456" x="130" y="64" width="19" height="19" filterUnits="userSpaceOnUse" color-interpolation-filters="sRGB">
<feFlood flood-opacity="0" result="BackgroundImageFix"/>
<feBlend mode="normal" in="SourceGraphic" in2="BackgroundImageFix" result="shape"/>
<feGaussianBlur stdDeviation="2.5" result="effect1_foregroundBlur_150_2456"/>
</filter>
<radialGradient id="paint0_radial_150_2456" cx="0" cy="0" r="1" gradientUnits="userSpaceOnUse" gradientTransform="translate(138.5 100.57) rotate(-90) scale(270.487)">
<stop offset="0.331731" stop-color="#4755C6"/>
<stop offset="1" stop-color="#F5F5F5" stop-opacity="0"/>
</radialGradient>
<radialGradient id="paint1_radial_150_2456" cx="0" cy="0" r="1" gradientUnits="userSpaceOnUse" gradientTransform="translate(153.5 193.495) rotate(-90) scale(103.809)">
<stop offset="0.331731" stop-color="#F45B49"/>
<stop offset="0.966346" stop-color="#F7F7F7" stop-opacity="0.14"/>
</radialGradient>
<radialGradient id="paint2_radial_150_2456" cx="0" cy="0" r="1" gradientUnits="userSpaceOnUse" gradientTransform="translate(222.5 68.9531) rotate(-90) scale(224.675)">
<stop offset="0.331731" stop-color="#45A4F3"/>
<stop offset="1" stop-color="#45A4F3" stop-opacity="0"/>
</radialGradient>
<linearGradient id="paint3_linear_150_2456" x1="264.794" y1="19.4309" x2="132.199" y2="314.254" gradientUnits="userSpaceOnUse">
<stop stop-color="#F5F5F5"/>
<stop offset="1" stop-color="#F5F5F5"/>
</linearGradient>
<linearGradient id="paint4_linear_150_2456" x1="64" y1="107.5" x2="470" y2="342" gradientUnits="userSpaceOnUse">
<stop stop-color="#F5F5F5"/>
<stop offset="1" stop-color="#7994FF" stop-opacity="0.29"/>
</linearGradient>
<linearGradient id="paint5_linear_150_2456" x1="157.159" y1="449.332" x2="456.053" y2="-68.1556" gradientUnits="userSpaceOnUse">
<stop stop-color="#F5F5F5"/>
<stop offset="1" stop-color="#7994FF" stop-opacity="0.29"/>
</linearGradient>
<linearGradient id="paint6_linear_150_2456" x1="265.5" y1="-80.9002" x2="55.9172" y2="385.105" gradientUnits="userSpaceOnUse">
<stop stop-color="#F5F5F5"/>
<stop offset="1" stop-color="#7994FF" stop-opacity="0.16"/>
</linearGradient>
<linearGradient id="paint7_linear_150_2456" x1="265.498" y1="-130.614" x2="17.7623" y2="420.222" gradientUnits="userSpaceOnUse">
<stop stop-color="#F5F5F5"/>
<stop offset="1" stop-color="#7994FF" stop-opacity="0.1"/>
</linearGradient>
<clipPath id="clip0_150_2456">
<rect width="530" height="384" fill="white"/>
</clipPath>
</defs>
</svg>
