<svg width="1920" height="606" viewBox="0 0 1920 606" fill="none" xmlns="http://www.w3.org/2000/svg">
<g clip-path="url(#clip0_149_1937)">
<rect width="1920" height="606" fill="#F5F5F5"/>
<circle cx="1380" cy="303" r="217" fill="#F5F5F5"/>
<g opacity="0.17" filter="url(#filter0_f_149_1937)">
<circle cx="378" cy="199" r="525" fill="url(#paint0_radial_149_1937)"/>
</g>
<g opacity="0.36" filter="url(#filter1_f_149_1937)">
<circle cx="703" cy="625" r="625" fill="url(#paint1_radial_149_1937)"/>
</g>
<g opacity="0.82" filter="url(#filter2_f_149_1937)">
<circle cx="1499" cy="-89" r="441" fill="url(#paint2_radial_149_1937)"/>
</g>
<g filter="url(#filter3_f_149_1937)">
<circle cx="1153" cy="462" r="10" fill="#F7F7F7"/>
</g>
<g opacity="0.62" filter="url(#filter4_f_149_1937)">
<circle cx="1036" cy="237" r="22" fill="#F7F7F7"/>
</g>
<g filter="url(#filter5_f_149_1937)">
<circle cx="1291" cy="71" r="414" fill="url(#paint3_radial_149_1937)"/>
</g>
<g filter="url(#filter6_f_149_1937)">
<circle cx="1380" cy="303" r="272.75" stroke="url(#paint4_linear_149_1937)" stroke-width="0.5"/>
</g>
<g filter="url(#filter7_f_149_1937)">
<circle cx="1757" cy="189" r="10" fill="#F7F7F7"/>
</g>
<g filter="url(#filter8_f_149_1937)">
<circle cx="1380" cy="303" r="391.75" stroke="url(#paint5_linear_149_1937)" stroke-width="0.5"/>
</g>
<g filter="url(#filter9_f_149_1937)">
<circle cx="1380" cy="303" r="486.75" stroke="url(#paint6_linear_149_1937)" stroke-width="0.5"/>
</g>
<g filter="url(#filter10_f_149_1937)">
<circle cx="1474" cy="48" r="5" fill="#F7F7F7"/>
<circle cx="1474" cy="48" r="3.54449" stroke="#F5F5F5" stroke-width="2.91101"/>
</g>
<circle cx="1380" cy="303" r="217" fill="#F5F5F5"/>
<path d="M1476.72 240.352C1475.38 236.067 1472.17 232.585 1468.15 230.443L1386.46 191.339C1384.32 190.268 1381.91 190 1379.77 190C1377.63 190 1375.21 190 1373.07 190.536L1291.38 229.907C1287.37 231.782 1284.42 235.264 1283.35 239.817L1263.26 327.933C1262.46 332.486 1263.53 337.04 1266.21 340.789L1322.72 410.693C1325.93 413.907 1330.49 416.05 1335.04 416.318H1425.03C1429.85 416.853 1434.41 414.711 1437.35 410.693L1493.86 340.789C1496.54 337.04 1497.61 332.486 1497.08 327.933L1476.72 240.352Z" fill="#326DE6"/>
<path d="M1464.13 324.451C1463.86 324.451 1463.59 324.451 1463.59 324.183C1463.59 323.915 1463.06 323.915 1462.52 323.915C1461.45 323.648 1460.38 323.648 1459.31 323.648C1458.77 323.648 1458.24 323.648 1457.7 323.38H1457.43C1454.49 323.112 1451.27 322.576 1448.33 321.773C1447.52 321.505 1446.72 320.701 1446.45 319.898L1444.31 319.362C1445.38 311.595 1444.85 303.56 1443.24 295.793C1441.36 288.026 1438.15 280.527 1433.86 273.831L1435.47 272.224V271.956C1435.47 271.153 1435.74 270.081 1436.27 269.546C1438.68 267.403 1441.1 265.796 1443.77 264.189C1444.31 263.921 1444.85 263.653 1445.38 263.386C1446.45 262.85 1447.26 262.314 1448.33 261.779C1448.59 261.511 1448.86 261.511 1449.13 261.243C1449.4 260.975 1449.13 260.975 1449.13 260.707C1451.54 258.832 1452.08 255.618 1450.2 253.208C1449.4 252.137 1447.79 251.333 1446.45 251.333C1445.11 251.333 1443.77 251.869 1442.7 252.672L1442.43 252.94C1442.17 253.208 1441.9 253.476 1441.63 253.476C1440.83 254.279 1440.02 255.083 1439.49 255.886C1439.22 256.422 1438.68 256.69 1438.42 256.958C1436.54 259.1 1434.13 261.243 1431.72 262.85C1431.19 263.118 1430.65 263.386 1430.11 263.386C1429.85 263.386 1429.31 263.386 1429.04 263.118H1428.78L1426.63 264.457C1424.49 262.314 1422.08 260.172 1419.94 258.029C1410.03 250.262 1397.71 245.441 1385.12 244.102L1384.85 241.959V242.227C1384.05 241.691 1383.78 240.888 1383.51 240.084C1383.51 237.138 1383.51 234.192 1384.05 230.978V230.71C1384.05 230.174 1384.32 229.639 1384.32 229.103C1384.58 228.032 1384.58 226.96 1384.85 225.889V224.282C1385.12 221.604 1382.98 218.926 1380.3 218.658C1378.69 218.39 1377.08 219.193 1375.74 220.533C1374.67 221.604 1374.14 222.943 1374.14 224.282V225.621C1374.14 226.693 1374.41 227.764 1374.67 228.835C1374.94 229.371 1374.94 229.907 1374.94 230.442V230.71C1375.48 233.656 1375.48 236.602 1375.48 239.816C1375.21 240.62 1374.94 241.423 1374.14 241.959V242.495L1373.87 244.637C1370.92 244.905 1367.98 245.441 1364.76 245.977C1352.18 248.655 1340.66 255.351 1331.82 264.725L1330.21 263.653H1329.95C1329.68 263.653 1329.41 263.921 1328.87 263.921C1328.34 263.921 1327.8 263.653 1327.27 263.386C1324.86 261.511 1322.45 259.368 1320.57 257.225C1320.3 256.69 1319.77 256.422 1319.5 256.154C1318.7 255.351 1318.16 254.547 1317.36 253.744C1317.09 253.476 1316.82 253.476 1316.55 253.208C1316.29 252.94 1316.29 252.94 1316.29 252.94C1315.21 252.137 1313.88 251.601 1312.54 251.601C1310.93 251.601 1309.59 252.137 1308.79 253.476C1307.18 255.886 1307.72 259.1 1309.86 260.975C1310.13 260.975 1310.13 261.243 1310.13 261.243C1310.13 261.243 1310.66 261.779 1310.93 261.779C1311.73 262.314 1312.8 262.85 1313.88 263.386C1314.41 263.653 1314.95 263.921 1315.48 264.189C1318.16 265.796 1320.84 267.403 1322.98 269.546C1323.52 270.081 1324.05 271.153 1323.79 271.956V271.688L1325.39 273.295C1325.12 273.831 1324.86 274.099 1324.59 274.634C1316.29 287.758 1312.8 303.292 1315.21 318.559L1313.07 319.095C1313.07 319.362 1312.8 319.362 1312.8 319.362C1312.54 320.166 1311.73 320.701 1310.93 321.237C1307.98 322.041 1305.04 322.576 1301.82 322.844C1301.29 322.844 1300.75 322.844 1300.22 323.112C1299.14 323.112 1298.07 323.38 1297 323.38C1296.73 323.38 1296.47 323.648 1295.93 323.648C1295.66 323.648 1295.66 323.648 1295.4 323.915C1292.45 324.451 1290.57 327.129 1291.11 330.076C1291.65 332.486 1294.06 334.093 1296.47 333.825C1297 333.825 1297.27 333.825 1297.81 333.557C1298.07 333.557 1298.07 333.557 1298.07 333.29C1298.07 333.022 1298.88 333.29 1299.14 333.29C1300.22 333.022 1301.29 332.486 1302.09 332.218C1302.63 331.95 1303.16 331.683 1303.7 331.683H1303.97C1306.91 330.611 1309.59 329.808 1312.8 329.272H1313.07C1313.88 329.272 1314.68 329.54 1315.21 330.076C1315.48 330.076 1315.48 330.343 1315.48 330.343L1317.89 330.076C1321.91 342.396 1329.41 353.377 1339.86 361.412C1342.27 363.287 1344.41 364.894 1347.09 366.233L1345.75 368.108C1345.75 368.376 1346.02 368.376 1346.02 368.376C1346.55 369.179 1346.55 370.25 1346.28 371.054C1345.21 373.732 1343.6 376.41 1342 378.821V379.089C1341.73 379.624 1341.46 379.892 1340.93 380.428C1340.39 380.964 1339.86 382.035 1339.05 383.106C1338.78 383.374 1338.78 383.642 1338.52 383.91C1338.52 383.91 1338.52 384.178 1338.25 384.178C1336.91 386.856 1337.98 390.07 1340.39 391.409C1340.93 391.677 1341.73 391.945 1342.27 391.945C1344.41 391.945 1346.28 390.606 1347.35 388.731C1347.35 388.731 1347.35 388.463 1347.62 388.463C1347.62 388.195 1347.89 387.927 1348.16 387.659C1348.43 386.588 1348.96 385.785 1349.23 384.713L1349.76 383.106C1350.57 380.16 1351.91 377.482 1353.25 374.803C1353.78 374 1354.59 373.464 1355.39 373.196C1355.66 373.196 1355.66 373.196 1355.66 372.929L1356.73 370.786C1364.23 373.732 1371.99 375.071 1380.03 375.071C1384.85 375.071 1389.67 374.536 1394.49 373.196C1397.44 372.661 1400.39 371.589 1403.06 370.786L1404.13 372.661C1404.4 372.661 1404.4 372.661 1404.4 372.929C1405.21 373.196 1406.01 373.732 1406.55 374.536C1407.88 377.214 1409.22 379.892 1410.03 382.838V383.106L1410.56 384.713C1410.83 385.785 1411.1 386.856 1411.63 387.659C1411.9 387.927 1411.9 388.195 1412.17 388.463C1412.17 388.463 1412.17 388.731 1412.44 388.731C1413.51 390.606 1415.38 391.945 1417.53 391.945C1418.33 391.945 1418.87 391.677 1419.67 391.409C1420.74 390.873 1421.81 389.802 1422.08 388.463C1422.35 387.124 1422.35 385.785 1421.81 384.445C1421.81 384.178 1421.54 384.178 1421.54 384.178C1421.54 383.91 1421.28 383.642 1421.01 383.374C1420.47 382.303 1419.94 381.499 1419.13 380.696C1418.87 380.16 1418.6 379.892 1418.06 379.357V378.821C1416.19 376.41 1414.85 373.732 1413.78 371.054C1413.51 370.25 1413.51 369.179 1414.04 368.376C1414.04 368.108 1414.31 368.108 1414.31 368.108L1413.51 365.965C1427.17 357.662 1437.61 344.806 1442.43 329.54L1444.58 329.808C1444.85 329.808 1444.85 329.54 1444.85 329.54C1445.38 329.004 1446.18 328.736 1446.99 328.736H1447.26C1450.2 329.272 1453.15 330.076 1455.83 331.147H1456.09C1456.63 331.415 1457.17 331.683 1457.7 331.683C1458.77 332.218 1459.58 332.754 1460.65 333.022C1460.91 333.022 1461.18 333.29 1461.72 333.29C1461.99 333.29 1461.99 333.29 1462.25 333.557C1462.79 333.825 1463.06 333.825 1463.59 333.825C1466 333.825 1468.15 332.218 1468.95 330.076C1468.68 327.129 1466.54 324.987 1464.13 324.451ZM1386.73 316.148L1379.49 319.63L1372.26 316.148L1370.39 308.381L1375.48 301.953H1383.51L1388.6 308.381L1386.73 316.148ZM1430.38 298.739C1431.72 304.364 1431.99 309.988 1431.45 315.613L1406.01 308.381C1403.6 307.846 1402.26 305.435 1402.8 303.025C1403.06 302.221 1403.33 301.685 1403.87 301.15L1423.95 282.937C1426.9 287.758 1429.04 293.115 1430.38 298.739ZM1415.92 273.027L1393.96 288.562C1392.08 289.633 1389.4 289.365 1388.06 287.49C1387.53 286.955 1387.26 286.419 1387.26 285.616L1385.65 258.565C1397.44 259.904 1407.88 264.993 1415.92 273.027ZM1367.44 259.368L1372.8 258.297L1371.46 285.08C1371.46 287.49 1369.32 289.365 1366.91 289.365C1366.1 289.365 1365.57 289.097 1364.76 288.83L1342.53 273.027C1349.5 266.332 1358.07 261.511 1367.44 259.368ZM1334.77 282.937L1354.59 300.614C1356.46 302.221 1356.73 304.899 1355.12 306.774C1354.59 307.578 1354.05 307.846 1352.98 308.113L1327 315.613C1326.2 304.364 1328.87 292.847 1334.77 282.937ZM1330.21 328.201L1356.73 323.648C1358.87 323.648 1361.01 324.987 1361.28 327.129C1361.55 327.933 1361.55 329.004 1361.01 329.808L1350.84 354.448C1341.46 348.288 1333.96 338.914 1330.21 328.201ZM1391.01 361.412C1387.26 362.215 1383.51 362.751 1379.49 362.751C1373.87 362.751 1367.98 361.68 1362.62 360.073L1375.74 336.236C1377.08 334.629 1379.23 334.093 1381.1 335.164C1381.9 335.7 1382.44 336.236 1383.24 337.039L1396.1 360.341C1394.49 360.608 1392.89 360.876 1391.01 361.412ZM1423.69 338.111C1419.67 344.538 1414.04 350.163 1407.62 354.18L1397.17 329.004C1396.64 326.862 1397.71 324.719 1399.58 323.915C1400.39 323.648 1401.19 323.38 1401.99 323.38L1428.78 327.933C1427.44 331.683 1425.83 335.164 1423.69 338.111Z" fill="#F5F5F5"/>
</g>
<defs>
<filter id="filter0_f_149_1937" x="-247" y="-426" width="1250" height="1250" filterUnits="userSpaceOnUse" color-interpolation-filters="sRGB">
<feFlood flood-opacity="0" result="BackgroundImageFix"/>
<feBlend mode="normal" in="SourceGraphic" in2="BackgroundImageFix" result="shape"/>
<feGaussianBlur stdDeviation="50" result="effect1_foregroundBlur_149_1937"/>
</filter>
<filter id="filter1_f_149_1937" x="-22" y="-100" width="1450" height="1450" filterUnits="userSpaceOnUse" color-interpolation-filters="sRGB">
<feFlood flood-opacity="0" result="BackgroundImageFix"/>
<feBlend mode="normal" in="SourceGraphic" in2="BackgroundImageFix" result="shape"/>
<feGaussianBlur stdDeviation="50" result="effect1_foregroundBlur_149_1937"/>
</filter>
<filter id="filter2_f_149_1937" x="958" y="-630" width="1082" height="1082" filterUnits="userSpaceOnUse" color-interpolation-filters="sRGB">
<feFlood flood-opacity="0" result="BackgroundImageFix"/>
<feBlend mode="normal" in="SourceGraphic" in2="BackgroundImageFix" result="shape"/>
<feGaussianBlur stdDeviation="50" result="effect1_foregroundBlur_149_1937"/>
</filter>
<filter id="filter3_f_149_1937" x="1125" y="434" width="56" height="56" filterUnits="userSpaceOnUse" color-interpolation-filters="sRGB">
<feFlood flood-opacity="0" result="BackgroundImageFix"/>
<feBlend mode="normal" in="SourceGraphic" in2="BackgroundImageFix" result="shape"/>
<feGaussianBlur stdDeviation="9" result="effect1_foregroundBlur_149_1937"/>
</filter>
<filter id="filter4_f_149_1937" x="988" y="189" width="96" height="96" filterUnits="userSpaceOnUse" color-interpolation-filters="sRGB">
<feFlood flood-opacity="0" result="BackgroundImageFix"/>
<feBlend mode="normal" in="SourceGraphic" in2="BackgroundImageFix" result="shape"/>
<feGaussianBlur stdDeviation="13" result="effect1_foregroundBlur_149_1937"/>
</filter>
<filter id="filter5_f_149_1937" x="777" y="-443" width="1028" height="1028" filterUnits="userSpaceOnUse" color-interpolation-filters="sRGB">
<feFlood flood-opacity="0" result="BackgroundImageFix"/>
<feBlend mode="normal" in="SourceGraphic" in2="BackgroundImageFix" result="shape"/>
<feGaussianBlur stdDeviation="50" result="effect1_foregroundBlur_149_1937"/>
</filter>
<filter id="filter6_f_149_1937" x="1104" y="27" width="552" height="552" filterUnits="userSpaceOnUse" color-interpolation-filters="sRGB">
<feFlood flood-opacity="0" result="BackgroundImageFix"/>
<feBlend mode="normal" in="SourceGraphic" in2="BackgroundImageFix" result="shape"/>
<feGaussianBlur stdDeviation="1.5" result="effect1_foregroundBlur_149_1937"/>
</filter>
<filter id="filter7_f_149_1937" x="1733" y="165" width="48" height="48" filterUnits="userSpaceOnUse" color-interpolation-filters="sRGB">
<feFlood flood-opacity="0" result="BackgroundImageFix"/>
<feBlend mode="normal" in="SourceGraphic" in2="BackgroundImageFix" result="shape"/>
<feGaussianBlur stdDeviation="7" result="effect1_foregroundBlur_149_1937"/>
</filter>
<filter id="filter8_f_149_1937" x="981" y="-96" width="798" height="798" filterUnits="userSpaceOnUse" color-interpolation-filters="sRGB">
<feFlood flood-opacity="0" result="BackgroundImageFix"/>
<feBlend mode="normal" in="SourceGraphic" in2="BackgroundImageFix" result="shape"/>
<feGaussianBlur stdDeviation="3.5" result="effect1_foregroundBlur_149_1937"/>
</filter>
<filter id="filter9_f_149_1937" x="882" y="-195" width="996" height="996" filterUnits="userSpaceOnUse" color-interpolation-filters="sRGB">
<feFlood flood-opacity="0" result="BackgroundImageFix"/>
<feBlend mode="normal" in="SourceGraphic" in2="BackgroundImageFix" result="shape"/>
<feGaussianBlur stdDeviation="5.5" result="effect1_foregroundBlur_149_1937"/>
</filter>
<filter id="filter10_f_149_1937" x="1465" y="39" width="18" height="18" filterUnits="userSpaceOnUse" color-interpolation-filters="sRGB">
<feFlood flood-opacity="0" result="BackgroundImageFix"/>
<feBlend mode="normal" in="SourceGraphic" in2="BackgroundImageFix" result="shape"/>
<feGaussianBlur stdDeviation="2" result="effect1_foregroundBlur_149_1937"/>
</filter>
<radialGradient id="paint0_radial_149_1937" cx="0" cy="0" r="1" gradientUnits="userSpaceOnUse" gradientTransform="translate(378 272.917) rotate(-90) scale(511.733)">
<stop offset="0.0336538" stop-color="#26B34E"/>
<stop offset="0.331731" stop-color="#5ACA7A"/>
<stop offset="0.966346" stop-color="#919CDC" stop-opacity="0"/>
</radialGradient>
<radialGradient id="paint1_radial_149_1937" cx="0" cy="0" r="1" gradientUnits="userSpaceOnUse" gradientTransform="translate(703 712.996) rotate(-90) scale(609.206)">
<stop offset="0.331731" stop-color="#326DE6"/>
<stop offset="1" stop-color="#F5F5F5" stop-opacity="0"/>
</radialGradient>
<radialGradient id="paint2_radial_149_1937" cx="0" cy="0" r="1" gradientUnits="userSpaceOnUse" gradientTransform="translate(1499 -26.9097) rotate(-90) scale(429.856)">
<stop offset="0.331731" stop-color="#3259E6"/>
<stop offset="1" stop-color="#45A4F3" stop-opacity="0"/>
</radialGradient>
<radialGradient id="paint3_radial_149_1937" cx="0" cy="0" r="1" gradientUnits="userSpaceOnUse" gradientTransform="translate(1291 129.289) rotate(-90) scale(403.538)">
<stop offset="0.331731" stop-color="#326DE6"/>
<stop offset="1" stop-color="#F5F5F5" stop-opacity="0"/>
</radialGradient>
<linearGradient id="paint4_linear_149_1937" x1="1380" y1="30" x2="1170.49" y2="495.846" gradientUnits="userSpaceOnUse">
<stop stop-color="#F5F5F5"/>
<stop offset="1" stop-color="#7994FF" stop-opacity="0.29"/>
</linearGradient>
<linearGradient id="paint5_linear_149_1937" x1="1380" y1="-89" x2="1079.16" y2="579.907" gradientUnits="userSpaceOnUse">
<stop stop-color="#F5F5F5"/>
<stop offset="1" stop-color="#7994FF" stop-opacity="0.16"/>
</linearGradient>
<linearGradient id="paint6_linear_149_1937" x1="1380" y1="-184" x2="1006.26" y2="647.015" gradientUnits="userSpaceOnUse">
<stop stop-color="#F5F5F5"/>
<stop offset="1" stop-color="#7994FF" stop-opacity="0.1"/>
</linearGradient>
<clipPath id="clip0_149_1937">
<rect width="1920" height="606" fill="white"/>
</clipPath>
</defs>
</svg>
