<svg width="360" height="364" viewBox="0 0 360 364" fill="none" xmlns="http://www.w3.org/2000/svg">
<g filter="url(#filter0_f_175_22)">
<circle cx="179.9" cy="217.899" r="201.984" transform="rotate(90 179.9 217.899)" stroke="url(#paint0_linear_175_22)" stroke-width="0.245275"/>
</g>
<g filter="url(#filter1_f_175_22)">
<circle cx="191" cy="313" r="213" fill="url(#paint1_radial_175_22)"/>
</g>
<circle cx="179.551" cy="217.45" r="106.449" transform="rotate(90 179.551 217.45)" fill="#F5F5F5"/>
<g filter="url(#filter2_f_175_22)">
<circle cx="180" cy="218" r="153.877" transform="rotate(90 180 218)" stroke="#F5F5F5" stroke-width="0.245275"/>
<circle cx="180" cy="218" r="153.877" transform="rotate(90 180 218)" stroke="url(#paint2_linear_175_22)" stroke-width="0.245275"/>
</g>
<g filter="url(#filter3_f_175_22)">
<path d="M364.877 218C364.877 320.105 282.105 402.877 180 402.877C77.895 402.877 -4.87697 320.105 -4.87696 218C-4.87695 115.895 77.8951 33.1231 180 33.1231C282.105 33.1231 364.877 115.895 364.877 218Z" stroke="url(#paint3_linear_175_22)" stroke-width="0.245275"/>
</g>
<path d="M228.59 186.25C227.909 184.073 226.276 182.304 224.235 181.215L182.73 161.347C181.642 160.803 180.417 160.667 179.328 160.667C178.239 160.667 177.015 160.667 175.926 160.939L134.421 180.943C132.38 181.895 130.883 183.664 130.339 185.978L120.133 230.749C119.724 233.062 120.269 235.375 121.629 237.281L150.343 272.798C151.976 274.431 154.289 275.52 156.603 275.656H202.326C204.775 275.928 207.089 274.839 208.586 272.798L237.299 237.281C238.66 235.375 239.204 233.062 238.932 230.749L228.59 186.25Z" fill="#326DE6"/>
<path d="M222.191 228.979C222.055 228.979 221.919 228.979 221.919 228.843C221.919 228.707 221.647 228.707 221.375 228.707C220.831 228.571 220.286 228.571 219.742 228.571C219.47 228.571 219.198 228.571 218.926 228.435H218.789C217.293 228.299 215.66 228.027 214.163 227.619C213.754 227.483 213.346 227.074 213.21 226.666L212.121 226.394C212.666 222.447 212.394 218.365 211.577 214.419C210.625 210.472 208.992 206.662 206.814 203.26L207.631 202.443V202.307C207.631 201.899 207.767 201.355 208.039 201.083C209.264 199.994 210.488 199.178 211.849 198.361C212.121 198.225 212.394 198.089 212.666 197.953C213.21 197.681 213.618 197.408 214.163 197.136C214.299 197 214.435 197 214.571 196.864C214.707 196.728 214.571 196.728 214.571 196.592C215.796 195.639 216.068 194.006 215.115 192.782C214.707 192.237 213.89 191.829 213.21 191.829C212.53 191.829 211.849 192.101 211.305 192.51L211.169 192.646C211.033 192.782 210.897 192.918 210.761 192.918C210.352 193.326 209.944 193.734 209.672 194.142C209.536 194.415 209.264 194.551 209.128 194.687C208.175 195.775 206.95 196.864 205.726 197.681C205.453 197.817 205.181 197.953 204.909 197.953C204.773 197.953 204.501 197.953 204.365 197.817H204.229L203.14 198.497C202.051 197.408 200.827 196.32 199.738 195.231C194.703 191.285 188.443 188.835 182.047 188.155L181.911 187.066V187.202C181.503 186.93 181.367 186.522 181.231 186.114C181.231 184.617 181.231 183.12 181.503 181.487V181.351C181.503 181.079 181.639 180.806 181.639 180.534C181.775 179.99 181.775 179.446 181.911 178.901V178.085C182.047 176.724 180.959 175.363 179.598 175.227C178.781 175.091 177.965 175.499 177.285 176.18C176.74 176.724 176.468 177.404 176.468 178.085V178.765C176.468 179.31 176.604 179.854 176.74 180.398C176.876 180.67 176.876 180.943 176.876 181.215V181.351C177.148 182.848 177.148 184.345 177.148 185.978C177.012 186.386 176.876 186.794 176.468 187.066V187.338L176.332 188.427C174.835 188.563 173.338 188.835 171.705 189.107C165.309 190.468 159.458 193.87 154.967 198.633L154.151 198.089H154.015C153.878 198.089 153.742 198.225 153.47 198.225C153.198 198.225 152.926 198.089 152.654 197.953C151.429 197 150.204 195.912 149.252 194.823C149.116 194.551 148.843 194.415 148.707 194.279C148.299 193.87 148.027 193.462 147.619 193.054C147.483 192.918 147.347 192.918 147.21 192.782C147.074 192.646 147.074 192.646 147.074 192.646C146.53 192.237 145.85 191.965 145.169 191.965C144.353 191.965 143.672 192.237 143.264 192.918C142.448 194.142 142.72 195.775 143.808 196.728C143.944 196.728 143.944 196.864 143.944 196.864C143.944 196.864 144.217 197.136 144.353 197.136C144.761 197.408 145.305 197.681 145.85 197.953C146.122 198.089 146.394 198.225 146.666 198.361C148.027 199.178 149.388 199.994 150.476 201.083C150.749 201.355 151.021 201.899 150.885 202.307V202.171L151.701 202.988C151.565 203.26 151.429 203.396 151.293 203.668C147.074 210.336 145.305 218.229 146.53 225.986L145.441 226.258C145.441 226.394 145.305 226.394 145.305 226.394C145.169 226.802 144.761 227.074 144.353 227.346C142.856 227.755 141.359 228.027 139.726 228.163C139.454 228.163 139.182 228.163 138.909 228.299C138.365 228.299 137.821 228.435 137.276 228.435C137.14 228.435 137.004 228.571 136.732 228.571C136.596 228.571 136.596 228.571 136.46 228.707C134.963 228.979 134.011 230.34 134.283 231.837C134.555 233.062 135.78 233.878 137.004 233.742C137.276 233.742 137.413 233.742 137.685 233.606C137.821 233.606 137.821 233.606 137.821 233.47C137.821 233.334 138.229 233.47 138.365 233.47C138.909 233.334 139.454 233.062 139.862 232.926C140.134 232.79 140.406 232.654 140.679 232.654H140.815C142.311 232.109 143.672 231.701 145.305 231.429H145.441C145.85 231.429 146.258 231.565 146.53 231.837C146.666 231.837 146.666 231.973 146.666 231.973L147.891 231.837C149.932 238.097 153.742 243.676 159.05 247.759C160.274 248.711 161.363 249.528 162.724 250.208L162.043 251.161C162.043 251.297 162.179 251.297 162.179 251.297C162.452 251.705 162.452 252.249 162.316 252.658C161.771 254.018 160.955 255.379 160.138 256.604V256.74C160.002 257.012 159.866 257.148 159.594 257.42C159.322 257.693 159.05 258.237 158.641 258.781C158.505 258.917 158.505 259.053 158.369 259.19C158.369 259.19 158.369 259.326 158.233 259.326C157.553 260.686 158.097 262.319 159.322 263C159.594 263.136 160.002 263.272 160.274 263.272C161.363 263.272 162.316 262.592 162.86 261.639C162.86 261.639 162.86 261.503 162.996 261.503C162.996 261.367 163.132 261.231 163.268 261.095C163.404 260.55 163.676 260.142 163.812 259.598L164.085 258.781C164.493 257.284 165.173 255.924 165.854 254.563C166.126 254.155 166.534 253.882 166.942 253.746C167.078 253.746 167.078 253.746 167.078 253.61L167.623 252.522C171.433 254.018 175.379 254.699 179.462 254.699C181.911 254.699 184.361 254.427 186.81 253.746C188.307 253.474 189.804 252.93 191.165 252.522L191.709 253.474C191.845 253.474 191.845 253.474 191.845 253.61C192.253 253.746 192.662 254.018 192.934 254.427C193.614 255.788 194.295 257.148 194.703 258.645V258.781L194.975 259.598C195.111 260.142 195.247 260.686 195.519 261.095C195.656 261.231 195.656 261.367 195.792 261.503C195.792 261.503 195.792 261.639 195.928 261.639C196.472 262.592 197.425 263.272 198.513 263.272C198.922 263.272 199.194 263.136 199.602 263C200.146 262.728 200.691 262.183 200.827 261.503C200.963 260.823 200.963 260.142 200.691 259.462C200.691 259.326 200.554 259.326 200.554 259.326C200.554 259.19 200.418 259.053 200.282 258.917C200.01 258.373 199.738 257.965 199.33 257.557C199.194 257.284 199.058 257.148 198.785 256.876V256.604C197.833 255.379 197.152 254.018 196.608 252.658C196.472 252.249 196.472 251.705 196.744 251.297C196.744 251.161 196.88 251.161 196.88 251.161L196.472 250.072C203.412 245.854 208.719 239.322 211.169 231.565L212.258 231.701C212.394 231.701 212.394 231.565 212.394 231.565C212.666 231.293 213.074 231.157 213.482 231.157H213.618C215.115 231.429 216.612 231.837 217.973 232.381H218.109C218.381 232.518 218.653 232.654 218.926 232.654C219.47 232.926 219.878 233.198 220.422 233.334C220.559 233.334 220.695 233.47 220.967 233.47C221.103 233.47 221.103 233.47 221.239 233.606C221.511 233.742 221.647 233.742 221.919 233.742C223.144 233.742 224.233 232.926 224.641 231.837C224.505 230.34 223.416 229.252 222.191 228.979ZM182.864 224.761L179.19 226.53L175.515 224.761L174.563 220.815L177.148 217.549H181.231L183.816 220.815L182.864 224.761ZM205.045 215.916C205.726 218.773 205.862 221.631 205.59 224.489L192.662 220.815C191.437 220.542 190.757 219.318 191.029 218.093C191.165 217.685 191.301 217.412 191.573 217.14L201.779 207.887C203.276 210.336 204.365 213.058 205.045 215.916ZM197.697 202.852L186.538 210.744C185.585 211.289 184.225 211.153 183.544 210.2C183.272 209.928 183.136 209.656 183.136 209.248L182.32 195.503C188.307 196.184 193.614 198.769 197.697 202.852ZM173.066 195.912L175.788 195.367L175.107 208.975C175.107 210.2 174.019 211.153 172.794 211.153C172.386 211.153 172.113 211.017 171.705 210.881L160.41 202.852C163.948 199.45 168.303 197 173.066 195.912ZM156.464 207.887L166.534 216.868C167.487 217.685 167.623 219.045 166.806 219.998C166.534 220.406 166.262 220.542 165.718 220.678L152.518 224.489C152.109 218.773 153.47 212.922 156.464 207.887ZM154.151 230.885L167.623 228.571C168.711 228.571 169.8 229.252 169.936 230.34C170.072 230.748 170.072 231.293 169.8 231.701L164.629 244.221C159.866 241.091 156.056 236.328 154.151 230.885ZM185.041 247.759C183.136 248.167 181.231 248.439 179.19 248.439C176.332 248.439 173.338 247.895 170.616 247.078L177.285 234.967C177.965 234.151 179.054 233.878 180.006 234.423C180.414 234.695 180.687 234.967 181.095 235.375L187.627 247.214C186.81 247.35 185.994 247.487 185.041 247.759ZM201.643 235.92C199.602 239.186 196.744 242.043 193.478 244.084L188.171 231.293C187.899 230.204 188.443 229.115 189.396 228.707C189.804 228.571 190.212 228.435 190.621 228.435L204.229 230.748C203.548 232.654 202.732 234.423 201.643 235.92Z" fill="#F5F5F5"/>
<defs>
<filter id="filter0_f_175_22" x="-25.6409" y="12.3579" width="411.082" height="411.081" filterUnits="userSpaceOnUse" color-interpolation-filters="sRGB">
<feFlood flood-opacity="0" result="BackgroundImageFix"/>
<feBlend mode="normal" in="SourceGraphic" in2="BackgroundImageFix" result="shape"/>
<feGaussianBlur stdDeviation="1.71693" result="effect1_foregroundBlur_175_22"/>
</filter>
<filter id="filter1_f_175_22" x="-122" y="0.000244141" width="626" height="626" filterUnits="userSpaceOnUse" color-interpolation-filters="sRGB">
<feFlood flood-opacity="0" result="BackgroundImageFix"/>
<feBlend mode="normal" in="SourceGraphic" in2="BackgroundImageFix" result="shape"/>
<feGaussianBlur stdDeviation="50" result="effect1_foregroundBlur_175_22"/>
</filter>
<filter id="filter2_f_175_22" x="25.5094" y="63.5097" width="308.981" height="308.981" filterUnits="userSpaceOnUse" color-interpolation-filters="sRGB">
<feFlood flood-opacity="0" result="BackgroundImageFix"/>
<feBlend mode="normal" in="SourceGraphic" in2="BackgroundImageFix" result="shape"/>
<feGaussianBlur stdDeviation="0.245275" result="effect1_foregroundBlur_175_22"/>
</filter>
<filter id="filter3_f_175_22" x="-6.47165" y="31.5284" width="372.943" height="372.943" filterUnits="userSpaceOnUse" color-interpolation-filters="sRGB">
<feFlood flood-opacity="0" result="BackgroundImageFix"/>
<feBlend mode="normal" in="SourceGraphic" in2="BackgroundImageFix" result="shape"/>
<feGaussianBlur stdDeviation="0.735826" result="effect1_foregroundBlur_175_22"/>
</filter>
<linearGradient id="paint0_linear_175_22" x1="179.9" y1="15.7917" x2="24.7947" y2="360.666" gradientUnits="userSpaceOnUse">
<stop stop-color="#F5F5F5"/>
<stop offset="1" stop-color="#7994FF" stop-opacity="0.16"/>
</linearGradient>
<radialGradient id="paint1_radial_175_22" cx="0" cy="0" r="1" gradientUnits="userSpaceOnUse" gradientTransform="translate(191 342.989) rotate(-90) scale(207.617)">
<stop offset="0.331731" stop-color="#326DE6"/>
<stop offset="1" stop-color="#F5F5F5" stop-opacity="0"/>
</radialGradient>
<linearGradient id="paint2_linear_175_22" x1="180" y1="64.0002" x2="61.8139" y2="326.785" gradientUnits="userSpaceOnUse">
<stop stop-color="#F5F5F5"/>
<stop offset="1" stop-color="#7994FF" stop-opacity="0.29"/>
</linearGradient>
<linearGradient id="paint3_linear_175_22" x1="365" y1="218" x2="49.3169" y2="76.0233" gradientUnits="userSpaceOnUse">
<stop stop-color="#F5F5F5"/>
<stop offset="1" stop-color="#7994FF" stop-opacity="0.29"/>
</linearGradient>
</defs>
</svg>
