<svg width="360" height="391" viewBox="0 0 360 391" fill="none" xmlns="http://www.w3.org/2000/svg">
<circle cx="179.551" cy="244.449" r="106.449" transform="rotate(90 179.551 244.449)" fill="#F5F5F5"/>
<g filter="url(#filter0_f_167_7)">
<circle cx="180" cy="245" r="153.877" transform="rotate(90 180 245)" stroke="#F5F5F5" stroke-width="0.245275"/>
<circle cx="180" cy="245" r="153.877" transform="rotate(90 180 245)" stroke="url(#paint0_linear_167_7)" stroke-width="0.245275"/>
</g>
<g filter="url(#filter1_f_167_7)">
<path d="M364.877 245C364.877 347.105 282.105 429.877 180 429.877C77.895 429.877 -4.87697 347.105 -4.87696 245C-4.87695 142.895 77.8951 60.123 180 60.123C282.105 60.123 364.877 142.895 364.877 245Z" stroke="url(#paint1_linear_167_7)" stroke-width="0.245275"/>
</g>
<g filter="url(#filter2_f_167_7)">
<circle cx="179.9" cy="244.898" r="201.984" transform="rotate(90 179.9 244.898)" stroke="url(#paint2_linear_167_7)" stroke-width="0.245275"/>
</g>
<g filter="url(#filter3_f_167_7)">
<circle cx="179.899" cy="244.899" r="238.775" transform="rotate(90 179.899 244.899)" stroke="url(#paint3_linear_167_7)" stroke-width="0.245275"/>
</g>
<g filter="url(#filter4_f_167_7)">
<circle cx="77.905" cy="359.906" r="4.90551" transform="rotate(90 77.905 359.906)" fill="#F7F7F7"/>
</g>
<g filter="url(#filter5_f_167_7)">
<circle cx="311.453" cy="324.453" r="2.45275" transform="rotate(90 311.453 324.453)" fill="#F7F7F7"/>
</g>
<g filter="url(#filter6_f_167_7)">
<circle cx="55" cy="194" r="10" fill="#F7F7F7"/>
</g>
<path d="M228.59 213.25C227.909 211.072 226.276 209.303 224.235 208.215L182.73 188.347C181.642 187.802 180.417 187.666 179.328 187.666C178.239 187.666 177.015 187.666 175.926 187.938L134.421 207.942C132.38 208.895 130.883 210.664 130.339 212.977L120.133 257.748C119.724 260.062 120.269 262.375 121.629 264.28L150.343 299.798C151.976 301.431 154.289 302.519 156.603 302.655H202.326C204.775 302.928 207.089 301.839 208.586 299.798L237.299 264.28C238.66 262.375 239.204 260.062 238.932 257.748L228.59 213.25Z" fill="#326DE6"/>
<path d="M222.191 255.979C222.055 255.979 221.919 255.979 221.919 255.843C221.919 255.707 221.647 255.707 221.375 255.707C220.831 255.571 220.286 255.571 219.742 255.571C219.47 255.571 219.198 255.571 218.926 255.435H218.789C217.293 255.299 215.66 255.027 214.163 254.618C213.754 254.482 213.346 254.074 213.21 253.666L212.121 253.394C212.666 249.447 212.394 245.365 211.577 241.418C210.625 237.472 208.992 233.662 206.814 230.26L207.631 229.443V229.307C207.631 228.899 207.767 228.355 208.039 228.082C209.264 226.994 210.488 226.177 211.849 225.361C212.121 225.225 212.394 225.089 212.666 224.953C213.21 224.68 213.618 224.408 214.163 224.136C214.299 224 214.435 224 214.571 223.864C214.707 223.728 214.571 223.728 214.571 223.592C215.796 222.639 216.068 221.006 215.115 219.781C214.707 219.237 213.89 218.829 213.21 218.829C212.53 218.829 211.849 219.101 211.305 219.509L211.169 219.645C211.033 219.781 210.897 219.918 210.761 219.918C210.352 220.326 209.944 220.734 209.672 221.142C209.536 221.414 209.264 221.55 209.128 221.687C208.175 222.775 206.95 223.864 205.726 224.68C205.453 224.816 205.181 224.953 204.909 224.953C204.773 224.953 204.501 224.953 204.365 224.816H204.229L203.14 225.497C202.051 224.408 200.827 223.32 199.738 222.231C194.703 218.285 188.443 215.835 182.047 215.155L181.911 214.066V214.202C181.503 213.93 181.367 213.522 181.231 213.113C181.231 211.617 181.231 210.12 181.503 208.487V208.351C181.503 208.078 181.639 207.806 181.639 207.534C181.775 206.99 181.775 206.445 181.911 205.901V205.085C182.047 203.724 180.959 202.363 179.598 202.227C178.781 202.091 177.965 202.499 177.285 203.179C176.74 203.724 176.468 204.404 176.468 205.085V205.765C176.468 206.309 176.604 206.854 176.74 207.398C176.876 207.67 176.876 207.942 176.876 208.214V208.351C177.148 209.847 177.148 211.344 177.148 212.977C177.012 213.386 176.876 213.794 176.468 214.066V214.338L176.332 215.427C174.835 215.563 173.338 215.835 171.705 216.107C165.309 217.468 159.458 220.87 154.967 225.633L154.151 225.089H154.015C153.878 225.089 153.742 225.225 153.47 225.225C153.198 225.225 152.926 225.089 152.654 224.953C151.429 224 150.204 222.911 149.252 221.823C149.116 221.55 148.843 221.414 148.707 221.278C148.299 220.87 148.027 220.462 147.619 220.054C147.483 219.918 147.347 219.918 147.21 219.781C147.074 219.645 147.074 219.645 147.074 219.645C146.53 219.237 145.85 218.965 145.169 218.965C144.353 218.965 143.672 219.237 143.264 219.918C142.448 221.142 142.72 222.775 143.808 223.728C143.944 223.728 143.944 223.864 143.944 223.864C143.944 223.864 144.217 224.136 144.353 224.136C144.761 224.408 145.305 224.68 145.85 224.953C146.122 225.089 146.394 225.225 146.666 225.361C148.027 226.177 149.388 226.994 150.476 228.082C150.749 228.355 151.021 228.899 150.885 229.307V229.171L151.701 229.988C151.565 230.26 151.429 230.396 151.293 230.668C147.074 237.336 145.305 245.229 146.53 252.985L145.441 253.258C145.441 253.394 145.305 253.394 145.305 253.394C145.169 253.802 144.761 254.074 144.353 254.346C142.856 254.754 141.359 255.027 139.726 255.163C139.454 255.163 139.182 255.163 138.909 255.299C138.365 255.299 137.821 255.435 137.276 255.435C137.14 255.435 137.004 255.571 136.732 255.571C136.596 255.571 136.596 255.571 136.46 255.707C134.963 255.979 134.011 257.34 134.283 258.837C134.555 260.062 135.78 260.878 137.004 260.742C137.276 260.742 137.413 260.742 137.685 260.606C137.821 260.606 137.821 260.606 137.821 260.47C137.821 260.334 138.229 260.47 138.365 260.47C138.909 260.334 139.454 260.062 139.862 259.926C140.134 259.789 140.406 259.653 140.679 259.653H140.815C142.311 259.109 143.672 258.701 145.305 258.429H145.441C145.85 258.429 146.258 258.565 146.53 258.837C146.666 258.837 146.666 258.973 146.666 258.973L147.891 258.837C149.932 265.097 153.742 270.676 159.05 274.758C160.274 275.711 161.363 276.528 162.724 277.208L162.043 278.16C162.043 278.297 162.179 278.297 162.179 278.297C162.452 278.705 162.452 279.249 162.316 279.657C161.771 281.018 160.955 282.379 160.138 283.604V283.74C160.002 284.012 159.866 284.148 159.594 284.42C159.322 284.692 159.05 285.237 158.641 285.781C158.505 285.917 158.505 286.053 158.369 286.189C158.369 286.189 158.369 286.325 158.233 286.325C157.553 287.686 158.097 289.319 159.322 290C159.594 290.136 160.002 290.272 160.274 290.272C161.363 290.272 162.316 289.591 162.86 288.639C162.86 288.639 162.86 288.503 162.996 288.503C162.996 288.367 163.132 288.231 163.268 288.094C163.404 287.55 163.676 287.142 163.812 286.598L164.085 285.781C164.493 284.284 165.173 282.923 165.854 281.563C166.126 281.154 166.534 280.882 166.942 280.746C167.078 280.746 167.078 280.746 167.078 280.61L167.623 279.521C171.433 281.018 175.379 281.699 179.462 281.699C181.911 281.699 184.361 281.426 186.81 280.746C188.307 280.474 189.804 279.93 191.165 279.521L191.709 280.474C191.845 280.474 191.845 280.474 191.845 280.61C192.253 280.746 192.662 281.018 192.934 281.426C193.614 282.787 194.295 284.148 194.703 285.645V285.781L194.975 286.598C195.111 287.142 195.247 287.686 195.519 288.094C195.656 288.231 195.656 288.367 195.792 288.503C195.792 288.503 195.792 288.639 195.928 288.639C196.472 289.591 197.425 290.272 198.513 290.272C198.922 290.272 199.194 290.136 199.602 290C200.146 289.727 200.691 289.183 200.827 288.503C200.963 287.822 200.963 287.142 200.691 286.461C200.691 286.325 200.554 286.325 200.554 286.325C200.554 286.189 200.418 286.053 200.282 285.917C200.01 285.373 199.738 284.965 199.33 284.556C199.194 284.284 199.058 284.148 198.785 283.876V283.604C197.833 282.379 197.152 281.018 196.608 279.657C196.472 279.249 196.472 278.705 196.744 278.297C196.744 278.16 196.88 278.16 196.88 278.16L196.472 277.072C203.412 272.853 208.719 266.321 211.169 258.565L212.258 258.701C212.394 258.701 212.394 258.565 212.394 258.565C212.666 258.293 213.074 258.156 213.482 258.156H213.618C215.115 258.429 216.612 258.837 217.973 259.381H218.109C218.381 259.517 218.653 259.653 218.926 259.653C219.47 259.926 219.878 260.198 220.422 260.334C220.559 260.334 220.695 260.47 220.967 260.47C221.103 260.47 221.103 260.47 221.239 260.606C221.511 260.742 221.647 260.742 221.919 260.742C223.144 260.742 224.233 259.926 224.641 258.837C224.505 257.34 223.416 256.251 222.191 255.979ZM182.864 251.761L179.19 253.53L175.515 251.761L174.563 247.814L177.148 244.548H181.231L183.816 247.814L182.864 251.761ZM205.045 242.915C205.726 245.773 205.862 248.631 205.59 251.488L192.662 247.814C191.437 247.542 190.757 246.317 191.029 245.093C191.165 244.684 191.301 244.412 191.573 244.14L201.779 234.886C203.276 237.336 204.365 240.058 205.045 242.915ZM197.697 229.851L186.538 237.744C185.585 238.289 184.225 238.152 183.544 237.2C183.272 236.928 183.136 236.656 183.136 236.247L182.32 222.503C188.307 223.183 193.614 225.769 197.697 229.851ZM173.066 222.911L175.788 222.367L175.107 235.975C175.107 237.2 174.019 238.152 172.794 238.152C172.386 238.152 172.113 238.016 171.705 237.88L160.41 229.851C163.948 226.449 168.303 224 173.066 222.911ZM156.464 234.886L166.534 243.868C167.487 244.684 167.623 246.045 166.806 246.998C166.534 247.406 166.262 247.542 165.718 247.678L152.518 251.488C152.109 245.773 153.47 239.922 156.464 234.886ZM154.151 257.884L167.623 255.571C168.711 255.571 169.8 256.251 169.936 257.34C170.072 257.748 170.072 258.293 169.8 258.701L164.629 271.22C159.866 268.09 156.056 263.328 154.151 257.884ZM185.041 274.758C183.136 275.167 181.231 275.439 179.19 275.439C176.332 275.439 173.338 274.895 170.616 274.078L177.285 261.967C177.965 261.15 179.054 260.878 180.006 261.422C180.414 261.695 180.687 261.967 181.095 262.375L187.627 274.214C186.81 274.35 185.994 274.486 185.041 274.758ZM201.643 262.919C199.602 266.185 196.744 269.043 193.478 271.084L188.171 258.293C187.899 257.204 188.443 256.115 189.396 255.707C189.804 255.571 190.212 255.435 190.621 255.435L204.229 257.748C203.548 259.653 202.732 261.422 201.643 262.919Z" fill="#F5F5F5"/>
<defs>
<filter id="filter0_f_167_7" x="25.5094" y="90.5094" width="308.981" height="308.981" filterUnits="userSpaceOnUse" color-interpolation-filters="sRGB">
<feFlood flood-opacity="0" result="BackgroundImageFix"/>
<feBlend mode="normal" in="SourceGraphic" in2="BackgroundImageFix" result="shape"/>
<feGaussianBlur stdDeviation="0.245275" result="effect1_foregroundBlur_167_7"/>
</filter>
<filter id="filter1_f_167_7" x="-6.47165" y="58.5283" width="372.943" height="372.943" filterUnits="userSpaceOnUse" color-interpolation-filters="sRGB">
<feFlood flood-opacity="0" result="BackgroundImageFix"/>
<feBlend mode="normal" in="SourceGraphic" in2="BackgroundImageFix" result="shape"/>
<feGaussianBlur stdDeviation="0.735826" result="effect1_foregroundBlur_167_7"/>
</filter>
<filter id="filter2_f_167_7" x="-25.6409" y="39.3578" width="411.082" height="411.081" filterUnits="userSpaceOnUse" color-interpolation-filters="sRGB">
<feFlood flood-opacity="0" result="BackgroundImageFix"/>
<feBlend mode="normal" in="SourceGraphic" in2="BackgroundImageFix" result="shape"/>
<feGaussianBlur stdDeviation="1.71693" result="effect1_foregroundBlur_167_7"/>
</filter>
<filter id="filter3_f_167_7" x="-64.3951" y="0.604371" width="488.588" height="488.588" filterUnits="userSpaceOnUse" color-interpolation-filters="sRGB">
<feFlood flood-opacity="0" result="BackgroundImageFix"/>
<feBlend mode="normal" in="SourceGraphic" in2="BackgroundImageFix" result="shape"/>
<feGaussianBlur stdDeviation="2.69803" result="effect1_foregroundBlur_167_7"/>
</filter>
<filter id="filter4_f_167_7" x="64.1701" y="346.17" width="27.4704" height="27.4709" filterUnits="userSpaceOnUse" color-interpolation-filters="sRGB">
<feFlood flood-opacity="0" result="BackgroundImageFix"/>
<feBlend mode="normal" in="SourceGraphic" in2="BackgroundImageFix" result="shape"/>
<feGaussianBlur stdDeviation="4.41495" result="effect1_foregroundBlur_167_7"/>
</filter>
<filter id="filter5_f_167_7" x="308.019" y="321.019" width="6.86748" height="6.86772" filterUnits="userSpaceOnUse" color-interpolation-filters="sRGB">
<feFlood flood-opacity="0" result="BackgroundImageFix"/>
<feBlend mode="normal" in="SourceGraphic" in2="BackgroundImageFix" result="shape"/>
<feGaussianBlur stdDeviation="0.490551" result="effect1_foregroundBlur_167_7"/>
</filter>
<filter id="filter6_f_167_7" x="27" y="166" width="56" height="56" filterUnits="userSpaceOnUse" color-interpolation-filters="sRGB">
<feFlood flood-opacity="0" result="BackgroundImageFix"/>
<feBlend mode="normal" in="SourceGraphic" in2="BackgroundImageFix" result="shape"/>
<feGaussianBlur stdDeviation="9" result="effect1_foregroundBlur_167_7"/>
</filter>
<linearGradient id="paint0_linear_167_7" x1="180" y1="91" x2="61.8139" y2="353.785" gradientUnits="userSpaceOnUse">
<stop stop-color="#F5F5F5"/>
<stop offset="1" stop-color="#7994FF" stop-opacity="0.29"/>
</linearGradient>
<linearGradient id="paint1_linear_167_7" x1="365" y1="245" x2="49.3169" y2="103.023" gradientUnits="userSpaceOnUse">
<stop stop-color="#F5F5F5"/>
<stop offset="1" stop-color="#7994FF" stop-opacity="0.29"/>
</linearGradient>
<linearGradient id="paint2_linear_167_7" x1="179.9" y1="42.7916" x2="24.7947" y2="387.666" gradientUnits="userSpaceOnUse">
<stop stop-color="#F5F5F5"/>
<stop offset="1" stop-color="#7994FF" stop-opacity="0.16"/>
</linearGradient>
<linearGradient id="paint3_linear_167_7" x1="179.899" y1="6.00041" x2="-3.44165" y2="413.655" gradientUnits="userSpaceOnUse">
<stop stop-color="#F5F5F5"/>
<stop offset="1" stop-color="#7994FF" stop-opacity="0.1"/>
</linearGradient>
</defs>
</svg>
