<svg width="996" height="606" viewBox="0 0 996 606" fill="none" xmlns="http://www.w3.org/2000/svg">
<g filter="url(#filter0_f_154_8)">
<circle cx="498" cy="303" r="272.75" stroke="url(#paint0_linear_154_8)" stroke-width="0.5"/>
</g>
<g filter="url(#filter1_f_154_8)">
<circle cx="875" cy="189" r="10" fill="#F7F7F7"/>
</g>
<g filter="url(#filter2_f_154_8)">
<circle cx="498" cy="303" r="391.75" stroke="url(#paint1_linear_154_8)" stroke-width="0.5"/>
</g>
<g filter="url(#filter3_f_154_8)">
<circle cx="498" cy="303" r="486.75" stroke="url(#paint2_linear_154_8)" stroke-width="0.5"/>
</g>
<g filter="url(#filter4_f_154_8)">
<circle cx="592" cy="48" r="5" fill="#F7F7F7"/>
<circle cx="592" cy="48" r="3.54449" stroke="#F5F5F5" stroke-width="2.91101"/>
</g>
<circle cx="498" cy="303" r="217" fill="#F5F5F5"/>
<path d="M594.723 240.352C593.384 236.067 590.17 232.585 586.152 230.443L504.463 191.339C502.321 190.268 499.91 190 497.768 190C495.625 190 493.215 190 491.072 190.536L409.383 229.907C405.366 231.782 402.42 235.264 401.348 239.817L381.261 327.933C380.457 332.486 381.529 337.04 384.207 340.789L440.72 410.693C443.934 413.907 448.487 416.05 453.04 416.318H543.031C547.852 416.853 552.405 414.711 555.351 410.693L611.864 340.789C614.542 337.04 615.614 332.486 615.078 327.933L594.723 240.352Z" fill="#326DE6"/>
<path d="M582.129 324.451C581.861 324.451 581.593 324.451 581.593 324.183C581.593 323.915 581.058 323.915 580.522 323.915C579.451 323.648 578.379 323.648 577.308 323.648C576.772 323.648 576.237 323.648 575.701 323.38H575.433C572.487 323.112 569.273 322.576 566.327 321.773C565.523 321.505 564.72 320.701 564.452 319.898L562.309 319.362C563.381 311.595 562.845 303.56 561.238 295.793C559.363 288.026 556.149 280.527 551.864 273.831L553.471 272.224V271.956C553.471 271.153 553.739 270.081 554.274 269.546C556.685 267.403 559.095 265.796 561.774 264.189C562.309 263.921 562.845 263.653 563.381 263.386C564.452 262.85 565.256 262.314 566.327 261.779C566.595 261.511 566.863 261.511 567.13 261.243C567.398 260.975 567.13 260.975 567.13 260.707C569.541 258.832 570.077 255.618 568.202 253.208C567.398 252.137 565.791 251.333 564.452 251.333C563.113 251.333 561.774 251.869 560.702 252.672L560.435 252.94C560.167 253.208 559.899 253.476 559.631 253.476C558.828 254.279 558.024 255.083 557.488 255.886C557.221 256.422 556.685 256.69 556.417 256.958C554.542 259.1 552.132 261.243 549.721 262.85C549.186 263.118 548.65 263.386 548.114 263.386C547.846 263.386 547.311 263.386 547.043 263.118H546.775L544.633 264.457C542.49 262.314 540.079 260.172 537.937 258.029C528.027 250.262 515.707 245.441 503.119 244.102L502.851 241.959V242.227C502.047 241.691 501.779 240.888 501.512 240.084C501.512 237.138 501.512 234.192 502.047 230.978V230.71C502.047 230.174 502.315 229.639 502.315 229.103C502.583 228.032 502.583 226.96 502.851 225.889V224.282C503.119 221.604 500.976 218.926 498.298 218.658C496.691 218.39 495.084 219.193 493.745 220.533C492.673 221.604 492.138 222.943 492.138 224.282V225.621C492.138 226.693 492.405 227.764 492.673 228.835C492.941 229.371 492.941 229.907 492.941 230.442V230.71C493.477 233.656 493.477 236.602 493.477 239.816C493.209 240.62 492.941 241.423 492.138 241.959V242.495L491.87 244.637C488.924 244.905 485.977 245.441 482.763 245.977C470.175 248.655 458.659 255.351 449.82 264.725L448.213 263.653H447.945C447.678 263.653 447.41 263.921 446.874 263.921C446.338 263.921 445.803 263.653 445.267 263.386C442.857 261.511 440.446 259.368 438.571 257.225C438.303 256.69 437.768 256.422 437.5 256.154C436.696 255.351 436.161 254.547 435.357 253.744C435.089 253.476 434.822 253.476 434.554 253.208C434.286 252.94 434.286 252.94 434.286 252.94C433.215 252.137 431.875 251.601 430.536 251.601C428.929 251.601 427.59 252.137 426.787 253.476C425.18 255.886 425.715 259.1 427.858 260.975C428.126 260.975 428.126 261.243 428.126 261.243C428.126 261.243 428.661 261.779 428.929 261.779C429.733 262.314 430.804 262.85 431.875 263.386C432.411 263.653 432.947 263.921 433.482 264.189C436.161 265.796 438.839 267.403 440.982 269.546C441.517 270.081 442.053 271.153 441.785 271.956V271.688L443.392 273.295C443.124 273.831 442.857 274.099 442.589 274.634C434.286 287.758 430.804 303.292 433.215 318.559L431.072 319.095C431.072 319.362 430.804 319.362 430.804 319.362C430.536 320.166 429.733 320.701 428.929 321.237C425.983 322.041 423.037 322.576 419.823 322.844C419.287 322.844 418.752 322.844 418.216 323.112C417.145 323.112 416.073 323.38 415.002 323.38C414.734 323.38 414.466 323.648 413.931 323.648C413.663 323.648 413.663 323.648 413.395 323.915C410.449 324.451 408.574 327.129 409.11 330.076C409.645 332.486 412.056 334.093 414.466 333.825C415.002 333.825 415.27 333.825 415.806 333.557C416.073 333.557 416.073 333.557 416.073 333.29C416.073 333.022 416.877 333.29 417.145 333.29C418.216 333.022 419.287 332.486 420.091 332.218C420.627 331.95 421.162 331.683 421.698 331.683H421.966C424.912 330.611 427.59 329.808 430.804 329.272H431.072C431.875 329.272 432.679 329.54 433.215 330.076C433.482 330.076 433.482 330.343 433.482 330.343L435.893 330.076C439.91 342.396 447.41 353.377 457.855 361.412C460.266 363.287 462.408 364.894 465.087 366.233L463.747 368.108C463.747 368.376 464.015 368.376 464.015 368.376C464.551 369.179 464.551 370.25 464.283 371.054C463.212 373.732 461.605 376.41 459.998 378.821V379.089C459.73 379.624 459.462 379.892 458.926 380.428C458.391 380.964 457.855 382.035 457.052 383.106C456.784 383.374 456.784 383.642 456.516 383.91C456.516 383.91 456.516 384.178 456.248 384.178C454.909 386.856 455.98 390.07 458.391 391.409C458.926 391.677 459.73 391.945 460.266 391.945C462.408 391.945 464.283 390.606 465.354 388.731C465.354 388.731 465.354 388.463 465.622 388.463C465.622 388.195 465.89 387.927 466.158 387.659C466.426 386.588 466.961 385.785 467.229 384.713L467.765 383.106C468.568 380.16 469.908 377.482 471.247 374.803C471.782 374 472.586 373.464 473.389 373.196C473.657 373.196 473.657 373.196 473.657 372.929L474.728 370.786C482.228 373.732 489.995 375.071 498.03 375.071C502.851 375.071 507.672 374.536 512.493 373.196C515.439 372.661 518.385 371.589 521.063 370.786L522.135 372.661C522.402 372.661 522.402 372.661 522.402 372.929C523.206 373.196 524.009 373.732 524.545 374.536C525.884 377.214 527.223 379.892 528.027 382.838V383.106L528.563 384.713C528.83 385.785 529.098 386.856 529.634 387.659C529.902 387.927 529.902 388.195 530.17 388.463C530.17 388.463 530.17 388.731 530.437 388.731C531.509 390.606 533.384 391.945 535.526 391.945C536.33 391.945 536.865 391.677 537.669 391.409C538.74 390.873 539.812 389.802 540.079 388.463C540.347 387.124 540.347 385.785 539.812 384.445C539.812 384.178 539.544 384.178 539.544 384.178C539.544 383.91 539.276 383.642 539.008 383.374C538.472 382.303 537.937 381.499 537.133 380.696C536.865 380.16 536.598 379.892 536.062 379.357V378.821C534.187 376.41 532.848 373.732 531.777 371.054C531.509 370.25 531.509 369.179 532.044 368.376C532.044 368.108 532.312 368.108 532.312 368.108L531.509 365.965C545.168 357.662 555.614 344.806 560.435 329.54L562.577 329.808C562.845 329.808 562.845 329.54 562.845 329.54C563.381 329.004 564.184 328.736 564.988 328.736H565.256C568.202 329.272 571.148 330.076 573.826 331.147H574.094C574.63 331.415 575.165 331.683 575.701 331.683C576.772 332.218 577.576 332.754 578.647 333.022C578.915 333.022 579.183 333.29 579.718 333.29C579.986 333.29 579.986 333.29 580.254 333.557C580.79 333.825 581.058 333.825 581.593 333.825C584.004 333.825 586.146 332.218 586.95 330.076C586.682 327.129 584.539 324.987 582.129 324.451ZM504.726 316.148L497.494 319.63L490.263 316.148L488.388 308.381L493.477 301.953H501.512L506.6 308.381L504.726 316.148ZM548.382 298.739C549.721 304.364 549.989 309.988 549.453 315.613L524.009 308.381C521.599 307.846 520.26 305.435 520.796 303.025C521.063 302.221 521.331 301.685 521.867 301.15L541.954 282.937C544.9 287.758 547.043 293.115 548.382 298.739ZM533.919 273.027L511.957 288.562C510.082 289.633 507.404 289.365 506.065 287.49C505.529 286.955 505.261 286.419 505.261 285.616L503.654 258.565C515.439 259.904 525.884 264.993 533.919 273.027ZM485.442 259.368L490.798 258.297L489.459 285.08C489.459 287.49 487.317 289.365 484.906 289.365C484.103 289.365 483.567 289.097 482.763 288.83L460.533 273.027C467.497 266.332 476.068 261.511 485.442 259.368ZM452.766 282.937L472.586 300.614C474.461 302.221 474.728 304.899 473.121 306.774C472.586 307.578 472.05 307.846 470.979 308.113L444.999 315.613C444.196 304.364 446.874 292.847 452.766 282.937ZM448.213 328.201L474.728 323.648C476.871 323.648 479.014 324.987 479.282 327.129C479.549 327.933 479.549 329.004 479.014 329.808L468.836 354.448C459.462 348.288 451.963 338.914 448.213 328.201ZM509.011 361.412C505.261 362.215 501.512 362.751 497.494 362.751C491.87 362.751 485.977 361.68 480.621 360.073L493.745 336.236C495.084 334.629 497.226 334.093 499.101 335.164C499.905 335.7 500.44 336.236 501.244 337.039L514.1 360.341C512.493 360.608 510.886 360.876 509.011 361.412ZM541.686 338.111C537.669 344.538 532.044 350.163 525.616 354.18L515.171 329.004C514.635 326.862 515.707 324.719 517.582 323.915C518.385 323.648 519.189 323.38 519.992 323.38L546.775 327.933C545.436 331.683 543.829 335.164 541.686 338.111Z" fill="#F5F5F5"/>
<defs>
<filter id="filter0_f_154_8" x="222" y="27" width="552" height="552" filterUnits="userSpaceOnUse" color-interpolation-filters="sRGB">
<feFlood flood-opacity="0" result="BackgroundImageFix"/>
<feBlend mode="normal" in="SourceGraphic" in2="BackgroundImageFix" result="shape"/>
<feGaussianBlur stdDeviation="1.5" result="effect1_foregroundBlur_154_8"/>
</filter>
<filter id="filter1_f_154_8" x="851" y="165" width="48" height="48" filterUnits="userSpaceOnUse" color-interpolation-filters="sRGB">
<feFlood flood-opacity="0" result="BackgroundImageFix"/>
<feBlend mode="normal" in="SourceGraphic" in2="BackgroundImageFix" result="shape"/>
<feGaussianBlur stdDeviation="7" result="effect1_foregroundBlur_154_8"/>
</filter>
<filter id="filter2_f_154_8" x="99" y="-96" width="798" height="798" filterUnits="userSpaceOnUse" color-interpolation-filters="sRGB">
<feFlood flood-opacity="0" result="BackgroundImageFix"/>
<feBlend mode="normal" in="SourceGraphic" in2="BackgroundImageFix" result="shape"/>
<feGaussianBlur stdDeviation="3.5" result="effect1_foregroundBlur_154_8"/>
</filter>
<filter id="filter3_f_154_8" x="0" y="-195" width="996" height="996" filterUnits="userSpaceOnUse" color-interpolation-filters="sRGB">
<feFlood flood-opacity="0" result="BackgroundImageFix"/>
<feBlend mode="normal" in="SourceGraphic" in2="BackgroundImageFix" result="shape"/>
<feGaussianBlur stdDeviation="5.5" result="effect1_foregroundBlur_154_8"/>
</filter>
<filter id="filter4_f_154_8" x="583" y="39" width="18" height="18" filterUnits="userSpaceOnUse" color-interpolation-filters="sRGB">
<feFlood flood-opacity="0" result="BackgroundImageFix"/>
<feBlend mode="normal" in="SourceGraphic" in2="BackgroundImageFix" result="shape"/>
<feGaussianBlur stdDeviation="2" result="effect1_foregroundBlur_154_8"/>
</filter>
<linearGradient id="paint0_linear_154_8" x1="498" y1="30" x2="288.488" y2="495.846" gradientUnits="userSpaceOnUse">
<stop stop-color="#F5F5F5"/>
<stop offset="1" stop-color="#7994FF" stop-opacity="0.29"/>
</linearGradient>
<linearGradient id="paint1_linear_154_8" x1="498" y1="-89" x2="197.163" y2="579.907" gradientUnits="userSpaceOnUse">
<stop stop-color="#F5F5F5"/>
<stop offset="1" stop-color="#7994FF" stop-opacity="0.16"/>
</linearGradient>
<linearGradient id="paint2_linear_154_8" x1="498" y1="-184" x2="124.256" y2="647.015" gradientUnits="userSpaceOnUse">
<stop stop-color="#F5F5F5"/>
<stop offset="1" stop-color="#7994FF" stop-opacity="0.1"/>
</linearGradient>
</defs>
</svg>
