<svg width="1101" height="606" viewBox="0 0 1101 606" fill="none" xmlns="http://www.w3.org/2000/svg">
<g filter="url(#filter0_f_154_11)">
<circle cx="514" cy="71" r="414" fill="url(#paint0_radial_154_11)"/>
</g>
<g filter="url(#filter1_f_154_11)">
<circle cx="603" cy="303" r="272.75" stroke="url(#paint1_linear_154_11)" stroke-width="0.5"/>
</g>
<g filter="url(#filter2_f_154_11)">
<circle cx="980" cy="189" r="10" fill="#F7F7F7"/>
</g>
<g filter="url(#filter3_f_154_11)">
<circle cx="603" cy="303" r="391.75" stroke="url(#paint2_linear_154_11)" stroke-width="0.5"/>
</g>
<g filter="url(#filter4_f_154_11)">
<circle cx="603" cy="303" r="486.75" stroke="url(#paint3_linear_154_11)" stroke-width="0.5"/>
</g>
<g filter="url(#filter5_f_154_11)">
<circle cx="697" cy="48" r="5" fill="#F7F7F7"/>
<circle cx="697" cy="48" r="3.54449" stroke="#F5F5F5" stroke-width="2.91101"/>
</g>
<circle cx="603" cy="303" r="217" fill="#F5F5F5"/>
<path d="M699.723 240.352C698.384 236.067 695.17 232.585 691.152 230.443L609.463 191.339C607.321 190.268 604.91 190 602.768 190C600.625 190 598.215 190 596.072 190.536L514.383 229.907C510.366 231.782 507.42 235.264 506.348 239.817L486.261 327.933C485.457 332.486 486.529 337.04 489.207 340.789L545.72 410.693C548.934 413.907 553.487 416.05 558.04 416.318H648.031C652.852 416.853 657.405 414.711 660.351 410.693L716.864 340.789C719.542 337.04 720.614 332.486 720.078 327.933L699.723 240.352Z" fill="#326DE6"/>
<path d="M687.129 324.451C686.861 324.451 686.593 324.451 686.593 324.183C686.593 323.915 686.058 323.915 685.522 323.915C684.451 323.648 683.379 323.648 682.308 323.648C681.772 323.648 681.237 323.648 680.701 323.38H680.433C677.487 323.112 674.273 322.576 671.327 321.773C670.523 321.505 669.72 320.701 669.452 319.898L667.309 319.362C668.381 311.595 667.845 303.56 666.238 295.793C664.363 288.026 661.149 280.527 656.864 273.831L658.471 272.224V271.956C658.471 271.153 658.739 270.081 659.274 269.546C661.685 267.403 664.095 265.796 666.774 264.189C667.309 263.921 667.845 263.653 668.381 263.386C669.452 262.85 670.256 262.314 671.327 261.779C671.595 261.511 671.863 261.511 672.13 261.243C672.398 260.975 672.13 260.975 672.13 260.707C674.541 258.832 675.077 255.618 673.202 253.208C672.398 252.137 670.791 251.333 669.452 251.333C668.113 251.333 666.774 251.869 665.702 252.672L665.435 252.94C665.167 253.208 664.899 253.476 664.631 253.476C663.828 254.279 663.024 255.083 662.488 255.886C662.221 256.422 661.685 256.69 661.417 256.958C659.542 259.1 657.132 261.243 654.721 262.85C654.186 263.118 653.65 263.386 653.114 263.386C652.846 263.386 652.311 263.386 652.043 263.118H651.775L649.633 264.457C647.49 262.314 645.079 260.172 642.937 258.029C633.027 250.262 620.707 245.441 608.119 244.102L607.851 241.959V242.227C607.047 241.691 606.779 240.888 606.512 240.084C606.512 237.138 606.512 234.192 607.047 230.978V230.71C607.047 230.174 607.315 229.639 607.315 229.103C607.583 228.032 607.583 226.96 607.851 225.889V224.282C608.119 221.604 605.976 218.926 603.298 218.658C601.691 218.39 600.084 219.193 598.745 220.533C597.673 221.604 597.138 222.943 597.138 224.282V225.621C597.138 226.693 597.405 227.764 597.673 228.835C597.941 229.371 597.941 229.907 597.941 230.442V230.71C598.477 233.656 598.477 236.602 598.477 239.816C598.209 240.62 597.941 241.423 597.138 241.959V242.495L596.87 244.637C593.924 244.905 590.977 245.441 587.763 245.977C575.175 248.655 563.659 255.351 554.82 264.725L553.213 263.653H552.945C552.678 263.653 552.41 263.921 551.874 263.921C551.338 263.921 550.803 263.653 550.267 263.386C547.857 261.511 545.446 259.368 543.571 257.225C543.303 256.69 542.768 256.422 542.5 256.154C541.696 255.351 541.161 254.547 540.357 253.744C540.089 253.476 539.822 253.476 539.554 253.208C539.286 252.94 539.286 252.94 539.286 252.94C538.215 252.137 536.875 251.601 535.536 251.601C533.929 251.601 532.59 252.137 531.787 253.476C530.18 255.886 530.715 259.1 532.858 260.975C533.126 260.975 533.126 261.243 533.126 261.243C533.126 261.243 533.661 261.779 533.929 261.779C534.733 262.314 535.804 262.85 536.875 263.386C537.411 263.653 537.947 263.921 538.482 264.189C541.161 265.796 543.839 267.403 545.982 269.546C546.517 270.081 547.053 271.153 546.785 271.956V271.688L548.392 273.295C548.124 273.831 547.857 274.099 547.589 274.634C539.286 287.758 535.804 303.292 538.215 318.559L536.072 319.095C536.072 319.362 535.804 319.362 535.804 319.362C535.536 320.166 534.733 320.701 533.929 321.237C530.983 322.041 528.037 322.576 524.823 322.844C524.287 322.844 523.752 322.844 523.216 323.112C522.145 323.112 521.073 323.38 520.002 323.38C519.734 323.38 519.466 323.648 518.931 323.648C518.663 323.648 518.663 323.648 518.395 323.915C515.449 324.451 513.574 327.129 514.11 330.076C514.645 332.486 517.056 334.093 519.466 333.825C520.002 333.825 520.27 333.825 520.806 333.557C521.073 333.557 521.073 333.557 521.073 333.29C521.073 333.022 521.877 333.29 522.145 333.29C523.216 333.022 524.287 332.486 525.091 332.218C525.627 331.95 526.162 331.683 526.698 331.683H526.966C529.912 330.611 532.59 329.808 535.804 329.272H536.072C536.875 329.272 537.679 329.54 538.215 330.076C538.482 330.076 538.482 330.343 538.482 330.343L540.893 330.076C544.91 342.396 552.41 353.377 562.855 361.412C565.266 363.287 567.408 364.894 570.087 366.233L568.747 368.108C568.747 368.376 569.015 368.376 569.015 368.376C569.551 369.179 569.551 370.25 569.283 371.054C568.212 373.732 566.605 376.41 564.998 378.821V379.089C564.73 379.624 564.462 379.892 563.926 380.428C563.391 380.964 562.855 382.035 562.052 383.106C561.784 383.374 561.784 383.642 561.516 383.91C561.516 383.91 561.516 384.178 561.248 384.178C559.909 386.856 560.98 390.07 563.391 391.409C563.926 391.677 564.73 391.945 565.266 391.945C567.408 391.945 569.283 390.606 570.354 388.731C570.354 388.731 570.354 388.463 570.622 388.463C570.622 388.195 570.89 387.927 571.158 387.659C571.426 386.588 571.961 385.785 572.229 384.713L572.765 383.106C573.568 380.16 574.908 377.482 576.247 374.803C576.782 374 577.586 373.464 578.389 373.196C578.657 373.196 578.657 373.196 578.657 372.929L579.728 370.786C587.228 373.732 594.995 375.071 603.03 375.071C607.851 375.071 612.672 374.536 617.493 373.196C620.439 372.661 623.385 371.589 626.063 370.786L627.135 372.661C627.402 372.661 627.402 372.661 627.402 372.929C628.206 373.196 629.009 373.732 629.545 374.536C630.884 377.214 632.223 379.892 633.027 382.838V383.106L633.563 384.713C633.83 385.785 634.098 386.856 634.634 387.659C634.902 387.927 634.902 388.195 635.17 388.463C635.17 388.463 635.17 388.731 635.437 388.731C636.509 390.606 638.384 391.945 640.526 391.945C641.33 391.945 641.865 391.677 642.669 391.409C643.74 390.873 644.812 389.802 645.079 388.463C645.347 387.124 645.347 385.785 644.812 384.445C644.812 384.178 644.544 384.178 644.544 384.178C644.544 383.91 644.276 383.642 644.008 383.374C643.472 382.303 642.937 381.499 642.133 380.696C641.865 380.16 641.598 379.892 641.062 379.357V378.821C639.187 376.41 637.848 373.732 636.777 371.054C636.509 370.25 636.509 369.179 637.044 368.376C637.044 368.108 637.312 368.108 637.312 368.108L636.509 365.965C650.168 357.662 660.614 344.806 665.435 329.54L667.577 329.808C667.845 329.808 667.845 329.54 667.845 329.54C668.381 329.004 669.184 328.736 669.988 328.736H670.256C673.202 329.272 676.148 330.076 678.826 331.147H679.094C679.63 331.415 680.165 331.683 680.701 331.683C681.772 332.218 682.576 332.754 683.647 333.022C683.915 333.022 684.183 333.29 684.718 333.29C684.986 333.29 684.986 333.29 685.254 333.557C685.79 333.825 686.058 333.825 686.593 333.825C689.004 333.825 691.146 332.218 691.95 330.076C691.682 327.129 689.539 324.987 687.129 324.451ZM609.726 316.148L602.494 319.63L595.263 316.148L593.388 308.381L598.477 301.953H606.512L611.6 308.381L609.726 316.148ZM653.382 298.739C654.721 304.364 654.989 309.988 654.453 315.613L629.009 308.381C626.599 307.846 625.26 305.435 625.796 303.025C626.063 302.221 626.331 301.685 626.867 301.15L646.954 282.937C649.9 287.758 652.043 293.115 653.382 298.739ZM638.919 273.027L616.957 288.562C615.082 289.633 612.404 289.365 611.065 287.49C610.529 286.955 610.261 286.419 610.261 285.616L608.654 258.565C620.439 259.904 630.884 264.993 638.919 273.027ZM590.442 259.368L595.798 258.297L594.459 285.08C594.459 287.49 592.317 289.365 589.906 289.365C589.103 289.365 588.567 289.097 587.763 288.83L565.533 273.027C572.497 266.332 581.068 261.511 590.442 259.368ZM557.766 282.937L577.586 300.614C579.461 302.221 579.728 304.899 578.121 306.774C577.586 307.578 577.05 307.846 575.979 308.113L549.999 315.613C549.196 304.364 551.874 292.847 557.766 282.937ZM553.213 328.201L579.728 323.648C581.871 323.648 584.014 324.987 584.282 327.129C584.549 327.933 584.549 329.004 584.014 329.808L573.836 354.448C564.462 348.288 556.963 338.914 553.213 328.201ZM614.011 361.412C610.261 362.215 606.512 362.751 602.494 362.751C596.87 362.751 590.977 361.68 585.621 360.073L598.745 336.236C600.084 334.629 602.226 334.093 604.101 335.164C604.905 335.7 605.44 336.236 606.244 337.039L619.1 360.341C617.493 360.608 615.886 360.876 614.011 361.412ZM646.686 338.111C642.669 344.538 637.044 350.163 630.616 354.18L620.171 329.004C619.635 326.862 620.707 324.719 622.582 323.915C623.385 323.648 624.189 323.38 624.992 323.38L651.775 327.933C650.436 331.683 648.829 335.164 646.686 338.111Z" fill="#F5F5F5"/>
<defs>
<filter id="filter0_f_154_11" x="0" y="-443" width="1028" height="1028" filterUnits="userSpaceOnUse" color-interpolation-filters="sRGB">
<feFlood flood-opacity="0" result="BackgroundImageFix"/>
<feBlend mode="normal" in="SourceGraphic" in2="BackgroundImageFix" result="shape"/>
<feGaussianBlur stdDeviation="50" result="effect1_foregroundBlur_154_11"/>
</filter>
<filter id="filter1_f_154_11" x="327" y="27" width="552" height="552" filterUnits="userSpaceOnUse" color-interpolation-filters="sRGB">
<feFlood flood-opacity="0" result="BackgroundImageFix"/>
<feBlend mode="normal" in="SourceGraphic" in2="BackgroundImageFix" result="shape"/>
<feGaussianBlur stdDeviation="1.5" result="effect1_foregroundBlur_154_11"/>
</filter>
<filter id="filter2_f_154_11" x="956" y="165" width="48" height="48" filterUnits="userSpaceOnUse" color-interpolation-filters="sRGB">
<feFlood flood-opacity="0" result="BackgroundImageFix"/>
<feBlend mode="normal" in="SourceGraphic" in2="BackgroundImageFix" result="shape"/>
<feGaussianBlur stdDeviation="7" result="effect1_foregroundBlur_154_11"/>
</filter>
<filter id="filter3_f_154_11" x="204" y="-96" width="798" height="798" filterUnits="userSpaceOnUse" color-interpolation-filters="sRGB">
<feFlood flood-opacity="0" result="BackgroundImageFix"/>
<feBlend mode="normal" in="SourceGraphic" in2="BackgroundImageFix" result="shape"/>
<feGaussianBlur stdDeviation="3.5" result="effect1_foregroundBlur_154_11"/>
</filter>
<filter id="filter4_f_154_11" x="105" y="-195" width="996" height="996" filterUnits="userSpaceOnUse" color-interpolation-filters="sRGB">
<feFlood flood-opacity="0" result="BackgroundImageFix"/>
<feBlend mode="normal" in="SourceGraphic" in2="BackgroundImageFix" result="shape"/>
<feGaussianBlur stdDeviation="5.5" result="effect1_foregroundBlur_154_11"/>
</filter>
<filter id="filter5_f_154_11" x="688" y="39" width="18" height="18" filterUnits="userSpaceOnUse" color-interpolation-filters="sRGB">
<feFlood flood-opacity="0" result="BackgroundImageFix"/>
<feBlend mode="normal" in="SourceGraphic" in2="BackgroundImageFix" result="shape"/>
<feGaussianBlur stdDeviation="2" result="effect1_foregroundBlur_154_11"/>
</filter>
<radialGradient id="paint0_radial_154_11" cx="0" cy="0" r="1" gradientUnits="userSpaceOnUse" gradientTransform="translate(514 129.289) rotate(-90) scale(403.538)">
<stop offset="0.331731" stop-color="#326DE6"/>
<stop offset="1" stop-color="#F5F5F5" stop-opacity="0"/>
</radialGradient>
<linearGradient id="paint1_linear_154_11" x1="603" y1="30" x2="393.488" y2="495.846" gradientUnits="userSpaceOnUse">
<stop stop-color="#F5F5F5"/>
<stop offset="1" stop-color="#7994FF" stop-opacity="0.29"/>
</linearGradient>
<linearGradient id="paint2_linear_154_11" x1="603" y1="-89" x2="302.163" y2="579.907" gradientUnits="userSpaceOnUse">
<stop stop-color="#F5F5F5"/>
<stop offset="1" stop-color="#7994FF" stop-opacity="0.16"/>
</linearGradient>
<linearGradient id="paint3_linear_154_11" x1="603" y1="-184" x2="229.256" y2="647.015" gradientUnits="userSpaceOnUse">
<stop stop-color="#F5F5F5"/>
<stop offset="1" stop-color="#7994FF" stop-opacity="0.1"/>
</linearGradient>
</defs>
</svg>
