<svg width="530" height="384" viewBox="0 0 530 384" fill="none" xmlns="http://www.w3.org/2000/svg">
<g clip-path="url(#clip0_150_2063)">
<rect width="530" height="384" fill="#F5F5F5"/>
<g opacity="0.17" filter="url(#filter0_f_150_2063)">
<circle cx="253" cy="285" r="264" fill="url(#paint0_radial_150_2063)"/>
</g>
<g filter="url(#filter1_f_150_2063)">
<circle cx="455" cy="179" r="342" fill="url(#paint1_radial_150_2063)"/>
</g>
<circle cx="264.546" cy="192.546" r="158.546" fill="#F5F5F5"/>
<g filter="url(#filter2_f_150_2063)">
<circle cx="264.5" cy="192.5" r="237.317" stroke="#F5F5F5" stroke-width="0.365314"/>
<circle cx="264.5" cy="192.5" r="237.317" stroke="url(#paint2_linear_150_2063)" stroke-width="0.365314"/>
</g>
<g filter="url(#filter3_f_150_2063)">
<circle cx="264.5" cy="192.5" r="275.317" stroke="url(#paint3_linear_150_2063)" stroke-width="0.365314"/>
</g>
<g filter="url(#filter4_f_150_2063)">
<circle cx="264.473" cy="192.713" r="355.633" stroke="url(#paint4_linear_150_2063)" stroke-width="0.365314"/>
</g>
<g filter="url(#filter5_f_150_2063)">
<circle cx="458.306" cy="54.3063" r="7.30629" fill="#F7F7F7"/>
</g>
<g filter="url(#filter6_f_150_2063)">
<circle cx="483.653" cy="281.653" r="3.65314" fill="#F7F7F7"/>
</g>
<path d="M337.534 145.576C336.523 142.341 334.097 139.713 331.065 138.095L269.403 108.579C267.786 107.77 265.966 107.568 264.349 107.568C262.731 107.568 260.912 107.568 259.295 107.972L197.633 137.691C194.6 139.106 192.376 141.735 191.568 145.171L176.405 211.685C175.798 215.122 176.607 218.559 178.629 221.389L221.287 274.156C223.713 276.582 227.15 278.199 230.586 278.401H298.515C302.154 278.806 305.591 277.188 307.815 274.156L350.473 221.389C352.495 218.559 353.303 215.122 352.899 211.685L337.534 145.576Z" fill="#326DE6"/>
<path d="M328.029 209.057C327.827 209.057 327.625 209.057 327.625 208.855C327.625 208.652 327.22 208.652 326.816 208.652C326.007 208.45 325.198 208.45 324.39 208.45C323.985 208.45 323.581 208.45 323.177 208.248H322.975C320.751 208.046 318.325 207.642 316.101 207.035C315.494 206.833 314.888 206.226 314.686 205.62L313.068 205.216C313.877 199.353 313.473 193.288 312.26 187.425C310.844 181.562 308.418 175.901 305.184 170.847L306.397 169.634V169.432C306.397 168.825 306.599 168.016 307.003 167.612C308.823 165.995 310.642 164.782 312.664 163.569C313.068 163.366 313.473 163.164 313.877 162.962C314.686 162.558 315.292 162.153 316.101 161.749C316.303 161.547 316.505 161.547 316.707 161.345C316.91 161.143 316.707 161.143 316.707 160.94C318.527 159.525 318.931 157.099 317.516 155.28C316.91 154.471 315.696 153.865 314.686 153.865C313.675 153.865 312.664 154.269 311.855 154.875L311.653 155.078C311.451 155.28 311.249 155.482 311.047 155.482C310.44 156.088 309.834 156.695 309.429 157.301C309.227 157.706 308.823 157.908 308.621 158.11C307.205 159.727 305.386 161.345 303.566 162.558C303.162 162.76 302.758 162.962 302.353 162.962C302.151 162.962 301.747 162.962 301.545 162.76H301.342L299.725 163.771C298.108 162.153 296.288 160.536 294.671 158.919C287.191 153.056 277.891 149.417 268.389 148.406L268.187 146.789V146.991C267.58 146.586 267.378 145.98 267.176 145.373C267.176 143.15 267.176 140.926 267.58 138.5V138.297C267.58 137.893 267.782 137.489 267.782 137.084C267.984 136.276 267.984 135.467 268.187 134.658V133.445C268.389 131.424 266.771 129.402 264.75 129.2C263.537 128.998 262.324 129.604 261.313 130.615C260.504 131.424 260.1 132.435 260.1 133.445V134.456C260.1 135.265 260.302 136.074 260.504 136.882C260.706 137.287 260.706 137.691 260.706 138.095V138.297C261.111 140.521 261.111 142.745 261.111 145.171C260.909 145.778 260.706 146.384 260.1 146.789V147.193L259.898 148.81C257.674 149.012 255.45 149.417 253.024 149.821C243.522 151.843 234.829 156.897 228.157 163.973L226.944 163.164H226.742C226.54 163.164 226.338 163.366 225.933 163.366C225.529 163.366 225.124 163.164 224.72 162.962C222.901 161.547 221.081 159.93 219.666 158.312C219.464 157.908 219.059 157.706 218.857 157.504C218.251 156.897 217.846 156.291 217.24 155.684C217.038 155.482 216.836 155.482 216.633 155.28C216.431 155.078 216.431 155.078 216.431 155.078C215.623 154.471 214.612 154.067 213.601 154.067C212.388 154.067 211.377 154.471 210.77 155.482C209.557 157.301 209.962 159.727 211.579 161.143C211.781 161.143 211.781 161.345 211.781 161.345C211.781 161.345 212.186 161.749 212.388 161.749C212.994 162.153 213.803 162.558 214.612 162.962C215.016 163.164 215.42 163.366 215.825 163.569C217.846 164.782 219.868 165.995 221.485 167.612C221.89 168.016 222.294 168.825 222.092 169.432V169.229L223.305 170.442C223.103 170.847 222.901 171.049 222.698 171.453C216.431 181.36 213.803 193.085 215.623 204.609L214.005 205.013C214.005 205.216 213.803 205.216 213.803 205.216C213.601 205.822 212.994 206.226 212.388 206.631C210.164 207.237 207.94 207.642 205.514 207.844C205.11 207.844 204.705 207.844 204.301 208.046C203.492 208.046 202.684 208.248 201.875 208.248C201.673 208.248 201.471 208.45 201.066 208.45C200.864 208.45 200.864 208.45 200.662 208.652C198.438 209.057 197.023 211.078 197.427 213.302C197.832 215.122 199.651 216.335 201.471 216.133C201.875 216.133 202.077 216.133 202.481 215.931C202.684 215.931 202.684 215.931 202.684 215.728C202.684 215.526 203.29 215.728 203.492 215.728C204.301 215.526 205.11 215.122 205.716 214.92C206.121 214.718 206.525 214.515 206.929 214.515H207.131C209.355 213.707 211.377 213.1 213.803 212.696H214.005C214.612 212.696 215.218 212.898 215.623 213.302C215.825 213.302 215.825 213.505 215.825 213.505L217.644 213.302C220.677 222.602 226.338 230.891 234.222 236.956C236.042 238.371 237.659 239.584 239.681 240.595L238.67 242.01C238.67 242.213 238.872 242.213 238.872 242.213C239.276 242.819 239.276 243.628 239.074 244.234C238.266 246.256 237.052 248.278 235.839 250.097V250.299C235.637 250.704 235.435 250.906 235.031 251.31C234.626 251.715 234.222 252.523 233.616 253.332C233.413 253.534 233.413 253.736 233.211 253.938C233.211 253.938 233.211 254.141 233.009 254.141C231.998 256.162 232.807 258.588 234.626 259.599C235.031 259.801 235.637 260.004 236.042 260.004C237.659 260.004 239.074 258.993 239.883 257.577C239.883 257.577 239.883 257.375 240.085 257.375C240.085 257.173 240.287 256.971 240.489 256.769C240.692 255.96 241.096 255.354 241.298 254.545L241.702 253.332C242.309 251.108 243.32 249.086 244.331 247.065C244.735 246.458 245.341 246.054 245.948 245.852C246.15 245.852 246.15 245.852 246.15 245.65L246.959 244.032C252.62 246.256 258.482 247.267 264.548 247.267C268.187 247.267 271.826 246.863 275.465 245.852C277.689 245.447 279.912 244.639 281.934 244.032L282.743 245.447C282.945 245.447 282.945 245.447 282.945 245.65C283.552 245.852 284.158 246.256 284.562 246.863C285.573 248.884 286.584 250.906 287.191 253.13V253.332L287.595 254.545C287.797 255.354 287.999 256.162 288.404 256.769C288.606 256.971 288.606 257.173 288.808 257.375C288.808 257.375 288.808 257.577 289.01 257.577C289.819 258.993 291.234 260.004 292.851 260.004C293.458 260.004 293.862 259.801 294.469 259.599C295.277 259.195 296.086 258.386 296.288 257.375C296.49 256.364 296.49 255.354 296.086 254.343C296.086 254.141 295.884 254.141 295.884 254.141C295.884 253.938 295.682 253.736 295.48 253.534C295.075 252.725 294.671 252.119 294.064 251.512C293.862 251.108 293.66 250.906 293.256 250.502V250.097C291.84 248.278 290.83 246.256 290.021 244.234C289.819 243.628 289.819 242.819 290.223 242.213C290.223 242.01 290.425 242.01 290.425 242.01L289.819 240.393C300.129 234.126 308.014 224.422 311.653 212.898L313.27 213.1C313.473 213.1 313.473 212.898 313.473 212.898C313.877 212.494 314.483 212.292 315.09 212.292H315.292C317.516 212.696 319.74 213.302 321.762 214.111H321.964C322.368 214.313 322.772 214.515 323.177 214.515C323.985 214.92 324.592 215.324 325.401 215.526C325.603 215.526 325.805 215.728 326.209 215.728C326.411 215.728 326.411 215.728 326.614 215.931C327.018 216.133 327.22 216.133 327.625 216.133C329.444 216.133 331.061 214.92 331.668 213.302C331.466 211.078 329.848 209.461 328.029 209.057ZM269.602 202.79L264.143 205.418L258.685 202.79L257.269 196.927L261.111 192.075H267.176L271.017 196.927L269.602 202.79ZM302.555 189.649C303.566 193.894 303.768 198.14 303.364 202.385L284.158 196.927C282.338 196.522 281.328 194.703 281.732 192.883C281.934 192.277 282.136 191.872 282.541 191.468L297.703 177.721C299.927 181.36 301.545 185.403 302.555 189.649ZM291.638 170.24L275.06 181.966C273.645 182.775 271.624 182.573 270.613 181.157C270.208 180.753 270.006 180.349 270.006 179.742L268.793 159.323C277.689 160.334 285.573 164.175 291.638 170.24ZM255.046 159.93L259.089 159.121L258.078 179.338C258.078 181.157 256.461 182.573 254.641 182.573C254.035 182.573 253.63 182.37 253.024 182.168L236.244 170.24C241.5 165.186 247.97 161.547 255.046 159.93ZM230.381 177.721L245.341 191.064C246.757 192.277 246.959 194.298 245.746 195.714C245.341 196.32 244.937 196.522 244.128 196.724L224.518 202.385C223.911 193.894 225.933 185.201 230.381 177.721ZM226.944 211.887L246.959 208.45C248.576 208.45 250.194 209.461 250.396 211.078C250.598 211.685 250.598 212.494 250.194 213.1L242.511 231.7C235.435 227.05 229.774 219.974 226.944 211.887ZM272.837 236.956C270.006 237.563 267.176 237.967 264.143 237.967C259.898 237.967 255.45 237.158 251.407 235.945L261.313 217.952C262.324 216.739 263.941 216.335 265.356 217.144C265.963 217.548 266.367 217.952 266.974 218.559L276.678 236.148C275.465 236.35 274.252 236.552 272.837 236.956ZM297.501 219.367C294.469 224.22 290.223 228.465 285.371 231.498L277.486 212.494C277.082 210.876 277.891 209.259 279.306 208.652C279.912 208.45 280.519 208.248 281.125 208.248L301.342 211.685C300.332 214.515 299.119 217.144 297.501 219.367Z" fill="#F5F5F5"/>
</g>
<defs>
<filter id="filter0_f_150_2063" x="-111" y="-79" width="728" height="728" filterUnits="userSpaceOnUse" color-interpolation-filters="sRGB">
<feFlood flood-opacity="0" result="BackgroundImageFix"/>
<feBlend mode="normal" in="SourceGraphic" in2="BackgroundImageFix" result="shape"/>
<feGaussianBlur stdDeviation="50" result="effect1_foregroundBlur_150_2063"/>
</filter>
<filter id="filter1_f_150_2063" x="13" y="-263" width="884" height="884" filterUnits="userSpaceOnUse" color-interpolation-filters="sRGB">
<feFlood flood-opacity="0" result="BackgroundImageFix"/>
<feBlend mode="normal" in="SourceGraphic" in2="BackgroundImageFix" result="shape"/>
<feGaussianBlur stdDeviation="50" result="effect1_foregroundBlur_150_2063"/>
</filter>
<filter id="filter2_f_150_2063" x="26.2694" y="-45.7306" width="476.461" height="476.461" filterUnits="userSpaceOnUse" color-interpolation-filters="sRGB">
<feFlood flood-opacity="0" result="BackgroundImageFix"/>
<feBlend mode="normal" in="SourceGraphic" in2="BackgroundImageFix" result="shape"/>
<feGaussianBlur stdDeviation="0.365314" result="effect1_foregroundBlur_150_2063"/>
</filter>
<filter id="filter3_f_150_2063" x="-13.1919" y="-85.1919" width="555.384" height="555.384" filterUnits="userSpaceOnUse" color-interpolation-filters="sRGB">
<feFlood flood-opacity="0" result="BackgroundImageFix"/>
<feBlend mode="normal" in="SourceGraphic" in2="BackgroundImageFix" result="shape"/>
<feGaussianBlur stdDeviation="1.09594" result="effect1_foregroundBlur_150_2063"/>
</filter>
<filter id="filter4_f_150_2063" x="-99.3797" y="-171.14" width="727.706" height="727.706" filterUnits="userSpaceOnUse" color-interpolation-filters="sRGB">
<feFlood flood-opacity="0" result="BackgroundImageFix"/>
<feBlend mode="normal" in="SourceGraphic" in2="BackgroundImageFix" result="shape"/>
<feGaussianBlur stdDeviation="4.01846" result="effect1_foregroundBlur_150_2063"/>
</filter>
<filter id="filter5_f_150_2063" x="437.849" y="33.8487" width="40.9149" height="40.9152" filterUnits="userSpaceOnUse" color-interpolation-filters="sRGB">
<feFlood flood-opacity="0" result="BackgroundImageFix"/>
<feBlend mode="normal" in="SourceGraphic" in2="BackgroundImageFix" result="shape"/>
<feGaussianBlur stdDeviation="6.57566" result="effect1_foregroundBlur_150_2063"/>
</filter>
<filter id="filter6_f_150_2063" x="478.539" y="276.539" width="10.2292" height="10.2288" filterUnits="userSpaceOnUse" color-interpolation-filters="sRGB">
<feFlood flood-opacity="0" result="BackgroundImageFix"/>
<feBlend mode="normal" in="SourceGraphic" in2="BackgroundImageFix" result="shape"/>
<feGaussianBlur stdDeviation="0.730629" result="effect1_foregroundBlur_150_2063"/>
</filter>
<radialGradient id="paint0_radial_150_2063" cx="0" cy="0" r="1" gradientUnits="userSpaceOnUse" gradientTransform="translate(253 322.17) rotate(-90) scale(257.329)">
<stop offset="0.0336538" stop-color="#26B34E"/>
<stop offset="0.331731" stop-color="#5ACA7A"/>
<stop offset="0.966346" stop-color="#919CDC" stop-opacity="0"/>
</radialGradient>
<radialGradient id="paint1_radial_150_2063" cx="0" cy="0" r="1" gradientUnits="userSpaceOnUse" gradientTransform="translate(455 227.152) rotate(-90) scale(333.357)">
<stop offset="0.331731" stop-color="#326DE6"/>
<stop offset="1" stop-color="#F5F5F5" stop-opacity="0"/>
</radialGradient>
<linearGradient id="paint2_linear_150_2063" x1="264.5" y1="-45" x2="82.2326" y2="360.269" gradientUnits="userSpaceOnUse">
<stop stop-color="#F5F5F5"/>
<stop offset="1" stop-color="#7994FF" stop-opacity="0.29"/>
</linearGradient>
<linearGradient id="paint3_linear_150_2063" x1="264.5" y1="-83" x2="53.0698" y2="387.112" gradientUnits="userSpaceOnUse">
<stop stop-color="#F5F5F5"/>
<stop offset="1" stop-color="#7994FF" stop-opacity="0.29"/>
</linearGradient>
<linearGradient id="paint4_linear_150_2063" x1="264.473" y1="-163.104" x2="-8.59486" y2="444.059" gradientUnits="userSpaceOnUse">
<stop stop-color="#F5F5F5"/>
<stop offset="1" stop-color="#7994FF" stop-opacity="0.1"/>
</linearGradient>
<clipPath id="clip0_150_2063">
<rect width="530" height="384" fill="white"/>
</clipPath>
</defs>
</svg>
