<svg width="16" height="16" viewBox="0 0 16 16" fill="none" xmlns="http://www.w3.org/2000/svg">
<g clip-path="url(#clip0_654_54)">
<path d="M3.40674 10.0899C3.40674 11.0061 2.65949 11.7545 1.74311 11.7545C0.826738 11.7545 0.0786133 11.0061 0.0786133 10.0899C0.0786133 9.17361 0.826988 8.42523 1.74324 8.42523H3.40686L3.40674 10.0899ZM4.24536 10.0899C4.24536 9.17361 4.99374 8.42523 5.90999 8.42523C6.82624 8.42523 7.57461 9.17348 7.57461 10.0899V14.2567C7.57461 15.173 6.82636 15.9214 5.90999 15.9214C4.99374 15.9214 4.24536 15.173 4.24536 14.2567V10.0899Z" fill="#DE1C59"/>
<path d="M5.90999 3.40686C4.99374 3.40686 4.24536 2.65961 4.24536 1.74324C4.24536 0.82686 4.99374 0.0787354 5.90999 0.0787354C6.82624 0.0787354 7.57461 0.82711 7.57461 1.74336V3.40699L5.90999 3.40686ZM5.90999 4.24549C6.82624 4.24549 7.57461 4.99386 7.57461 5.91011C7.57461 6.82636 6.82636 7.57474 5.90999 7.57474H1.74311C0.826863 7.57474 0.0786133 6.82649 0.0786133 5.91011C0.0786133 4.99386 0.826988 4.24549 1.74324 4.24549H5.90999Z" fill="#35C5F0"/>
<path d="M12.5932 5.91011C12.5932 4.99386 13.3404 4.24549 14.2568 4.24549C15.1732 4.24549 15.9214 4.99386 15.9214 5.91011C15.9214 6.82636 15.173 7.57474 14.2568 7.57474H12.5932V5.91011ZM11.7545 5.91011C11.7545 6.82636 11.0062 7.57474 10.0899 7.57474C9.17367 7.57474 8.42529 6.82649 8.42529 5.91011V1.74324C8.42529 0.826985 9.17354 0.0787354 10.0899 0.0787354C11.0062 0.0787354 11.7545 0.82711 11.7545 1.74336V5.91011Z" fill="#2EB57D"/>
<path d="M10.0899 12.5931C11.0062 12.5931 11.7545 13.3404 11.7545 14.2567C11.7545 15.1731 11.0062 15.9214 10.0899 15.9214C9.17367 15.9214 8.42529 15.173 8.42529 14.2567V12.5931H10.0899ZM10.0899 11.7545C9.17367 11.7545 8.42529 11.0061 8.42529 10.0899C8.42529 9.17361 9.17354 8.42523 10.0899 8.42523H14.2568C15.173 8.42523 15.9214 9.17348 15.9214 10.0899C15.9214 11.0061 15.173 11.7545 14.2568 11.7545H10.0899Z" fill="#EBB02E"/>
</g>
<defs>
<clipPath id="clip0_654_54">
<rect width="16" height="16" fill="white"/>
</clipPath>
</defs>
</svg>
