<svg width="100" height="100" viewBox="0 0 100 100" fill="none" xmlns="http://www.w3.org/2000/svg">
<g clip-path="url(#clip0_6407_9854)">
<path d="M93.3334 20C89.6566 20 86.6668 22.99 86.6668 26.6666C86.6668 30.3432 89.6568 33.3332 93.3334 33.3332C97.01 33.3332 100 30.3434 100 26.6666C100 22.99 97.01 20 93.3334 20ZM93.3334 30C91.4951 30 90 28.5051 90 26.6666C90 24.8283 91.4949 23.3332 93.3334 23.3332C95.1719 23.3332 96.6668 24.8281 96.6668 26.6666C96.6666 28.5051 95.1717 30 93.3334 30ZM6.6666 75C2.99004 75 0 77.99 0 81.6666C0 85.3432 2.99004 88.3332 6.6666 88.3332C10.3434 88.3332 13.3332 85.3432 13.3332 81.6666C13.3332 77.99 10.3434 75 6.6666 75ZM6.6666 85C4.82832 85 3.3332 83.5051 3.3332 81.6666C3.3332 79.8281 4.82812 78.3332 6.6666 78.3332C8.50488 78.3332 10 79.8281 10 81.6666C10 83.5051 8.50508 85 6.6666 85Z" fill="white"/>
<path d="M90.1023 22.1063L75.724 15.1647C74.8939 14.763 73.899 15.113 73.499 15.9415C73.099 16.7698 73.4473 17.7665 74.2758 18.1665L88.6541 25.1081C88.8511 25.2036 89.065 25.2592 89.2836 25.2718C89.5022 25.2845 89.7211 25.2538 89.9278 25.1817C90.1345 25.1095 90.3249 24.9972 90.4881 24.8513C90.6513 24.7054 90.7841 24.5287 90.8789 24.3313C91.2789 23.503 90.9307 22.5063 90.1023 22.1063ZM75.0006 86.6663C71.3238 86.6663 68.334 89.6563 68.334 93.3329C68.334 97.0094 71.3238 99.9997 75.0006 99.9997C78.6773 99.9997 81.6672 97.0096 81.6672 93.3331C81.6672 89.6565 78.6773 86.6663 75.0006 86.6663ZM75.0006 96.6663C73.1623 96.6663 71.6672 95.1714 71.6672 93.3329C71.6672 91.4944 73.1623 89.9997 75.0006 89.9997C76.8389 89.9997 78.334 91.4946 78.334 93.3331C78.334 95.1716 76.8389 96.6663 75.0006 96.6663Z" fill="white"/>
<path d="M71.7689 88.7734L57.3906 81.8318C57.1936 81.7363 56.9797 81.6807 56.7611 81.6681C56.5425 81.6554 56.3236 81.6861 56.1169 81.7582C55.9101 81.8304 55.7197 81.9427 55.5565 82.0886C55.3932 82.2345 55.2604 82.4112 55.1656 82.6086C54.7656 83.4369 55.1139 84.4336 55.9424 84.8336L70.3207 91.7752C70.5177 91.8706 70.7317 91.9262 70.9502 91.9388C71.1688 91.9515 71.3877 91.9208 71.5944 91.8486C71.8011 91.7765 71.9916 91.6642 72.1548 91.5183C72.318 91.3724 72.4509 91.1958 72.5457 90.9984C72.9455 90.1699 72.5973 89.1734 71.7689 88.7734ZM50.0006 45C46.3238 45 43.334 47.99 43.334 51.6666C43.334 55.3434 46.324 58.3332 50.0006 58.3332C53.6773 58.3332 56.6672 55.3432 56.6672 51.6666C56.6672 47.99 53.6773 45 50.0006 45ZM50.0006 55C48.1623 55 46.6672 53.5051 46.6672 51.6666C46.6672 49.8283 48.1621 48.3332 50.0006 48.3332C51.8389 48.3332 53.334 49.8281 53.334 51.6666C53.334 53.5051 51.8389 55 50.0006 55Z" fill="white"/>
<path d="M47.069 47.293L36.0241 38.6846C35.2974 38.1229 34.2509 38.2479 33.6841 38.9747C33.119 39.7014 33.2474 40.7479 33.9741 41.3147L45.019 49.9231C45.3114 50.1512 45.6717 50.275 46.0425 50.2749C46.2963 50.2753 46.5469 50.2177 46.7751 50.1065C47.0033 49.9953 47.203 49.8335 47.3591 49.6333C47.9241 48.9063 47.7958 47.8596 47.069 47.293ZM79.9991 43.3331C69.8907 43.3331 61.6657 51.5581 61.6657 61.6665C61.6657 71.7749 69.8907 79.9999 79.9991 79.9999C90.1075 79.9999 98.3325 71.7749 98.3325 61.6665C98.3325 51.5581 90.1075 43.3331 79.9991 43.3331ZM79.9991 76.6663C71.7275 76.6663 64.9991 69.938 64.9991 61.6663C64.9991 53.3946 71.7275 46.6663 79.9991 46.6663C88.2708 46.6663 94.9991 53.3946 94.9991 61.6663C94.9991 69.938 88.2708 76.6663 79.9991 76.6663Z" fill="white"/>
<path d="M79.9994 50C76.3227 50 73.3328 52.99 73.3328 56.6666C73.3328 60.3434 76.3229 63.3332 79.9994 63.3332C83.6762 63.3332 86.666 60.3432 86.666 56.6666C86.666 52.99 83.6762 50 79.9994 50ZM79.9994 60C78.1611 60 76.666 58.5051 76.666 56.6666C76.666 54.8283 78.1609 53.3332 79.9994 53.3332C81.8377 53.3332 83.3328 54.8281 83.3328 56.6666C83.3328 58.5051 81.8377 60 79.9994 60ZM84.8344 66.6666H75.1645C72.3162 66.6666 69.9994 68.9217 69.9994 71.6916V76.085C69.9994 76.3773 70.0762 76.6646 70.2221 76.9179C70.3681 77.1712 70.5781 77.3817 70.8311 77.5283C73.6244 79.1449 76.7943 80 79.9994 80C83.2045 80 86.3744 79.1449 89.1678 77.5283C89.4207 77.3821 89.6307 77.1719 89.7766 76.9189C89.9226 76.6658 89.9994 76.3788 89.9994 76.0867V71.6934C89.9994 68.9217 87.6828 66.6666 84.8344 66.6666ZM86.666 75.0916C82.5178 77.1582 77.4811 77.1582 73.3326 75.0916V71.6934C73.3326 70.76 74.1543 70 75.1643 70H84.8342C85.8441 70 86.6658 70.76 86.6658 71.6934L86.666 75.0916ZM39.9994 63.3334C29.891 63.3334 21.666 71.5584 21.666 81.6668C21.666 91.7752 29.891 100 39.9994 100C50.1078 100 58.3328 91.775 58.3328 81.6666C58.3328 71.5582 50.1078 63.3334 39.9994 63.3334ZM39.9994 96.6666C31.7277 96.6666 24.9994 89.9383 24.9994 81.6666C24.9994 73.3949 31.7277 66.6666 39.9994 66.6666C48.2711 66.6666 54.9994 73.3949 54.9994 81.6666C54.9994 89.9383 48.2711 96.6666 39.9994 96.6666Z" fill="white"/>
<path d="M40 69.9994C36.3232 69.9994 33.3334 72.9894 33.3334 76.666C33.3334 80.3428 36.3234 83.3326 40 83.3326C43.6766 83.3326 46.6666 80.3426 46.6666 76.666C46.6666 72.9894 43.6768 69.9994 40 69.9994ZM40 79.9994C38.1617 79.9994 36.6666 78.5045 36.6666 76.666C36.6666 74.8277 38.1615 73.3326 40 73.3326C41.8383 73.3326 43.3334 74.8275 43.3334 76.666C43.3334 78.5045 41.8383 79.9994 40 79.9994ZM44.835 86.666H35.165C32.3168 86.666 30 88.9211 30 91.691V96.0844C30 96.3767 30.0768 96.664 30.2227 96.9173C30.3687 97.1706 30.5787 97.3811 30.8316 97.5277C33.625 99.1443 36.7949 99.9994 40 99.9994C43.2051 99.9994 46.375 99.1443 49.1684 97.5277C49.4213 97.3815 49.6313 97.1714 49.7772 96.9183C49.9232 96.6653 50 96.3783 50 96.0861V91.6928C50 88.9211 47.6834 86.666 44.835 86.666ZM46.6666 95.091C42.5182 97.1576 37.4816 97.1576 33.3332 95.091V91.6928C33.3332 90.7594 34.1549 89.9994 35.1648 89.9994H44.8348C45.8447 89.9994 46.6664 90.7594 46.6664 91.6928L46.6666 95.091ZM18.3334 21.666C8.225 21.666 0 29.891 0 39.9994C0 50.1078 8.225 58.3328 18.3334 58.3328C28.4418 58.3328 36.6668 50.1078 36.6668 39.9994C36.6666 29.891 28.4416 21.666 18.3334 21.666ZM18.3334 54.9994C10.0617 54.9994 3.3334 48.2711 3.3334 39.9994C3.3334 31.7277 10.0617 24.9994 18.3334 24.9994C26.6051 24.9994 33.3334 31.7277 33.3334 39.9994C33.3334 48.2711 26.6051 54.9994 18.3334 54.9994Z" fill="white"/>
<path d="M18.334 28.3334C14.6572 28.3334 11.6674 31.3234 11.6674 35C11.6674 38.6766 14.6574 41.6666 18.334 41.6666C22.0107 41.6666 25.0006 38.6766 25.0006 35C25.0006 31.3234 22.0105 28.3334 18.334 28.3334ZM18.334 38.3334C16.4957 38.3334 15.0006 36.8385 15.0006 35C15.0006 33.1615 16.4955 31.6666 18.334 31.6666C20.1723 31.6666 21.6674 33.1615 21.6674 35C21.6674 36.8385 20.1723 38.3334 18.334 38.3334ZM23.1689 45H13.499C10.6508 45 8.33398 47.2551 8.33398 50.025V54.4184C8.33395 54.7107 8.41076 54.998 8.55672 55.2513C8.70268 55.5046 8.91267 55.7151 9.16562 55.8617C11.959 57.4783 15.1289 58.3334 18.334 58.3334C21.5391 58.3334 24.709 57.4783 27.5023 55.8617C27.7552 55.7155 27.9652 55.5053 28.1112 55.2523C28.2572 54.9992 28.334 54.7122 28.334 54.4201V50.0268C28.334 47.2551 26.0172 45 23.1689 45ZM25.0006 53.425C20.8523 55.4916 15.8156 55.4916 11.6672 53.425V50.0268C11.6672 49.0934 12.4889 48.3334 13.4988 48.3334H23.1688C24.1787 48.3334 25.0004 49.0934 25.0004 50.0268L25.0006 53.425ZM58.334 0C48.2256 0 40.0006 8.225 40.0006 18.3334C40.0006 28.4418 48.2256 36.6668 58.334 36.6668C68.4424 36.6668 76.6674 28.4418 76.6674 18.3334C76.6672 8.225 68.4422 0 58.334 0ZM58.334 33.3334C50.0623 33.3334 43.334 26.6051 43.334 18.3334C43.334 10.0617 50.0623 3.3334 58.334 3.3334C66.6057 3.3334 73.334 10.0617 73.334 18.3334C73.334 26.6051 66.6057 33.3334 58.334 33.3334Z" fill="white"/>
<path d="M58.3332 6.66602C54.6565 6.66602 51.6666 9.65605 51.6666 13.3326C51.6666 17.0092 54.6567 19.9992 58.3332 19.9992C62.0098 19.9992 64.9998 17.0094 64.9998 13.3328C64.9998 9.65625 62.0098 6.66602 58.3332 6.66602ZM58.3332 16.666C56.4949 16.666 54.9998 15.1711 54.9998 13.3326C54.9998 11.4943 56.4947 9.99922 58.3332 9.99922C60.1717 9.99922 61.6666 11.4941 61.6666 13.3326C61.6664 15.1711 60.1715 16.666 58.3332 16.666ZM63.1682 23.3328H53.4983C50.65 23.3328 48.3332 25.5879 48.3332 28.3578V32.7512C48.3332 33.0435 48.41 33.3308 48.5559 33.5841C48.7019 33.8374 48.9119 34.0479 49.1649 34.1945C51.9582 35.8111 55.1281 36.6662 58.3332 36.6662C61.5383 36.6662 64.7082 35.8111 67.5016 34.1945C67.7545 34.0483 67.9645 33.8381 68.1104 33.5851C68.2564 33.3321 68.3332 33.0451 68.3332 32.7529V28.3596C68.3332 25.5877 66.0164 23.3328 63.1682 23.3328ZM64.9998 31.7578C60.8516 33.8244 55.8149 33.8244 51.6664 31.7578V28.3596C51.6664 27.4262 52.4881 26.6662 53.4981 26.6662H63.168C64.1779 26.6662 64.9996 27.4262 64.9996 28.3596L64.9998 31.7578ZM42.9348 17.2477C42.3365 16.551 41.2848 16.4676 40.5848 17.066L29.0348 26.9494C28.3348 27.5477 28.2531 28.5994 28.8514 29.2994C28.9936 29.4659 29.1672 29.6028 29.3624 29.7021C29.5575 29.8013 29.7704 29.8611 29.9887 29.878C30.207 29.8949 30.4265 29.8685 30.6346 29.8004C30.8427 29.7323 31.0353 29.6238 31.2014 29.4811L42.7514 19.5977C43.4516 18.9994 43.5332 17.9477 42.9348 17.2477Z" fill="white"/>
<path d="M79.6666 44.0018L69.6666 30.6684C69.1148 29.9301 68.0699 29.785 67.3332 30.335C66.5965 30.8867 66.4482 31.9316 66.9998 32.6666L76.9998 46C77.1552 46.2073 77.3567 46.3754 77.5885 46.4911C77.8202 46.6069 78.0757 46.6669 78.3348 46.6666C78.6949 46.6667 79.0453 46.5497 79.3332 46.3332C80.0699 45.7816 80.2184 44.7367 79.6666 44.0018ZM65.9883 67.1783C65.4365 66.4416 64.3916 66.2934 63.6549 66.8449L54.3449 73.8266C53.6082 74.3783 53.46 75.4232 54.0115 76.1582C54.1669 76.3655 54.3684 76.5336 54.6002 76.6494C54.8319 76.7651 55.0875 76.8251 55.3465 76.8248C55.7066 76.8244 56.0568 76.7074 56.3449 76.4914L65.6549 69.5098C66.3916 68.9584 66.54 67.9133 65.9883 67.1783ZM23.3334 80H11.6666C10.7467 80 10 80.7449 10 81.6666C10 82.5883 10.7467 83.3332 11.6666 83.3332H23.3332C24.2531 83.3332 24.9998 82.5883 24.9998 81.6666C24.9998 80.7449 24.2533 80 23.3334 80ZM18.3334 0C14.6566 0 11.6666 2.99004 11.6666 6.6666C11.6666 10.3434 14.6566 13.3332 18.3332 13.3332C22.01 13.3332 24.9998 10.3432 24.9998 6.6666C25 2.99004 22.01 0 18.3334 0ZM18.3334 10C16.4951 10 15 8.50508 15 6.6666C15 4.82832 16.4949 3.3332 18.3334 3.3332C20.1717 3.3332 21.6668 4.82812 21.6668 6.6666C21.6666 8.50508 20.1717 10 18.3334 10Z" fill="white"/>
<path d="M18.3326 10C18.1137 9.99992 17.897 10.043 17.6947 10.1267C17.4925 10.2104 17.3088 10.3332 17.154 10.488C16.9992 10.6427 16.8764 10.8265 16.7927 11.0287C16.709 11.231 16.6659 11.4477 16.666 11.6666V23.3332C16.6659 23.5521 16.709 23.7688 16.7927 23.9711C16.8764 24.1733 16.9992 24.3571 17.154 24.5118C17.3088 24.6666 17.4925 24.7894 17.6947 24.8731C17.897 24.9568 18.1137 24.9999 18.3326 24.9998C18.5515 24.9999 18.7683 24.9568 18.9705 24.8731C19.1727 24.7894 19.3565 24.6666 19.5113 24.5118C19.666 24.3571 19.7888 24.1733 19.8725 23.9711C19.9562 23.7688 19.9993 23.5521 19.9992 23.3332V11.6666C19.9993 11.4477 19.9562 11.231 19.8725 11.0287C19.7888 10.8265 19.666 10.6427 19.5113 10.488C19.3565 10.3332 19.1727 10.2104 18.9705 10.1267C18.7683 10.043 18.5515 9.99992 18.3326 10Z" fill="white"/>
</g>
<defs>
<clipPath id="clip0_6407_9854">
<rect width="100" height="100" fill="white"/>
</clipPath>
</defs>
</svg>
