<svg width="200" height="200" viewBox="0 0 200 200" fill="none" xmlns="http://www.w3.org/2000/svg">
<g style="mix-blend-mode:luminosity">
<path d="M100.244 199.769C155.105 199.769 199.578 155.275 199.578 100.39C199.578 45.5042 155.105 1.01074 100.244 1.01074C45.3834 1.01074 0.910156 45.5042 0.910156 100.39C0.910156 155.275 45.3834 199.769 100.244 199.769Z" fill="#D9D9D9" fill-opacity="0.1"/>
<path d="M100.244 178.408C143.312 178.408 178.225 143.478 178.225 100.39C178.225 57.3026 143.312 22.373 100.244 22.373C57.1754 22.373 22.2617 57.3026 22.2617 100.39C22.2617 143.478 57.1754 178.408 100.244 178.408Z" fill="#D9D9D9" fill-opacity="0.1"/>
<path d="M95.8922 0.0842287C40.7317 2.32443 -2.16317 48.8747 0.0760136 104.056C2.3152 159.239 48.8456 202.157 104.005 199.916C157.701 197.735 199.777 153.558 199.902 100.305V99.8373C199.9 98.5393 199.871 97.2403 199.821 95.9427C197.636 42.1417 153.353 0 100.019 0C98.65 0 97.2736 0.0284958 95.8922 0.0842287Z" fill="url(#paint0_linear_6187_2865)"/>
<path d="M95.8922 0.0842287C40.7317 2.32443 -2.16317 48.8747 0.0760136 104.056C2.3152 159.239 48.8456 202.157 104.005 199.916C157.701 197.735 199.777 153.558 199.902 100.305V99.8373C199.9 98.5393 199.871 97.2403 199.821 95.9427C197.636 42.1417 153.353 0 100.019 0C98.65 0 97.2736 0.0284958 95.8922 0.0842287Z" fill="url(#paint1_linear_6187_2865)"/>
<mask id="mask0_6187_2865" style="mask-type:luminance" maskUnits="userSpaceOnUse" x="6" y="6" width="188" height="188">
<g style="mix-blend-mode:luminosity">
<mask id="mask1_6187_2865" style="mask-type:luminance" maskUnits="userSpaceOnUse" x="6" y="6" width="188" height="188">
<g style="mix-blend-mode:luminosity">
<path d="M6.16016 6.27734H193.076V193.278H6.16016V6.27734Z" fill="white"/>
</g>
</mask>
<g mask="url(#mask1_6187_2865)">
<path d="M6.16016 6.27832H193.076V193.279H6.16016V6.27832Z" fill="black"/>
<mask id="mask2_6187_2865" style="mask-type:luminance" maskUnits="userSpaceOnUse" x="6" y="6" width="188" height="188">
<g style="mix-blend-mode:luminosity">
<path d="M6.16016 6.27832H193.076V193.279H6.16016V6.27832Z" fill="white"/>
</g>
</mask>
<g mask="url(#mask2_6187_2865)">
<path d="M6.16016 6.2793H193.075V193.279H6.16016V6.2793Z" fill="black"/>
</g>
</g>
</g>
</mask>
<g mask="url(#mask0_6187_2865)">
<mask id="mask3_6187_2865" style="mask-type:luminance" maskUnits="userSpaceOnUse" x="6" y="6" width="188" height="188">
<g style="mix-blend-mode:luminosity">
<path d="M6.16016 6.27734H193.076V193.278H6.16016V6.27734Z" fill="white"/>
</g>
</mask>
<g mask="url(#mask3_6187_2865)">
<path d="M22.375 100.011C22.375 142.868 57.1002 177.611 99.9394 177.611C142.778 177.611 177.503 142.869 177.503 100.012C177.503 57.1547 142.778 22.4121 99.9394 22.4121C57.1015 22.4121 22.375 57.1547 22.375 100.011Z" fill="url(#paint2_linear_6187_2865)"/>
</g>
</g>
<path d="M22.3828 100.008C22.3828 142.865 57.1084 177.608 99.9475 177.608C142.785 177.608 177.511 142.867 177.511 100.009C177.511 57.1516 142.785 22.4092 99.9475 22.4092C57.1097 22.4092 22.3828 57.1516 22.3828 100.008Z" fill="url(#paint3_linear_6187_2865)"/>
<path fill-rule="evenodd" clip-rule="evenodd" d="M38.703 166.011C38.9692 165.734 39.0842 165.421 39.0459 165.073C39.0089 164.725 38.801 164.229 38.4281 163.585C38.052 162.941 37.8281 162.418 37.7574 162.016C37.6545 161.447 37.7921 160.968 38.1719 160.575C38.5408 160.194 38.9975 160.037 39.541 160.102C40.0857 160.167 40.6018 160.437 41.0896 160.909C41.4211 161.231 41.654 161.581 41.7913 161.96C41.9289 162.341 41.9585 162.715 41.8816 163.083C41.8036 163.451 41.6303 163.774 41.3595 164.055L40.9347 163.644C41.2642 163.302 41.4138 162.916 41.3818 162.484C41.3495 162.052 41.1379 161.645 40.7454 161.265C40.3643 160.896 39.9791 160.688 39.5879 160.639C39.2008 160.577 38.8726 160.689 38.6041 160.977C38.3478 161.232 38.2499 161.536 38.3095 161.893C38.3565 162.248 38.5447 162.705 38.8739 163.259C39.2008 163.816 39.4174 164.269 39.5213 164.625C39.6239 164.979 39.6462 165.304 39.5843 165.6C39.515 165.915 39.364 166.188 39.1325 166.414C38.7577 166.822 38.2959 166.985 37.7488 166.902C37.2054 166.835 36.6766 166.553 36.1642 166.058C35.825 165.737 35.5641 165.363 35.3795 164.933C35.2086 164.523 35.1566 164.132 35.2236 163.761C35.2916 163.388 35.4661 163.055 35.7484 162.762L36.1692 163.17C35.829 163.52 35.6914 163.925 35.757 164.383C35.8227 164.84 36.0725 165.279 36.5097 165.701C36.8958 166.078 37.2893 166.293 37.6918 166.35C38.0916 166.406 38.4295 166.293 38.703 166.011ZM45.0578 168.679C45.5952 168.042 45.8711 167.42 45.8861 166.812C45.9021 166.208 45.6572 165.692 45.1544 165.27C44.6606 164.855 44.1159 164.705 43.5168 164.823C42.9201 164.942 42.347 165.325 41.7989 165.977L41.3345 166.531C40.8047 167.162 40.5312 167.782 40.5129 168.395C40.4955 169.009 40.7368 169.526 41.2369 169.947C41.7443 170.373 42.2927 170.526 42.8831 170.401C43.4722 170.277 44.0406 169.89 44.585 169.24L45.0578 168.679ZM45.0221 169.633C44.611 170.122 44.1669 170.479 43.6864 170.707C43.2073 170.936 42.7272 171.016 42.2467 170.952C41.7406 170.88 41.2938 170.676 40.9087 170.338C40.29 169.816 39.9754 169.173 39.9668 168.409C39.9581 167.644 40.2713 166.885 40.904 166.133L41.3631 165.585C41.7703 165.1 42.2147 164.746 42.6999 164.516C43.185 164.286 43.6691 164.203 44.1505 164.267C44.632 164.331 45.0778 164.533 45.4863 164.878C45.8947 165.219 46.1719 165.623 46.3179 166.081C46.4655 166.541 46.4715 167.02 46.3402 167.525C46.2079 168.027 45.9454 168.518 45.5556 168.999L45.0221 169.633ZM49.7023 174.212C49.2109 174.758 48.6711 175.059 48.0867 175.114C47.5 175.17 46.9096 174.979 46.3119 174.549C45.9071 174.267 45.6139 173.897 45.4329 173.437C45.2584 172.973 45.2237 172.497 45.3303 172.014C45.4306 171.505 45.6572 171.004 46.0087 170.511L46.5358 169.78C46.8973 169.281 47.3034 168.901 47.7562 168.641C48.1884 168.383 48.6562 168.267 49.1576 168.293C49.6367 168.32 50.0908 168.487 50.5166 168.797C51.1194 169.233 51.4785 169.737 51.5935 170.314C51.7074 170.89 51.5861 171.487 51.2273 172.102L50.7495 171.755C51.3199 170.715 51.1453 169.862 50.2281 169.199C49.7183 168.83 49.1736 168.726 48.5968 168.89C48.0188 169.053 47.4877 169.471 47.0026 170.144L46.5061 170.832C46.0357 171.481 45.8104 172.105 45.8268 172.704C45.8414 173.305 46.1013 173.784 46.6028 174.147C47.0992 174.506 47.5583 174.657 47.9841 174.601C48.4076 174.545 48.8197 174.3 49.2242 173.868L49.7023 174.212ZM52.1779 178.339L54.6014 174.326L53.8711 173.884L54.1123 173.485L54.844 173.928L55.1645 173.394C55.4381 172.942 55.7626 172.666 56.1387 172.562C56.5139 172.458 56.9074 172.532 57.3172 172.78C57.5015 172.892 57.6601 173.019 57.7923 173.16L57.5115 173.544C57.3852 173.421 57.2479 173.315 57.097 173.225C56.8294 173.063 56.5682 173.02 56.317 173.098C56.0671 173.175 55.8479 173.367 55.6623 173.675L55.3318 174.224L56.3826 174.859L56.1424 175.259L55.0902 174.622L52.6667 178.633L52.1779 178.339ZM56.1847 177.816C55.8925 178.36 55.7936 178.881 55.8862 179.38C55.9805 179.878 56.255 180.251 56.7095 180.496C57.1636 180.741 57.6241 180.763 58.0922 180.568C58.56 180.371 58.9475 179.986 59.2543 179.416L59.3076 179.321C59.4932 178.974 59.5998 178.622 59.6268 178.264C59.6528 177.906 59.5922 177.588 59.4449 177.305C59.2926 177.012 59.0697 176.789 58.7765 176.637C58.3271 176.383 57.8693 176.361 57.3988 176.574C56.9284 176.773 56.5399 177.156 56.234 177.724L56.1847 177.816ZM55.7563 177.407C55.9915 176.971 56.2873 176.623 56.6438 176.365C57.0017 176.106 57.3865 175.965 57.8 175.936C58.2121 175.906 58.6156 175.998 59.0068 176.21C59.6108 176.536 59.9847 177.011 60.1319 177.636C60.2779 178.262 60.1643 178.924 59.7878 179.622L59.7308 179.727C59.5142 180.145 59.2173 180.495 58.8395 180.776C58.482 181.036 58.0969 181.177 57.6874 181.202C57.2589 181.224 56.8581 181.13 56.4829 180.921C55.8812 180.597 55.5064 180.122 55.3601 179.496C55.2105 178.87 55.3255 178.209 55.7006 177.508L55.7563 177.407ZM63.9729 179.335C63.8662 179.26 63.7549 179.194 63.6373 179.141C63.3378 178.986 63.0236 178.947 62.6941 179.021C62.3872 179.094 62.1064 179.281 61.8488 179.576L60.3298 182.773L59.8187 182.53L62.0307 177.874L62.5345 178.114L62.1903 178.857C62.7238 178.436 63.2922 178.368 63.8949 178.656C64.0372 178.725 64.1411 178.797 64.2067 178.874L63.9729 179.335ZM69.6793 184.849C69.8165 184.491 69.7979 184.158 69.6246 183.852C69.4527 183.547 69.0665 183.172 68.4675 182.73C67.8694 182.285 67.4596 181.893 67.2344 181.552C66.9165 181.07 66.8545 180.575 67.0475 180.064C67.237 179.567 67.5945 179.243 68.1206 179.089C68.6481 178.934 69.2275 178.978 69.8622 179.219C70.292 179.384 70.6445 179.613 70.922 179.91C71.1966 180.205 71.3738 180.537 71.4468 180.906C71.5198 181.272 71.4874 181.639 71.3488 182.005L70.7967 181.794C70.9663 181.35 70.9503 180.937 70.7511 180.552C70.5505 180.168 70.1954 179.877 69.6853 179.682C69.1901 179.494 68.7543 179.453 68.3758 179.563C67.9957 179.659 67.7381 179.893 67.6059 180.263C67.4696 180.597 67.4992 180.917 67.6925 181.22C67.8767 181.53 68.2309 181.874 68.7507 182.254C69.2718 182.636 69.6493 182.969 69.8845 183.254C70.1184 183.539 70.267 183.828 70.3266 184.124C70.3873 184.443 70.3563 184.752 70.2337 185.052C70.0381 185.562 69.6793 185.893 69.1532 186.046C68.6281 186.199 68.0317 186.15 67.3643 185.894C66.9262 185.733 66.5387 185.49 66.2008 185.169C65.8826 184.86 65.6797 184.522 65.5944 184.153C65.5078 183.769 65.5375 183.395 65.6834 183.03L66.2318 183.238C66.0572 183.696 66.0909 184.121 66.3298 184.514C66.571 184.909 66.9732 185.214 67.5402 185.432C68.0453 185.624 68.4921 185.666 68.882 185.561C69.2768 185.468 69.543 185.23 69.6793 184.849ZM74.1699 183.103C73.7591 182.966 73.3679 183.011 72.9951 183.231C72.6202 183.444 72.3257 183.794 72.1065 184.282L75.0575 185.2L75.0758 185.142C75.2084 184.664 75.1924 184.237 75.0302 183.86C74.8656 183.469 74.5784 183.216 74.1699 183.103ZM72.8245 187.774C71.9332 187.511 71.4131 186.922 71.2672 186.004C71.1942 185.552 71.2289 185.11 71.3712 184.675L71.4318 184.481C71.5791 184.007 71.8033 183.609 72.1052 183.288C72.406 182.966 72.7539 182.748 73.1487 182.633C73.5422 182.518 73.931 182.521 74.3148 182.639C74.9112 182.825 75.321 183.177 75.5439 183.693C75.7668 184.21 75.7692 184.821 75.5499 185.529L75.4536 185.833L71.9442 184.74L71.9122 184.844C71.7377 185.402 71.7536 185.916 71.9579 186.388C72.1608 186.857 72.5063 187.169 72.9914 187.32C73.2823 187.412 73.5558 187.439 73.811 187.401C74.0673 187.365 74.3221 187.257 74.576 187.081L74.8359 187.449C74.2552 187.903 73.5855 188.01 72.8245 187.774ZM79.4491 184.669C79.3315 184.615 79.2103 184.573 79.0853 184.54C78.7411 184.451 78.4243 184.471 78.1357 184.601C77.8485 184.731 77.606 184.969 77.4104 185.306L76.5205 188.732L75.9734 188.59L77.2681 183.6L77.8066 183.739L77.611 184.537C78.0554 184.021 78.5999 183.849 79.2449 184.017C79.3985 184.055 79.5148 184.108 79.5941 184.17L79.4491 184.669ZM81.1784 189.026L83.6069 185.073L84.18 185.192L81.2403 189.842L80.7872 189.746L79.9543 184.305L80.5273 184.425L81.1784 189.026ZM85.2755 183.849C85.3115 183.582 85.4601 183.478 85.7236 183.537C85.8362 183.551 85.9242 183.603 85.9898 183.695C86.0505 183.781 86.0715 183.877 86.0505 183.982C86.0355 184.086 85.9848 184.168 85.8992 184.23C85.8066 184.294 85.7063 184.312 85.5973 184.289C85.4861 184.275 85.3981 184.223 85.3338 184.134C85.2755 184.046 85.2558 183.952 85.2755 183.849ZM84.831 190.512L84.2666 190.416L85.1256 185.334L85.689 185.431L84.831 190.512ZM88.4877 190.654C88.8812 190.704 89.2254 190.636 89.5199 190.447C89.8144 190.259 89.994 189.989 90.062 189.64L90.6044 189.709C90.5498 190.018 90.4162 190.289 90.2033 190.524C89.9854 190.763 89.7205 190.935 89.4123 191.036C89.0918 191.145 88.7636 191.177 88.4281 191.132C87.7574 191.048 87.2546 190.746 86.9231 190.231C86.5899 189.714 86.4723 189.062 86.5716 188.275L86.5949 188.106C86.6445 187.639 86.7895 187.204 87.0284 186.8C87.2536 186.436 87.5431 186.168 87.8983 185.999C88.2548 185.829 88.6546 185.773 89.0941 185.828C89.6562 185.9 90.0966 186.127 90.4185 186.506C90.739 186.885 90.8779 187.349 90.8343 187.898L90.2912 187.828C90.3159 187.427 90.2133 187.084 89.9817 186.805C89.7488 186.527 89.4333 186.362 89.0348 186.311C88.5247 186.246 88.1039 186.379 87.7757 186.712C87.4465 187.046 87.2413 187.545 87.1583 188.21L87.136 188.376C87.053 189.028 87.1297 189.555 87.3649 189.956C87.6001 190.356 87.9753 190.59 88.4877 190.654ZM93.9922 186.788C93.5601 186.751 93.1889 186.882 92.878 187.186C92.5639 187.478 92.3569 187.888 92.2567 188.411L95.3389 188.624L95.3439 188.563C95.3612 188.067 95.2486 187.655 95.0034 187.325C94.7535 186.984 94.4153 186.804 93.9922 186.788ZM93.762 191.644C92.8334 191.595 92.191 191.141 91.8372 190.281C91.6626 189.859 91.5933 189.421 91.6316 188.966L91.6453 188.761C91.6786 188.268 91.8049 187.827 92.0241 187.446C92.2443 187.063 92.5315 186.771 92.8894 186.568C93.2469 186.364 93.6257 186.275 94.0232 186.304C94.6482 186.347 95.127 186.595 95.4639 187.044C95.8017 187.496 95.944 188.091 95.8933 188.83L95.871 189.148L92.2047 188.896L92.196 189.005C92.1564 189.587 92.29 190.085 92.5972 190.494C92.9054 190.907 93.3125 191.13 93.8189 191.164C94.0985 191.189 94.371 191.153 94.6359 191.054C94.8758 190.959 95.1 190.797 95.3053 190.565L95.6434 190.86C95.184 191.437 94.5579 191.697 93.762 191.644ZM104.156 187.834C104.136 187 103.932 186.351 103.543 185.886C103.154 185.422 102.632 185.198 101.975 185.213C101.331 185.229 100.823 185.477 100.452 185.96C100.081 186.444 99.9052 187.111 99.9248 187.962L99.9422 188.686C99.9608 189.509 100.166 190.155 100.559 190.628C100.95 191.1 101.472 191.327 102.128 191.314C102.789 191.297 103.302 191.048 103.663 190.565C104.023 190.081 104.193 189.416 104.173 188.569L104.156 187.834ZM104.759 188.574C104.773 189.21 104.676 189.775 104.468 190.262C104.259 190.751 103.951 191.128 103.549 191.4C103.121 191.681 102.651 191.821 102.139 191.823C101.33 191.841 100.67 191.567 100.158 190.998C99.6453 190.433 99.3791 189.656 99.3554 188.672L99.3381 187.957C99.3244 187.325 99.4237 186.763 99.6366 186.269C99.8469 185.777 100.155 185.395 100.559 185.125C100.983 184.843 101.452 184.7 101.962 184.699C102.497 184.685 102.97 184.803 103.383 185.052C103.797 185.298 104.121 185.654 104.354 186.119C104.588 186.584 104.715 187.126 104.74 187.745L104.759 188.574ZM108.424 186.689C108.295 186.677 108.165 186.675 108.036 186.686C107.7 186.704 107.409 186.828 107.161 187.054C106.932 187.273 106.78 187.574 106.706 187.958L106.984 191.488L106.42 191.532L106.012 186.394L106.567 186.351L106.642 187.166C106.894 186.534 107.353 186.192 108.016 186.139C108.146 186.123 108.273 186.134 108.398 186.171L108.424 186.689ZM109.92 188.691C110.006 189.344 110.202 189.841 110.513 190.184C110.821 190.525 111.215 190.665 111.69 190.605C112.384 190.514 112.839 190.138 113.047 189.478L112.74 187.101C112.585 186.809 112.363 186.582 112.07 186.425C111.774 186.28 111.465 186.234 111.141 186.285C110.665 186.347 110.319 186.581 110.104 186.99C109.887 187.397 109.826 187.964 109.92 188.691ZM109.336 188.667C109.232 187.867 109.329 187.21 109.622 186.696C109.914 186.182 110.366 185.886 110.973 185.807C111.668 185.717 112.233 185.926 112.667 186.434L112.599 185.695L113.128 185.625L113.777 190.633C113.862 191.291 113.745 191.836 113.427 192.267C113.108 192.699 112.635 192.956 112.006 193.037C111.65 193.083 111.299 193.048 110.956 192.93C110.628 192.825 110.347 192.647 110.111 192.394L110.383 192.013C110.846 192.454 111.354 192.637 111.906 192.565C112.379 192.504 112.729 192.317 112.955 192.003C113.185 191.691 113.271 191.287 113.215 190.79L113.133 190.149C112.837 190.7 112.343 191.019 111.651 191.11C111.051 191.203 110.545 191.027 110.132 190.586C109.711 190.16 109.45 189.545 109.346 188.742L109.336 188.667ZM116.886 189.775C117.26 189.704 117.578 189.548 117.838 189.311C118.098 189.074 118.264 188.79 118.342 188.462L118.128 187.349L117.125 187.541C116.57 187.656 116.152 187.842 115.877 188.099C115.599 188.358 115.495 188.66 115.561 189.007C115.61 189.293 115.76 189.509 116.013 189.652C116.259 189.8 116.551 189.841 116.886 189.775ZM118.722 189.839C118.634 189.691 118.554 189.463 118.478 189.153C118.331 189.447 118.12 189.692 117.843 189.889C117.562 190.088 117.254 190.221 116.917 190.284C116.43 190.377 116.012 190.319 115.656 190.104C115.294 189.89 115.078 189.577 115.009 189.162C114.913 188.669 115.044 188.239 115.399 187.873C115.754 187.507 116.297 187.254 117.03 187.114L118.044 186.919L117.934 186.343C117.864 185.981 117.697 185.718 117.435 185.553C117.173 185.389 116.828 185.347 116.401 185.431C116.012 185.505 115.708 185.667 115.49 185.915C115.273 186.164 115.192 186.429 115.245 186.71L114.683 186.813C114.606 186.412 114.726 186.025 115.044 185.66C115.361 185.293 115.792 185.057 116.338 184.951C116.903 184.844 117.376 184.899 117.754 185.12C118.134 185.339 118.377 185.699 118.483 186.203L118.944 188.598C119.038 189.089 119.16 189.446 119.31 189.668L119.321 189.724L118.722 189.839ZM120.156 184.239L120.392 185.086C120.501 184.731 120.675 184.439 120.914 184.204C121.158 183.966 121.448 183.806 121.778 183.726C122.314 183.587 122.75 183.635 123.089 183.872C123.427 184.106 123.676 184.524 123.834 185.126L124.672 188.402L124.123 188.543L123.284 185.262C123.166 184.817 122.985 184.508 122.745 184.337C122.501 184.168 122.177 184.135 121.767 184.239C121.424 184.322 121.15 184.507 120.942 184.793C120.736 185.074 120.615 185.411 120.581 185.806L121.458 189.226L120.908 189.366L119.63 184.374L120.156 184.239ZM126.873 187.735L126.326 187.901L124.832 182.969L125.378 182.804L126.873 187.735ZM124.305 181.573C124.272 181.474 124.279 181.376 124.326 181.282C124.372 181.192 124.451 181.127 124.566 181.094C124.682 181.059 124.784 181.065 124.875 181.116C124.964 181.166 125.024 181.243 125.057 181.347C125.087 181.449 125.08 181.544 125.032 181.634C124.978 181.733 124.896 181.795 124.788 181.823C124.672 181.857 124.57 181.851 124.483 181.802C124.391 181.75 124.333 181.675 124.305 181.573ZM128.705 186.654L131.867 185.556L132.024 186.009L128.198 187.34L128.059 186.944L129.62 181.915L126.759 182.908L126.597 182.44L130.136 181.209L130.277 181.614L128.705 186.654ZM134.406 184.615C134.748 184.48 135.027 184.264 135.246 183.969C135.451 183.685 135.559 183.374 135.569 183.038L135.135 181.988L134.194 182.378C133.671 182.6 133.3 182.866 133.081 183.176C132.861 183.485 132.818 183.802 132.954 184.128C133.058 184.399 133.249 184.579 133.524 184.669C133.796 184.765 134.09 184.747 134.406 184.615ZM136.216 184.309C136.102 184.182 135.976 183.974 135.842 183.686C135.755 184.009 135.595 184.293 135.366 184.535C135.13 184.787 134.856 184.977 134.538 185.108C134.08 185.296 133.656 185.322 133.268 185.183C132.869 185.047 132.596 184.783 132.442 184.391C132.235 183.92 132.277 183.474 132.568 183.051C132.843 182.621 133.323 182.264 134.014 181.979L134.969 181.584L134.744 181.043C134.606 180.703 134.39 180.479 134.098 180.37C133.807 180.261 133.463 180.289 133.06 180.455C132.693 180.607 132.43 180.826 132.265 181.114C132.103 181.401 132.076 181.675 132.184 181.94L131.655 182.155C131.499 181.776 131.538 181.375 131.776 180.95C132.014 180.531 132.39 180.212 132.903 180C133.434 179.78 133.908 179.742 134.324 179.879C134.741 180.018 135.05 180.324 135.255 180.796L136.186 183.051C136.376 183.511 136.568 183.836 136.759 184.025L136.782 184.077L136.216 184.309ZM136.257 177.181L136.819 178.373L137.783 177.92L137.983 178.341L137.018 178.797L138.48 181.908C138.603 182.166 138.739 182.337 138.892 182.42C139.044 182.502 139.231 182.492 139.449 182.389C139.536 182.348 139.667 182.268 139.848 182.149L140.066 182.558C139.912 182.699 139.739 182.808 139.548 182.891C139.197 183.058 138.888 183.074 138.631 182.947C138.374 182.815 138.152 182.552 137.964 182.152L136.501 179.04L135.642 179.443L135.444 179.021L136.302 178.618L135.741 177.423L136.257 177.181ZM141.711 181.711L141.201 181.97L138.867 177.375L139.375 177.116L141.711 181.711ZM138.102 176.095C138.053 176.001 138.043 175.904 138.073 175.804C138.107 175.696 138.174 175.62 138.277 175.575C138.375 175.519 138.478 175.509 138.584 175.544C138.684 175.578 138.758 175.643 138.802 175.738C138.851 175.833 138.86 175.93 138.83 176.027C138.793 176.133 138.725 176.207 138.624 176.253C138.527 176.31 138.424 176.32 138.319 176.287C138.219 176.253 138.148 176.189 138.102 176.095ZM142.264 178.618C142.566 179.153 142.955 179.516 143.426 179.703C143.904 179.904 144.365 179.869 144.81 179.603C145.257 179.35 145.523 178.973 145.605 178.471C145.69 177.97 145.571 177.437 145.255 176.872L145.2 176.778C145.006 176.434 144.766 176.157 144.477 175.944C144.209 175.737 143.905 175.617 143.569 175.584C143.239 175.558 142.934 175.63 142.649 175.795C142.195 176.04 141.931 176.417 141.86 176.927C141.777 177.432 141.895 177.966 142.211 178.527L142.264 178.618ZM141.689 178.762C141.452 178.358 141.316 177.923 141.281 177.456C141.254 177.016 141.338 176.614 141.535 176.248C141.73 175.883 142.024 175.592 142.41 175.374C143.008 175.035 143.61 174.971 144.216 175.18C144.823 175.39 145.322 175.84 145.713 176.533L145.771 176.636C146.016 177.069 146.154 177.506 146.18 177.95C146.215 178.375 146.131 178.776 145.928 179.15C145.718 179.526 145.424 179.816 145.045 180.022C144.453 180.357 143.85 180.422 143.242 180.212C142.635 180.004 142.135 179.553 141.744 178.862L141.689 178.762ZM145.87 173.436L146.366 174.164C146.35 173.811 146.419 173.476 146.577 173.159C146.728 172.863 146.95 172.619 147.244 172.429C147.708 172.127 148.136 172.035 148.532 172.148C148.929 172.262 149.296 172.58 149.638 173.1L151.479 175.936L151.004 176.246L149.159 173.404C148.907 173.02 148.637 172.785 148.354 172.7C148.069 172.617 147.752 172.69 147.399 172.918C147.099 173.108 146.898 173.37 146.792 173.707C146.686 174.039 146.679 174.398 146.775 174.784L148.697 177.745L148.222 178.055L145.414 173.729L145.87 173.436ZM154.614 172.054C154.449 171.817 154.222 171.703 153.935 171.708C153.651 171.705 153.295 171.799 152.869 171.992C152.446 172.185 152.093 172.305 151.816 172.355C151.572 172.407 151.33 172.394 151.091 172.319C150.868 172.233 150.69 172.094 150.553 171.898C150.314 171.571 150.25 171.199 150.367 170.785C150.483 170.37 150.754 170.006 151.18 169.69C151.643 169.348 152.1 169.188 152.548 169.212C152.997 169.235 153.356 169.43 153.627 169.798L153.168 170.137C152.981 169.882 152.731 169.754 152.415 169.755C152.095 169.746 151.779 169.853 151.47 170.081C151.168 170.304 150.975 170.548 150.892 170.818C150.797 171.081 150.835 171.322 151.003 171.544C151.142 171.752 151.335 171.856 151.585 171.857C151.821 171.859 152.175 171.758 152.648 171.556C153.12 171.354 153.495 171.233 153.774 171.192C154.053 171.151 154.298 171.171 154.507 171.249C154.715 171.331 154.898 171.477 155.057 171.691C155.314 172.04 155.38 172.425 155.251 172.844C155.125 173.26 154.832 173.638 154.377 173.973C153.895 174.329 153.417 174.5 152.944 174.49C152.472 174.475 152.102 174.29 151.839 173.931L152.299 173.593C152.505 173.852 152.77 173.98 153.101 173.971C153.419 173.967 153.748 173.838 154.093 173.586C154.412 173.35 154.619 173.09 154.712 172.804C154.804 172.52 154.772 172.268 154.614 172.054ZM162.084 169.227L161.725 169.546L156.249 163.416L156.606 163.096L162.084 169.227ZM167.2 159.742C166.976 159.536 166.73 159.457 166.463 159.504C166.197 159.55 165.813 159.722 165.311 160.021C164.809 160.318 164.371 160.52 163.996 160.624C163.277 160.823 162.682 160.705 162.213 160.275C161.799 159.897 161.615 159.418 161.655 158.838C161.696 158.256 161.963 157.699 162.455 157.161C162.78 156.806 163.136 156.55 163.522 156.39C163.907 156.232 164.296 156.184 164.683 156.247C165.071 156.311 165.413 156.476 165.707 156.748L164.896 157.632C164.63 157.388 164.345 157.28 164.041 157.309C163.736 157.337 163.442 157.508 163.157 157.82C162.891 158.11 162.746 158.393 162.723 158.666C162.7 158.941 162.801 159.179 163.022 159.383C163.209 159.555 163.445 159.611 163.73 159.553C164.014 159.494 164.396 159.321 164.879 159.03C165.361 158.74 165.79 158.545 166.162 158.443C166.533 158.339 166.868 158.32 167.166 158.387C167.463 158.454 167.746 158.608 168.007 158.848C168.432 159.238 168.622 159.712 168.575 160.27C168.527 160.827 168.247 161.387 167.734 161.945C167.412 162.304 167.034 162.58 166.593 162.777C166.172 162.962 165.763 163.03 165.364 162.982C164.948 162.927 164.589 162.755 164.286 162.465L165.099 161.579C165.39 161.845 165.703 161.955 166.037 161.908C166.373 161.862 166.703 161.659 167.033 161.301C167.315 160.992 167.464 160.703 167.483 160.432C167.505 160.154 167.41 159.924 167.2 159.742ZM168.086 154.754C167.883 154.988 167.81 155.257 167.863 155.561C167.914 155.855 168.077 156.146 168.352 156.437L169.735 154.719L169.669 154.666C169.351 154.442 169.059 154.339 168.792 154.356C168.523 154.372 168.288 154.505 168.086 154.754ZM171.61 157.419C171.149 157.988 170.597 158.307 169.95 158.372C169.306 158.437 168.684 158.229 168.085 157.745L167.975 157.657C167.593 157.359 167.299 156.993 167.09 156.558C166.898 156.164 166.828 155.75 166.878 155.314C166.927 154.893 167.091 154.512 167.367 154.168C167.807 153.621 168.321 153.34 168.91 153.322C169.5 153.306 170.112 153.554 170.75 154.068L171.112 154.363L168.999 156.983C169.352 157.223 169.702 157.323 170.053 157.285C170.402 157.247 170.695 157.081 170.932 156.786C171.265 156.374 171.369 155.903 171.245 155.374L172.1 155.262C172.209 155.616 172.224 155.98 172.139 156.355C172.047 156.75 171.87 157.107 171.61 157.419ZM171.763 150.255C171.65 150.365 171.547 150.485 171.455 150.613C171.143 151.042 171.097 151.45 171.318 151.839L174.166 153.913L173.485 154.848L169.319 151.815L169.97 150.921L170.453 151.238C170.255 150.749 170.301 150.303 170.594 149.903C170.673 149.787 170.771 149.689 170.888 149.612L171.763 150.255ZM175.43 149.506L172.949 146.569L173.604 145.57L176.93 149.891L176.379 150.733L171.085 149.408L171.742 148.405L175.43 149.506ZM179.001 146.547L178.407 147.54L173.985 144.894L174.58 143.901L179.001 146.547ZM172.802 144.266C172.652 144.184 172.554 144.061 172.508 143.896C172.465 143.739 172.497 143.57 172.605 143.389C172.712 143.211 172.845 143.101 173.006 143.064C173.173 143.024 173.329 143.051 173.474 143.144C173.623 143.233 173.718 143.358 173.76 143.516C173.801 143.672 173.766 143.843 173.659 144.022C173.551 144.202 173.418 144.309 173.261 144.348C173.097 144.386 172.944 144.36 172.802 144.266ZM180.02 143.05C180.157 142.815 180.198 142.563 180.14 142.298C180.088 142.049 179.953 141.862 179.736 141.734L180.255 140.773C180.53 140.936 180.746 141.166 180.901 141.464C181.057 141.762 181.13 142.089 181.119 142.449C181.109 142.809 181.016 143.15 180.839 143.477C180.496 144.11 180.018 144.504 179.407 144.652C178.797 144.801 178.13 144.681 177.407 144.29L177.301 144.233C176.612 143.86 176.159 143.377 175.945 142.784C175.729 142.192 175.794 141.576 176.137 140.939C176.429 140.4 176.824 140.046 177.32 139.876C177.819 139.708 178.328 139.752 178.847 140.011L178.329 140.971C178.079 140.84 177.816 140.812 177.544 140.892C177.273 140.971 177.076 141.137 176.95 141.388C176.772 141.719 176.753 142.038 176.896 142.347C177.038 142.654 177.351 142.941 177.835 143.206L177.998 143.294C178.49 143.56 178.904 143.67 179.242 143.623C179.579 143.578 179.839 143.384 180.02 143.05ZM179.238 136.819C179.099 137.093 179.09 137.373 179.216 137.657C179.334 137.927 179.563 138.171 179.899 138.388L180.83 136.388L180.755 136.353C180.392 136.212 180.083 136.181 179.826 136.261C179.572 136.341 179.375 136.526 179.238 136.819ZM183.297 138.558C182.988 139.223 182.526 139.666 181.916 139.882C181.304 140.1 180.652 140.047 179.954 139.721L179.825 139.662C179.383 139.465 179.011 139.181 178.703 138.809C178.423 138.472 178.255 138.085 178.199 137.652C178.146 137.221 178.213 136.811 178.399 136.42C178.698 135.785 179.128 135.388 179.695 135.231C180.262 135.072 180.917 135.168 181.66 135.513L182.083 135.71L180.659 138.763C181.061 138.911 181.424 138.925 181.754 138.804C182.084 138.684 182.328 138.451 182.489 138.109C182.713 137.627 182.701 137.146 182.453 136.663L183.257 136.349C183.448 136.666 183.547 137.017 183.556 137.399C183.565 137.786 183.479 138.171 183.297 138.558ZM183.566 127.77C182.842 127.513 182.239 127.454 181.755 127.593C181.273 127.73 180.942 128.051 180.765 128.554C180.593 129.044 180.65 129.497 180.936 129.91C181.223 130.323 181.717 130.655 182.417 130.91L182.795 131.044C183.513 131.298 184.119 131.354 184.608 131.211C185.099 131.07 185.434 130.751 185.608 130.254C185.786 129.752 185.729 129.297 185.442 128.889C185.155 128.483 184.644 128.15 183.908 127.89L183.566 127.77ZM184.308 126.754C184.95 126.98 185.472 127.289 185.877 127.683C186.283 128.074 186.543 128.522 186.655 129.026C186.769 129.557 186.732 130.074 186.541 130.585C186.37 131.097 186.075 131.523 185.654 131.864C185.228 132.198 184.746 132.39 184.207 132.435C183.65 132.493 183.056 132.411 182.428 132.192L182.061 132.062C181.424 131.838 180.901 131.526 180.494 131.127C180.096 130.754 179.835 130.305 179.71 129.773C179.596 129.271 179.633 128.754 179.823 128.219C180.011 127.688 180.304 127.261 180.706 126.939C181.108 126.617 181.589 126.43 182.147 126.374C182.708 126.32 183.306 126.404 183.945 126.626L184.308 126.754ZM184.581 122.825C184.514 122.965 184.458 123.111 184.414 123.267C184.268 123.777 184.363 124.177 184.702 124.466L188.089 125.443L187.767 126.555L182.818 125.127L183.124 124.066L183.685 124.197C183.332 123.805 183.224 123.37 183.362 122.896C183.398 122.758 183.456 122.634 183.54 122.52L184.581 122.825ZM186.537 121.548C187.041 121.665 187.461 121.655 187.798 121.517C188.148 121.382 188.359 121.131 188.432 120.762C188.537 120.309 188.421 119.925 188.084 119.615L185.876 119.1C185.446 119.224 185.177 119.514 185.071 119.968C184.972 120.336 185.051 120.658 185.31 120.936C185.556 121.211 185.965 121.413 186.537 121.548ZM186.179 122.648C185.399 122.465 184.82 122.136 184.44 121.662C184.061 121.188 183.941 120.647 184.082 120.041C184.216 119.468 184.52 119.065 184.997 118.83L184.502 118.662L184.738 117.645L189.603 118.779C190.261 118.934 190.732 119.261 191.017 119.759C191.301 120.258 191.363 120.855 191.201 121.551C191.115 121.919 190.954 122.262 190.721 122.575C190.484 122.891 190.221 123.11 189.933 123.235L189.38 122.544C189.873 122.293 190.177 121.915 190.297 121.407C190.382 121.034 190.352 120.715 190.199 120.45C190.046 120.186 189.775 120.009 189.381 119.916L189.043 119.839C189.329 120.247 189.409 120.723 189.282 121.263C189.145 121.852 188.801 122.278 188.246 122.54C187.693 122.804 187.003 122.841 186.179 122.648ZM189.52 115.455C189.558 115.229 189.538 115.007 189.463 114.79C189.392 114.58 189.271 114.404 189.096 114.268L188.14 114.106L188.036 114.721C187.964 115.145 187.984 115.474 188.095 115.712C188.206 115.959 188.397 116.101 188.666 116.137C188.872 116.181 189.059 116.138 189.225 116.007C189.381 115.883 189.478 115.699 189.52 115.455ZM190.552 114.337C190.447 114.373 190.282 114.389 190.056 114.39C190.373 114.818 190.488 115.294 190.4 115.821C190.313 116.331 190.098 116.722 189.752 116.996C189.412 117.278 189.025 117.379 188.592 117.298C188.049 117.207 187.669 116.935 187.445 116.485C187.223 116.033 187.176 115.433 187.303 114.685L187.42 113.986L187.088 113.927C186.824 113.884 186.6 113.921 186.419 114.043C186.235 114.164 186.118 114.376 186.069 114.674C186.018 114.908 186.046 115.132 186.155 115.347C186.258 115.533 186.408 115.645 186.608 115.677L186.416 116.819C186.124 116.768 185.879 116.632 185.681 116.41C185.46 116.166 185.31 115.883 185.237 115.562C185.151 115.197 185.144 114.83 185.211 114.462C185.31 113.868 185.542 113.418 185.898 113.114C186.257 112.812 186.707 112.7 187.251 112.782L189.541 113.168C189.999 113.246 190.374 113.243 190.67 113.16L190.749 113.174L190.552 114.337ZM185.91 110.293L186.506 110.321C186.087 109.895 185.911 109.374 185.976 108.758C186.09 107.69 186.757 107.212 187.981 107.322L191.367 107.682L191.245 108.833L187.927 108.48C187.601 108.446 187.354 108.492 187.181 108.613C187.01 108.74 186.907 108.961 186.875 109.278C186.825 109.743 186.998 110.111 187.393 110.383L191.038 110.771L190.918 111.921L185.794 111.378L185.91 110.293ZM191.524 105.077L191.452 106.233L186.311 105.92L186.38 104.765L191.524 105.077ZM184.971 105.91C184.799 105.905 184.656 105.841 184.539 105.716C184.429 105.596 184.379 105.43 184.393 105.222C184.405 105.011 184.473 104.855 184.598 104.746C184.73 104.635 184.879 104.586 185.05 104.602C185.22 104.607 185.361 104.674 185.475 104.801C185.584 104.921 185.632 105.088 185.618 105.296C185.607 105.505 185.539 105.664 185.415 105.769C185.288 105.878 185.139 105.925 184.971 105.91ZM190.707 102.383L190.76 99.6403L191.683 99.6577L191.602 103.84L190.847 103.825L187.434 101.144L187.387 103.712L186.452 103.693L186.53 99.66L187.263 99.6737L190.707 102.383ZM190.769 96.7413C190.761 96.512 190.697 96.3003 190.578 96.1033C190.467 95.9117 190.312 95.7653 190.113 95.665L189.144 95.7023L189.167 96.3263C189.182 96.7537 189.27 97.073 189.427 97.2823C189.584 97.493 189.8 97.592 190.07 97.5833C190.283 97.5847 190.458 97.504 190.593 97.342C190.721 97.1883 190.779 96.989 190.769 96.7413ZM191.553 95.4397C191.403 95.5127 191.243 95.5637 191.078 95.5907C191.476 95.9437 191.686 96.387 191.704 96.9207C191.724 97.4373 191.593 97.8656 191.31 98.205C191.029 98.542 190.669 98.719 190.234 98.735C189.686 98.756 189.256 98.569 188.948 98.1716C188.64 97.774 188.47 97.197 188.443 96.439L188.416 95.7283L188.078 95.742C187.81 95.753 187.601 95.8347 187.445 95.9897C187.292 96.1457 187.219 96.3746 187.231 96.6806C187.23 96.9196 187.304 97.1326 187.454 97.3196C187.59 97.483 187.762 97.5596 187.964 97.5536L188.008 98.7113C187.713 98.72 187.444 98.636 187.206 98.459C186.938 98.2657 186.736 98.018 186.597 97.717C186.44 97.3777 186.357 97.021 186.349 96.647C186.326 96.044 186.459 95.5573 186.75 95.1883C187.038 94.8167 187.456 94.6173 188.005 94.5863L190.327 94.4987C190.79 94.4813 191.157 94.402 191.427 94.262L191.509 94.2597L191.553 95.4397ZM184.899 92.1357L186.147 92.028L186.069 91.1216L186.923 91.0483L187.001 91.9537L189.865 91.7073C190.062 91.69 190.2 91.639 190.281 91.5537C190.36 91.4697 190.392 91.327 190.374 91.1277C190.361 90.9917 190.335 90.8576 190.292 90.7276L191.186 90.651C191.28 90.9087 191.339 91.1573 191.359 91.4013C191.436 92.288 190.985 92.7723 190.006 92.8563L187.101 93.1067L187.173 93.9523L186.319 94.0266L186.247 93.181L184.997 93.2887L184.899 92.1357ZM190.941 88.4403L191.078 89.5897L185.962 90.2003L185.825 89.051L190.941 88.4403ZM184.642 90.4293C184.473 90.4553 184.32 90.417 184.182 90.3153C184.054 90.2163 183.976 90.0626 183.95 89.8546C183.925 89.6466 183.965 89.4793 184.069 89.352C184.175 89.218 184.316 89.144 184.487 89.129C184.655 89.103 184.805 89.144 184.94 89.248C185.067 89.3483 185.147 89.5017 185.17 89.7097C185.195 89.918 185.155 90.0837 185.055 90.21C184.948 90.3413 184.81 90.4143 184.642 90.4293ZM188.128 86.479C188.651 86.3923 189.042 86.215 189.302 85.95C189.562 85.684 189.66 85.3593 189.595 84.9743C189.547 84.588 189.346 84.313 188.995 84.1483C188.659 83.9847 188.2 83.95 187.622 84.0467C187.109 84.1323 186.72 84.3093 186.456 84.5803C186.18 84.8503 186.08 85.176 186.155 85.5563C186.206 85.9327 186.403 86.2053 186.747 86.37C187.079 86.5407 187.539 86.5753 188.128 86.479ZM188.22 87.6357C187.721 87.7197 187.257 87.6963 186.824 87.5636C186.403 87.4437 186.05 87.2183 185.765 86.885C185.48 86.5433 185.304 86.1507 185.238 85.7087C185.124 85.0227 185.253 84.4293 185.623 83.9267C185.993 83.4263 186.54 83.098 187.264 82.941L187.532 82.8937C188.001 82.807 188.464 82.8293 188.923 82.9593C189.349 83.0847 189.7 83.311 189.978 83.633C190.252 83.9563 190.43 84.3526 190.506 84.822C190.625 85.5403 190.483 86.1533 190.077 86.6633C189.671 87.1737 189.07 87.4957 188.276 87.627L188.22 87.6357ZM184.505 81.3583L185.078 81.191C184.541 80.9247 184.206 80.489 184.066 79.887C183.823 78.8407 184.297 78.1693 185.491 77.8733L188.807 77.1043L189.068 78.23L185.817 78.9857C185.498 79.0597 185.279 79.1823 185.156 79.3557C185.036 79.5303 185.012 79.772 185.085 80.0853C185.19 80.5397 185.473 80.8307 185.936 80.957L189.507 80.1287L189.77 81.2567L184.752 82.4206L184.505 81.3583ZM186.269 73.3387C186.068 73.3893 185.941 73.5157 185.89 73.7163C185.832 73.9107 185.822 74.208 185.856 74.608C185.888 75.0103 185.881 75.3533 185.833 75.643C185.731 76.276 185.425 76.6697 184.918 76.8197C184.491 76.946 184.081 76.873 183.69 76.5966C183.296 76.323 183.019 75.9093 182.853 75.356C182.679 74.764 182.684 74.2437 182.869 73.793C183.051 73.3437 183.377 73.0487 183.842 72.9113L184.171 74.021C183.957 74.079 183.802 74.2116 183.709 74.4146C183.614 74.6153 183.607 74.847 183.685 75.1083C183.758 75.352 183.872 75.5343 184.03 75.6557C184.187 75.7807 184.36 75.8127 184.551 75.751C184.726 75.705 184.837 75.5936 184.884 75.419C184.936 75.247 184.945 74.93 184.912 74.4667C184.879 74.0023 184.892 73.626 184.951 73.3397C184.995 73.081 185.099 72.8493 185.263 72.645C185.434 72.457 185.641 72.3293 185.885 72.265C186.331 72.1323 186.746 72.209 187.128 72.4963C187.515 72.7827 187.794 73.2247 187.972 73.8217C188.091 74.2263 188.126 74.608 188.073 74.9683C188.031 75.31 187.903 75.617 187.69 75.8883C187.486 76.1397 187.237 76.3107 186.943 76.3973L186.622 75.32C186.881 75.2257 187.053 75.0673 187.141 74.843C187.227 74.619 187.226 74.3553 187.137 74.0557C187.05 73.762 186.928 73.5567 186.773 73.4363C186.622 73.3127 186.454 73.2803 186.269 73.3387ZM50.5749 75.7647H63.0346L56.8048 58.8373L50.5749 75.7647ZM63.8662 77.9837H49.763L46.5631 86.7143H43.8114L55.567 55.635H58.0635L69.8189 86.7143H67.0884L63.8662 77.9837ZM74.525 86.7143H77.1492V55.635H74.525V86.7143ZM107.136 77.024C106.782 80.297 105.611 82.8023 103.626 84.5383C101.643 86.2733 99.0003 87.1413 95.7004 87.1413C93.3968 87.1413 91.3594 86.5657 89.5869 85.4127C87.818 84.2597 86.4476 82.6277 85.4811 80.5137C84.5128 78.3997 84.0227 75.985 84.0091 73.2653V69.2333C84.0091 66.4717 84.4919 64.0247 85.4587 61.8887C86.4266 59.755 87.818 58.108 89.6302 56.9487C91.4447 55.7883 93.5317 55.209 95.8933 55.209C99.2218 55.209 101.849 56.1053 103.776 57.8987C105.704 59.6903 106.823 62.1747 107.136 65.3487H104.49C103.838 60.0683 100.971 57.428 95.8933 57.428C93.0763 57.428 90.8333 58.482 89.1611 60.5907C87.4898 62.6983 86.6545 65.611 86.6545 69.3263V73.1307C86.6545 76.7193 87.4675 79.5813 89.0968 81.7173C90.7257 83.8523 92.9277 84.921 95.7004 84.921C98.4458 84.921 100.515 84.2633 101.91 82.947C103.303 81.6306 104.164 79.6567 104.49 77.024H107.136ZM115.703 71.8376H123.662C126.207 71.8376 128.149 71.231 129.487 70.0183C130.823 68.8087 131.493 67.1193 131.493 64.9537C131.493 62.8 130.828 61.086 129.497 59.8107C128.167 58.5363 126.278 57.885 123.832 57.8553H115.703V71.8376ZM115.703 74.0567V86.7143H113.08V55.635H123.662C126.891 55.635 129.44 56.461 131.31 58.1117C133.181 59.7623 134.117 62.031 134.117 64.92C134.117 67.8377 133.216 70.089 131.417 71.6767C129.619 73.263 127.012 74.0567 123.598 74.0567H115.703ZM140.079 75.7647H152.54L146.31 58.8373L140.079 75.7647ZM153.374 77.9837H139.269L136.069 86.7143H133.316L145.074 55.635H147.568L159.325 86.7143H156.594L153.374 77.9837ZM81.5968 129.549C81.5968 127.827 80.9928 126.465 79.7833 125.461C78.5752 124.458 76.3619 123.505 73.1487 122.6C69.9341 121.697 67.5859 120.712 66.1082 119.645C64.0025 118.137 62.9503 116.159 62.9503 113.711C62.9503 111.334 63.9272 109.402 65.8827 107.915C67.8384 106.429 70.34 105.685 73.3839 105.685C75.446 105.685 77.2905 106.083 78.9194 106.88C80.5483 107.677 81.8121 108.787 82.707 110.21C83.6033 111.634 84.0514 113.22 84.0514 114.97H81.4049C81.4049 112.844 80.6796 111.135 79.2289 109.842C77.7782 108.55 75.8298 107.905 73.3839 107.905C71.0073 107.905 69.1158 108.435 67.7085 109.498C66.2988 110.56 65.5954 111.945 65.5954 113.656C65.5954 115.238 66.2282 116.528 67.4956 117.526C68.7593 118.523 70.7881 119.403 73.5745 120.165C76.3619 120.928 78.4749 121.718 79.9119 122.538C81.3493 123.356 82.4311 124.333 83.1538 125.471C83.8805 126.612 84.2433 127.956 84.2433 129.506C84.2433 131.954 83.2654 133.918 81.3096 135.397C79.3539 136.878 76.7767 137.617 73.5758 137.617C71.3848 137.617 69.3747 137.226 67.5476 136.443C65.7207 135.661 64.333 134.565 63.3874 133.155C62.4415 131.747 61.9678 130.133 61.9678 128.311H64.5919C64.5919 130.502 65.4112 132.232 67.0464 133.499C68.6814 134.765 70.8587 135.397 73.5758 135.397C75.9921 135.397 77.9342 134.864 79.3995 133.796C80.8652 132.731 81.5968 131.313 81.5968 129.549ZM109.793 119.964C109.793 116.223 108.946 113.291 107.254 111.171C105.562 109.049 103.243 107.989 100.3 107.989C97.411 107.989 95.1097 109.054 93.3968 111.181C91.6812 113.308 90.8256 116.279 90.8256 120.093V123.338C90.8256 127.024 91.6786 129.944 93.3855 132.1C95.0924 134.254 97.411 135.334 100.341 135.334C103.314 135.334 105.633 134.27 107.296 132.142C108.961 130.016 109.794 127.053 109.794 123.253L109.793 119.964ZM112.417 123.338C112.418 126.197 111.923 128.71 110.934 130.872C109.946 133.035 108.535 134.701 106.699 135.868C104.864 137.035 102.745 137.617 100.341 137.617C96.714 137.617 93.7843 136.318 91.5513 133.723C89.317 131.126 88.2015 127.621 88.2015 123.209V120.008C88.2015 117.176 88.7029 114.668 89.7055 112.482C90.7084 110.3 92.1281 108.62 93.9626 107.446C95.7967 106.272 97.9084 105.685 100.299 105.685C102.688 105.685 104.797 106.261 106.625 107.415C108.452 108.565 109.863 110.196 110.86 112.301C111.856 114.408 112.376 116.849 112.418 119.624L112.417 123.338ZM140.592 127.499C140.237 130.773 139.066 133.277 137.083 135.014C135.097 136.749 132.456 137.617 129.156 137.617C126.852 137.617 124.814 137.04 123.045 135.889C121.272 134.736 119.904 133.103 118.937 130.99C117.968 128.876 117.478 126.461 117.465 123.743V119.708C117.465 116.949 117.949 114.499 118.915 112.366C119.882 110.232 121.272 108.584 123.086 107.423C124.9 106.264 126.987 105.685 129.347 105.685C132.677 105.685 135.304 106.581 137.231 108.373C139.158 110.166 140.278 112.649 140.592 115.825H137.947C137.292 110.544 134.426 107.904 129.347 107.904C126.533 107.904 124.289 108.959 122.617 111.067C120.944 113.174 120.11 116.087 120.11 119.803V123.605C120.11 127.194 120.923 130.058 122.552 132.192C124.182 134.329 126.382 135.397 129.156 135.397C131.901 135.397 133.971 134.739 135.366 133.423C136.759 132.107 137.619 130.133 137.947 127.499H140.592Z" fill="white"/>
<path d="M42.8477 96.8135H161.256" stroke="white" stroke-width="0.0977073" stroke-linecap="round" stroke-linejoin="round"/>
<path fill-rule="evenodd" clip-rule="evenodd" d="M60.5349 154.405C60.8557 154.405 61.1599 154.323 61.4471 154.157C61.7233 154.006 61.9326 153.791 62.0735 153.508V152.279H61.2702C60.0164 152.279 59.3887 152.647 59.3887 153.381C59.3887 153.703 59.4953 153.954 59.7092 154.134C59.9235 154.316 60.1997 154.405 60.5349 154.405ZM62.2344 155.188C62.1751 155.069 62.1268 154.858 62.0895 154.556C61.6144 155.05 61.0463 155.298 60.3839 155.298C59.7949 155.298 59.3094 155.131 58.9319 154.796C58.5408 154.463 58.3515 154.039 58.3638 153.525C58.3638 152.902 58.6014 152.417 59.0755 152.072C59.5496 151.726 60.218 151.553 61.076 151.553H62.0735V151.084C62.0735 150.725 61.9672 150.44 61.753 150.227C61.5387 150.015 61.2232 149.909 60.8061 149.909C60.4396 149.909 60.134 150 59.8865 150.186C59.6399 150.369 59.5163 150.593 59.5163 150.856H58.4851C58.4851 150.559 58.5917 150.268 58.8047 149.99C59.0359 149.694 59.3231 149.474 59.6673 149.327C60.0498 149.161 60.4496 149.079 60.8667 149.084C61.5561 149.084 62.0972 149.256 62.4893 149.601C62.8795 149.946 63.0824 150.421 63.0974 151.027V153.786C63.0974 154.336 63.1677 154.774 63.3089 155.099V155.188H62.2344ZM64.5084 155.188H65.5319V149.194H64.5084V155.188ZM64.4241 147.605C64.4241 147.439 64.4761 147.298 64.5777 147.183C64.679 147.069 64.8302 147.011 65.0282 147.011C65.2274 147.011 65.3787 147.069 65.4836 147.183C65.5866 147.298 65.6385 147.439 65.6385 147.605C65.6422 147.765 65.5902 147.902 65.4836 148.02C65.3787 148.131 65.2274 148.187 65.0282 148.187C64.8302 148.187 64.679 148.131 64.5777 148.02C64.4711 147.902 64.4191 147.765 64.4241 147.605ZM69.2899 154.462C69.655 154.462 69.9732 154.351 70.2481 154.129C70.5217 153.918 70.6726 153.642 70.7009 153.298H71.6701C71.6468 153.66 71.5292 153.987 71.315 154.278C71.0984 154.587 70.8062 154.837 70.4447 155.022C70.0822 155.206 69.6974 155.299 69.2899 155.298C68.4743 155.298 67.8255 155.025 67.3428 154.482C66.8627 153.936 66.6211 153.193 66.6211 152.247V152.074C66.6211 151.49 66.7277 150.974 66.943 150.518C67.1572 150.063 67.464 149.71 67.8639 149.46C68.265 149.209 68.7378 149.084 69.2839 149.084C69.9559 149.084 70.5143 149.284 70.9598 149.686C71.4043 150.091 71.6405 150.612 71.6701 151.255H70.7009C70.6826 150.877 70.5363 150.559 70.2618 150.3C69.9869 150.04 69.6614 149.915 69.2839 149.926C68.7638 149.926 68.3603 150.113 68.0744 150.487C67.7886 150.863 67.645 151.403 67.645 152.113V152.307C67.645 152.998 67.7872 153.53 68.0721 153.902C68.3566 154.276 68.7615 154.462 69.2899 154.462ZM76.5746 152.141C76.5746 151.465 76.4296 150.931 76.1424 150.54C75.8539 150.148 75.4591 149.952 74.958 149.952C74.3376 149.952 73.8725 150.228 73.5616 150.778V153.641C73.8685 154.188 74.3376 154.461 74.969 154.461C75.4591 154.461 75.8502 154.266 76.1401 153.876C76.4283 153.486 76.5746 152.909 76.5746 152.141ZM77.5981 152.256C77.5981 153.169 77.3902 153.904 76.9731 154.461C76.5559 155.019 75.9915 155.298 75.2785 155.298C74.5505 155.298 73.9788 155.066 73.5616 154.606V157.491H72.5381V149.194H73.4736L73.5233 149.859C73.9404 149.343 74.5198 149.084 75.2625 149.084C75.9815 149.084 76.5509 149.355 76.9694 149.897C77.3889 150.44 77.5981 151.195 77.5981 152.162V152.256ZM80.6147 154.405C80.9339 154.405 81.2398 154.323 81.5283 154.157C81.8042 154.006 82.0134 153.791 82.1534 153.508V152.279H81.3511C80.096 152.279 79.4686 152.647 79.4686 153.381C79.4686 153.703 79.5749 153.954 79.7891 154.134C80.003 154.316 80.2779 154.405 80.6147 154.405ZM82.3143 155.188C82.2547 155.069 82.2063 154.858 82.1707 154.556C81.6929 155.05 81.1245 155.298 80.4648 155.298C79.8744 155.298 79.3893 155.131 79.0118 154.796C78.6206 154.462 78.4311 154.039 78.4434 153.525C78.4434 152.902 78.6813 152.417 79.1554 152.072C79.6295 151.726 80.2965 151.553 81.1568 151.553H82.1534V151.084C82.1534 150.725 82.0454 150.44 81.8338 150.227C81.6173 150.015 81.3028 149.909 80.8856 149.909C80.5194 149.909 80.2136 150 79.9674 150.186C79.7198 150.369 79.5949 150.593 79.5949 150.856H78.565C78.565 150.559 78.6726 150.268 78.8842 149.99C79.1144 149.694 79.403 149.474 79.7481 149.327C80.1306 149.161 80.5291 149.079 80.9463 149.084C81.6369 149.084 82.178 149.256 82.5678 149.601C82.959 149.946 83.1632 150.421 83.1782 151.027V153.786C83.1782 154.336 83.2475 154.774 83.3875 155.099V155.188H82.3143ZM84.5213 154.649C84.5213 154.473 84.5743 154.325 84.6782 154.207C84.7848 154.088 84.9421 154.029 85.1537 154.029C85.3629 154.029 85.5225 154.088 85.6301 154.207C85.7454 154.332 85.7997 154.481 85.7947 154.649C85.7997 154.815 85.7441 154.956 85.6301 155.076C85.5225 155.191 85.3629 155.248 85.1537 155.248C84.9421 155.248 84.7848 155.191 84.6782 155.076C84.5696 154.955 84.5163 154.812 84.5213 154.649ZM87.9574 152.256C87.9574 152.922 88.112 153.455 88.4202 153.859C88.7297 154.26 89.1432 154.461 89.658 154.461C90.1781 154.461 90.5915 154.256 90.8984 153.849C91.2039 153.442 91.3575 152.869 91.3575 152.135C91.3575 151.479 91.2029 150.945 90.8897 150.538C90.5829 150.115 90.1694 149.911 89.6483 149.926C89.1419 149.926 88.7334 150.127 88.4238 150.529C88.1133 150.931 87.9574 151.507 87.9574 152.256ZM86.9289 152.135C86.9289 151.548 87.0438 151.021 87.2754 150.551C87.5056 150.082 87.8275 149.72 88.2369 149.465C88.6494 149.211 89.1195 149.083 89.647 149.083C90.4639 149.083 91.1223 149.366 91.6261 149.931C92.1298 150.497 92.3824 151.246 92.3824 152.186V152.256C92.3824 152.841 92.2698 153.364 92.0469 153.827C91.834 154.282 91.5148 154.643 91.089 154.91C90.6495 155.178 90.1731 155.308 89.658 155.298C88.8473 155.298 88.1876 155.014 87.6848 154.451C87.1811 153.885 86.9289 153.138 86.9289 152.208V152.135ZM96.2779 150.113C96.1107 150.087 95.9424 150.074 95.7742 150.076C95.1018 150.076 94.6464 150.362 94.4075 150.934V155.186H93.3826V149.194H94.3791L94.3951 149.886C94.7306 149.351 95.2098 149.084 95.8248 149.084C96.0227 149.084 96.175 149.11 96.2779 149.161V150.113ZM97.7213 152.256C97.7213 152.934 97.8599 153.463 98.1371 153.85C98.4143 154.234 98.8018 154.429 99.2992 154.429C99.9456 154.429 100.419 154.134 100.722 153.548V150.811C100.408 150.239 99.9379 149.952 99.3106 149.952C98.8118 149.952 98.423 150.148 98.1421 150.535C97.8622 150.922 97.7213 151.496 97.7213 152.256ZM96.6924 152.141C96.6924 151.206 96.908 150.463 97.3398 149.911C97.7719 149.359 98.3437 149.083 99.0567 149.083C99.787 149.083 100.356 149.341 100.766 149.859L100.816 149.194H101.753V155.043C101.753 155.818 101.523 156.43 101.063 156.877C100.603 157.323 99.9863 157.546 99.2116 157.546C98.7781 157.546 98.356 157.455 97.9439 157.269C97.5304 157.085 97.2135 156.831 96.9969 156.51L97.528 155.896C97.9675 156.438 98.5033 156.71 99.1383 156.71C99.6374 156.71 100.026 156.57 100.303 156.289C100.583 156.009 100.722 155.614 100.722 155.104V154.587C100.313 155.061 99.7537 155.299 99.0444 155.299C98.3437 155.299 97.7769 155.014 97.3425 154.451C96.909 153.885 96.6924 153.115 96.6924 152.141ZM103.218 155.879H102.337L105.704 147.122H106.579L103.218 155.879ZM110.89 153.598C110.901 153.326 110.797 153.111 110.577 152.952C110.369 152.799 110.005 152.666 109.487 152.556C108.968 152.446 108.557 152.313 108.251 152.157C107.947 152.003 107.723 151.817 107.575 151.603C107.423 151.371 107.35 151.117 107.358 150.839C107.358 150.348 107.565 149.933 107.98 149.593C108.396 149.253 108.927 149.084 109.572 149.084C110.25 149.084 110.801 149.26 111.224 149.61C111.648 149.961 111.858 150.409 111.858 150.956H110.829C110.829 150.674 110.709 150.434 110.472 150.231C110.233 150.027 109.933 149.926 109.572 149.926C109.198 149.926 108.909 150.005 108.697 150.169C108.481 150.327 108.376 150.539 108.381 150.806C108.381 151.053 108.479 151.24 108.676 151.365C108.87 151.49 109.225 151.611 109.735 151.725C110.247 151.839 110.661 151.977 110.978 152.135C111.296 152.295 111.53 152.484 111.684 152.709C111.837 152.933 111.914 153.203 111.914 153.526C111.914 154.061 111.7 154.491 111.271 154.812C110.843 155.136 110.289 155.298 109.607 155.298C109.125 155.298 108.701 155.212 108.331 155.043C107.976 154.888 107.688 154.649 107.465 154.331C107.256 154.035 107.152 153.705 107.152 153.343H108.177C108.196 153.686 108.333 153.959 108.589 154.16C108.845 154.36 109.186 154.461 109.607 154.461C109.993 154.461 110.305 154.383 110.537 154.226C110.776 154.083 110.894 153.874 110.89 153.598ZM113.725 152.256C113.725 152.922 113.878 153.455 114.186 153.859C114.495 154.26 114.907 154.461 115.424 154.461C115.944 154.461 116.357 154.256 116.663 153.849C116.97 153.442 117.122 152.869 117.122 152.135C117.122 151.479 116.967 150.945 116.656 150.538C116.349 150.115 115.934 149.911 115.412 149.926C114.907 149.926 114.5 150.127 114.189 150.529C113.88 150.931 113.725 151.507 113.725 152.256ZM112.693 152.135C112.693 151.548 112.809 151.021 113.04 150.551C113.271 150.082 113.591 149.72 114.002 149.465C114.415 149.211 114.884 149.083 115.412 149.083C116.228 149.083 116.887 149.366 117.392 149.931C117.896 150.497 118.149 151.246 118.149 152.186V152.256C118.149 152.841 118.036 153.364 117.812 153.827C117.6 154.282 117.281 154.643 116.854 154.91C116.416 155.178 115.938 155.308 115.423 155.298C114.612 155.298 113.954 155.014 113.45 154.451C112.946 153.885 112.693 153.138 112.693 152.208V152.135ZM121.55 154.462C121.917 154.462 122.234 154.351 122.508 154.129C122.782 153.918 122.933 153.642 122.962 153.298H123.93C123.907 153.66 123.79 153.987 123.577 154.278C123.359 154.587 123.068 154.837 122.706 155.022C122.343 155.206 121.957 155.299 121.55 155.298C120.735 155.298 120.086 155.025 119.604 154.482C119.123 153.936 118.883 153.193 118.883 152.247V152.074C118.883 151.49 118.989 150.974 119.202 150.518C119.417 150.063 119.724 149.71 120.124 149.46C120.525 149.209 120.999 149.084 121.545 149.084C122.216 149.084 122.774 149.284 123.22 149.686C123.664 150.091 123.901 150.612 123.93 151.255H122.962C122.944 150.877 122.797 150.559 122.522 150.3C122.247 150.04 121.923 149.915 121.545 149.926C121.024 149.926 120.622 150.113 120.336 150.487C120.049 150.863 119.905 151.403 119.905 152.113V152.307C119.905 152.998 120.047 153.53 120.333 153.902C120.617 154.276 121.022 154.462 121.55 154.462ZM125.479 152.478H127.988V148.524L127.867 148.746L125.479 152.478ZM129.017 152.478H130.136V153.315H129.017V155.188H127.987V153.314H124.317V152.712L127.926 147.122H129.017V152.478ZM134.369 153.598C134.381 153.326 134.277 153.111 134.057 152.952C133.849 152.799 133.485 152.666 132.966 152.556C132.448 152.446 132.037 152.313 131.732 152.157C131.425 152.003 131.202 151.817 131.055 151.603C130.903 151.371 130.83 151.117 130.837 150.839C130.837 150.348 131.045 149.933 131.46 149.593C131.876 149.253 132.406 149.084 133.052 149.084C133.731 149.084 134.281 149.26 134.704 149.61C135.128 149.961 135.338 150.409 135.338 150.956H134.309C134.309 150.674 134.191 150.434 133.952 150.231C133.713 150.027 133.413 149.926 133.051 149.926C132.678 149.926 132.387 150.005 132.177 150.169C131.961 150.327 131.856 150.539 131.862 150.806C131.862 151.053 131.959 151.24 132.154 151.365C132.35 151.49 132.705 151.611 133.215 151.725C133.727 151.839 134.141 151.977 134.458 152.135C134.776 152.295 135.01 152.484 135.164 152.709C135.317 152.933 135.394 153.203 135.394 153.526C135.394 154.061 135.18 154.491 134.751 154.812C134.322 155.136 133.767 155.298 133.085 155.298C132.605 155.298 132.18 155.212 131.811 155.043C131.456 154.888 131.168 154.649 130.945 154.331C130.736 154.035 130.632 153.705 130.633 153.343H131.657C131.676 153.686 131.813 153.959 132.069 154.16C132.325 154.36 132.664 154.461 133.085 154.461C133.473 154.461 133.785 154.383 134.017 154.226C134.256 154.083 134.373 153.874 134.369 153.598ZM137.202 152.256C137.202 152.922 137.357 153.455 137.665 153.859C137.972 154.276 138.384 154.477 138.903 154.461C139.422 154.461 139.835 154.256 140.142 153.849C140.449 153.442 140.602 152.869 140.602 152.135C140.602 151.479 140.445 150.945 140.133 150.538C139.826 150.115 139.412 149.911 138.891 149.926C138.385 149.926 137.977 150.127 137.666 150.529C137.357 150.931 137.202 151.507 137.202 152.256ZM136.172 152.135C136.172 151.548 136.287 151.021 136.519 150.551C136.734 150.097 137.055 149.734 137.482 149.465C137.894 149.211 138.363 149.083 138.891 149.083C139.706 149.083 140.366 149.366 140.87 149.931C141.375 150.497 141.627 151.246 141.627 152.186V152.256C141.627 152.841 141.515 153.364 141.291 153.827C141.078 154.281 140.76 154.643 140.334 154.91C139.893 155.178 139.417 155.308 138.903 155.298C138.09 155.298 137.433 155.014 136.928 154.451C136.425 153.885 136.171 153.138 136.171 152.208L136.172 152.135Z" fill="white"/>
</g>
<defs>
<linearGradient id="paint0_linear_6187_2865" x1="199.903" y1="100" x2="-0.00764568" y2="100" gradientUnits="userSpaceOnUse">
<stop stop-color="#2160AC"/>
<stop offset="1" stop-color="#14BCEF"/>
</linearGradient>
<linearGradient id="paint1_linear_6187_2865" x1="199.903" y1="100" x2="-0.00764568" y2="100" gradientUnits="userSpaceOnUse">
<stop stop-color="#2160AC"/>
<stop offset="1" stop-color="#14BCEF"/>
</linearGradient>
<linearGradient id="paint2_linear_6187_2865" x1="22.375" y1="100.011" x2="177.503" y2="100.011" gradientUnits="userSpaceOnUse">
<stop stop-color="#2160AC"/>
<stop offset="1" stop-color="#14BCEF"/>
</linearGradient>
<linearGradient id="paint3_linear_6187_2865" x1="22.3831" y1="100.008" x2="177.512" y2="100.008" gradientUnits="userSpaceOnUse">
<stop stop-color="#2160AC"/>
<stop offset="1" stop-color="#14BCEF"/>
</linearGradient>
</defs>
</svg>
