<svg width="14" height="12" viewBox="0 0 14 12" fill="none" xmlns="http://www.w3.org/2000/svg">
<path d="M2.33333 3.33335C1.97971 3.33335 1.64057 3.19288 1.39052 2.94283C1.14048 2.69278 1 2.35364 1 2.00002C1 1.6464 1.14048 1.30726 1.39052 1.05721C1.64057 0.807163 1.97971 0.666687 2.33333 0.666687C2.68696 0.666687 3.02609 0.807163 3.27614 1.05721C3.52619 1.30726 3.66667 1.6464 3.66667 2.00002C3.66667 2.35364 3.52619 2.69278 3.27614 2.94283C3.02609 3.19288 2.68696 3.33335 2.33333 3.33335ZM2.33333 3.33335V8.66669M7 3.33335C6.64638 3.33335 6.30724 3.19288 6.05719 2.94283C5.80714 2.69278 5.66667 2.35364 5.66667 2.00002C5.66667 1.6464 5.80714 1.30726 6.05719 1.05721C6.30724 0.807163 6.64638 0.666687 7 0.666687C7.35362 0.666687 7.69276 0.807163 7.94281 1.05721C8.19286 1.30726 8.33333 1.6464 8.33333 2.00002C8.33333 2.35364 8.19286 2.69278 7.94281 2.94283C7.69276 3.19288 7.35362 3.33335 7 3.33335ZM7 3.33335V8.66669M2.33333 8.66669C2.68696 8.66669 3.02609 8.80716 3.27614 9.05721C3.52619 9.30726 3.66667 9.6464 3.66667 10C3.66667 10.3536 3.52619 10.6928 3.27614 10.9428C3.02609 11.1929 2.68696 11.3334 2.33333 11.3334C1.97971 11.3334 1.64057 11.1929 1.39052 10.9428C1.14048 10.6928 1 10.3536 1 10C1 9.6464 1.14048 9.30726 1.39052 9.05721C1.64057 8.80716 1.97971 8.66669 2.33333 8.66669ZM7 8.66669C7.35362 8.66669 7.69276 8.80716 7.94281 9.05721C8.19286 9.30726 8.33333 9.6464 8.33333 10C8.33333 10.3536 8.19286 10.6928 7.94281 10.9428C7.69276 11.1929 7.35362 11.3334 7 11.3334C6.64638 11.3334 6.30724 11.1929 6.05719 10.9428C5.80714 10.6928 5.66667 10.3536 5.66667 10C5.66667 9.6464 5.80714 9.30726 6.05719 9.05721C6.30724 8.80716 6.64638 8.66669 7 8.66669ZM10.3333 2.00002C10.3333 2.35364 10.4738 2.69278 10.7239 2.94283C10.9739 3.19288 11.313 3.33335 11.6667 3.33335C12.0203 3.33335 12.3594 3.19288 12.6095 2.94283C12.8595 2.69278 13 2.35364 13 2.00002C13 1.6464 12.8595 1.30726 12.6095 1.05721C12.3594 0.807163 12.0203 0.666687 11.6667 0.666687C11.313 0.666687 10.9739 0.807163 10.7239 1.05721C10.4738 1.30726 10.3333 1.6464 10.3333 2.00002Z" stroke="black" stroke-width="1.33333" stroke-linecap="round" stroke-linejoin="round"/>
<path d="M11.6668 3.33337V4.66671C11.6668 5.02033 11.5264 5.35947 11.2763 5.60952C11.0263 5.85956 10.6871 6.00004 10.3335 6.00004H2.3335" stroke="black" stroke-width="1.33333" stroke-linecap="round" stroke-linejoin="round"/>
</svg>
