<svg width="14" height="16" viewBox="0 0 14 16" fill="none" xmlns="http://www.w3.org/2000/svg">
<path d="M13 6.5H14V7.5H13V6.5ZM10.889 2.3985L11.596 1.6915L12.303 2.3985L11.596 3.1055L10.889 2.3985ZM6.5 0H7.5V1H6.5V0ZM2.404 3.1165L1.6965 2.409L2.404 1.702L3.111 2.409L2.404 3.1165ZM0 6.5H1V7.5H0V6.5ZM5.5 15H8.5V16H5.5V15ZM4.5 13H9.5V14H4.5V13ZM7 2C4.25 2 2 4.25 2 7C2 9.2 3 10.15 3.75 10.8C4.25 11.25 4.5 11.55 4.5 12H5.5C5.5 11.1 4.95 10.55 4.4 10.05C3.7 9.45 3 8.75 3 7C3 4.8 4.8 3 7 3C9.2 3 11 4.8 11 7C11 8.75 10.3 9.45 9.6 10.05C9.05 10.55 8.5 11.05 8.5 12H9.5C9.5 11.55 9.75 11.25 10.25 10.8C11 10.15 12 9.2 12 7C12 4.25 9.75 2 7 2Z" fill="black"/>
</svg>
