<svg width="14" height="14" viewBox="0 0 14 14" fill="none" xmlns="http://www.w3.org/2000/svg">
<path d="M10 5H13C13.5515 5 14 4.5515 14 4V1C14 0.449 13.5515 0 13 0H10C9.4485 0 9 0.449 9 1V2H4.5C3.1215 2 2 3.1215 2 4.5H1C0.4485 4.5 0 4.949 0 5.5V8.5C0 9.0515 0.4485 9.5 1 9.5H2C2 10.8785 3.1215 12 4.5 12H9V13C9 13.5515 9.4485 14 10 14H13C13.5515 14 14 13.5515 14 13V10C14 9.449 13.5515 9 13 9H10C9.4485 9 9 9.449 9 10V11H4.5C3.673 11 3 10.327 3 9.5H4C4.5515 9.5 5 9.0515 5 8.5V5.5C5 4.949 4.5515 4.5 4 4.5H3C3 3.673 3.673 3 4.5 3H9V4C9 4.5515 9.4485 5 10 5ZM10 10H13V13H10V10ZM4 5.5V8.5H1L0.9995 5.5H4ZM10 1H13V4H10V1Z" fill="black"/>
</svg>
