<svg width="14" height="14" viewBox="0 0 14 14" fill="none" xmlns="http://www.w3.org/2000/svg">
<path d="M4.94983 1.36849C4.29388 1.6094 3.68507 1.96305 3.15083 2.41349L2.50983 1.64799C3.13317 1.12252 3.84351 0.709989 4.60883 0.428988L4.94983 1.36849ZM0.949828 3.50749C0.53886 4.21175 0.255031 4.98285 0.111328 5.78549L1.10333 5.96049C1.22933 5.26049 1.46833 4.60049 1.81433 4.00599L0.949828 3.50749ZM1.09633 8.04099L0.112328 8.21449C0.256328 9.03249 0.542328 9.80149 0.944328 10.496L1.80933 9.99649C1.45955 9.39117 1.21825 8.72938 1.09633 8.04099ZM3.15333 11.5845L2.50633 12.3545C3.13005 12.8805 3.84091 13.2933 4.60683 13.5745L4.94983 12.6325C4.29499 12.3895 3.68718 12.0349 3.15333 11.5845ZM13.8873 5.78499C13.746 4.98155 13.4644 4.20927 13.0553 3.50349C12.6461 2.79815 12.1176 2.16915 11.4933 1.64449C10.8696 1.1187 10.1587 0.705984 9.39283 0.424988C8.62629 0.144035 7.81624 0.000338694 6.99983 0.000488398V1.00049C7.72133 1.00049 8.41083 1.13149 9.04983 1.36799C9.98891 1.71635 10.8268 2.29242 11.4883 3.04449C11.7508 3.34099 11.9873 3.66049 12.1873 4.00499C12.5376 4.60971 12.7796 5.27099 12.9023 5.95899C12.9623 6.29799 12.9998 6.64449 12.9998 6.99999C12.9998 7.35599 12.9568 7.70099 12.8953 8.03999C12.774 8.72744 12.5327 9.38819 12.1823 9.99199C11.8311 10.595 11.3791 11.1333 10.8458 11.5835C10.3117 12.0334 9.70374 12.3875 9.04883 12.63C8.40783 12.865 7.71983 13 6.99983 13V14C8.64349 13.9931 10.2326 13.4098 11.4903 12.3515C12.1135 11.8267 12.6409 11.1979 13.0493 10.493C13.4605 9.7886 13.7445 9.01734 13.8883 8.21449C13.9588 7.81999 13.9998 7.41549 13.9998 6.99999C13.9998 6.58449 13.9568 6.18099 13.8873 5.78549V5.78499ZM5.36133 6.05349L5.82083 5.59449L6.20983 5.20549L5.49983 4.49999L5.17483 4.82499L4.46383 5.53599L3.59983 6.40049L2.99983 6.99999L3.59983 7.59899L4.46383 8.46399L5.17483 9.17399L5.49983 9.49999L6.20983 8.79399L5.82083 8.40499L5.36133 7.94599L4.80283 7.38749L4.41533 6.99999L4.80283 6.61249L5.36133 6.05349ZM8.63833 7.94549L8.17883 8.40449L7.78983 8.79349L8.49983 9.49999L8.82483 9.17499L9.53583 8.46399L10.3998 7.59999L10.9998 7.00049L10.3998 6.40049L9.53483 5.53649L8.82433 4.82549L8.49983 4.49999L7.78983 5.20599L8.17883 5.59499L8.63833 6.05399L9.19683 6.61249L9.58433 6.99999L9.19683 7.38749L8.63833 7.94549Z" fill="black"/>
</svg>
