<svg width="52" height="52" viewBox="0 0 52 52" fill="none" xmlns="http://www.w3.org/2000/svg">
<g id="apple" clip-path="url(#clip0_2646_28149)">
<g id="Group">
<g id="Group_2">
<path id="Vector" d="M35.7477 0C32.9754 0.191749 29.7352 1.96624 27.847 4.27698C26.1245 6.37321 24.7075 9.48669 25.26 12.5124C28.289 12.6067 31.4187 10.7899 33.2322 8.4402C34.9287 6.25296 36.2124 3.15898 35.7477 0Z" fill="#F4F4F5"/>
</g>
</g>
<g id="Group_3">
<g id="Group_4">
<path id="Vector_2" d="M46.7035 17.4466C44.0418 14.1089 40.3011 12.1719 36.7683 12.1719C32.1046 12.1719 30.1319 14.4046 26.8916 14.4046C23.5507 14.4046 21.0124 12.1784 16.9792 12.1784C13.0175 12.1784 8.79899 14.5996 6.12426 18.7401C2.36403 24.5706 3.00753 35.5327 9.10124 44.8699C11.282 48.2109 14.194 51.9679 18.0029 52.0004C21.3927 52.0329 22.3482 49.8262 26.9404 49.8034C31.5326 49.7774 32.4036 52.0296 35.7868 51.9939C39.5991 51.9646 42.6703 47.8014 44.851 44.4604C46.4143 42.0652 46.996 40.8595 48.2083 38.1555C39.3911 34.7982 37.9773 22.2598 46.7035 17.4466Z" fill="#F4F4F5"/>
</g>
</g>
</g>
<defs>
<clipPath id="clip0_2646_28149">
<rect width="52" height="52" fill="white"/>
</clipPath>
</defs>
</svg>
