<svg width="53" height="51" viewBox="0 0 53 51" fill="none" xmlns="http://www.w3.org/2000/svg">
<g id="Frame 2121314627">
<rect x="0.5" y="1" width="52" height="49.8341" rx="24.917" fill="white"/>
<path id="Vector" d="M26.5 0.1875C12.135 0.1875 0.5 11.6275 0.5 25.7368C0.5 37.0273 7.949 46.6018 18.2775 49.9775C19.5775 50.218 20.0542 49.4272 20.0542 48.749C20.0542 48.1423 20.0325 46.5347 20.0217 44.4048C12.7893 45.9453 11.264 40.9772 11.264 40.9772C10.081 38.0283 8.3715 37.2397 8.3715 37.2397C6.01633 35.6558 8.5535 35.6883 8.5535 35.6883C11.1643 35.866 12.5358 38.3208 12.5358 38.3208C14.8542 42.2273 18.622 41.0985 20.1083 40.4463C20.3423 38.7932 21.0118 37.6687 21.755 37.0295C15.9808 36.3903 9.912 34.1933 9.912 24.4043C9.912 21.6158 10.9195 19.3365 12.5878 17.549C12.2953 16.9033 11.4178 14.3055 12.8153 10.7868C12.8153 10.7868 14.9928 10.1022 19.9653 13.4063C22.0453 12.8387 24.2553 12.557 26.4653 12.544C28.6753 12.557 30.8853 12.8387 32.9653 13.4063C37.9053 10.1022 40.0828 10.7868 40.0828 10.7868C41.4803 14.3055 40.6028 16.9033 40.3428 17.549C42.0003 19.3365 43.0078 21.6158 43.0078 24.4043C43.0078 34.2193 36.9303 36.3795 31.1453 37.0078C32.0553 37.7748 32.9003 39.3413 32.9003 41.7355C32.9003 45.1545 32.8678 47.9018 32.8678 48.7317C32.8678 49.4012 33.3228 50.2007 34.6553 49.945C45.0575 46.591 52.5 37.01 52.5 25.7368C52.5 11.6275 40.8585 0.1875 26.5 0.1875Z" fill="black"/>
</g>
</svg>
