<svg width="100" height="100" viewBox="0 0 100 100" fill="none" xmlns="http://www.w3.org/2000/svg">
<path fill-rule="evenodd" clip-rule="evenodd" d="M53.7661 31.9129C51.3227 32.1723 49.0405 32.2031 47.0044 32.0104L45.5372 40.3004L52.739 37.7164L53.7659 31.9127L53.7661 31.9129ZM68.678 18.4209C69.6573 16.3457 68.7673 13.8641 66.6917 12.8846C64.6165 11.9053 62.1349 12.7953 61.1556 14.8709C60.1765 16.9459 61.0663 19.4278 63.1419 20.4071C65.2171 21.3863 67.6987 20.4963 68.678 18.4209ZM71.4972 14.2856C72.8024 17.9238 70.9163 21.9205 67.2772 23.2262C63.639 24.5315 59.6423 22.6453 58.3366 19.0063C57.0313 15.3678 58.9175 11.3713 62.5565 10.0656C66.1946 8.76037 70.1915 10.6465 71.4972 14.2856ZM81.8868 16.1783C86.47 11.0617 85.1038 7.25471 78.3112 6.22131C78.2823 9.601 79.7122 13.5848 81.8868 16.1783ZM41.6591 15.8487C43.1438 14.4227 44.9505 13.0162 47.0185 11.6848L42.2577 7.62033L35.0501 10.2063L41.6591 15.8487ZM44.3528 29.243L40.8907 19.5936L37.9362 20.6535L41.3983 30.3029L44.3528 29.243ZM47.3419 29.1967L43.3708 18.1285C47.319 14.2217 53.42 10.9703 59.0628 8.96233C65.064 6.8094 70.8593 5.83186 75.4847 5.97444C75.3812 10.1455 77.1306 15.0209 79.8595 18.1696C73.7728 23.5053 63.8304 27.6055 55.1151 28.885C52.2524 29.3028 49.6142 29.4039 47.3419 29.1967ZM30.319 22.2279C30.6664 22.0948 31.0523 22.1036 31.3932 22.2525C31.7342 22.4014 32.0029 22.6784 32.1413 23.0238C32.2797 23.3691 32.2767 23.755 32.133 24.0982C31.9893 24.4413 31.7163 24.7142 31.3731 24.8578C27.8444 26.2742 24.9186 28.386 22.9743 31.4682C26.444 32.6135 30.0214 32.3776 33.6614 31.2266C34.019 31.1184 34.4048 31.1555 34.7352 31.3299C35.0656 31.5043 35.314 31.8019 35.4264 32.1582C35.5389 32.5145 35.5063 32.9007 35.3359 33.2332C35.1654 33.5656 34.8708 33.8175 34.5159 33.9342C31.9696 34.7408 29.5177 35.1096 27.1602 35.0406C24.7993 34.9715 22.5526 34.4619 20.4206 33.5123C19.6311 33.1791 19.3126 32.3 19.6739 31.569C21.8694 27.1258 25.6231 24.1154 30.319 22.2279ZM8.56162 16.7047C8.73649 16.642 8.92199 16.6144 9.10753 16.6235C9.29307 16.6325 9.47502 16.678 9.64298 16.7573C9.81094 16.8367 9.96163 16.9483 10.0864 17.0859C10.2113 17.2235 10.3077 17.3843 10.3704 17.5592C10.4331 17.7341 10.4607 17.9196 10.4516 18.1051C10.4426 18.2907 10.3971 18.4726 10.3178 18.6406C10.2384 18.8085 10.1268 18.9592 9.98919 19.084C9.85161 19.2088 9.69079 19.3053 9.51591 19.368L8.4249 19.7594C8.07172 19.8859 7.68275 19.867 7.34353 19.7068C7.00432 19.5465 6.74266 19.2581 6.61611 18.9049C6.48956 18.5517 6.50849 18.1628 6.66874 17.8235C6.82899 17.4843 7.11743 17.2227 7.4706 17.0961L8.56162 16.7047ZM25.9831 10.4541C26.158 10.3915 26.3435 10.3639 26.529 10.3729C26.7146 10.3819 26.8965 10.4274 27.0645 10.5068C27.2324 10.5861 27.3831 10.6978 27.5079 10.8353C27.6327 10.9729 27.7292 11.1337 27.7919 11.3086C27.8545 11.4835 27.8822 11.669 27.8731 11.8545C27.8641 12.0401 27.8186 12.222 27.7393 12.39C27.6599 12.5579 27.5483 12.7086 27.4107 12.8334C27.2731 12.9583 27.1123 13.0547 26.9374 13.1174L14.229 17.6772C14.0541 17.7398 13.8686 17.7674 13.6831 17.7584C13.4975 17.7494 13.3156 17.7039 13.1476 17.6245C12.9797 17.5452 12.829 17.4335 12.7042 17.296C12.5794 17.1584 12.4829 16.9976 12.4202 16.8227C12.3576 16.6478 12.3299 16.4623 12.339 16.2768C12.348 16.0912 12.3935 15.9093 12.4728 15.7413C12.5522 15.5734 12.6638 15.4227 12.8014 15.2979C12.939 15.173 13.0998 15.0765 13.2747 15.0139L25.9833 10.4541H25.9831ZM20.279 49.3633C20.6322 49.2368 21.0211 49.2557 21.3604 49.4159C21.6996 49.5762 21.9612 49.8646 22.0878 50.2178C22.2143 50.571 22.1954 50.9599 22.0352 51.2992C21.8749 51.6384 21.5865 51.9 21.2333 52.0266L20.1423 52.418C19.7891 52.5445 19.4001 52.5256 19.0609 52.3654C18.7217 52.2051 18.46 51.9167 18.3335 51.5635C18.2069 51.2103 18.2259 50.8213 18.3861 50.4821C18.5464 50.1429 18.8348 49.8813 19.188 49.7547L20.279 49.3633ZM37.7005 43.1125C38.0537 42.986 38.4426 43.0049 38.7818 43.1652C39.1211 43.3254 39.3827 43.6138 39.5093 43.967C39.6358 44.3202 39.6169 44.7092 39.4566 45.0484C39.2964 45.3876 39.008 45.6493 38.6548 45.7758L25.9462 50.3356C25.7713 50.3982 25.5858 50.4258 25.4003 50.4168C25.2147 50.4078 25.0328 50.3623 24.8648 50.2829C24.6969 50.2036 24.5462 50.0919 24.4214 49.9543C24.2965 49.8168 24.2001 49.6559 24.1374 49.4811C24.0747 49.3062 24.0471 49.1207 24.0562 48.9352C24.0652 48.7496 24.1107 48.5677 24.19 48.3997C24.2694 48.2317 24.381 48.0811 24.5186 47.9562C24.6562 47.8314 24.817 47.7349 24.9919 47.6723L37.7005 43.1125ZM26.8642 79.4735L14.6399 72.4156C11.8313 77.6811 10.1563 83.6389 9.93837 89.9602H24.0536C24.254 86.2002 25.2452 82.6502 26.8642 79.4735ZM35.97 69.3561C32.905 71.351 30.2882 73.9615 28.2858 77.0217L16.0606 69.9633C19.3195 64.7696 23.7135 60.3824 28.9122 57.1317L35.9698 69.3559L35.97 69.3561ZM48.9017 65.1559V51.0426C42.5763 51.2549 36.6249 52.9209 31.3667 55.7147L38.4253 67.9405C41.6007 66.3319 45.1468 65.3494 48.9017 65.1559ZM52.1964 89.5063C50.5317 87.8416 47.6716 89.0256 47.6716 91.3805C47.6716 93.7354 50.5317 94.9196 52.1964 93.2547C53.2313 92.2197 53.2313 90.541 52.1964 89.5061V89.5063ZM57.4433 76.2178C57.6333 75.8988 57.9411 75.6673 58.3003 75.5733C58.6595 75.4793 59.0412 75.5303 59.3631 75.7152C59.6851 75.9002 59.9214 76.2043 60.021 76.562C60.1207 76.9197 60.0757 77.3022 59.8958 77.627L54.1999 87.4926C56.3438 89.6153 56.356 93.1125 54.205 95.2633C52.0604 97.4078 48.5839 97.4078 46.4392 95.2633C44.2946 93.1188 44.2946 89.6422 46.4392 87.4977C47.1216 86.815 47.9719 86.3242 48.9044 86.0748C49.837 85.8254 50.8187 85.8261 51.7509 86.077L57.4433 76.2176V76.2178ZM62.2003 67.9783L69.2161 55.8266C63.9692 52.9834 58.0364 51.2774 51.7425 51.0467V65.1614C55.4921 65.3678 59.0321 66.3608 62.2003 67.9783ZM72.2921 77.0631C70.3008 74.0073 67.6974 71.3977 64.6464 69.399L71.6546 57.2606C76.7905 60.5283 81.1452 64.9231 84.3841 70.0821L72.2921 77.0631ZM85.8046 72.5279L73.7065 79.5127C75.3136 82.6795 76.2979 86.2158 76.4974 89.9604H90.596C90.3173 83.6938 88.614 77.7729 85.8044 72.5281L85.8046 72.5279ZM87.2556 69.3469C85.3781 66.2148 83.1186 63.3283 80.529 60.7537C78.032 58.2702 75.2439 56.0975 72.2255 54.283C72.1282 54.1777 72.0153 54.0879 71.8909 54.0166C71.7748 53.9498 71.6498 53.8998 71.5196 53.8682C65.1333 50.1951 57.7392 48.1172 49.8729 48.1908V48.1854C49.8226 48.1854 49.7729 48.1881 49.7241 48.193C37.9249 48.3434 27.2868 53.2108 19.5895 60.9828C11.852 68.7953 7.08134 79.5416 7.08349 91.3805C7.08349 91.5663 7.12009 91.7503 7.19119 91.9219C7.26229 92.0936 7.36651 92.2496 7.49789 92.3809C7.62927 92.5123 7.78524 92.6165 7.9569 92.6876C8.12855 92.7587 8.31253 92.7953 8.49833 92.7953V92.8008H25.4356C25.8124 92.8008 26.1737 92.6511 26.4401 92.3847C26.7065 92.1184 26.8561 91.757 26.8561 91.3803C26.8561 78.4459 37.3409 67.9612 50.2753 67.9612C63.2097 67.9612 73.6944 78.4459 73.6944 91.3803C73.6944 91.757 73.8441 92.1184 74.1105 92.3847C74.3769 92.6511 74.7382 92.8008 75.1149 92.8008H92.0501C92.8743 92.8008 93.5155 92.1375 93.4628 91.2315C93.3667 83.6938 91.3444 76.5889 87.87 70.4069C87.8539 70.1972 87.791 69.9938 87.686 69.8115C87.5796 69.6258 87.4324 69.4668 87.2554 69.3465L87.2556 69.3469ZM38.9686 17.2774L31.3534 10.7758C31.1596 10.6103 31.014 10.3955 30.9321 10.1541C30.8502 9.91278 30.835 9.65378 30.888 9.40447C30.941 9.15516 31.0603 8.92479 31.2334 8.73765C31.4064 8.55052 31.6268 8.41356 31.8712 8.34123L42.0774 4.67932C42.3122 4.59505 42.5651 4.57441 42.8104 4.61948C43.0558 4.66456 43.2848 4.77374 43.4743 4.93596L43.4755 4.93459L49.5823 10.1485C52.1435 8.71916 55.0147 7.40881 58.1071 6.29924C64.7888 3.90197 71.2712 2.88381 76.3501 3.17561C88.1976 3.85627 91.0206 11.7108 82.3063 19.7699C76.1499 25.4635 65.9032 29.9211 56.722 31.5002L55.3925 39.0133L55.388 39.0125C55.345 39.2587 55.2376 39.4891 55.0766 39.6803C54.9156 39.8715 54.7069 40.0166 54.4716 40.1008L44.3026 43.7492C43.1218 44.2295 42.1362 43.2356 42.3161 42.2133L44.061 32.3533L42.3409 32.9705C40.8759 33.4961 39.2655 32.7362 38.7395 31.2701L35.2686 21.5963C34.7431 20.1313 35.5032 18.5209 36.969 17.9949L38.9686 17.2774Z" fill="white"/>
</svg>
