<svg width="512" height="512" viewBox="0 0 512 512" fill="none" xmlns="http://www.w3.org/2000/svg">
<g clip-path="url(#clip0_6475_4013)">
<path d="M243.428 132.201V288.65H343.142V261.142H270.935V132.201H243.428Z" fill="#929A9E"/>
<path d="M512 257.651C512 126.558 405.201 19.9336 274.109 19.9336C156.525 19.9336 58.6583 106.414 39.7263 218.163H1.54244L67.3919 331.631L135.17 218.163H95.6988C113.761 135.64 186.982 74.9485 274.236 74.9485C374.991 74.9485 456.985 156.909 456.985 257.663C456.985 344.728 394.719 417.741 313.916 435.982V492.065C425.665 473.131 512 375.232 512 257.651ZM41.9286 467.195L59.4216 448.598C70.7873 436.228 78.5857 426.97 82.8184 420.697C87.0511 414.422 89.1675 407.235 89.1675 399.066C89.1675 386.93 85.1858 377.39 77.2241 370.401C69.2624 363.419 58.1786 359.929 43.971 359.929C30.5903 359.929 19.8469 364.097 11.7374 372.411C3.62613 380.728 -0.281647 391.106 0.0157772 403.063L0.194576 403.836H29.4969C29.4969 396.96 30.7846 392.811 33.36 388.993C35.9354 385.171 39.4718 383.146 43.9727 383.146C49.0031 383.146 52.7768 384.566 55.292 387.528C57.809 390.487 59.0657 394.422 59.0657 399.397C59.0657 402.889 57.8227 406.988 55.3367 411.723C52.8508 416.461 49.2662 421.838 44.0019 427.88L2.7373 471.56V491.518H92.1366V467.449H42.195L41.9286 467.195Z" fill="#929A9E"/>
<path d="M174.658 362.577H145.432V362.073L93.25 445.594L94.701 464.01H145.432V491.518H174.658V464.01H188.412V441.661H174.658V362.577ZM145.432 441.661H119.743L141.943 404.723L144.576 400.84L145.432 400.79V441.661ZM286.407 491.518V435.862C286.407 431.725 286.511 427.931 286.053 424.412C284.895 415.541 282.489 408.59 278.423 403.63C272.738 396.703 265.015 393.241 255.07 393.241C250.037 393.241 245.806 394.439 241.632 396.837C237.458 399.235 233.112 402.597 231.393 406.917V360.857H200.447V491.518H231.393V421.211C231.393 419.672 234.262 418.474 236.395 417.614C238.524 416.758 240.877 416.328 243.778 416.328C248.337 416.328 251.679 417.719 253.899 420.499C256.12 423.282 257.181 428.344 257.181 435.686V491.518H286.407Z" fill="#929A9E"/>
</g>
<defs>
<clipPath id="clip0_6475_4013">
<rect width="512" height="512" fill="white"/>
</clipPath>
</defs>
</svg>
