<svg width="53" height="52" viewBox="0 0 53 52" fill="none" xmlns="http://www.w3.org/2000/svg">
<g id="search" clip-path="url(#clip0_2646_28073)">
<path id="Vector" d="M12.0243 31.4244L10.2143 38.1815L3.59857 38.3215C1.62145 34.6544 0.5 30.4587 0.5 26.0001C0.5 21.6887 1.54853 17.6229 3.40712 14.043H3.40855L9.29836 15.1228L11.8785 20.9773C11.3384 22.5516 11.0441 24.2416 11.0441 26.0001C11.0443 27.9087 11.39 29.7373 12.0243 31.4244Z" fill="#FBBB00"/>
<path id="Vector_2" d="M52.0454 21.1445C52.344 22.7173 52.4997 24.3416 52.4997 26.0017C52.4997 27.8631 52.304 29.6788 51.9312 31.4303C50.6655 37.3903 47.3583 42.5945 42.7769 46.2774L42.7755 46.276L35.357 45.8974L34.307 39.3431C37.347 37.5603 39.7227 34.7703 40.9742 31.4303H27.0713V21.1445H41.177H52.0454Z" fill="#518EF8"/>
<path id="Vector_3" d="M42.7758 46.2757L42.7772 46.2772C38.3215 49.8586 32.6615 52.0014 26.5001 52.0014C16.5986 52.0014 7.99009 46.4672 3.59863 38.3229L12.0244 31.4258C14.22 37.2857 19.8729 41.4572 26.5001 41.4572C29.3486 41.4572 32.0172 40.6872 34.3072 39.3429L42.7758 46.2757Z" fill="#28B446"/>
<path id="Vector_4" d="M43.0958 5.98569L34.6729 12.8814C32.303 11.4 29.5015 10.5442 26.5001 10.5442C19.7229 10.5442 13.9643 14.907 11.8787 20.9771L3.40865 14.0428H3.40723C7.7344 5.69999 16.4515 0 26.5001 0C32.8087 0 38.5929 2.24717 43.0958 5.98569Z" fill="#F14336"/>
</g>
<defs>
<clipPath id="clip0_2646_28073">
<rect width="52" height="52" fill="white" transform="translate(0.5)"/>
</clipPath>
</defs>
</svg>
