<svg width="1216" height="584" viewBox="0 0 1216 584" fill="none" preserveAspectRatio="none" xmlns="http://www.w3.org/2000/svg">
<g filter="url(#filter0_b_2680_41504)">
<mask id="path-1-outside-1_2680_41504" maskUnits="userSpaceOnUse" x="0" y="0" width="1216" height="584" fill="black">
<rect fill="white" width="1216" height="584"/>
<path d="M0 18C0 9.16343 7.16344 2 16 2H1200C1208.84 2 1216 9.16344 1216 18V568C1216 576.837 1208.84 584 1200 584H16C7.16346 584 0 576.837 0 568V18Z"/>
</mask>
<path d="M0 18C0 9.16343 7.16344 2 16 2H1200C1208.84 2 1216 9.16344 1216 18V568C1216 576.837 1208.84 584 1200 584H16C7.16346 584 0 576.837 0 568V18Z" fill="url(#paint0_linear_2680_41504)" fill-opacity="0.8"/>
<path d="M0 18C0 8.05887 8.05887 0 18 0H1198C1207.94 0 1216 8.05887 1216 18C1216 10.268 1208.84 4 1200 4H16C7.16344 4 0 10.268 0 18ZM1216 584H0H1216ZM0 584V2V584ZM1216 2V584V2Z" fill="url(#paint1_radial_2680_41504)" mask="url(#path-1-outside-1_2680_41504)"/>
</g>
<defs>
<filter id="filter0_b_2680_41504" x="-60" y="-60" width="1336" height="704" filterUnits="userSpaceOnUse" color-interpolation-filters="sRGB">
<feFlood flood-opacity="0" result="BackgroundImageFix"/>
<feGaussianBlur in="BackgroundImageFix" stdDeviation="30"/>
<feComposite in2="SourceAlpha" operator="in" result="effect1_backgroundBlur_2680_41504"/>
<feBlend mode="normal" in="SourceGraphic" in2="effect1_backgroundBlur_2680_41504" result="shape"/>
</filter>
<linearGradient id="paint0_linear_2680_41504" x1="608" y1="176" x2="608" y2="584" gradientUnits="userSpaceOnUse">
<stop stop-color="#010101" stop-opacity="0.6"/>
<stop offset="1" stop-color="#010101"/>
</linearGradient>
<radialGradient id="paint1_radial_2680_41504" cx="0" cy="0" r="1" gradientUnits="userSpaceOnUse" gradientTransform="translate(608 293) rotate(-152.488) scale(874.731 558.017)">
<stop stop-color="white"/>
<stop offset="1" stop-color="white" stop-opacity="0"/>
</radialGradient>
</defs>
</svg>
