<svg width="50" height="46" viewBox="0 0 50 46" fill="none" xmlns="http://www.w3.org/2000/svg">
<path d="M28.6166 18.0199C28.6166 15.3201 26.1268 13.1378 23.0521 13.1378H22.8121C19.7373 13.1378 17.2475 15.3276 17.2475 18.0199C17.2475 20.8322 19.8423 23.112 23.0521 23.112C26.1268 23.112 28.6166 25.3019 28.6166 27.9942V28.6166C28.6166 31.0839 26.3368 33.0863 23.5245 33.0863H22.3396C19.5273 33.0863 17.2475 31.0839 17.2475 28.6166M22.9321 12.5228V9.52308M22.9321 36.3485V33.3412M32.1563 42.8355C24.0495 46.5927 14.1127 45.1303 7.42325 38.4408C-1.14108 29.8765 -1.14108 15.9876 7.42325 7.42325C15.9876 -1.14108 29.8765 -1.14108 38.4408 7.42325C42.723 11.7054 44.8604 17.315 44.8604 22.932M45.9102 38.8158V27.8967H41.4556V38.8158H38.3733L43.6829 44.8603L49 38.8158H45.9102Z" stroke="white" stroke-width="2" stroke-linecap="round" stroke-linejoin="round"/>
</svg>
