<svg width="50" height="47" viewBox="0 0 50 47" fill="none" xmlns="http://www.w3.org/2000/svg">
<path d="M12.655 17.695V3.2125C12.655 1.99 13.645 1 14.8675 1H46.7875C48.01 1 49 1.99 49 3.2125V31.0825C49 32.305 48.01 33.295 46.7875 33.295H29.125M24.3025 33.4756V43.5106C24.3025 44.7331 23.3125 45.7231 22.09 45.7231H3.2125C1.99 45.7231 1 44.7331 1 43.5106V24.6256C1 23.4031 1.99 22.4131 3.2125 22.4131H12.9175M43.8097 14.3434L44.0797 5.14844M44.0797 5.14844L34.8847 5.41843M44.0797 5.14844L7.32959 39.8959" stroke="white" stroke-width="2" stroke-linecap="round" stroke-linejoin="round"/>
</svg>
