<svg width="48" height="50" viewBox="0 0 48 50" fill="none" xmlns="http://www.w3.org/2000/svg">
<path d="M16.7199 3.09249C19.2324 2.58999 22.1574 2.30499 25.2699 2.30499C34.7124 2.30499 42.3699 4.93749 42.3699 8.19248M42.3699 8.19248C42.3699 11.4475 34.7124 14.08 25.2699 14.08C22.1574 14.08 19.2324 13.795 16.7199 13.2925M42.3699 8.19248L42.3701 15.8875M29.2746 25.555C27.9921 25.66 26.6496 25.72 25.2696 25.72C15.8272 25.72 8.16967 23.0875 8.16967 19.8325M25.2696 37.36C15.8272 37.36 8.16967 34.7275 8.16967 31.4725M30.5271 48.715C28.8696 48.9025 27.1071 49 25.2696 49C15.8272 49 8.16967 46.3675 8.16967 43.1125V18.6925M10.2025 6.32499C10.2025 5.33499 9.29499 4.53999 8.16999 4.53999H8.07999C6.95499 4.53999 6.04749 5.34249 6.04749 6.32499C6.04749 7.35249 6.99999 8.18499 8.16999 8.18499C9.29499 8.18499 10.2025 8.98749 10.2025 9.96999V10.195C10.2025 11.095 9.36999 11.83 8.34249 11.83H7.90749C6.87999 11.83 6.04749 11.095 6.04749 10.195M8.12499 4.315V3.22M8.12499 13.03V11.935M41.29 38.8374V20.5H33.805V38.8374H28.6225L37.5475 48.9999L46.4725 38.8374H41.29ZM15.25 8.12499C15.25 12.06 12.06 15.25 8.12499 15.25C4.18997 15.25 1 12.06 1 8.12499C1 4.18997 4.18997 1 8.12499 1C12.06 1 15.25 4.18997 15.25 8.12499Z" stroke="white" stroke-width="2" stroke-linecap="round" stroke-linejoin="round"/>
</svg>
