<svg width="2169" height="500" viewBox="0 0 2169 500" fill="none" xmlns="http://www.w3.org/2000/svg">
<path d="M59.1601 58.9707C61.157 58.9809 63.1539 58.991 65.2113 59.0015C68.3522 59.0009 68.3522 59.0009 71.5565 59.0002C78.5097 59.0022 85.4626 59.0242 92.4158 59.0463C97.224 59.0516 102.032 59.0556 106.841 59.0584C119.521 59.0692 132.201 59.097 144.88 59.1282C160.081 59.1621 175.282 59.1751 190.483 59.1916C213.598 59.2191 236.713 59.2732 259.828 59.3222C259.828 129.237 259.828 199.153 259.828 271.187C308.564 261.437 346.067 253.579 384.094 223.164C387.567 220.482 387.567 220.482 391.11 217.746C441.812 175.774 454.023 123.38 463.172 59.3222C534.003 59.3222 604.835 59.3222 677.812 59.3222C677.812 194.701 631.434 288.523 537.407 384.026C530.953 389.831 530.953 389.831 525.305 389.831C525.305 391.695 525.305 393.559 525.305 395.48C519.918 399.686 514.562 403.525 508.889 407.309C507.214 408.441 505.538 409.574 503.813 410.74C500.375 413.054 496.93 415.357 493.478 417.65C489.205 420.494 484.962 423.383 480.724 426.278C459.932 440.111 437.943 450.401 415.16 460.452C412.058 461.891 408.956 463.329 405.761 464.811C393.089 469.84 380.408 473.088 367.148 476.165C364.532 476.776 361.916 477.387 359.221 478.016C323.509 486.14 291.237 488.701 254.18 488.701C254.18 419.718 254.18 350.735 254.18 279.661C186.584 279.773 186.584 279.773 118.988 279.916C105.927 279.928 105.927 279.928 99.8158 279.931C95.5397 279.935 91.2636 279.945 86.9875 279.959C80.5178 279.98 74.0482 279.983 67.5784 279.982C63.9284 279.988 60.2783 279.994 56.5177 280.001C48.0115 279.661 48.0115 279.661 42.3631 276.836C42.2978 248.893 42.2476 220.95 42.2168 193.007C42.202 180.033 42.182 167.059 42.1501 154.085C42.1195 141.575 42.1025 129.066 42.0952 116.556C42.0899 111.772 42.0797 106.989 42.0645 102.205C42.0441 95.5286 42.0412 88.8522 42.0425 82.1755C42.0323 80.1782 42.0222 78.1808 42.0117 76.123C42.0466 59.8625 42.9033 59.0056 59.1601 58.9707Z" fill="white"/>
<path d="M1406.62 58.9077C1409.69 58.9096 1409.69 58.9096 1412.82 58.9116C1414.96 58.9021 1417.11 58.8926 1419.32 58.8828C1426.46 58.8558 1433.61 58.8505 1440.75 58.8474C1445.72 58.8384 1450.7 58.8288 1455.67 58.8189C1466.14 58.802 1476.6 58.7968 1487.07 58.7985C1500.39 58.7987 1513.71 58.7604 1527.03 58.7115C1537.33 58.6799 1547.63 58.6744 1557.93 58.6759C1562.83 58.6726 1567.74 58.6602 1572.64 58.6382C1627.11 58.4169 1673.2 62.343 1714.35 101.11C1719.95 107.345 1719.95 107.345 1719.95 112.994C1721.81 112.994 1723.68 112.994 1725.6 112.994C1749.44 157.821 1760.27 201.59 1745.48 252.052C1731.62 289.046 1709.11 316.364 1673.6 333.863C1639.36 348.626 1604.69 348.27 1568.13 348.109C1563.05 348.105 1557.97 348.104 1552.89 348.105C1542.32 348.1 1531.75 348.077 1521.18 348.039C1507.6 347.991 1494.02 347.98 1480.44 347.982C1469.99 347.981 1459.54 347.966 1449.09 347.945C1444.08 347.936 1439.07 347.931 1434.06 347.929C1427.09 347.923 1420.13 347.898 1413.17 347.868C1411.09 347.869 1409.01 347.87 1406.86 347.872C1392.66 347.781 1392.66 347.781 1389.52 344.633C1389.23 335.876 1389.13 327.183 1389.15 318.425C1389.15 315.674 1389.14 312.923 1389.14 310.089C1389.12 300.947 1389.13 291.805 1389.14 282.662C1389.14 276.34 1389.14 270.017 1389.13 263.695C1389.13 250.424 1389.13 237.154 1389.15 223.884C1389.16 206.831 1389.15 189.779 1389.14 172.727C1389.13 159.666 1389.13 146.604 1389.14 133.543C1389.14 127.253 1389.14 120.964 1389.13 114.674C1389.12 105.901 1389.13 97.1275 1389.15 88.354C1389.14 85.7271 1389.14 83.1002 1389.13 80.3938C1389.2 59.021 1389.2 59.021 1406.62 58.9077ZM1465.77 135.593C1465.77 180.339 1465.77 225.085 1465.77 271.186C1486.57 271.447 1507.37 271.671 1528.17 271.807C1535.24 271.864 1542.3 271.941 1549.37 272.039C1559.57 272.177 1569.76 272.24 1579.95 272.29C1584.64 272.377 1584.64 272.377 1589.43 272.467C1616.94 272.474 1638.51 265.978 1659.31 247.627C1673.53 231.587 1674.76 215.705 1674.76 194.915C1672.02 179.726 1665.77 168.366 1657.82 155.367C1655.95 155.367 1654.09 155.367 1652.17 155.367C1652.17 153.503 1652.17 151.638 1652.17 149.717C1630.92 134.715 1610.55 134.82 1585.47 135.041C1582.04 135.049 1578.62 135.057 1575.09 135.066C1564.19 135.097 1553.28 135.168 1542.38 135.24C1534.97 135.268 1527.56 135.294 1520.16 135.317C1502.03 135.375 1483.9 135.485 1465.77 135.593Z" fill="white"/>
<path d="M1793.38 59.3223C1818.54 59.3223 1843.71 59.3223 1869.63 59.3223C1869.71 70.4468 1869.78 81.5713 1869.85 93.033C1869.96 103.86 1870.09 114.686 1870.22 125.513C1870.3 133.012 1870.36 140.51 1870.4 148.009C1870.46 158.817 1870.59 169.621 1870.74 180.427C1870.74 183.756 1870.74 187.085 1870.75 190.515C1871.13 212.192 1873.46 231.495 1888.45 248.156C1907.68 266.665 1929.93 269.632 1955.51 269.807C1957.93 269.854 1960.35 269.901 1962.84 269.95C1971.78 270.112 1980.72 270.204 1989.66 270.304C2009.7 270.595 2029.74 270.887 2050.38 271.187C2050.38 201.271 2050.38 131.356 2050.38 59.3223C2075.55 59.3223 2100.71 59.3223 2126.64 59.3223C2126.64 132.034 2126.64 204.746 2126.64 279.661C2104.27 279.661 2081.9 279.661 2058.86 279.661C2057.92 302.034 2056.99 324.407 2056.03 347.458C2038.25 347.654 2020.48 347.822 2002.7 347.923C1996.67 347.966 1990.64 348.023 1984.61 348.097C1937.76 348.657 1896.06 348.592 1855.51 322.034C1853.28 320.581 1851.04 319.128 1848.74 317.631C1821 297.889 1802.46 269.566 1794.64 236.478C1789.84 207.284 1791.93 176.846 1792.41 147.334C1792.56 137.391 1792.62 127.447 1792.69 117.502C1792.83 98.1061 1793.11 78.7187 1793.38 59.3223Z" fill="white"/>
<path d="M48.0117 64.9717C116.979 64.9717 185.947 64.9717 257.004 64.9717C257.004 133.023 257.004 201.073 257.004 271.186C188.036 271.186 119.069 271.186 48.0117 271.186C48.0117 203.136 48.0117 135.085 48.0117 64.9717Z" fill="white"/>
<path d="M1115.57 59.3223C1140.73 59.3223 1165.89 59.3223 1191.82 59.3223C1191.94 79.8101 1192.05 100.297 1192.11 120.785C1192.14 130.328 1192.18 139.871 1192.25 149.414C1192.32 160.396 1192.35 171.377 1192.37 182.358C1192.4 185.734 1192.43 189.111 1192.46 192.589C1192.47 240.61 1180.49 275.967 1146.79 310.757C1111.66 343.62 1067.95 348.835 1021.61 348.285C1017.61 348.27 1013.61 348.258 1009.61 348.249C999.21 348.217 988.816 348.134 978.421 348.04C967.76 347.952 957.099 347.914 946.439 347.872C925.619 347.781 904.8 347.633 883.98 347.458C883.98 322.288 883.98 297.119 883.98 271.187C896.293 271.114 908.605 271.041 921.291 270.966C931.177 270.876 941.062 270.776 950.947 270.667C961.345 270.557 971.742 270.465 982.14 270.421C992.176 270.378 1002.21 270.28 1012.25 270.146C1017.89 270.085 1023.54 270.078 1029.19 270.073C1050.93 269.727 1067.89 266.928 1087.32 257.062C1090.41 255.673 1090.41 255.673 1093.55 254.255C1100.97 250.095 1101.61 245.261 1104.27 237.288C1105.69 234.615 1107.12 231.942 1108.58 229.188C1115.19 213.807 1114.1 197.447 1114.19 180.979C1114.26 175.754 1114.26 175.754 1114.34 170.423C1114.49 159.343 1114.59 148.263 1114.68 137.182C1114.77 129.651 1114.87 122.12 1114.98 114.589C1115.22 96.1668 1115.39 77.746 1115.57 59.3223Z" fill="white"/>
<path d="M1251.13 59.3223C1276.29 59.3223 1301.46 59.3223 1327.38 59.3223C1327.45 96.4734 1327.5 133.624 1327.53 170.776C1327.54 188.024 1327.56 205.273 1327.6 222.522C1327.63 239.153 1327.64 255.784 1327.65 272.415C1327.66 278.775 1327.67 285.136 1327.68 291.496C1327.7 300.371 1327.7 309.246 1327.7 318.122C1327.71 320.779 1327.72 323.437 1327.73 326.175C1327.7 344.311 1327.7 344.311 1324.56 347.458C1300.33 347.458 1276.1 347.458 1251.13 347.458C1251.13 252.373 1251.13 157.288 1251.13 59.3223Z" fill="white"/>
<path d="M1793.38 59.3223C1818.54 59.3223 1843.71 59.3223 1869.63 59.3223C1869.71 70.4468 1869.78 81.5713 1869.85 93.033C1869.96 103.86 1870.09 114.686 1870.22 125.513C1870.3 133.012 1870.36 140.51 1870.4 148.009C1870.46 158.817 1870.59 169.621 1870.74 180.427C1870.74 183.756 1870.74 187.085 1870.75 190.515C1871.13 212.192 1873.46 231.495 1888.45 248.156C1907.68 266.665 1929.93 269.632 1955.51 269.807C1957.93 269.854 1960.35 269.901 1962.84 269.95C1971.78 270.112 1980.72 270.204 1989.66 270.304C2009.7 270.595 2029.74 270.887 2050.38 271.187C2050.38 201.271 2050.38 131.356 2050.38 59.3223C2075.55 59.3223 2100.71 59.3223 2126.64 59.3223C2126.64 132.034 2126.64 204.746 2126.64 279.661C2104.27 279.661 2081.9 279.661 2058.86 279.661C2057.92 302.034 2056.99 324.407 2056.03 347.458C2038.25 347.654 2020.48 347.822 2002.7 347.923C1996.67 347.966 1990.64 348.023 1984.61 348.097C1926.14 348.796 1874.63 345.142 1830.09 302.26C1826.57 296.015 1826.57 296.015 1824.45 290.961C1829.21 291.314 1829.21 291.314 1835.74 293.786C1840.51 299.386 1845.21 305.038 1849.86 310.735C1855.93 314.612 1855.93 314.612 1861.16 316.384C1861.16 318.249 1861.16 320.113 1861.16 322.034C1863.02 321.801 1864.89 321.568 1866.81 321.328C1876.83 322.163 1883.08 325.49 1891.77 330.31C1910.09 339.386 1926.67 339.93 1946.75 340.153C1949.79 340.208 1952.84 340.262 1955.98 340.319C1965.68 340.487 1975.38 340.618 1985.07 340.749C1991.66 340.857 1998.25 340.967 2004.84 341.08C2020.96 341.355 2037.08 341.58 2053.21 341.808C2053.21 320.367 2053.21 298.927 2053.21 276.836C2043.78 277.033 2034.36 277.23 2024.64 277.432C2015.43 277.565 2006.21 277.668 1997 277.767C1990.63 277.852 1984.27 277.968 1977.91 278.115C1908.34 279.686 1908.34 279.686 1886.58 259.887C1865.38 236.398 1862.72 204.978 1863.16 174.766C1863.17 171.609 1863.18 168.451 1863.19 165.197C1863.24 155.211 1863.35 145.226 1863.45 135.24C1863.5 128.428 1863.54 121.616 1863.57 114.804C1863.66 98.1924 1863.82 81.584 1863.98 64.972C1842.55 65.9042 1821.11 66.8364 1799.03 67.7968C1798.1 116.271 1797.16 164.746 1796.2 214.689C1795.27 214.689 1794.34 214.689 1793.38 214.689C1793.38 163.418 1793.38 112.147 1793.38 59.3223Z" fill="white"/>
<path d="M59.1601 58.9707C61.157 58.9809 63.1539 58.991 65.2113 59.0015C68.3522 59.0009 68.3522 59.0009 71.5565 59.0002C78.5097 59.0022 85.4626 59.0242 92.4158 59.0463C97.224 59.0516 102.032 59.0556 106.841 59.0584C119.521 59.0692 132.201 59.097 144.88 59.1282C160.081 59.1621 175.282 59.1751 190.483 59.1916C213.598 59.2191 236.713 59.2732 259.828 59.3222C259.828 129.237 259.828 199.153 259.828 271.187C304.534 263.301 304.534 263.301 343.948 248.179C350.203 245.763 350.203 245.763 358.676 248.588C323.62 269.339 298.851 274.011 257.004 274.011C257.004 343.927 257.004 413.842 257.004 485.876C297.91 481.577 297.91 481.577 338.377 475.106C342.084 474.397 342.084 474.397 345.867 473.673C366.275 469.545 384.801 463.245 403.863 454.802C413.673 450.458 418.22 449.153 429.281 449.153C429.281 451.017 429.281 452.882 429.281 454.802C374.866 481.284 313.914 488.701 254.18 488.701C254.18 419.718 254.18 350.735 254.18 279.661C186.584 279.773 186.584 279.773 118.988 279.916C105.927 279.928 105.927 279.928 99.8158 279.931C95.5397 279.935 91.2636 279.945 86.9875 279.959C80.5178 279.98 74.0482 279.983 67.5784 279.982C63.9284 279.988 60.2783 279.994 56.5177 280.001C48.0115 279.661 48.0115 279.661 42.3631 276.836C42.2978 248.893 42.2476 220.95 42.2168 193.007C42.202 180.033 42.182 167.059 42.1501 154.085C42.1195 141.575 42.1025 129.066 42.0952 116.556C42.0899 111.772 42.0797 106.989 42.0645 102.205C42.0441 95.5286 42.0412 88.8522 42.0425 82.1755C42.0323 80.1782 42.0222 78.1808 42.0117 76.123C42.0466 59.8625 42.9033 59.0056 59.1601 58.9707ZM48.0115 64.9719C48.0115 133.023 48.0115 201.074 48.0115 271.187C116.979 271.187 185.946 271.187 257.004 271.187C257.004 203.136 257.004 135.085 257.004 64.9719C188.036 64.9719 119.069 64.9719 48.0115 64.9719Z" fill="white"/>
<path d="M1406.78 58.939C1408.85 58.9447 1410.91 58.9504 1413.04 58.9563C1416.29 58.9489 1416.29 58.9489 1419.61 58.9413C1426.82 58.9288 1434.03 58.9372 1441.25 58.9467C1446.25 58.9448 1451.26 58.942 1456.27 58.9385C1466.79 58.9343 1477.32 58.9404 1487.84 58.9536C1501.29 58.9696 1514.74 58.9605 1528.19 58.9435C1538.55 58.9332 1548.91 58.9365 1559.27 58.9438C1564.22 58.9457 1569.18 58.9434 1574.13 58.9368C1581.09 58.9296 1588.06 58.9407 1595.02 58.9563C1597.04 58.9506 1599.07 58.9449 1601.16 58.939C1614.65 58.9947 1627.55 60.2655 1640.87 62.1467C1640.87 64.0111 1640.87 65.8755 1640.87 67.7964C1559.79 66.8642 1478.7 65.932 1395.16 64.9716C1395.16 155.395 1395.16 245.819 1395.16 338.983C1454.49 338.371 1454.49 338.371 1515.02 337.747C1533.69 337.564 1533.69 337.564 1552.74 337.378C1563.98 337.256 1563.98 337.256 1575.23 337.13C1580.2 337.076 1585.18 337.027 1590.15 336.982C1597.72 336.913 1605.29 336.827 1612.87 336.738C1615.05 336.722 1617.23 336.705 1619.48 336.689C1634.31 336.491 1648.75 335.152 1663.47 333.333C1663.47 331.469 1663.47 329.604 1663.47 327.683C1671.67 324.134 1677.01 322.034 1686.06 322.034C1686.06 320.169 1686.06 318.305 1686.06 316.384C1690.74 313.521 1695.45 310.703 1700.18 307.909C1702.22 305.87 1704.26 303.831 1706.36 301.73C1708.05 300.04 1709.74 298.351 1711.48 296.61C1713.34 296.61 1715.2 296.61 1717.13 296.61C1717.13 293.813 1717.13 291.017 1717.13 288.135C1718.99 288.135 1720.85 288.135 1722.77 288.135C1723.59 285.572 1724.4 283.008 1725.25 280.367C1727.76 273.101 1730.44 266.628 1734.07 259.887C1735.93 259.887 1737.8 259.887 1739.72 259.887C1735.14 283.034 1718.61 304.989 1700.18 319.209C1658.77 346.921 1615.33 348.75 1567.02 348.384C1561.96 348.376 1556.9 348.37 1551.84 348.368C1541.33 348.355 1530.83 348.315 1520.32 348.252C1506.83 348.171 1493.35 348.141 1479.86 348.129C1469.45 348.117 1459.05 348.089 1448.65 348.055C1443.67 348.039 1438.69 348.026 1433.71 348.015C1426.8 347.996 1419.9 347.957 1412.99 347.913C1410.93 347.909 1408.86 347.906 1406.74 347.903C1392.66 347.781 1392.66 347.781 1389.52 344.633C1389.23 335.876 1389.13 327.183 1389.15 318.425C1389.15 315.674 1389.14 312.923 1389.14 310.089C1389.12 300.946 1389.13 291.804 1389.14 282.662C1389.14 276.34 1389.14 270.017 1389.13 263.694C1389.13 250.424 1389.13 237.154 1389.15 223.884C1389.16 206.831 1389.15 189.779 1389.14 172.727C1389.13 159.666 1389.13 146.604 1389.14 133.543C1389.14 127.253 1389.14 120.964 1389.13 114.674C1389.12 105.901 1389.13 97.1274 1389.15 88.3539C1389.14 85.727 1389.14 83.1002 1389.13 80.3937C1389.2 59.0138 1389.2 59.0138 1406.78 58.939Z" fill="white"/>
<path d="M1793.38 59.3223C1818.54 59.3223 1843.71 59.3223 1869.63 59.3223C1869.71 70.4468 1869.78 81.5713 1869.85 93.033C1869.96 103.86 1870.09 114.686 1870.22 125.513C1870.3 133.012 1870.36 140.51 1870.4 148.009C1870.46 158.817 1870.59 169.621 1870.74 180.427C1870.74 183.756 1870.74 187.085 1870.75 190.515C1871.13 212.192 1873.46 231.495 1888.45 248.156C1907.31 266.308 1929.14 269.617 1954.26 269.708C1956.92 269.751 1959.59 269.794 1962.33 269.839C1970.91 269.971 1979.49 270.049 1988.07 270.127C1996.88 270.252 2005.69 270.391 2014.49 270.531C2020.28 270.622 2026.07 270.708 2031.87 270.79C2054.41 271.116 2076.92 271.787 2099.45 272.776C2102.31 272.9 2105.18 273.024 2108.12 273.152C2114.3 273.428 2120.47 273.717 2126.64 274.012C2126.64 275.876 2126.64 277.74 2126.64 279.661C2104.27 279.661 2081.9 279.661 2058.86 279.661C2057.92 302.034 2056.99 324.407 2056.03 347.458C2038.25 347.654 2020.48 347.822 2002.7 347.923C1996.67 347.966 1990.64 348.023 1984.61 348.097C1926.14 348.796 1874.63 345.142 1830.09 302.26C1826.57 296.015 1826.57 296.015 1824.45 290.961C1829.21 291.314 1829.21 291.314 1835.74 293.786C1840.51 299.386 1845.21 305.038 1849.86 310.735C1855.93 314.612 1855.93 314.612 1861.16 316.384C1861.16 318.249 1861.16 320.113 1861.16 322.034C1863.02 321.801 1864.89 321.568 1866.81 321.328C1876.83 322.163 1883.08 325.49 1891.77 330.31C1910.09 339.386 1926.67 339.93 1946.75 340.153C1949.79 340.208 1952.84 340.262 1955.98 340.319C1965.68 340.487 1975.38 340.618 1985.07 340.749C1991.66 340.857 1998.25 340.967 2004.84 341.08C2020.96 341.355 2037.08 341.58 2053.21 341.808C2053.21 320.367 2053.21 298.927 2053.21 276.836C2043.78 277.033 2034.36 277.23 2024.64 277.432C2015.43 277.565 2006.21 277.668 1997 277.767C1990.63 277.852 1984.27 277.968 1977.91 278.115C1908.34 279.686 1908.34 279.686 1886.58 259.887C1865.38 236.398 1862.72 204.978 1863.16 174.766C1863.17 171.609 1863.18 168.451 1863.19 165.197C1863.24 155.211 1863.35 145.226 1863.45 135.24C1863.5 128.428 1863.54 121.616 1863.57 114.804C1863.66 98.1924 1863.82 81.584 1863.98 64.972C1842.55 65.9042 1821.11 66.8364 1799.03 67.7968C1798.1 116.271 1797.16 164.746 1796.2 214.689C1795.27 214.689 1794.34 214.689 1793.38 214.689C1793.38 163.418 1793.38 112.147 1793.38 59.3223Z" fill="white"/>
<path d="M1115.57 59.3223C1140.73 59.3223 1165.89 59.3223 1191.82 59.3223C1191.94 79.8101 1192.05 100.297 1192.11 120.785C1192.14 130.328 1192.18 139.871 1192.25 149.414C1192.32 160.396 1192.35 171.377 1192.37 182.358C1192.4 185.734 1192.43 189.111 1192.46 192.589C1192.47 240.61 1180.49 275.967 1146.79 310.757C1111.66 343.62 1067.95 348.835 1021.61 348.285C1017.61 348.27 1013.61 348.258 1009.61 348.249C999.21 348.217 988.816 348.134 978.421 348.04C967.76 347.952 957.099 347.914 946.439 347.872C925.619 347.781 904.8 347.633 883.98 347.458C883.98 322.288 883.98 297.119 883.98 271.187C902.646 270.93 902.646 270.93 921.688 270.668C931.636 270.524 941.584 270.377 951.532 270.229C962.019 270.073 972.505 269.922 982.992 269.782C993.101 269.647 1003.21 269.499 1013.32 269.342C1017.17 269.285 1021.01 269.232 1024.86 269.184C1030.27 269.115 1035.68 269.029 1041.08 268.942C1044.16 268.898 1047.23 268.854 1050.4 268.809C1059.13 268.359 1067.44 267.145 1076.03 265.537C1076.03 267.401 1076.03 269.266 1076.03 271.187C1066.7 274.298 1059.83 274.352 1050 274.332C1046.38 274.332 1042.76 274.332 1039.04 274.332C1035.09 274.317 1031.14 274.302 1027.19 274.287C1023.15 274.282 1019.11 274.278 1015.07 274.275C1004.44 274.264 993.812 274.237 983.184 274.205C972.337 274.177 961.489 274.164 950.642 274.149C929.363 274.119 908.084 274.069 886.805 274.012C886.805 296.384 886.805 318.757 886.805 341.808C908.509 341.502 930.212 341.185 951.916 340.85C961.996 340.694 972.075 340.543 982.155 340.403C991.897 340.268 1001.64 340.12 1011.38 339.964C1016.87 339.879 1022.37 339.806 1027.86 339.734C1060.05 339.848 1060.05 339.848 1090.85 331.745C1099.4 328.054 1102.76 327.684 1112.74 327.684C1112.74 325.819 1112.74 323.955 1112.74 322.034C1116.47 322.034 1120.2 322.034 1124.04 322.034C1124.04 320.17 1124.04 318.305 1124.04 316.384C1128.75 313.56 1133.45 310.735 1138.16 307.91C1149.75 297.807 1157.45 286.391 1165.46 273.427C1166.71 271.755 1167.95 270.084 1169.23 268.362C1171.09 268.362 1172.95 268.362 1174.88 268.362C1175.17 265.274 1175.46 262.186 1175.76 259.004C1176.9 249.428 1179.12 240.791 1182.01 231.597C1186.87 214.051 1187.26 197.635 1187 179.522C1186.99 176.306 1186.98 173.089 1186.96 169.775C1186.92 159.617 1186.81 149.459 1186.7 139.301C1186.66 132.366 1186.62 125.431 1186.59 118.495C1186.5 101.595 1186.33 84.6976 1186.17 67.7968C1164.74 67.7968 1143.3 67.7968 1121.21 67.7968C1120.28 112.543 1119.35 157.288 1118.39 203.39C1117.46 203.39 1116.53 203.39 1115.57 203.39C1115.57 155.848 1115.57 108.305 1115.57 59.3223Z" fill="white"/>
<path d="M1251.13 59.3223C1276.29 59.3223 1301.46 59.3223 1327.38 59.3223C1327.45 96.4734 1327.5 133.624 1327.53 170.776C1327.54 188.024 1327.56 205.273 1327.6 222.522C1327.63 239.153 1327.64 255.784 1327.65 272.415C1327.66 278.775 1327.67 285.136 1327.68 291.496C1327.7 300.371 1327.7 309.246 1327.7 318.122C1327.71 320.779 1327.72 323.437 1327.73 326.175C1327.7 344.311 1327.7 344.311 1324.56 347.458C1300.33 347.458 1276.1 347.458 1251.13 347.458C1251.13 252.373 1251.13 157.288 1251.13 59.3223ZM1256.78 64.972C1251.38 70.3693 1253.61 78.357 1253.6 85.5374C1253.61 88.0895 1253.62 90.6415 1253.63 93.2709C1253.63 95.9439 1253.63 98.6169 1253.63 101.371C1253.63 110.252 1253.66 119.132 1253.68 128.013C1253.68 134.152 1253.69 140.291 1253.69 146.431C1253.7 162.625 1253.73 178.818 1253.76 195.012C1253.79 211.523 1253.8 228.033 1253.82 244.544C1253.85 276.965 1253.9 309.387 1253.95 341.808C1276.32 341.808 1298.69 341.808 1321.73 341.808C1321.73 250.452 1321.73 159.096 1321.73 64.972C1300.3 64.972 1278.86 64.972 1256.78 64.972Z" fill="white"/>
<path d="M59.1601 58.9707C61.157 58.9809 63.1539 58.991 65.2113 59.0015C68.3522 59.0009 68.3522 59.0009 71.5565 59.0002C78.5097 59.0022 85.4626 59.0242 92.4158 59.0463C97.224 59.0516 102.032 59.0556 106.841 59.0584C119.521 59.0692 132.201 59.097 144.88 59.1282C160.081 59.1621 175.282 59.1751 190.483 59.1916C213.598 59.2191 236.713 59.2732 259.828 59.3222C259.828 129.237 259.828 199.153 259.828 271.187C258.896 271.187 257.964 271.187 257.004 271.187C257.004 203.136 257.004 135.085 257.004 64.9719C188.036 64.9719 119.069 64.9719 48.0115 64.9719C48.0115 133.955 48.0115 202.938 48.0115 274.011C46.1476 274.011 44.2836 274.011 42.3631 274.011C42.2978 246.437 42.2476 218.862 42.2168 191.287C42.202 178.484 42.182 165.681 42.1501 152.878C42.1195 140.533 42.1025 128.188 42.0952 115.843C42.0899 111.123 42.0797 106.403 42.0645 101.682C42.0441 95.0934 42.0412 88.5049 42.0425 81.9162C42.0323 79.9453 42.0222 77.9743 42.0117 75.9437C42.0469 59.775 43.0166 59.0053 59.1601 58.9707Z" fill="white"/>
<path d="M463.172 59.3223C534.003 59.3223 604.835 59.3223 677.812 59.3223C677.812 118.644 677.812 118.644 672.164 129.944C672.087 122.823 672.031 115.702 671.988 108.581C671.964 106.591 671.94 104.601 671.916 102.55C671.907 100.575 671.898 98.5994 671.888 96.5641C671.873 94.7741 671.859 92.9841 671.843 91.1399C672.283 82.3655 673.746 73.6691 674.988 64.972C606.953 64.972 538.917 64.972 468.82 64.972C467.888 78.0228 466.956 91.0737 465.996 104.52C463.701 115.113 463.701 115.113 460.348 124.294C459.561 126.457 458.775 128.62 457.965 130.849C449.384 153.483 438.385 173.884 423.986 193.326C420.391 198.18 420.391 198.18 416.219 205.509C409.196 217.004 401.164 221.959 389.742 228.814C383.819 233.257 377.967 237.778 372.146 242.353C367.148 245.763 367.148 245.763 361.5 245.763C365.081 235.019 369.122 233.429 378.445 227.225C416.511 200.198 440.759 162.798 454.699 118.644C458.893 89.2799 458.893 89.2799 463.172 59.3223Z" fill="white"/>
<path d="M2050.38 59.3223C2075.55 59.3223 2100.71 59.3223 2126.64 59.3223C2126.64 130.17 2126.64 201.017 2126.64 274.012C2056.03 274.012 2056.03 274.012 2050.38 271.187C2050.38 201.271 2050.38 131.356 2050.38 59.3223ZM2056.03 67.7968C2056.03 134.915 2056.03 202.034 2056.03 271.187C2078.4 271.187 2100.77 271.187 2123.81 271.187C2123.81 204.068 2123.81 136.949 2123.81 67.7968C2101.44 67.7968 2079.08 67.7968 2056.03 67.7968Z" fill="white"/>
<path d="M1479.43 129.533C1482.34 129.515 1485.26 129.497 1488.26 129.478C1493.03 129.473 1493.03 129.473 1497.89 129.469C1501.15 129.459 1504.41 129.45 1507.77 129.44C1514.69 129.426 1521.61 129.419 1528.54 129.42C1539.08 129.413 1549.61 129.362 1560.15 129.309C1566.87 129.3 1573.6 129.295 1580.33 129.292C1583.46 129.272 1586.59 129.251 1589.82 129.23C1617.05 129.31 1639.66 131.36 1661.17 149.187C1667.23 156.505 1669.45 163.211 1671.94 172.316C1669.14 171.384 1666.35 170.451 1663.46 169.491C1660.11 162.252 1660.11 162.252 1657.82 155.367C1655.95 155.367 1654.09 155.367 1652.17 155.367C1652.17 153.502 1652.17 151.638 1652.17 149.717C1650.4 149.138 1648.63 148.559 1646.81 147.963C1644.5 147.201 1642.19 146.44 1639.81 145.656C1636.37 144.526 1636.37 144.526 1632.86 143.372C1626.75 141.242 1626.75 141.242 1621.1 138.418C1616.14 138.081 1611.17 137.917 1606.2 137.838C1603.09 137.781 1599.98 137.725 1596.78 137.667C1593.41 137.62 1590.04 137.572 1586.57 137.524C1583.13 137.465 1579.69 137.406 1576.15 137.346C1565.13 137.161 1554.1 136.994 1543.08 136.829C1535.62 136.707 1528.17 136.583 1520.71 136.459C1502.4 136.154 1484.08 135.874 1465.77 135.593C1465.77 180.338 1465.77 225.084 1465.77 271.186C1486.57 271.041 1507.37 270.863 1528.17 270.6C1535.24 270.52 1542.3 270.46 1549.37 270.42C1559.57 270.36 1569.76 270.228 1579.95 270.082C1583.08 270.079 1586.21 270.076 1589.43 270.072C1611.51 269.661 1631.78 266.377 1649.6 252.445C1654.99 248.587 1654.99 248.587 1663.46 248.587C1662.88 253.757 1662.88 253.757 1660.64 259.887C1639.26 275.481 1615.52 275.922 1590.09 275.39C1586.44 275.37 1582.78 275.35 1579.02 275.33C1569.41 275.276 1559.8 275.138 1550.2 274.981C1540.35 274.835 1530.51 274.771 1520.66 274.7C1501.42 274.55 1482.18 274.31 1462.95 274.011C1462.87 253.947 1462.82 233.884 1462.79 213.82C1462.78 206.989 1462.76 200.158 1462.73 193.326C1462.7 183.531 1462.68 173.736 1462.67 163.941C1462.65 160.866 1462.64 157.791 1462.63 154.623C1462.62 151.795 1462.62 148.967 1462.62 146.054C1462.62 143.551 1462.61 141.048 1462.61 138.47C1463.27 127.335 1469.81 129.573 1479.43 129.533Z" fill="white"/>
<path d="M358.676 248.588C310.178 277.297 261.347 277.294 206.466 277.112C201.706 277.107 196.946 277.103 192.186 277.1C179.785 277.089 167.385 277.062 154.984 277.03C142.279 277.001 129.574 276.988 116.869 276.974C92.0334 276.944 67.1984 276.896 42.3633 276.836C49.3622 269.836 53.3895 270.507 62.9407 270.43C66.0586 270.447 66.0586 270.447 69.2396 270.465C71.4311 270.455 73.6227 270.445 75.8807 270.434C80.6547 270.415 85.4288 270.408 90.2029 270.412C97.7961 270.414 105.388 270.378 112.981 270.33C134.577 270.199 156.172 270.13 177.768 270.111C190.978 270.096 204.187 270.027 217.396 269.926C222.398 269.899 227.4 269.892 232.402 269.907C272.9 270.023 307.425 264.612 344.687 247.562C350.203 245.763 350.203 245.763 358.676 248.588Z" fill="white"/>
<path d="M1793.38 59.3223C1818.54 59.3223 1843.71 59.3223 1869.63 59.3223C1869.63 108.729 1869.63 158.136 1869.63 209.04C1867.77 209.04 1865.9 209.04 1863.98 209.04C1863.98 161.497 1863.98 113.955 1863.98 64.972C1842.55 65.9042 1821.11 66.8364 1799.03 67.7968C1798.1 116.271 1797.16 164.746 1796.2 214.689C1795.27 214.689 1794.34 214.689 1793.38 214.689C1793.38 163.418 1793.38 112.147 1793.38 59.3223Z" fill="white"/>
<path d="M1734.07 259.887C1735.93 259.887 1737.8 259.887 1739.72 259.887C1735.14 283.034 1718.61 304.989 1700.18 319.209C1658.73 346.942 1615.84 348.756 1567.54 347.667C1562.54 347.588 1557.53 347.512 1552.53 347.441C1539.5 347.244 1526.48 346.993 1513.46 346.73C1500.11 346.47 1486.76 346.263 1473.41 346.05C1447.33 345.628 1421.25 345.149 1395.16 344.632C1395.16 343.7 1395.16 342.768 1395.16 341.808C1399.19 341.773 1399.19 341.773 1403.3 341.738C1428.72 341.519 1454.15 341.27 1479.57 340.995C1492.64 340.855 1505.71 340.724 1518.78 340.616C1531.41 340.511 1544.05 340.38 1556.68 340.231C1561.48 340.179 1566.28 340.136 1571.07 340.103C1595.28 339.93 1618.54 339.39 1642.36 334.528C1649.53 333.301 1656.21 333.13 1663.46 333.333C1663.46 331.469 1663.46 329.604 1663.46 327.683C1671.67 324.133 1677.01 322.034 1686.06 322.034C1686.06 320.169 1686.06 318.305 1686.06 316.384C1690.74 313.521 1695.45 310.703 1700.18 307.909C1702.22 305.87 1704.26 303.831 1706.36 301.73C1708.05 300.04 1709.74 298.351 1711.48 296.61C1713.34 296.61 1715.2 296.61 1717.12 296.61C1717.12 293.813 1717.12 291.017 1717.12 288.135C1718.99 288.135 1720.85 288.135 1722.77 288.135C1723.59 285.572 1724.4 283.008 1725.24 280.367C1727.76 273.101 1730.44 266.628 1734.07 259.887Z" fill="white"/>
<path d="M1251.13 59.3223C1274.43 59.3223 1297.73 59.3223 1321.73 59.3223C1321.73 61.1867 1321.73 63.0511 1321.73 64.972C1300.3 65.9042 1278.86 66.8364 1256.78 67.7968C1256.78 159.153 1256.78 250.509 1256.78 344.633C1254.91 344.633 1253.05 344.633 1251.13 344.633C1251.13 250.48 1251.13 156.328 1251.13 59.3223Z" fill="white"/>
<path d="M1462.95 132.769C1463.88 132.769 1464.81 132.769 1465.77 132.769C1465.77 178.447 1465.77 224.124 1465.77 271.187C1486.57 271.042 1507.37 270.864 1528.17 270.6C1535.24 270.521 1542.3 270.461 1549.37 270.421C1559.57 270.36 1569.76 270.228 1579.95 270.083C1583.08 270.08 1586.21 270.076 1589.43 270.073C1611.51 269.662 1631.78 266.378 1649.6 252.446C1654.99 248.588 1654.99 248.588 1663.46 248.588C1662.88 253.757 1662.88 253.757 1660.64 259.887C1639.26 275.482 1615.52 275.923 1590.09 275.391C1586.44 275.371 1582.78 275.351 1579.02 275.33C1569.41 275.277 1559.8 275.139 1550.2 274.981C1540.35 274.836 1530.51 274.771 1520.66 274.701C1501.42 274.558 1482.19 274.282 1462.95 274.012C1462.95 227.401 1462.95 180.791 1462.95 132.769Z" fill="white"/>
<path d="M595.91 307.909C597.774 307.909 599.638 307.909 601.559 307.909C590.253 332.346 569.794 351.54 551.076 370.409C549.193 372.318 547.31 374.228 545.37 376.195C543.59 377.963 541.811 379.732 539.977 381.554C538.376 383.15 536.775 384.745 535.125 386.389C530.953 389.83 530.953 389.83 525.305 389.83C525.305 391.694 525.305 393.559 525.305 395.48C519.918 399.686 514.561 403.523 508.889 407.309C507.232 408.433 505.576 409.557 503.869 410.714C446.917 449.152 446.917 449.152 432.105 449.152C432.105 447.288 432.105 445.423 432.105 443.502C437.981 440.25 443.866 437.016 449.757 433.792C451.413 432.872 453.07 431.953 454.776 431.006C463.094 426.472 470.738 422.552 480.117 420.904C480.117 419.039 480.117 417.175 480.117 415.254C481.755 414.398 483.394 413.542 485.082 412.661C495.872 406.873 505.972 401.239 515.243 393.185C522.48 387.005 522.48 387.005 528.129 387.005C529.194 384.504 529.194 384.504 530.28 381.951C534.215 374.925 538.323 371.241 544.545 366.172C551.968 359.933 558.47 353.826 564.491 346.221C567.461 342.638 567.461 342.638 570.492 338.983C572.356 338.983 574.22 338.983 576.141 338.983C577.073 335.254 578.005 331.525 578.965 327.683C580.829 327.683 582.693 327.683 584.613 327.683C585.429 325.994 586.244 324.304 587.084 322.563C590.262 316.384 590.262 316.384 595.91 307.909Z" fill="white"/>
<path d="M1866.81 209.039C1871.59 216.208 1874.21 221.79 1877.22 229.696C1884.52 246.419 1895.43 256.097 1911.82 263.771C1914.7 264.645 1914.7 264.645 1917.65 265.536C1917.65 267.401 1917.65 269.265 1917.65 271.186C1962.38 272.118 2007.12 273.05 2053.21 274.011C2053.21 274.943 2053.21 275.875 2053.21 276.836C2034.47 277.268 2015.74 277.564 1997 277.767C1990.63 277.852 1984.27 277.967 1977.91 278.114C1908.03 279.693 1908.03 279.693 1886.58 259.887C1880.69 252.687 1876.32 245.741 1872.46 237.288C1871.23 234.782 1870.01 232.277 1868.75 229.696C1866.62 222.511 1866.38 216.495 1866.81 209.039Z" fill="white"/>
<path d="M1793.38 59.3223C1816.68 59.3223 1839.98 59.3223 1863.98 59.3223C1863.98 61.1867 1863.98 63.0511 1863.98 64.972C1842.55 65.9042 1821.11 66.8364 1799.03 67.7968C1798.1 116.271 1797.16 164.746 1796.2 214.689C1795.27 214.689 1794.34 214.689 1793.38 214.689C1793.38 163.418 1793.38 112.147 1793.38 59.3223Z" fill="white"/>
<path d="M1115.57 59.3223C1140.73 59.3223 1165.89 59.3223 1191.82 59.3223C1189.02 63.5172 1189.02 63.5172 1186.17 67.7968C1164.74 67.7968 1143.3 67.7968 1121.21 67.7968C1120.28 112.543 1119.35 157.288 1118.39 203.39C1117.46 203.39 1116.53 203.39 1115.57 203.39C1115.57 155.848 1115.57 108.305 1115.57 59.3223Z" fill="white"/>
<path d="M417.984 449.152C421.712 449.152 425.44 449.152 429.281 449.152C429.281 451.017 429.281 452.881 429.281 454.802C385.252 476.229 336.48 484.449 288.07 488.7C288.07 486.836 288.07 484.972 288.07 483.051C291.583 482.537 295.097 482.024 298.716 481.495C323.865 477.734 348.527 473.897 372.797 466.101C374.562 465.539 376.326 464.976 378.145 464.397C399.569 459.229 399.569 459.229 417.984 449.152Z" fill="white"/>
<path d="M1118.39 67.7969C1119.32 67.7969 1120.25 67.7969 1121.21 67.7969C1121.36 86.9924 1121.46 106.188 1121.53 125.384C1121.55 131.904 1121.59 138.425 1121.64 144.945C1121.71 154.356 1121.74 163.766 1121.77 173.177C1121.8 176.059 1121.82 178.941 1121.85 181.91C1121.86 226.685 1121.86 226.685 1109.56 241.879C1106.94 243.801 1106.94 243.801 1104.27 245.763C1105.73 239.676 1107.33 233.697 1109.17 227.712C1114.98 208.423 1116.88 190.777 1117.01 170.695C1117.06 167.729 1117.11 164.763 1117.17 161.708C1117.32 152.356 1117.41 143.004 1117.51 133.651C1117.6 127.26 1117.7 120.87 1117.8 114.479C1118.04 98.9185 1118.23 83.3582 1118.39 67.7969Z" fill="white"/>
<path d="M1824.45 290.961C1829.21 291.314 1829.21 291.314 1835.74 293.786C1840.51 299.386 1845.21 305.038 1849.86 310.735C1855.93 314.612 1855.93 314.612 1861.16 316.385C1861.16 318.249 1861.16 320.113 1861.16 322.034C1863.02 321.801 1864.89 321.568 1866.81 321.328C1878.77 322.325 1887.47 327.664 1897.88 333.334C1901.63 335.23 1905.4 337.117 1909.17 338.984C1899.18 342.853 1892.91 341.601 1883.4 337.571C1860.85 326.634 1838.9 314.729 1824.45 293.786C1824.45 292.854 1824.45 291.921 1824.45 290.961Z" fill="white"/>
<path d="M511.184 395.48C513.048 397.345 514.912 399.209 516.832 401.13C449.557 449.153 449.557 449.153 432.105 449.153C432.105 447.288 432.105 445.424 432.105 443.503C437.981 440.25 443.866 437.017 449.757 433.793C451.413 432.873 453.07 431.954 454.776 431.006C463.094 426.472 470.738 422.553 480.117 420.904C480.117 419.04 480.117 417.175 480.117 415.254C481.887 414.3 483.656 413.346 485.479 412.363C488.941 410.474 488.941 410.474 492.473 408.545C494.767 407.3 497.06 406.055 499.423 404.772C505.841 401.287 505.841 401.287 511.184 395.48Z" fill="white"/>
<path d="M358.676 248.588C324.514 268.81 296.55 275.112 257.004 274.011C257.004 273.079 257.004 272.147 257.004 271.186C259.938 270.673 262.873 270.16 265.896 269.631C291.882 264.987 317.386 260.327 341.554 249.294C350.203 245.763 350.203 245.763 358.676 248.588Z" fill="white"/>
<path d="M1112.74 322.034C1117.4 322.034 1122.06 322.034 1126.86 322.034C1104.92 341.926 1074.01 348.694 1044.96 347.458C1044.96 345.594 1044.96 343.729 1044.96 341.808C1047.15 341.499 1049.33 341.189 1051.58 340.87C1071.97 337.768 1071.97 337.768 1091.56 331.568C1101.45 327.684 1101.45 327.684 1112.74 327.684C1112.74 325.819 1112.74 323.955 1112.74 322.034Z" fill="white"/>
<path d="M1793.38 217.514C1795.24 217.514 1797.11 217.514 1799.03 217.514C1799.51 219.462 1799.99 221.41 1800.48 223.417C1805.08 241.231 1810.97 257.398 1818.8 274.011C1820.71 278.706 1822.62 283.406 1824.45 288.135C1822.58 288.135 1820.72 288.135 1818.8 288.135C1805.66 266.807 1793.38 242.991 1793.38 217.514Z" fill="white"/>
<path d="M1866.81 209.039C1871.59 216.208 1874.21 221.79 1877.22 229.696C1884.96 247.497 1897.53 257.384 1914.82 265.536C1906.93 268.875 1903.51 268.358 1895.23 265.713C1880.71 255.931 1871.78 239.894 1866.81 223.163C1866.45 215.218 1866.45 215.218 1866.81 209.039Z" fill="white"/>
<path d="M465.996 70.6211C466.928 70.6211 467.86 70.6211 468.82 70.6211C467.662 89.192 466.368 106.562 460.348 124.293C459.605 126.551 458.862 128.809 458.097 131.135C456.055 137.34 453.978 143.532 451.875 149.717C450.011 146.921 448.147 144.124 446.227 141.243C448.065 136.112 449.954 130.996 452.063 125.971C456.525 113.57 458.748 100.678 461.341 87.7799C463.172 79.0957 463.172 79.0957 465.996 70.6211Z" fill="white"/>
<path d="M1654.99 248.588C1657.79 248.588 1660.58 248.588 1663.46 248.588C1663 253.741 1663 253.741 1660.64 259.887C1653.87 264.18 1653.87 264.18 1645.46 267.832C1642.7 269.074 1639.94 270.316 1637.1 271.595C1629.57 274.012 1629.57 274.012 1621.1 271.187C1622.97 271.187 1624.83 271.187 1626.75 271.187C1626.75 269.322 1626.75 267.458 1626.75 265.537C1628.32 264.787 1629.88 264.037 1631.49 263.264C1633.54 262.266 1635.59 261.268 1637.69 260.24C1639.73 259.257 1641.76 258.274 1643.85 257.261C1649.77 254.335 1649.77 254.335 1654.99 248.588Z" fill="white"/>
<path d="M1866.81 322.034C1876.29 324.18 1885.23 327.319 1894.34 330.685C1898.52 332.22 1898.52 332.22 1902.77 333.786C1904.88 334.569 1907 335.352 1909.17 336.158C1899.51 342.123 1899.51 342.123 1892.13 340.705C1890.24 339.904 1888.35 339.103 1886.4 338.277C1884.5 337.505 1882.61 336.733 1880.65 335.938C1875.28 333.334 1875.28 333.334 1866.81 327.684C1866.81 325.819 1866.81 323.955 1866.81 322.034Z" fill="white"/>
<path d="M1711.48 101.695C1715.67 104.492 1715.67 104.492 1719.95 107.345C1719.95 109.209 1719.95 111.074 1719.95 112.995C1721.81 112.995 1723.68 112.995 1725.6 112.995C1728.04 117.035 1730.45 121.1 1732.83 125.177C1734.18 127.438 1735.52 129.7 1736.91 132.029C1739.72 138.418 1739.72 138.418 1736.89 146.893C1736.01 145.426 1735.12 143.958 1734.2 142.446C1728.58 133.286 1723.08 124.669 1716.24 116.349C1711.48 110.17 1711.48 110.17 1711.48 101.695Z" fill="white"/>
<path d="M398.215 211.864C398.215 220.339 398.215 220.339 393.052 226.011C390.795 227.984 388.537 229.958 386.212 231.991C383.984 233.98 381.756 235.968 379.46 238.016C373.143 242.682 369.158 244.603 361.5 245.763C365.191 234.687 370.377 232.259 379.857 225.635C389.449 219.259 389.449 219.259 398.215 211.864Z" fill="white"/>
<path d="M595.91 307.909C597.774 307.909 599.638 307.909 601.559 307.909C597.152 317.733 591.302 325.627 584.613 334.039C582.633 336.559 580.652 339.079 578.612 341.675C576.864 343.583 575.117 345.491 573.316 347.457C571.452 347.457 569.588 347.457 567.668 347.457C568.6 344.661 569.532 341.864 570.492 338.983C572.356 338.983 574.22 338.983 576.141 338.983C577.073 335.254 578.005 331.525 578.965 327.683C580.829 327.683 582.693 327.683 584.613 327.683C585.429 325.994 586.244 324.304 587.084 322.563C590.262 316.384 590.262 316.384 595.91 307.909Z" fill="white"/>
<path d="M652.395 200.565C653.327 200.565 654.259 200.565 655.219 200.565C656.363 213.414 652.696 221.24 646.746 232.522C645.173 235.54 643.601 238.559 641.98 241.669C640.145 245.094 640.145 245.094 638.273 248.588C634.595 240.095 635.548 237.024 638.88 228.152C640.486 224.875 642.091 221.597 643.745 218.221C646.143 213.261 646.143 213.261 648.588 208.201C649.844 205.682 651.1 203.162 652.395 200.565Z" fill="white"/>
<path d="M621.328 265.537C623.192 265.537 625.056 265.537 626.977 265.537C622.971 280.107 616.601 293.22 607.207 305.085C605.343 305.085 603.479 305.085 601.559 305.085C601.559 302.289 601.559 299.492 601.559 296.611C603.423 296.611 605.287 296.611 607.207 296.611C607.819 293.989 607.819 293.989 608.443 291.314C610.031 285.311 610.031 285.311 612.855 279.661C614.719 279.661 616.583 279.661 618.504 279.661C619.436 275 620.368 270.339 621.328 265.537Z" fill="white"/>
<path d="M1115.57 203.39C1116.5 203.39 1117.43 203.39 1118.39 203.39C1119.84 221.473 1118.73 231.582 1107.09 245.763C1103.14 233.911 1107.74 228.684 1112.74 217.514C1114.69 209.664 1114.69 209.664 1115.57 203.39Z" fill="white"/>
<path d="M1886.58 248.588C1895.9 254.181 1905.22 259.774 1914.82 265.537C1901.36 268.903 1898.22 266.502 1886.58 259.887C1886.58 256.159 1886.58 252.43 1886.58 248.588Z" fill="white"/>
<path d="M409.512 200.565C412.308 200.565 415.104 200.565 417.984 200.565C414.333 208.713 410.474 214.329 403.863 220.339C401.999 219.407 400.135 218.475 398.215 217.515C406.334 203.743 406.334 203.743 409.512 200.565Z" fill="white"/>
<path d="M511.184 395.48C513.048 397.345 514.912 399.209 516.832 401.13C504.25 409.52 504.25 409.52 491.414 418.079C491.414 415.283 491.414 412.486 491.414 409.605C495.739 405.687 495.739 405.687 501.299 402.013C503.134 400.779 504.969 399.544 506.859 398.272C508.286 397.351 509.713 396.43 511.184 395.48Z" fill="white"/>
<path d="M1098.62 248.588C1098.62 257.062 1098.62 257.062 1095.09 261.653C1089.66 265.924 1085.6 267.198 1078.85 268.362C1082.62 257.063 1088.72 254.696 1098.62 248.588Z" fill="white"/>
<path d="M328.845 259.534C330.301 260.583 331.757 261.631 333.258 262.712C323.351 267.242 315.907 268.984 305.016 268.362C304.084 266.497 303.152 264.633 302.191 262.712C320.266 256.454 320.266 256.454 328.845 259.534Z" fill="white"/>
</svg>
