<svg width="3670" height="500" viewBox="0 0 3670 500" fill="none" xmlns="http://www.w3.org/2000/svg">
<g clip-path="url(#clip0_6561_4069)">
<path d="M885.614 304.949C885.614 324.459 878.571 341.088 864.484 354.81C850.396 368.531 833.472 375.406 813.725 375.406H717.98C697.993 375.406 681.012 368.545 667.038 354.81C653.063 341.088 646.076 324.459 646.076 304.949V205.949C646.076 186.68 653.12 170.177 667.221 156.456C681.308 142.72 698.218 135.859 717.98 135.859H813.725C833.472 135.859 850.396 142.72 864.484 156.456C878.571 170.177 885.614 186.694 885.614 205.949V304.949ZM837.918 304.893V206.372C837.918 198.651 835.547 192.129 830.832 186.821C826.118 181.513 820.486 178.859 813.95 178.859H717.726C710.95 178.859 705.262 181.513 700.66 186.821C696.059 192.143 693.772 198.651 693.772 206.372V304.893C693.772 312.375 696.073 318.84 700.66 324.261C705.248 329.696 710.936 332.406 717.726 332.406H813.95C820.486 332.406 826.118 329.696 830.832 324.261C835.561 318.826 837.918 312.375 837.918 304.893Z" fill="white"/>
<path d="M1293.49 365.651C1293.49 372.159 1290.36 375.406 1284.1 375.406H1255.2C1248.93 375.406 1245.81 372.145 1245.81 365.637V206.358C1245.81 198.636 1243.45 192.115 1238.77 186.821C1234.07 181.513 1228.48 178.859 1221.97 178.859H1125.87C1119.36 178.859 1113.76 181.513 1109.07 186.821C1104.39 192.129 1102.03 198.636 1102.03 206.358V365.637C1102.03 372.159 1098.9 375.406 1092.63 375.406H1063.72C1057.45 375.406 1054.33 372.159 1054.33 365.651V205.949C1054.33 186.68 1061.32 170.177 1075.3 156.456C1089.26 142.72 1106.12 135.859 1125.87 135.859H1221.97C1241.72 135.859 1258.58 142.72 1272.56 156.456C1286.52 170.177 1293.51 186.694 1293.51 205.949L1293.49 365.651Z" fill="white"/>
<path d="M1701.75 206.669C1701.75 226.179 1694.69 242.794 1680.58 256.53C1666.46 270.265 1649.51 277.126 1629.72 277.126H1519.32C1513.04 277.126 1509.91 280.373 1509.91 286.88V304.936C1509.91 312.403 1512.21 318.855 1516.81 324.262C1521.4 329.682 1527.09 332.393 1533.88 332.393H1644.63C1650.92 332.393 1654.07 335.527 1654.07 341.78V365.624C1654.07 372.131 1650.92 375.378 1644.65 375.378H1534.26C1514.23 375.378 1497.22 368.517 1483.22 354.782C1469.21 341.06 1462.23 324.431 1462.23 304.922V206.669C1462.23 187.16 1469.21 170.488 1483.17 156.626C1497.15 142.777 1514.11 135.846 1534.12 135.846H1629.86C1649.61 135.846 1666.53 142.777 1680.62 156.626C1694.71 170.488 1701.75 187.16 1701.75 206.669ZM1653.7 206.486C1653.7 198.736 1651.34 192.186 1646.64 186.849C1641.94 181.513 1636.33 178.845 1629.79 178.845H1533.82C1527.06 178.845 1521.38 181.513 1516.8 186.849C1512.21 192.186 1509.92 198.722 1509.92 206.486V224.682C1509.92 230.978 1513.07 234.126 1519.34 234.126H1629.8C1636.33 234.126 1641.94 231.402 1646.66 225.953C1651.34 220.49 1653.7 214.01 1653.7 206.486Z" fill="white"/>
<path d="M2086.88 365.651C2086.88 372.159 2083.74 375.406 2077.49 375.406H2048.58C2042.31 375.406 2039.19 372.145 2039.19 365.637V206.358C2039.19 198.636 2036.84 192.115 2032.15 186.821C2027.45 181.513 2021.86 178.859 2015.35 178.859H1919.26C1912.75 178.859 1907.14 181.513 1902.46 186.821C1897.77 192.129 1895.41 198.636 1895.41 206.358V365.637C1895.41 372.159 1892.28 375.406 1886.01 375.406H1857.11C1850.84 375.406 1847.72 372.159 1847.72 365.651V205.949C1847.72 186.68 1854.71 170.177 1868.68 156.456C1882.64 142.72 1899.51 135.859 1919.26 135.859H2015.35C2035.1 135.859 2051.97 142.72 2065.94 156.456C2079.9 170.177 2086.89 186.694 2086.89 205.949V365.651H2086.88Z" fill="white"/>
<path d="M2491.87 304.949C2491.87 324.459 2484.83 341.088 2470.73 354.81C2456.64 368.531 2439.72 375.406 2419.97 375.406H2268.95C2262.44 375.406 2259.2 372.159 2259.2 365.651V341.808C2259.2 335.554 2262.46 332.421 2268.96 332.421H2420.28C2427.03 332.421 2432.7 329.71 2437.29 324.289C2441.88 318.869 2444.18 312.431 2444.18 304.964V286.174C2444.18 280.16 2441.03 277.139 2434.76 277.139H2319.65C2299.88 277.139 2282.91 270.279 2268.81 256.543C2254.69 242.822 2247.63 226.192 2247.63 206.683C2247.63 187.174 2254.68 170.502 2268.78 156.639C2282.87 142.791 2299.78 135.859 2319.54 135.859H2419.97C2439.72 135.859 2456.64 142.791 2470.73 156.639C2484.82 170.502 2491.87 187.174 2491.87 206.683V304.949ZM2444.18 225.035V206.485C2444.18 198.735 2441.88 192.185 2437.27 186.849C2432.67 181.513 2426.98 178.845 2420.21 178.845H2319.28C2312.51 178.845 2306.82 181.513 2302.22 186.849C2297.62 192.185 2295.33 198.721 2295.33 206.485C2295.33 214.01 2297.63 220.489 2302.22 225.952C2306.81 231.401 2312.5 234.126 2319.28 234.126H2434.73C2441.03 234.126 2444.18 231.105 2444.18 225.035Z" fill="white"/>
<path d="M2876.63 365.651C2876.63 372.159 2873.38 375.406 2866.88 375.406H2646.86C2640.35 375.406 2637.11 372.159 2637.11 365.651V341.808C2637.11 335.554 2640.37 332.421 2646.9 332.421H2723.78C2730.06 332.421 2733.2 329.16 2733.2 322.638V188.275C2733.2 181.993 2730.07 178.859 2723.82 178.859H2694.91C2688.64 178.859 2685.52 175.626 2685.52 169.175V145.529C2685.52 139.092 2688.64 135.859 2694.9 135.859H2819.22C2825.46 135.859 2828.6 139.092 2828.6 145.529V169.175C2828.6 175.626 2825.46 178.859 2819.21 178.859H2790.3C2784.03 178.859 2780.92 181.993 2780.92 188.275V322.638C2780.92 329.16 2784.05 332.421 2790.3 332.421H2866.89C2873.4 332.421 2876.65 335.554 2876.65 341.808L2876.63 365.651Z" fill="white"/>
<path d="M3261.75 365.651C3261.75 372.159 3258.62 375.406 3252.37 375.406H3223.46C3217.19 375.406 3214.07 372.145 3214.07 365.637V206.358C3214.07 198.636 3211.72 192.115 3207.03 186.821C3202.33 181.513 3196.74 178.859 3190.23 178.859H3094.13C3087.63 178.859 3082.02 181.513 3077.34 186.821C3072.65 192.129 3070.29 198.636 3070.29 206.358V365.637C3070.29 372.159 3067.16 375.406 3060.89 375.406H3031.98C3025.72 375.406 3022.6 372.159 3022.6 365.651V205.949C3022.6 186.68 3029.58 170.177 3043.56 156.456C3057.52 142.72 3074.39 135.859 3094.13 135.859H3190.23C3209.98 135.859 3226.85 142.72 3240.82 156.456C3254.78 170.177 3261.77 186.694 3261.77 205.949L3261.75 365.651Z" fill="white"/>
<path d="M3670 206.669C3670 226.179 3662.94 242.794 3648.83 256.53C3634.71 270.265 3617.74 277.126 3597.97 277.126H3487.56C3481.29 277.126 3478.16 280.373 3478.16 286.88V304.936C3478.16 312.403 3480.46 318.855 3485.05 324.262C3489.65 329.682 3495.34 332.393 3502.12 332.393H3612.86C3619.14 332.393 3622.3 335.527 3622.3 341.78V365.624C3622.3 372.131 3619.16 375.378 3612.89 375.378H3502.49C3482.46 375.378 3465.45 368.517 3451.45 354.782C3437.46 341.06 3430.46 324.431 3430.46 304.922V206.669C3430.46 187.16 3437.45 170.488 3451.42 156.626C3465.38 142.777 3482.36 135.846 3502.35 135.846H3598.1C3617.84 135.846 3634.77 142.777 3648.85 156.626C3662.96 170.488 3670 187.16 3670 206.669ZM3621.95 206.486C3621.95 198.736 3619.59 192.186 3614.89 186.849C3610.18 181.513 3604.56 178.845 3598.04 178.845H3502.07C3495.29 178.845 3489.63 181.513 3485.03 186.849C3480.44 192.186 3478.16 198.722 3478.16 206.486V224.682C3478.16 230.978 3481.29 234.126 3487.57 234.126H3598.04C3604.56 234.126 3610.16 231.402 3614.89 225.953C3619.61 220.49 3621.95 214.01 3621.95 206.486Z" fill="white"/>
<path d="M490.51 266.016C491.71 276.547 493.672 287.064 493.982 297.624C495.648 355.714 479.472 407.55 436.886 448.616C405.324 479.052 366.45 495.004 322.932 498.9C249.419 505.506 184.771 481.847 126.629 438.664C73.9649 399.546 36.1921 348.811 14.7085 286.726C-1.4254 240.126 -5.61767 192.383 8.92118 144.542C30.3624 73.9583 78.5382 31.8905 149.948 15.6281C155.453 14.3717 161.085 13.6376 166.675 12.72C167.155 12.6353 167.677 12.9318 168.312 13.087C157.034 19.6937 145.403 25.6227 134.717 32.921C97.4105 58.4017 76.7174 94.6817 69.5891 138.571C58.1698 208.829 80.7402 270.124 122.875 324.939C162.609 376.635 214.046 411.658 278.44 425.479C332.065 436.984 382.725 430.081 427.231 395.932C459.16 371.426 477.467 338.082 484.906 298.767C486.939 288.024 487.884 277.084 489.338 266.228C489.719 266.157 490.115 266.087 490.51 266.016Z" fill="white"/>
<path d="M213.171 100.172C163.866 103.122 101.236 145.444 110.708 235.565C110.058 235.706 109.409 235.847 108.76 235.974C106.487 224.102 103.368 212.329 102.111 200.358C98.9638 170.332 102.478 141.279 116.749 114.034C137.71 73.9992 171.263 51.6948 215.204 44.7352C263.154 37.1404 307.053 49.5067 348.27 73.6181C349.173 74.1404 350.175 74.5215 350.161 75.6509C339.25 73.2793 328.452 70.1312 317.428 68.6913C276.86 63.4258 226.03 94.6096 227.061 148.832C227.767 186.312 244.663 216.62 272.258 241.127C294.081 260.509 319.375 272.297 349.088 272.551C404.28 273.045 442.462 224.37 428.586 170.741C425.467 158.7 419.863 147.293 416.052 135.026C420.399 141.576 425.156 147.914 429.052 154.719C454.502 199.271 467.008 246.209 453.33 297.326C440.175 346.48 407.498 376.436 359.364 390.538C354.974 391.823 350.486 392.839 345.983 393.644C342.073 394.35 338.078 394.604 333.872 394.604C367.227 383.635 391.773 362.87 405.663 330.486C412.692 314.082 415.826 296.86 414.767 277.746C412.283 279.256 410.843 279.863 409.728 280.837C382.231 305.146 350.133 310.172 315.254 303.269C255.899 291.51 205.408 240.576 194.68 181.964C189.415 153.18 194.878 126.866 212 103.037C212.423 102.458 212.578 101.654 213.171 100.172Z" fill="#10AED6"/>
<path d="M349.031 264.18C382.697 248.792 398.125 224.667 393.904 194.118C391.448 176.303 385.082 160.083 374.312 145.98C358.206 124.876 337.358 110.815 310.369 107.272C278.017 103.037 252.553 119.653 243.491 151.006C242.982 152.77 242.446 154.521 241.811 156.695C237.619 135.026 251.79 105.282 272.328 93.2543C300.912 76.5118 329.679 80.0834 356.795 95.9082C391.985 116.448 413.609 147.293 416.192 188.613C418.493 225.359 397.984 258.067 355.397 264.151C353.322 264.448 351.149 264.18 349.031 264.18Z" fill="#87C554"/>
</g>
<defs>
<clipPath id="clip0_6561_4069">
<rect width="3670" height="500" fill="white"/>
</clipPath>
</defs>
</svg>
