<svg width="2134" height="500" viewBox="0 0 2134 500" fill="none" xmlns="http://www.w3.org/2000/svg">
<path d="M893.648 280.14H858.209L816.764 222.011H738.167V280.14H707.27V121.951H835.161C851.962 121.951 865.321 126.491 875.252 135.56C885.183 144.634 890.212 156.776 890.212 172.105C890.212 198.344 877.094 214.411 850.85 220.177L893.648 280.14ZM830.62 194.185C849.256 194.185 858.698 186.952 858.698 172.601C858.698 157.272 848.767 149.669 828.905 149.669H738.288V194.178L830.62 194.185Z" fill="white"/>
<path d="M1115.47 280.141H945.152V121.951H1109.59V149.784H976.05V183.999H1068.87V211.711H976.05V252.422H1115.47V280.141Z" fill="white"/>
<path d="M1347.82 121.951L1260.4 280.141H1224.83L1137.4 121.951H1171.49L1242.61 253.279L1313.73 121.951H1347.82Z" fill="white"/>
<path d="M1552.08 280.141H1381.77V121.951H1546.19V149.784H1412.68V183.999H1505.49V211.711H1412.68V252.422H1552.08V280.141Z" fill="white"/>
<path d="M1785.98 280.141H1750.54L1709.1 222.011H1630.51V280.141H1599.6V121.951H1727.5C1744.3 121.951 1757.66 126.491 1767.59 135.56C1777.52 144.634 1782.55 156.776 1782.55 172.105C1782.55 198.344 1769.43 214.41 1743.19 220.177L1785.98 280.141ZM1722.96 194.185C1741.59 194.185 1751.03 186.952 1751.03 172.601C1751.03 157.271 1741.1 149.671 1721.24 149.671H1630.62V194.178L1722.96 194.185Z" fill="white"/>
<path d="M1868.37 280.141H1837.48V121.951H1868.37V280.141Z" fill="white"/>
<path d="M2100.35 280.141H1930.03V121.951H2094.46V149.784H1960.93V183.999H2053.74V211.711H1960.93V252.422H2100.34L2100.35 280.141Z" fill="white"/>
<path d="M503.517 11.5807C484.375 4.11017 463.556 0 441.799 0H170.294C153.208 0 136.682 2.51919 121.187 7.18506C51.0711 28.2911 0 93.2765 0 170.306V214.563V258.821C0 335.759 51.0711 400.841 121.187 421.941C136.78 426.607 153.214 429.127 170.294 429.127H347.591L269.261 350.791L268.419 349.95L257.588 339.124L248.161 329.69C243.771 325.3 240.971 319.793 239.854 314.091C239.11 310.267 239.11 306.34 239.854 302.516C240.599 298.687 242.093 294.954 244.239 291.68C245.361 290.002 246.667 288.411 248.07 286.917L248.533 286.449C253.016 282.063 258.43 279.263 264.126 278.141C264.59 278.045 265.15 278.045 265.62 277.952H274.212H304.367H304.556H347.785C382.61 277.861 410.899 249.571 410.899 214.65C410.899 214.554 410.899 214.554 410.899 214.461C410.899 214.37 410.899 214.278 410.899 214.278C410.899 179.352 382.702 151.067 347.785 150.97H304.556H304.367H198.492H197.371H168.704C162.447 150.97 156.569 149.104 151.805 145.835C148.629 143.688 145.83 140.884 143.683 137.62C141.537 134.351 139.951 130.802 139.11 126.789C138.737 124.826 138.458 122.776 138.458 120.721V120.068C138.458 113.811 140.323 108.024 143.591 103.169C145.739 99.9006 148.537 97.1927 151.714 94.9541C154.983 92.8073 158.618 91.2215 162.545 90.3851C164.502 90.0129 166.557 89.7273 168.612 89.7273H304.458H348.335C393.802 89.7273 433.487 114.286 454.959 150.796C460.466 160.041 464.76 170.123 467.656 180.771C467.656 180.862 467.747 181.143 467.747 181.234C468.68 184.509 469.334 187.868 470.082 191.229C470.643 194.121 471.113 197.017 471.393 200.005C471.485 200.561 471.485 201.218 471.576 201.779C472.046 205.889 472.321 210.091 472.321 214.39C472.321 218.587 472.041 222.789 471.576 226.995C471.485 227.551 471.485 228.204 471.393 228.77C471.113 231.759 470.648 234.65 470.082 237.551C469.43 240.906 468.686 244.272 467.747 247.54C467.656 247.724 467.656 247.821 467.656 248.01C464.76 258.652 460.466 268.641 454.959 277.978C433.391 314.489 393.802 339.048 348.335 339.048H344.042L434.043 429.055L489.316 484.332L503.598 498.615V417.48C567.177 392.733 612.18 331.016 612.18 258.749V214.487V170.23C612.098 98.0393 567.095 36.3224 503.517 11.5807Z" fill="#EE4840"/>
</svg>
