<svg width="14" height="15" viewBox="0 0 14 15" fill="none" xmlns="http://www.w3.org/2000/svg">
<path d="M13.6667 1.97333C13.5867 0.457778 9.45777 0.0488892 6.99999 0.0488892C4.54222 0.0488892 0.333328 0.462223 0.333328 2.01333V12.0533C0.333328 13.6044 4.52444 14.0222 6.99999 14.0222C9.47555 14.0222 13.6667 13.6089 13.6667 12.0533V1.97333ZM12.7778 5.33333C12.6311 5.71556 10.5289 6.42222 6.99999 6.42222C5.34942 6.46402 3.7018 6.26031 2.11111 5.81778V6.74222C3.70967 7.14032 5.35273 7.33152 6.99999 7.31111C8.77777 7.31111 11.4133 7.09778 12.7778 6.42222V8.72C12.6311 9.10222 10.5289 9.80889 6.99999 9.80889C5.34854 9.8449 3.7009 9.6352 2.11111 9.18667V10.1111C3.70967 10.5092 5.35273 10.7004 6.99999 10.68C8.77777 10.68 11.4133 10.4667 12.7778 9.79111V12.0578C12.6222 12.44 10.52 13.1467 6.99999 13.1467C3.48 13.1467 1.35555 12.4222 1.22222 12.0533V2.03111C1.35555 1.66667 3.44444 0.937778 6.99999 0.937778C10.4533 0.937778 12.5378 1.61778 12.7778 1.99111C12.5467 2.37778 10.4622 3.05333 6.99999 3.05333C5.34945 3.09447 3.70193 2.89078 2.11111 2.44889V3.37778C3.71004 3.77342 5.35297 3.9631 6.99999 3.94222C8.77777 3.94222 11.4133 3.72889 12.7778 3.05333V5.33333Z" fill="black"/>
</svg>
