<svg width="14" height="14" viewBox="0 0 14 14" fill="none" xmlns="http://www.w3.org/2000/svg">
<path d="M1.3555 13L4.171 8.002L7.888 11.247C8.00036 11.347 8.13383 11.4203 8.27846 11.4616C8.4231 11.5028 8.57518 11.5109 8.72337 11.4853C8.87157 11.4596 9.01208 11.4009 9.13442 11.3134C9.25676 11.2259 9.3578 11.1119 9.43 10.98L12.915 5.7785L12.0845 5.2215L8.5845 10.4455L8.5495 10.497L4.832 7.252C4.71967 7.15259 4.58645 7.07968 4.44217 7.03865C4.29789 6.99762 4.14624 6.98953 3.99841 7.01497C3.85058 7.0404 3.71036 7.09872 3.58809 7.18562C3.46582 7.27251 3.36463 7.38576 3.292 7.517L1 11.5915V0H0V13C0 13.2652 0.105357 13.5196 0.292893 13.7071C0.48043 13.8946 0.734784 14 1 14H14V13H1.3555Z" fill="black"/>
</svg>
