<svg width="14" height="10" viewBox="0 0 14 10" fill="none" xmlns="http://www.w3.org/2000/svg">
<path d="M5.66668 1.33403L1.24501 9.00069H10.0883L9.02068 7.14903C9.31635 7.30283 9.63582 7.40572 9.96568 7.45336L10.9543 9.16736C10.9836 9.21806 10.999 9.27557 10.999 9.33411C10.999 9.39265 10.9836 9.45015 10.9543 9.50083C10.925 9.55152 10.8828 9.59359 10.8321 9.62282C10.7814 9.65206 10.7239 9.66742 10.6653 9.66736H0.667675C0.609164 9.66736 0.551684 9.65195 0.501012 9.6227C0.45034 9.59344 0.408262 9.55136 0.379007 9.50069C0.349752 9.45002 0.33435 9.39254 0.334351 9.33402C0.334351 9.27551 0.349753 9.21803 0.379009 9.16736L5.37801 0.500026C5.40727 0.449357 5.44935 0.407281 5.50002 0.378028C5.55069 0.348775 5.60817 0.333374 5.66668 0.333374C5.72518 0.333374 5.78266 0.348775 5.83333 0.378028C5.88401 0.407281 5.92608 0.449357 5.95534 0.500026L7.62868 3.40103C7.50483 3.71096 7.43417 4.03958 7.41968 4.37303L5.66668 1.33403Z" fill="black"/>
<path fill-rule="evenodd" clip-rule="evenodd" d="M9.494 6.63569C9.77884 6.75616 10.0851 6.81795 10.3943 6.81736C10.928 6.81834 11.4455 6.63368 11.858 6.29502L13.1653 7.60202L13.668 7.09936L12.3333 5.76469C12.5914 5.36672 12.7208 4.89899 12.7039 4.42497C12.687 3.95095 12.5246 3.49361 12.2389 3.11502C11.9531 2.73644 11.5578 2.45496 11.1066 2.30878C10.6553 2.1626 10.1701 2.1588 9.71659 2.29791C9.26313 2.43701 8.86345 2.71228 8.57181 3.08635C8.28017 3.46041 8.11069 3.91516 8.08638 4.38886C8.06207 4.86255 8.18411 5.33226 8.43593 5.73421C8.68775 6.13617 9.05715 6.4509 9.494 6.63569ZM8.79433 4.50636C8.79433 4.9307 8.9629 5.33767 9.26296 5.63773C9.56302 5.93779 9.96998 6.10636 10.3943 6.10636C10.8187 6.10636 11.2256 5.93779 11.5257 5.63773C11.8258 5.33767 11.9943 4.9307 11.9943 4.50636C11.9943 4.08201 11.8258 3.67504 11.5257 3.37499C11.2256 3.07493 10.8187 2.90636 10.3943 2.90636C9.96998 2.90636 9.56302 3.07493 9.26296 3.37499C8.9629 3.67504 8.79433 4.08201 8.79433 4.50636Z" fill="black"/>
<path d="M5.25 7.0167H6.08333V7.85003H5.25V7.0167ZM5.66667 3.6817C5.43667 3.6817 5.25 3.86837 5.25 4.09837V5.9317C5.25 6.04221 5.2939 6.14819 5.37204 6.22633C5.45018 6.30447 5.55616 6.34837 5.66667 6.34837C5.77717 6.34837 5.88315 6.30447 5.96129 6.22633C6.03943 6.14819 6.08333 6.04221 6.08333 5.9317V4.09837C6.08333 3.86837 5.89667 3.6817 5.66667 3.6817Z" fill="black"/>
</svg>
