<svg width="14" height="8" viewBox="0 0 14 8" fill="none" xmlns="http://www.w3.org/2000/svg">
<path d="M12 2C11.071 2 10.295 2.64 10.071 3.5H8.707C8.44 3.5 8.189 3.604 8 3.793L5.293 6.5H0V7.5H5.293C5.56 7.5 5.811 7.396 6 7.207L8.707 4.5H10.071C10.2945 5.36 11.071 6 12 6C13.103 6 14 5.103 14 4C14 2.897 13.103 2 12 2ZM12 5C11.4485 5 11 4.5515 11 4C11 3.4485 11.4485 3 12 3C12.5515 3 13 3.449 13 4C13 4.551 12.5515 5 12 5ZM7.086 3.293L5.293 1.5H0V0.5H5.293C5.56 0.5 5.811 0.604 6 0.793L7.793 2.586L7.086 3.293Z" fill="black"/>
</svg>
