<svg width="360" height="391" viewBox="0 0 360 391" fill="none" xmlns="http://www.w3.org/2000/svg">
<circle cx="179.901" cy="244.899" r="106.449" transform="rotate(90 179.901 244.899)" fill="#F5F5F5"/>
<path d="M159.571 199.173C160.21 197.278 161.988 196.002 163.988 196.002H193.276L162.877 286.073C162.237 287.969 160.46 289.244 158.46 289.244H135.666C132.476 289.244 130.228 286.113 131.248 283.092L159.571 199.173Z" fill="url(#paint0_linear_167_5)"/>
<path d="M206.392 256.609H160.235C158.295 256.609 157.359 258.985 158.777 260.308L188.436 287.99C189.3 288.796 190.436 289.244 191.617 289.244H217.752L206.392 256.609Z" fill="#0078D4"/>
<path d="M163.988 196.002C161.988 196.002 160.21 197.278 159.571 199.173L131.248 283.092C130.228 286.113 132.476 289.244 135.666 289.244H158.46C160.46 289.244 162.237 287.969 162.877 286.073L168.508 269.39L188.436 287.989C189.299 288.795 190.436 289.243 191.617 289.243H217.752L206.392 256.608H172.821L193.276 196.002H163.988Z" fill="url(#paint1_linear_167_5)"/>
<path d="M201.341 199.171C200.701 197.276 198.924 196 196.924 196H164.139H164.289C166.289 196 168.066 197.276 168.706 199.171L197.028 283.09C198.048 286.112 195.8 289.242 192.611 289.242H192.112H225.246C228.436 289.242 230.683 286.112 229.663 283.09L201.341 199.171Z" fill="url(#paint2_linear_167_5)"/>
<g filter="url(#filter0_f_167_5)">
<circle cx="179.9" cy="244.898" r="136.25" transform="rotate(90 179.9 244.898)" stroke="#F5F5F5" stroke-width="0.245275"/>
<circle cx="179.9" cy="244.898" r="136.25" transform="rotate(90 179.9 244.898)" stroke="url(#paint3_linear_167_5)" stroke-width="0.245275"/>
</g>
<g filter="url(#filter1_f_167_5)">
<circle cx="179.9" cy="244.899" r="168.627" transform="rotate(90 179.9 244.899)" stroke="url(#paint4_linear_167_5)" stroke-width="0.245275"/>
</g>
<g filter="url(#filter2_f_167_5)">
<circle cx="179.9" cy="244.898" r="201.984" transform="rotate(90 179.9 244.898)" stroke="url(#paint5_linear_167_5)" stroke-width="0.245275"/>
</g>
<g filter="url(#filter3_f_167_5)">
<circle cx="179.899" cy="244.899" r="238.775" transform="rotate(90 179.899 244.899)" stroke="url(#paint6_linear_167_5)" stroke-width="0.245275"/>
</g>
<g filter="url(#filter4_f_167_5)">
<circle cx="321.895" cy="335.043" r="4.90551" transform="rotate(90 321.895 335.043)" fill="#F7F7F7"/>
</g>
<g filter="url(#filter5_f_167_5)">
<circle cx="251.519" cy="360.669" r="2.45275" transform="rotate(90 251.519 360.669)" fill="#F7F7F7"/>
</g>
<g filter="url(#filter6_f_167_5)">
<circle cx="55" cy="194" r="10" fill="#F7F7F7"/>
</g>
<defs>
<filter id="filter0_f_167_5" x="43.0363" y="108.034" width="273.727" height="273.727" filterUnits="userSpaceOnUse" color-interpolation-filters="sRGB">
<feFlood flood-opacity="0" result="BackgroundImageFix"/>
<feBlend mode="normal" in="SourceGraphic" in2="BackgroundImageFix" result="shape"/>
<feGaussianBlur stdDeviation="0.245275" result="effect1_foregroundBlur_167_5"/>
</filter>
<filter id="filter1_f_167_5" x="9.67825" y="74.6783" width="340.442" height="340.442" filterUnits="userSpaceOnUse" color-interpolation-filters="sRGB">
<feFlood flood-opacity="0" result="BackgroundImageFix"/>
<feBlend mode="normal" in="SourceGraphic" in2="BackgroundImageFix" result="shape"/>
<feGaussianBlur stdDeviation="0.735826" result="effect1_foregroundBlur_167_5"/>
</filter>
<filter id="filter2_f_167_5" x="-25.6404" y="39.3578" width="411.082" height="411.081" filterUnits="userSpaceOnUse" color-interpolation-filters="sRGB">
<feFlood flood-opacity="0" result="BackgroundImageFix"/>
<feBlend mode="normal" in="SourceGraphic" in2="BackgroundImageFix" result="shape"/>
<feGaussianBlur stdDeviation="1.71693" result="effect1_foregroundBlur_167_5"/>
</filter>
<filter id="filter3_f_167_5" x="-64.3956" y="0.604371" width="488.588" height="488.588" filterUnits="userSpaceOnUse" color-interpolation-filters="sRGB">
<feFlood flood-opacity="0" result="BackgroundImageFix"/>
<feBlend mode="normal" in="SourceGraphic" in2="BackgroundImageFix" result="shape"/>
<feGaussianBlur stdDeviation="2.69803" result="effect1_foregroundBlur_167_5"/>
</filter>
<filter id="filter4_f_167_5" x="308.16" y="321.308" width="27.4709" height="27.4709" filterUnits="userSpaceOnUse" color-interpolation-filters="sRGB">
<feFlood flood-opacity="0" result="BackgroundImageFix"/>
<feBlend mode="normal" in="SourceGraphic" in2="BackgroundImageFix" result="shape"/>
<feGaussianBlur stdDeviation="4.41495" result="effect1_foregroundBlur_167_5"/>
</filter>
<filter id="filter5_f_167_5" x="248.086" y="357.235" width="6.86748" height="6.86772" filterUnits="userSpaceOnUse" color-interpolation-filters="sRGB">
<feFlood flood-opacity="0" result="BackgroundImageFix"/>
<feBlend mode="normal" in="SourceGraphic" in2="BackgroundImageFix" result="shape"/>
<feGaussianBlur stdDeviation="0.490551" result="effect1_foregroundBlur_167_5"/>
</filter>
<filter id="filter6_f_167_5" x="27" y="166" width="56" height="56" filterUnits="userSpaceOnUse" color-interpolation-filters="sRGB">
<feFlood flood-opacity="0" result="BackgroundImageFix"/>
<feBlend mode="normal" in="SourceGraphic" in2="BackgroundImageFix" result="shape"/>
<feGaussianBlur stdDeviation="9" result="effect1_foregroundBlur_167_5"/>
</filter>
<linearGradient id="paint0_linear_167_5" x1="163.789" y1="199.229" x2="133.378" y2="289.07" gradientUnits="userSpaceOnUse">
<stop stop-color="#114A8B"/>
<stop offset="1" stop-color="#0669BC"/>
</linearGradient>
<linearGradient id="paint1_linear_167_5" x1="188.092" y1="256.619" x2="181.065" y2="258.995" gradientUnits="userSpaceOnUse">
<stop stop-opacity="0.3"/>
<stop offset="0.0711768" stop-opacity="0.2"/>
<stop offset="0.321031" stop-opacity="0.1"/>
<stop offset="0.623053" stop-opacity="0.05"/>
<stop offset="1" stop-opacity="0"/>
</linearGradient>
<linearGradient id="paint2_linear_167_5" x1="183.07" y1="199.228" x2="216.451" y2="288.164" gradientUnits="userSpaceOnUse">
<stop stop-color="#3CCBF4"/>
<stop offset="1" stop-color="#2892DF"/>
</linearGradient>
<linearGradient id="paint3_linear_167_5" x1="179.9" y1="108.524" x2="75.2415" y2="341.231" gradientUnits="userSpaceOnUse">
<stop stop-color="#F5F5F5"/>
<stop offset="1" stop-color="#7994FF" stop-opacity="0.29"/>
</linearGradient>
<linearGradient id="paint4_linear_167_5" x1="179.9" y1="76.1499" x2="50.3942" y2="364.103" gradientUnits="userSpaceOnUse">
<stop stop-color="#F5F5F5"/>
<stop offset="1" stop-color="#7994FF" stop-opacity="0.29"/>
</linearGradient>
<linearGradient id="paint5_linear_167_5" x1="179.9" y1="42.7917" x2="24.7952" y2="387.666" gradientUnits="userSpaceOnUse">
<stop stop-color="#F5F5F5"/>
<stop offset="1" stop-color="#7994FF" stop-opacity="0.16"/>
</linearGradient>
<linearGradient id="paint6_linear_167_5" x1="179.899" y1="6.00041" x2="-3.44165" y2="413.655" gradientUnits="userSpaceOnUse">
<stop stop-color="#F5F5F5"/>
<stop offset="1" stop-color="#7994FF" stop-opacity="0.1"/>
</linearGradient>
</defs>
</svg>
