<svg width="838" height="606" viewBox="0 0 838 606" fill="none" xmlns="http://www.w3.org/2000/svg">
<g filter="url(#filter0_f_154_5)">
<circle cx="419" cy="303" r="343.75" stroke="url(#paint0_linear_154_5)" stroke-width="0.5"/>
</g>
<g filter="url(#filter1_f_154_5)">
<circle cx="419" cy="303" r="411.75" stroke="url(#paint1_linear_154_5)" stroke-width="0.5"/>
</g>
<g filter="url(#filter2_f_154_5)">
<circle cx="333" cy="179" r="231" fill="url(#paint2_radial_154_5)"/>
</g>
<circle cx="419" cy="303" r="217" fill="#F5F5F5"/>
<path d="M375.996 213.543C377.314 209.635 380.979 207.004 385.103 207.004H445.488L382.812 392.713C381.493 396.62 377.829 399.251 373.704 399.251H326.708C320.132 399.251 315.498 392.795 317.601 386.565L375.996 213.543Z" fill="url(#paint3_linear_154_5)"/>
<path d="M472.532 331.963H377.365C373.366 331.963 371.435 336.862 374.359 339.589L435.51 396.665C437.29 398.326 439.634 399.25 442.068 399.25H495.954L472.532 331.963Z" fill="#0078D4"/>
<path d="M385.103 207.004C380.979 207.004 377.314 209.635 375.996 213.543L317.601 386.565C315.498 392.795 320.132 399.251 326.708 399.251H373.704C377.829 399.251 381.493 396.62 382.812 392.713L394.421 358.314L435.508 396.663C437.288 398.325 439.632 399.248 442.068 399.248H495.952L472.53 331.961H403.315L445.488 207.004H385.103Z" fill="url(#paint4_linear_154_5)"/>
<path d="M462.116 213.539C460.798 209.631 457.133 207 453.009 207H385.414H385.722C389.847 207 393.511 209.631 394.83 213.539L453.225 386.561C455.328 392.791 450.693 399.247 444.117 399.247H443.088H511.404C517.98 399.247 522.615 392.791 520.511 386.561L462.116 213.539Z" fill="url(#paint5_linear_154_5)"/>
<defs>
<filter id="filter0_f_154_5" x="72" y="-44" width="694" height="694" filterUnits="userSpaceOnUse" color-interpolation-filters="sRGB">
<feFlood flood-opacity="0" result="BackgroundImageFix"/>
<feBlend mode="normal" in="SourceGraphic" in2="BackgroundImageFix" result="shape"/>
<feGaussianBlur stdDeviation="1.5" result="effect1_foregroundBlur_154_5"/>
</filter>
<filter id="filter1_f_154_5" x="0" y="-116" width="838" height="838" filterUnits="userSpaceOnUse" color-interpolation-filters="sRGB">
<feFlood flood-opacity="0" result="BackgroundImageFix"/>
<feBlend mode="normal" in="SourceGraphic" in2="BackgroundImageFix" result="shape"/>
<feGaussianBlur stdDeviation="3.5" result="effect1_foregroundBlur_154_5"/>
</filter>
<filter id="filter2_f_154_5" x="2" y="-152" width="662" height="662" filterUnits="userSpaceOnUse" color-interpolation-filters="sRGB">
<feFlood flood-opacity="0" result="BackgroundImageFix"/>
<feBlend mode="normal" in="SourceGraphic" in2="BackgroundImageFix" result="shape"/>
<feGaussianBlur stdDeviation="50" result="effect1_foregroundBlur_154_5"/>
</filter>
<linearGradient id="paint0_linear_154_5" x1="419" y1="-41" x2="155" y2="546" gradientUnits="userSpaceOnUse">
<stop stop-color="#F5F5F5"/>
<stop offset="1" stop-color="#7994FF" stop-opacity="0.29"/>
</linearGradient>
<linearGradient id="paint1_linear_154_5" x1="419" y1="-109" x2="102.814" y2="594.035" gradientUnits="userSpaceOnUse">
<stop stop-color="#F5F5F5"/>
<stop offset="1" stop-color="#7994FF" stop-opacity="0.16"/>
</linearGradient>
<radialGradient id="paint2_radial_154_5" cx="0" cy="0" r="1" gradientUnits="userSpaceOnUse" gradientTransform="translate(333 211.523) rotate(-90) scale(225.162)">
<stop offset="0.331731" stop-color="#0C58A1"/>
<stop offset="1" stop-color="#0078D4" stop-opacity="0"/>
</radialGradient>
<linearGradient id="paint3_linear_154_5" x1="384.692" y1="213.658" x2="321.991" y2="398.891" gradientUnits="userSpaceOnUse">
<stop stop-color="#114A8B"/>
<stop offset="1" stop-color="#0669BC"/>
</linearGradient>
<linearGradient id="paint4_linear_154_5" x1="434.8" y1="331.984" x2="420.312" y2="336.883" gradientUnits="userSpaceOnUse">
<stop stop-opacity="0.3"/>
<stop offset="0.0711768" stop-opacity="0.2"/>
<stop offset="0.321031" stop-opacity="0.1"/>
<stop offset="0.623053" stop-opacity="0.05"/>
<stop offset="1" stop-opacity="0"/>
</linearGradient>
<linearGradient id="paint5_linear_154_5" x1="424.446" y1="213.655" x2="493.27" y2="397.023" gradientUnits="userSpaceOnUse">
<stop stop-color="#3CCBF4"/>
<stop offset="1" stop-color="#2892DF"/>
</linearGradient>
</defs>
</svg>
