<svg width="1920" height="606" viewBox="0 0 1920 606" fill="none" xmlns="http://www.w3.org/2000/svg">
<g clip-path="url(#clip0_154_7)">
<rect width="1920" height="606" fill="#F5F5F5"/>
<circle cx="1380" cy="303" r="217" fill="#F5F5F5"/>
<g opacity="0.28" filter="url(#filter0_f_154_7)">
<circle cx="938.5" cy="578.5" r="492.5" fill="url(#paint0_radial_154_7)"/>
</g>
<g opacity="0.82" filter="url(#filter1_f_154_7)">
<circle cx="1128" cy="152" r="483" fill="url(#paint1_radial_154_7)"/>
</g>
<g filter="url(#filter2_f_154_7)">
<circle cx="1788" cy="232" r="10" fill="#F7F7F7"/>
</g>
<g filter="url(#filter3_f_154_7)">
<circle cx="1153" cy="462" r="10" fill="#F7F7F7"/>
</g>
<g opacity="0.62" filter="url(#filter4_f_154_7)">
<circle cx="1036" cy="237" r="22" fill="#F7F7F7"/>
</g>
<g filter="url(#filter5_f_154_7)">
<circle cx="1115" cy="86" r="5" fill="#F7F7F7"/>
<circle cx="1115" cy="86" r="3.54449" stroke="#F5F5F5" stroke-width="2.91101"/>
</g>
<g opacity="0.58" filter="url(#filter6_f_154_7)">
<circle cx="111" cy="-161" r="441" fill="url(#paint2_radial_154_7)"/>
</g>
<g opacity="0.33" filter="url(#filter7_f_154_7)">
<circle cx="1971.5" cy="25.5" r="271.5" fill="url(#paint3_radial_154_7)"/>
</g>
<g filter="url(#filter8_f_154_7)">
<circle cx="1380" cy="303" r="486.75" stroke="url(#paint4_linear_154_7)" stroke-width="0.5"/>
</g>
<g filter="url(#filter9_f_154_7)">
<circle cx="1380" cy="303" r="343.75" stroke="url(#paint5_linear_154_7)" stroke-width="0.5"/>
</g>
<g filter="url(#filter10_f_154_7)">
<circle cx="1380" cy="303" r="411.75" stroke="url(#paint6_linear_154_7)" stroke-width="0.5"/>
</g>
<g filter="url(#filter11_f_154_7)">
<circle cx="1294" cy="179" r="231" fill="url(#paint7_radial_154_7)"/>
</g>
<circle cx="1380" cy="303" r="217" fill="#F5F5F5"/>
<path d="M1337 213.543C1338.31 209.635 1341.98 207.004 1346.1 207.004H1406.49L1343.81 392.713C1342.49 396.62 1338.83 399.251 1334.7 399.251H1287.71C1281.13 399.251 1276.5 392.795 1278.6 386.565L1337 213.543Z" fill="url(#paint8_linear_154_7)"/>
<path d="M1433.53 331.963H1338.36C1334.37 331.963 1332.44 336.862 1335.36 339.589L1396.51 396.665C1398.29 398.326 1400.63 399.25 1403.07 399.25H1456.95L1433.53 331.963Z" fill="#0078D4"/>
<path d="M1346.1 207.004C1341.98 207.004 1338.31 209.635 1337 213.543L1278.6 386.565C1276.5 392.795 1281.13 399.251 1287.71 399.251H1334.7C1338.83 399.251 1342.49 396.62 1343.81 392.713L1355.42 358.314L1396.51 396.663C1398.29 398.325 1400.63 399.248 1403.07 399.248H1456.95L1433.53 331.961H1364.32L1406.49 207.004H1346.1Z" fill="url(#paint9_linear_154_7)"/>
<path d="M1423.12 213.539C1421.8 209.631 1418.13 207 1414.01 207H1346.41H1346.72C1350.85 207 1354.51 209.631 1355.83 213.539L1414.22 386.561C1416.33 392.791 1411.69 399.247 1405.12 399.247H1404.09H1472.4C1478.98 399.247 1483.61 392.791 1481.51 386.561L1423.12 213.539Z" fill="url(#paint10_linear_154_7)"/>
</g>
<defs>
<filter id="filter0_f_154_7" x="346" y="-14" width="1185" height="1185" filterUnits="userSpaceOnUse" color-interpolation-filters="sRGB">
<feFlood flood-opacity="0" result="BackgroundImageFix"/>
<feBlend mode="normal" in="SourceGraphic" in2="BackgroundImageFix" result="shape"/>
<feGaussianBlur stdDeviation="50" result="effect1_foregroundBlur_154_7"/>
</filter>
<filter id="filter1_f_154_7" x="545" y="-431" width="1166" height="1166" filterUnits="userSpaceOnUse" color-interpolation-filters="sRGB">
<feFlood flood-opacity="0" result="BackgroundImageFix"/>
<feBlend mode="normal" in="SourceGraphic" in2="BackgroundImageFix" result="shape"/>
<feGaussianBlur stdDeviation="50" result="effect1_foregroundBlur_154_7"/>
</filter>
<filter id="filter2_f_154_7" x="1764" y="208" width="48" height="48" filterUnits="userSpaceOnUse" color-interpolation-filters="sRGB">
<feFlood flood-opacity="0" result="BackgroundImageFix"/>
<feBlend mode="normal" in="SourceGraphic" in2="BackgroundImageFix" result="shape"/>
<feGaussianBlur stdDeviation="7" result="effect1_foregroundBlur_154_7"/>
</filter>
<filter id="filter3_f_154_7" x="1125" y="434" width="56" height="56" filterUnits="userSpaceOnUse" color-interpolation-filters="sRGB">
<feFlood flood-opacity="0" result="BackgroundImageFix"/>
<feBlend mode="normal" in="SourceGraphic" in2="BackgroundImageFix" result="shape"/>
<feGaussianBlur stdDeviation="9" result="effect1_foregroundBlur_154_7"/>
</filter>
<filter id="filter4_f_154_7" x="988" y="189" width="96" height="96" filterUnits="userSpaceOnUse" color-interpolation-filters="sRGB">
<feFlood flood-opacity="0" result="BackgroundImageFix"/>
<feBlend mode="normal" in="SourceGraphic" in2="BackgroundImageFix" result="shape"/>
<feGaussianBlur stdDeviation="13" result="effect1_foregroundBlur_154_7"/>
</filter>
<filter id="filter5_f_154_7" x="1106" y="77" width="18" height="18" filterUnits="userSpaceOnUse" color-interpolation-filters="sRGB">
<feFlood flood-opacity="0" result="BackgroundImageFix"/>
<feBlend mode="normal" in="SourceGraphic" in2="BackgroundImageFix" result="shape"/>
<feGaussianBlur stdDeviation="2" result="effect1_foregroundBlur_154_7"/>
</filter>
<filter id="filter6_f_154_7" x="-430" y="-702" width="1082" height="1082" filterUnits="userSpaceOnUse" color-interpolation-filters="sRGB">
<feFlood flood-opacity="0" result="BackgroundImageFix"/>
<feBlend mode="normal" in="SourceGraphic" in2="BackgroundImageFix" result="shape"/>
<feGaussianBlur stdDeviation="50" result="effect1_foregroundBlur_154_7"/>
</filter>
<filter id="filter7_f_154_7" x="1600" y="-346" width="743" height="743" filterUnits="userSpaceOnUse" color-interpolation-filters="sRGB">
<feFlood flood-opacity="0" result="BackgroundImageFix"/>
<feBlend mode="normal" in="SourceGraphic" in2="BackgroundImageFix" result="shape"/>
<feGaussianBlur stdDeviation="50" result="effect1_foregroundBlur_154_7"/>
</filter>
<filter id="filter8_f_154_7" x="882" y="-195" width="996" height="996" filterUnits="userSpaceOnUse" color-interpolation-filters="sRGB">
<feFlood flood-opacity="0" result="BackgroundImageFix"/>
<feBlend mode="normal" in="SourceGraphic" in2="BackgroundImageFix" result="shape"/>
<feGaussianBlur stdDeviation="5.5" result="effect1_foregroundBlur_154_7"/>
</filter>
<filter id="filter9_f_154_7" x="1033" y="-44" width="694" height="694" filterUnits="userSpaceOnUse" color-interpolation-filters="sRGB">
<feFlood flood-opacity="0" result="BackgroundImageFix"/>
<feBlend mode="normal" in="SourceGraphic" in2="BackgroundImageFix" result="shape"/>
<feGaussianBlur stdDeviation="1.5" result="effect1_foregroundBlur_154_7"/>
</filter>
<filter id="filter10_f_154_7" x="961" y="-116" width="838" height="838" filterUnits="userSpaceOnUse" color-interpolation-filters="sRGB">
<feFlood flood-opacity="0" result="BackgroundImageFix"/>
<feBlend mode="normal" in="SourceGraphic" in2="BackgroundImageFix" result="shape"/>
<feGaussianBlur stdDeviation="3.5" result="effect1_foregroundBlur_154_7"/>
</filter>
<filter id="filter11_f_154_7" x="963" y="-152" width="662" height="662" filterUnits="userSpaceOnUse" color-interpolation-filters="sRGB">
<feFlood flood-opacity="0" result="BackgroundImageFix"/>
<feBlend mode="normal" in="SourceGraphic" in2="BackgroundImageFix" result="shape"/>
<feGaussianBlur stdDeviation="50" result="effect1_foregroundBlur_154_7"/>
</filter>
<radialGradient id="paint0_radial_154_7" cx="0" cy="0" r="1" gradientUnits="userSpaceOnUse" gradientTransform="translate(938.5 647.841) rotate(-90) scale(480.054)">
<stop offset="0.331731" stop-color="#4755C6"/>
<stop offset="1" stop-color="#4556F3" stop-opacity="0"/>
</radialGradient>
<radialGradient id="paint1_radial_154_7" cx="0" cy="0" r="1" gradientUnits="userSpaceOnUse" gradientTransform="translate(1128 220.004) rotate(-90) scale(470.794)">
<stop offset="0.331731" stop-color="#2C9AF6"/>
<stop offset="1" stop-color="#8BC4F8" stop-opacity="0"/>
</radialGradient>
<radialGradient id="paint2_radial_154_7" cx="0" cy="0" r="1" gradientUnits="userSpaceOnUse" gradientTransform="translate(111 -98.9097) rotate(-90) scale(429.856)">
<stop offset="0.331731" stop-color="#45A4F3"/>
<stop offset="1" stop-color="#45A4F3" stop-opacity="0"/>
</radialGradient>
<radialGradient id="paint3_radial_154_7" cx="0" cy="0" r="1" gradientUnits="userSpaceOnUse" gradientTransform="translate(1971.5 63.7256) rotate(-90) scale(264.639)">
<stop offset="0.331731" stop-color="#45A4F3"/>
<stop offset="1" stop-color="#45A4F3" stop-opacity="0"/>
</radialGradient>
<linearGradient id="paint4_linear_154_7" x1="1380" y1="-184" x2="1006.26" y2="647.015" gradientUnits="userSpaceOnUse">
<stop stop-color="#F5F5F5"/>
<stop offset="1" stop-color="#7994FF" stop-opacity="0.1"/>
</linearGradient>
<linearGradient id="paint5_linear_154_7" x1="1380" y1="-41" x2="1116" y2="546" gradientUnits="userSpaceOnUse">
<stop stop-color="#F5F5F5"/>
<stop offset="1" stop-color="#7994FF" stop-opacity="0.29"/>
</linearGradient>
<linearGradient id="paint6_linear_154_7" x1="1380" y1="-109" x2="1063.81" y2="594.035" gradientUnits="userSpaceOnUse">
<stop stop-color="#F5F5F5"/>
<stop offset="1" stop-color="#7994FF" stop-opacity="0.16"/>
</linearGradient>
<radialGradient id="paint7_radial_154_7" cx="0" cy="0" r="1" gradientUnits="userSpaceOnUse" gradientTransform="translate(1294 211.523) rotate(-90) scale(225.162)">
<stop offset="0.331731" stop-color="#0C58A1"/>
<stop offset="1" stop-color="#0078D4" stop-opacity="0"/>
</radialGradient>
<linearGradient id="paint8_linear_154_7" x1="1345.69" y1="213.658" x2="1282.99" y2="398.891" gradientUnits="userSpaceOnUse">
<stop stop-color="#114A8B"/>
<stop offset="1" stop-color="#0669BC"/>
</linearGradient>
<linearGradient id="paint9_linear_154_7" x1="1395.8" y1="331.984" x2="1381.31" y2="336.883" gradientUnits="userSpaceOnUse">
<stop stop-opacity="0.3"/>
<stop offset="0.0711768" stop-opacity="0.2"/>
<stop offset="0.321031" stop-opacity="0.1"/>
<stop offset="0.623053" stop-opacity="0.05"/>
<stop offset="1" stop-opacity="0"/>
</linearGradient>
<linearGradient id="paint10_linear_154_7" x1="1385.45" y1="213.655" x2="1454.27" y2="397.023" gradientUnits="userSpaceOnUse">
<stop stop-color="#3CCBF4"/>
<stop offset="1" stop-color="#2892DF"/>
</linearGradient>
<clipPath id="clip0_154_7">
<rect width="1920" height="606" fill="white"/>
</clipPath>
</defs>
</svg>
