<svg width="360" height="352" viewBox="0 0 360 352" fill="none" xmlns="http://www.w3.org/2000/svg">
<g opacity="0.53" filter="url(#filter0_f_177_27)">
<circle cx="95" cy="315" r="120" fill="url(#paint0_radial_177_27)"/>
</g>
<circle cx="179.901" cy="205.899" r="106.449" transform="rotate(90 179.901 205.899)" fill="#F5F5F5"/>
<path d="M159.571 160.173C160.21 158.278 161.988 157.002 163.988 157.002H193.276L162.877 247.073C162.237 248.969 160.46 250.244 158.46 250.244H135.666C132.476 250.244 130.228 247.113 131.248 244.092L159.571 160.173Z" fill="url(#paint1_linear_177_27)"/>
<path d="M206.392 217.609H160.235C158.295 217.609 157.359 219.985 158.777 221.308L188.436 248.99C189.3 249.796 190.436 250.244 191.617 250.244H217.752L206.392 217.609Z" fill="#0078D4"/>
<path d="M163.988 157.002C161.988 157.002 160.21 158.278 159.571 160.173L131.248 244.092C130.228 247.113 132.476 250.244 135.666 250.244H158.46C160.46 250.244 162.237 248.969 162.877 247.073L168.508 230.39L188.436 248.989C189.299 249.795 190.436 250.243 191.617 250.243H217.752L206.392 217.608H172.821L193.276 157.002H163.988Z" fill="url(#paint2_linear_177_27)"/>
<path d="M201.341 160.171C200.701 158.276 198.924 157 196.924 157H164.139H164.289C166.289 157 168.066 158.276 168.706 160.171L197.028 244.09C198.048 247.112 195.8 250.242 192.611 250.242H192.112H225.246C228.436 250.242 230.683 247.112 229.663 244.09L201.341 160.171Z" fill="url(#paint3_linear_177_27)"/>
<g filter="url(#filter1_f_177_27)">
<circle cx="179.9" cy="205.898" r="136.25" transform="rotate(90 179.9 205.898)" stroke="#F5F5F5" stroke-width="0.245275"/>
<circle cx="179.9" cy="205.898" r="136.25" transform="rotate(90 179.9 205.898)" stroke="url(#paint4_linear_177_27)" stroke-width="0.245275"/>
</g>
<g filter="url(#filter2_f_177_27)">
<circle cx="179.9" cy="205.899" r="168.627" transform="rotate(90 179.9 205.899)" stroke="url(#paint5_linear_177_27)" stroke-width="0.245275"/>
</g>
<g filter="url(#filter3_f_177_27)">
<circle cx="179.9" cy="205.898" r="201.984" transform="rotate(90 179.9 205.898)" stroke="url(#paint6_linear_177_27)" stroke-width="0.245275"/>
</g>
<defs>
<filter id="filter0_f_177_27" x="-125" y="95" width="440" height="440" filterUnits="userSpaceOnUse" color-interpolation-filters="sRGB">
<feFlood flood-opacity="0" result="BackgroundImageFix"/>
<feBlend mode="normal" in="SourceGraphic" in2="BackgroundImageFix" result="shape"/>
<feGaussianBlur stdDeviation="50" result="effect1_foregroundBlur_177_27"/>
</filter>
<filter id="filter1_f_177_27" x="43.0363" y="69.0339" width="273.727" height="273.727" filterUnits="userSpaceOnUse" color-interpolation-filters="sRGB">
<feFlood flood-opacity="0" result="BackgroundImageFix"/>
<feBlend mode="normal" in="SourceGraphic" in2="BackgroundImageFix" result="shape"/>
<feGaussianBlur stdDeviation="0.245275" result="effect1_foregroundBlur_177_27"/>
</filter>
<filter id="filter2_f_177_27" x="9.67825" y="35.6783" width="340.442" height="340.442" filterUnits="userSpaceOnUse" color-interpolation-filters="sRGB">
<feFlood flood-opacity="0" result="BackgroundImageFix"/>
<feBlend mode="normal" in="SourceGraphic" in2="BackgroundImageFix" result="shape"/>
<feGaussianBlur stdDeviation="0.735826" result="effect1_foregroundBlur_177_27"/>
</filter>
<filter id="filter3_f_177_27" x="-25.6404" y="0.357833" width="411.082" height="411.081" filterUnits="userSpaceOnUse" color-interpolation-filters="sRGB">
<feFlood flood-opacity="0" result="BackgroundImageFix"/>
<feBlend mode="normal" in="SourceGraphic" in2="BackgroundImageFix" result="shape"/>
<feGaussianBlur stdDeviation="1.71693" result="effect1_foregroundBlur_177_27"/>
</filter>
<radialGradient id="paint0_radial_177_27" cx="0" cy="0" r="1" gradientUnits="userSpaceOnUse" gradientTransform="translate(95 331.895) rotate(-90) scale(116.968)">
<stop offset="0.331731" stop-color="#4755C6"/>
<stop offset="1" stop-color="#4556F3" stop-opacity="0"/>
</radialGradient>
<linearGradient id="paint1_linear_177_27" x1="163.789" y1="160.229" x2="133.378" y2="250.07" gradientUnits="userSpaceOnUse">
<stop stop-color="#114A8B"/>
<stop offset="1" stop-color="#0669BC"/>
</linearGradient>
<linearGradient id="paint2_linear_177_27" x1="188.092" y1="217.619" x2="181.065" y2="219.995" gradientUnits="userSpaceOnUse">
<stop stop-opacity="0.3"/>
<stop offset="0.0711768" stop-opacity="0.2"/>
<stop offset="0.321031" stop-opacity="0.1"/>
<stop offset="0.623053" stop-opacity="0.05"/>
<stop offset="1" stop-opacity="0"/>
</linearGradient>
<linearGradient id="paint3_linear_177_27" x1="183.07" y1="160.228" x2="216.451" y2="249.164" gradientUnits="userSpaceOnUse">
<stop stop-color="#3CCBF4"/>
<stop offset="1" stop-color="#2892DF"/>
</linearGradient>
<linearGradient id="paint4_linear_177_27" x1="179.9" y1="69.5245" x2="75.2415" y2="302.231" gradientUnits="userSpaceOnUse">
<stop stop-color="#F5F5F5"/>
<stop offset="1" stop-color="#7994FF" stop-opacity="0.29"/>
</linearGradient>
<linearGradient id="paint5_linear_177_27" x1="179.9" y1="37.1499" x2="50.3942" y2="325.103" gradientUnits="userSpaceOnUse">
<stop stop-color="#F5F5F5"/>
<stop offset="1" stop-color="#7994FF" stop-opacity="0.29"/>
</linearGradient>
<linearGradient id="paint6_linear_177_27" x1="179.9" y1="3.79167" x2="24.7952" y2="348.666" gradientUnits="userSpaceOnUse">
<stop stop-color="#F5F5F5"/>
<stop offset="1" stop-color="#7994FF" stop-opacity="0.16"/>
</linearGradient>
</defs>
</svg>
