<svg width="680" height="420" viewBox="0 0 680 420" fill="none" xmlns="http://www.w3.org/2000/svg">
<g clip-path="url(#clip0_5879_4439)">
<rect width="680" height="420" rx="16" fill="#010101"/>
<path d="M0 20C0 8.9543 8.95431 0 20 0H660C671.046 0 680 8.95431 680 20V400C680 411.046 671.046 420 660 420H20C8.95432 420 0 411.046 0 400V20Z" fill="url(#paint0_radial_5879_4439)"/>
<path d="M0 20C0 8.9543 8.95431 0 20 0H660C671.046 0 680 8.95431 680 20V400C680 411.046 671.046 420 660 420H20C8.95432 420 0 411.046 0 400V20Z" fill="url(#paint1_radial_5879_4439)"/>
</g>
<defs>
<radialGradient id="paint0_radial_5879_4439" cx="0" cy="0" r="1" gradientUnits="userSpaceOnUse" gradientTransform="translate(8.49992 -26.5) rotate(44.5384) scale(394.932 1619.39)">
<stop stop-color="white"/>
<stop offset="0.05" stop-color="#89A1CF"/>
<stop offset="0.08" stop-color="#5C59AC"/>
<stop offset="0.19" stop-color="#3059AC"/>
<stop offset="1" stop-color="#010101" stop-opacity="0"/>
</radialGradient>
<radialGradient id="paint1_radial_5879_4439" cx="0" cy="0" r="1" gradientUnits="userSpaceOnUse" gradientTransform="translate(690.5 441.5) rotate(-142.67) scale(498.016 806.312)">
<stop stop-color="white"/>
<stop offset="0.05" stop-color="#89A1CF"/>
<stop offset="0.08" stop-color="#5C59A9"/>
<stop offset="0.19" stop-color="#3059A9"/>
<stop offset="1" stop-color="#010101" stop-opacity="0"/>
</radialGradient>
<clipPath id="clip0_5879_4439">
<rect width="680" height="420" rx="16" fill="white"/>
</clipPath>
</defs>
</svg>
